<?xml version="1.0" standalone="no"?>
<!DOCTYPE svg PUBLIC "-//W3C//DTD SVG 20010904//EN"
 "http://www.w3.org/TR/2001/REC-SVG-20010904/DTD/svg10.dtd">
<svg version="1.0" xmlns="http://www.w3.org/2000/svg"
 width="301.000000pt" height="764.000000pt" viewBox="0 0 301.000000 764.000000"
 preserveAspectRatio="xMidYMid meet">
<metadata>
Created by potrace 1.16, written by Peter Selinger 2001-2019
</metadata>
<g transform="translate(0.000000,764.000000) scale(0.100000,-0.100000)"
fill="#000000" stroke="none">
<path d="M395 4973 c-3 -32 -12 -81 -20 -109 -11 -36 -21 -53 -35 -57 -15 -4
-20 -13 -20 -34 0 -44 -15 -136 -27 -158 -6 -11 -13 -36 -17 -56 -4 -20 -19
-48 -36 -64 -17 -16 -30 -36 -30 -45 0 -22 28 -47 68 -61 18 -6 32 -17 32 -25
0 -7 -10 -24 -23 -36 -13 -13 -38 -60 -55 -103 -17 -44 -42 -107 -56 -140 -14
-33 -26 -71 -26 -85 0 -14 -7 -38 -15 -54 -8 -15 -15 -49 -15 -73 0 -36 -5
-51 -26 -70 -24 -22 -25 -25 -10 -42 21 -24 20 -59 -4 -104 -22 -40 -26 -72
-10 -82 7 -4 7 -12 0 -24 -5 -10 -14 -43 -19 -72 -6 -30 -13 -66 -17 -81 -9
-39 3 -90 31 -131 15 -24 20 -37 12 -40 -7 -2 -12 -19 -13 -38 0 -19 -4 -59
-9 -90 -6 -46 -4 -58 10 -73 14 -13 27 -16 52 -11 25 4 35 2 39 -10 7 -17 -14
-75 -26 -75 -5 0 -14 -16 -20 -35 -6 -19 -16 -35 -21 -35 -5 0 -9 -9 -9 -21 0
-12 8 -23 20 -26 24 -6 27 -23 4 -23 -11 0 -14 -8 -12 -27 2 -17 13 -32 33
-43 21 -12 32 -27 36 -51 9 -50 20 -72 56 -113 41 -46 63 -47 63 -3 0 41 26
97 45 97 18 0 23 9 31 57 5 35 3 41 -15 46 -23 6 -41 44 -41 87 0 17 -9 38
-22 50 -12 11 -16 20 -10 20 19 0 14 28 -10 61 -21 28 -22 31 -5 40 25 15 21
48 -8 61 -27 12 -32 27 -14 45 17 17 6 56 -17 68 l-22 11 24 27 c27 32 32 72
9 81 -8 3 -12 12 -9 20 3 9 1 29 -4 45 -9 25 -7 32 8 43 17 12 18 22 11 132
-7 117 -7 119 17 143 19 19 23 32 20 61 -3 23 2 48 13 67 9 16 20 52 24 80 4
27 15 76 26 110 10 33 19 74 19 90 0 17 6 40 14 51 8 11 24 52 37 90 12 38 30
85 40 104 34 65 71 165 76 201 4 33 2 37 -26 47 -17 6 -31 15 -31 19 0 4 11
48 25 98 14 49 25 102 25 117 0 14 7 33 15 42 16 16 20 46 6 46 -5 0 -14 15
-21 33 -18 45 -60 87 -86 87 -20 0 -23 -6 -29 -57z m45 -442 c0 -34 -34 -81
-48 -66 -14 14 4 55 23 55 8 0 15 9 15 20 0 11 2 20 5 20 3 0 5 -13 5 -29z"/>
<path d="M2758 5003 c-1 -10 -2 -72 -2 -138 -1 -66 -6 -143 -13 -172 -7 -28
-15 -111 -18 -185 -4 -73 -12 -143 -18 -156 -8 -18 -8 -28 1 -43 10 -15 9 -25
-2 -47 -8 -16 -22 -34 -30 -41 -20 -16 -21 -47 -2 -54 7 -3 16 -17 18 -31 5
-23 2 -26 -23 -26 -15 0 -31 -5 -34 -11 -4 -5 -4 -21 -1 -35 4 -16 14 -24 29
-25 20 -1 20 -2 2 -6 -30 -7 -38 -19 -31 -47 4 -17 13 -26 26 -26 22 0 45 -31
55 -72 5 -19 3 -28 -5 -28 -8 0 -11 -9 -8 -25 3 -14 1 -28 -3 -31 -5 -3 -9
-21 -9 -41 0 -32 -2 -35 -24 -29 -18 4 -33 -1 -56 -20 -37 -31 -62 -77 -54
-98 5 -14 62 -46 83 -46 5 0 15 8 20 18 8 14 10 10 11 -21 0 -53 25 -96 66
-113 l34 -14 -20 -37 c-14 -26 -20 -57 -20 -98 0 -38 -6 -68 -15 -81 -19 -25
-19 -53 0 -60 12 -5 12 -9 -2 -30 -11 -18 -14 -37 -9 -71 3 -25 11 -52 17 -59
9 -11 8 -14 -5 -14 -19 0 -18 3 -21 -199 -1 -109 -5 -156 -13 -159 -13 -4 -16
-34 -5 -45 4 -4 5 -58 4 -120 -2 -81 -7 -119 -18 -136 -9 -15 -18 -64 -24
-127 -4 -57 -13 -112 -18 -123 -14 -25 -14 -81 -1 -81 7 0 6 -8 -2 -22 -13
-25 -23 -88 -38 -239 -5 -53 -17 -116 -26 -140 -9 -24 -19 -66 -21 -93 -4 -38
-1 -54 16 -77 15 -20 17 -27 6 -23 -22 9 -28 -19 -17 -83 6 -35 7 -62 1 -68
-5 -5 -9 -26 -9 -47 0 -20 -7 -58 -15 -83 -9 -25 -13 -50 -10 -55 3 -5 1 -11
-5 -15 -17 -11 -11 -46 11 -64 21 -17 21 -18 4 -66 -12 -35 -15 -66 -11 -103
6 -49 4 -56 -19 -74 -14 -11 -25 -27 -25 -37 0 -38 -71 -239 -100 -283 -17
-25 -66 -80 -109 -121 -92 -88 -172 -131 -241 -130 -63 0 -744 91 -777 104
-15 6 -44 9 -65 8 -20 -2 -40 0 -44 4 -13 12 -44 7 -50 -8 -4 -8 -12 -15 -20
-15 -8 0 -15 -6 -15 -12 -1 -7 -4 1 -8 17 -5 25 -12 31 -39 33 -18 2 -32 -1
-32 -8 0 -6 -10 -8 -27 -4 -16 4 -30 10 -33 14 -8 11 -214 10 -221 -2 -4 -7
-13 -7 -27 1 -11 6 -41 11 -66 11 -38 0 -46 -3 -46 -18 0 -21 19 -48 40 -55 8
-3 0 -6 -17 -6 -28 -1 -33 -5 -33 -26 0 -15 7 -28 18 -32 9 -3 25 -14 35 -25
21 -22 74 -23 101 -3 27 20 82 19 90 -1 4 -10 14 -14 26 -11 11 3 23 1 26 -4
7 -12 54 -11 54 1 0 13 127 13 135 0 3 -6 43 -10 88 -10 81 0 145 -12 156 -28
3 -5 40 -12 82 -16 63 -5 80 -4 93 9 17 17 28 14 63 -18 12 -11 29 -17 37 -14
8 3 20 -1 27 -9 18 -22 52 -13 59 16 4 15 19 32 40 42 19 9 38 17 41 18 3 0
11 -12 18 -26 9 -20 9 -30 0 -40 -9 -11 -8 -18 1 -29 16 -19 44 -19 64 0 8 8
21 15 28 15 18 -1 48 -25 48 -39 0 -6 11 -11 25 -11 14 0 25 3 25 8 0 10 50
32 76 32 12 0 27 7 34 15 11 13 15 13 33 0 27 -19 71 -19 86 -1 8 10 23 13 45
9 20 -3 36 -1 40 6 4 6 21 11 38 11 20 0 39 9 57 29 15 16 38 31 52 33 17 2
25 10 27 30 2 17 -2 27 -12 30 -13 3 -13 5 0 22 13 19 15 19 27 2 18 -25 80
-19 86 8 2 11 -5 26 -15 33 -16 11 -12 13 28 13 38 0 48 4 53 20 3 11 11 20
16 20 16 0 10 26 -12 54 -20 26 -20 26 0 26 29 0 51 27 51 62 0 20 9 39 30 58
20 18 30 38 30 57 0 17 8 33 20 41 14 9 20 23 20 50 0 21 7 48 16 61 12 17 18
50 20 120 1 53 8 109 15 125 11 23 10 33 -6 64 -11 20 -24 40 -30 44 -5 4 -25
5 -42 2 -19 -4 -33 -2 -33 4 0 5 15 15 33 21 59 22 82 37 82 53 0 9 4 20 8 24
11 11 9 72 -3 79 -6 4 -7 13 -1 23 4 9 11 54 15 99 5 65 4 83 -7 83 -17 0 -49
38 -37 45 5 3 14 30 20 60 8 41 18 60 36 72 21 14 25 23 24 62 -2 67 -2 69 20
76 27 9 27 51 -1 60 -19 6 -19 8 -3 19 13 10 14 17 6 32 -9 16 -7 22 9 32 20
13 27 52 9 52 -17 0 -11 29 11 59 11 16 19 39 17 52 -2 19 -11 25 -38 30 -30
6 -31 7 -7 8 20 1 27 6 27 21 0 10 -7 23 -16 28 -13 7 -14 13 -5 30 6 12 9 33
5 48 -4 14 -1 36 6 49 7 13 11 41 8 64 -2 22 0 42 4 43 5 2 11 54 13 117 4 86
2 121 -9 142 -12 25 -12 29 -1 29 21 0 65 52 65 76 0 23 -24 38 -43 28 -7 -4
-2 3 11 15 25 25 27 35 9 53 -8 6 -12 22 -9 34 5 27 -29 48 -66 41 l-27 -5 28
20 c28 20 36 55 16 75 -7 7 -5 15 6 27 9 9 23 16 31 16 24 0 16 38 -12 56 -22
15 -23 19 -10 26 9 5 16 16 16 23 0 8 5 15 10 15 16 0 11 50 -5 56 -10 4 -13
13 -9 26 3 10 1 25 -6 33 -7 9 -8 15 0 20 5 3 10 -1 10 -9 0 -17 30 -29 54
-20 12 5 16 19 16 59 0 38 -4 55 -15 59 -8 3 -15 14 -15 25 0 31 -11 51 -28
51 -8 0 -24 8 -35 17 -18 17 -20 17 -37 -5 -21 -26 -35 -29 -26 -6 4 9 1 23
-5 30 -8 10 -7 17 5 29 9 9 16 23 16 30 0 8 10 19 21 26 17 9 20 17 16 45 -5
32 -4 34 19 28 46 -12 51 -2 41 70 -10 61 -12 66 -35 66 -14 0 -22 3 -18 7 4
4 19 7 34 8 26 0 27 1 30 70 2 69 2 70 -28 87 -16 9 -30 23 -30 30 0 7 -14 21
-30 30 -35 20 -40 41 -7 33 12 -3 28 -1 35 3 12 8 26 84 40 213 4 36 13 73 20
81 7 9 10 23 6 31 -3 9 1 26 10 39 9 12 16 41 16 65 0 23 5 45 10 48 15 10 12
71 -5 85 -22 19 -18 39 10 50 18 7 25 17 25 35 0 16 -6 25 -15 25 -19 0 -19
10 1 59 8 22 14 52 12 68 -2 23 -13 33 -55 53 -28 14 -61 33 -72 44 -21 19
-51 16 -52 -6 0 -7 -4 -3 -9 10 -12 28 -59 31 -62 5z m-65 -1339 c3 -4 2 -15
-4 -26 -10 -19 -11 -19 -24 -1 -7 10 -11 21 -9 25 6 10 28 10 37 2z m-78
-2192 c0 -18 -20 -15 -23 4 -3 10 1 15 10 12 7 -3 13 -10 13 -16z m85 -578 c0
-3 -5 -15 -11 -26 -9 -17 -13 -18 -20 -7 -15 23 -10 39 11 39 11 0 20 -3 20
-6z m-56 -100 c11 -27 7 -37 -9 -24 -16 14 -20 40 -6 40 5 0 12 -7 15 -16z"/>
<path d="M217 4364 c-4 -4 -7 -16 -7 -26 0 -14 6 -19 23 -16 14 2 22 10 22 23
0 20 -25 32 -38 19z"/>
<path d="M2540 3535 c0 -9 -9 -19 -21 -22 -18 -5 -20 -11 -16 -39 3 -19 1 -36
-5 -40 -5 -3 -8 -17 -5 -30 4 -21 0 -24 -24 -24 -25 0 -29 -4 -29 -28 0 -27
-20 -52 -52 -65 -15 -5 -49 -46 -133 -158 l-30 -41 32 -28 31 -28 -24 -6 c-17
-5 -24 -13 -24 -31 0 -18 5 -25 19 -25 11 0 23 -4 26 -10 7 -11 45 -13 69 -4
12 5 16 21 16 65 0 47 -3 59 -16 59 -25 0 -7 17 26 23 20 4 34 15 40 31 5 14
21 33 35 42 33 22 50 53 37 66 -7 7 -6 15 4 25 8 8 14 25 14 38 0 12 7 26 16
29 11 4 14 13 11 27 -5 17 -2 20 15 16 14 -4 30 3 50 24 17 16 28 36 25 43 -3
8 -23 20 -43 26 -36 12 -37 13 -15 21 30 12 26 53 -6 57 -16 2 -23 -2 -23 -13z"/>
<path d="M2610 3531 c0 -27 19 -36 37 -18 18 18 9 37 -18 37 -12 0 -19 -7 -19
-19z"/>
<path d="M0 3075 c0 -18 5 -25 20 -25 15 0 20 7 20 25 0 18 -5 25 -20 25 -15
0 -20 -7 -20 -25z"/>
<path d="M2005 2900 c-25 -22 -50 -40 -56 -40 -5 0 -9 -8 -9 -18 0 -11 -11
-24 -25 -30 -14 -6 -25 -16 -25 -21 0 -4 -18 -11 -40 -15 -29 -4 -47 -15 -67
-41 -15 -19 -34 -35 -40 -35 -7 0 -13 -7 -13 -15 0 -10 -10 -15 -27 -15 -34 0
-173 -69 -173 -85 0 -8 -10 -10 -24 -8 -36 7 -92 -15 -110 -43 -14 -20 -25
-24 -62 -24 -25 0 -62 -9 -84 -20 -26 -13 -59 -20 -100 -20 -38 0 -60 -4 -60
-11 0 -8 -17 -10 -56 -6 -54 6 -56 5 -66 -24 -5 -16 -14 -29 -19 -29 -6 0 -18
13 -27 30 -9 16 -24 30 -33 30 -9 0 -24 -10 -32 -22 l-16 -23 -7 24 c-6 20
-11 22 -44 17 -26 -4 -48 0 -75 14 -25 13 -59 20 -93 20 -49 0 -53 2 -47 20 8
25 -20 38 -46 21 -15 -9 -19 -8 -19 4 0 9 -9 15 -24 15 -41 0 -56 11 -56 41 0
32 -31 59 -68 59 -27 0 -74 -47 -70 -69 2 -9 16 -17 33 -19 l30 -4 -33 -14
c-29 -12 -33 -18 -30 -46 3 -30 6 -33 38 -36 43 -3 130 -42 130 -58 0 -15 26
-25 45 -18 8 4 15 1 15 -5 0 -6 4 -11 10 -11 5 0 26 -11 46 -25 31 -21 45 -25
80 -19 35 5 46 2 63 -15 26 -26 57 -27 73 -1 17 26 44 26 58 -1 10 -18 18 -20
58 -15 119 14 132 18 132 37 0 10 -5 19 -12 19 -9 0 -9 3 0 12 9 9 18 8 38 -2
14 -8 32 -27 41 -43 10 -19 20 -27 31 -24 55 17 125 46 131 54 3 6 26 13 51
17 24 4 65 16 90 28 25 12 63 22 85 22 35 1 40 4 43 26 6 47 9 50 38 35 25
-13 54 -11 54 4 0 4 10 7 22 7 17 -1 28 11 47 50 l26 50 22 -25 c22 -24 24
-25 37 -8 7 9 23 17 35 17 12 0 21 6 21 15 0 8 14 30 30 48 17 19 30 40 30 46
0 13 41 31 70 31 21 0 63 36 73 63 4 9 17 21 30 26 14 5 27 18 31 28 7 17 8
17 21 0 16 -23 48 -19 53 6 3 12 -4 20 -17 24 -12 3 -21 9 -21 14 0 5 -11 9
-25 9 -21 0 -25 5 -25 30 0 23 -5 30 -19 30 -11 0 -41 -18 -66 -40z"/>
<path d="M2224 2925 c-4 -9 -2 -21 4 -27 15 -15 44 -1 40 19 -4 23 -36 29 -44
8z"/>
<path d="M322 368 c-7 -7 -32 -11 -58 -9 -25 1 -52 -3 -60 -9 -11 -10 -14 -10
-14 -1 0 16 -42 10 -48 -7 -2 -6 6 -16 19 -20 15 -6 18 -11 11 -16 -7 -4 -12
-20 -12 -36 0 -27 5 -31 52 -45 28 -8 62 -22 76 -31 27 -17 52 -12 52 11 0 8
6 15 14 15 7 0 19 6 25 14 6 7 22 11 35 9 19 -4 25 0 30 21 3 14 11 26 16 26
16 0 12 46 -5 60 -8 7 -25 10 -39 6 -16 -4 -26 -1 -30 9 -7 18 -47 20 -64 3z"/>
</g>
</svg>
