<?xml version="1.0" standalone="no"?>
<!DOCTYPE svg PUBLIC "-//W3C//DTD SVG 20010904//EN"
 "http://www.w3.org/TR/2001/REC-SVG-20010904/DTD/svg10.dtd">
<svg version="1.0" xmlns="http://www.w3.org/2000/svg"
 width="318.000000pt" height="627.000000pt" viewBox="0 0 318.000000 627.000000"
 preserveAspectRatio="xMidYMid meet">
<metadata>
Created by potrace 1.16, written by Peter Selinger 2001-2019
</metadata>
<g transform="translate(0.000000,627.000000) scale(0.100000,-0.100000)"
fill="#000000" stroke="none">
<path d="M276 2393 c-3 -10 -12 -49 -20 -86 -9 -37 -26 -81 -38 -98 -16 -21
-23 -46 -25 -88 -1 -31 -7 -70 -13 -85 -5 -15 -10 -44 -10 -65 0 -20 -5 -42
-12 -49 -8 -8 -8 -15 0 -25 8 -10 8 -17 1 -24 -8 -8 -7 -18 1 -34 11 -20 10
-25 -9 -37 -22 -15 -29 -58 -10 -64 9 -3 8 -10 -1 -25 -10 -15 -11 -30 -3 -61
8 -31 8 -42 -2 -46 -7 -2 -15 -23 -19 -46 -4 -23 -13 -55 -21 -71 -17 -31 -21
-164 -6 -173 12 -8 2 -48 -14 -61 -7 -6 -15 -45 -19 -87 -7 -72 -6 -77 13 -83
12 -3 21 -9 21 -13 0 -4 -9 -13 -20 -20 -15 -9 -20 -23 -20 -57 0 -31 5 -47
15 -51 13 -5 13 -10 -2 -34 -20 -34 -12 -60 19 -61 17 -1 14 -3 -12 -11 -48
-13 -56 -23 -41 -52 10 -17 10 -29 2 -44 -15 -29 -14 -59 4 -66 21 -8 19 -65
-2 -88 -14 -16 -15 -23 -5 -38 19 -31 15 -68 -8 -75 -13 -4 -20 -15 -20 -31 0
-22 4 -25 28 -22 24 3 27 -1 30 -29 2 -18 -4 -43 -13 -57 -9 -14 -16 -40 -14
-58 1 -18 -2 -41 -6 -51 -4 -9 -5 -23 -2 -31 3 -8 0 -17 -8 -19 -9 -4 -13 -27
-13 -80 0 -41 3 -80 7 -86 5 -8 29 -9 79 -5 71 7 72 7 72 35 0 15 6 32 13 36
17 11 49 139 51 205 1 44 4 54 21 59 15 4 20 14 20 37 0 18 3 32 7 32 5 0 8 6
8 14 0 7 7 19 16 26 8 8 14 25 12 39 -2 20 -9 27 -32 29 -39 5 -54 -12 -32
-36 16 -18 15 -20 -13 -32 -20 -8 -34 -23 -41 -46 -8 -24 -9 -39 -2 -47 7 -8
6 -18 -3 -30 -11 -16 -13 -16 -19 -1 -3 8 -6 24 -6 34 0 9 -7 23 -15 30 -11 9
-14 22 -9 44 4 17 11 38 17 47 8 12 7 29 -1 57 -10 33 -10 48 2 79 17 45 30
330 17 385 -6 26 -5 40 5 50 19 19 30 129 15 156 -9 17 -8 28 4 51 9 18 15 56
15 96 0 41 4 65 11 65 7 0 9 11 5 33 -10 45 -9 66 3 112 12 47 37 266 52 455
6 74 15 155 21 180 6 25 13 82 15 128 4 77 3 82 -16 82 -11 0 -22 -8 -25 -17z"/>
<path d="M2319 2142 c-10 -28 -11 -29 -50 -18 -30 8 -45 7 -59 -2 -12 -7 -36
-9 -65 -5 -43 5 -45 5 -45 -19 0 -14 6 -30 13 -36 7 -6 36 -14 65 -18 51 -6
64 -4 125 27 13 7 17 5 17 -8 0 -10 4 -24 9 -32 12 -19 50 -4 63 25 9 19 8 28
-6 43 -15 16 -15 19 -1 24 8 4 15 16 15 27 0 16 -6 20 -36 20 -30 0 -37 -4
-45 -28z"/>
<path d="M2487 2128 c-23 -12 -21 -45 3 -53 27 -8 40 1 40 30 0 27 -19 37 -43
23z"/>
<path d="M2556 2095 c-3 -9 -6 -27 -6 -39 0 -19 -4 -21 -41 -18 -41 4 -42 4
-37 -26 3 -20 0 -33 -9 -36 -21 -8 -15 -43 9 -60 12 -9 33 -16 45 -16 12 0 27
-9 33 -21 9 -15 19 -19 43 -17 46 4 48 34 5 53 l-33 14 33 1 c27 0 32 4 32 23
0 13 -5 28 -12 35 -9 9 -9 12 0 12 17 0 15 25 -2 40 -8 6 -16 23 -18 38 -3 30
-32 42 -42 17z m14 -106 c0 -5 -4 -9 -10 -9 -5 0 -10 7 -10 16 0 8 5 12 10 9
6 -3 10 -10 10 -16z"/>
<path d="M1994 2065 c-4 -8 -16 -15 -28 -15 -14 0 -28 -10 -35 -24 -7 -13 -24
-29 -37 -35 -13 -6 -24 -17 -24 -26 0 -8 -14 -43 -30 -77 -17 -35 -30 -74 -28
-88 1 -14 -6 -36 -15 -50 -19 -30 -33 -70 -42 -123 -3 -21 -10 -35 -16 -32
-16 10 -38 73 -32 93 7 27 -24 72 -49 72 -11 0 -32 -13 -48 -30 -34 -37 -102
-167 -125 -240 -36 -118 -167 -377 -187 -372 -7 2 -45 1 -85 -3 -59 -5 -72
-10 -76 -26 -3 -12 -14 -19 -29 -19 -17 0 -19 3 -9 9 18 12 7 41 -15 41 -10 0
-32 5 -51 12 -29 10 -36 9 -61 -9 -27 -20 -63 -29 -157 -40 -27 -3 -56 -10
-63 -16 -10 -8 -16 -7 -23 4 -5 8 -9 24 -9 37 0 19 -5 22 -42 22 -24 0 -62 -9
-85 -20 -25 -11 -45 -15 -48 -9 -4 5 -22 9 -41 9 -22 0 -37 -6 -40 -15 -4 -8
-18 -15 -33 -15 -39 0 -64 -21 -59 -51 2 -19 10 -25 35 -27 18 -2 42 3 55 10
25 14 148 28 148 16 0 -3 -7 -13 -15 -22 -22 -21 -18 -43 8 -50 12 -3 56 -6
97 -6 41 0 91 -5 110 -11 79 -24 99 -27 116 -14 22 16 12 42 -21 55 -42 16
-28 25 31 22 l56 -4 -22 -23 c-12 -13 -19 -28 -15 -34 3 -6 26 -11 50 -11 36
0 47 4 56 22 l12 23 10 -22 c9 -21 44 -33 96 -33 18 0 29 7 36 23 6 12 17 22
25 22 17 0 17 1 5 -310 -9 -215 -10 -203 44 -295 5 -8 22 -46 37 -84 50 -126
109 -179 157 -144 10 8 30 41 43 73 27 63 42 171 29 202 -4 10 -8 27 -9 38 -1
13 -8 20 -21 20 -11 1 -25 4 -31 8 -7 4 -15 33 -19 64 -3 32 -13 68 -21 80 -8
14 -10 23 -3 25 19 6 22 85 5 138 -16 48 -16 53 1 83 10 18 21 35 25 38 5 3
15 28 23 56 12 42 20 52 43 57 15 3 34 11 42 18 27 24 60 77 60 98 0 19 4 21
30 15 25 -6 32 -3 40 17 5 13 16 31 22 41 11 16 10 21 -9 34 l-22 15 22 34
c17 27 27 33 45 29 20 -5 22 -2 22 30 0 20 7 47 16 60 8 13 14 34 12 47 -2 19
-10 23 -46 26 -32 2 -47 -1 -56 -14 -12 -15 -13 -15 -19 0 -4 9 -16 16 -27 16
-17 0 -20 -6 -18 -34 2 -33 -15 -66 -33 -66 -24 0 7 131 40 172 19 22 20 23
34 4 8 -11 21 -17 29 -13 11 4 17 -3 22 -24 4 -20 11 -29 25 -29 29 0 81 48
81 75 0 12 7 40 16 60 9 21 13 50 10 64 -7 38 14 152 30 158 8 3 30 32 50 64
20 33 47 67 60 76 19 12 24 24 24 54 0 35 -3 39 -25 39 -14 0 -28 -7 -31 -15z
m-368 -770 c-41 -28 -52 -30 -62 -13 -11 17 25 38 64 38 l35 0 -37 -25z m-66
-73 c0 -14 -23 -32 -42 -32 -25 0 -23 15 5 28 27 13 37 14 37 4z m-493 -159
c-11 -10 -26 8 -20 23 5 15 7 14 15 -1 6 -9 7 -19 5 -22z"/>
<path d="M2752 1977 c-12 -13 -27 -37 -33 -55 -6 -18 -23 -37 -37 -44 -15 -7
-31 -25 -36 -40 -13 -36 10 -105 45 -138 15 -14 29 -37 33 -52 5 -21 12 -28
31 -28 17 0 25 -6 25 -17 0 -9 11 -30 24 -48 28 -36 32 -53 21 -78 -12 -27 16
-88 50 -109 35 -20 73 -38 84 -38 4 0 8 -20 8 -45 0 -43 -2 -45 -29 -45 -16 0
-28 -5 -28 -12 0 -7 5 -33 11 -58 12 -50 15 -203 4 -219 -3 -6 -2 -18 3 -28 7
-12 5 -24 -5 -39 -20 -32 -43 -121 -43 -171 0 -32 -4 -43 -15 -43 -9 0 -20
-12 -26 -27 -12 -33 1 -68 30 -78 10 -3 24 -19 30 -35 11 -34 40 -40 48 -10 3
11 11 20 18 20 22 0 64 58 71 98 4 20 19 48 34 62 27 25 70 124 74 170 2 14 8
41 13 60 6 19 14 95 17 169 6 128 5 133 -13 128 -34 -9 -39 4 -28 82 7 54 7
79 -1 92 -7 10 -12 25 -12 33 0 16 -21 26 -53 26 -20 1 -20 2 -4 11 24 14 23
65 -3 79 -11 6 -20 17 -20 26 0 8 -7 17 -15 20 -10 4 -15 20 -15 46 0 29 -6
45 -25 62 -14 13 -25 30 -25 38 0 19 -42 58 -63 58 -9 0 -19 5 -22 10 -3 6 -1
10 5 10 7 0 10 15 8 37 -3 34 -6 38 -41 46 -44 11 -58 32 -32 51 24 17 13 46
-18 46 -13 0 -33 -10 -45 -23z m13 -199 c26 -12 32 -23 15 -33 -5 -3 -10 -1
-10 4 0 6 -6 11 -14 11 -8 0 -16 7 -20 15 -7 18 -4 18 29 3z m49 -113 c3 -8 1
-15 -4 -15 -6 0 -10 7 -10 15 0 8 2 15 4 15 2 0 6 -7 10 -15z m141 -105 c3 -6
-1 -7 -9 -4 -18 7 -21 14 -7 14 6 0 13 -4 16 -10z m71 -428 c-12 -11 -18 7
-10 30 l8 23 4 -23 c2 -13 1 -26 -2 -30z"/>
<path d="M271 591 c-30 -41 -27 -61 7 -61 15 0 33 5 40 12 17 17 15 65 -4 72
-9 3 -17 6 -19 6 -2 0 -13 -13 -24 -29z"/>
<path d="M2702 506 c-88 -86 -138 -127 -179 -145 -13 -6 -23 -15 -23 -21 0 -5
-15 -10 -34 -10 -21 0 -45 -9 -63 -23 -15 -13 -43 -31 -61 -40 -46 -22 -177
-40 -239 -33 -46 5 -53 4 -53 -11 -1 -17 -2 -17 -15 0 -12 17 -26 19 -115 15
-94 -3 -101 -2 -106 17 -7 26 -132 89 -157 79 -40 -15 -60 -108 -37 -169 5
-14 33 -49 61 -78 l51 -52 86 -2 c100 -3 149 9 154 38 3 19 4 19 37 -5 44 -32
103 -34 194 -6 46 14 72 29 86 48 10 15 33 35 51 45 31 19 31 19 37 -2 6 -25
44 -29 63 -6 7 8 27 15 44 15 18 0 41 6 51 14 11 8 25 12 32 9 14 -5 113 88
113 106 0 6 12 18 28 28 51 31 72 56 72 84 0 15 7 29 15 33 8 3 15 16 15 29 0
13 5 28 11 34 6 6 9 28 7 49 -5 64 -28 57 -126 -40z"/>
</g>
</svg>
