<?xml version="1.0" standalone="no"?>
<!DOCTYPE svg PUBLIC "-//W3C//DTD SVG 20010904//EN"
 "http://www.w3.org/TR/2001/REC-SVG-20010904/DTD/svg10.dtd">
<svg version="1.0" xmlns="http://www.w3.org/2000/svg"
 width="448.000000pt" height="627.000000pt" viewBox="0 0 448.000000 627.000000"
 preserveAspectRatio="xMidYMid meet">
<metadata>
Created by potrace 1.16, written by Peter Selinger 2001-2019
</metadata>
<g transform="translate(0.000000,627.000000) scale(0.100000,-0.100000)"
fill="#000000" stroke="none">
<path d="M481 2640 c-30 -11 -74 -35 -99 -55 -25 -19 -50 -35 -56 -35 -6 0
-31 -16 -55 -35 -24 -19 -54 -35 -66 -35 -29 0 -40 -14 -54 -67 -6 -23 -16
-45 -22 -49 -6 -3 -9 -23 -8 -45 2 -21 0 -41 -4 -45 -4 -4 -7 5 -7 19 0 19 -5
27 -18 27 -20 0 -66 -55 -57 -69 3 -5 21 -15 41 -21 l36 -12 -36 -24 c-20 -14
-40 -33 -46 -44 -17 -32 -11 -70 15 -96 14 -14 25 -26 25 -28 0 -2 -11 -1 -25
2 -23 4 -25 2 -25 -34 0 -22 5 -58 10 -81 6 -24 12 -78 14 -120 2 -43 10 -93
16 -111 12 -32 14 -33 64 -30 l51 3 0 52 c-1 33 -7 58 -17 70 -14 16 -28 86
-31 153 0 14 5 74 12 133 7 59 10 119 7 132 -4 14 -1 25 7 28 7 3 28 32 46 66
18 34 36 61 41 61 4 0 13 13 18 29 8 21 18 30 44 35 44 8 98 42 98 61 0 10 10
15 30 15 17 0 47 9 67 20 30 16 57 20 130 20 55 0 93 4 93 10 0 20 18 9 24
-14 6 -26 51 -49 88 -45 14 2 38 -8 60 -25 21 -15 42 -25 47 -22 15 10 57 -31
107 -102 36 -52 44 -71 44 -108 0 -24 9 -70 21 -102 43 -117 51 -164 44 -237
-7 -76 -35 -168 -59 -194 -15 -17 -71 -149 -96 -226 -7 -22 -25 -67 -40 -100
-15 -33 -30 -71 -34 -85 -3 -14 -23 -46 -45 -73 -22 -26 -42 -60 -46 -76 -4
-20 -14 -31 -31 -35 -13 -4 -24 -11 -24 -16 0 -6 -9 -19 -19 -29 -11 -11 -24
-29 -30 -40 -13 -23 -65 -84 -162 -190 l-69 -74 -34 18 c-32 18 -36 18 -53 3
-10 -9 -31 -18 -48 -20 -26 -3 -30 -7 -33 -39 -2 -23 2 -40 12 -49 20 -16 20
-34 1 -50 -8 -7 -15 -21 -15 -31 0 -23 -55 -54 -90 -50 -14 1 -47 -5 -75 -14
-27 -8 -57 -15 -65 -15 -11 0 -11 3 -2 12 16 16 15 43 -3 58 -18 15 -18 42 -2
90 10 29 17 34 42 35 28 0 30 2 33 45 2 25 7 49 13 54 5 6 9 18 9 28 0 19 -17
22 -68 12 -26 -5 -33 -14 -51 -63 -11 -31 -25 -75 -31 -98 -6 -24 -15 -43 -20
-43 -13 0 -13 -46 0 -70 7 -13 6 -19 -5 -24 -25 -9 -18 -45 10 -56 14 -5 30
-21 35 -35 6 -17 17 -25 33 -25 13 0 32 -9 42 -20 23 -25 69 -26 94 -1 19 19
19 19 24 0 3 -10 14 -19 25 -19 26 0 53 32 61 72 5 25 16 37 43 50 20 10 39
22 43 28 4 6 11 5 21 -4 8 -9 21 -13 29 -9 9 3 22 0 30 -7 18 -15 45 -6 45 15
0 28 38 -2 45 -36 5 -24 11 -30 26 -26 10 3 22 1 25 -4 3 -5 28 -9 55 -9 36 0
51 -4 56 -16 3 -10 15 -14 33 -12 20 2 39 -7 69 -35 43 -39 57 -44 63 -25 6
17 53 2 84 -27 20 -19 30 -22 45 -15 10 6 57 11 104 11 81 2 87 3 105 29 19
26 34 33 220 99 41 15 84 31 95 35 11 5 32 8 47 7 19 -2 30 4 39 21 14 27 39
47 57 48 7 0 19 6 26 12 8 7 24 20 36 28 50 34 53 38 47 54 -7 19 -67 23 -67
4 0 -6 -3 -8 -7 -5 -3 4 6 18 20 31 18 17 27 35 27 56 0 20 -5 30 -15 30 -26
0 -65 -23 -70 -42 -4 -10 -11 -18 -16 -18 -5 0 -9 -11 -9 -24 0 -13 -7 -29
-15 -36 -13 -10 -15 -9 -15 9 0 12 -6 24 -13 27 -16 6 -120 -31 -140 -49 -24
-22 -56 -37 -70 -31 -8 3 -20 -2 -27 -11 -7 -8 -23 -15 -37 -15 -13 0 -26 -6
-28 -13 -3 -7 -26 -12 -59 -13 -76 0 -102 -20 -111 -83 -5 -38 -10 -48 -22
-44 -10 4 -11 9 -4 16 13 13 15 57 2 57 -5 0 -11 9 -14 20 -6 24 -33 26 -75 5
-33 -17 -74 -12 -93 11 -6 8 -27 14 -46 14 -20 0 -46 9 -60 20 -14 11 -38 20
-52 20 -15 0 -36 7 -47 15 -22 16 -64 20 -64 5 0 -6 -9 -6 -23 -1 -13 5 -36 7
-51 4 l-28 -6 24 26 c12 14 28 31 35 39 7 7 19 19 28 26 20 17 19 42 -2 42
-16 0 -15 3 3 18 12 9 24 25 27 35 4 9 13 17 20 17 8 0 33 24 56 54 23 30 49
57 56 60 11 4 13 14 8 38 -6 30 -5 32 10 19 24 -19 43 -8 50 28 4 20 13 31 23
31 12 0 15 7 12 25 -4 17 -1 25 8 25 20 0 65 72 65 106 1 105 4 116 36 151 18
18 37 53 44 76 6 23 17 49 24 57 7 8 22 36 33 63 12 26 28 50 37 53 17 7 66
106 84 169 16 58 14 112 -5 123 -13 7 -12 11 10 26 31 20 33 41 6 56 -15 8
-20 21 -20 55 0 33 -4 45 -15 45 -8 0 -18 14 -23 33 -6 24 -14 32 -30 31 -26
-1 -29 11 -4 25 14 8 17 23 17 80 0 38 -5 75 -11 81 -18 18 -42 0 -49 -37 -4
-25 -10 -33 -21 -29 -9 3 -17 6 -18 6 -4 0 11 115 18 137 5 15 1 28 -13 42
-12 12 -29 21 -39 21 -13 0 -17 8 -17 33 0 31 -2 32 -40 33 -68 2 -75 3 -82
22 -10 25 -34 41 -62 42 -13 0 -49 12 -80 27 -48 24 -70 28 -161 30 -85 3
-115 -1 -159 -17z"/>
<path d="M4061 2376 c-7 -8 -23 -17 -36 -20 -13 -3 -27 -15 -30 -26 -4 -12
-25 -32 -48 -47 -42 -26 -198 -168 -206 -187 -2 -6 -25 -31 -51 -56 -25 -25
-56 -67 -69 -95 -13 -27 -43 -75 -66 -105 -56 -74 -125 -190 -125 -211 0 -9
-7 -22 -15 -29 -8 -7 -15 -20 -15 -30 0 -26 -54 -80 -81 -80 -28 0 -79 -47
-79 -72 0 -13 8 -18 33 -20 27 -1 24 -2 -13 -7 -34 -5 -48 -12 -58 -31 -7 -14
-11 -39 -9 -57 3 -31 1 -32 -46 -44 -35 -8 -62 -24 -93 -54 -46 -43 -57 -75
-26 -75 10 -1 5 -6 -13 -14 -17 -7 -36 -20 -43 -28 -7 -9 -22 -13 -37 -10 -17
3 -27 -1 -31 -12 -4 -10 -13 -14 -23 -11 -11 3 -28 -6 -46 -25 -16 -16 -34
-30 -40 -30 -13 0 -79 -67 -94 -97 -6 -12 -24 -24 -39 -28 -18 -4 -42 -23 -64
-53 -20 -26 -39 -57 -43 -70 -3 -12 -23 -31 -44 -42 -21 -10 -45 -29 -53 -42
-8 -13 -28 -30 -44 -38 -16 -8 -50 -35 -75 -60 -67 -65 -128 -112 -141 -108
-6 2 -17 24 -24 47 -11 38 -11 47 4 69 11 17 17 50 19 100 1 40 6 79 12 86 16
19 30 95 31 158 0 42 4 59 16 66 11 6 15 18 12 34 -2 13 1 30 9 36 7 7 13 34
13 60 0 33 10 67 35 117 19 39 35 79 35 90 0 18 15 72 42 150 6 17 12 39 13
50 1 11 7 31 12 45 6 14 13 43 17 64 4 22 16 56 26 75 23 42 97 223 152 371
21 57 44 110 49 117 12 14 16 113 5 131 -4 6 -18 12 -31 12 -13 0 -25 5 -27
12 -7 19 -58 0 -70 -27 -8 -19 -8 -28 2 -40 17 -21 29 -19 40 8 l9 22 0 -22
c1 -12 -4 -34 -11 -48 -10 -21 -16 -24 -42 -19 -30 5 -32 3 -59 -55 -15 -33
-32 -63 -37 -66 -5 -3 -23 -30 -40 -60 -20 -34 -30 -65 -28 -82 3 -24 7 -28
36 -28 17 0 32 -3 32 -7 0 -5 -25 -8 -56 -8 -51 0 -58 -3 -90 -36 -35 -38 -64
-87 -64 -110 0 -16 32 -27 53 -18 9 3 19 19 22 36 4 17 10 26 14 20 3 -5 23
-17 44 -25 20 -9 37 -20 37 -25 0 -15 -48 -62 -64 -62 -22 0 -46 -40 -46 -77
0 -18 -4 -33 -10 -33 -5 0 -10 -12 -10 -27 0 -16 -7 -41 -15 -57 -8 -15 -15
-39 -15 -53 0 -14 -18 -62 -40 -106 -49 -101 -101 -302 -129 -497 -12 -80 -28
-170 -36 -200 -19 -73 -19 -154 0 -170 9 -8 13 -21 9 -36 -4 -15 0 -29 10 -40
15 -14 15 -18 -1 -45 -13 -22 -15 -34 -7 -47 20 -31 58 -37 160 -24 53 7 103
16 110 20 8 5 22 22 32 39 42 73 58 92 82 95 17 2 30 13 40 34 11 24 21 32 40
30 22 -1 25 4 28 36 2 29 -1 39 -17 48 -12 6 -21 21 -21 33 0 17 2 19 9 8 5
-8 16 -11 25 -8 12 5 19 -1 26 -18 5 -14 18 -25 28 -25 20 0 68 66 78 108 9
38 33 62 81 84 26 12 54 36 77 68 20 28 36 56 36 63 0 7 7 23 16 35 l15 22 37
-25 c20 -14 41 -25 46 -25 5 0 40 32 77 71 l69 72 0 -37 c0 -21 5 -46 11 -57
7 -14 7 -30 -1 -53 -5 -18 -13 -144 -16 -280 -4 -206 -2 -262 12 -330 9 -44
27 -107 40 -138 13 -32 24 -69 24 -83 0 -15 6 -25 14 -25 7 0 19 -7 26 -15 7
-8 21 -15 31 -15 11 0 19 -4 19 -10 0 -15 209 -11 247 5 17 8 41 11 52 8 39
-10 96 47 59 59 -21 7 2 27 45 39 39 10 87 49 87 70 0 5 11 9 25 9 19 0 25 5
25 21 0 18 3 19 14 10 19 -16 47 -2 70 34 10 15 26 25 41 25 24 0 55 23 55 42
0 5 20 29 44 53 29 30 49 42 62 39 11 -3 37 4 59 16 21 11 45 20 51 20 22 0
44 31 44 61 0 16 9 38 21 50 l22 22 17 -23 c17 -23 19 -23 43 -7 14 9 28 26
32 37 5 15 15 20 41 20 l34 0 0 53 c0 29 -6 61 -13 71 -11 16 -24 18 -71 14
-49 -4 -63 -10 -87 -36 -17 -18 -36 -32 -43 -32 -8 0 -21 -11 -30 -25 -9 -14
-22 -25 -29 -25 -6 0 -25 -7 -42 -16 -16 -8 -50 -18 -75 -21 -49 -6 -80 -27
-80 -53 0 -19 -19 -30 -50 -30 -11 0 -24 -9 -30 -19 -5 -11 -23 -22 -39 -26
-16 -3 -35 -13 -42 -21 -6 -8 -17 -14 -24 -14 -6 0 -26 -18 -45 -41 -20 -26
-55 -52 -93 -69 -33 -16 -65 -39 -71 -52 -6 -12 -20 -24 -31 -26 -37 -5 -100
-24 -126 -38 -37 -19 -94 -2 -113 34 -24 46 -46 145 -45 203 0 30 -3 115 -6
189 -5 104 -3 154 9 217 8 46 18 120 22 165 5 81 11 103 40 161 8 16 14 34 14
42 0 7 7 26 15 41 8 16 15 39 15 50 0 12 7 27 16 35 8 7 25 31 36 53 11 22 33
53 48 68 16 15 36 48 45 73 10 25 21 45 26 45 7 0 69 85 69 95 0 2 11 20 24
40 14 20 28 50 32 68 3 18 15 48 25 67 11 19 19 41 19 49 0 11 4 11 18 -2 20
-18 52 -23 52 -8 0 17 241 251 258 251 10 0 27 7 39 15 18 13 22 13 33 0 7 -8
18 -15 25 -15 7 0 19 -10 27 -21 10 -16 20 -20 36 -15 25 8 31 46 7 46 -9 0
-15 10 -15 26 0 17 -6 28 -20 31 -15 4 -20 14 -20 38 0 25 -11 45 -47 84 -26
28 -52 51 -59 51 -6 0 -17 -6 -23 -14z m59 -137 c0 -6 -4 -7 -10 -4 -5 3 -10
11 -10 16 0 6 5 7 10 4 6 -3 10 -11 10 -16z"/>
<path d="M4107 2143 c-9 -8 -9 -96 -1 -117 4 -11 19 -16 45 -16 33 0 40 4 45
25 7 27 -10 78 -33 101 -15 15 -45 19 -56 7z"/>
<path d="M4044 2045 c-4 -8 -4 -24 -1 -34 4 -16 0 -17 -29 -11 -20 5 -34 4
-34 -2 0 -5 5 -29 11 -54 12 -48 29 -55 67 -28 17 12 23 25 21 48 -1 17 2 39
6 49 7 17 -9 47 -27 47 -5 0 -11 -7 -14 -15z"/>
<path d="M2177 1654 c-4 -4 -7 -16 -7 -26 0 -14 6 -19 23 -16 14 2 22 10 22
23 0 20 -25 32 -38 19z"/>
<path d="M2050 1341 c0 -24 13 -33 35 -25 23 9 14 38 -13 42 -16 3 -22 -2 -22
-17z"/>
<path d="M2017 1254 c-4 -4 -7 -16 -7 -26 0 -14 6 -19 23 -16 14 2 22 10 22
23 0 20 -25 32 -38 19z"/>
<path d="M1712 848 c-7 -7 -12 -18 -12 -25 0 -7 -9 -17 -20 -23 -11 -6 -20
-17 -20 -24 0 -25 30 -26 61 -4 23 18 29 29 27 52 -3 33 -18 42 -36 24z"/>
</g>
</svg>
