<?xml version="1.0" standalone="no"?>
<!DOCTYPE svg PUBLIC "-//W3C//DTD SVG 20010904//EN"
 "http://www.w3.org/TR/2001/REC-SVG-20010904/DTD/svg10.dtd">
<svg version="1.0" xmlns="http://www.w3.org/2000/svg"
 width="346.000000pt" height="627.000000pt" viewBox="0 0 346.000000 627.000000"
 preserveAspectRatio="xMidYMid meet">
<metadata>
Created by potrace 1.16, written by Peter Selinger 2001-2019
</metadata>
<g transform="translate(0.000000,627.000000) scale(0.100000,-0.100000)"
fill="#000000" stroke="none">
<path d="M1951 5163 c-43 -11 -59 -12 -77 -2 -24 13 -109 5 -119 -12 -4 -5
-19 -9 -35 -9 -52 0 -132 -22 -151 -41 -10 -10 -25 -19 -32 -19 -25 0 -92 -41
-104 -64 -8 -15 -31 -30 -65 -41 -29 -9 -68 -29 -88 -44 -19 -16 -46 -34 -60
-41 -33 -17 -105 -92 -125 -130 -9 -17 -25 -40 -36 -51 -16 -16 -23 -17 -40
-8 -12 6 -32 8 -45 5 -33 -9 -32 -43 1 -56 14 -5 25 -14 25 -18 0 -5 -18 -12
-39 -16 -26 -4 -47 -16 -64 -35 -13 -16 -33 -31 -43 -33 -11 -2 -20 -13 -22
-28 -2 -13 -13 -30 -23 -38 -10 -7 -19 -22 -19 -33 0 -10 -4 -19 -10 -19 -5 0
-10 -14 -10 -30 0 -22 -6 -33 -23 -41 -15 -7 -40 -44 -70 -102 -47 -94 -127
-283 -127 -300 0 -5 -16 -35 -35 -66 -19 -31 -59 -124 -89 -206 -30 -83 -68
-188 -85 -235 -34 -91 -40 -114 -131 -460 -33 -124 -66 -250 -74 -280 -9 -30
-16 -70 -16 -87 0 -18 -4 -33 -10 -33 -11 0 -33 -75 -54 -185 -8 -44 -24 -132
-36 -195 -19 -103 -21 -140 -17 -350 8 -372 21 -571 40 -610 12 -23 17 -59 17
-119 0 -47 5 -102 10 -121 6 -19 15 -57 21 -84 5 -28 15 -54 22 -58 6 -4 26
-8 42 -8 17 0 37 -5 45 -10 12 -8 11 -10 -7 -10 -21 0 -30 -17 -23 -45 1 -5 2
-24 2 -42 -1 -18 3 -35 8 -38 6 -3 10 -31 10 -61 0 -54 3 -58 42 -55 12 2 19
-13 28 -68 7 -43 21 -81 36 -102 13 -18 24 -40 24 -49 0 -9 11 -30 25 -46 14
-16 25 -32 25 -35 0 -3 11 -11 25 -17 15 -7 25 -20 25 -32 0 -11 7 -23 15 -26
8 -4 25 -24 37 -46 25 -44 62 -68 106 -68 20 0 41 -11 65 -35 39 -38 73 -45
93 -17 13 16 13 16 14 0 0 -14 8 -18 35 -18 19 0 35 -4 35 -10 0 -5 9 -10 20
-10 11 0 20 -4 20 -9 0 -4 120 -8 266 -7 241 1 267 3 279 19 11 15 14 15 25 2
14 -17 50 -21 50 -5 0 5 11 12 24 16 14 3 27 13 30 21 4 9 13 13 22 9 25 -9
94 12 94 30 0 13 4 13 30 -1 36 -19 59 -19 66 -1 3 8 13 12 25 9 15 -4 22 2
30 26 7 20 20 33 35 37 14 4 27 16 30 30 3 13 12 24 20 24 7 0 21 14 29 30 9
17 27 35 40 40 14 5 25 14 25 19 0 5 9 13 20 16 13 4 23 18 27 36 3 16 9 29
14 29 15 0 10 -47 -5 -53 -11 -4 -14 -21 -13 -59 2 -39 6 -54 18 -56 18 -3
105 71 114 97 3 9 24 28 46 40 30 17 39 28 36 42 -5 17 5 29 61 82 10 9 23 17
29 17 10 0 50 56 62 85 2 6 19 36 39 67 28 47 41 59 69 64 20 4 38 15 45 28 6
11 33 49 59 82 29 37 49 72 49 87 0 14 7 28 16 31 10 4 14 14 11 26 -3 13 3
24 19 35 14 9 24 25 24 40 0 13 4 27 10 30 5 3 13 20 18 38 6 24 14 32 32 32
18 0 26 7 32 33 5 18 15 32 23 32 8 0 15 9 15 20 0 12 11 31 24 43 14 12 26
33 28 47 2 20 -2 25 -27 30 -24 4 -31 11 -33 33 l-3 28 20 -20 c12 -12 33 -21
47 -21 21 0 25 4 23 28 -4 55 1 82 22 101 19 17 20 24 11 65 l-9 46 48 31 c47
30 66 58 60 89 -2 8 -7 18 -13 21 -5 4 2 9 17 13 23 6 27 11 23 36 -3 16 -2
31 2 32 3 2 16 19 28 39 13 21 22 53 22 75 0 28 6 45 21 58 18 15 20 25 16 59
-4 29 0 51 13 78 11 20 27 39 36 43 13 5 15 15 9 52 -3 25 -12 59 -19 75 -16
38 -9 77 15 92 11 7 19 18 19 25 0 7 7 15 16 19 11 4 14 13 10 29 -5 17 -2 24
9 24 9 0 15 9 15 25 0 18 -5 25 -20 25 -23 0 -27 18 -5 26 8 4 15 16 15 29 0
12 9 32 20 44 20 24 36 100 26 126 -3 8 -1 15 4 15 5 0 12 9 15 20 4 13 -3 36
-19 65 l-26 44 31 3 c30 3 33 7 69 110 31 87 40 128 46 212 3 58 3 113 -1 123
-4 10 -7 29 -6 42 2 13 -3 28 -11 33 -10 7 -10 10 5 19 13 8 17 24 17 76 0
105 -21 296 -34 317 -10 16 -10 25 3 47 14 25 14 30 -4 66 -11 21 -21 41 -23
46 -2 4 6 7 17 7 23 0 26 15 11 56 -8 19 -7 30 2 42 7 8 14 43 15 76 1 34 5
87 9 119 l6 57 -50 0 c-31 0 -56 -6 -65 -15 -8 -8 -17 -11 -21 -8 -3 4 -6 21
-6 38 0 20 9 42 25 59 20 22 25 37 25 81 0 30 -5 57 -11 60 -7 5 -4 14 7 26
14 15 15 27 8 61 -8 39 -12 43 -41 46 -25 2 -33 -1 -33 -12 0 -9 -9 -24 -21
-34 -11 -9 -25 -28 -30 -40 -5 -13 -18 -26 -28 -29 -12 -3 -21 -17 -26 -40 -6
-31 -3 -39 21 -58 23 -18 25 -24 15 -43 -6 -12 -15 -74 -18 -137 -5 -90 -3
-115 7 -115 9 0 9 -4 3 -12 -20 -25 -25 -91 -12 -155 10 -50 17 -63 31 -63 10
0 18 -4 18 -8 0 -4 -12 -8 -27 -7 -24 0 -28 -4 -31 -32 -3 -26 2 -34 25 -47
l28 -15 -32 -13 c-32 -12 -33 -14 -33 -75 0 -47 4 -64 16 -71 11 -6 13 -11 5
-16 -17 -11 -13 -31 14 -60 30 -33 65 -35 66 -3 1 21 1 21 9 -3 4 -14 8 -48 9
-76 1 -38 -4 -57 -19 -74 -22 -25 -26 -70 -10 -101 8 -15 7 -19 -5 -19 -22 0
-24 -58 -2 -72 9 -6 8 -8 -1 -8 -7 0 -18 -12 -24 -26 -11 -23 -9 -28 12 -44
l24 -18 -27 5 c-21 4 -27 1 -27 -11 0 -9 -9 -34 -20 -56 -25 -48 -26 -96 -3
-108 14 -9 14 -10 -5 -16 -28 -9 -38 -29 -46 -94 -4 -30 -14 -71 -22 -92 -13
-33 -14 -43 -2 -67 12 -25 12 -30 -7 -45 -16 -13 -20 -31 -23 -97 -4 -76 -3
-81 16 -81 11 0 22 3 25 8 2 4 2 1 0 -6 -1 -8 -3 -26 -4 -40 0 -27 0 -27 -10
-4 -6 17 -15 22 -31 20 -19 -2 -24 -11 -29 -53 -4 -28 -14 -76 -23 -107 -22
-78 -21 -88 12 -89 l27 -1 -30 -7 c-24 -5 -30 -12 -30 -31 0 -14 -7 -28 -17
-32 -11 -4 -18 -18 -18 -32 0 -14 -6 -40 -14 -58 -20 -47 -66 -193 -66 -209 0
-8 -27 -67 -60 -132 -33 -65 -60 -125 -60 -135 0 -9 -7 -26 -15 -36 -8 -11
-15 -28 -15 -38 0 -10 -4 -26 -9 -36 -5 -9 -51 -100 -102 -202 -101 -204 -169
-316 -239 -400 -25 -30 -57 -71 -70 -90 -13 -19 -50 -64 -82 -100 -32 -35 -65
-79 -73 -97 -9 -18 -21 -36 -28 -40 -7 -4 -20 -20 -30 -35 -9 -15 -28 -30 -42
-34 -19 -5 -25 -13 -25 -35 0 -24 -4 -29 -24 -29 -14 0 -28 -4 -31 -10 -3 -5
-19 -10 -35 -10 -16 0 -32 -4 -35 -10 -3 -5 -23 -14 -43 -19 -25 -7 -50 -25
-74 -54 -22 -26 -48 -47 -65 -50 -15 -3 -45 -17 -66 -31 -25 -17 -51 -26 -77
-26 -41 0 -90 -17 -90 -32 0 -4 -11 -8 -23 -8 -13 0 -37 -6 -53 -14 -46 -22
-273 -39 -444 -34 -123 4 -162 9 -190 23 -19 10 -69 50 -110 88 -41 38 -89 78
-106 89 -21 12 -34 29 -38 49 -3 17 -24 49 -46 71 -22 22 -40 47 -40 54 0 8
-11 19 -24 23 -18 8 -24 19 -29 58 -6 48 -77 290 -103 351 -9 20 -21 32 -33
32 -11 0 -22 -6 -24 -12 -4 -9 -6 -10 -6 -1 -1 6 6 18 14 27 17 17 19 81 5
141 -17 71 -40 277 -41 370 -1 49 -4 101 -8 115 -4 14 -17 30 -30 37 -47 23
-55 68 -16 83 17 7 25 17 25 34 0 15 -8 30 -20 36 -27 15 -27 67 1 96 18 20
23 41 30 151 5 70 14 141 19 157 6 16 10 45 10 65 0 20 7 44 15 55 8 10 17 50
21 89 5 49 13 76 26 89 14 14 19 30 16 54 -3 21 0 34 8 34 7 0 13 27 17 69 3
39 11 79 16 90 6 11 11 42 11 70 0 61 7 81 29 81 38 0 55 46 26 70 -14 11 -13
14 5 27 13 10 20 25 20 49 0 19 8 46 17 61 12 18 18 50 19 110 2 77 19 143 36
143 5 0 8 15 8 33 0 18 11 53 24 77 52 94 68 133 80 191 6 32 17 64 24 71 7 7
12 20 12 30 0 11 11 23 25 28 19 7 25 17 25 38 0 16 3 32 8 36 4 4 12 56 19
114 10 89 15 110 33 124 12 10 33 18 46 18 19 0 24 5 24 26 0 14 -9 38 -21 52
l-21 27 33 7 c34 7 69 39 69 64 0 7 14 21 31 29 28 15 31 20 27 59 -3 39 -1
42 15 32 25 -16 65 9 91 57 12 20 35 46 53 56 33 21 83 80 83 100 0 6 11 16
24 23 14 6 30 24 37 39 8 20 19 29 34 29 13 0 25 7 28 14 3 8 31 27 61 41 59
28 116 75 116 97 0 7 15 20 33 28 19 9 39 30 50 53 18 35 37 49 37 27 0 -18
40 -10 52 10 9 15 24 20 53 20 22 0 81 7 130 15 50 8 124 15 165 15 58 0 92
-7 150 -28 95 -36 116 -47 101 -56 -6 -4 -11 -16 -11 -26 0 -12 10 -21 30 -25
25 -5 30 -12 30 -35 0 -24 5 -29 27 -32 22 -2 29 -9 33 -33 4 -23 13 -32 38
-41 33 -10 33 -10 12 -29 -22 -20 -26 -46 -10 -74 5 -10 14 -49 20 -86 6 -38
14 -73 17 -78 3 -5 7 -27 9 -49 1 -23 14 -63 28 -90 14 -28 26 -54 26 -59 0
-5 -9 -9 -19 -9 -29 0 -63 -48 -59 -84 3 -27 -2 -34 -34 -51 -20 -10 -43 -34
-52 -52 -9 -18 -20 -33 -26 -33 -5 0 -10 -13 -10 -30 0 -16 -4 -30 -9 -30 -18
0 -41 -32 -41 -56 0 -15 -6 -24 -15 -24 -9 0 -18 -7 -21 -15 -4 -8 -12 -15
-20 -15 -20 0 -44 -41 -44 -77 0 -31 2 -33 33 -33 41 0 82 26 130 81 21 24 62
72 92 106 36 41 55 72 55 89 0 16 12 37 34 58 37 34 58 87 38 94 -7 2 -12 9
-12 16 0 8 12 11 35 8 l35 -4 0 78 c0 44 -6 108 -12 144 -6 36 -12 92 -12 125
-1 33 -5 66 -9 73 -5 7 -6 20 -3 30 4 10 -1 27 -9 38 -19 25 -19 71 -1 90 13
12 16 12 23 0 5 -9 40 -19 93 -26 47 -6 91 -16 97 -22 7 -6 22 -8 32 -5 12 3
22 -1 25 -9 3 -8 20 -14 38 -14 64 -1 106 -17 138 -53 30 -35 111 -87 134 -87
20 0 48 74 44 121 -3 38 -6 44 -24 42 -14 -2 -25 6 -32 22 -13 28 -30 32 -38
10 -10 -26 -21 -16 -16 15 3 22 0 32 -13 37 -12 4 -23 0 -31 -12 -12 -16 -16
-16 -65 9 -65 32 -119 35 -126 6 -3 -11 -8 -20 -11 -20 -2 0 -10 8 -17 17 -10
14 -17 15 -37 6 -18 -8 -28 -7 -43 4 -11 7 -36 13 -55 11 -32 -3 -35 0 -38 25
-2 16 -10 31 -18 34 -22 8 -44 -16 -44 -48 0 -28 -1 -28 -20 -12 -11 10 -20
25 -20 34 0 33 -12 49 -37 49 -33 0 -83 27 -83 45 0 9 -11 21 -25 27 -13 6
-27 19 -30 30 -4 12 -16 18 -34 18 -16 0 -34 6 -40 14 -6 7 -34 16 -62 19 -28
4 -62 13 -75 22 -13 8 -35 15 -49 15 -14 0 -25 5 -25 10 0 14 -76 11 -139 -7z
m1399 -1018 c0 -8 -2 -15 -4 -15 -2 0 -6 7 -10 15 -3 8 -1 15 4 15 6 0 10 -7
10 -15z m-290 -1965 c0 -5 -2 -10 -4 -10 -3 0 -8 5 -11 10 -3 6 -1 10 4 10 6
0 11 -4 11 -10z m-190 -734 c0 -2 -7 -6 -15 -10 -8 -3 -15 -1 -15 4 0 6 7 10
15 10 8 0 15 -2 15 -4z"/>
<path d="M3403 4424 c-3 -8 -1 -20 5 -26 16 -16 42 -2 42 22 0 13 -7 20 -20
20 -11 0 -23 -7 -27 -16z"/>
<path d="M2125 3800 c-9 -15 4 -30 26 -30 12 0 19 7 19 20 0 13 -7 20 -19 20
-11 0 -23 -4 -26 -10z"/>
</g>
</svg>
