<?xml version="1.0" standalone="no"?>
<!DOCTYPE svg PUBLIC "-//W3C//DTD SVG 20010904//EN"
 "http://www.w3.org/TR/2001/REC-SVG-20010904/DTD/svg10.dtd">
<svg version="1.0" xmlns="http://www.w3.org/2000/svg"
 width="220.000000pt" height="764.000000pt" viewBox="0 0 220.000000 764.000000"
 preserveAspectRatio="xMidYMid meet">
<metadata>
Created by potrace 1.16, written by Peter Selinger 2001-2019
</metadata>
<g transform="translate(0.000000,764.000000) scale(0.100000,-0.100000)"
fill="#000000" stroke="none">
<path d="M900 3731 c-65 -33 -79 -38 -90 -31 -21 13 -40 0 -40 -26 0 -18 -5
-24 -22 -24 -35 0 -124 -48 -143 -77 -10 -15 -37 -47 -59 -69 -63 -64 -86 -91
-86 -101 0 -5 -22 -34 -48 -64 -45 -50 -66 -81 -91 -136 -6 -12 -23 -29 -38
-37 -34 -17 -56 -54 -52 -87 2 -13 -4 -35 -13 -49 -25 -38 -68 -159 -68 -190
0 -15 -7 -44 -15 -64 -17 -40 -38 -271 -30 -326 13 -84 29 -146 41 -156 7 -5
12 -19 11 -29 -1 -12 11 -27 32 -39 19 -12 62 -49 96 -83 34 -35 67 -63 73
-63 6 0 12 -4 14 -10 2 -5 37 -14 78 -19 95 -12 163 -30 173 -48 11 -18 44
-16 51 3 6 15 8 15 24 1 10 -9 33 -23 52 -31 33 -14 36 -13 60 8 27 25 80 46
116 46 13 0 29 9 36 19 17 25 83 52 95 40 16 -16 37 -1 57 41 14 30 25 40 43
40 17 0 23 6 24 23 0 21 1 21 9 2 12 -32 37 -47 60 -40 24 8 60 60 60 87 0 11
14 24 34 32 36 15 51 43 41 75 -5 15 1 20 30 25 23 5 41 16 52 34 9 15 30 42
46 61 19 23 27 40 23 55 -7 28 21 90 47 102 12 5 27 19 33 31 9 19 13 9 28
-72 10 -52 27 -110 38 -131 23 -43 36 -134 19 -134 -6 0 -11 -13 -11 -29 0
-21 -6 -30 -22 -35 -13 -3 -33 -6 -45 -6 -17 0 -23 -6 -23 -21 0 -11 9 -32 20
-46 11 -14 20 -31 20 -38 0 -16 25 -26 44 -19 8 3 16 14 19 25 7 27 53 25 71
-3 7 -13 22 -45 31 -73 10 -27 22 -54 27 -59 4 -6 8 -23 8 -39 0 -27 3 -29 29
-25 37 5 57 -21 36 -48 -21 -27 -18 -124 6 -229 11 -49 27 -121 35 -160 8 -38
21 -94 30 -124 9 -29 28 -141 44 -248 15 -107 33 -200 38 -205 7 -7 7 -16 0
-28 -8 -12 -8 -34 0 -76 10 -48 9 -69 -3 -114 -8 -30 -15 -71 -15 -90 0 -42
-42 -220 -66 -279 -10 -25 -38 -61 -71 -90 l-54 -48 -97 -7 c-139 -9 -252 -27
-265 -41 -9 -10 -14 -9 -22 2 -7 10 -46 17 -128 23 -125 9 -205 2 -233 -21 -9
-7 -28 -12 -41 -11 -18 3 -33 -6 -54 -29 -32 -36 -37 -65 -15 -94 12 -16 18
-17 39 -8 14 7 32 24 39 40 9 19 20 27 33 25 85 -15 89 -14 102 4 7 10 13 12
13 6 0 -7 6 -12 14 -12 7 0 19 -7 26 -15 16 -20 49 -19 72 2 17 15 19 15 31
-1 17 -24 51 -17 55 11 l3 22 34 -20 c21 -13 42 -18 55 -14 11 4 20 2 20 -4 0
-8 28 -9 88 -5 67 5 91 10 103 24 10 12 24 17 38 13 11 -3 28 1 37 8 13 10 17
10 25 -2 5 -8 9 -24 9 -37 0 -18 5 -23 23 -20 14 2 29 16 40 40 15 30 26 39
54 44 26 5 41 16 55 40 11 19 26 34 33 34 8 0 17 10 20 23 4 12 17 29 28 38
19 15 20 21 9 57 -7 21 -12 49 -12 62 0 19 3 20 15 10 8 -6 19 -9 26 -5 16 11
39 70 39 104 0 21 -6 30 -22 35 -21 6 -21 7 -5 17 9 5 17 20 17 32 0 12 9 42
20 66 11 24 20 61 20 82 0 34 -3 39 -23 39 -13 0 -28 -5 -35 -12 -9 -9 -10 -4
-3 20 12 42 19 52 36 52 22 0 35 34 35 89 0 44 -3 50 -22 53 -21 3 -24 10 -30
83 -4 44 -8 141 -10 215 -2 104 -7 142 -19 160 -9 14 -19 45 -23 70 -4 25 -14
56 -23 70 -9 14 -16 37 -15 52 1 14 -9 62 -22 105 -13 43 -27 113 -31 156 -4
47 -13 83 -22 92 -17 17 -54 20 -70 4 -7 -7 -12 -2 -15 20 -3 17 0 31 5 31 5
0 6 18 2 43 -6 38 -6 70 -2 152 1 18 13 41 30 58 15 15 32 27 37 27 6 0 10 9
10 20 0 13 -12 26 -35 37 -19 9 -35 20 -35 25 0 12 -34 10 -47 -3 -16 -16 -25
4 -27 63 -1 39 -6 54 -25 69 -21 18 -23 23 -13 61 6 23 8 46 5 51 -3 5 -14 6
-25 4 -17 -5 -19 -2 -14 20 10 36 -5 223 -18 234 -6 5 -20 16 -31 24 -17 12
-18 17 -7 32 24 34 25 46 8 58 -16 12 -16 16 1 75 16 60 16 63 -2 76 -15 12
-16 14 -3 14 20 0 28 21 28 70 0 21 5 42 10 45 6 3 10 31 10 60 0 51 -2 55
-27 61 -16 4 -36 13 -45 22 -10 8 -24 12 -33 9 -12 -5 -15 2 -15 38 0 40 -2
44 -30 50 -16 3 -37 2 -47 -3 -13 -8 -24 -4 -46 14 -16 13 -37 24 -48 24 -12
0 -19 7 -19 20 0 12 -11 31 -23 43 -13 12 -30 33 -36 46 -12 21 -17 23 -61 17
-41 -6 -48 -4 -53 13 -3 15 -19 21 -73 29 -81 12 -282 14 -304 3z m345 -136
c89 -34 106 -45 157 -99 31 -34 57 -70 58 -81 0 -11 7 -31 15 -45 18 -31 18
-123 1 -171 -7 -20 -35 -64 -62 -98 -82 -103 -94 -123 -94 -152 0 -38 29 -45
84 -20 30 13 50 30 62 53 9 18 23 37 30 41 8 4 14 17 14 28 0 38 25 13 32 -32
7 -45 25 -144 34 -189 4 -19 -3 -35 -30 -67 -24 -27 -36 -51 -36 -71 0 -35
-44 -118 -71 -133 -10 -5 -19 -14 -19 -19 0 -13 -90 -124 -104 -129 -16 -5
-86 -73 -97 -94 -7 -13 -7 -23 2 -33 9 -11 8 -14 -4 -14 -9 0 -22 -9 -30 -20
-13 -19 -15 -19 -21 -4 -5 13 -15 16 -51 12 -25 -3 -63 -18 -88 -34 -105 -70
-191 -98 -294 -96 -76 1 -126 11 -208 42 -27 10 -68 23 -90 29 -32 9 -50 24
-87 74 -26 34 -62 94 -80 132 -30 63 -33 80 -36 177 -3 79 0 119 12 150 8 24
20 77 26 118 8 58 24 103 70 198 33 67 69 130 80 140 12 9 37 46 57 82 23 42
70 98 130 156 51 50 93 97 93 103 0 6 11 11 25 11 13 0 38 13 55 30 16 16 52
37 80 47 27 10 50 21 50 25 0 4 39 5 88 3 48 -3 94 -1 102 5 10 6 20 5 30 -4
8 -7 60 -30 115 -51z m430 -425 c3 -5 1 -10 -4 -10 -6 0 -11 5 -11 10 0 6 2
10 4 10 3 0 8 -4 11 -10z m-55 -470 c0 -5 -5 -10 -11 -10 -5 0 -7 5 -4 10 3 6
8 10 11 10 2 0 4 -4 4 -10z"/>
<path d="M1982 2474 c-15 -10 -22 -25 -22 -47 0 -40 24 -77 51 -77 14 0 19 7
19 25 0 14 -6 25 -12 25 -7 0 -1 10 15 21 16 13 27 30 27 45 0 20 -5 24 -28
24 -15 0 -38 -7 -50 -16z"/>
<path d="M2053 2394 c-6 -17 14 -36 32 -31 6 2 11 13 13 25 3 17 -2 22 -18 22
-11 0 -23 -7 -27 -16z"/>
<path d="M1424 2205 c-4 -9 0 -23 9 -32 21 -21 49 -9 45 19 -4 28 -45 38 -54
13z"/>
<path d="M1344 2182 c-6 -4 -15 -27 -19 -52 -4 -25 -14 -53 -23 -62 -8 -10
-27 -18 -42 -18 -15 0 -33 -7 -40 -15 -9 -11 -16 -13 -24 -5 -16 16 -44 12
-56 -10 -6 -11 -20 -20 -31 -20 -11 0 -36 -12 -55 -27 -24 -18 -34 -33 -32
-47 4 -31 39 -31 68 -1 26 28 50 33 50 10 0 -9 6 -18 13 -21 8 -3 12 -16 9
-33 -2 -16 1 -31 6 -35 6 -3 47 13 91 36 58 30 83 49 87 65 4 13 1 30 -5 37
-10 11 -7 18 11 30 12 9 28 16 34 16 15 0 24 23 18 47 -3 11 2 25 10 32 9 8
16 24 16 37 0 17 -8 28 -26 34 -30 12 -45 12 -60 2z m-84 -232 c-20 -13 -33
-13 -25 0 3 6 14 10 23 10 15 0 15 -2 2 -10z"/>
<path d="M1520 2135 c-6 -15 -10 -40 -10 -56 0 -24 4 -29 24 -29 31 0 99 62
94 87 -2 14 -14 19 -51 21 -43 3 -48 1 -57 -23z"/>
<path d="M1254 2105 c-4 -9 -2 -21 4 -27 16 -16 47 -5 47 17 0 26 -42 34 -51
10z"/>
<path d="M990 1880 c-19 -5 -44 -20 -55 -34 -11 -14 -30 -26 -40 -25 -18 0
-18 1 3 9 13 6 22 18 22 30 0 17 -5 21 -27 18 -20 -2 -28 -9 -28 -23 0 -21
-34 -55 -55 -55 -7 0 -10 -13 -8 -32 3 -30 7 -33 38 -36 34 -3 67 -3 93 -2 6
1 21 0 32 -2 17 -3 20 3 23 40 2 28 8 42 18 42 8 0 14 -6 14 -14 0 -7 7 -19
15 -26 12 -10 20 -7 42 19 15 17 33 31 40 31 7 0 18 10 24 22 10 18 8 24 -7
35 -19 14 -89 16 -144 3z"/>
<path d="M715 1744 c-9 -9 -15 -26 -14 -38 3 -41 -1 -46 -42 -52 -22 -4 -43
-13 -46 -22 -3 -8 1 -26 10 -41 l15 -26 -45 4 c-35 2 -58 -4 -109 -29 -51 -27
-64 -38 -64 -56 0 -18 -6 -24 -23 -24 -34 0 -65 -38 -69 -84 -3 -35 -7 -41
-34 -48 -42 -11 -99 -98 -98 -150 1 -35 0 -37 -37 -43 -38 -7 -39 -8 -39 -46
0 -21 -4 -39 -10 -39 -5 0 -10 -6 -10 -13 0 -8 -9 -22 -20 -32 -12 -11 -20
-31 -20 -51 0 -18 -5 -56 -11 -85 -8 -36 -17 -53 -30 -56 -15 -4 -19 -15 -19
-54 0 -35 5 -53 20 -66 17 -17 18 -25 9 -87 -5 -38 -7 -77 -4 -88 8 -24 56
-24 78 0 14 15 17 40 17 123 0 57 7 135 15 172 18 84 55 168 91 204 14 14 27
37 27 50 0 13 7 28 17 33 10 5 21 21 24 35 4 14 38 57 76 95 39 39 70 79 70
90 0 23 42 70 63 70 29 0 48 13 58 36 6 16 16 24 33 24 29 0 126 77 174 138
22 28 44 43 70 49 28 6 38 14 40 31 2 13 -2 30 -8 38 -14 16 -60 19 -60 4 0
-5 -10 -10 -21 -10 -18 0 -19 3 -9 15 30 37 -30 63 -65 29z"/>
<path d="M1520 1710 c-21 -21 -24 -32 -13 -44 4 -4 6 -26 4 -50 -3 -50 37
-226 70 -307 25 -62 56 -229 69 -374 5 -55 15 -122 21 -148 8 -36 8 -63 -1
-113 -13 -70 -8 -133 12 -145 9 -6 7 -14 -10 -32 -29 -31 -28 -55 2 -63 39 -9
61 -1 64 26 2 14 8 30 12 35 5 6 16 33 26 60 13 39 17 88 18 225 1 228 -12
410 -31 417 -8 3 -13 21 -13 44 0 22 -4 47 -9 57 -6 9 -13 34 -16 55 -3 20 -9
37 -13 37 -5 0 -6 15 -4 34 3 27 -2 40 -22 61 -16 16 -26 37 -26 55 0 16 -4
31 -9 34 -4 3 -11 33 -15 67 -3 34 -11 68 -17 75 -17 21 -76 17 -99 -6z"/>
<path d="M586 993 c-4 -5 -21 -13 -38 -18 -27 -10 -33 -19 -51 -85 -24 -87
-30 -245 -9 -266 6 -7 12 -17 12 -22 0 -5 7 -15 15 -22 8 -7 15 -21 15 -31 0
-14 7 -19 29 -19 36 0 71 40 71 80 0 15 -9 47 -20 71 -27 61 -25 132 5 213 32
85 32 106 2 106 -13 0 -27 -3 -31 -7z"/>
<path d="M104 496 c-3 -8 -1 -24 6 -35 9 -17 8 -21 -5 -21 -27 0 -16 -34 21
-64 29 -23 40 -27 54 -18 12 7 21 7 28 0 6 -6 15 -7 21 -4 13 8 15 46 3 46 -4
0 -14 16 -21 35 -20 55 -93 97 -107 61z"/>
<path d="M210 338 c-36 -10 -70 -34 -70 -50 0 -5 8 -11 18 -15 9 -3 32 -17 49
-30 26 -19 40 -23 67 -17 19 3 43 15 53 26 17 19 17 20 -2 34 -10 8 -25 14
-32 14 -7 0 -18 11 -23 25 -10 28 -10 27 -60 13z"/>
<path d="M316 225 c-3 -10 2 -34 11 -54 23 -47 89 -81 155 -81 44 0 48 -2 39
-18 -7 -13 -6 -23 1 -30 15 -15 55 -16 63 -2 8 14 61 13 84 -2 16 -10 24 -7
52 21 17 18 43 39 56 48 13 9 23 25 23 39 0 40 -59 57 -110 31 -15 -8 -50 -12
-86 -10 -48 2 -63 -1 -68 -12 -9 -24 -23 -17 -29 14 -7 32 -21 40 -87 52 -25
4 -57 11 -71 14 -20 5 -28 2 -33 -10z"/>
<path d="M817 183 c-13 -13 -7 -63 12 -95 18 -29 19 -32 3 -44 -14 -10 -14
-14 -3 -28 18 -22 123 -22 141 -1 10 12 10 18 0 30 -6 8 -20 17 -31 20 -15 5
-19 16 -19 50 0 34 -5 47 -22 59 -23 16 -69 21 -81 9z"/>
<path d="M937 183 c-10 -10 -8 -61 2 -67 5 -4 21 -2 35 4 31 11 35 45 7 60
-23 12 -35 13 -44 3z"/>
</g>
</svg>
