<?xml version="1.0" standalone="no"?>
<!DOCTYPE svg PUBLIC "-//W3C//DTD SVG 20010904//EN"
 "http://www.w3.org/TR/2001/REC-SVG-20010904/DTD/svg10.dtd">
<svg version="1.0" xmlns="http://www.w3.org/2000/svg"
 width="339.000000pt" height="627.000000pt" viewBox="0 0 339.000000 627.000000"
 preserveAspectRatio="xMidYMid meet">
<metadata>
Created by potrace 1.16, written by Peter Selinger 2001-2019
</metadata>
<g transform="translate(0.000000,627.000000) scale(0.100000,-0.100000)"
fill="#000000" stroke="none">
<path d="M1065 4318 c3 -40 9 -76 11 -80 6 -10 68 -11 78 -1 3 4 21 7 39 7 26
1 33 6 35 25 2 13 -1 28 -7 34 -6 6 -11 21 -11 33 0 49 -8 54 -82 54 l-71 0 8
-72z"/>
<path d="M1296 4368 c-9 -12 -16 -32 -16 -45 0 -13 -8 -24 -20 -28 -31 -10
-25 -52 10 -85 44 -41 110 -64 167 -57 32 3 53 1 63 -8 44 -38 317 -60 645
-51 292 7 384 17 402 42 12 17 14 17 27 -1 13 -18 18 -18 112 -5 55 7 149 15
209 17 71 2 122 9 144 19 24 12 36 13 44 5 18 -18 48 -13 54 9 4 16 14 20 44
20 31 0 39 4 39 18 0 9 -4 23 -8 30 -10 15 -66 32 -110 32 -25 0 -35 -5 -42
-25 -10 -25 -24 -32 -34 -17 -9 15 -212 27 -411 25 -104 -1 -253 -9 -330 -18
-77 -8 -147 -16 -155 -16 -8 0 -82 5 -165 10 -158 10 -236 22 -322 48 -46 14
-58 15 -112 1 l-60 -14 -3 30 c-3 26 -11 35 -58 58 -30 15 -65 28 -77 28 -12
0 -29 -10 -37 -22z"/>
<path d="M3303 4243 c-14 -3 -23 -12 -23 -23 0 -20 19 -30 55 -30 36 0 55 10
55 31 0 12 -7 19 -19 19 -11 0 -25 2 -33 4 -7 2 -23 1 -35 -1z"/>
<path d="M1080 4090 c0 -16 5 -21 23 -18 12 2 22 10 22 18 0 8 -10 16 -22 18
-18 3 -23 -2 -23 -18z"/>
<path d="M1022 4078 c-7 -7 -12 -27 -12 -45 0 -26 4 -33 19 -33 11 0 26 -3 34
-6 12 -4 11 -13 -10 -50 -14 -24 -32 -44 -40 -44 -11 0 -14 -7 -11 -25 3 -13
1 -22 -3 -19 -5 3 -9 14 -9 25 0 13 -7 19 -23 19 -13 0 -28 -5 -35 -12 -15
-15 -16 -78 -1 -78 6 0 1 -12 -10 -26 -24 -30 -27 -54 -9 -72 9 -9 7 -12 -9
-12 -23 0 -33 -18 -33 -61 0 -19 5 -29 15 -29 8 0 15 -3 15 -6 0 -3 -7 -21
-15 -39 -9 -18 -27 -37 -40 -43 -14 -7 -25 -19 -25 -27 0 -9 13 -24 30 -33 16
-9 30 -20 30 -24 0 -4 -10 -8 -22 -10 -18 -2 -25 -13 -33 -43 -5 -22 -14 -43
-20 -47 -5 -4 -11 -39 -12 -79 -1 -45 -7 -77 -16 -88 -8 -9 -17 -28 -21 -43
-3 -16 -11 -28 -16 -28 -6 0 -10 -9 -10 -20 0 -12 9 -24 22 -29 21 -7 20 -8
-9 -18 -20 -8 -32 -19 -35 -36 -3 -15 -1 -30 3 -34 11 -11 -7 -123 -21 -137
-5 -5 -10 -20 -10 -32 0 -13 -7 -29 -15 -38 -8 -8 -15 -26 -15 -40 0 -14 -4
-27 -9 -30 -12 -8 -20 -54 -32 -191 -6 -76 -15 -124 -23 -130 -23 -18 -37 -54
-36 -93 1 -50 -9 -93 -28 -115 -9 -10 -15 -31 -14 -47 1 -16 -2 -31 -8 -35 -5
-3 -10 -19 -10 -35 0 -16 -9 -48 -21 -70 -12 -22 -18 -47 -15 -56 3 -8 -1 -29
-10 -46 -20 -38 -54 -198 -54 -253 0 -57 -25 -148 -61 -221 -23 -46 -29 -70
-25 -91 4 -17 2 -51 -4 -77 -8 -35 -8 -52 0 -61 8 -9 8 -20 2 -32 -5 -10 -17
-50 -27 -90 -9 -41 -27 -82 -39 -96 -16 -18 -26 -50 -39 -128 -10 -57 -22
-108 -27 -113 -14 -14 -13 -69 1 -83 9 -9 5 -18 -15 -36 -15 -14 -26 -35 -26
-49 0 -14 -9 -37 -21 -52 -26 -33 -38 -106 -18 -106 8 0 4 -7 -9 -16 -13 -9
-22 -26 -22 -40 0 -14 -14 -56 -30 -94 -22 -49 -30 -84 -30 -124 0 -43 3 -56
15 -56 8 0 17 -11 21 -25 5 -19 13 -25 33 -25 38 0 105 38 120 69 7 14 17 42
21 61 5 19 15 60 24 90 9 30 16 67 16 81 0 14 7 41 17 59 9 19 18 56 21 84 2
28 9 57 15 64 10 12 14 28 41 158 8 40 26 91 39 115 13 24 27 64 31 89 4 25
25 121 49 213 40 161 41 169 24 182 -18 13 -18 14 2 25 16 8 21 20 21 51 0 22
7 56 16 77 15 36 36 116 56 217 13 65 94 431 114 515 8 36 29 111 45 166 17
56 37 144 44 195 15 103 24 137 50 188 13 25 16 50 13 105 -4 59 -2 74 14 90
10 11 27 44 38 74 24 64 100 335 100 357 0 8 13 56 30 106 16 51 33 115 36
142 4 27 12 51 19 54 7 2 16 32 20 68 3 35 15 81 27 102 29 56 58 142 58 173
0 28 -15 40 -51 40 -11 0 -22 8 -26 18 -7 20 -53 61 -68 62 -6 0 -16 -5 -23
-12z m-669 -3198 c3 -11 1 -20 -4 -20 -5 0 -9 4 -9 9 0 5 -3 17 -7 27 -4 11
-3 15 4 11 6 -4 13 -16 16 -27z"/>
<path d="M1216 3088 c-9 -12 -16 -34 -16 -48 0 -14 -6 -32 -12 -38 -10 -10
-10 -17 -1 -31 8 -13 8 -22 1 -29 -16 -16 0 -32 33 -32 18 0 39 9 54 25 28 27
33 55 10 55 -21 0 -19 17 5 30 23 12 27 59 8 78 -20 20 -65 14 -82 -10z"/>
<path d="M1161 2891 c-9 -6 -14 -25 -13 -55 1 -25 -2 -46 -8 -46 -5 0 -10 -7
-10 -15 0 -9 -8 -32 -19 -53 -10 -20 -21 -59 -25 -86 -3 -27 -15 -63 -26 -81
-15 -25 -20 -50 -20 -110 0 -55 -5 -85 -17 -106 -15 -25 -16 -33 -4 -50 11
-19 9 -25 -18 -53 -33 -34 -40 -63 -17 -72 11 -4 8 -11 -10 -29 -26 -26 -32
-74 -14 -119 12 -33 -3 -70 -35 -84 -19 -9 -25 -21 -29 -59 -3 -26 -13 -75
-22 -108 -22 -84 -28 -123 -52 -310 -4 -33 -11 -65 -14 -71 -4 -6 -12 -54 -18
-105 -6 -52 -13 -109 -16 -126 -5 -28 -3 -33 12 -33 15 -1 12 -4 -9 -16 -22
-12 -28 -21 -25 -42 3 -23 9 -28 43 -32 34 -5 37 -7 18 -13 -12 -5 -32 -20
-43 -34 -15 -20 -20 -41 -20 -88 0 -53 -3 -64 -25 -83 -14 -12 -25 -26 -25
-32 0 -6 9 -18 20 -27 19 -17 19 -17 -1 -31 -15 -10 -19 -21 -15 -38 5 -19 2
-24 -14 -24 -26 0 -35 -38 -22 -91 8 -31 7 -41 -3 -45 -19 -8 -55 -98 -62
-156 l-6 -50 44 7 c24 4 47 9 52 12 17 10 36 64 50 137 8 42 22 85 31 95 9 10
19 42 23 72 3 30 10 59 15 66 5 7 7 26 3 43 -5 23 -3 30 9 30 12 0 16 10 16
39 0 21 7 55 15 74 8 20 15 57 15 82 0 31 5 47 15 51 18 7 21 69 4 80 -6 3 -7
9 -3 13 5 3 17 21 27 39 13 22 16 42 12 63 -4 17 -2 35 4 43 6 7 11 33 11 57
-2 59 10 120 26 144 8 11 14 38 14 60 0 22 5 56 10 75 16 50 50 231 50 259 0
14 9 43 20 66 11 23 26 84 34 136 8 52 24 128 36 169 13 41 24 91 27 110 8 66
33 205 47 258 8 29 22 64 31 78 10 16 18 58 22 124 l6 100 -44 0 c-24 0 -50
-4 -58 -9z"/>
<path d="M584 1246 c-8 -21 3 -36 27 -36 15 0 20 6 17 22 -4 27 -35 37 -44 14z"/>
<path d="M650 300 c0 -16 7 -20 30 -20 23 0 30 4 30 20 0 16 -7 20 -30 20 -23
0 -30 -4 -30 -20z"/>
</g>
</svg>
