<?xml version="1.0" standalone="no"?>
<!DOCTYPE svg PUBLIC "-//W3C//DTD SVG 20010904//EN"
 "http://www.w3.org/TR/2001/REC-SVG-20010904/DTD/svg10.dtd">
<svg version="1.0" xmlns="http://www.w3.org/2000/svg"
 width="539.000000pt" height="627.000000pt" viewBox="0 0 539.000000 627.000000"
 preserveAspectRatio="xMidYMid meet">
<metadata>
Created by potrace 1.16, written by Peter Selinger 2001-2019
</metadata>
<g transform="translate(0.000000,627.000000) scale(0.100000,-0.100000)"
fill="#000000" stroke="none">
<path d="M681 4860 c-13 -11 -29 -20 -37 -20 -18 0 -18 -41 0 -66 8 -10 11
-23 7 -29 -15 -18 -20 -58 -11 -76 7 -12 5 -20 -4 -28 -8 -6 -17 -40 -21 -76
-3 -35 -13 -88 -21 -117 -17 -67 -18 -128 -1 -128 6 0 4 -5 -5 -11 -10 -5 -18
-20 -18 -32 0 -13 -7 -33 -16 -45 -8 -12 -14 -37 -12 -55 2 -19 -3 -36 -11
-43 -9 -7 -16 -49 -21 -135 -6 -79 -14 -135 -24 -154 -9 -17 -16 -55 -16 -85
0 -34 -6 -64 -16 -78 -13 -19 -13 -28 -4 -58 11 -32 10 -38 -9 -55 -16 -15
-21 -32 -21 -72 0 -29 5 -58 11 -64 8 -8 5 -13 -10 -18 -12 -3 -23 -16 -27
-29 -6 -27 11 -75 30 -82 13 -5 13 -9 1 -27 -8 -12 -19 -53 -25 -90 -8 -49 -7
-78 1 -105 6 -23 8 -70 4 -122 -3 -47 -7 -119 -8 -160 -2 -62 -5 -75 -19 -78
-13 -3 -18 -14 -20 -40 -2 -57 3 -146 10 -157 12 -19 7 -95 -5 -100 -7 -2 -13
-20 -13 -39 0 -19 -5 -38 -10 -41 -6 -3 -10 -19 -10 -35 0 -16 -4 -32 -10 -35
-10 -6 -8 -90 5 -161 5 -32 3 -48 -10 -68 -15 -22 -17 -41 -12 -111 4 -63 3
-86 -8 -95 -7 -6 -11 -19 -8 -29 3 -10 0 -22 -6 -25 -19 -12 -12 -46 10 -54
21 -8 21 -8 -3 -24 -28 -19 -48 -76 -48 -141 0 -25 -5 -49 -10 -52 -6 -3 -10
-19 -10 -34 0 -16 -7 -45 -15 -64 -8 -20 -15 -65 -16 -99 0 -78 -12 -172 -33
-258 -9 -36 -19 -114 -22 -174 -6 -95 -5 -110 9 -118 24 -13 21 -26 -5 -30
-22 -3 -23 -8 -24 -93 0 -49 -6 -100 -12 -112 -7 -12 -12 -42 -12 -67 0 -25
-4 -47 -9 -51 -5 -3 -13 -30 -16 -60 -4 -30 -14 -60 -22 -66 -11 -10 -13 -26
-8 -74 7 -58 5 -63 -14 -68 -16 -4 -21 -13 -21 -39 0 -47 55 -108 97 -108 21
0 33 7 40 23 6 13 34 48 62 79 49 53 64 88 39 88 -6 0 -1 11 12 25 16 17 24
38 24 64 1 21 8 47 17 57 9 11 19 26 21 34 7 20 -9 50 -26 50 -19 0 -8 50 16
77 15 16 18 29 13 52 -4 20 -1 38 10 54 8 13 18 54 22 91 3 37 10 69 14 72 5
3 9 15 9 27 0 13 7 32 15 45 9 12 20 58 25 102 5 44 13 88 19 97 19 38 51 270
57 429 6 136 5 167 -7 174 -11 7 -9 14 11 35 23 24 24 32 22 130 -1 64 4 133
13 177 8 40 15 95 15 121 0 27 5 57 10 68 8 15 17 18 38 13 15 -4 32 -13 38
-21 18 -21 127 -39 166 -26 23 6 88 6 200 0 l168 -10 55 28 c53 27 59 34 67
90 2 11 11 21 21 23 14 3 17 -4 17 -40 0 -81 -36 -75 528 -80 276 -3 505 -8
508 -11 3 -3 -17 -59 -44 -124 -28 -65 -67 -170 -87 -233 -20 -63 -43 -130
-51 -148 -8 -18 -14 -39 -14 -47 0 -8 -7 -18 -16 -23 -9 -5 -18 -27 -20 -53
-3 -24 -14 -61 -25 -81 -27 -50 -48 -156 -38 -190 5 -18 3 -31 -5 -38 -17 -14
-28 -125 -17 -172 5 -22 5 -38 0 -38 -5 0 -9 -9 -9 -21 0 -12 8 -23 20 -26 11
-3 20 -9 20 -14 0 -5 -11 -16 -25 -25 -25 -16 -33 -48 -16 -58 5 -3 12 -42 16
-85 6 -69 10 -82 31 -95 13 -9 28 -34 35 -58 7 -24 18 -49 25 -57 8 -9 10 -21
4 -36 -9 -24 -3 -65 10 -65 4 0 10 -10 13 -21 4 -15 12 -20 24 -17 15 4 25 -8
47 -54 16 -32 35 -58 42 -58 10 0 14 -14 14 -47 0 -37 6 -53 23 -69 12 -12 39
-24 60 -28 23 -4 43 -16 53 -31 9 -14 25 -25 36 -25 34 0 96 41 113 74 9 17
21 38 27 47 18 25 1 65 -37 89 -19 12 -35 26 -35 31 0 5 -5 9 -12 9 -12 0 -66
60 -106 118 -14 21 -31 62 -38 92 -32 137 -68 233 -101 272 -10 11 -11 18 -4
23 6 3 11 15 11 26 0 10 5 19 10 19 15 0 12 46 -5 60 -13 11 -13 15 0 33 20
29 19 96 -2 119 -15 17 -15 20 6 41 20 22 21 30 15 110 -5 63 -11 87 -20 87
-23 0 -16 20 11 30 29 11 32 31 9 54 -8 9 -14 26 -12 38 3 20 10 23 49 26 39
2 48 7 53 25 4 15 -2 29 -20 45 -13 13 -22 27 -19 33 4 5 19 16 36 24 16 9 29
22 29 30 0 7 14 23 30 35 17 12 30 25 30 30 0 5 -10 18 -22 30 -12 11 -17 20
-12 20 15 0 71 101 78 143 4 21 17 46 28 55 12 9 29 24 38 32 9 8 25 20 35 25
24 14 95 195 107 274 8 50 16 69 35 85 22 17 25 25 19 62 -5 39 -3 42 20 48
13 4 30 18 36 32 10 22 9 28 -5 39 -16 11 -15 16 9 70 15 31 28 71 29 89 2 17
3 36 4 43 1 6 13 13 28 15 36 4 43 35 11 47 -17 7 -19 10 -5 10 10 1 17 9 17
21 0 14 7 20 24 20 20 0 26 7 31 33 11 57 16 67 30 67 36 0 29 58 -10 95 -24
22 -25 24 -10 58 18 44 19 79 3 95 -9 9 -8 12 4 12 9 0 20 -9 23 -20 5 -15 15
-20 40 -20 18 0 36 6 38 13 3 6 6 0 6 -15 2 -60 71 -17 71 44 0 23 -4 28 -25
28 -30 0 -33 15 -5 30 11 6 20 17 20 25 0 12 9 14 40 9 35 -6 40 -4 40 13 0
11 -9 32 -21 47 -16 20 -17 26 -6 26 8 0 20 7 27 15 7 8 23 15 36 15 19 0 24
5 24 23 0 31 26 83 45 91 18 7 19 29 3 55 -15 25 -3 54 20 47 21 -7 72 28 72
48 0 9 9 12 26 8 25 -5 26 -4 23 54 -2 49 0 60 14 62 9 2 17 13 17 24 0 20 1
20 26 3 14 -9 32 -14 39 -11 8 3 15 24 17 53 2 39 7 50 26 58 12 5 22 15 22
21 0 14 23 24 51 24 27 0 99 59 99 81 0 10 5 21 10 24 6 3 10 21 10 40 0 30 4
34 33 40 17 4 38 12 45 17 8 7 12 7 12 -2 0 -6 13 -25 30 -41 23 -24 33 -28
48 -20 10 5 24 21 31 35 12 21 19 24 44 19 28 -6 30 -4 25 20 -6 29 9 36 29
16 7 -7 42 -16 80 -20 37 -5 84 -11 104 -15 42 -7 57 7 66 60 4 27 2 36 -8 36
-16 0 -69 63 -69 81 0 8 -15 10 -50 6 -27 -3 -52 -2 -55 3 -3 5 -44 8 -92 6
-84 -3 -86 -3 -114 -37 -16 -19 -29 -40 -29 -46 0 -16 -2 -16 -34 -3 -14 5
-26 16 -26 25 0 10 -10 15 -30 15 -38 0 -77 -20 -110 -55 -14 -15 -41 -35 -62
-46 -46 -23 -244 -217 -257 -251 -8 -20 -15 -25 -35 -21 -19 4 -27 0 -32 -13
-14 -45 -31 -69 -61 -87 -18 -10 -33 -25 -33 -32 0 -7 -13 -26 -28 -41 -44
-45 -78 -96 -91 -135 -10 -32 -73 -118 -116 -159 -8 -8 -35 -34 -59 -57 -44
-43 -62 -78 -45 -89 5 -3 0 -17 -11 -31 -11 -14 -20 -33 -20 -42 0 -9 -14 -36
-30 -61 -16 -25 -30 -52 -30 -60 0 -9 -22 -40 -50 -70 -27 -30 -50 -59 -50
-65 0 -5 -12 -35 -26 -65 -14 -30 -28 -76 -31 -102 -4 -31 -14 -54 -29 -69
-25 -24 -31 -53 -13 -64 7 -5 3 -15 -10 -29 -27 -29 -51 -88 -51 -128 0 -25
-6 -36 -22 -43 -13 -6 -26 -24 -30 -42 -5 -18 -12 -33 -17 -33 -5 0 -11 -15
-15 -32 -10 -55 -38 -138 -46 -138 -4 0 -13 7 -20 15 -7 8 -18 15 -26 15 -16
0 -34 31 -34 59 0 25 -18 31 -55 15 -45 -18 -145 -29 -145 -15 0 17 -60 13
-66 -4 -4 -8 -10 -15 -15 -15 -5 0 -9 7 -9 15 0 18 -7 18 -65 3 -36 -10 -50
-10 -65 0 -24 15 -47 16 -52 2 -1 -5 -25 -14 -53 -19 -50 -9 -132 -8 -337 4
-70 4 -115 2 -128 -5 -16 -8 -28 -6 -59 12 l-39 22 -54 -22 c-29 -12 -63 -22
-76 -22 -17 0 -22 -6 -22 -25 l0 -26 -28 21 c-23 17 -46 22 -120 24 -78 3 -94
1 -108 -15 -29 -32 -11 -48 58 -52 35 -2 7 -4 -62 -5 -75 -1 -130 -6 -137 -13
-8 -8 -13 -8 -17 0 -11 18 -51 13 -80 -10 -21 -16 -32 -19 -54 -11 -22 7 -26
14 -24 37 2 15 -1 30 -6 34 -7 4 -7 21 0 51 6 25 14 113 19 195 18 322 76
1031 85 1046 4 7 11 74 15 149 5 94 14 157 28 198 12 34 21 81 21 104 0 24 7
84 15 133 8 50 19 160 25 245 6 85 18 178 26 206 8 28 13 59 12 70 -1 10 1 40
6 66 4 25 5 60 1 77 -6 30 -9 31 -58 31 -37 -1 -59 -6 -76 -20z m2549 -1352
c0 -29 -1 -30 -14 -13 -10 14 -11 22 -2 31 6 7 12 13 14 14 1 0 2 -14 2 -32z
m-2862 -2057 c21 -28 21 -29 2 -34 -23 -6 -27 -35 -5 -43 8 -4 12 -10 10 -15
-3 -4 -14 0 -24 10 -10 10 -23 20 -29 22 -8 3 -8 16 0 47 6 23 14 42 17 42 4
0 17 -13 29 -29z m-8 -123 c0 -4 -12 -15 -26 -24 -23 -16 -25 -23 -25 -83 0
-36 -1 -88 -3 -116 -3 -46 -5 -50 -31 -53 -34 -4 -54 13 -37 30 17 17 15 47
-3 54 -12 5 -6 14 25 37 39 31 40 32 40 97 l0 65 30 0 c17 0 30 -3 30 -7z
m-83 -382 c-10 -20 -15 -22 -34 -13 -13 6 -23 13 -23 17 0 8 53 28 62 23 3 -2
1 -14 -5 -27z"/>
<path d="M4360 4183 c0 -33 41 -258 56 -303 8 -25 14 -55 14 -66 0 -28 24 -47
48 -40 16 6 20 18 22 79 7 174 -3 278 -26 298 -8 6 -14 20 -14 30 0 16 -8 19
-50 19 -41 0 -50 -3 -50 -17z"/>
<path d="M4168 3796 c-6 -14 -8 -32 -5 -40 3 -8 24 -24 45 -35 22 -11 42 -30
45 -41 4 -14 12 -21 24 -18 12 2 19 14 21 36 3 28 -4 40 -42 77 -25 25 -52 45
-61 45 -8 0 -20 -11 -27 -24z"/>
<path d="M4328 3743 c-11 -3 -18 -14 -18 -29 0 -19 5 -24 25 -24 20 0 25 -5
25 -25 0 -22 4 -25 33 -25 65 0 105 80 51 100 -26 10 -84 12 -116 3z"/>
<path d="M4577 3743 c-4 -3 -7 -15 -7 -25 0 -10 -4 -18 -9 -18 -5 0 -12 -13
-16 -29 -3 -15 -19 -41 -35 -56 -17 -16 -30 -34 -30 -41 0 -19 87 -57 120 -52
21 3 30 0 30 -9 0 -7 4 -13 9 -13 5 0 12 -8 15 -18 3 -10 30 -29 59 -44 28
-14 77 -44 107 -67 30 -22 60 -41 66 -41 7 0 26 -11 42 -25 17 -14 42 -25 57
-25 22 0 26 4 22 20 -6 24 11 26 39 5 10 -8 27 -15 38 -15 16 0 18 5 13 36 -5
30 -3 37 14 41 29 8 19 35 -20 55 -19 10 -39 24 -43 33 -5 9 -23 15 -42 15
-24 0 -35 5 -39 19 -3 14 -18 20 -61 25 -31 4 -56 11 -56 16 0 5 -14 17 -32
26 -17 9 -36 20 -42 25 -6 5 -25 20 -42 34 -18 14 -45 25 -62 25 -27 0 -30 4
-36 38 -11 61 -17 72 -35 72 -10 0 -21 -3 -24 -7z"/>
<path d="M5120 3321 c0 -22 6 -44 15 -51 8 -7 15 -18 15 -25 0 -7 -7 -15 -15
-19 -17 -6 -20 -57 -4 -73 8 -8 8 -17 0 -31 -30 -56 -66 -412 -43 -426 9 -5 8
-13 -2 -29 -9 -15 -16 -72 -21 -177 -3 -85 -13 -197 -21 -248 -14 -90 -56
-218 -110 -331 -14 -30 -36 -84 -50 -120 -33 -89 -67 -161 -76 -161 -5 0 -8
-7 -8 -15 0 -20 -63 -182 -101 -262 -17 -34 -37 -64 -45 -67 -8 -3 -14 -14
-14 -25 0 -11 -5 -23 -10 -26 -6 -4 -22 -27 -35 -53 -14 -26 -48 -76 -75 -112
-27 -36 -54 -75 -60 -87 -6 -14 -18 -23 -32 -23 -23 0 -134 -77 -213 -148 -22
-20 -53 -56 -70 -81 -22 -33 -41 -49 -75 -60 -63 -23 -117 -58 -123 -82 -4
-16 -11 -18 -31 -13 -18 4 -33 0 -52 -15 -15 -12 -33 -21 -41 -21 -8 0 -25
-11 -39 -25 -14 -14 -34 -24 -46 -22 -15 1 -26 -6 -36 -25 -11 -24 -19 -28
-52 -28 -58 0 -264 -45 -364 -80 -47 -17 -94 -30 -104 -30 -10 0 -27 -7 -40
-15 -15 -11 -32 -14 -57 -9 -24 4 -42 1 -59 -9 -16 -11 -27 -12 -33 -6 -7 7
-25 7 -54 -1 -24 -7 -64 -14 -89 -15 -99 -6 -212 -23 -221 -32 -7 -7 -8 -38
-2 -89 8 -75 9 -78 38 -86 16 -4 44 -4 62 1 24 7 33 6 37 -5 6 -17 47 -19 63
-3 8 8 13 8 17 0 9 -14 46 -15 46 -1 0 18 58 40 105 40 25 0 45 -4 45 -10 0
-17 102 -10 160 10 30 11 63 19 73 20 9 0 17 7 17 15 0 8 5 15 10 15 6 0 10
-4 10 -10 0 -16 50 -12 56 5 4 9 19 15 40 15 19 0 42 4 52 9 9 6 29 12 45 16
15 3 27 11 27 18 0 6 21 19 48 27 35 11 48 20 50 38 4 27 18 29 25 2 5 -19 11
-20 64 -14 32 4 62 10 67 14 4 5 14 19 20 31 10 20 18 23 54 21 32 -3 44 0 49
13 3 10 35 30 69 46 48 21 64 33 64 48 0 27 35 44 75 37 19 -4 36 -2 40 4 3 5
20 10 37 10 29 0 30 2 25 33 -4 26 -1 36 14 45 10 7 22 26 27 44 5 23 18 38
42 50 19 10 40 28 47 42 7 13 26 29 43 34 29 11 40 35 20 47 -7 4 -5 14 5 28
8 12 15 30 15 41 0 11 3 16 7 13 3 -4 7 -31 7 -59 1 -47 3 -53 24 -56 13 -2
34 4 47 12 13 9 35 16 47 16 31 1 66 31 74 66 4 16 15 37 25 47 11 10 19 24
19 32 0 8 5 15 10 15 6 0 10 9 10 19 0 11 10 32 23 48 34 40 39 61 19 72 -13
8 -8 14 32 38 72 41 106 76 99 101 -3 11 -11 23 -19 26 -8 3 -14 14 -14 26 0
13 11 24 34 34 19 8 37 24 41 37 5 13 21 40 38 61 30 37 31 68 3 68 -8 0 -17
4 -20 8 -7 12 59 137 94 181 19 23 30 47 30 67 0 17 7 37 15 44 8 7 28 37 45
68 24 45 30 68 30 117 0 61 0 62 32 71 21 6 34 17 36 29 2 11 10 34 18 52 16
36 18 79 4 88 -18 11 -11 25 13 25 12 0 29 4 37 10 12 8 11 19 -9 87 -21 72
-21 78 -5 90 12 9 15 20 11 42 -4 17 -2 33 3 36 6 3 10 17 10 31 0 19 5 24 25
24 18 0 25 5 25 20 0 10 -9 24 -21 30 -24 14 -69 5 -69 -13 -1 -12 -39 51 -40
66 0 4 17 7 39 7 32 0 40 4 45 23 3 12 6 32 6 44 0 13 9 37 20 55 22 36 26 73
10 83 -5 3 -10 20 -10 36 0 25 -6 33 -30 42 -16 6 -30 14 -30 18 0 11 23 27
45 31 17 3 20 12 23 72 2 40 -2 74 -9 82 -8 10 -8 22 0 45 15 43 14 59 -4 59
-8 0 -19 9 -25 20 -6 11 -17 20 -24 20 -8 0 -19 7 -26 16 -8 8 -25 14 -39 12
-23 -3 -26 1 -29 30 -3 28 -7 32 -33 32 -27 0 -29 -3 -29 -39z"/>
<path d="M5350 3060 c0 -13 7 -20 20 -20 13 0 20 7 20 20 0 13 -7 20 -20 20
-13 0 -20 -7 -20 -20z"/>
<path d="M5335 2750 c-3 -6 -3 -19 0 -31 10 -29 39 -20 43 14 3 21 -1 27 -17
27 -11 0 -23 -5 -26 -10z"/>
<path d="M5320 2620 c0 -21 34 -45 50 -35 6 3 10 17 10 31 0 20 -5 24 -30 24
-23 0 -30 -4 -30 -20z"/>
<path d="M2547 743 c-13 -12 -7 -60 8 -73 12 -10 21 -10 40 -2 27 13 34 49 13
70 -13 13 -50 16 -61 5z"/>
</g>
</svg>
