<?xml version="1.0" standalone="no"?>
<!DOCTYPE svg PUBLIC "-//W3C//DTD SVG 20010904//EN"
 "http://www.w3.org/TR/2001/REC-SVG-20010904/DTD/svg10.dtd">
<svg version="1.0" xmlns="http://www.w3.org/2000/svg"
 width="161.000000pt" height="627.000000pt" viewBox="0 0 161.000000 627.000000"
 preserveAspectRatio="xMidYMid meet">
<metadata>
Created by potrace 1.16, written by Peter Selinger 2001-2019
</metadata>
<g transform="translate(0.000000,627.000000) scale(0.100000,-0.100000)"
fill="#000000" stroke="none">
<path d="M1326 2729 c-14 -11 -26 -29 -26 -40 0 -15 7 -19 30 -19 30 0 31 -1
24 -36 -6 -35 -6 -36 24 -33 17 2 38 -3 49 -12 10 -9 26 -19 36 -22 9 -4 17
-13 17 -21 0 -17 37 -30 67 -24 13 2 19 13 21 38 1 19 -1 40 -5 45 -5 6 -30
19 -58 30 -37 15 -51 27 -55 45 -7 37 -41 70 -71 70 -14 0 -38 -9 -53 -21z"/>
<path d="M213 2720 c-12 -5 -26 -17 -32 -27 -5 -10 -19 -68 -30 -128 -12 -61
-26 -126 -32 -145 -6 -19 -13 -51 -15 -70 -2 -19 -9 -48 -14 -64 -6 -16 -10
-51 -10 -77 0 -41 3 -49 19 -49 14 0 22 12 30 44 6 25 15 48 21 51 14 8 13
-141 -1 -225 -12 -70 -12 -274 0 -330 5 -25 3 -38 -7 -45 -19 -15 -26 -118
-13 -190 10 -53 9 -61 -6 -72 -13 -10 -18 -39 -23 -165 -7 -148 -31 -285 -53
-299 -15 -10 -2 -97 17 -118 13 -14 14 -24 7 -44 -6 -15 -20 -36 -31 -47 -12
-12 -20 -29 -19 -38 1 -9 -2 -25 -6 -36 -5 -11 -3 -26 4 -38 9 -15 9 -25 -4
-50 -23 -47 -20 -68 10 -68 20 0 25 -5 25 -24 0 -16 -7 -27 -20 -31 -13 -4
-20 -15 -20 -31 0 -30 27 -74 46 -74 7 0 18 -9 23 -19 9 -16 7 -20 -14 -25
-24 -6 -25 -9 -25 -89 1 -45 6 -92 13 -103 14 -26 102 -94 120 -94 7 0 22 21
34 48 17 39 23 81 33 255 8 129 10 279 5 390 -4 116 -2 222 5 292 14 137 58
327 73 322 7 -2 26 -39 44 -82 17 -44 38 -84 45 -90 8 -5 12 -19 10 -29 -2
-10 3 -23 12 -28 9 -5 16 -16 16 -24 0 -15 47 -110 78 -155 9 -14 27 -41 39
-60 45 -70 79 -111 106 -127 15 -9 27 -22 27 -29 0 -7 12 -15 28 -19 47 -10
52 -13 52 -32 0 -30 56 -106 130 -176 39 -36 88 -75 110 -86 23 -12 45 -32 50
-45 5 -14 14 -25 20 -25 5 0 10 -7 10 -15 0 -22 60 -85 81 -85 50 0 128 53
129 88 0 22 -31 75 -76 128 -24 28 -44 56 -44 61 0 6 -26 27 -57 48 -96 63
-132 95 -149 131 -25 52 -70 92 -117 104 -23 6 -48 13 -54 15 -7 2 -13 20 -13
38 0 24 -11 48 -35 81 -20 25 -49 53 -65 61 -16 8 -30 25 -32 37 -2 18 -9 23
-30 23 -18 -1 -24 3 -18 9 6 6 10 19 10 29 0 28 -41 97 -58 97 -8 0 -16 9 -19
19 -3 11 -11 22 -19 25 -9 3 -14 21 -14 50 0 26 -5 47 -12 50 -10 5 -10 7 0
12 18 9 14 38 -7 51 -13 8 -21 26 -23 50 -3 32 -7 38 -35 45 -32 8 -47 38 -19
38 7 0 19 7 26 15 10 12 9 23 -4 58 -16 42 -15 85 3 132 11 28 31 82 49 135 8
25 21 49 29 53 7 4 13 16 13 26 0 10 3 21 8 25 4 4 12 38 17 74 10 66 11 67
43 70 17 2 32 8 32 13 0 5 9 23 21 38 27 37 23 76 -8 75 -16 0 -23 5 -23 18 0
22 7 23 27 2 11 -11 26 -14 46 -10 60 12 73 43 35 84 l-23 25 52 -7 c50 -6 53
-5 87 29 41 40 46 77 16 98 -23 16 -16 27 17 27 20 0 22 -4 17 -25 -4 -17 -2
-27 9 -30 16 -7 103 52 154 103 17 17 36 32 41 32 5 0 12 9 15 20 3 11 12 20
21 20 9 0 16 7 16 15 0 12 4 13 19 4 10 -7 26 -9 35 -6 20 8 21 36 1 43 -10 4
-15 20 -15 45 0 36 -2 39 -27 39 -16 0 -37 -7 -47 -15 -11 -8 -32 -15 -47 -15
-20 0 -32 -9 -48 -35 -11 -20 -27 -38 -36 -41 -8 -4 -15 -14 -16 -23 0 -10 -2
-11 -6 -3 -2 6 -13 12 -24 12 -15 0 -19 -7 -19 -37 -1 -31 -3 -35 -11 -20 -13
23 -50 22 -56 -2 -2 -10 -15 -23 -28 -29 -31 -14 -51 -47 -61 -97 -4 -25 -9
-33 -12 -21 -3 15 -11 17 -43 13 -52 -7 -87 -31 -95 -65 -10 -48 -13 -52 -32
-52 -16 0 -21 -10 -26 -52 -3 -29 -9 -69 -12 -89 -5 -32 -8 -35 -35 -31 -25 4
-29 1 -29 -20 0 -13 5 -29 11 -35 8 -8 6 -13 -9 -17 -27 -9 -55 -70 -50 -112
3 -22 0 -34 -8 -34 -28 0 -44 -32 -44 -85 0 -48 -2 -53 -25 -59 -15 -4 -25
-13 -25 -25 0 -10 -13 -32 -29 -48 -23 -24 -30 -43 -36 -93 -12 -100 -23 -55
-14 60 4 58 9 321 11 585 3 474 3 480 -17 482 -11 1 -30 -2 -42 -7z m895 -95
c-3 -3 -9 2 -12 12 -6 14 -5 15 5 6 7 -7 10 -15 7 -18z m-98 -61 c0 -2 -7 -4
-15 -4 -8 0 -15 4 -15 10 0 5 7 7 15 4 8 -4 15 -8 15 -10z"/>
<path d="M1500 2483 c0 -10 13 -34 29 -53 27 -31 31 -33 55 -22 18 8 26 19 26
36 0 31 -34 56 -77 56 -25 0 -33 -4 -33 -17z"/>
</g>
</svg>
