<?xml version="1.0" standalone="no"?>
<!DOCTYPE svg PUBLIC "-//W3C//DTD SVG 20010904//EN"
 "http://www.w3.org/TR/2001/REC-SVG-20010904/DTD/svg10.dtd">
<svg version="1.0" xmlns="http://www.w3.org/2000/svg"
 width="485.000000pt" height="627.000000pt" viewBox="0 0 485.000000 627.000000"
 preserveAspectRatio="xMidYMid meet">
<metadata>
Created by potrace 1.16, written by Peter Selinger 2001-2019
</metadata>
<g transform="translate(0.000000,627.000000) scale(0.100000,-0.100000)"
fill="#000000" stroke="none">
<path d="M490 5032 c0 -20 29 -52 48 -52 6 0 15 -6 19 -14 4 -8 29 -24 56 -35
26 -11 47 -24 47 -30 0 -5 11 -12 25 -15 14 -4 25 -12 25 -19 0 -6 -8 -23 -18
-37 -14 -21 -26 -25 -67 -26 -34 -1 -71 -11 -117 -33 -37 -17 -70 -36 -73 -41
-3 -5 3 -17 14 -27 19 -16 19 -18 4 -35 -9 -10 -26 -17 -37 -17 -18 1 -18 2
-3 6 26 7 19 48 -8 48 -14 0 -20 -6 -19 -20 0 -15 -6 -20 -25 -20 -22 0 -27
-5 -29 -30 -2 -16 -8 -34 -13 -40 -5 -5 -26 -10 -46 -11 -22 0 -41 -8 -49 -19
-16 -22 -18 -71 -4 -80 6 -3 10 -11 10 -18 0 -8 -3 -8 -12 1 -7 7 -22 12 -35
12 -18 0 -23 -6 -23 -24 0 -16 7 -27 20 -31 11 -4 19 -12 18 -18 -1 -7 1 -24
5 -39 4 -17 17 -30 37 -36 20 -7 28 -16 24 -25 -8 -23 24 -47 62 -47 34 0 35
1 33 35 -2 19 2 40 9 47 17 17 15 35 -5 46 -14 9 -14 10 5 16 15 5 22 16 22
32 0 14 -7 27 -16 31 -9 3 -12 9 -7 12 5 3 16 18 25 33 11 17 36 32 68 43 28
9 53 15 56 13 9 -10 -22 -54 -34 -50 -38 12 -59 -68 -23 -88 31 -16 59 -12 66
10 3 11 13 20 20 20 8 0 19 9 25 19 10 19 11 19 40 3 19 -11 32 -13 38 -7 5 6
13 38 16 73 6 55 5 62 -10 62 -10 0 -26 -7 -36 -17 -15 -13 -18 -14 -18 -1 0
8 -15 22 -32 31 -32 16 -32 16 -5 11 24 -6 29 -2 40 25 7 19 18 31 29 31 10 0
18 -6 18 -14 0 -18 22 -26 70 -26 29 0 39 4 43 20 3 11 18 25 34 31 15 6 35
17 43 24 13 12 21 9 58 -22 24 -19 52 -53 63 -75 11 -22 31 -43 47 -49 15 -6
36 -18 47 -28 23 -21 47 -34 161 -90 59 -28 83 -45 88 -62 4 -13 25 -39 49
-57 23 -19 86 -74 139 -123 69 -64 107 -107 130 -150 35 -68 66 -94 98 -84 14
5 20 2 20 -10 0 -8 6 -18 14 -21 7 -3 16 -25 20 -50 7 -55 39 -119 105 -209
28 -38 59 -89 67 -112 9 -24 20 -43 24 -43 4 0 15 -18 25 -40 10 -22 22 -40
27 -40 4 0 8 -9 8 -19 0 -29 11 -51 25 -51 7 0 15 -10 19 -23 3 -13 17 -29 31
-35 19 -9 25 -19 25 -42 0 -20 5 -30 15 -30 10 0 15 -11 15 -35 0 -24 5 -35
15 -35 10 0 14 -10 12 -32 -1 -18 -6 -36 -12 -40 -10 -7 15 -118 47 -205 11
-29 17 -62 13 -73 -4 -13 0 -23 14 -32 18 -11 21 -23 21 -73 0 -38 6 -68 15
-81 8 -10 15 -27 15 -37 0 -11 9 -21 20 -24 11 -3 20 -11 20 -19 0 -7 7 -17
16 -22 15 -8 15 -11 -1 -35 -15 -24 -45 -117 -45 -144 0 -7 11 -15 23 -19 23
-5 24 -7 19 -104 -4 -90 -3 -99 16 -111 17 -11 18 -17 10 -41 -6 -17 -8 -78
-6 -141 5 -110 5 -111 36 -137 18 -15 32 -33 32 -40 0 -9 -4 -8 -14 5 -16 23
-46 14 -46 -14 0 -11 8 -25 18 -30 15 -9 15 -10 -5 -11 -19 0 -23 -5 -23 -35
0 -19 -9 -57 -20 -85 -24 -61 -26 -100 -5 -100 8 0 15 -4 15 -10 0 -5 -4 -10
-10 -10 -13 0 -13 -47 1 -55 7 -5 4 -14 -7 -26 -9 -10 -21 -42 -25 -70 -5 -29
-20 -70 -34 -91 -18 -27 -25 -48 -21 -63 5 -19 1 -25 -24 -34 -37 -13 -39 -38
-4 -66 l27 -21 -32 -21 c-46 -29 -111 -128 -111 -169 0 -20 6 -37 16 -42 13
-7 12 -11 -8 -24 -13 -8 -33 -18 -45 -22 -13 -4 -23 -13 -23 -21 0 -16 -35
-27 -77 -25 -26 1 -35 -4 -47 -29 -12 -22 -24 -31 -48 -33 -23 -2 -36 -10 -45
-28 -6 -13 -22 -32 -35 -41 -17 -14 -20 -21 -12 -29 7 -7 20 -10 30 -8 10 2
32 -9 48 -24 17 -16 34 -28 38 -28 4 0 23 16 42 35 20 19 42 35 51 35 9 0 18
7 21 15 6 15 88 75 138 102 37 20 57 49 63 90 5 37 7 39 34 35 24 -4 29 -9 29
-31 0 -15 3 -30 6 -34 3 -3 7 -29 9 -57 4 -58 13 -90 24 -90 5 0 6 -11 4 -24
-4 -18 0 -26 16 -31 12 -3 21 -11 21 -16 0 -5 6 -9 14 -9 18 0 26 -22 26 -74
0 -29 8 -52 25 -76 14 -19 25 -39 25 -46 0 -17 88 -113 119 -128 14 -7 32 -11
39 -9 7 3 12 -3 12 -14 0 -26 19 -43 49 -43 14 0 51 -5 83 -12 53 -11 59 -10
72 7 14 20 51 23 134 10 23 -4 48 -3 55 3 6 5 50 12 97 16 61 5 93 12 112 26
15 11 39 20 54 20 15 0 32 6 38 14 13 16 123 29 131 15 8 -13 21 -11 37 4 22
22 80 47 110 47 18 0 28 5 28 15 0 12 5 13 24 3 21 -9 29 -7 58 17 18 15 37
36 43 47 5 11 34 29 63 40 28 11 52 25 52 33 0 16 22 25 64 25 18 0 37 5 43
11 7 7 39 13 71 13 37 1 69 8 85 19 15 9 37 17 51 17 15 0 26 7 29 18 4 16 5
16 6 0 0 -10 8 -18 16 -18 21 0 95 31 95 39 0 4 13 6 30 3 37 -5 43 8 44 96 1
65 1 66 34 74 19 5 32 15 32 25 0 14 2 14 20 -2 11 -10 20 -24 20 -30 0 -15
33 -25 49 -15 7 3 17 29 24 56 10 39 18 51 42 62 55 24 60 29 63 58 2 16 8 33
13 39 14 14 11 45 -6 51 -14 6 -13 8 1 19 18 13 12 35 -10 35 -8 0 -19 7 -27
16 -8 10 -22 14 -41 10 -31 -6 -49 11 -21 20 55 18 73 28 73 41 0 7 -10 18
-22 22 -23 9 -23 9 5 20 19 7 27 17 25 29 -4 23 -46 28 -54 7 -6 -14 -14 -9
-44 26 -26 30 -41 41 -53 36 -24 -9 -21 -42 9 -93 14 -24 21 -44 16 -44 -12 0
-52 53 -52 68 0 6 -8 18 -17 28 -10 9 -18 24 -18 33 0 10 -9 16 -25 16 -35 0
-52 -38 -46 -99 6 -53 17 -71 44 -71 22 0 28 -36 8 -47 -9 -5 -16 -17 -16 -27
0 -9 -11 -32 -25 -51 -14 -19 -25 -43 -25 -54 0 -11 10 -30 22 -43 21 -23 21
-23 1 -23 -14 0 -23 8 -27 26 -5 20 -12 25 -32 22 -21 -2 -29 -12 -39 -43 -7
-22 -16 -52 -19 -68 -7 -31 -35 -36 -60 -12 -8 8 -26 15 -40 15 -21 0 -27 -7
-37 -42 -6 -23 -17 -51 -24 -61 -11 -15 -13 -16 -18 -2 -7 16 -47 21 -47 5 0
-5 -11 -12 -25 -16 -14 -3 -25 -9 -25 -13 0 -4 -15 -5 -34 -3 -25 3 -37 -1
-47 -16 -11 -15 -30 -20 -98 -25 -46 -3 -88 -10 -94 -16 -6 -6 -21 -11 -33
-11 -36 0 -54 -11 -54 -32 0 -23 -37 -57 -62 -58 -13 0 -18 -8 -18 -27 -1 -22
-10 -34 -45 -56 -25 -16 -61 -33 -80 -38 -20 -6 -52 -19 -71 -31 -68 -40 -235
-71 -436 -81 -62 -3 -68 -1 -80 21 -19 36 -66 72 -95 72 -31 0 -83 48 -83 77
0 20 -23 53 -38 53 -4 0 -8 25 -9 56 -1 31 -6 61 -12 67 -6 6 -11 25 -11 43 0
27 -5 34 -30 43 -31 10 -41 31 -15 31 19 0 23 34 28 210 3 90 9 155 17 172 10
22 10 31 1 42 -9 11 -10 20 -2 35 6 11 29 93 51 182 24 98 40 186 40 222 0 33
9 85 19 116 11 31 30 101 42 156 13 55 27 102 31 103 5 2 8 18 8 35 0 18 7 54
15 81 8 28 11 54 7 63 -6 9 5 40 30 88 23 44 45 104 53 147 7 40 11 76 9 80
-3 4 4 20 15 35 10 16 33 78 51 138 17 61 45 149 61 197 32 96 36 139 14 162
-13 13 -13 15 6 18 12 2 27 12 33 22 6 11 19 28 29 38 9 10 17 29 17 42 0 13
8 30 17 37 9 8 34 50 55 94 21 44 43 87 47 95 5 8 30 58 55 110 26 52 62 120
82 150 22 34 33 63 31 78 -3 16 1 22 14 22 10 0 29 15 43 33 35 45 69 125 62
144 -5 12 -15 14 -46 9 -54 -9 -52 10 4 35 25 10 47 25 50 32 3 7 7 3 11 -10
9 -28 41 -30 50 -3 3 11 11 20 16 20 5 0 9 23 9 51 0 31 4 48 10 44 17 -11 70
51 78 92 7 33 12 38 37 41 38 5 59 23 102 92 46 72 136 160 164 160 13 0 46
25 85 64 36 35 67 60 70 55 3 -5 0 -9 -5 -9 -6 0 -11 -18 -11 -40 0 -33 3 -40
20 -40 12 0 25 10 32 25 6 14 17 25 25 25 8 0 25 -11 39 -25 14 -14 36 -25 50
-25 31 0 80 24 87 43 5 14 -4 65 -18 100 -9 22 -67 23 -85 2 -12 -14 -15 -14
-30 0 -9 8 -24 15 -34 15 -22 0 -76 -28 -76 -40 0 -5 -12 -5 -29 1 -18 6 -31
19 -33 33 -4 19 -1 21 22 18 18 -3 29 1 33 12 3 8 2 18 -4 22 -6 3 -3 11 7 19
22 16 12 45 -17 45 -17 0 -20 -5 -17 -23 4 -21 1 -23 -25 -19 -28 4 -29 3 -25
-22 4 -20 1 -26 -13 -26 -10 0 -22 -6 -26 -13 -4 -8 -30 -17 -56 -20 -27 -4
-53 -9 -58 -13 -13 -8 -11 -52 4 -57 7 -4 8 -6 1 -6 -7 -1 -19 10 -28 24 -16
24 -56 35 -56 15 0 -5 -5 -10 -10 -10 -6 0 -26 -15 -44 -34 -23 -22 -36 -47
-41 -75 -4 -22 -10 -41 -14 -41 -4 0 -13 -27 -19 -60 -9 -40 -18 -60 -27 -60
-8 0 -15 -8 -15 -17 0 -10 -15 -25 -33 -33 -27 -12 -32 -21 -32 -48 0 -30 -3
-33 -35 -38 -19 -3 -48 -16 -64 -29 -28 -22 -29 -26 -19 -60 11 -35 11 -36
-18 -42 -16 -3 -29 -11 -29 -18 0 -8 -12 -27 -26 -45 -23 -27 -26 -37 -22 -85
5 -54 4 -55 -21 -55 -36 0 -101 -70 -101 -109 0 -16 7 -34 16 -42 14 -12 13
-14 -8 -23 -12 -5 -27 -8 -32 -7 -4 1 -19 -5 -32 -14 -19 -12 -24 -24 -24 -55
0 -22 -5 -40 -10 -40 -11 0 -32 -15 -53 -38 -7 -7 -20 -22 -30 -33 -24 -27
-18 -55 11 -52 38 4 24 -12 -28 -34 -41 -18 -50 -26 -50 -47 0 -14 -5 -37 -12
-51 -9 -21 -9 -31 0 -46 18 -28 15 -48 -10 -59 -13 -6 -43 -25 -68 -44 l-45
-33 0 -76 c0 -47 -5 -81 -12 -88 -18 -18 -16 -84 2 -99 8 -7 15 -18 14 -24 0
-7 -2 -6 -6 2 -5 12 -60 17 -87 6 -10 -4 -16 -18 -16 -39 0 -19 -4 -36 -9 -39
-5 -3 -12 -22 -15 -41 -3 -19 -9 -51 -12 -70 -5 -28 -3 -35 10 -35 9 0 16 -8
16 -17 0 -13 -3 -14 -12 -5 -7 7 -22 12 -35 12 -19 0 -23 -5 -23 -29 0 -17 -6
-31 -15 -35 -12 -4 -14 -17 -9 -62 6 -45 4 -59 -8 -68 -22 -16 -38 -51 -46
-98 -6 -36 -12 -43 -40 -50 -22 -6 -32 -14 -32 -28 0 -27 -18 -25 -22 3 -2 16
-9 22 -26 21 -21 -1 -23 2 -17 32 3 18 12 46 20 61 17 33 20 79 5 88 -7 4 -8
11 -2 18 16 19 24 73 17 109 -5 27 -17 41 -56 67 -27 17 -49 37 -49 44 0 7 5
18 12 25 9 9 9 18 -1 38 -18 40 -38 147 -47 244 -7 89 -24 130 -54 130 -23 0
-45 26 -30 35 5 3 10 24 10 47 0 26 -11 60 -31 96 -17 32 -35 62 -39 67 -5 6
-17 33 -27 60 -11 28 -34 70 -51 94 -18 24 -32 54 -32 65 0 12 -18 43 -40 70
-22 26 -40 52 -40 56 0 5 -7 10 -17 12 -9 2 -22 19 -28 38 -9 26 -19 37 -41
41 -16 4 -23 7 -16 8 20 2 14 54 -12 91 -12 19 -26 52 -30 73 -4 21 -16 47
-27 58 -25 25 -65 25 -79 -1 -6 -12 -21 -20 -35 -20 -23 0 -24 2 -13 25 9 20
8 28 -5 43 -15 17 -15 19 0 35 27 27 3 60 -68 96 -34 17 -67 31 -73 31 -6 0
-12 11 -12 25 -2 27 -45 84 -77 100 -11 5 -29 26 -40 45 -22 39 -45 59 -69 60
-9 0 -20 9 -23 20 -7 22 -43 35 -80 28 -18 -4 -29 1 -40 18 -8 12 -24 25 -35
29 -12 4 -25 18 -30 31 -8 21 -31 30 -63 25 -8 -1 -12 8 -21 50 -3 15 -17 31
-33 39 -16 7 -23 15 -15 17 22 8 13 43 -13 53 -14 5 -25 14 -25 18 0 5 -23 12
-51 16 -43 6 -52 11 -62 36 -7 16 -33 47 -59 69 -32 29 -55 41 -76 41 -17 0
-32 6 -36 15 -3 8 -12 15 -20 15 -8 0 -48 14 -89 30 -49 20 -93 30 -126 30
-43 0 -51 -3 -51 -18z m193 -271 c3 -13 1 -18 -9 -14 -7 2 -10 11 -7 19 7 19
10 18 16 -5z m-333 -295 c0 -3 -4 -8 -10 -11 -5 -3 -10 -1 -10 4 0 6 5 11 10
11 6 0 10 -2 10 -4z m2100 -1838 c0 -6 7 -19 16 -29 19 -22 12 -49 -13 -49
-21 0 -46 50 -37 74 7 18 34 22 34 4z m180 -503 c7 -9 8 -15 2 -15 -5 0 -12 7
-16 15 -3 8 -4 15 -2 15 2 0 9 -7 16 -15z m1990 -1185 c11 -18 -8 -43 -26 -36
-8 3 -20 -4 -27 -15 -13 -17 -15 -18 -21 -4 -3 9 -6 29 -6 44 0 25 3 27 36 26
19 0 39 -7 44 -15z m-306 -285 c-4 -8 1 -17 10 -21 9 -3 16 -14 16 -23 -1 -14
-2 -13 -11 2 -9 15 -18 17 -52 12 -23 -4 -45 -13 -49 -19 -5 -6 -8 -2 -8 11 0
25 40 52 77 53 16 0 21 -4 17 -15z"/>
<path d="M563 4859 c-16 -16 -5 -39 19 -39 14 0 19 6 16 22 -4 25 -19 33 -35
17z"/>
<path d="M4377 4863 c-4 -3 -7 -15 -7 -25 0 -11 7 -18 19 -18 23 0 34 23 18
39 -13 13 -21 14 -30 4z"/>
<path d="M4598 4839 c-11 -6 -18 -22 -18 -39 0 -23 5 -30 28 -35 21 -4 36 -20
59 -59 21 -37 29 -62 26 -80 -4 -21 -1 -28 13 -32 16 -4 19 -12 16 -44 -4 -35
-1 -40 22 -46 32 -8 56 1 56 20 0 7 -12 27 -27 43 l-28 29 30 15 c21 10 31 22
33 42 2 19 -1 27 -12 27 -12 0 -16 10 -16 40 0 36 -4 42 -34 57 -27 12 -34 21
-33 42 2 24 -1 26 -48 28 -27 2 -58 -2 -67 -8z"/>
<path d="M4810 4535 c0 -28 4 -35 20 -35 16 0 20 7 20 35 0 28 -4 35 -20 35
-16 0 -20 -7 -20 -35z"/>
<path d="M4445 4495 c-28 -27 -33 -70 -10 -79 8 -3 15 -16 15 -28 0 -13 11
-54 25 -93 13 -38 25 -78 25 -87 0 -9 4 -19 9 -23 16 -9 92 7 98 21 3 7 -8 39
-23 71 -16 33 -28 79 -30 106 -1 27 -9 56 -18 66 -9 10 -16 30 -16 44 0 22 -5
27 -25 27 -14 0 -37 -11 -50 -25z"/>
<path d="M4711 4412 c-15 -28 -14 -95 1 -110 17 -17 48 -15 48 2 0 8 11 28 25
44 25 30 32 57 17 66 -4 2 -24 7 -44 11 -30 6 -38 4 -47 -13z"/>
<path d="M513 4380 c-19 -8 -23 -17 -23 -54 0 -31 -5 -46 -16 -50 -9 -3 -14
-15 -12 -28 2 -18 19 -28 78 -50 72 -27 144 -36 153 -20 3 4 3 29 0 55 -5 40
-10 50 -35 63 -16 8 -36 30 -43 48 -19 45 -51 56 -102 36z"/>
<path d="M4340 4270 c0 -16 5 -21 23 -18 12 2 22 10 22 18 0 8 -10 16 -22 18
-18 3 -23 -2 -23 -18z"/>
<path d="M4755 4251 c-8 -27 1 -41 26 -41 16 0 20 6 17 27 -4 34 -33 43 -43
14z"/>
<path d="M4180 1342 c0 -15 5 -33 12 -40 14 -14 94 -16 103 -3 3 6 -2 16 -10
23 -9 7 -24 21 -33 31 -9 9 -29 17 -44 17 -24 0 -28 -4 -28 -28z"/>
<path d="M4497 1343 c-4 -3 -7 -15 -7 -25 0 -11 7 -18 19 -18 23 0 34 23 18
39 -13 13 -21 14 -30 4z"/>
<path d="M534 1142 c-6 -4 -14 -17 -18 -29 -6 -19 -2 -23 31 -32 21 -6 41 -11
46 -11 4 0 7 13 7 30 0 19 -7 33 -19 40 -23 12 -32 12 -47 2z"/>
<path d="M448 1124 c-4 -3 -22 -9 -40 -13 -27 -6 -34 -13 -38 -36 -4 -23 -11
-31 -30 -33 -14 -2 -32 -6 -40 -9 -8 -4 -24 -7 -35 -7 -13 -1 -21 -9 -23 -23
-2 -13 1 -23 7 -23 6 0 11 -7 11 -15 0 -8 -4 -15 -10 -15 -5 0 -10 -11 -10
-25 0 -36 34 -33 56 5 20 34 106 95 146 105 34 9 45 22 50 60 2 24 -1 31 -17
33 -12 2 -24 0 -27 -4z"/>
<path d="M104 896 c-8 -21 3 -36 27 -36 15 0 20 6 17 22 -4 27 -35 37 -44 14z"/>
<path d="M177 904 c-4 -4 -7 -16 -7 -26 0 -14 6 -19 23 -16 14 2 22 10 22 23
0 20 -25 32 -38 19z"/>
<path d="M0 775 c0 -18 5 -25 20 -25 15 0 20 7 20 25 0 18 -5 25 -20 25 -15 0
-20 -7 -20 -25z"/>
<path d="M4424 665 c-4 -9 -2 -21 4 -27 15 -15 44 -1 40 19 -4 23 -36 29 -44
8z"/>
<path d="M1684 565 c-11 -17 -22 -24 -34 -20 -10 3 -21 1 -25 -5 -3 -6 -23
-17 -43 -25 -20 -9 -42 -23 -49 -32 -7 -8 -34 -30 -60 -47 -40 -26 -48 -37
-48 -61 0 -25 4 -30 23 -29 95 3 111 6 132 24 13 11 34 20 47 20 13 0 26 7 29
15 4 8 11 15 18 15 21 0 86 61 86 81 0 10 -4 19 -9 19 -5 0 -8 15 -7 33 1 26
-3 33 -21 35 -15 2 -27 -5 -39 -23z"/>
<path d="M202 548 c2 -13 10 -23 18 -23 8 0 16 10 18 23 3 17 -2 22 -18 22
-16 0 -21 -5 -18 -22z"/>
<path d="M1797 553 c-3 -4 -8 -25 -12 -46 -6 -32 -5 -37 12 -37 48 0 72 82 26
88 -11 2 -23 -1 -26 -5z"/>
<path d="M40 495 c0 -14 5 -25 10 -25 6 0 10 -7 10 -15 0 -16 42 -30 65 -21 8
3 15 10 15 15 0 5 -12 23 -26 40 -16 19 -35 31 -50 31 -19 0 -24 -5 -24 -25z"/>
<path d="M170 371 c0 -25 5 -41 15 -45 8 -3 20 -17 25 -31 8 -21 16 -26 38
-23 37 4 42 39 8 62 -18 11 -26 25 -26 46 0 27 -3 30 -30 30 -28 0 -30 -2 -30
-39z"/>
<path d="M57 393 c-4 -3 -7 -19 -7 -35 0 -20 5 -28 18 -28 25 0 42 19 42 47 0
17 -6 23 -23 23 -13 0 -27 -3 -30 -7z"/>
<path d="M1315 383 c-25 -6 -55 -32 -55 -48 0 -7 -9 -23 -19 -36 -19 -23 -19
-24 -40 -5 -18 17 -26 18 -60 8 -21 -7 -44 -19 -51 -27 -7 -8 -29 -15 -49 -15
-82 0 -144 -36 -156 -92 -8 -33 10 -84 31 -92 8 -3 28 -3 45 1 20 4 34 14 40
30 5 13 17 26 26 30 10 3 25 15 34 26 13 16 20 17 36 8 16 -8 24 -7 32 3 6 7
8 22 4 32 -6 18 -6 18 14 2 24 -22 62 -23 69 -3 4 8 13 15 20 15 8 0 17 7 20
15 8 19 102 67 109 55 3 -5 12 -7 20 -3 21 7 20 73 0 73 -9 0 -18 7 -21 15 -6
15 -14 16 -49 8z"/>
<path d="M104 238 c-9 -14 23 -38 42 -31 8 3 14 14 14 24 0 13 -7 19 -24 19
-14 0 -28 -5 -32 -12z"/>
<path d="M450 215 c-7 -8 -10 -27 -7 -42 4 -16 10 -46 14 -68 7 -35 14 -43 63
-67 42 -21 72 -28 125 -30 l70 -3 0 45 c0 31 5 49 18 58 9 7 24 27 33 44 21
40 7 55 -38 42 -31 -9 -33 -13 -33 -52 0 -39 -1 -41 -25 -34 -40 11 -84 6 -94
-11 -9 -14 -13 -13 -37 4 -17 12 -29 32 -34 56 -8 43 -22 73 -34 73 -5 0 -14
-7 -21 -15z"/>
<path d="M276 189 c-14 -11 -26 -29 -26 -39 0 -32 52 -36 64 -5 7 18 44 7 57
-17 13 -24 52 -21 57 4 2 12 -6 21 -22 27 -13 6 -30 19 -36 31 -14 26 -59 26
-94 -1z"/>
<path d="M634 159 c-8 -14 21 -43 35 -35 6 4 11 16 11 27 0 12 -7 19 -19 19
-11 0 -23 -5 -27 -11z"/>
</g>
</svg>
