<?xml version="1.0" standalone="no"?>
<!DOCTYPE svg PUBLIC "-//W3C//DTD SVG 20010904//EN"
 "http://www.w3.org/TR/2001/REC-SVG-20010904/DTD/svg10.dtd">
<svg version="1.0" xmlns="http://www.w3.org/2000/svg"
 width="189.000000pt" height="764.000000pt" viewBox="0 0 189.000000 764.000000"
 preserveAspectRatio="xMidYMid meet">
<metadata>
Created by potrace 1.16, written by Peter Selinger 2001-2019
</metadata>
<g transform="translate(0.000000,764.000000) scale(0.100000,-0.100000)"
fill="#000000" stroke="none">
<path d="M752 3228 c-19 -19 -14 -38 11 -38 42 0 67 12 67 31 0 15 -7 19 -33
19 -18 0 -38 -5 -45 -12z"/>
<path d="M623 3174 c-7 -18 14 -35 34 -27 7 3 13 14 13 24 0 24 -38 26 -47 3z"/>
<path d="M707 3124 c-11 -12 -8 -41 6 -52 18 -16 39 1 35 29 -3 23 -27 37 -41
23z"/>
<path d="M543 2934 c-7 -18 14 -35 34 -27 7 3 13 14 13 24 0 24 -38 26 -47 3z"/>
<path d="M481 2916 c-16 -19 -6 -36 20 -36 15 0 20 6 17 22 -4 27 -21 33 -37
14z"/>
<path d="M1769 2783 c-11 -25 -33 -61 -48 -79 -16 -18 -32 -42 -36 -53 -3 -12
-11 -21 -17 -21 -7 0 -9 -15 -5 -41 7 -53 -6 -89 -33 -89 -16 0 -20 -7 -20
-33 0 -42 21 -73 44 -64 10 4 27 29 39 57 20 45 25 49 48 45 32 -7 52 14 47
51 -2 22 -10 30 -35 36 -29 7 -31 11 -21 27 11 17 12 17 30 -1 11 -11 29 -18
41 -16 17 2 23 11 25 36 2 19 -1 46 -6 60 -6 19 -5 37 4 57 7 17 13 40 14 53
0 17 -6 22 -25 22 -21 0 -29 -9 -46 -47z"/>
<path d="M516 2756 c-4 -18 -11 -23 -25 -19 -26 7 -36 -14 -21 -42 17 -32 5
-74 -25 -85 -26 -10 -33 -34 -15 -45 8 -5 7 -11 -1 -21 -9 -11 -9 -21 -1 -39
16 -34 59 -34 72 0 5 13 20 27 34 31 14 3 30 12 37 20 9 11 8 18 -3 32 -9 9
-24 33 -33 52 -10 19 -22 38 -28 41 -6 4 -5 13 2 25 10 18 10 18 11 1 0 -12 6
-17 18 -15 13 2 17 13 17 43 0 29 -4 41 -16 43 -11 2 -19 -6 -23 -22z"/>
<path d="M1841 2721 c-21 -14 -5 -41 24 -41 22 0 26 4 23 22 -3 25 -25 33 -47
19z"/>
<path d="M521 2513 c-5 -11 -6 -25 -1 -33 10 -17 -15 -39 -46 -40 -12 0 -27
-6 -33 -13 -6 -8 -29 -19 -51 -26 -31 -9 -44 -9 -60 1 -17 11 -22 10 -30 -2
-5 -8 -10 -35 -10 -60 0 -26 -5 -51 -12 -58 -8 -8 -9 -18 -1 -35 7 -14 7 -29
2 -39 -5 -9 -6 -23 -3 -32 8 -20 48 -21 64 -1 7 8 25 15 41 15 24 0 29 -4 29
-24 0 -21 -6 -25 -32 -28 -30 -3 -33 -6 -31 -33 2 -29 1 -29 -14 8 -14 32 -20
38 -42 35 -20 -2 -27 -9 -29 -30 -2 -17 4 -33 18 -46 l21 -20 -25 -6 c-21 -5
-26 -13 -26 -36 0 -16 4 -32 10 -35 5 -3 7 -19 4 -34 -5 -23 -2 -30 15 -36 18
-5 19 -10 10 -26 -10 -19 -12 -19 -23 -4 -7 10 -18 14 -29 9 -19 -7 -23 -29
-7 -39 6 -4 5 -13 -3 -26 -10 -16 -9 -21 3 -30 8 -5 31 -7 50 -5 19 3 28 2 19
0 -10 -3 -19 -14 -22 -26 -9 -32 9 -65 42 -76 23 -8 31 -17 30 -34 -1 -13 3
-50 9 -83 5 -33 7 -75 4 -94 l-5 -34 47 6 c42 6 46 5 46 -14 0 -17 5 -20 25
-16 24 4 25 3 9 -14 -9 -10 -13 -23 -9 -28 9 -16 36 -13 50 5 10 14 15 15 36
4 13 -7 28 -19 32 -26 11 -19 30 -17 58 5 16 12 34 17 52 14 21 -4 33 1 56 26
16 17 39 31 50 31 12 0 33 11 46 24 15 15 27 20 33 14 5 -5 20 -8 33 -6 18 2
24 9 23 26 -1 19 3 22 25 17 30 -6 40 0 64 38 10 15 24 27 32 27 8 0 15 13 17
32 2 25 9 34 28 38 20 5 27 15 36 49 9 39 15 46 55 62 29 11 57 16 82 12 l38
-6 -3 49 -3 49 -45 -3 c-34 -3 -51 -10 -72 -33 -15 -16 -36 -29 -47 -29 -12 0
-21 -4 -21 -9 0 -5 -9 -13 -20 -16 -12 -4 -23 -18 -27 -35 -5 -26 -7 -27 -20
-15 -8 8 -16 15 -18 15 -2 0 -23 -16 -46 -36 -24 -20 -49 -50 -56 -66 -7 -16
-22 -32 -33 -35 -15 -4 -20 -14 -20 -37 0 -18 -7 -41 -15 -52 -14 -18 -15 -18
-27 14 -12 32 -15 33 -53 28 -74 -12 -170 -37 -197 -52 -20 -11 -33 -12 -47
-5 -20 11 -93 146 -106 196 -4 17 -8 44 -9 60 -1 29 -3 30 -46 31 -25 1 -48 2
-52 2 -4 1 3 12 15 25 16 17 26 20 38 13 9 -5 24 -6 34 -2 15 5 17 14 12 56
-4 33 -1 62 9 85 11 26 12 41 4 55 -6 11 -16 20 -23 20 -7 0 -1 6 13 13 27 14
39 55 20 67 -9 5 -6 10 9 15 28 9 38 51 17 74 -20 22 -20 30 0 52 19 22 12 49
-13 49 -10 0 -29 -9 -43 -20 -27 -21 -56 -25 -79 -11 -9 6 -10 11 -2 15 6 4
11 16 11 27 0 12 7 19 19 19 11 0 23 5 26 10 3 6 19 10 35 10 19 0 33 7 40 20
6 11 19 20 29 20 23 0 43 23 40 47 -1 10 1 26 5 35 17 39 -13 77 -33 41z"/>
<path d="M384 2485 c-4 -9 -2 -21 4 -27 15 -15 44 -1 40 19 -4 23 -36 29 -44
8z"/>
<path d="M1752 2438 c-17 -17 -15 -45 3 -52 27 -10 46 5 43 33 -3 28 -27 38
-46 19z"/>
<path d="M1699 2349 c-8 -11 -33 -24 -59 -30 -52 -12 -90 -34 -90 -53 0 -7 10
-25 21 -40 16 -20 28 -26 44 -22 15 4 28 -1 40 -14 33 -37 54 -21 69 52 3 15
15 30 26 33 28 9 27 59 -2 79 -12 9 -25 16 -29 16 -4 0 -13 -9 -20 -21z"/>
<path d="M1742 2168 c2 -15 10 -23 23 -23 30 0 27 39 -3 43 -20 3 -23 0 -20
-20z"/>
<path d="M1516 2127 c-27 -20 -16 -50 22 -61 42 -12 96 3 101 29 4 25 -25 45
-69 45 -20 0 -44 -6 -54 -13z"/>
<path d="M1787 2123 c-4 -3 -7 -15 -7 -25 0 -23 38 -25 47 -2 8 21 -24 43 -40
27z"/>
<path d="M1607 2054 c-34 -18 -32 -46 3 -54 25 -6 25 -6 3 -12 -13 -3 -23 -13
-23 -22 0 -9 -5 -16 -11 -16 -18 0 -3 -82 17 -97 10 -7 12 -13 6 -13 -15 0
-52 -59 -52 -82 0 -10 9 -27 19 -37 20 -20 20 -20 -2 -23 -19 -3 -22 -9 -21
-42 1 -28 8 -45 24 -58 28 -23 49 -23 56 0 3 9 12 31 19 49 13 29 13 33 -2 41
-13 8 -11 10 11 16 20 5 26 13 26 32 0 17 -7 28 -19 31 -14 3 -20 16 -23 44
-3 33 1 42 19 55 13 8 23 21 23 29 0 8 -9 29 -20 47 -11 18 -20 36 -20 41 0
17 30 5 49 -20 l21 -28 18 22 c11 12 32 23 48 25 23 2 30 8 32 31 3 27 2 27
-51 27 -36 0 -59 5 -67 15 -16 19 -47 19 -83 -1z"/>
<path d="M1504 2045 c-4 -9 -2 -21 4 -27 15 -15 44 -1 40 19 -4 23 -36 29 -44
8z"/>
<path d="M1383 1970 c-27 -11 -43 -40 -43 -80 0 -38 26 -51 49 -24 10 11 25
18 40 16 42 -6 50 39 13 81 -17 19 -26 20 -59 7z"/>
<path d="M1667 1854 c-4 -4 -7 -18 -7 -31 0 -20 5 -24 23 -21 16 2 22 10 22
28 0 24 -23 39 -38 24z"/>
<path d="M1210 1731 c0 -27 19 -36 37 -18 18 18 9 37 -18 37 -12 0 -19 -7 -19
-19z"/>
<path d="M1713 1654 c-7 -18 14 -35 37 -31 8 1 16 12 18 25 3 18 -1 22 -23 22
-14 0 -28 -7 -32 -16z"/>
<path d="M873 1643 c-7 -3 -13 -13 -13 -24 0 -14 7 -19 25 -19 18 0 25 5 25
19 0 20 -17 31 -37 24z"/>
<path d="M1514 1515 c-7 -27 9 -55 32 -55 7 0 18 9 24 20 8 14 8 26 0 40 -15
29 -48 26 -56 -5z"/>
<path d="M1590 1505 c-16 -43 -12 -65 11 -65 26 0 79 31 79 46 0 16 -20 30
-53 38 -23 5 -29 3 -37 -19z"/>
<path d="M1688 1464 c-45 -23 -47 -26 -54 -80 -4 -37 -14 -65 -30 -82 -20 -23
-25 -25 -34 -12 -7 12 -13 13 -27 4 -13 -8 -18 -25 -19 -60 -4 -179 -3 -174
-27 -197 -13 -12 -29 -36 -36 -54 -7 -18 -19 -38 -27 -44 -19 -16 -18 -59 1
-59 12 0 13 -4 5 -19 -5 -11 -10 -31 -10 -45 0 -14 -9 -35 -19 -45 -25 -25
-51 -111 -51 -167 0 -24 -4 -46 -10 -49 -5 -3 -10 -14 -10 -24 0 -10 -11 -26
-25 -35 -30 -20 -33 -61 -6 -75 10 -6 21 -21 25 -35 5 -20 15 -26 63 -34 32
-5 61 -8 66 -5 4 2 7 31 7 63 0 49 3 61 20 70 25 13 26 36 3 49 -16 9 -16 10
4 11 30 0 46 31 33 65 -12 31 -13 95 -2 111 4 6 15 13 25 17 15 6 18 16 15 64
-3 53 -5 58 -25 56 -13 -2 -23 0 -23 2 0 3 20 14 45 25 32 14 45 25 45 40 0
13 -7 20 -20 20 -10 0 -24 8 -29 19 -8 14 -6 23 9 36 11 10 20 23 20 29 0 6 5
27 10 46 10 35 11 36 62 35 l53 0 8 64 c4 36 17 82 29 102 23 42 19 78 -12
109 -11 11 -20 24 -20 29 0 6 9 16 21 25 21 14 23 47 4 52 -5 1 -31 -9 -57
-22z"/>
<path d="M372 1408 c3 -25 25 -33 47 -19 21 14 5 41 -24 41 -22 0 -26 -4 -23
-22z"/>
<path d="M1367 1263 c-27 -14 -51 -31 -54 -39 -7 -20 15 -44 41 -44 12 0 31 6
41 14 17 12 21 12 31 -1 9 -14 14 -14 40 -2 35 17 53 61 35 83 -14 17 -41 11
-41 -10 0 -8 -4 -14 -10 -14 -5 0 -10 6 -10 14 0 24 -23 24 -73 -1z"/>
<path d="M1180 1185 c-25 -7 -67 -16 -93 -20 -29 -4 -55 -14 -65 -26 -9 -10
-24 -19 -34 -19 -9 0 -29 -5 -45 -11 -15 -7 -39 -11 -53 -10 -14 1 -47 -10
-74 -24 -27 -14 -57 -25 -67 -25 -28 0 -49 -11 -49 -26 0 -8 -7 -14 -15 -14
-8 0 -22 -8 -32 -19 -11 -11 -39 -22 -70 -26 -42 -5 -52 -11 -57 -29 -7 -27
-54 -52 -70 -36 -15 15 -52 12 -66 -5 -7 -8 -16 -13 -20 -10 -15 9 -40 -7 -40
-27 0 -26 -59 -78 -89 -78 -15 0 -39 -16 -65 -42 -22 -24 -50 -48 -61 -54 -10
-6 -20 -22 -20 -35 -2 -33 -26 -69 -47 -69 -41 0 -32 -52 14 -76 28 -14 29
-17 14 -33 -9 -10 -16 -26 -16 -36 0 -10 -9 -33 -21 -52 l-21 -34 23 -23 c13
-13 31 -34 40 -47 9 -13 20 -19 27 -15 7 4 12 29 12 56 0 65 14 98 42 102 27
4 35 31 18 64 -20 36 -5 71 41 94 22 12 42 27 45 35 3 8 14 17 25 20 10 4 19
15 19 25 0 11 9 24 19 30 11 5 23 19 26 30 5 15 12 19 31 14 13 -3 38 -1 55 6
24 10 29 18 25 33 -4 18 -1 17 20 -7 22 -23 31 -26 57 -21 37 8 77 31 77 45 0
13 30 40 45 40 8 0 12 -6 9 -13 -6 -17 21 -41 37 -32 6 4 9 18 6 31 -4 22 -1
24 34 24 22 0 39 4 39 9 0 4 11 6 25 3 20 -3 25 0 25 17 0 18 6 21 38 21 31 0
41 5 50 25 8 18 26 29 69 41 32 9 67 23 78 29 11 7 39 16 63 20 24 4 51 15 60
25 21 22 99 63 132 70 18 4 26 13 28 31 3 22 -4 30 -38 48 -46 24 -76 25 -140
6z m-440 -270 c0 -5 -5 -3 -10 5 -5 8 -10 20 -10 25 0 6 5 3 10 -5 5 -8 10
-19 10 -25z"/>
<path d="M1631 1081 c-7 -5 -11 -21 -9 -37 2 -21 8 -29 23 -29 14 0 21 8 23
26 3 29 -17 52 -37 40z"/>
<path d="M1582 768 c4 -30 43 -33 43 -3 0 13 -8 21 -23 23 -20 3 -23 0 -20
-20z"/>
<path d="M2 408 c2 -13 10 -23 18 -23 8 0 16 10 18 23 3 17 -2 22 -18 22 -16
0 -21 -5 -18 -22z"/>
<path d="M1224 369 c-16 -17 -48 -44 -72 -61 -24 -16 -47 -41 -52 -54 -7 -17
-17 -24 -37 -24 -36 0 -104 -19 -122 -33 -7 -6 -28 -10 -47 -8 -19 1 -34 -2
-34 -8 0 -6 -11 -13 -25 -17 -18 -4 -26 -15 -31 -38 -8 -48 -1 -87 18 -99 13
-9 23 -4 49 24 31 34 32 34 40 12 5 -14 17 -23 29 -23 17 0 20 6 20 45 l0 45
48 0 c26 0 53 5 58 10 6 6 51 15 100 21 129 15 134 17 134 38 0 10 7 32 15 47
32 61 8 154 -39 154 -12 0 -35 -14 -52 -31z m49 -79 c-3 -11 -8 -22 -12 -24
-4 -3 -22 -1 -41 4 -29 7 -31 8 -9 9 14 1 34 8 45 16 10 8 20 15 21 15 0 0 -1
-9 -4 -20z"/>
<path d="M177 383 c-4 -3 -7 -16 -7 -27 0 -12 -7 -32 -16 -44 -11 -16 -14 -34
-10 -56 6 -30 12 -35 51 -45 24 -6 47 -15 50 -21 3 -5 24 -10 46 -10 38 0 71
-20 80 -49 3 -9 20 -10 57 -5 48 6 52 8 52 34 0 25 -7 30 -85 61 -47 18 -85
36 -85 41 0 4 -5 8 -10 8 -21 0 -70 44 -70 63 0 40 -33 71 -53 50z"/>
<path d="M633 154 c-7 -3 -13 -11 -13 -17 0 -6 -7 -19 -16 -29 -14 -15 -15
-20 -3 -34 7 -9 12 -30 10 -46 -2 -26 0 -29 21 -26 18 2 23 9 21 29 -1 26 0
27 78 67 4 1 9 -7 12 -18 4 -14 12 -21 24 -18 14 3 18 13 18 48 l0 45 -70 2
c-38 1 -76 -1 -82 -3z"/>
<path d="M304 125 c-4 -9 -2 -21 4 -27 15 -15 44 -1 40 19 -4 23 -36 29 -44 8z"/>
<path d="M692 43 c2 -20 8 -28 23 -28 15 0 20 7 20 25 0 19 -6 26 -23 28 -20
3 -23 0 -20 -25z"/>
</g>
</svg>
