<?xml version="1.0" standalone="no"?>
<!DOCTYPE svg PUBLIC "-//W3C//DTD SVG 20010904//EN"
 "http://www.w3.org/TR/2001/REC-SVG-20010904/DTD/svg10.dtd">
<svg version="1.0" xmlns="http://www.w3.org/2000/svg"
 width="428.000000pt" height="627.000000pt" viewBox="0 0 428.000000 627.000000"
 preserveAspectRatio="xMidYMid meet">
<metadata>
Created by potrace 1.16, written by Peter Selinger 2001-2019
</metadata>
<g transform="translate(0.000000,627.000000) scale(0.100000,-0.100000)"
fill="#000000" stroke="none">
<path d="M2050 3487 c-28 -10 -37 -21 -53 -62 -20 -56 -32 -214 -43 -590 -12
-378 -12 -389 1 -405 7 -8 15 -30 19 -47 3 -18 9 -46 12 -63 5 -22 2 -31 -10
-36 -21 -8 -22 -86 0 -118 10 -16 12 -26 5 -31 -14 -8 -14 -48 -1 -61 7 -7 8
-19 1 -37 -6 -14 -7 -49 -4 -76 3 -29 -2 -99 -12 -165 -9 -63 -15 -122 -13
-132 2 -11 -2 -23 -9 -29 -7 -5 -21 -44 -32 -85 -11 -41 -29 -97 -40 -123 -12
-27 -21 -55 -21 -64 0 -8 -7 -22 -16 -30 -11 -11 -14 -26 -9 -50 4 -24 2 -33
-8 -33 -8 0 -45 -65 -86 -152 -139 -294 -176 -363 -212 -408 -19 -25 -49 -65
-65 -90 -16 -25 -32 -46 -36 -48 -5 -2 -8 -9 -8 -17 0 -7 -7 -18 -15 -25 -8
-7 -15 -21 -15 -31 0 -11 -6 -19 -14 -19 -7 0 -22 -12 -32 -27 -31 -49 -107
-124 -149 -148 -22 -13 -73 -33 -114 -46 -61 -18 -87 -21 -150 -15 -42 4 -93
9 -113 12 -32 5 -37 3 -41 -18 -3 -17 -5 -14 -6 11 -1 28 -11 44 -62 89 -34
31 -125 135 -202 232 -133 166 -184 239 -299 428 -69 114 -94 142 -130 142
-29 0 -30 -1 -26 -42 3 -27 -1 -51 -10 -66 -14 -21 -13 -39 4 -106 4 -19 2
-26 -9 -26 -31 0 -37 -64 -7 -80 16 -8 20 -21 20 -60 0 -43 3 -50 19 -50 25 0
51 37 51 72 0 15 5 39 12 53 10 22 13 23 27 11 9 -8 25 -16 36 -18 16 -2 21
-12 23 -46 2 -26 9 -45 18 -49 8 -3 21 -29 29 -58 16 -53 51 -95 132 -155 22
-16 33 -32 33 -49 1 -36 16 -59 85 -133 67 -72 105 -123 105 -142 0 -20 27
-27 40 -11 10 12 16 12 43 -2 29 -15 32 -15 49 7 l18 22 0 -40 c0 -33 6 -45
35 -71 30 -26 44 -31 85 -31 28 0 59 6 70 12 16 10 24 10 40 0 27 -16 40 -15
56 5 10 15 24 17 77 15 57 -3 66 -1 71 15 8 25 81 73 110 73 30 0 66 27 66 51
0 13 11 25 34 34 19 8 37 23 41 34 3 10 16 22 28 25 13 3 35 28 55 60 18 30
53 72 78 94 39 33 46 45 46 76 0 24 5 36 14 36 24 0 54 38 54 68 0 15 5 33 10
38 8 8 8 19 0 38 -5 15 -8 32 -4 37 3 5 21 9 40 9 27 0 34 4 34 19 0 10 -10
26 -22 35 -23 15 -23 16 6 6 16 -6 37 -8 47 -5 22 7 37 71 22 94 -6 9 -22 17
-37 19 -14 2 -26 8 -26 13 0 5 -10 9 -21 9 -18 0 -19 2 -9 15 7 8 19 15 26 15
8 0 14 4 14 8 0 4 12 24 26 43 l26 34 -7 -47 c-4 -26 -4 -59 -1 -74 5 -20 12
-25 34 -22 21 2 28 9 32 33 3 17 16 52 29 78 13 28 25 77 28 117 3 39 10 70
14 70 5 0 9 -3 9 -7 0 -5 4 -45 10 -90 9 -85 32 -153 50 -153 11 0 25 29 34
73 4 15 11 27 16 27 15 0 11 -63 -5 -84 -11 -14 -15 -46 -15 -107 0 -52 4 -91
11 -94 6 -5 3 -13 -10 -22 -25 -17 -27 -50 -6 -73 9 -10 18 -52 24 -104 5 -48
14 -93 20 -99 6 -6 11 -19 11 -29 0 -10 7 -21 15 -24 8 -3 17 -14 20 -24 3
-11 14 -22 24 -25 13 -4 16 -13 13 -34 -3 -24 0 -30 26 -39 17 -6 39 -19 50
-30 33 -33 198 -62 262 -45 30 8 35 14 38 41 3 34 30 56 56 46 9 -3 32 -3 51
0 31 6 35 11 35 37 0 17 6 32 15 35 8 4 15 12 15 19 0 7 11 20 23 28 13 9 30
29 37 46 9 22 19 31 36 31 17 0 24 6 24 18 0 10 22 42 49 71 26 28 56 71 65
94 10 23 24 55 32 70 16 33 18 57 4 57 -5 0 -10 5 -10 10 0 6 7 10 15 10 10 0
16 17 21 61 7 61 23 89 51 89 12 0 14 7 9 34 -5 27 -2 40 19 64 19 22 25 41
25 75 0 25 -5 49 -10 52 -6 4 -5 12 4 21 8 7 22 37 31 66 10 29 24 60 32 69 8
9 18 33 24 52 5 19 18 46 29 59 l19 23 1 -28 c0 -15 7 -30 15 -33 21 -8 33
-61 45 -195 10 -118 30 -206 56 -247 10 -16 18 -72 24 -179 7 -132 12 -160 29
-184 11 -15 23 -40 27 -55 4 -16 13 -38 20 -49 8 -11 14 -46 14 -80 0 -65 26
-152 60 -197 11 -15 23 -42 26 -60 8 -42 30 -78 48 -78 9 0 12 -7 9 -19 -3
-14 4 -25 24 -37 15 -10 38 -27 50 -38 13 -10 31 -20 42 -21 11 -1 27 -7 36
-15 13 -11 25 -11 66 -1 27 7 61 10 75 7 39 -10 103 11 116 39 12 26 60 50 95
46 18 -1 30 10 52 46 16 26 39 63 51 82 11 19 20 43 18 55 -4 29 -43 34 -58 7
-16 -30 -73 -56 -198 -90 l-111 -29 -45 48 c-25 27 -46 57 -46 68 0 10 -18 56
-41 102 -22 47 -54 120 -70 162 -17 43 -38 82 -47 88 -10 5 -12 10 -4 10 20 0
14 27 -18 84 -27 47 -29 55 -15 66 17 14 20 51 6 78 -17 32 -41 137 -51 220
-5 45 -14 91 -20 102 -5 10 -10 32 -10 48 0 17 -6 32 -15 36 -12 4 -14 18 -9
74 6 63 -8 191 -24 216 -9 15 -9 97 0 102 17 10 7 54 -18 84 l-27 31 24 25
c20 22 22 27 10 46 -8 14 -13 51 -12 105 1 49 -3 83 -9 83 -6 0 -7 27 -4 73 4
40 2 89 -4 109 -6 23 -7 40 -1 44 5 3 9 20 9 39 0 18 7 40 15 49 8 8 15 19 15
24 0 18 -81 113 -105 124 -21 9 -22 13 -9 25 16 16 19 69 4 78 -6 4 -1 18 12
36 16 21 22 44 22 84 1 30 4 55 9 55 4 0 7 33 7 74 0 53 4 77 15 86 8 7 15 23
15 37 0 13 -7 26 -15 29 -20 8 -19 61 1 99 12 22 17 68 21 177 5 160 -2 192
-40 186 -17 -2 -23 -11 -25 -35 -2 -18 -9 -33 -15 -33 -7 0 -32 16 -56 35 -48
38 -75 44 -85 18 -4 -9 -12 -107 -18 -217 -8 -153 -8 -218 1 -272 9 -52 9 -84
1 -119 -12 -53 -15 -372 -4 -502 4 -46 11 -86 16 -89 13 -8 55 22 63 46 3 11
11 20 16 20 14 0 11 -37 -8 -112 -14 -53 -22 -68 -38 -70 -19 -3 -20 -10 -22
-128 0 -69 -4 -143 -8 -165 -5 -30 -1 -58 16 -105 12 -36 21 -74 21 -85 -1
-11 3 -32 9 -47 6 -15 8 -35 5 -45 -6 -14 -9 -13 -23 8 -9 13 -23 30 -31 36
-9 7 -16 29 -16 50 -1 27 -5 38 -16 38 -11 0 -15 -11 -15 -38 0 -26 -5 -39
-17 -43 -10 -3 -22 -23 -28 -47 -6 -23 -17 -60 -25 -82 -8 -23 -15 -47 -15
-55 0 -9 -9 -32 -20 -53 -11 -21 -30 -78 -41 -127 -11 -49 -27 -94 -35 -101
-8 -6 -14 -16 -14 -21 0 -15 -93 -228 -146 -336 -25 -51 -66 -119 -90 -151
-24 -32 -84 -97 -133 -143 -70 -67 -99 -88 -134 -97 -25 -6 -59 -11 -75 -11
-23 0 -35 9 -56 41 -15 22 -42 47 -60 54 -31 13 -34 19 -38 66 -3 29 -12 57
-20 63 -10 8 -13 24 -10 52 2 24 -5 69 -16 108 -11 36 -16 66 -11 66 10 0 12
73 3 83 -4 4 -6 42 -5 84 1 43 -2 92 -7 108 -7 25 -14 30 -38 30 -23 0 -30 -5
-32 -24 l-4 -23 -14 21 c-9 12 -24 21 -34 21 -10 0 -21 4 -25 9 -7 13 14 25
45 25 18 1 26 7 28 23 2 15 10 23 23 23 30 0 34 27 10 74 -11 24 -21 46 -21
50 0 5 -10 16 -22 27 l-23 18 43 1 c48 0 54 14 22 58 -18 25 -19 33 -8 135 9
83 9 113 0 127 -7 12 -8 21 -2 25 12 8 13 305 1 357 -7 30 -5 46 10 75 20 38
26 113 10 113 -6 0 -5 15 1 36 11 41 3 101 -14 106 -7 3 -5 14 6 35 18 36 21
83 6 83 -16 0 -11 92 6 125 12 22 14 45 10 90 -3 33 -15 77 -25 98 -16 31 -17
45 -9 68 6 17 8 47 4 67 -3 21 1 61 9 92 11 42 13 86 8 183 -4 88 -10 130 -18
134 -10 3 -10 11 1 32 21 43 9 61 -40 60 -22 0 -57 -5 -76 -12z m1307 -1013
c-7 -7 -37 7 -37 17 0 5 7 9 15 9 8 0 16 6 16 13 1 6 4 1 6 -11 3 -13 3 -26 0
-28z m-1427 -1145 c0 -6 -4 -7 -10 -4 -5 3 -10 11 -10 16 0 6 5 7 10 4 6 -3
10 -11 10 -16z"/>
<path d="M143 784 c-7 -18 14 -35 37 -31 8 1 16 12 18 25 3 18 -1 22 -23 22
-14 0 -28 -7 -32 -16z"/>
</g>
</svg>
