<?xml version="1.0" standalone="no"?>
<!DOCTYPE svg PUBLIC "-//W3C//DTD SVG 20010904//EN"
 "http://www.w3.org/TR/2001/REC-SVG-20010904/DTD/svg10.dtd">
<svg version="1.0" xmlns="http://www.w3.org/2000/svg"
 width="217.000000pt" height="627.000000pt" viewBox="0 0 217.000000 627.000000"
 preserveAspectRatio="xMidYMid meet">
<metadata>
Created by potrace 1.16, written by Peter Selinger 2001-2019
</metadata>
<g transform="translate(0.000000,627.000000) scale(0.100000,-0.100000)"
fill="#000000" stroke="none">
<path d="M1154 4507 c-3 -8 -18 -11 -44 -9 -55 6 -61 -16 -19 -68 24 -29 30
-45 24 -54 -6 -7 -29 -37 -52 -66 -27 -32 -43 -62 -43 -79 0 -15 -5 -32 -11
-38 -6 -6 -19 -52 -29 -101 -10 -50 -26 -106 -35 -126 -10 -20 -15 -47 -13
-61 3 -14 -5 -55 -18 -92 -13 -37 -26 -93 -30 -126 -4 -35 -12 -61 -20 -64 -8
-3 -14 -19 -14 -35 0 -16 -9 -41 -20 -55 -22 -29 -27 -93 -7 -93 6 -1 0 -8
-16 -16 -20 -11 -27 -22 -26 -42 1 -15 -6 -47 -16 -72 -9 -25 -25 -79 -35
-121 -9 -41 -27 -103 -39 -137 -16 -47 -19 -68 -11 -82 8 -14 5 -27 -11 -55
-13 -22 -20 -46 -17 -65 3 -21 0 -30 -12 -33 -13 -3 -19 -22 -25 -73 -4 -38
-9 -96 -11 -130 -2 -37 -13 -81 -28 -114 -27 -57 -22 -80 15 -80 30 0 22 -18
-8 -22 -25 -3 -29 -9 -39 -53 -6 -27 -18 -68 -28 -89 -10 -22 -20 -55 -23 -73
-4 -24 -1 -34 11 -39 9 -3 16 -10 16 -14 0 -4 -11 -19 -25 -34 -19 -20 -23
-31 -16 -45 6 -10 6 -23 0 -32 -5 -7 -8 -33 -7 -56 1 -24 -3 -48 -10 -55 -18
-18 -15 -58 5 -58 14 0 13 -3 -5 -23 -12 -13 -25 -38 -28 -57 -4 -19 -13 -44
-20 -55 -7 -11 -16 -37 -20 -58 -3 -21 -13 -41 -20 -44 -10 -4 -14 -25 -14
-74 0 -39 -4 -69 -10 -69 -5 0 -10 -9 -10 -19 0 -10 -7 -22 -15 -25 -12 -4
-13 -10 -6 -24 6 -12 5 -30 -2 -55 -7 -20 -15 -37 -19 -37 -11 0 -28 -63 -32
-119 -2 -29 -9 -57 -16 -61 -8 -5 -11 -24 -9 -54 3 -37 1 -46 -12 -46 -13 0
-17 -10 -17 -50 0 -27 4 -50 9 -50 5 0 9 -4 9 -9 0 -5 -13 -12 -30 -16 -16 -4
-33 -11 -36 -16 -11 -19 -6 -74 10 -104 l16 -30 -30 -3 c-27 -3 -30 -7 -30
-37 0 -19 -5 -37 -11 -40 -6 -4 -10 -36 -9 -73 1 -75 -3 -108 -13 -118 -4 -4
-7 -16 -7 -26 0 -11 -7 -18 -20 -18 -28 0 -25 -31 5 -60 25 -24 25 -24 5 -32
-11 -4 -20 -16 -20 -27 0 -11 -5 -23 -11 -26 -6 -4 -8 -22 -4 -45 6 -33 4 -39
-14 -45 -26 -8 -28 -50 -4 -64 11 -7 13 -11 5 -11 -8 0 -12 -9 -10 -22 2 -15
13 -24 36 -30 22 -6 32 -15 32 -28 0 -28 18 -34 45 -16 24 16 25 15 25 -4 0
-13 7 -20 19 -20 11 0 23 5 26 10 3 6 17 10 30 10 18 0 26 7 31 24 3 14 3 30
-1 35 -3 6 -19 11 -35 11 -15 0 -35 3 -43 6 -12 4 -13 12 -4 41 9 27 9 37 0
40 -8 3 -8 16 3 46 7 23 20 85 28 137 13 86 36 183 81 340 8 30 15 68 15 86 0
17 3 52 6 78 5 36 11 46 25 46 12 0 19 7 19 20 0 11 -3 20 -7 20 -5 0 -14 4
-22 9 -11 7 -10 13 4 35 9 14 15 32 12 41 -4 8 -2 17 4 20 5 4 21 29 35 56 34
68 57 89 99 89 19 0 81 9 137 20 77 15 106 25 116 39 14 20 14 20 50 1 48 -26
113 -26 136 -1 22 24 34 91 16 91 -10 0 -10 3 -1 14 7 8 11 32 9 53 -3 35 -5
38 -33 38 -23 0 -31 -5 -33 -22 -2 -12 4 -33 14 -47 13 -20 13 -26 3 -26 -8 1
-25 7 -39 14 -20 12 -24 21 -22 50 4 36 3 36 -36 36 -46 0 -61 -20 -39 -54 9
-14 11 -29 6 -43 -7 -20 -13 -22 -58 -16 -45 5 -53 3 -69 -17 -20 -24 -42 -20
-42 7 0 13 -8 15 -41 10 -31 -4 -48 -14 -69 -39 -15 -18 -31 -30 -34 -27 -4 3
-2 19 4 35 14 36 18 138 7 181 -8 29 -6 33 18 39 14 3 29 14 34 23 16 30 23
118 12 140 -10 17 -7 23 17 41 27 20 30 28 36 106 3 46 15 108 26 136 11 29
25 91 31 138 6 47 15 94 19 105 5 11 11 49 14 85 8 103 42 270 65 329 13 33
21 72 20 100 -1 26 9 83 24 134 15 48 33 124 42 170 9 45 23 111 32 146 11 45
13 66 5 69 -6 2 -4 10 7 21 31 31 63 131 68 211 4 54 11 81 24 95 27 30 45 89
79 253 17 79 33 149 36 154 6 10 12 35 53 212 12 49 23 92 26 94 11 12 37 -28
74 -114 21 -49 44 -115 52 -148 7 -32 18 -60 25 -63 7 -2 10 -11 7 -19 -3 -8
0 -20 6 -28 6 -7 16 -51 22 -96 5 -46 12 -87 15 -91 2 -4 9 -31 14 -60 6 -29
18 -64 27 -78 12 -19 17 -51 19 -111 2 -92 55 -372 74 -395 7 -8 24 -15 37
-15 22 0 25 4 21 25 -3 14 -1 28 3 31 5 3 9 20 9 38 0 20 8 40 20 51 18 16 20
31 20 157 0 123 -2 140 -19 157 -17 17 -18 21 -5 32 22 18 17 38 -12 49 -14 6
-22 14 -19 20 3 6 2 25 -4 43 -6 17 -13 71 -17 119 -5 74 -9 88 -25 93 -17 6
-17 8 -4 21 21 22 19 62 -5 76 -14 9 -20 24 -20 52 0 22 -7 47 -16 57 -11 12
-16 35 -16 64 1 26 -3 45 -9 45 -7 0 -9 10 -5 24 4 16 0 30 -11 41 -9 10 -19
33 -22 54 -6 32 -10 37 -41 41 -29 4 -36 10 -38 33 -3 24 -7 27 -41 27 -22 0
-44 6 -51 15 -7 8 -22 16 -34 16 -17 1 -17 2 -3 6 25 6 22 43 -3 43 -11 0 -23
-6 -26 -13z m-1069 -4356 c-3 -6 -11 -11 -17 -11 -6 0 -6 6 2 15 14 17 26 13
15 -4z"/>
<path d="M1620 3260 c0 -15 7 -20 25 -20 18 0 25 5 25 20 0 15 -7 20 -25 20
-18 0 -25 -5 -25 -20z"/>
<path d="M1022 3258 c-7 -7 -12 -29 -12 -49 0 -21 -6 -44 -14 -51 -7 -8 -14
-33 -14 -55 0 -23 -8 -65 -16 -94 -17 -55 -11 -73 19 -67 21 4 27 13 54 101
13 43 18 74 13 84 -6 9 -2 28 10 51 10 20 18 49 18 64 0 23 -4 28 -23 28 -13
0 -28 -5 -35 -12z"/>
<path d="M1634 3213 c-3 -10 -10 -28 -15 -41 -5 -13 -9 -34 -9 -48 0 -14 -6
-40 -13 -57 -20 -46 -34 -94 -47 -160 -11 -55 -10 -60 8 -73 18 -12 20 -22 15
-69 -4 -41 -2 -61 11 -79 9 -14 16 -34 16 -45 0 -11 9 -40 20 -65 11 -27 15
-48 10 -51 -17 -10 -11 -74 8 -93 13 -13 17 -29 14 -64 -3 -36 0 -50 17 -67
11 -11 16 -23 11 -26 -17 -10 -11 -24 20 -52 23 -20 30 -35 30 -65 0 -27 6
-41 19 -50 19 -11 18 -13 -11 -30 -25 -16 -29 -23 -24 -46 4 -15 12 -39 17
-54 12 -29 18 -31 132 -43 52 -6 57 -5 57 14 0 11 -5 23 -10 26 -6 4 -8 15 -5
25 3 11 -1 33 -10 50 -12 24 -15 45 -9 86 5 46 4 54 -10 54 -20 0 -21 16 -1
24 19 7 19 47 0 116 -9 30 -22 88 -29 128 -9 49 -22 82 -37 98 -12 13 -17 24
-11 24 7 0 12 10 12 23 0 31 -56 299 -80 382 -12 41 -20 99 -20 142 0 52 -4
76 -16 87 -21 21 -53 20 -60 -1z"/>
<path d="M946 2891 c-9 -16 -16 -41 -16 -56 0 -18 5 -25 18 -25 27 0 63 42 65
76 2 25 -2 29 -25 32 -21 3 -30 -3 -42 -27z"/>
<path d="M906 2743 c-3 -32 -11 -96 -17 -143 -6 -47 -13 -109 -16 -138 -3 -29
-9 -55 -14 -58 -5 -3 -9 -14 -9 -25 0 -13 7 -19 24 -19 13 0 28 6 34 13 24 29
73 373 59 410 -4 10 -17 17 -31 17 -23 0 -25 -5 -30 -57z"/>
<path d="M856 2322 c-9 -11 -18 -32 -19 -48 -2 -23 3 -30 20 -32 14 -2 27 5
38 22 33 50 0 100 -39 58z"/>
<path d="M826 2213 c-10 -36 -26 -138 -26 -169 0 -19 -6 -34 -15 -38 -20 -7
-19 -55 1 -63 10 -4 22 1 29 10 7 10 17 17 23 17 6 0 13 12 16 28 7 34 26 191
26 214 0 24 -47 25 -54 1z"/>
<path d="M1824 1901 c-29 -13 -54 -50 -54 -81 0 -14 9 -40 20 -57 13 -23 27
-33 44 -33 13 0 29 -6 35 -14 9 -11 6 -17 -14 -30 -14 -9 -25 -26 -25 -37 0
-11 12 -31 26 -44 14 -13 23 -28 21 -32 -3 -5 -2 -15 3 -23 6 -10 4 -20 -6
-31 -13 -15 -14 -36 -8 -134 6 -104 10 -120 31 -146 14 -16 31 -29 38 -29 7 0
16 13 20 30 9 42 -5 142 -23 163 -14 15 -14 17 0 17 9 0 32 20 52 44 33 40 35
47 25 73 -7 15 -11 62 -10 103 1 41 -3 81 -8 89 -5 8 -18 12 -30 8 -17 -4 -21
-1 -21 18 0 12 9 33 19 47 25 31 34 69 22 87 -11 18 -125 26 -157 12z m21 -81
c3 -5 17 -10 31 -10 13 0 24 -4 24 -10 0 -17 -30 -11 -57 10 -14 11 -21 20
-15 20 6 0 14 -4 17 -10z"/>
<path d="M1063 1463 c-3 -7 -2 -20 1 -29 4 -11 13 -14 31 -10 18 5 25 2 25 -9
0 -10 -10 -15 -30 -15 -19 0 -30 -5 -30 -14 0 -7 -7 -19 -15 -26 -8 -7 -15
-21 -15 -31 0 -11 -4 -19 -10 -19 -18 0 -11 -39 9 -50 26 -13 51 -12 81 3 18
10 31 11 48 3 16 -7 32 -6 53 1 16 6 29 7 29 2 0 -19 31 -8 67 24 21 19 46 37
56 40 11 4 17 14 15 24 -3 15 -13 17 -62 15 l-58 -4 22 30 c32 43 21 62 -34
62 -25 0 -48 4 -51 10 -9 15 -126 9 -132 -7z"/>
<path d="M657 1414 c-4 -4 -7 -16 -7 -26 0 -14 6 -19 23 -16 14 2 22 10 22 23
0 20 -25 32 -38 19z"/>
<path d="M2050 1396 c0 -16 -7 -27 -21 -31 -17 -6 -20 -12 -15 -38 3 -17 13
-38 21 -47 21 -23 19 -45 -6 -61 -17 -12 -19 -20 -13 -57 5 -32 13 -46 33 -57
l26 -13 -28 -7 c-24 -6 -28 -12 -24 -31 2 -13 0 -24 -5 -24 -5 0 -8 -10 -6
-22 2 -17 9 -23 27 -22 22 1 23 0 6 -13 -11 -7 -22 -13 -27 -13 -4 0 -8 -16
-8 -35 0 -27 4 -35 18 -35 9 0 24 4 32 10 9 6 19 5 29 -3 12 -10 8 -13 -20
-17 -31 -5 -35 -9 -43 -47 -5 -23 -6 -48 -3 -56 3 -9 21 -18 39 -23 l33 -7
-40 -11 -40 -12 -3 -63 -3 -64 26 5 c16 4 24 1 22 -6 -2 -6 -20 -10 -40 -8
-34 3 -37 1 -37 -22 0 -13 5 -28 11 -31 5 -4 8 -19 4 -34 -3 -14 -1 -64 4
-111 6 -57 14 -88 25 -96 20 -14 20 -24 1 -24 -11 0 -15 -11 -15 -35 0 -43 25
-95 45 -95 7 0 23 12 34 26 24 30 38 111 23 126 -8 8 -6 18 6 36 11 16 17 54
20 113 3 49 8 89 13 89 17 0 9 45 -11 58 -11 7 -20 19 -20 27 0 8 12 25 26 39
22 19 25 30 20 53 -4 15 -7 64 -7 108 1 67 -4 89 -26 133 -22 44 -25 57 -15
73 7 10 12 53 12 94 0 68 -2 75 -20 75 -11 0 -20 5 -20 10 0 6 9 10 19 10 25
0 34 26 17 53 -7 12 -16 46 -19 76 -4 29 -12 59 -18 67 -18 22 -39 17 -39 -10z"/>
<path d="M1490 1356 c0 -24 16 -36 51 -36 29 0 24 38 -7 50 -37 15 -44 13 -44
-14z"/>
<path d="M561 816 c-6 -7 -12 -26 -13 -42 -1 -16 -5 -31 -9 -34 -4 -3 -12 -46
-17 -95 -5 -50 -18 -120 -28 -158 -15 -54 -16 -71 -7 -87 8 -12 9 -21 3 -25
-6 -3 -10 -38 -10 -76 0 -53 4 -71 15 -75 23 -9 43 13 50 56 5 27 2 49 -8 69
-14 28 -14 31 3 36 10 3 23 20 29 38 19 60 60 310 61 370 0 34 -2 37 -29 37
-16 0 -34 -6 -40 -14z"/>
<path d="M7 54 c-13 -13 -7 -42 9 -48 9 -3 27 -6 40 -6 22 0 25 4 22 28 -2 22
-9 28 -33 30 -17 2 -34 0 -38 -4z"/>
</g>
</svg>
