<?xml version="1.0" standalone="no"?>
<!DOCTYPE svg PUBLIC "-//W3C//DTD SVG 20010904//EN"
 "http://www.w3.org/TR/2001/REC-SVG-20010904/DTD/svg10.dtd">
<svg version="1.0" xmlns="http://www.w3.org/2000/svg"
 width="206.000000pt" height="764.000000pt" viewBox="0 0 206.000000 764.000000"
 preserveAspectRatio="xMidYMid meet">
<metadata>
Created by potrace 1.16, written by Peter Selinger 2001-2019
</metadata>
<g transform="translate(0.000000,764.000000) scale(0.100000,-0.100000)"
fill="#000000" stroke="none">
<path d="M757 4385 c-46 -43 -55 -72 -56 -180 0 -55 -5 -125 -11 -155 -6 -30
-14 -83 -19 -116 -5 -39 -19 -76 -35 -100 -14 -21 -26 -44 -26 -52 0 -7 -12
-31 -27 -53 -18 -27 -28 -58 -31 -95 -3 -38 -1 -54 8 -54 6 0 -2 -14 -19 -31
-43 -43 -41 -65 9 -80 44 -13 44 -29 -1 -29 l-29 0 0 -69 c0 -38 -7 -97 -16
-131 -11 -43 -13 -70 -6 -88 5 -17 5 -38 0 -55 -7 -19 -6 -32 1 -41 9 -11 3
-23 -24 -56 -19 -23 -35 -48 -35 -55 0 -8 5 -26 10 -41 9 -22 8 -29 -5 -36
-20 -12 -20 -58 1 -58 11 0 14 -5 9 -17 -4 -10 -8 -45 -10 -79 -3 -61 -24
-126 -44 -138 -18 -12 -13 -54 9 -66 24 -13 26 -30 5 -30 -8 0 -15 -9 -15 -20
0 -12 7 -20 18 -20 16 -1 16 -1 0 -11 -10 -5 -18 -20 -18 -33 0 -13 -7 -29
-15 -36 -19 -16 -19 -40 -1 -65 12 -17 12 -23 -6 -48 -12 -17 -18 -36 -15 -49
3 -12 -1 -34 -9 -49 -16 -32 -19 -99 -3 -99 5 0 3 -10 -5 -22 -9 -12 -16 -26
-16 -30 0 -5 11 -13 25 -18 14 -5 25 -17 25 -27 0 -14 -2 -15 -9 -5 -5 8 -17
12 -27 10 -19 -3 -22 -13 -44 -133 -6 -33 -17 -80 -25 -105 -24 -78 -35 -160
-35 -268 0 -98 -15 -184 -41 -235 -5 -9 -14 -51 -20 -93 -6 -41 -19 -103 -30
-136 -10 -33 -19 -70 -19 -82 0 -12 -4 -26 -9 -31 -5 -6 -11 -30 -14 -55 -8
-67 -25 -153 -47 -233 -52 -195 -75 -407 -50 -472 23 -59 67 4 58 82 -3 22 0
33 8 33 7 0 16 -5 19 -10 3 -6 15 -10 26 -10 10 0 19 -4 19 -10 0 -5 -9 -10
-19 -10 -22 0 -32 -20 -25 -48 3 -10 -2 -26 -10 -35 -17 -17 -22 -57 -7 -57 5
0 11 -10 13 -22 3 -21 9 -23 65 -26 70 -3 61 -15 83 118 6 36 18 75 26 88 8
12 12 27 8 33 -4 6 -8 84 -9 173 -2 88 -6 173 -10 188 -6 23 -3 28 19 34 29 7
34 31 11 48 -17 13 -10 56 10 56 15 0 28 27 19 41 -3 5 -12 9 -20 9 -20 0 -18
13 6 33 15 13 20 29 20 68 0 40 5 58 24 80 16 19 27 48 31 82 4 29 5 64 3 78
-2 19 2 25 20 27 21 3 22 7 16 52 -6 42 -4 50 15 62 22 13 29 48 10 48 -5 0
-7 5 -3 12 4 7 10 28 14 47 4 31 11 38 48 51 28 11 48 27 60 47 9 17 32 57 50
90 18 32 39 69 47 83 8 14 16 36 19 50 3 14 20 44 38 68 25 32 39 42 61 42 25
0 28 3 24 21 -8 29 22 74 80 121 26 22 51 49 55 59 9 23 31 25 52 4 8 -8 28
-15 45 -15 24 0 31 4 31 20 0 11 -4 20 -10 20 -5 0 -10 4 -10 10 0 11 65 30
105 30 21 0 26 -3 16 -9 -23 -14 -4 -46 72 -118 40 -38 82 -81 94 -96 19 -23
31 -27 72 -27 42 0 49 -3 55 -22 3 -13 6 -36 6 -52 0 -20 12 -40 39 -67 31
-31 46 -39 77 -40 22 0 33 -3 27 -6 -39 -15 15 -93 63 -93 15 0 25 -3 21 -6
-3 -4 0 -19 8 -34 14 -26 68 -60 97 -60 8 0 20 -17 26 -38 13 -44 46 -82 70
-82 14 0 15 -2 2 -10 -11 -7 -15 -36 -16 -132 -1 -68 -6 -177 -13 -243 -10
-103 -17 -130 -46 -191 -22 -46 -53 -88 -88 -121 -29 -28 -61 -62 -70 -77 -14
-20 -23 -25 -42 -20 -15 4 -38 -2 -62 -14 -38 -19 -77 -37 -143 -65 -30 -13
-227 -53 -350 -71 -19 -3 -114 -6 -210 -8 -195 -4 -223 -11 -218 -56 3 -29 -1
-28 173 -47 45 -5 55 -9 42 -16 -9 -6 -17 -21 -17 -35 0 -21 4 -25 23 -22 15
2 22 10 21 23 0 17 5 20 28 17 16 -2 34 1 42 7 18 15 75 2 87 -20 7 -14 21
-19 53 -19 27 0 48 6 56 15 7 8 21 15 31 15 12 0 23 10 29 25 14 37 37 42 61
11 25 -31 64 -35 72 -6 3 12 14 20 26 20 12 0 21 6 21 15 0 12 4 13 19 5 30
-16 59 -12 78 10 10 11 25 20 35 20 9 0 23 8 30 19 7 10 23 21 35 25 12 4 25
17 29 29 9 29 22 37 64 37 29 0 43 9 93 62 33 34 71 79 84 100 14 21 31 38 38
38 20 0 46 36 52 74 4 27 2 36 -8 36 -8 1 1 7 19 15 20 9 32 21 32 34 0 11 -8
22 -17 24 -10 3 -1 5 20 6 31 1 37 4 37 24 0 12 -7 31 -15 41 -8 11 -15 26
-15 33 0 7 14 26 30 43 25 26 30 39 30 80 0 28 -4 50 -10 50 -5 0 -12 16 -16
37 -5 28 -3 39 10 48 11 9 19 34 23 79 4 45 2 66 -5 66 -6 0 -12 24 -14 57 -2
45 -7 59 -20 61 -10 2 -31 17 -49 33 -17 16 -39 29 -50 29 -10 0 -23 -9 -29
-20 -6 -11 -15 -20 -20 -20 -15 0 -12 27 5 44 21 20 19 43 -5 56 -11 6 -20 19
-20 29 0 26 -23 42 -70 48 -22 3 -40 10 -40 14 0 5 5 9 10 9 18 0 10 39 -11
50 -15 9 -24 8 -34 0 -12 -10 -21 -7 -46 14 -17 14 -34 26 -39 26 -4 0 -11 11
-14 25 -3 13 -19 31 -34 39 -15 8 -45 33 -67 55 -24 25 -48 41 -62 41 -13 0
-26 7 -29 15 -4 9 -19 15 -38 16 -17 0 -25 3 -18 6 18 7 15 37 -6 56 -10 9
-39 26 -65 37 -26 12 -48 26 -49 33 0 7 -2 17 -3 22 -2 6 -3 16 -4 23 0 6 -6
12 -13 12 -6 0 -22 10 -35 22 -21 19 -28 21 -54 11 -17 -7 -53 -9 -84 -6 -38
4 -66 1 -97 -12 -52 -20 -78 -42 -78 -66 0 -17 -3 -17 -35 -3 -70 29 -125 13
-125 -37 0 -22 6 -32 20 -36 18 -5 17 -9 -16 -47 -20 -23 -33 -48 -31 -58 3
-11 -2 -18 -17 -20 -17 -2 -20 -9 -18 -33 1 -17 -7 -49 -20 -73 -18 -34 -28
-42 -50 -42 -23 0 -28 -4 -28 -24 0 -13 3 -26 8 -29 4 -2 1 -2 -7 0 -7 2 -20
-2 -27 -8 -11 -9 -14 -7 -14 13 0 13 11 34 25 46 13 12 28 34 31 48 5 21 2 31
-12 43 -17 14 -19 24 -14 81 4 36 12 77 18 93 6 15 16 78 22 140 6 61 16 126
21 143 5 17 9 48 9 70 0 21 5 57 11 79 6 22 13 50 16 62 3 12 -2 36 -11 55
-16 31 -16 34 4 60 11 15 20 33 20 40 0 8 -7 23 -15 35 -14 21 -14 24 5 43 15
15 20 33 20 76 0 30 -5 64 -11 75 -8 15 -7 26 4 43 14 21 23 78 31 196 6 94
23 185 40 218 9 18 27 85 41 150 29 145 104 475 144 642 35 140 39 209 15 245
-14 22 -23 25 -78 25 -52 0 -65 -4 -89 -25z m-287 -2885 c-18 -34 -23 -16 -9
31 12 39 14 41 17 17 2 -15 -2 -37 -8 -48z m1485 -300 c3 -5 1 -10 -4 -10 -6
0 -11 5 -11 10 0 6 2 10 4 10 3 0 8 -4 11 -10z m42 -132 c-3 -8 -6 -5 -6 6 -1
11 2 17 5 13 3 -3 4 -12 1 -19z"/>
<path d="M1355 2092 c-11 -11 -4 -50 10 -62 8 -7 24 -10 35 -7 16 4 20 0 20
-18 0 -15 8 -26 21 -30 12 -4 25 -3 31 3 16 16 4 47 -19 50 -19 3 -21 6 -11
22 7 11 9 22 6 26 -10 9 -86 22 -93 16z"/>
<path d="M629 1991 c-6 -17 -15 -31 -20 -31 -5 0 -9 -9 -9 -20 0 -15 7 -20 25
-20 15 0 25 6 25 15 0 8 9 19 21 25 27 15 22 54 -9 58 -18 3 -25 -3 -33 -27z"/>
<path d="M1575 1870 c-9 -15 4 -30 26 -30 12 0 19 7 19 20 0 13 -7 20 -19 20
-11 0 -23 -4 -26 -10z"/>
<path d="M496 335 c-8 -23 4 -45 25 -45 14 0 19 7 19 30 0 23 -5 30 -19 30
-10 0 -21 -7 -25 -15z"/>
<path d="M575 270 c-9 -15 4 -30 26 -30 12 0 19 7 19 20 0 13 -7 20 -19 20
-11 0 -23 -4 -26 -10z"/>
</g>
</svg>
