<?xml version="1.0" standalone="no"?>
<!DOCTYPE svg PUBLIC "-//W3C//DTD SVG 20010904//EN"
 "http://www.w3.org/TR/2001/REC-SVG-20010904/DTD/svg10.dtd">
<svg version="1.0" xmlns="http://www.w3.org/2000/svg"
 width="245.000000pt" height="764.000000pt" viewBox="0 0 245.000000 764.000000"
 preserveAspectRatio="xMidYMid meet">
<metadata>
Created by potrace 1.16, written by Peter Selinger 2001-2019
</metadata>
<g transform="translate(0.000000,764.000000) scale(0.100000,-0.100000)"
fill="#000000" stroke="none">
<path d="M470 5138 c-5 -13 -16 -81 -25 -153 -8 -71 -22 -184 -31 -250 -9 -66
-14 -147 -11 -180 4 -36 -2 -117 -14 -200 -10 -77 -22 -223 -25 -325 -4 -114
-12 -204 -20 -235 -11 -36 -16 -129 -19 -341 -3 -160 -9 -315 -15 -344 -13
-67 -13 -126 0 -150 7 -13 6 -21 -4 -29 -11 -9 -13 -35 -11 -109 2 -53 0 -124
-5 -157 -11 -67 -25 -208 -34 -332 -5 -69 -4 -83 8 -83 13 0 13 -3 0 -27 -18
-36 -18 -78 1 -97 13 -13 13 -15 -5 -21 -30 -10 -42 -40 -32 -79 6 -19 6 -39
1 -47 -5 -8 -9 -32 -9 -54 0 -23 -4 -45 -9 -50 -5 -6 -11 -58 -13 -116 -2 -59
-8 -113 -15 -120 -6 -8 -13 -36 -16 -64 -3 -27 -13 -79 -22 -115 -13 -50 -16
-91 -12 -177 4 -115 -9 -229 -32 -272 -8 -14 -11 -40 -8 -62 3 -26 -1 -47 -14
-68 -24 -39 -24 -57 -1 -70 15 -9 15 -10 1 -11 -13 0 -18 -14 -24 -57 -4 -32
-8 -80 -10 -108 -5 -60 -10 -89 -24 -135 -6 -19 -11 -64 -11 -99 0 -49 4 -67
17 -76 17 -13 17 -14 0 -32 -19 -22 -24 -102 -7 -133 7 -13 6 -21 -5 -30 -19
-16 -20 -59 -1 -66 8 -3 11 -15 8 -29 -3 -19 1 -25 22 -31 30 -7 84 14 91 37
3 9 14 19 25 22 11 3 24 17 30 32 15 40 12 147 -5 172 -13 19 -13 21 7 26 19
5 20 11 15 64 -7 65 9 256 23 283 5 9 14 65 20 124 6 59 15 117 19 129 5 12
14 72 20 132 7 61 26 177 42 259 20 98 34 200 39 300 5 83 12 169 17 191 7 36
12 40 41 43 39 4 51 26 28 51 -9 10 -16 26 -16 37 0 11 -5 25 -10 32 -7 9 -7
9 2 2 7 -6 20 -10 31 -10 13 0 18 6 15 23 -2 16 -9 22 -25 21 -13 0 -23 5 -23
13 0 7 -4 13 -10 13 -5 0 -10 6 -10 14 0 10 9 14 27 13 19 -1 28 3 31 16 2 12
-4 20 -18 24 l-21 6 22 23 c18 19 20 27 11 53 -9 25 -7 32 9 47 10 9 19 27 19
39 0 28 27 40 46 21 8 -8 23 -17 33 -21 11 -3 21 -16 23 -28 2 -12 12 -23 23
-26 11 -2 26 -12 33 -22 7 -11 22 -19 32 -19 10 0 31 -16 46 -36 29 -38 118
-100 158 -110 17 -4 22 -11 19 -25 -3 -11 1 -21 11 -25 9 -3 16 -13 16 -20 0
-26 59 -131 100 -179 22 -25 40 -50 40 -55 0 -4 9 -19 20 -32 11 -12 48 -72
83 -133 60 -106 93 -140 123 -128 8 3 14 11 14 19 0 8 5 14 11 14 7 0 9 30 6
98 -7 121 -15 162 -37 187 -9 11 -20 31 -23 45 -4 14 -31 53 -60 85 -30 33
-59 70 -66 83 -6 12 -18 22 -25 22 -8 0 -17 11 -20 25 -4 14 -14 25 -24 26
-10 0 -12 3 -5 6 25 10 12 48 -30 88 -63 61 -112 83 -175 79 -65 -4 -87 11
-60 38 18 18 19 18 45 -1 14 -12 29 -18 34 -15 13 8 11 48 -3 62 -16 16 -55
15 -61 0 -4 -10 -6 -10 -6 0 -1 7 -17 12 -43 12 l-43 1 33 14 c23 10 32 20 30
32 -5 25 -48 44 -85 39 -18 -3 -33 -1 -33 5 0 5 -26 9 -57 10 -41 1 -50 3 -33
8 29 8 39 40 18 55 -9 6 -15 22 -14 36 1 24 -2 25 -67 28 -64 3 -68 4 -65 25
2 13 9 21 18 19 69 -17 79 -15 114 20 25 25 37 48 46 93 9 41 9 69 2 91 -10
33 -10 33 27 36 33 3 36 5 34 33 -1 17 1 51 3 76 4 37 11 49 30 58 13 6 24 19
24 28 0 10 10 38 22 63 38 80 41 88 34 120 -5 28 -1 36 34 69 32 30 40 44 40
73 0 24 5 38 16 42 11 4 14 13 10 30 -4 18 -1 25 15 29 15 4 20 11 15 22 -4
11 2 24 19 37 14 11 25 25 25 32 0 7 13 33 30 57 21 31 30 56 30 85 0 28 5 44
15 48 9 3 27 30 40 60 13 29 31 56 39 59 9 4 16 17 16 30 0 16 9 28 26 35 17
8 35 34 56 79 17 37 36 72 42 78 7 5 45 53 83 105 138 185 304 340 440 409 50
25 66 26 82 7 9 -11 9 -19 0 -34 -7 -11 -19 -17 -30 -15 -21 6 -59 -30 -59
-56 0 -14 -6 -17 -26 -13 -22 4 -25 2 -22 -19 2 -18 9 -24 26 -23 31 1 27 -21
-8 -46 -36 -25 -42 -70 -10 -70 11 0 27 -11 36 -25 9 -14 23 -25 30 -25 23 0
17 -48 -7 -61 -17 -9 -31 -8 -60 1 -22 7 -39 17 -39 22 0 20 -39 5 -69 -26
-29 -29 -34 -44 -40 -100 -4 -36 -12 -71 -19 -78 -7 -7 -12 -20 -12 -30 0 -12
-8 -18 -24 -18 -38 0 -56 -10 -56 -31 0 -11 7 -30 16 -44 8 -13 14 -29 13 -37
-6 -50 31 -52 63 -4 13 18 41 58 64 87 22 30 43 62 47 72 4 11 -1 25 -13 37
-13 13 -16 22 -8 26 6 4 17 -1 24 -11 15 -21 52 -15 76 12 54 62 101 103 117
103 24 0 43 23 45 53 0 16 6 23 16 20 8 -1 29 9 45 22 29 25 29 26 11 40 -11
8 -28 15 -38 15 -10 0 -18 5 -18 10 0 6 -13 10 -30 10 -23 0 -30 -4 -30 -20 0
-13 -7 -20 -20 -20 -11 0 -23 7 -27 16 -9 24 22 80 57 101 19 11 34 29 37 46
5 22 8 25 20 15 8 -6 20 -26 28 -45 15 -37 43 -44 69 -17 29 28 17 65 -32 94
-15 9 -15 11 -2 22 8 7 23 26 33 41 10 15 28 32 40 36 29 11 77 57 77 72 0 7
12 25 26 40 15 15 32 38 38 51 6 13 21 27 33 33 36 16 41 55 8 55 -32 0 -123
-67 -206 -151 -52 -53 -95 -89 -107 -89 -11 0 -22 -5 -24 -12 -3 -7 -7 -6 -11
5 -4 11 -1 17 8 17 22 0 18 37 -5 60 -27 27 -25 38 4 33 32 -6 66 13 66 37 0
15 -7 20 -28 20 -15 0 -37 -7 -49 -15 -21 -15 -22 -15 -16 20 5 33 4 35 -21
35 -14 0 -26 5 -26 11 0 5 20 19 45 30 25 11 45 27 45 35 0 8 16 24 36 36 19
11 43 37 52 57 13 26 33 44 76 67 62 32 110 78 103 98 -2 6 -22 10 -43 10 -26
-1 -60 -14 -103 -40 -35 -21 -70 -49 -78 -61 -9 -13 -21 -23 -29 -23 -7 0 -18
-8 -23 -19 -6 -10 -42 -50 -80 -87 -81 -80 -90 -88 -112 -96 -12 -5 -16 -20
-17 -62 0 -36 -6 -61 -15 -71 -9 -9 -33 -15 -58 -15 l-42 0 5 -38 c5 -37 5
-38 -22 -34 -22 3 -28 -1 -34 -21 -4 -19 -19 -29 -65 -46 -44 -16 -60 -27 -65
-44 -3 -13 -24 -38 -46 -56 -22 -17 -40 -38 -40 -46 0 -7 -20 -31 -45 -53 -25
-22 -45 -46 -45 -54 0 -7 -7 -24 -16 -36 -8 -12 -22 -44 -30 -72 -8 -27 -19
-50 -24 -50 -6 0 -10 -6 -10 -13 0 -23 -84 -125 -107 -131 -13 -4 -23 -13 -23
-20 0 -8 -12 -24 -26 -35 -19 -15 -28 -33 -31 -66 -5 -36 -12 -50 -39 -70 -25
-19 -34 -34 -34 -56 0 -34 -12 -61 -46 -102 -13 -16 -24 -37 -24 -47 0 -9 -6
-23 -14 -29 -8 -7 -17 -25 -21 -40 -3 -15 -19 -37 -34 -49 -36 -26 -46 -76
-27 -131 12 -35 12 -41 0 -41 -8 0 -14 -5 -14 -11 0 -6 -16 -29 -35 -50 -19
-22 -35 -44 -35 -49 0 -6 11 -10 25 -10 14 0 25 -4 25 -9 0 -6 -16 -7 -35 -4
l-36 6 3 -62 c3 -51 1 -61 -13 -61 -32 0 -42 -27 -36 -98 4 -37 3 -73 -2 -80
-7 -11 -9 -11 -14 2 -4 9 -15 16 -26 16 -20 0 -31 -18 -31 -54 0 -12 -7 -32
-16 -44 -8 -12 -14 -32 -12 -45 2 -16 11 -23 31 -25 15 -2 25 -7 22 -12 -3 -5
-1 -19 4 -33 8 -21 7 -26 -12 -31 -42 -11 -75 -7 -79 12 -5 20 6 541 22 952
12 346 25 550 45 750 8 80 19 235 25 345 6 110 17 225 25 255 9 33 12 77 9
115 -9 107 -8 105 -64 105 -43 0 -52 -3 -60 -22z m1340 -428 c0 -5 -4 -10 -10
-10 -5 0 -10 5 -10 10 0 6 5 10 10 10 6 0 10 -4 10 -10z m103 -474 c3 -8 -1
-17 -9 -20 -9 -4 -14 1 -14 14 0 23 15 27 23 6z m-623 -90 c0 -3 -4 -8 -10
-11 -5 -3 -10 -1 -10 4 0 6 5 11 10 11 6 0 10 -2 10 -4z"/>
<path d="M803 5043 c-7 -2 -13 -12 -13 -21 1 -30 39 -102 54 -102 21 0 36 31
36 73 0 30 -4 37 -31 46 -18 6 -32 11 -33 10 -1 0 -7 -3 -13 -6z"/>
<path d="M2397 4903 c-10 -10 -8 -41 3 -48 6 -3 19 -3 30 0 13 4 20 15 20 31
0 18 -5 24 -23 24 -13 0 -27 -3 -30 -7z"/>
<path d="M2332 4768 c3 -25 25 -33 47 -19 21 14 5 41 -24 41 -22 0 -26 -4 -23
-22z"/>
<path d="M784 4725 c-4 -9 -2 -21 4 -27 15 -15 44 -1 40 19 -4 23 -36 29 -44
8z"/>
<path d="M766 4649 c-3 -17 -6 -44 -6 -60 0 -24 4 -29 25 -29 14 0 25 5 25 10
0 6 11 8 25 4 18 -4 27 -1 31 10 3 9 2 22 -4 29 -6 6 -12 23 -14 37 -2 21 -9
26 -39 28 -34 3 -37 1 -43 -29z"/>
<path d="M2124 4574 c-13 -19 -14 -28 -6 -36 8 -8 20 -9 39 -2 20 7 29 17 31
37 3 23 0 27 -22 27 -16 0 -32 -9 -42 -26z"/>
<path d="M747 4544 c-4 -4 -7 -20 -7 -36 0 -25 3 -28 33 -28 17 0 42 3 55 6
18 5 22 13 20 33 -3 23 -8 26 -48 29 -25 2 -49 0 -53 -4z"/>
<path d="M2080 4515 c-16 -19 -4 -35 25 -35 13 0 27 5 30 10 8 13 -13 40 -30
40 -7 0 -18 -7 -25 -15z"/>
<path d="M755 4458 c-2 -7 -6 -42 -7 -77 -3 -56 0 -66 17 -75 14 -8 19 -19 17
-38 -3 -25 0 -28 27 -28 24 0 31 4 31 19 0 10 -7 24 -15 31 -11 9 -13 16 -5
24 5 5 10 29 10 53 0 30 -5 45 -15 49 -8 4 -15 17 -15 30 0 17 -6 24 -20 24
-11 0 -23 -6 -25 -12z"/>
<path d="M1410 3811 c0 -27 19 -36 37 -18 18 18 9 37 -18 37 -12 0 -19 -7 -19
-19z"/>
<path d="M1480 3725 c-17 -21 -5 -45 24 -45 27 0 42 26 25 46 -15 18 -33 18
-49 -1z"/>
<path d="M1387 1503 c-4 -3 -7 -13 -7 -20 0 -8 -7 -21 -15 -29 -8 -9 -15 -28
-15 -44 0 -16 -5 -32 -11 -36 -8 -4 -10 -32 -7 -81 4 -64 12 -87 53 -166 26
-51 54 -99 61 -108 8 -8 14 -22 14 -30 0 -8 16 -52 36 -99 19 -47 47 -123 62
-170 26 -81 27 -94 25 -275 -1 -104 -3 -210 -5 -234 -3 -41 -1 -45 25 -54 21
-7 32 -5 45 6 9 8 29 17 43 21 15 3 41 22 58 41 23 26 31 45 31 73 0 21 6 46
14 57 33 48 37 268 7 387 -11 42 -31 101 -45 131 -15 30 -26 63 -26 75 0 12
-9 26 -20 32 -14 8 -20 21 -20 46 0 26 -8 42 -29 62 -15 15 -31 40 -35 55 -4
16 -18 39 -31 51 -16 15 -25 34 -25 54 0 18 -10 43 -25 60 -14 17 -25 42 -25
57 0 15 -9 38 -20 52 -11 14 -20 33 -20 43 0 9 -8 24 -18 33 -19 17 -63 23
-75 10z"/>
<path d="M1034 1255 c-4 -9 -2 -21 4 -27 15 -15 44 -1 40 19 -4 23 -36 29 -44
8z"/>
<path d="M1105 1220 c-10 -16 4 -49 26 -60 11 -6 24 -8 29 -5 14 9 12 49 -2
63 -15 15 -45 16 -53 2z"/>
<path d="M480 1172 c-8 -3 -18 -10 -22 -16 -9 -13 -10 -228 -2 -251 4 -9 17
-21 30 -25 16 -6 22 -15 18 -25 -5 -11 -10 -13 -19 -5 -18 15 -41 -11 -55 -58
-14 -51 -13 -59 11 -91 19 -26 20 -31 6 -52 -19 -29 -25 -66 -32 -189 -3 -52
-12 -129 -20 -170 -8 -41 -14 -85 -15 -98 0 -20 4 -23 33 -20 27 2 36 10 55
48 12 24 22 59 22 77 0 20 7 37 19 45 10 7 21 23 25 36 6 19 4 25 -13 29 -21
5 -21 5 3 37 19 25 23 42 21 81 -1 28 2 70 8 94 7 30 7 49 0 60 -6 10 -8 36
-3 66 8 53 3 112 -11 121 -12 7 1 34 16 34 19 0 26 27 11 39 -7 6 -11 22 -8
36 3 18 0 25 -12 25 -19 0 -31 40 -22 74 3 14 15 28 26 31 13 4 20 15 20 30 0
19 -7 26 -27 31 -16 3 -32 7 -38 8 -5 2 -17 1 -25 -2z m32 -234 c-7 -7 -12 -8
-12 -2 0 14 12 26 19 19 2 -3 -1 -11 -7 -17z m-19 -443 c-10 -8 -19 -12 -20
-11 -1 1 0 12 4 24 4 18 8 20 19 11 12 -10 11 -14 -3 -24z"/>
<path d="M1121 1131 c-11 -7 -9 -17 7 -54 15 -33 28 -48 46 -53 33 -8 56 1 56
21 0 16 -74 95 -88 95 -4 0 -13 -4 -21 -9z"/>
<path d="M530 1061 c0 -27 19 -36 37 -18 18 18 9 37 -18 37 -12 0 -19 -7 -19
-19z"/>
<path d="M1266 971 c-3 -4 -8 -34 -12 -64 -4 -36 -3 -62 4 -70 8 -9 8 -26 1
-57 -11 -50 -5 -88 23 -145 51 -102 49 -95 30 -95 -21 0 -42 -19 -42 -37 0 -9
14 -13 43 -13 24 0 46 -3 49 -6 3 -3 -1 -18 -9 -34 -8 -16 -13 -49 -11 -72 3
-37 7 -44 27 -46 13 -2 27 2 32 10 5 7 21 13 36 13 22 0 29 5 31 23 2 13 -4
32 -14 43 -14 16 -15 23 -6 45 25 54 6 154 -39 203 -16 18 -29 38 -29 46 0 8
-8 20 -18 27 -17 12 -42 49 -42 62 0 3 9 6 20 6 13 0 20 7 20 19 0 31 -21 81
-35 81 -8 0 -10 9 -7 26 3 16 -1 30 -9 35 -18 11 -36 11 -43 0z"/>
</g>
</svg>
