<?xml version="1.0" standalone="no"?>
<!DOCTYPE svg PUBLIC "-//W3C//DTD SVG 20010904//EN"
 "http://www.w3.org/TR/2001/REC-SVG-20010904/DTD/svg10.dtd">
<svg version="1.0" xmlns="http://www.w3.org/2000/svg"
 width="150.000000pt" height="764.000000pt" viewBox="0 0 150.000000 764.000000"
 preserveAspectRatio="xMidYMid meet">
<metadata>
Created by potrace 1.16, written by Peter Selinger 2001-2019
</metadata>
<g transform="translate(0.000000,764.000000) scale(0.100000,-0.100000)"
fill="#000000" stroke="none">
<path d="M368 2562 c-31 -23 -39 -35 -44 -75 -4 -26 -11 -50 -15 -53 -5 -3 -9
-16 -9 -30 0 -14 -7 -32 -15 -40 -8 -9 -15 -30 -15 -48 0 -19 7 -39 15 -46 20
-16 19 -73 -2 -117 -12 -27 -14 -40 -5 -53 6 -10 7 -21 2 -26 -13 -13 -32
-141 -29 -194 2 -29 -3 -54 -15 -71 -18 -28 -33 -141 -43 -329 -3 -64 -11
-113 -19 -125 -8 -11 -14 -44 -14 -77 0 -32 -4 -58 -10 -58 -14 0 -13 -47 1
-52 9 -3 9 -10 0 -27 -7 -13 -11 -32 -8 -42 3 -10 1 -19 -4 -19 -22 0 -45
-104 -74 -330 -8 -69 -23 -163 -32 -209 -15 -79 -15 -85 1 -97 11 -8 13 -14 7
-19 -6 -3 -11 -16 -11 -29 0 -12 -4 -26 -9 -32 -5 -5 -13 -48 -17 -96 -6 -84
-6 -87 20 -113 23 -23 26 -34 26 -90 0 -61 1 -65 23 -65 13 0 35 14 51 32 24
28 27 38 22 74 -3 22 -1 45 4 50 6 6 13 31 16 56 5 38 3 47 -10 50 -14 3 -14
6 -3 28 8 15 17 80 21 150 3 69 11 143 17 165 19 70 21 102 9 125 -9 17 -9 24
3 33 15 12 29 99 48 282 8 83 23 179 39 253 6 23 10 80 10 125 0 58 5 89 15
103 19 25 19 91 1 127 -14 25 -13 27 4 27 26 0 40 29 40 82 1 41 8 85 61 377
14 82 19 126 12 128 -7 3 -6 18 2 48 17 55 39 240 31 260 -9 23 -57 17 -98
-13z m-239 -2309 c2 -2 -5 -3 -17 -3 -14 0 -22 6 -22 16 0 14 3 15 18 3 9 -7
19 -15 21 -16z"/>
<path d="M1431 2410 c-13 -11 -29 -20 -37 -20 -10 0 -14 -13 -14 -40 0 -36 -3
-40 -24 -40 -13 0 -27 -7 -30 -16 -7 -19 10 -44 30 -44 17 0 18 -24 2 -50 -10
-15 -10 -22 -1 -31 10 -10 9 -15 -2 -23 -8 -6 -19 -40 -24 -75 -6 -36 -15 -69
-21 -75 -5 -5 -10 -29 -10 -53 0 -31 -4 -43 -15 -43 -30 0 -47 -48 -72 -200
-3 -19 -9 -39 -13 -45 -4 -5 -11 -44 -15 -85 -3 -41 -15 -100 -25 -130 -21
-66 -35 -206 -21 -215 6 -3 0 -25 -15 -53 -19 -35 -25 -57 -21 -88 2 -23 11
-55 20 -72 l15 -31 -32 -3 c-25 -2 -32 -8 -34 -28 -1 -14 -9 -61 -17 -105 -13
-74 -35 -318 -35 -393 0 -31 2 -32 41 -32 35 0 40 -2 34 -18 -4 -9 -10 -27
-12 -39 -3 -13 -11 -23 -19 -23 -20 0 -25 -16 -14 -46 9 -22 8 -29 -5 -36 -20
-12 -20 -64 0 -72 12 -4 13 -10 6 -25 -8 -15 -6 -25 10 -45 17 -21 29 -26 53
-24 25 2 34 10 49 41 9 20 22 37 28 37 15 0 1 149 -17 177 -17 28 -18 33 -1
33 25 0 39 53 44 165 4 78 11 121 24 147 22 43 25 88 7 106 -9 9 -8 12 5 12
23 0 33 26 17 45 -9 11 -8 21 3 47 8 18 18 46 22 63 4 16 12 33 18 37 8 5 8
19 0 52 -6 25 -7 46 -2 46 11 0 29 67 29 110 0 20 -5 41 -11 47 -8 8 -5 14 10
22 22 12 28 40 11 57 -7 7 -7 21 1 42 9 26 8 37 -4 56 -14 21 -14 25 5 44 16
16 23 40 29 104 12 132 11 188 -5 188 -10 0 -12 8 -7 28 8 35 21 54 46 68 17
9 20 22 21 83 1 39 4 74 8 78 10 10 7 121 -4 128 -18 11 -10 25 12 22 17 -1
24 4 26 20 4 29 -44 93 -69 93 -11 0 -19 5 -19 10 0 6 22 10 49 10 46 0 49 1
55 31 3 17 6 44 6 60 0 23 -4 29 -22 29 -13 -1 -34 -10 -47 -20z"/>
<path d="M860 1251 c0 -27 19 -36 37 -18 18 18 9 37 -18 37 -12 0 -19 -7 -19
-19z"/>
<path d="M747 1164 c-4 -4 -7 -25 -7 -46 0 -31 4 -38 20 -38 35 0 39 75 4 87
-6 2 -13 0 -17 -3z"/>
<path d="M560 1024 c-19 -8 -45 -30 -58 -49 -14 -22 -30 -35 -43 -35 -36 0
-89 -31 -95 -56 -5 -18 -13 -24 -35 -24 -31 0 -53 -28 -43 -55 8 -19 44 -35
80 -35 19 0 28 8 35 30 6 17 15 30 20 30 5 0 19 11 31 25 12 14 27 25 34 25 8
0 18 8 23 19 6 10 21 21 34 25 13 3 41 19 61 35 21 17 46 33 57 36 10 4 19 15
19 26 0 16 -7 19 -42 18 -24 0 -59 -7 -78 -15z"/>
</g>
</svg>
