<?xml version="1.0" standalone="no"?>
<!DOCTYPE svg PUBLIC "-//W3C//DTD SVG 20010904//EN"
 "http://www.w3.org/TR/2001/REC-SVG-20010904/DTD/svg10.dtd">
<svg version="1.0" xmlns="http://www.w3.org/2000/svg"
 width="395.000000pt" height="627.000000pt" viewBox="0 0 395.000000 627.000000"
 preserveAspectRatio="xMidYMid meet">
<metadata>
Created by potrace 1.16, written by Peter Selinger 2001-2019
</metadata>
<g transform="translate(0.000000,627.000000) scale(0.100000,-0.100000)"
fill="#000000" stroke="none">
<path d="M1129 5268 c-7 -13 -15 -25 -18 -28 -14 -12 -39 -107 -34 -132 3 -15
-2 -46 -11 -70 -8 -24 -20 -77 -26 -118 -10 -67 -28 -136 -51 -195 -4 -11 -10
-36 -13 -55 -11 -77 -19 -106 -34 -122 -10 -13 -13 -30 -9 -60 4 -31 1 -51
-12 -73 -12 -20 -24 -79 -35 -185 -21 -182 -26 -213 -60 -344 -13 -54 -28
-124 -31 -155 -4 -31 -16 -91 -26 -134 -11 -43 -26 -128 -34 -190 -8 -61 -28
-182 -44 -267 -67 -353 -75 -398 -82 -460 -4 -36 -17 -99 -29 -140 -11 -41
-30 -140 -40 -220 -11 -80 -26 -158 -34 -175 -24 -52 -53 -157 -66 -238 -7
-42 -17 -77 -21 -77 -11 0 -39 -54 -39 -76 0 -10 -9 -36 -19 -58 -23 -48 -112
-382 -116 -436 -1 -20 -7 -46 -14 -57 -6 -12 -15 -50 -21 -85 -14 -87 -26
-141 -49 -223 -11 -38 -20 -90 -20 -115 -1 -84 -32 -254 -87 -480 -53 -220
-62 -274 -46 -283 4 -3 26 -8 49 -12 39 -6 43 -5 43 14 0 17 6 21 30 21 23 0
30 5 30 19 0 11 -4 23 -10 26 -5 3 -10 17 -10 31 0 14 -4 34 -10 44 -7 12 -5
27 6 49 8 17 18 47 21 68 3 21 15 58 26 83 14 30 22 69 24 114 2 64 5 72 37
108 39 42 55 83 38 100 -8 8 -6 18 5 34 8 13 13 34 10 46 -4 13 2 31 14 46 10
14 19 33 19 43 0 9 8 25 17 35 15 15 16 19 2 43 -11 19 -13 34 -7 53 6 16 5
41 0 61 -8 28 -7 36 9 45 14 9 19 24 19 56 0 26 -5 46 -12 49 -8 4 -4 8 10 13
29 8 38 45 25 100 -6 25 -6 47 -2 50 5 3 9 14 9 24 0 11 12 25 28 32 22 11 29
23 35 63 5 28 17 79 27 115 11 36 22 81 26 100 3 19 11 41 16 47 9 12 8 43 -3
82 -2 9 6 17 21 21 21 5 26 13 28 45 2 22 10 44 18 48 10 6 14 27 14 75 0 80
13 129 37 147 14 11 18 27 17 79 0 37 -6 72 -12 78 -17 17 -15 25 8 31 15 4
20 13 18 34 -1 15 -1 56 0 91 2 56 4 63 26 72 20 7 26 20 36 80 7 39 10 89 8
111 -2 23 1 39 7 39 15 0 62 143 48 147 -6 2 -1 27 16 66 21 52 26 78 26 164
1 81 5 106 18 121 22 24 22 61 0 69 -14 5 -13 8 7 15 22 8 23 12 17 78 -3 40
-2 72 4 75 5 4 9 18 9 32 0 15 9 45 20 68 18 38 25 78 50 285 13 114 27 180
56 273 13 43 24 89 24 103 0 14 8 41 19 62 10 20 21 62 24 93 4 30 15 82 26
115 l19 59 1 -42 c1 -23 6 -45 11 -48 6 -3 10 -26 10 -51 0 -25 7 -61 15 -81
8 -20 20 -79 26 -132 6 -53 17 -116 25 -141 8 -25 25 -103 39 -174 13 -71 26
-130 27 -131 14 -11 51 -25 67 -25 15 0 21 7 23 23 2 35 -3 71 -11 77 -4 3 -4
41 0 85 10 114 1 214 -22 247 -14 20 -19 45 -19 97 0 38 -4 72 -9 76 -5 3 -13
20 -16 38 -4 17 -13 43 -20 57 -10 19 -11 39 -3 79 8 45 7 56 -8 72 -14 15
-17 35 -16 97 2 43 6 92 11 108 4 16 5 54 0 84 -4 30 -8 96 -8 147 -1 96 -10
135 -41 168 -10 11 -20 29 -22 40 -2 13 -12 21 -30 23 -20 2 -30 -3 -39 -20z"/>
<path d="M3755 5108 c-3 -13 -14 -86 -25 -163 -11 -77 -25 -156 -30 -175 -5
-19 -12 -62 -16 -95 -6 -50 -12 -65 -40 -90 -36 -33 -54 -71 -54 -116 0 -16
-4 -29 -10 -29 -16 0 -60 -43 -60 -59 0 -8 7 -22 16 -32 14 -15 12 -18 -16
-28 -18 -6 -30 -16 -28 -23 2 -7 18 -20 35 -29 29 -14 30 -16 12 -27 -10 -7
-19 -18 -19 -25 0 -18 -50 -64 -75 -69 -10 -2 -26 -15 -34 -30 -14 -24 -13
-30 4 -62 13 -23 16 -39 10 -44 -6 -4 -15 -16 -21 -27 -6 -11 -21 -21 -33 -23
-11 -2 -21 -10 -21 -18 0 -8 -7 -17 -15 -20 -17 -7 -20 -39 -6 -49 6 -3 9 -14
8 -24 -1 -18 -2 -18 -23 -2 -17 12 -21 23 -17 44 5 22 2 27 -15 27 -25 0 -38
-18 -24 -32 7 -7 7 -19 2 -34 -5 -13 -7 -37 -4 -53 6 -26 2 -33 -27 -50 -64
-37 -70 -49 -43 -75 14 -15 14 -16 -5 -16 -12 0 -29 -8 -39 -18 -18 -18 -19
-18 -28 2 -5 12 -19 22 -31 24 -30 4 -73 -39 -73 -73 0 -27 -62 -144 -108
-205 -29 -38 -203 -237 -250 -285 -41 -43 -57 -74 -43 -88 6 -6 11 -22 11 -36
0 -18 8 -30 27 -38 36 -17 62 -16 70 3 3 8 1 26 -5 40 l-12 24 76 0 76 0 -4
30 c-4 23 0 30 16 32 12 2 23 13 26 27 4 17 15 27 37 33 36 9 56 30 51 55 -2
10 5 22 16 28 26 13 75 107 93 175 8 30 22 63 30 72 9 10 12 25 8 38 -6 19 -4
21 14 15 29 -9 41 23 16 41 -10 7 -22 15 -27 16 -5 2 -6 11 -3 19 5 14 13 15
51 7 60 -13 114 -3 114 21 0 10 6 24 14 30 8 7 26 36 42 66 22 44 25 59 17 78
-10 21 -9 22 23 19 28 -4 35 0 46 23 9 20 9 31 0 45 -8 14 -8 21 2 29 10 8 17
7 26 -4 7 -8 21 -15 31 -15 34 0 53 86 25 112 -11 11 -11 14 2 24 21 15 8 48
-17 41 -14 -3 -17 0 -14 14 3 11 7 19 9 19 3 0 21 -7 40 -15 31 -13 35 -19 30
-37 -13 -45 -45 -216 -66 -348 -21 -142 -30 -210 -85 -700 -19 -168 -37 -324
-40 -348 -4 -37 -1 -47 21 -67 l26 -24 -31 -16 c-35 -18 -41 -50 -11 -58 29
-8 26 -43 -5 -51 -14 -4 -25 -13 -25 -21 0 -7 10 -31 22 -51 l22 -37 -22 -15
c-22 -14 -31 -62 -12 -62 17 0 22 -68 11 -149 -6 -44 -15 -88 -20 -98 -12 -24
-41 -146 -41 -172 0 -12 5 -21 10 -21 6 0 8 -15 4 -40 -4 -21 -3 -47 1 -57 3
-10 5 -106 4 -213 -5 -374 -4 -596 3 -687 5 -58 4 -94 -2 -98 -6 -4 -10 -18
-9 -33 0 -15 -4 -45 -10 -67 -6 -22 -11 -61 -11 -87 0 -54 7 -58 59 -32 53 26
81 122 45 149 -14 10 -15 15 -3 36 14 26 15 40 22 336 4 153 2 193 -8 197 -18
7 -7 44 16 59 23 14 24 40 4 71 -14 21 -14 24 0 30 9 3 15 14 14 23 -1 10 4
32 10 48 9 21 11 57 6 125 -4 52 -7 113 -6 135 1 22 -3 79 -10 127 -10 78 -10
88 5 104 13 12 17 30 15 65 -2 26 3 54 10 62 6 8 9 26 6 39 -3 13 1 44 9 68 8
25 15 63 15 85 2 134 10 264 20 288 6 16 11 39 11 51 0 13 7 29 15 36 21 17
19 49 -5 85 -11 17 -20 40 -20 51 0 12 -7 27 -15 34 -14 11 -13 14 5 27 28 20
50 66 50 105 0 18 7 42 15 52 21 28 19 53 -5 66 -26 14 -57 5 -64 -18 -3 -9
-3 8 -1 38 3 30 5 76 5 103 0 34 4 47 14 47 19 0 31 37 17 53 -6 7 -6 18 -1
26 4 8 6 21 3 29 -4 8 1 19 10 24 13 7 17 24 17 77 0 52 4 70 15 75 11 4 15
21 15 59 0 29 -5 58 -10 63 -8 8 -7 20 1 40 15 37 30 111 30 146 0 14 6 29 14
32 8 3 15 12 15 19 0 8 7 20 15 27 9 7 15 29 15 54 0 23 7 52 17 65 15 22 15
25 -2 37 -10 7 -23 15 -29 18 -7 3 -4 9 7 16 11 8 17 24 17 52 l0 40 -57 -7
c-32 -4 -55 -4 -51 1 4 4 36 10 70 13 63 6 63 6 61 36 -4 39 -3 42 3 99 5 36
11 50 25 53 20 6 26 39 8 45 -14 5 9 58 33 76 13 9 18 27 18 62 0 26 9 78 21
115 11 37 18 78 15 90 -5 19 -1 23 30 28 51 9 74 32 74 78 0 51 -8 69 -32 69
-12 0 -23 -11 -30 -30 -11 -32 -51 -51 -70 -32 -8 8 -3 15 18 24 16 7 32 17
36 23 11 15 10 93 -2 114 -5 10 -23 24 -40 31 -22 9 -28 16 -21 23 6 6 11 19
11 29 0 13 -8 18 -30 18 -22 0 -31 -5 -35 -22z m-179 -985 c-11 -11 -19 6 -11
24 8 17 8 17 12 0 3 -10 2 -21 -1 -24z m-829 -1018 c-4 -8 -12 -15 -19 -14
-10 0 -10 2 0 6 6 2 12 12 12 21 0 8 3 13 6 9 4 -3 4 -13 1 -22z m726 -490
c-7 -21 -13 -19 -13 6 0 11 4 18 10 14 5 -3 7 -12 3 -20z"/>
<path d="M3362 4058 c-6 -6 -12 -20 -12 -31 0 -14 6 -18 28 -15 21 2 27 8 27
28 0 28 -23 38 -43 18z"/>
<path d="M1420 3885 c-5 -14 -10 -51 -10 -81 0 -49 -3 -55 -25 -64 -14 -5 -28
-17 -31 -25 -7 -16 27 -166 58 -254 10 -30 24 -62 32 -70 7 -9 17 -27 21 -40
4 -13 20 -44 36 -69 16 -25 32 -61 35 -79 3 -18 15 -38 25 -44 11 -5 19 -20
19 -33 0 -14 10 -30 25 -40 14 -9 25 -22 25 -29 0 -24 36 -78 60 -90 14 -7 34
-27 45 -45 16 -27 25 -31 47 -27 22 3 31 -1 44 -25 10 -16 29 -32 43 -35 14
-4 35 -17 48 -31 27 -30 68 -32 83 -4 6 12 21 25 34 30 34 13 97 -10 115 -42
25 -44 61 -48 61 -8 0 16 4 18 23 11 12 -5 46 -12 74 -16 44 -6 54 -4 59 9 6
16 8 16 25 0 16 -15 22 -15 71 1 29 10 59 22 66 28 9 7 12 23 9 44 -5 25 -1
35 13 43 14 7 18 21 18 55 0 41 -2 45 -24 45 -13 0 -24 -5 -24 -11 0 -5 -13
-15 -30 -20 -17 -6 -30 -17 -30 -25 0 -8 -11 -13 -27 -13 -25 0 -184 -24 -208
-31 -5 -2 -23 3 -40 10 -16 7 -66 14 -109 14 -54 1 -81 5 -84 14 -8 26 -34 42
-68 42 -19 0 -34 4 -34 9 0 5 -9 13 -20 16 -25 8 -90 76 -131 138 -20 31 -28
53 -24 66 4 14 0 23 -13 30 -10 5 -24 28 -31 50 -6 23 -16 41 -22 41 -6 0 -8
9 -4 20 9 28 -3 58 -26 65 -10 4 -19 12 -19 20 0 15 -27 28 -41 20 -4 -3 -17
3 -27 13 -16 16 -17 22 -5 37 7 11 13 32 13 47 0 21 -6 31 -25 38 -14 5 -25
16 -25 24 0 8 -6 17 -12 19 -8 4 -4 8 10 12 17 6 22 15 22 42 0 19 -7 47 -15
63 -10 19 -13 43 -10 67 10 69 -43 125 -65 68z"/>
<path d="M1912 3418 c2 -15 10 -23 23 -23 30 0 27 39 -3 43 -20 3 -23 0 -20
-20z"/>
<path d="M2382 3413 c-13 -25 -4 -43 19 -43 16 0 20 6 17 27 -4 32 -23 41 -36
16z"/>
<path d="M2124 3376 c-10 -26 4 -46 31 -46 23 0 26 4 23 28 -2 19 -9 28 -26
30 -13 2 -25 -3 -28 -12z"/>
<path d="M2302 3377 c-7 -8 -15 -28 -18 -45 -6 -27 -4 -32 13 -32 26 0 75 48
71 69 -4 21 -51 26 -66 8z"/>
<path d="M2602 2931 c-8 -5 -12 -21 -10 -37 2 -21 8 -29 23 -29 26 0 46 52 25
65 -18 12 -22 12 -38 1z"/>
<path d="M2897 1695 c-9 -23 3 -45 25 -45 15 0 19 6 16 27 -3 31 -32 43 -41
18z"/>
<path d="M2833 1601 c-35 -32 -44 -75 -18 -85 24 -9 45 4 45 28 0 17 6 21 33
21 29 0 32 3 32 30 0 26 -4 30 -30 33 -22 2 -39 -5 -62 -27z"/>
<path d="M2962 1608 c-6 -6 -12 -20 -12 -29 0 -22 26 -43 46 -35 10 4 14 16
12 38 -3 35 -25 47 -46 26z"/>
<path d="M710 1483 c-1 -60 -5 -94 -15 -107 -8 -10 -19 -42 -26 -71 l-12 -53
36 -36 c20 -20 40 -36 45 -36 17 0 41 35 44 64 2 24 -1 31 -22 37 -23 7 -24 7
-3 8 34 2 62 71 29 71 -26 0 -26 17 -1 54 30 44 33 92 8 99 -15 4 -14 5 3 6
23 1 44 19 44 38 0 9 -18 13 -65 13 l-65 0 0 -87z"/>
<path d="M2912 1528 c2 -15 10 -23 23 -23 30 0 27 39 -3 43 -20 3 -23 0 -20
-20z"/>
<path d="M2870 1460 c-16 -29 -18 -126 -3 -141 10 -10 16 -9 28 1 11 9 15 32
15 86 0 58 -3 74 -15 74 -8 0 -19 -9 -25 -20z"/>
<path d="M662 1110 c-1 -70 -1 -70 27 -70 15 0 35 6 44 13 13 10 15 19 7 52
-9 39 -40 75 -65 75 -9 0 -13 -20 -13 -70z"/>
<path d="M616 1008 c-3 -13 -7 -34 -8 -48 -3 -23 1 -25 39 -28 50 -4 83 11 83
38 0 25 -46 60 -81 60 -22 0 -30 -6 -33 -22z"/>
<path d="M599 893 c-15 -39 -8 -67 18 -71 13 -2 23 -11 25 -25 4 -28 32 -33
64 -12 19 12 24 23 22 43 -3 23 -7 27 -33 25 -16 0 -24 1 -17 4 6 2 12 18 12
34 0 27 -2 29 -40 29 -35 0 -42 -4 -51 -27z"/>
<path d="M604 745 c-9 -21 14 -45 43 -45 28 0 40 24 23 45 -16 19 -59 19 -66
0z"/>
<path d="M597 654 c-4 -4 -7 -14 -7 -22 0 -9 -8 -24 -17 -34 -15 -17 -15 -20
-2 -34 14 -13 19 -11 48 16 36 35 39 73 6 78 -12 2 -24 0 -28 -4z"/>
<path d="M607 503 c-13 -13 -7 -32 13 -38 25 -8 51 11 43 31 -5 14 -44 19 -56
7z"/>
<path d="M517 303 c-2 -4 -4 -26 -3 -48 1 -30 5 -41 20 -43 25 -5 40 13 31 35
-4 10 -8 27 -9 38 -1 20 -30 33 -39 18z"/>
</g>
</svg>
