<?xml version="1.0" standalone="no"?>
<!DOCTYPE svg PUBLIC "-//W3C//DTD SVG 20010904//EN"
 "http://www.w3.org/TR/2001/REC-SVG-20010904/DTD/svg10.dtd">
<svg version="1.0" xmlns="http://www.w3.org/2000/svg"
 width="365.000000pt" height="627.000000pt" viewBox="0 0 365.000000 627.000000"
 preserveAspectRatio="xMidYMid meet">
<metadata>
Created by potrace 1.16, written by Peter Selinger 2001-2019
</metadata>
<g transform="translate(0.000000,627.000000) scale(0.100000,-0.100000)"
fill="#000000" stroke="none">
<path d="M2084 5131 c-15 -25 -61 -61 -78 -61 -3 0 -6 14 -6 30 l0 30 -69 0
c-65 0 -70 -2 -110 -38 -22 -20 -41 -45 -41 -55 0 -9 -4 -17 -9 -17 -13 0 -24
-55 -16 -80 3 -11 15 -20 25 -20 10 0 40 18 65 40 25 22 58 43 73 47 40 12
286 7 372 -6 41 -7 85 -18 97 -26 12 -8 33 -15 45 -15 13 -1 48 -9 78 -20 59
-21 130 -26 130 -10 0 6 9 1 20 -10 11 -11 26 -20 34 -20 7 0 34 -18 59 -40
25 -22 48 -40 51 -40 4 0 24 -12 46 -26 32 -22 46 -25 80 -19 22 4 47 13 55
22 17 16 20 63 5 63 -5 0 -16 13 -24 29 -9 16 -29 34 -45 39 -20 7 -33 20 -37
36 -5 21 -12 26 -36 26 -16 0 -37 7 -46 16 -12 12 -28 15 -65 11 -31 -3 -64 1
-88 11 -31 12 -38 20 -41 45 -2 24 -9 32 -33 39 -16 5 -102 11 -189 13 -88 3
-162 7 -164 10 -3 3 -14 5 -24 5 -10 0 -18 5 -18 10 0 6 -18 10 -39 10 -33 0
-43 -5 -57 -29z"/>
<path d="M1460 5102 c-15 -12 -29 -47 -46 -111 -13 -51 -24 -106 -24 -121 0
-41 -10 -60 -36 -71 -23 -8 -24 -13 -24 -94 0 -58 -6 -103 -19 -142 -11 -32
-27 -83 -35 -113 -8 -30 -28 -93 -44 -140 -16 -47 -39 -130 -52 -185 -12 -55
-30 -127 -41 -160 -10 -33 -25 -98 -33 -145 -8 -47 -21 -101 -29 -120 -9 -19
-21 -64 -27 -100 -6 -36 -20 -91 -31 -123 -11 -32 -26 -93 -34 -135 -8 -42
-22 -102 -30 -132 -9 -30 -14 -68 -13 -85 2 -23 9 -31 26 -33 32 -5 21 -28
-11 -24 -22 3 -27 -1 -27 -18 0 -13 8 -24 20 -27 27 -7 26 -33 -1 -33 -19 0
-21 -4 -16 -35 3 -19 1 -37 -4 -40 -5 -4 -9 -22 -9 -41 0 -19 -4 -33 -9 -29
-5 3 -16 -2 -25 -10 -23 -23 -36 -81 -26 -115 7 -24 5 -30 -10 -35 -11 -4 -25
-25 -34 -53 -24 -73 -184 -729 -195 -801 -6 -35 -8 -68 -5 -73 3 -5 17 -13 30
-19 21 -7 23 -12 14 -29 -6 -11 -16 -17 -25 -14 -9 4 -18 -3 -24 -17 -5 -13
-19 -32 -30 -41 -14 -12 -21 -30 -21 -52 0 -19 -4 -37 -10 -41 -5 -3 -8 -27
-7 -53 2 -37 -3 -52 -21 -70 -12 -12 -22 -30 -22 -40 0 -10 -11 -33 -25 -52
-14 -19 -25 -44 -25 -56 0 -12 -9 -42 -20 -67 -11 -25 -23 -67 -27 -94 -3 -26
-12 -57 -19 -68 -8 -11 -14 -29 -14 -40 0 -12 -11 -36 -25 -55 -14 -19 -25
-41 -25 -49 0 -22 -20 -81 -43 -129 -17 -33 -19 -46 -11 -60 9 -14 6 -20 -25
-37 -31 -18 -36 -26 -39 -63 -2 -23 -8 -42 -13 -42 -15 0 -59 -101 -59 -137 0
-22 6 -33 18 -38 17 -5 18 -11 11 -56 -5 -29 -10 -54 -13 -56 -11 -11 -26 10
-26 38 0 22 -5 29 -19 29 -21 0 -61 -48 -61 -72 0 -8 -9 -31 -20 -53 -21 -40
-26 -110 -11 -133 5 -8 17 -12 27 -10 13 2 20 13 22 36 2 17 7 32 13 32 5 0 9
-4 9 -9 0 -5 9 -12 19 -16 11 -3 22 -12 25 -21 4 -10 -3 -16 -25 -21 -27 -5
-69 -44 -69 -65 0 -5 7 -11 15 -14 27 -11 65 6 84 37 10 17 34 38 52 47 18 9
42 32 52 50 20 34 71 162 89 222 5 19 16 38 23 42 7 4 16 23 19 42 4 19 13 39
21 46 7 6 17 25 20 41 4 16 11 31 16 34 5 4 9 14 9 23 0 10 9 36 20 57 14 27
20 56 19 87 -2 32 2 53 14 65 25 29 47 89 47 131 0 22 6 45 14 51 20 17 46 97
46 143 0 31 4 38 19 38 21 0 26 11 36 75 6 36 30 119 70 240 8 22 43 121 80
220 36 99 72 205 79 235 7 30 20 75 29 100 9 25 21 64 28 88 11 37 10 45 -2
53 -8 5 -28 9 -46 9 -35 0 -53 17 -29 26 9 3 16 13 16 22 0 12 3 13 12 4 21
-21 38 -13 38 17 0 17 5 33 10 36 14 9 12 31 -4 47 -8 8 -11 26 -8 46 3 23 10
32 23 32 14 0 19 7 19 25 0 15 7 39 15 54 8 16 17 48 21 72 3 24 13 54 20 66
8 12 14 33 14 47 0 13 7 37 15 52 8 16 15 39 15 51 0 12 4 24 9 28 5 3 15 31
21 63 6 31 22 88 36 125 19 54 24 88 24 160 0 59 5 102 14 118 25 49 48 129
56 202 5 39 23 117 40 172 17 55 38 127 46 160 8 33 23 93 34 132 11 40 20 95
20 123 0 43 -3 50 -20 50 -18 0 -19 2 -8 23 7 12 15 24 18 27 8 8 38 61 55 98
9 18 17 50 18 70 1 20 8 43 15 50 15 16 16 54 2 68 -7 7 4 17 34 32 37 19 44
28 50 60 3 20 6 56 6 79 0 27 14 70 42 130 23 48 44 90 48 93 4 3 10 22 14 43
4 21 14 41 22 44 21 8 17 46 -8 78 -14 18 -21 40 -20 62 2 29 0 33 -23 33 -14
0 -25 5 -25 10 0 6 -22 10 -49 10 -32 0 -56 -6 -71 -18z m-665 -3071 c7 -22
-2 -48 -19 -54 -24 -9 -33 7 -24 41 9 35 33 43 43 13z m-550 -1461 c3 -5 2
-17 -3 -26 -8 -14 -10 -12 -14 10 -5 26 5 35 17 16z m-44 -107 c-12 -20 -14
-14 -5 12 4 9 9 14 11 11 3 -2 0 -13 -6 -23z"/>
<path d="M1694 4916 c-10 -25 0 -61 18 -64 12 -2 19 5 24 22 10 39 -29 77 -42
42z"/>
<path d="M3072 4845 c-12 -14 -28 -25 -36 -25 -9 0 -16 -18 -21 -56 -6 -49 -4
-58 14 -75 12 -11 21 -24 21 -29 0 -6 6 -10 14 -10 8 0 17 -9 21 -20 3 -10 21
-28 40 -40 19 -12 37 -30 40 -40 4 -11 13 -20 21 -20 8 0 18 -8 21 -17 4 -10
27 -45 53 -78 25 -33 56 -89 69 -123 12 -35 30 -68 40 -74 14 -8 16 -21 13
-69 -3 -41 1 -69 12 -93 9 -19 16 -48 16 -66 0 -17 9 -77 20 -132 16 -75 18
-103 10 -114 -9 -10 -7 -26 9 -68 18 -49 19 -63 10 -152 -12 -124 -53 -329
-80 -403 -11 -31 -23 -69 -26 -86 -3 -16 -9 -34 -13 -40 -4 -5 -13 -34 -20
-62 -6 -29 -16 -53 -21 -53 -8 0 -30 -38 -83 -139 -10 -20 -31 -51 -47 -69
-16 -18 -29 -39 -29 -47 0 -8 -8 -19 -19 -24 -10 -6 -21 -23 -24 -38 -4 -19
-17 -34 -41 -47 -40 -21 -71 -76 -62 -112 8 -31 49 -58 81 -52 14 3 25 1 25
-4 0 -5 12 -8 27 -6 33 4 44 35 19 54 -14 10 -11 16 25 48 25 23 47 55 56 83
18 52 81 123 110 123 20 0 53 28 53 45 0 5 -8 17 -17 28 -17 18 -17 18 14 1
25 -15 34 -16 46 -6 8 7 18 28 21 47 4 19 11 35 17 35 5 0 17 15 25 33 8 17
19 39 24 47 6 8 14 26 20 40 5 14 14 32 19 40 35 56 51 106 51 156 0 39 4 56
15 60 8 4 15 15 15 25 0 20 -24 24 -68 13 -19 -5 -22 -12 -18 -30 5 -18 1 -23
-16 -26 -30 -4 -36 -36 -8 -46 20 -7 20 -9 -10 -30 -16 -12 -30 -31 -30 -42 0
-10 -11 -36 -25 -56 -14 -21 -28 -49 -31 -63 -3 -14 -12 -41 -20 -60 -12 -27
-19 -32 -36 -27 -12 3 -28 0 -35 -6 -7 -6 -13 -8 -13 -5 0 2 16 31 35 63 19
32 35 65 35 74 0 9 13 26 29 37 32 24 46 74 30 105 -14 26 4 76 37 103 17 14
27 34 31 64 5 33 8 39 15 27 5 -9 20 -16 33 -16 13 0 27 -4 30 -10 3 -5 15
-10 26 -10 14 0 19 7 19 30 0 17 -4 30 -10 30 -19 0 -22 48 -5 85 16 33 16 39
2 76 -13 32 -14 45 -4 60 9 15 9 23 -1 39 -6 11 -12 41 -12 68 0 27 -8 64 -19
85 -13 25 -15 34 -5 26 7 -6 21 -9 30 -5 13 5 14 16 9 61 -5 38 -4 55 4 55 23
0 10 42 -25 78 -24 25 -34 42 -30 57 3 11 8 39 12 62 6 39 5 42 -18 48 -23 6
-25 10 -20 50 2 26 -2 63 -12 92 -8 26 -18 74 -22 107 -4 46 -10 59 -25 63
-10 3 -19 9 -19 14 0 4 -15 9 -32 11 -30 3 -33 7 -36 38 -2 19 -9 41 -15 48
-6 7 -25 19 -44 27 -18 8 -33 20 -33 27 0 7 -9 19 -20 26 -11 6 -34 40 -51 73
-32 65 -116 159 -141 159 -8 0 -24 -11 -36 -25z m356 -580 c-3 -3 -9 2 -12 12
-6 14 -5 15 5 6 7 -7 10 -15 7 -18z"/>
<path d="M3297 2643 c-4 -3 -7 -15 -7 -25 0 -11 7 -18 19 -18 23 0 34 23 18
39 -13 13 -21 14 -30 4z"/>
<path d="M2818 2354 c-29 -25 -66 -53 -81 -62 -15 -9 -30 -26 -33 -37 -4 -17
-11 -20 -38 -17 -19 2 -39 -2 -47 -10 -18 -16 -108 -55 -174 -75 -27 -8 -59
-18 -70 -23 -25 -10 -45 -15 -215 -45 -74 -13 -144 -27 -155 -31 -26 -10 -35
-23 -35 -55 0 -15 -7 -32 -15 -39 -21 -18 -19 -48 5 -55 31 -10 79 4 91 26 5
11 7 24 4 29 -3 5 0 12 6 16 7 4 19 -3 29 -16 14 -19 29 -23 83 -26 38 -3 68
0 72 6 3 5 28 10 54 10 26 0 56 7 67 15 10 8 31 15 46 15 16 0 34 10 47 26 14
17 33 28 61 31 22 3 40 11 40 18 0 8 20 14 51 17 27 3 62 14 77 25 15 10 48
27 75 37 35 13 47 23 47 38 0 14 5 18 15 14 8 -3 20 3 27 12 23 31 101 92 118
92 23 0 62 45 58 67 -2 12 -12 18 -32 18 -16 1 -31 6 -34 13 -2 7 -22 12 -47
12 -37 0 -51 -7 -97 -46z"/>
<path d="M1143 2214 c-7 -18 14 -35 37 -31 8 1 16 12 18 25 3 18 -1 22 -23 22
-14 0 -28 -7 -32 -16z"/>
<path d="M1281 2176 c-6 -7 -8 -21 -5 -31 5 -12 15 -16 35 -13 16 3 29 1 29
-4 0 -4 11 -8 25 -8 18 0 25 5 25 20 0 19 -9 24 -36 21 -7 -1 -14 5 -18 14 -7
19 -40 20 -55 1z"/>
<path d="M1161 2156 c-16 -19 -6 -36 20 -36 15 0 20 6 17 22 -4 27 -21 33 -37
14z"/>
<path d="M1505 2100 c-71 -3 -134 -7 -140 -9 -5 -2 -18 -1 -28 4 -23 10 -42
-8 -33 -30 4 -12 13 -15 27 -12 13 3 19 1 16 -6 -2 -7 -16 -13 -30 -15 -18 -2
-27 -9 -27 -21 0 -19 30 -51 48 -51 19 0 82 41 93 61 7 14 21 19 48 19 22 0
44 -6 51 -15 7 -8 28 -15 46 -15 32 0 34 -2 34 -36 0 -42 15 -74 35 -74 8 0
18 7 23 15 7 14 12 13 36 -6 23 -18 36 -21 78 -16 27 4 56 12 64 18 21 17 17
38 -8 49 -19 7 -20 9 -5 9 26 1 80 58 73 76 -6 17 -42 20 -52 4 -5 -8 -8 -8
-13 0 -7 11 -173 62 -194 59 -6 -1 -70 -4 -142 -8z m270 -114 l23 -24 -22 -4
c-39 -8 -110 -1 -114 11 -2 6 7 11 22 11 15 0 29 7 32 15 9 22 34 18 59 -9z"/>
<path d="M1240 2070 c-14 -27 -3 -62 18 -58 12 2 17 14 17 37 0 40 -19 51 -35
21z"/>
<path d="M1436 2005 c-8 -22 1 -35 25 -35 15 0 20 6 17 22 -4 27 -33 36 -42
13z"/>
<path d="M1503 2003 c-7 -2 -13 -20 -13 -40 0 -30 3 -34 22 -31 29 4 49 55 28
68 -16 11 -19 11 -37 3z"/>
</g>
</svg>
