<?xml version="1.0" standalone="no"?>
<!DOCTYPE svg PUBLIC "-//W3C//DTD SVG 20010904//EN"
 "http://www.w3.org/TR/2001/REC-SVG-20010904/DTD/svg10.dtd">
<svg version="1.0" xmlns="http://www.w3.org/2000/svg"
 width="415.000000pt" height="764.000000pt" viewBox="0 0 415.000000 764.000000"
 preserveAspectRatio="xMidYMid meet">
<metadata>
Created by potrace 1.16, written by Peter Selinger 2001-2019
</metadata>
<g transform="translate(0.000000,764.000000) scale(0.100000,-0.100000)"
fill="#000000" stroke="none">
<path d="M3456 5641 c-3 -5 -26 -6 -50 -4 -37 5 -46 2 -55 -16 -9 -17 -21 -21
-59 -21 -27 0 -57 7 -68 15 -10 8 -29 15 -42 15 -16 0 -27 -9 -36 -31 l-13
-31 -6 30 c-4 19 -14 31 -29 36 -43 11 -75 6 -103 -16 -35 -27 -110 -34 -200
-19 -60 11 -72 10 -121 -9 -65 -24 -100 -26 -108 -5 -6 16 -46 21 -46 6 0 -5
-13 -14 -29 -19 -24 -8 -31 -7 -35 4 -4 10 -16 14 -33 12 -20 -2 -29 -9 -31
-26 -2 -13 -16 -29 -33 -38 -17 -8 -34 -25 -38 -37 -9 -22 -9 -21 -20 6 -7 17
-18 27 -31 27 -28 0 -36 -26 -16 -49 18 -20 12 -31 -16 -31 -10 0 -22 -10 -27
-22 l-8 -22 -6 24 c-5 20 -10 22 -42 17 -21 -3 -48 -13 -61 -22 -20 -13 -24
-24 -24 -65 0 -40 -4 -50 -20 -55 -25 -8 -26 -42 -2 -48 9 -3 2 -5 -15 -6 -23
-1 -33 -6 -33 -17 0 -9 -7 -22 -16 -28 -16 -13 -23 -71 -10 -98 6 -13 4 -18
-7 -18 -22 0 -50 -48 -43 -75 6 -23 -6 -39 -48 -60 -14 -8 -20 -19 -18 -36 1
-13 10 -30 19 -36 25 -19 61 -16 66 5 3 13 4 12 3 -3 -1 -13 -9 -21 -26 -23
-33 -5 -50 -20 -50 -44 0 -13 6 -18 18 -16 11 2 26 -3 35 -10 16 -14 16 -14
-56 -90 l-22 -23 23 -17 c20 -16 22 -21 12 -47 -15 -40 -29 -132 -40 -260 -5
-60 -12 -131 -16 -157 -6 -40 -4 -49 11 -54 10 -4 35 -3 55 2 24 7 42 7 53 0
9 -6 19 -7 23 -3 4 4 11 116 15 249 5 134 13 266 19 294 6 29 10 69 9 90 -1
22 6 59 16 84 9 25 20 63 25 85 4 22 15 73 23 113 8 40 26 90 41 112 14 22 26
44 26 48 0 5 18 30 41 55 52 60 155 111 274 136 50 11 156 26 237 35 81 8 155
19 165 24 20 10 114 9 270 -3 89 -7 103 -5 109 8 5 13 10 14 30 5 18 -8 28 -8
36 0 7 7 19 7 36 1 15 -6 40 -9 57 -7 16 1 60 -1 97 -6 44 -5 74 -4 87 4 14 7
21 7 21 0 0 -5 11 -10 25 -10 17 0 25 5 25 18 0 10 -5 23 -11 29 -9 9 -6 11
12 6 67 -15 91 -26 99 -49 11 -28 35 -32 45 -6 7 14 9 13 14 -8 13 -48 91 -30
91 21 0 11 -11 24 -25 31 -14 6 -25 17 -25 24 0 18 -45 40 -124 60 -62 15 -66
18 -66 45 0 24 -4 29 -24 29 -14 0 -28 -5 -31 -10 -3 -6 -18 -7 -32 -4 -29 8
-43 -7 -43 -48 0 -17 -8 -31 -19 -38 -31 -16 -35 -12 -10 10 21 17 22 22 9 32
-8 7 -14 23 -12 36 3 16 -2 22 -17 22 -11 0 -22 -4 -25 -9z"/>
<path d="M3891 5356 c-9 -11 -5 -51 18 -178 17 -89 34 -164 39 -166 4 -1 6
-20 4 -42 -4 -40 -4 -40 32 -40 35 0 36 1 36 38 0 21 -4 42 -10 48 -6 6 -4 40
5 94 15 94 23 120 36 120 5 0 9 13 9 29 0 22 -9 36 -32 54 -18 13 -41 27 -50
30 -10 4 -18 11 -18 17 0 15 -56 12 -69 -4z"/>
<path d="M1779 5298 c-9 -7 -23 -25 -32 -40 -12 -20 -26 -28 -45 -28 -18 0
-37 -9 -50 -25 -12 -14 -22 -30 -22 -36 0 -22 -31 -68 -50 -74 -15 -5 -20 -15
-20 -45 0 -21 -4 -42 -10 -45 -15 -9 -13 -112 3 -118 8 -3 6 -10 -8 -26 -21
-25 -22 -24 32 -57 17 -11 16 -13 -9 -23 -22 -8 -28 -17 -28 -40 0 -17 -6 -31
-15 -35 -19 -7 -47 -70 -44 -100 3 -26 -8 -74 -23 -101 -6 -10 -15 -76 -19
-145 -5 -69 -16 -174 -24 -233 -18 -130 -19 -190 -3 -233 10 -28 9 -36 -5 -52
-17 -19 -47 -128 -47 -174 0 -18 8 -31 23 -39 12 -7 25 -17 29 -22 4 -6 -3
-24 -14 -40 -19 -27 -20 -34 -10 -92 16 -85 15 -128 -5 -169 -16 -34 -15 -37
1 -55 17 -18 17 -21 1 -45 -18 -27 -14 -76 7 -76 6 0 -1 -9 -16 -21 -17 -14
-26 -30 -26 -50 0 -16 4 -29 8 -29 5 0 8 -10 8 -22 -1 -17 5 -24 25 -26 15 -2
32 5 42 16 10 11 22 47 29 82 8 47 15 64 29 67 10 3 21 14 25 25 4 13 -2 28
-19 46 -14 15 -28 38 -32 50 -7 23 -6 23 18 7 14 -9 36 -15 49 -13 17 2 23 10
23 28 0 19 -6 26 -25 28 -49 6 -56 12 -30 25 20 10 26 21 28 56 2 33 -2 52
-17 72 -12 16 -21 36 -21 47 0 10 -5 23 -11 29 -8 8 -4 16 15 28 14 10 26 24
26 33 0 8 -12 25 -26 39 -14 13 -24 29 -22 36 3 6 21 20 40 29 20 10 39 22 42
27 4 5 1 22 -4 37 -8 21 -8 34 1 50 18 35 5 54 -38 56 -36 1 -36 1 -6 5 17 2
34 12 38 21 3 9 3 51 -1 94 -5 62 -10 78 -23 79 -10 0 -12 2 -3 6 7 3 19 18
28 35 14 27 14 31 -1 48 -15 16 -14 18 6 23 20 5 21 10 14 54 -5 26 -7 55 -6
63 1 8 4 49 7 91 5 65 9 81 30 100 20 19 24 32 24 81 0 47 -3 58 -16 58 -11 0
-14 5 -10 16 3 9 6 20 6 25 0 4 14 15 30 24 17 9 30 24 30 34 0 10 14 46 31
80 28 56 31 72 33 164 2 81 7 112 25 152 12 28 33 62 47 76 19 20 25 35 22 60
-3 36 -16 45 -39 27z"/>
<path d="M4060 5090 c-6 -11 -8 -25 -5 -30 3 -6 26 -10 51 -10 37 0 44 3 44
20 0 39 -71 55 -90 20z"/>
<path d="M4046 5014 c-18 -17 -21 -50 -6 -59 14 -8 13 -45 -1 -45 -7 0 -10
-12 -7 -30 3 -18 0 -31 -9 -34 -7 -3 -18 -17 -23 -31 -5 -14 -25 -35 -44 -46
-19 -11 -37 -28 -41 -37 -4 -9 -9 -49 -12 -88 -4 -48 -2 -73 6 -78 8 -5 5 -15
-9 -33 -11 -14 -20 -38 -20 -52 0 -15 -4 -31 -10 -37 -5 -5 -14 -40 -19 -76
-5 -37 -13 -73 -17 -80 -5 -7 -12 -67 -17 -133 -11 -162 -13 -181 -20 -191 -3
-5 -7 -43 -9 -84 -2 -54 -8 -78 -19 -87 -8 -6 -21 -37 -28 -67 -7 -31 -17 -58
-22 -62 -6 -3 -15 -18 -20 -32 -7 -19 -7 -33 2 -50 11 -19 10 -28 -4 -55 -27
-52 -59 -150 -59 -177 1 -14 4 -42 8 -62 5 -29 1 -45 -15 -71 -25 -40 -26 -66
-6 -93 23 -30 19 -77 -10 -104 -13 -12 -30 -39 -36 -58 -10 -29 -9 -37 4 -46
13 -10 13 -21 2 -85 -7 -40 -18 -77 -24 -81 -7 -4 -11 -20 -9 -36 2 -17 -3
-34 -12 -41 -20 -15 -27 -153 -10 -203 10 -32 10 -46 -4 -88 -10 -28 -27 -63
-38 -77 -19 -24 -20 -31 -9 -79 10 -43 9 -57 -4 -83 -8 -17 -20 -56 -26 -86
-9 -41 -9 -68 -1 -99 9 -34 8 -46 -3 -58 -28 -31 -95 -160 -95 -183 0 -13 6
-29 13 -36 10 -10 9 -14 -5 -22 -10 -6 -18 -21 -18 -34 0 -14 -4 -25 -10 -25
-16 0 -11 -38 7 -48 15 -9 14 -13 -5 -44 -12 -20 -22 -51 -22 -71 0 -20 -5
-48 -12 -61 -9 -22 -8 -29 7 -46 15 -17 16 -22 4 -36 -10 -13 -14 -51 -14
-145 0 -94 -3 -130 -12 -134 -8 -3 -13 -24 -13 -57 -1 -31 -7 -61 -15 -72 -8
-11 -15 -35 -15 -54 0 -26 5 -35 21 -39 20 -6 20 -6 0 -27 -40 -43 -53 -116
-27 -151 17 -24 6 -61 -28 -90 -26 -23 -42 -70 -26 -80 8 -5 7 -11 -1 -21 -17
-21 12 -60 57 -74 42 -14 53 -7 70 42 13 39 33 48 41 19 7 -29 34 -23 51 11 7
15 14 67 15 115 2 70 6 91 20 103 11 10 24 50 37 120 28 153 41 267 34 312 -4
24 -1 54 9 81 8 23 17 89 20 147 7 126 33 330 54 420 8 36 26 126 39 200 36
198 41 223 57 271 8 24 18 68 22 97 5 40 3 58 -8 76 -12 17 -13 26 -4 35 6 6
17 11 24 11 16 0 17 32 2 47 -8 8 -6 20 6 44 26 49 47 158 40 210 -4 32 1 63
15 105 17 49 20 73 15 144 -6 81 -5 87 19 119 30 40 32 56 11 68 -13 8 -11 28
11 158 15 83 33 162 40 177 8 14 19 50 24 79 6 29 17 60 25 69 19 21 19 59 0
66 -12 5 -12 9 1 29 9 14 14 40 13 64 -2 23 2 46 9 53 7 7 12 21 12 31 0 11
10 35 21 54 19 31 21 41 12 80 -10 40 -8 48 9 65 16 16 19 28 13 56 -3 21 -6
52 -6 70 0 21 -7 37 -20 45 -17 11 -15 13 28 28 l48 16 -4 63 c-1 35 -7 75
-12 88 -7 19 -3 33 21 68 16 25 30 51 30 59 0 8 -9 30 -21 49 -12 20 -16 36
-10 36 6 0 11 5 11 11 0 6 14 27 30 46 21 23 30 44 30 68 0 18 -5 35 -10 37
-7 2 -7 25 0 73 5 39 10 80 10 92 0 28 -25 53 -55 53 -13 0 -31 -7 -39 -16z"/>
<path d="M3470 4422 c0 -35 20 -55 52 -50 19 2 23 9 23 38 0 33 -2 35 -37 38
-36 3 -38 2 -38 -26z"/>
<path d="M3414 4268 c-10 -15 32 -48 62 -48 16 0 24 6 24 18 0 10 -5 23 -12
30 -15 15 -65 16 -74 0z"/>
<path d="M3484 4136 c-9 -22 4 -36 32 -36 21 0 25 4 22 23 -4 26 -45 37 -54
13z"/>
<path d="M1910 4100 c0 -11 -7 -23 -15 -26 -8 -3 -24 -22 -36 -41 -16 -26 -20
-45 -16 -79 2 -24 1 -44 -4 -44 -5 0 -9 -15 -9 -33 0 -18 -5 -38 -10 -43 -7
-7 -6 -22 4 -45 10 -23 14 -64 13 -116 -2 -65 1 -85 16 -100 9 -11 17 -34 17
-51 0 -34 -18 -82 -32 -82 -4 0 -8 -7 -8 -15 0 -9 -7 -18 -15 -21 -22 -9 -19
-45 5 -51 11 -3 20 -8 20 -12 0 -3 -11 -23 -25 -43 -29 -43 -31 -66 -9 -82 14
-11 13 -22 -5 -113 -22 -105 -27 -173 -13 -173 4 0 8 -12 7 -27 0 -19 9 -33
32 -48 22 -16 29 -26 22 -36 -5 -8 -9 -28 -9 -44 0 -22 -6 -33 -22 -40 -22 -9
-23 -16 -23 -105 0 -62 -4 -100 -12 -108 -7 -7 -13 -20 -13 -28 0 -8 -4 -14
-10 -14 -5 0 -10 -18 -10 -40 0 -53 24 -64 55 -26 13 17 25 24 29 18 4 -6 -5
-19 -19 -29 -67 -47 -68 -48 -73 -106 -4 -49 -2 -58 14 -64 25 -9 34 -23 34
-54 0 -31 -17 -49 -47 -49 -16 0 -23 -6 -23 -19 0 -10 7 -24 15 -31 8 -7 15
-18 14 -24 0 -7 -2 -6 -6 2 -8 20 -40 14 -46 -10 -3 -12 -1 -31 6 -42 6 -12
10 -31 8 -43 -1 -11 3 -24 8 -28 19 -11 12 -24 -16 -27 -20 -2 -29 -9 -31 -24
-2 -15 3 -23 17 -27 25 -6 28 -35 4 -33 -12 1 -19 -11 -25 -39 -5 -24 -19 -49
-34 -61 -21 -17 -24 -25 -16 -40 7 -14 5 -36 -8 -79 -33 -109 -52 -189 -57
-247 -3 -31 -11 -62 -19 -69 -8 -7 -14 -30 -14 -58 0 -34 -5 -49 -18 -58 -11
-6 -24 -34 -31 -69 -7 -33 -28 -92 -47 -133 -19 -41 -34 -84 -34 -96 0 -26
-26 -82 -51 -110 -10 -11 -45 -57 -78 -102 -61 -83 -221 -259 -334 -367 -34
-32 -89 -76 -122 -98 -32 -21 -62 -43 -65 -48 -9 -15 -277 6 -323 25 -20 8
-37 20 -37 26 0 7 -14 28 -31 48 -88 104 -109 138 -140 230 -32 93 -33 101
-34 255 0 119 3 160 13 164 19 6 14 33 -15 74 -20 30 -23 42 -15 50 18 18 15
94 -4 112 -18 19 -41 21 -46 4 -2 -6 -26 -14 -54 -17 l-49 -6 -3 -104 c-1 -58
2 -117 7 -133 6 -17 6 -30 0 -33 -10 -7 -12 -48 -2 -58 4 -4 5 -56 4 -116 -1
-60 3 -127 9 -150 7 -26 22 -49 40 -63 23 -16 30 -30 30 -54 0 -18 5 -36 11
-40 6 -3 18 -21 26 -38 28 -59 44 -86 53 -86 5 0 16 -16 26 -35 20 -43 87
-105 114 -105 10 0 35 -14 55 -31 23 -20 49 -33 77 -36 24 -3 49 -12 55 -21
11 -13 31 -14 130 -9 65 4 128 10 141 13 13 4 28 17 33 30 5 14 17 24 28 24
10 0 24 7 31 15 7 8 23 15 37 15 13 0 32 4 42 9 28 15 81 64 81 75 0 15 98
106 115 106 15 0 30 34 21 49 -4 5 12 12 35 16 29 5 43 13 49 30 5 13 14 26
20 30 7 4 9 18 6 31 -5 17 -2 24 9 24 8 0 22 12 32 27 9 16 32 42 51 58 20 18
36 44 41 65 6 32 10 35 44 38 33 3 37 6 37 32 0 15 -5 30 -12 32 -6 2 5 17 25
32 26 20 38 39 43 64 4 21 24 83 45 140 22 56 39 110 39 120 0 9 10 37 21 62
12 25 23 68 25 95 5 79 42 227 64 257 11 15 20 32 20 38 0 5 5 10 10 10 6 0
10 14 10 30 0 23 -5 30 -19 30 -10 0 -24 7 -31 15 -7 9 -19 14 -27 11 -8 -3
-12 -2 -9 3 3 5 25 13 49 19 24 6 50 19 59 29 11 13 17 44 20 106 2 70 7 91
21 101 10 8 17 26 17 45 0 17 -4 31 -9 31 -5 0 -11 9 -14 20 -3 12 -14 20 -26
20 -13 0 -21 6 -21 17 0 13 3 14 12 5 7 -7 20 -12 30 -12 12 0 18 8 18 24 0
13 12 45 26 71 25 43 26 51 16 94 -6 28 -7 50 -1 55 5 6 9 36 9 67 0 31 7 94
16 139 8 45 17 109 19 143 2 34 9 141 15 237 6 96 16 243 22 325 19 270 19
316 1 367 -13 37 -14 50 -4 61 11 14 12 40 12 335 0 34 0 70 -1 80 -1 9 2 38
6 65 l7 47 -42 0 c-35 0 -41 -3 -41 -20z m-18 -222 c-6 -6 -11 -1 -15 11 -3
12 -1 24 4 27 5 3 10 26 11 52 2 38 3 35 5 -17 2 -35 0 -68 -5 -73z"/>
<path d="M3375 4031 c-8 -26 4 -51 26 -51 15 0 19 7 19 35 0 28 -4 35 -19 35
-11 0 -22 -8 -26 -19z"/>
<path d="M3376 3705 c-8 -23 4 -45 25 -45 14 0 19 7 19 30 0 23 -5 30 -19 30
-10 0 -21 -7 -25 -15z"/>
<path d="M3363 3584 c-3 -8 -1 -20 5 -26 16 -16 47 -5 50 20 3 18 -1 22 -23
22 -14 0 -28 -7 -32 -16z"/>
<path d="M3336 3271 c-10 -16 6 -42 23 -39 9 2 17 13 19 26 3 16 -2 22 -17 22
-11 0 -22 -4 -25 -9z"/>
<path d="M3310 3150 c0 -16 5 -21 23 -18 12 2 22 10 22 18 0 8 -10 16 -22 18
-18 3 -23 -2 -23 -18z"/>
<path d="M3174 2309 c-8 -14 21 -43 35 -35 6 4 11 16 11 27 0 12 -7 19 -19 19
-11 0 -23 -5 -27 -11z"/>
<path d="M3135 2220 c-3 -6 -1 -26 5 -45 8 -23 18 -35 30 -35 25 0 33 27 17
58 -13 28 -41 40 -52 22z"/>
<path d="M3124 2055 c-4 -9 -2 -21 4 -27 15 -15 44 -1 40 19 -4 23 -36 29 -44
8z"/>
<path d="M3053 1624 c-3 -8 -16 -20 -29 -25 -18 -6 -24 -16 -24 -39 0 -27 3
-30 31 -30 25 0 33 6 42 30 6 17 15 30 19 30 4 0 8 11 8 25 0 18 -5 25 -20 25
-11 0 -23 -7 -27 -16z"/>
<path d="M3037 1353 c-4 -3 -7 -19 -7 -35 0 -21 5 -28 20 -28 20 0 40 27 40
54 0 10 -9 16 -23 16 -13 0 -27 -3 -30 -7z"/>
<path d="M2989 1199 c-19 -19 -16 -49 5 -49 18 0 56 30 56 44 0 23 -40 26 -61
5z"/>
<path d="M181 1166 c-16 -19 -6 -36 20 -36 15 0 20 6 17 22 -4 27 -21 33 -37
14z"/>
<path d="M367 1151 c-10 -23 -16 -27 -29 -20 -11 6 -21 4 -32 -7 -12 -12 -13
-20 -6 -35 13 -23 28 -24 52 -2 17 15 18 15 18 0 0 -18 9 -21 34 -11 21 8 21
67 0 88 -8 9 -18 16 -20 16 -3 0 -10 -13 -17 -29z"/>
<path d="M2887 1143 c-13 -12 -7 -51 9 -67 8 -9 29 -16 46 -16 30 0 30 1 23
37 -4 21 -9 41 -11 45 -6 10 -58 10 -67 1z"/>
<path d="M2974 989 c-8 -14 21 -43 35 -35 6 4 11 16 11 27 0 12 -7 19 -19 19
-11 0 -23 -5 -27 -11z"/>
<path d="M414 935 c-3 -14 -12 -25 -19 -25 -7 0 -15 -6 -17 -12 -8 -21 2 -38
22 -38 10 0 21 6 24 13 3 8 8 7 16 -5 15 -25 50 -23 50 1 0 11 -5 23 -11 27
-8 5 -6 10 5 16 9 5 16 18 16 28 0 17 -7 20 -40 20 -34 0 -41 -4 -46 -25z"/>
<path d="M390 826 c0 -14 -4 -28 -10 -31 -13 -8 -13 -101 0 -126 21 -38 38
-21 50 49 16 90 11 126 -17 130 -19 3 -23 -1 -23 -22z"/>
</g>
</svg>
