<?xml version="1.0" standalone="no"?>
<!DOCTYPE svg PUBLIC "-//W3C//DTD SVG 20010904//EN"
 "http://www.w3.org/TR/2001/REC-SVG-20010904/DTD/svg10.dtd">
<svg version="1.0" xmlns="http://www.w3.org/2000/svg"
 width="237.000000pt" height="627.000000pt" viewBox="0 0 237.000000 627.000000"
 preserveAspectRatio="xMidYMid meet">
<metadata>
Created by potrace 1.16, written by Peter Selinger 2001-2019
</metadata>
<g transform="translate(0.000000,627.000000) scale(0.100000,-0.100000)"
fill="#000000" stroke="none">
<path d="M283 2572 c-21 -13 -33 -62 -32 -125 1 -68 -8 -117 -22 -117 -5 0 -9
-8 -9 -17 0 -10 -7 -26 -15 -36 -7 -11 -11 -25 -8 -33 3 -8 -1 -21 -8 -30 -9
-11 -13 -48 -14 -115 0 -85 -2 -99 -17 -103 -25 -6 -22 -35 4 -45 21 -8 20 -9
-18 -29 -39 -20 -42 -24 -49 -77 -3 -31 -4 -59 -1 -62 3 -3 -1 -12 -9 -19 -13
-13 -35 -97 -35 -134 0 -10 7 -26 16 -34 14 -15 14 -18 -4 -43 -25 -36 -44
-156 -31 -190 7 -20 6 -30 -6 -43 -20 -22 -19 -54 2 -86 9 -15 12 -29 7 -32
-18 -13 -34 -52 -34 -82 0 -17 8 -48 19 -68 44 -88 48 -101 44 -125 -4 -19 1
-29 21 -42 14 -10 26 -24 26 -32 0 -22 42 -73 61 -73 9 0 19 -9 22 -20 4 -15
14 -20 41 -20 25 0 40 -6 48 -20 7 -11 23 -20 35 -20 13 0 23 -4 23 -10 0 -13
167 -13 175 0 3 5 15 10 26 10 15 0 19 7 19 33 1 26 2 29 11 14 5 -9 17 -17
25 -17 8 0 22 -9 31 -20 13 -15 30 -20 64 -20 36 0 55 6 77 25 21 18 32 21 34
13 3 -9 32 -14 89 -16 46 -1 104 -4 129 -5 44 -2 45 -2 44 29 -2 31 -1 31 29
20 25 -9 31 -8 35 4 3 8 20 29 38 46 19 16 39 45 45 62 6 18 15 32 20 32 5 0
9 12 9 26 0 14 7 38 16 54 21 34 12 60 -19 60 -37 0 -66 -40 -78 -107 -9 -53
-13 -60 -30 -56 -12 4 -29 -3 -43 -16 -22 -21 -37 -23 -237 -30 -118 -5 -254
-12 -304 -16 -101 -9 -154 -9 -235 0 -54 6 -55 8 -77 53 -74 160 -83 184 -83
221 0 34 3 41 20 41 16 0 20 7 20 30 0 20 -8 35 -25 46 -23 15 -24 18 -10 37
20 29 19 77 -3 93 -15 12 -14 14 16 24 23 9 32 18 32 34 0 12 -5 27 -10 32 -7
7 -5 25 5 55 9 24 15 62 14 84 -3 47 9 95 23 95 7 0 9 22 5 62 -5 52 -2 69 18
108 34 66 83 300 90 428 1 18 10 38 20 45 21 16 34 79 35 167 0 83 -16 110
-68 110 -20 0 -42 -4 -49 -8z"/>
<path d="M1525 2156 c-23 -16 -14 -46 14 -46 37 0 71 19 71 40 0 16 -7 20 -33
20 -18 0 -42 -6 -52 -14z"/>
<path d="M1445 2070 c-3 -11 -11 -20 -16 -20 -5 0 -9 -9 -9 -20 0 -18 4 -21
28 -19 4 0 10 -10 13 -23 4 -17 0 -24 -15 -28 -16 -5 -22 -15 -24 -48 -2 -24
3 -56 12 -72 14 -28 13 -30 -5 -30 -12 0 -19 -7 -19 -19 0 -10 -7 -35 -15 -54
-17 -41 -20 -153 -5 -191 6 -16 6 -27 0 -31 -15 -9 -12 -45 4 -51 12 -4 13
-12 5 -32 -13 -35 -14 -111 -1 -124 7 -7 7 -16 -1 -30 -10 -16 -9 -21 6 -29 9
-6 17 -21 17 -34 0 -14 4 -25 10 -25 5 0 17 -25 26 -57 9 -31 27 -66 40 -78
16 -15 22 -29 18 -39 -5 -12 2 -20 24 -28 27 -10 31 -18 34 -53 3 -36 6 -40
31 -43 16 -2 37 -11 47 -20 42 -38 56 -48 103 -69 27 -13 61 -23 75 -23 15 0
33 -4 40 -8 7 -5 15 -31 18 -59 6 -46 4 -52 -25 -82 -17 -17 -31 -36 -31 -42
0 -5 -11 -15 -25 -21 -13 -6 -27 -20 -31 -30 -3 -11 -17 -23 -30 -28 -13 -5
-28 -20 -33 -33 -5 -12 -17 -29 -27 -37 -28 -24 -44 -75 -44 -142 0 -87 10
-139 28 -145 8 -4 22 4 33 18 l19 24 6 -23 c4 -12 10 -22 15 -22 5 0 9 -7 9
-15 0 -9 10 -19 22 -24 14 -5 17 -10 10 -15 -7 -4 -12 -22 -12 -40 l0 -33 83
-8 c45 -5 107 -9 137 -9 47 -1 64 5 118 38 40 25 62 45 62 57 0 24 -23 24
-117 2 -63 -14 -77 -15 -114 -3 -23 8 -52 22 -64 32 -13 10 -30 18 -39 18 -8
0 -27 10 -42 23 -25 22 -26 27 -25 117 1 61 -3 96 -10 101 -8 4 -5 9 7 13 11
3 24 16 29 28 7 16 20 24 43 26 l33 3 -7 45 c-4 28 -3 44 4 44 6 0 10 -12 9
-27 -2 -22 3 -29 21 -31 15 -2 22 2 22 12 0 29 38 56 79 56 48 0 71 -8 71 -24
0 -21 120 -186 135 -186 8 0 17 11 21 25 3 14 15 30 25 35 15 9 17 8 12 -7 -4
-10 -14 -23 -22 -29 -13 -10 -13 -16 -3 -39 11 -23 10 -36 -4 -75 -17 -47 -17
-48 4 -75 12 -15 22 -34 22 -41 0 -22 41 -17 47 6 3 13 14 20 29 20 30 0 38
30 30 102 -4 29 -7 72 -7 95 0 48 -18 68 -54 61 -22 -5 -24 -2 -19 18 5 19 -3
34 -32 67 -21 23 -42 44 -46 46 -5 1 -20 13 -32 25 -13 11 -35 29 -49 39 -17
11 -24 23 -20 33 4 11 9 12 16 5 19 -19 48 -12 83 18 31 27 37 29 95 24 l62
-6 -7 41 c-4 28 -3 42 5 42 17 0 6 44 -13 48 -9 2 -26 -7 -38 -20 -23 -25 -25
-26 -120 -34 -36 -3 -79 -12 -97 -20 -17 -8 -35 -14 -40 -14 -5 0 -24 11 -43
25 -19 14 -41 25 -51 25 -9 0 -22 13 -29 30 -17 40 -71 82 -162 125 -42 19
-81 41 -87 48 -10 13 -43 71 -78 139 -8 15 -19 54 -24 87 -6 34 -15 61 -20 61
-5 0 -9 7 -9 15 0 7 -7 18 -15 22 -12 7 -13 16 -4 47 10 38 8 80 -6 139 -4 16
-3 38 3 50 25 51 31 243 8 288 -16 33 -12 59 10 59 15 0 19 35 5 44 -5 3 -12
30 -15 60 -6 42 -13 58 -31 70 -33 21 -52 20 -60 -4z"/>
<path d="M1147 744 c-4 -4 -7 -16 -7 -26 0 -14 6 -19 23 -16 14 2 22 10 22 23
0 20 -25 32 -38 19z"/>
<path d="M2187 144 c-13 -14 -7 -44 9 -44 12 0 14 -5 9 -17 -4 -10 -8 -27 -9
-38 -1 -15 6 -21 26 -23 19 -2 28 2 33 17 3 12 13 21 21 21 9 0 14 11 14 30 0
25 -4 30 -23 30 -13 0 -28 -5 -33 -10 -7 -7 -10 -4 -10 12 1 22 -23 36 -37 22z"/>
</g>
</svg>
