<?xml version="1.0" standalone="no"?>
<!DOCTYPE svg PUBLIC "-//W3C//DTD SVG 20010904//EN"
 "http://www.w3.org/TR/2001/REC-SVG-20010904/DTD/svg10.dtd">
<svg version="1.0" xmlns="http://www.w3.org/2000/svg"
 width="285.000000pt" height="764.000000pt" viewBox="0 0 285.000000 764.000000"
 preserveAspectRatio="xMidYMid meet">
<metadata>
Created by potrace 1.16, written by Peter Selinger 2001-2019
</metadata>
<g transform="translate(0.000000,764.000000) scale(0.100000,-0.100000)"
fill="#000000" stroke="none">
<path d="M745 4680 c-3 -5 -24 -15 -45 -21 -43 -13 -50 -31 -26 -64 8 -12 20
-16 35 -12 14 3 21 1 21 -9 0 -10 -12 -14 -40 -14 -39 0 -40 -1 -40 -33 0 -18
-5 -38 -11 -44 -19 -19 0 -33 43 -33 32 0 41 4 45 20 5 19 6 19 18 4 7 -10 19
-15 29 -11 19 7 22 53 4 61 -10 3 -8 8 4 16 18 11 43 112 34 136 -6 16 -61 19
-71 4z"/>
<path d="M2064 4511 c-17 -4 -44 -18 -60 -30 -24 -18 -47 -22 -129 -26 -85 -4
-102 -8 -114 -25 -16 -24 -36 -25 -75 -5 -15 8 -35 15 -44 15 -9 0 -35 -9 -58
-20 -30 -15 -63 -21 -113 -21 -39 0 -73 -4 -76 -9 -3 -5 -18 -7 -33 -4 -19 4
-33 0 -41 -10 -8 -9 -22 -16 -32 -16 -10 0 -23 -9 -29 -20 -6 -12 -21 -20 -35
-20 -13 0 -28 -7 -33 -16 -7 -12 -27 -15 -95 -16 -48 0 -90 -4 -93 -9 -2 -5
-18 -6 -34 -3 -18 4 -37 0 -51 -10 -13 -9 -40 -16 -61 -16 -27 0 -51 -9 -80
-30 -44 -32 -58 -37 -58 -19 0 6 9 13 20 16 14 4 20 14 20 34 0 26 -3 29 -35
29 -27 0 -35 -4 -35 -18 0 -20 -29 -52 -47 -52 -6 0 -16 7 -23 15 -20 24 -38
17 -65 -25 -14 -22 -32 -40 -40 -40 -8 0 -15 -4 -15 -9 0 -5 -14 -12 -30 -16
-21 -5 -30 -12 -30 -27 0 -11 -8 -22 -19 -25 -42 -11 -37 -73 5 -73 14 0 27 6
29 13 3 6 25 13 49 14 41 1 44 -1 50 -28 3 -16 12 -29 20 -29 23 0 29 -20 12
-39 -9 -10 -16 -25 -16 -34 0 -13 10 -17 38 -18 24 -1 29 -3 14 -6 -13 -3 -28
-14 -33 -26 -8 -17 -5 -34 11 -70 17 -38 26 -47 45 -47 14 0 34 9 45 20 21 21
27 65 9 75 -7 5 -5 13 6 25 24 26 17 91 -12 105 l-21 11 21 9 c11 6 25 24 30
40 12 37 34 63 68 81 35 17 235 58 419 84 190 27 293 46 403 75 49 14 117 27
151 31 34 3 79 12 101 20 22 8 87 19 145 24 58 6 120 13 138 17 20 3 32 1 32
-6 0 -14 33 -14 47 0 14 14 135 29 148 18 5 -5 25 -9 45 -9 25 0 43 -7 56 -21
10 -12 31 -27 46 -35 19 -10 28 -22 28 -38 0 -13 14 -40 30 -61 17 -21 30 -44
30 -51 0 -8 9 -14 20 -14 11 0 20 6 20 13 0 9 11 12 36 9 35 -4 36 -5 29 -38
-5 -30 -3 -34 15 -34 24 0 40 34 40 86 0 24 5 34 15 34 9 0 18 7 21 15 3 8 14
17 25 20 10 4 19 11 19 17 0 6 -8 29 -17 50 -11 24 -26 41 -41 45 -12 3 -26 3
-29 -1 -4 -3 -12 7 -19 24 -7 16 -18 30 -25 30 -6 0 -33 16 -60 36 -34 25 -57
35 -73 32 -18 -4 -27 1 -35 20 -10 21 -16 23 -44 17 -47 -10 -70 -10 -204 -1
-110 7 -123 6 -123 -8 0 -9 -4 -16 -10 -16 -5 0 -10 7 -10 15 0 10 -10 15 -32
14 -18 -1 -47 -4 -64 -8z m576 -171 c10 0 22 -5 25 -11 4 -6 17 -14 29 -19 20
-8 20 -8 2 -16 -14 -5 -23 -2 -34 14 -8 12 -25 22 -38 22 -18 0 -24 5 -24 23
1 20 2 20 11 5 5 -10 19 -18 29 -18z m60 -117 c-14 -9 -29 -23 -35 -29 -8 -10
-13 -10 -23 2 -11 12 -8 17 20 29 46 20 68 19 38 -2z"/>
<path d="M720 4426 c0 -13 3 -38 6 -55 5 -22 12 -31 26 -31 10 0 21 6 24 14 3
8 0 32 -6 55 -8 30 -16 41 -30 41 -14 0 -20 -7 -20 -24z"/>
<path d="M670 4334 c-15 -39 -12 -46 18 -42 22 2 28 8 30 36 3 27 0 32 -18 32
-13 0 -24 -9 -30 -26z"/>
<path d="M580 4304 c0 -27 20 -54 40 -54 16 0 20 7 20 35 0 32 -2 35 -30 35
-21 0 -30 -5 -30 -16z"/>
<path d="M2583 4104 c-8 -21 10 -36 38 -32 16 2 25 11 27 26 3 19 -1 22 -28
22 -19 0 -33 -6 -37 -16z"/>
<path d="M544 3705 c-4 -9 -2 -21 4 -27 15 -15 44 -1 40 19 -4 23 -36 29 -44
8z"/>
<path d="M612 3698 c2 -17 -5 -29 -28 -45 -17 -12 -34 -31 -37 -42 -2 -11 1
-32 9 -47 8 -14 14 -37 14 -50 0 -28 67 -96 89 -92 13 3 17 20 19 83 2 44 0
90 -3 102 -3 12 -14 31 -26 41 l-20 19 21 6 c32 8 22 41 -13 45 -25 3 -28 0
-25 -20z"/>
<path d="M515 3390 c-3 -10 1 -33 10 -49 13 -26 13 -38 4 -76 -13 -50 -8 -153
8 -163 5 -4 12 -15 16 -24 9 -26 44 -22 62 6 9 13 20 66 26 122 6 55 13 121
16 148 l5 49 -46 -5 c-26 -3 -49 -2 -52 3 -10 16 -43 9 -49 -11z"/>
<path d="M525 3031 c-3 -11 -12 -22 -20 -25 -21 -8 -19 -43 3 -56 16 -10 16
-10 0 -20 -10 -6 -18 -19 -18 -28 0 -10 -4 -22 -9 -27 -6 -6 -13 -41 -16 -80
-3 -38 -13 -93 -22 -122 -12 -38 -14 -60 -7 -84 9 -31 8 -35 -21 -49 -21 -10
-30 -22 -29 -37 0 -18 -5 -23 -24 -23 -22 0 -24 -3 -18 -34 4 -22 0 -47 -13
-76 -11 -24 -17 -49 -14 -56 2 -6 14 -15 26 -19 21 -7 20 -8 -6 -12 -16 -3
-31 -11 -34 -19 -3 -8 5 -26 18 -40 19 -20 24 -39 29 -118 4 -55 12 -101 19
-110 8 -9 12 -17 10 -19 -2 -1 -13 -7 -24 -13 -21 -12 -34 -64 -16 -64 19 0
12 -31 -11 -50 -19 -15 -21 -21 -10 -31 19 -20 15 -86 -8 -109 -26 -26 -36
-68 -21 -91 6 -10 17 -37 25 -59 13 -37 12 -40 -5 -40 -14 0 -19 -7 -19 -28 0
-15 5 -33 12 -40 9 -9 9 -12 0 -12 -7 0 -12 -9 -12 -21 0 -12 8 -23 20 -26 11
-3 20 -9 20 -14 0 -5 14 -9 30 -9 17 0 30 4 30 9 0 5 9 11 20 14 22 6 27 36 9
54 -14 14 3 48 31 63 21 11 28 60 8 60 -6 0 -4 7 5 18 21 23 22 46 2 62 -20
17 -19 50 1 50 13 0 15 8 12 36 -3 29 -1 38 14 42 10 2 18 13 18 25 0 28 -39
107 -57 114 -9 4 -2 11 19 22 42 21 45 55 6 59 -17 2 -25 8 -22 16 3 7 -9 30
-26 51 -16 21 -30 38 -30 39 0 0 30 1 67 1 61 0 68 2 71 21 2 11 -4 27 -13 34
-21 17 -19 39 7 59 31 26 17 48 -39 63 -26 7 -40 14 -30 16 9 2 17 9 17 15 0
7 5 4 11 -5 13 -24 46 -23 59 1 14 27 13 71 -2 71 -9 0 -9 3 0 12 7 7 12 20
12 31 0 13 -6 18 -22 15 -17 -2 -22 -9 -21 -24 2 -16 -4 -23 -22 -26 -14 -3
-27 -3 -30 0 -10 11 -5 40 10 52 8 7 15 21 15 32 0 18 2 18 22 4 12 -9 33 -16
45 -16 31 0 46 41 37 95 -4 22 -7 59 -6 83 1 23 -3 42 -9 42 -6 0 -6 6 0 18 5
9 14 60 20 112 7 52 16 99 21 106 11 12 -10 95 -30 119 -18 22 -57 19 -65 -4z"/>
<path d="M1144 2735 c-4 -9 -2 -21 4 -27 15 -15 44 -1 40 19 -4 23 -36 29 -44
8z"/>
<path d="M1260 2710 c0 -16 7 -20 30 -20 23 0 30 4 30 20 0 16 -7 20 -30 20
-23 0 -30 -4 -30 -20z"/>
<path d="M1380 2686 c-44 -23 -85 -33 -105 -25 -29 11 -93 11 -100 -1 -4 -6
-22 -17 -41 -25 -24 -10 -34 -20 -32 -32 3 -15 20 -17 178 -16 l175 1 3 25 c4
31 -12 63 -36 76 -12 6 -26 5 -42 -3z"/>
<path d="M906 2672 c-3 -5 -24 -9 -46 -10 -23 -1 -47 -5 -53 -9 -7 -4 -30 -8
-52 -8 -29 0 -40 -4 -40 -15 0 -8 13 -21 29 -29 26 -12 31 -12 42 3 11 16 13
16 19 -3 7 -22 30 -27 54 -12 15 9 59 -9 72 -31 7 -10 13 -10 27 -1 13 8 23 8
30 1 14 -14 52 8 52 32 0 10 -6 21 -12 23 -10 4 -10 6 0 6 18 1 15 41 -4 48
-10 4 -22 -1 -29 -11 -12 -15 -13 -15 -18 4 -4 14 -13 20 -35 20 -17 0 -33 -4
-36 -8z"/>
<path d="M1507 2663 c-4 -3 -7 -13 -7 -21 0 -9 -7 -24 -17 -34 -15 -17 -15
-20 8 -44 l24 -26 -23 6 c-16 5 -24 3 -29 -10 -8 -21 21 -44 54 -44 14 0 35
-13 53 -33 27 -31 87 -67 133 -82 11 -3 21 -14 24 -25 6 -23 38 -27 50 -6 4 7
19 13 33 12 19 -1 26 5 28 21 3 17 -3 24 -25 29 -46 10 -49 12 -25 19 15 5 22
15 22 32 0 18 -9 28 -43 42 -23 10 -55 35 -70 55 -30 38 -57 46 -77 21 -7 -8
-17 -12 -23 -8 -6 4 -1 10 11 14 32 12 27 38 -8 46 -17 3 -35 14 -41 24 -10
19 -39 25 -52 12z"/>
<path d="M756 2551 c-10 -16 6 -42 23 -39 9 2 17 13 19 26 3 16 -2 22 -17 22
-11 0 -22 -4 -25 -9z"/>
<path d="M664 2505 c-4 -9 -2 -21 4 -27 15 -15 44 -1 40 19 -4 23 -36 29 -44
8z"/>
<path d="M1865 2418 c-3 -7 -1 -26 3 -43 11 -41 48 -47 62 -10 13 35 -3 65
-36 65 -13 0 -27 -6 -29 -12z"/>
<path d="M1940 2351 c0 -6 -12 -14 -27 -17 -42 -10 -53 -23 -53 -61 0 -37 21
-53 44 -34 11 10 16 7 22 -11 4 -13 24 -39 44 -60 27 -26 53 -40 92 -48 29 -7
64 -10 78 -9 20 3 26 11 28 37 2 17 7 32 13 32 15 0 10 40 -6 46 -8 4 -15 17
-15 31 0 22 -4 25 -25 21 -14 -3 -25 -2 -25 2 0 3 -23 11 -52 16 -44 8 -53 13
-58 34 -4 18 -13 26 -33 28 -15 2 -27 -1 -27 -7z m147 -177 c-3 -3 -12 -4 -19
-1 -8 3 -5 6 6 6 11 1 17 -2 13 -5z"/>
<path d="M2290 2099 c0 -8 -15 -10 -49 -5 l-50 7 6 -58 c2 -32 6 -63 8 -69 3
-11 20 -14 143 -29 l52 -7 0 31 c0 20 -6 34 -16 38 -9 3 -14 13 -11 25 3 10 0
24 -7 31 -7 6 -15 20 -19 30 -7 19 -57 24 -57 6z"/>
<path d="M2337 1863 c-4 -3 -7 -16 -7 -28 0 -13 -6 -28 -13 -34 -10 -7 -14
-38 -15 -98 -2 -175 -62 -387 -138 -487 -19 -25 -34 -48 -34 -51 0 -3 -18 -31
-41 -61 -35 -48 -40 -61 -35 -89 5 -27 3 -35 -12 -40 -13 -3 -22 -18 -26 -43
-11 -67 -9 -74 22 -70 21 2 28 9 30 30 3 21 10 29 30 34 46 10 52 13 59 30 4
10 -1 22 -11 30 -22 16 -13 54 14 54 22 0 80 53 80 73 0 9 -12 19 -26 24 l-26
9 27 32 c23 27 30 30 42 20 13 -10 18 -8 33 10 10 12 23 22 29 22 6 0 11 16
11 35 0 19 5 44 10 55 6 11 15 29 20 40 6 11 10 29 10 39 0 11 5 23 11 26 6 4
8 13 5 21 -7 19 21 109 39 124 19 16 19 54 0 70 -14 12 -14 15 1 31 12 13 14
28 10 56 -6 33 -4 39 16 48 17 7 24 20 26 48 2 27 -1 39 -13 43 -8 4 -22 1
-29 -6 -11 -8 -20 -8 -35 -1 -22 12 -54 14 -64 4z"/>
<path d="M905 1670 c-3 -11 -3 -24 0 -30 3 -5 -1 -10 -11 -10 -14 0 -16 -7
-10 -50 5 -39 3 -54 -9 -66 -12 -12 -15 -40 -15 -124 0 -62 -4 -111 -10 -115
-15 -9 -12 -51 5 -65 14 -11 14 -15 1 -29 -8 -9 -16 -45 -19 -81 -8 -106 -24
-178 -47 -217 -15 -26 -20 -46 -15 -69 7 -38 24 -54 61 -57 22 -2 29 3 35 23
4 14 7 44 8 67 1 23 5 53 11 67 11 29 59 463 61 552 1 33 -2 70 -5 82 -5 15
-3 24 8 28 18 7 31 63 21 93 -9 29 -61 29 -70 1z"/>
<path d="M396 1362 c-3 -5 -18 -7 -34 -4 -16 2 -32 -1 -36 -6 -4 -6 -22 -8
-41 -5 -34 6 -35 5 -35 -30 0 -22 -6 -37 -15 -41 -21 -7 -19 -43 3 -55 16 -10
16 -10 0 -11 -22 0 -23 -23 -3 -40 14 -11 13 -14 -5 -27 -11 -8 -20 -22 -20
-32 0 -10 13 -43 28 -74 17 -34 25 -60 19 -66 -5 -5 -7 -19 -5 -32 4 -31 37
-38 45 -10 7 26 19 27 32 2 8 -15 7 -20 -7 -25 -9 -3 -25 -11 -34 -18 -14 -10
-20 -10 -30 4 -10 13 -22 15 -52 10 -35 -6 -41 -12 -48 -41 -6 -20 -5 -53 2
-84 9 -42 8 -53 -6 -68 -21 -24 -11 -53 16 -46 11 3 20 4 20 3 0 0 4 -15 9
-32 8 -28 7 -31 -10 -27 -28 8 -66 -5 -73 -23 -4 -9 0 -26 8 -38 9 -15 11 -35
7 -66 -4 -25 -12 -54 -19 -66 -6 -11 -9 -30 -5 -42 4 -17 1 -20 -14 -16 -29 8
-46 -20 -40 -66 4 -33 1 -41 -19 -55 -26 -16 -32 -50 -11 -58 9 -3 9 -9 -2
-28 -7 -12 -16 -51 -19 -86 l-5 -63 29 0 c36 0 51 9 55 35 2 10 15 22 28 25
30 7 47 56 56 161 4 44 12 85 19 90 6 5 27 24 47 42 l37 32 5 120 c5 93 3 126
-8 145 -8 14 -14 28 -15 32 0 4 17 8 37 10 35 3 38 5 44 43 4 21 12 41 18 43
6 2 11 21 11 42 0 29 5 40 19 45 14 4 20 19 25 67 9 89 8 96 -14 115 -12 10
-20 30 -20 47 0 20 -11 41 -32 63 l-32 33 31 0 c33 0 63 22 63 45 0 8 6 18 13
22 20 13 51 79 44 97 -7 17 -52 22 -61 8z"/>
<path d="M1878 840 c-16 -16 -28 -34 -28 -40 0 -6 -16 -20 -35 -31 -48 -29
-54 -58 -18 -96 16 -17 37 -33 48 -36 35 -11 47 6 44 62 -2 28 -1 51 3 51 4 0
11 12 14 28 4 15 13 34 21 43 15 17 8 49 -11 49 -6 -1 -23 -14 -38 -30z"/>
<path d="M1635 616 c-26 -40 -328 -215 -405 -236 -25 -6 -52 -18 -61 -26 -9
-8 -18 -11 -22 -8 -4 4 -17 0 -30 -9 -14 -9 -49 -17 -78 -19 l-54 -3 1 -48 c0
-31 6 -53 18 -65 16 -16 18 -16 35 7 11 14 36 30 58 36 31 9 41 9 52 -2 7 -8
27 -13 44 -11 31 3 32 4 30 47 -2 43 -1 43 26 38 16 -3 50 -9 78 -12 38 -6 52
-4 62 9 7 9 20 16 28 16 8 0 23 20 34 44 20 47 27 50 117 62 46 6 52 9 52 30
0 16 7 24 23 26 16 2 23 11 25 32 2 16 10 40 19 52 18 28 9 64 -17 64 -11 0
-26 -11 -35 -24z"/>
<path d="M280 390 c0 -12 12 -26 31 -36 23 -11 28 -19 20 -27 -17 -17 -13 -52
10 -81 29 -37 49 -34 49 8 0 30 5 37 38 53 45 22 55 57 20 67 -13 3 -39 6 -59
6 -20 0 -42 7 -49 15 -7 8 -23 15 -36 15 -17 0 -24 -6 -24 -20z"/>
<path d="M486 329 c-17 -14 -26 -29 -24 -43 2 -16 10 -21 33 -21 23 -1 33 -7
43 -28 9 -18 21 -27 38 -27 17 0 24 6 24 19 0 10 -7 24 -15 31 -11 9 -12 16
-4 26 6 7 9 23 7 36 -2 18 -10 24 -39 26 -24 2 -44 -4 -63 -19z"/>
<path d="M715 280 c-3 -5 -2 -18 4 -28 6 -11 6 -24 0 -35 -7 -12 -4 -25 13
-47 12 -17 29 -29 38 -28 8 2 16 16 18 31 2 15 9 27 17 27 11 0 13 -8 9 -30
-6 -27 -4 -30 20 -30 28 0 43 21 30 42 -4 7 -8 23 -8 37 -1 18 -9 27 -31 34
-16 5 -37 16 -46 23 -18 16 -55 18 -64 4z"/>
<path d="M904 196 c-9 -24 4 -48 23 -44 12 2 18 12 18 28 0 29 -32 41 -41 16z"/>
</g>
</svg>
