<?xml version="1.0" standalone="no"?>
<!DOCTYPE svg PUBLIC "-//W3C//DTD SVG 20010904//EN"
 "http://www.w3.org/TR/2001/REC-SVG-20010904/DTD/svg10.dtd">
<svg version="1.0" xmlns="http://www.w3.org/2000/svg"
 width="227.000000pt" height="627.000000pt" viewBox="0 0 227.000000 627.000000"
 preserveAspectRatio="xMidYMid meet">
<metadata>
Created by potrace 1.16, written by Peter Selinger 2001-2019
</metadata>
<g transform="translate(0.000000,627.000000) scale(0.100000,-0.100000)"
fill="#000000" stroke="none">
<path d="M1940 2110 c-8 -5 -23 -11 -32 -14 -21 -6 -32 -73 -26 -161 3 -42 0
-66 -7 -69 -20 -7 -46 -75 -56 -141 -5 -35 -20 -103 -34 -151 -14 -47 -25 -98
-25 -112 0 -13 -7 -30 -15 -36 -8 -6 -19 -32 -23 -57 -5 -25 -19 -56 -30 -67
-12 -12 -22 -29 -22 -38 0 -16 -84 -181 -101 -199 -5 -5 -9 -27 -9 -48 0 -27
-7 -47 -21 -61 -11 -12 -40 -49 -65 -83 -59 -81 -239 -252 -333 -315 -89 -61
-171 -138 -171 -161 0 -10 7 -20 15 -23 9 -4 15 -19 15 -40 0 -41 17 -44 58
-9 17 14 36 25 44 25 8 0 23 9 33 20 10 11 26 22 36 25 13 4 19 16 19 36 0 22
5 29 20 29 11 0 25 8 31 18 8 12 20 17 35 14 16 -3 36 8 71 40 26 25 56 48 66
51 10 4 23 20 28 37 6 16 14 30 18 30 4 0 13 11 19 25 7 15 20 25 32 25 31 0
37 29 10 50 -19 15 -21 20 -10 39 6 13 25 27 40 33 16 5 32 19 36 30 4 15 11
18 31 13 19 -4 26 -1 30 15 5 20 37 27 59 12 6 -4 23 -36 37 -71 23 -56 24
-65 11 -79 -13 -13 -13 -16 0 -31 10 -11 12 -21 6 -27 -14 -14 -16 -107 -2
-112 7 -2 12 -19 12 -37 0 -19 5 -37 10 -40 6 -3 10 -24 10 -45 0 -21 5 -42
11 -46 6 -3 9 -28 7 -57 -3 -48 -1 -52 24 -65 15 -7 49 -15 75 -18 43 -5 51
-3 80 23 27 24 34 39 39 85 6 50 4 57 -17 72 -13 9 -39 16 -58 16 -32 0 -33 1
-16 14 11 8 16 21 13 33 -3 13 2 24 14 32 14 9 19 20 15 37 -2 13 0 24 4 24 5
0 9 17 9 39 0 24 -8 48 -21 65 -11 14 -25 26 -30 26 -5 0 -14 -10 -19 -22 -7
-19 -9 -15 -9 21 -1 36 5 51 27 74 26 27 27 34 30 139 l4 110 -31 -7 c-31 -7
-31 -7 -19 22 7 15 18 32 25 36 8 5 13 32 13 74 0 37 6 82 12 101 11 31 11 35
-10 50 -21 16 -22 22 -15 87 8 70 8 70 41 73 26 3 32 7 32 28 0 13 -4 24 -10
24 -5 0 -10 16 -10 35 0 32 2 35 30 35 25 0 30 4 30 23 0 13 -5 28 -11 34 -8
8 -8 17 1 33 6 12 9 28 6 35 -3 8 -21 17 -40 21 -20 3 -36 9 -36 13 0 20 50
128 69 149 12 13 21 35 21 48 0 14 7 27 15 30 8 4 15 15 15 25 0 13 -7 19 -24
19 -14 0 -27 4 -30 9 -4 5 3 7 14 4 24 -6 39 22 21 40 -9 9 -16 9 -30 0 -16
-10 -20 -9 -24 8 -4 14 -14 19 -39 18 -18 0 -40 -4 -48 -9z m-243 -1146 c-2
-3 -11 -2 -20 2 -15 5 -15 8 -2 27 8 12 16 31 17 42 1 11 3 0 5 -24 3 -23 2
-45 0 -47z"/>
<path d="M2107 1045 c-23 -23 -22 -66 2 -72 12 -3 17 -11 14 -23 -3 -10 -11
-21 -19 -24 -20 -8 -17 -33 6 -56 16 -16 18 -25 10 -40 -14 -27 -12 -51 6 -64
11 -8 22 -59 38 -174 13 -90 26 -165 28 -167 2 -3 21 0 41 6 30 8 37 15 37 35
0 16 -7 27 -22 33 l-22 8 22 5 c24 7 31 43 10 51 -10 3 -10 7 -1 19 9 11 11
37 7 94 -4 43 -11 84 -15 90 -5 6 -6 25 -3 43 6 29 5 31 -21 31 -26 0 -27 2
-21 38 14 81 18 159 9 165 -6 4 -28 9 -50 13 -30 4 -44 2 -56 -11z"/>
<path d="M890 373 c-23 -8 -239 -132 -295 -169 -27 -18 -62 -36 -78 -40 -15
-3 -31 -12 -35 -19 -4 -6 -15 -16 -25 -22 -25 -13 -155 30 -185 62 -13 14 -27
25 -32 25 -6 0 -10 6 -10 14 0 13 -35 39 -104 78 -57 33 -126 18 -126 -27 0
-14 4 -25 9 -25 5 0 11 -9 14 -20 3 -12 14 -20 25 -20 19 0 20 -2 6 -27 -7
-16 -14 -41 -14 -56 0 -27 2 -28 30 -22 26 6 30 4 30 -15 0 -29 58 -80 92 -80
15 0 29 4 33 10 3 5 12 7 20 3 9 -3 22 0 30 7 12 10 15 9 15 -9 0 -15 6 -21
22 -21 21 0 66 12 116 31 14 6 31 5 43 -2 15 -8 24 -7 35 2 9 7 40 16 71 20
39 5 63 15 82 33 15 15 47 32 71 39 36 10 45 18 55 47 10 31 17 36 52 41 23 3
59 13 82 24 38 16 41 21 41 56 0 74 -22 99 -70 82z"/>
<path d="M2190 340 c0 -17 5 -21 28 -18 16 2 27 9 27 18 0 9 -11 16 -27 18
-23 3 -28 -1 -28 -18z"/>
<path d="M1847 254 c-4 -4 -7 -16 -7 -26 0 -14 6 -19 23 -16 14 2 22 10 22 23
0 20 -25 32 -38 19z"/>
</g>
</svg>
