<?xml version="1.0" standalone="no"?>
<!DOCTYPE svg PUBLIC "-//W3C//DTD SVG 20010904//EN"
 "http://www.w3.org/TR/2001/REC-SVG-20010904/DTD/svg10.dtd">
<svg version="1.0" xmlns="http://www.w3.org/2000/svg"
 width="201.000000pt" height="764.000000pt" viewBox="0 0 201.000000 764.000000"
 preserveAspectRatio="xMidYMid meet">
<metadata>
Created by potrace 1.16, written by Peter Selinger 2001-2019
</metadata>
<g transform="translate(0.000000,764.000000) scale(0.100000,-0.100000)"
fill="#000000" stroke="none">
<path d="M725 1990 c-9 -15 4 -30 26 -30 12 0 19 7 19 20 0 13 -7 20 -19 20
-11 0 -23 -4 -26 -10z"/>
<path d="M428 1943 c-16 -8 -28 -20 -28 -28 0 -23 32 -34 107 -34 83 0 103 13
85 54 -11 23 -17 25 -74 24 -35 -1 -75 -8 -90 -16z"/>
<path d="M845 1930 c-3 -11 -12 -20 -20 -20 -18 0 -24 -21 -13 -42 10 -20 38
-24 55 -7 13 13 33 4 33 -15 0 -22 76 -84 116 -95 21 -6 42 -7 46 -3 13 13 -9
82 -33 101 -13 11 -41 24 -61 31 -21 6 -48 24 -60 40 -25 35 -54 39 -63 10z"/>
<path d="M732 1928 c-17 -21 2 -40 34 -36 21 2 29 8 29 23 0 14 -8 21 -26 23
-14 2 -31 -3 -37 -10z"/>
<path d="M300 1900 c0 -16 5 -21 23 -18 12 2 22 10 22 18 0 8 -10 16 -22 18
-18 3 -23 -2 -23 -18z"/>
<path d="M342 1848 c4 -30 43 -33 43 -3 0 13 -8 21 -23 23 -20 3 -23 0 -20
-20z"/>
<path d="M1168 1710 c-16 -16 -28 -36 -28 -45 0 -13 7 -16 30 -13 17 3 33 1
36 -4 8 -12 58 -10 72 4 7 7 12 25 12 40 0 20 -5 28 -18 28 -10 0 -23 -5 -29
-11 -8 -8 -13 -5 -18 10 -3 12 -12 21 -18 21 -7 -1 -24 -14 -39 -30z"/>
<path d="M1315 1670 c-9 -15 4 -30 26 -30 12 0 19 7 19 20 0 13 -7 20 -19 20
-11 0 -23 -4 -26 -10z"/>
<path d="M1248 1618 c-7 -19 2 -38 16 -38 7 0 20 -18 29 -40 17 -43 40 -52 57
-21 17 33 12 61 -14 70 -13 5 -26 17 -29 25 -7 19 -53 21 -59 4z"/>
<path d="M95 1529 l-7 -70 -45 -22 c-37 -18 -43 -26 -41 -47 2 -20 9 -26 35
-28 18 -2 38 2 45 7 7 6 39 32 71 58 55 45 58 50 53 83 -3 19 -13 40 -22 45
-9 6 -24 18 -33 28 -8 9 -23 17 -32 17 -14 0 -18 -14 -24 -71z"/>
<path d="M1396 1501 c-3 -4 -2 -28 2 -52 7 -40 10 -44 40 -47 31 -3 32 -2 26
30 -12 75 -14 78 -39 78 -13 0 -26 -4 -29 -9z"/>
<path d="M1474 1456 c-7 -19 12 -53 37 -67 43 -23 65 14 33 59 -17 25 -62 30
-70 8z"/>
<path d="M1460 1342 c0 -11 7 -25 15 -32 8 -7 15 -25 15 -41 0 -22 5 -29 19
-29 13 0 23 11 31 35 6 19 10 45 8 57 -2 19 -10 24 -45 26 -37 3 -43 0 -43
-16z"/>
<path d="M1435 1270 c-9 -15 4 -30 26 -30 12 0 19 7 19 20 0 13 -7 20 -19 20
-11 0 -23 -4 -26 -10z"/>
<path d="M1530 1211 c0 -26 17 -36 35 -21 18 15 8 40 -16 40 -12 0 -19 -7 -19
-19z"/>
<path d="M1534 1126 c-3 -7 -4 -33 -2 -57 3 -39 6 -44 28 -44 23 0 25 3 21 45
-3 45 -15 70 -33 70 -5 0 -11 -6 -14 -14z"/>
<path d="M1465 1038 c4 -24 11 -47 15 -52 5 -5 16 -6 24 -3 19 8 22 67 4 85
-7 7 -20 12 -31 12 -17 0 -18 -5 -12 -42z"/>
<path d="M1434 926 c-3 -9 -1 -23 5 -30 22 -26 -7 -27 -33 -1 -24 24 -31 25
-140 25 -71 0 -117 -4 -121 -11 -5 -7 -29 -8 -70 -4 -62 7 -63 7 -72 -21 -10
-29 -10 -29 -94 -29 -80 0 -84 -1 -87 -22 -2 -16 2 -23 12 -23 24 0 94 -73
112 -115 l16 -38 176 6 c200 8 299 21 324 44 15 13 21 13 47 2 17 -8 31 -18
31 -23 0 -13 113 4 131 20 11 10 46 15 114 17 l99 2 27 70 c15 39 25 73 22 77
-2 4 -34 17 -71 28 -48 14 -93 20 -157 19 -90 -1 -186 6 -237 17 -20 5 -29 2
-34 -10z"/>
<path d="M1955 747 c-3 -7 -1 -26 4 -40 7 -17 18 -27 31 -27 18 0 21 5 18 38
-2 30 -7 38 -26 40 -12 2 -24 -3 -27 -11z"/>
<path d="M860 700 c0 -16 7 -20 30 -20 23 0 30 4 30 20 0 16 -7 20 -30 20 -23
0 -30 -4 -30 -20z"/>
<path d="M1577 494 c-4 -4 -7 -18 -7 -31 0 -21 4 -24 28 -21 21 2 27 8 27 28
0 18 -6 26 -20 28 -12 2 -24 0 -28 -4z"/>
<path d="M1435 299 c-4 -5 1 -21 9 -34 12 -18 26 -25 47 -25 17 0 39 5 50 10
21 12 25 35 7 46 -19 12 -106 15 -113 3z"/>
<path d="M164 268 c-4 -6 3 -19 17 -29 13 -10 36 -28 52 -40 36 -28 57 -19 57
25 0 25 -6 38 -19 46 -26 14 -98 13 -107 -2z"/>
<path d="M486 204 c-4 -9 0 -24 8 -33 14 -15 11 -16 -25 -13 -34 4 -39 2 -39
-18 0 -18 5 -21 38 -18 24 2 41 -2 48 -12 10 -11 17 -12 38 -2 22 10 26 9 26
-4 0 -10 7 -14 23 -12 14 2 22 10 22 23 0 14 -6 20 -22 19 -12 0 -20 3 -17 8
10 16 -8 48 -27 48 -11 0 -22 7 -25 15 -8 20 -40 19 -48 -1z"/>
<path d="M354 176 c-9 -24 4 -48 23 -44 12 2 18 12 18 28 0 29 -32 41 -41 16z"/>
<path d="M703 138 c-18 -23 -22 -45 -10 -57 16 -16 81 -14 122 3 24 10 35 22
35 35 0 25 -43 39 -65 21 -10 -9 -15 -9 -15 -1 0 15 -55 14 -67 -1z"/>
<path d="M926 135 c-3 -9 -18 -15 -36 -15 -25 0 -30 -4 -30 -23 0 -13 5 -28
12 -35 19 -19 56 -14 63 8 3 11 13 20 21 20 9 0 14 11 14 30 0 23 -5 30 -19
30 -10 0 -21 -7 -25 -15z"/>
<path d="M980 133 c0 -9 7 -25 17 -35 15 -17 15 -18 0 -18 -12 0 -17 -9 -17
-28 0 -15 5 -33 12 -40 7 -7 27 -12 46 -12 l35 0 -5 49 c-6 63 -30 101 -63
101 -17 0 -25 -6 -25 -17z"/>
<path d="M1093 143 c-16 -6 -17 -65 -1 -81 7 -7 25 -12 41 -12 28 0 29 1 22
43 -4 23 -9 45 -12 50 -5 8 -31 8 -50 0z"/>
</g>
</svg>
