<?xml version="1.0" standalone="no"?>
<!DOCTYPE svg PUBLIC "-//W3C//DTD SVG 20010904//EN"
 "http://www.w3.org/TR/2001/REC-SVG-20010904/DTD/svg10.dtd">
<svg version="1.0" xmlns="http://www.w3.org/2000/svg"
 width="504.000000pt" height="627.000000pt" viewBox="0 0 504.000000 627.000000"
 preserveAspectRatio="xMidYMid meet">
<metadata>
Created by potrace 1.16, written by Peter Selinger 2001-2019
</metadata>
<g transform="translate(0.000000,627.000000) scale(0.100000,-0.100000)"
fill="#000000" stroke="none">
<path d="M1331 5092 c-20 -21 -42 -57 -49 -80 -7 -23 -26 -56 -42 -72 -19 -20
-30 -41 -30 -60 0 -16 -4 -32 -10 -35 -5 -3 -19 -28 -31 -55 -12 -27 -27 -55
-35 -61 -8 -6 -14 -29 -14 -50 0 -28 -4 -39 -15 -39 -18 0 -20 -31 -3 -48 9
-9 8 -12 -3 -15 -69 -20 -74 -23 -77 -50 -2 -15 -7 -27 -12 -27 -5 0 -11 -13
-15 -30 -4 -16 -10 -30 -15 -30 -15 0 -22 -85 -12 -123 9 -33 8 -37 -9 -37
-10 0 -26 -11 -35 -25 -12 -19 -15 -42 -12 -100 4 -80 17 -107 42 -86 10 8 16
35 19 74 2 49 4 43 5 -30 2 -86 0 -97 -28 -148 -16 -30 -30 -62 -30 -70 0 -8
-8 -22 -19 -32 -10 -10 -22 -32 -25 -50 -4 -17 -14 -37 -22 -44 -8 -6 -14 -17
-14 -23 0 -7 -11 -27 -25 -46 -20 -28 -25 -45 -25 -97 0 -62 1 -64 29 -69 l28
-6 -50 -91 c-27 -51 -52 -109 -55 -129 -2 -21 -8 -38 -13 -38 -4 0 -11 -9 -14
-20 -3 -11 -12 -20 -19 -20 -35 0 -96 -207 -77 -261 11 -32 0 -88 -23 -125 -9
-13 -14 -28 -12 -33 3 -5 -6 -16 -20 -25 -17 -12 -23 -23 -19 -36 3 -10 1 -21
-5 -25 -5 -3 -10 -19 -10 -35 0 -16 -7 -35 -15 -44 -21 -21 -45 -80 -45 -112
0 -15 -9 -33 -22 -44 -20 -16 -23 -30 -28 -111 -5 -88 -6 -94 -27 -97 -17 -2
-23 -10 -23 -27 0 -14 9 -29 20 -35 11 -6 20 -19 20 -29 0 -10 -13 -32 -30
-49 -16 -18 -30 -38 -30 -46 0 -8 -7 -16 -15 -20 -8 -3 -15 -16 -15 -30 0 -14
-5 -28 -11 -32 -7 -4 -9 -24 -6 -49 2 -24 2 -47 -2 -52 -3 -5 -14 -12 -23 -16
-19 -7 -24 -32 -8 -42 6 -4 4 -15 -5 -28 -8 -13 -14 -38 -14 -57 1 -19 -6 -48
-15 -65 -9 -16 -16 -49 -16 -72 0 -23 -5 -45 -10 -48 -6 -3 -10 -26 -10 -50 0
-40 2 -44 28 -48 l27 -4 -27 -2 c-22 -1 -29 -8 -38 -38 -6 -21 -13 -60 -17
-88 -3 -27 -11 -59 -17 -70 -6 -11 -11 -29 -12 -40 -1 -11 -11 -42 -22 -70
-34 -82 -73 -216 -70 -239 1 -11 -2 -27 -7 -35 -4 -8 -11 -50 -13 -92 -4 -68
-2 -81 16 -104 15 -19 20 -38 18 -65 -2 -20 -7 -43 -12 -51 -4 -8 -11 -34 -15
-59 -4 -25 -15 -72 -23 -105 -16 -62 -21 -192 -8 -211 4 -6 19 -14 33 -17 20
-5 30 -17 41 -52 9 -25 11 -45 7 -45 -5 0 -9 -13 -9 -28 0 -31 27 -62 53 -62
9 0 28 19 43 41 14 23 34 44 45 46 12 3 19 14 19 29 0 13 -11 67 -25 120 -14
53 -25 118 -25 145 0 27 7 92 15 145 9 52 13 99 10 104 -3 5 -1 19 6 32 6 12
15 94 20 182 6 137 11 172 35 236 14 41 27 94 28 117 0 24 4 43 9 43 4 0 7 7
7 15 0 9 11 48 25 88 26 74 49 167 60 247 3 25 20 74 37 110 25 53 29 73 25
114 -3 36 -10 54 -27 66 -18 14 -20 18 -7 23 8 3 26 29 40 59 89 189 118 259
124 294 3 21 15 55 26 74 11 19 26 66 34 105 8 38 21 81 28 96 8 14 17 56 21
91 6 58 4 66 -12 73 -18 7 -17 8 4 14 19 5 31 27 63 111 24 62 43 130 46 165
4 58 11 83 38 135 7 14 21 54 30 90 9 36 22 82 30 103 8 20 15 53 15 71 0 18
7 39 15 46 8 7 15 17 15 23 0 6 12 40 26 75 18 47 24 76 20 101 -3 19 -2 40 3
45 5 6 14 36 21 66 16 73 86 290 116 362 13 32 24 68 24 81 0 14 7 30 15 37 8
7 15 24 15 38 0 14 10 46 22 70 15 31 18 49 12 60 -7 11 -4 21 12 37 13 13 27
46 34 81 7 32 16 68 21 79 4 11 30 81 57 155 72 196 123 360 117 371 -4 5 -27
9 -52 9 -40 0 -51 -5 -82 -38z m-767 -2610 c-1 -6 -2 -24 -3 -39 l-2 -28 -10
24 c-7 17 -15 22 -29 18 -20 -5 -19 2 3 31 12 16 42 12 41 -6z m-14 -82 c0 -5
-6 -10 -14 -10 -8 0 -18 5 -21 10 -3 6 3 10 14 10 12 0 21 -4 21 -10z"/>
<path d="M4800 4494 c0 -9 -9 -18 -20 -21 -23 -6 -82 -120 -84 -162 0 -14 -9
-32 -18 -39 -10 -7 -18 -19 -18 -26 0 -7 -7 -27 -16 -44 -9 -18 -14 -49 -12
-74 3 -41 5 -43 33 -42 17 0 35 -5 41 -11 9 -9 7 -14 -7 -23 -14 -9 -25 -10
-40 -2 -28 15 -57 4 -74 -30 -20 -39 -19 -55 6 -72 17 -11 20 -20 15 -43 -6
-26 -11 -30 -39 -30 -39 0 -48 -27 -15 -43 20 -9 17 -10 -25 -9 -33 1 -51 -3
-57 -13 -13 -21 -12 -30 4 -36 8 -3 11 -14 9 -28 -7 -35 17 -44 40 -15 15 17
18 19 14 6 -4 -10 -7 -23 -7 -28 0 -6 -17 -9 -37 -7 -35 3 -38 1 -41 -24 -2
-20 4 -31 22 -44 14 -9 26 -23 26 -30 0 -19 -14 -18 -30 1 -19 23 -54 15 -58
-13 -2 -12 -12 -26 -22 -32 -22 -12 -40 -61 -40 -112 0 -25 -5 -41 -15 -44
-10 -4 -15 -20 -15 -48 0 -60 -9 -82 -36 -95 -31 -14 -31 -39 0 -51 13 -5 27
-14 31 -19 3 -6 -10 -20 -29 -32 -38 -22 -49 -44 -45 -87 2 -18 -5 -39 -19
-56 -23 -30 -30 -76 -11 -76 5 0 7 -4 4 -10 -3 -5 -14 -10 -24 -10 -25 0 -43
-24 -43 -55 0 -14 -8 -31 -18 -38 -9 -7 -22 -22 -28 -34 -15 -27 -16 -63 -2
-63 6 0 10 -4 10 -10 0 -5 -9 -10 -20 -10 -24 0 -37 -25 -23 -43 14 -16 -12
-77 -32 -77 -26 0 -28 -28 -5 -57 20 -26 20 -28 4 -40 -10 -7 -28 -13 -41 -13
-15 0 -23 -6 -23 -16 0 -12 -7 -15 -25 -12 -36 7 -57 -12 -53 -47 2 -24 8 -30
28 -31 29 0 50 -11 50 -24 0 -6 -11 -5 -26 0 -14 6 -41 10 -59 10 -26 0 -39
-6 -51 -25 -22 -34 -10 -48 36 -41 37 6 39 4 49 -27 6 -19 24 -43 40 -55 l29
-21 -18 -48 c-25 -67 -42 -181 -29 -205 8 -14 6 -25 -4 -42 -12 -17 -15 -57
-13 -183 1 -144 -1 -162 -16 -172 -10 -6 -18 -22 -18 -35 0 -17 7 -26 25 -30
21 -5 25 -12 25 -44 0 -25 -3 -33 -9 -23 -5 8 -16 11 -25 8 -11 -4 -16 -19
-16 -42 0 -44 15 -75 36 -75 8 0 12 -5 9 -10 -3 -6 -17 -10 -31 -10 -19 0 -24
-5 -24 -24 0 -14 5 -28 10 -31 6 -3 10 -17 10 -30 0 -13 8 -30 18 -37 24 -17
44 -116 28 -140 -9 -15 -8 -21 4 -28 8 -5 25 -10 38 -10 26 0 28 -6 7 -26 -8
-9 -15 -25 -15 -36 0 -12 -7 -29 -15 -38 -9 -10 -18 -33 -22 -52 -4 -30 0 -40
26 -67 17 -17 31 -40 31 -50 0 -10 7 -22 16 -25 9 -3 14 -13 10 -21 -3 -9 6
-22 23 -35 16 -11 33 -20 39 -20 5 0 15 -7 23 -16 10 -12 10 -22 0 -50 -15
-41 -7 -71 19 -79 11 -4 23 -17 26 -31 4 -14 13 -24 24 -24 29 0 84 22 108 43
l22 20 0 -25 c0 -21 7 -29 35 -38 43 -14 122 -3 145 20 14 14 28 17 59 13 38
-5 41 -4 41 19 0 13 -5 29 -12 36 -15 15 -84 16 -93 2 -4 -7 -11 -8 -18 -2 -7
5 -27 13 -45 17 -19 4 -57 27 -85 52 -48 43 -52 51 -73 134 -12 48 -32 109
-43 135 -13 28 -21 68 -21 100 0 30 -3 54 -7 54 -5 0 -7 28 -6 62 1 43 -3 65
-13 73 -8 5 -17 37 -20 73 -5 49 -14 71 -36 100 -29 36 -29 37 -9 40 12 2 25
11 30 21 6 9 13 124 16 255 4 143 11 246 17 256 15 23 3 50 -22 50 -13 0 -20
-7 -20 -20 0 -11 -4 -20 -10 -20 -5 0 -10 20 -10 45 0 33 5 50 20 62 11 10 20
28 20 40 0 12 9 27 20 33 26 14 27 65 3 79 -21 11 -10 27 22 33 16 3 21 13 25
55 3 28 13 60 23 70 19 21 23 53 7 53 -5 0 -10 13 -10 28 0 17 10 38 24 52 14
12 28 37 32 54 3 17 11 36 16 43 17 21 27 84 18 108 -7 18 -5 24 10 28 10 2
26 21 35 41 13 27 16 49 11 87 -6 46 -5 51 14 56 15 4 20 13 20 40 0 20 9 46
20 60 11 14 20 38 20 53 0 19 8 33 26 45 25 16 26 19 20 88 l-7 72 43 36 c24
20 53 39 66 43 17 6 22 15 22 40 0 17 -5 37 -11 43 -9 9 -7 11 9 7 11 -3 29
-1 40 5 24 13 55 88 50 122 -2 16 4 27 17 34 13 7 24 28 30 60 6 27 16 50 23
53 7 2 12 15 12 28 0 13 4 24 9 24 11 0 51 80 51 102 0 9 -7 24 -16 32 -14 15
-14 16 5 16 17 0 21 6 21 35 0 19 5 35 10 35 6 0 15 11 20 25 5 14 14 25 20
25 17 0 11 26 -10 45 -19 17 -19 18 3 35 18 15 22 30 25 92 4 73 5 75 28 70
20 -4 24 0 24 20 0 13 5 29 11 35 14 14 39 111 39 156 0 34 -2 37 -23 32 -15
-4 -28 -1 -36 9 -16 19 -101 22 -101 5 0 -7 -9 0 -21 15 -23 29 -59 35 -59 10z
m-56 -813 c-5 -6 -34 20 -34 30 0 5 8 1 18 -8 10 -10 17 -20 16 -22z m-734
-1361 c0 -5 -7 -7 -15 -4 -8 4 -15 8 -15 10 0 2 7 4 15 4 8 0 15 -4 15 -10z
m200 -1670 c0 -5 -2 -10 -4 -10 -3 0 -8 5 -11 10 -3 6 -1 10 4 10 6 0 11 -4
11 -10z"/>
<path d="M3079 4252 c-8 -12 -20 -17 -35 -14 -35 6 -70 -22 -100 -79 -28 -57
-57 -179 -48 -203 5 -12 0 -16 -20 -16 -32 0 -46 -25 -46 -85 0 -30 -5 -47
-14 -51 -7 -3 -16 -23 -20 -44 -3 -21 -15 -54 -25 -72 -11 -18 -24 -52 -31
-75 -8 -33 -17 -44 -36 -49 -25 -6 -49 -47 -38 -65 3 -5 -6 -9 -20 -9 -34 0
-34 -29 -1 -58 14 -12 25 -27 25 -33 0 -6 -7 -3 -16 5 -20 21 -37 20 -57 -2
-21 -23 -33 -77 -18 -86 16 -10 1 -36 -25 -47 -18 -6 -24 -16 -24 -39 0 -16 4
-30 8 -30 5 0 9 -13 9 -30 0 -16 -4 -30 -8 -30 -11 0 -9 -92 2 -106 6 -7 4
-16 -6 -24 -8 -7 -15 -23 -15 -35 0 -21 -3 -23 -40 -18 -39 6 -40 5 -40 -26 0
-19 6 -34 15 -37 8 -3 17 -14 20 -25 4 -11 15 -19 27 -19 17 0 19 -4 13 -22
-4 -13 -12 -43 -18 -68 -10 -38 -15 -45 -34 -42 -21 3 -23 0 -23 -49 0 -29 -6
-59 -13 -68 -21 -24 -34 -64 -71 -216 -19 -77 -42 -165 -50 -195 -9 -30 -16
-65 -16 -77 0 -18 6 -23 24 -23 14 0 30 10 40 25 11 17 26 25 46 25 40 0 48
-18 12 -31 -17 -6 -38 -25 -51 -49 -12 -22 -26 -40 -32 -40 -5 0 -9 -17 -9
-39 0 -30 -4 -40 -20 -44 -12 -3 -20 -14 -20 -27 0 -25 -19 -46 -45 -52 -14
-2 -22 -16 -28 -48 -4 -25 -6 -55 -4 -67 3 -16 -1 -23 -17 -25 -19 -3 -21 -10
-21 -63 -1 -51 -6 -69 -38 -119 -20 -33 -37 -71 -37 -84 0 -13 -7 -30 -15 -38
-24 -24 -19 -72 11 -99 26 -24 64 -34 64 -17 0 5 17 14 38 20 24 8 48 26 70
54 26 34 32 51 32 90 0 33 5 50 14 54 21 8 44 74 52 149 5 43 12 69 21 72 19
8 73 123 73 157 0 16 12 50 27 77 24 42 26 52 16 79 -6 16 -7 30 -2 30 5 0 9
9 9 19 0 11 5 23 10 26 6 3 10 19 10 36 0 16 4 29 9 29 20 0 39 31 45 73 8 55
-6 97 -34 97 -16 0 -20 -7 -20 -32 0 -49 -11 -80 -25 -74 -7 2 -21 -2 -32 -9
-10 -8 -27 -14 -38 -14 -17 0 -15 2 8 15 29 16 34 33 15 52 -10 10 -10 15 2
22 8 5 23 10 32 10 18 0 22 14 33 123 6 54 9 58 41 72 23 9 34 21 34 34 0 12
-4 21 -10 21 -23 0 -7 32 28 54 27 17 41 36 54 73 10 28 31 67 48 88 28 35 32
49 35 117 1 14 6 32 11 40 13 17 40 93 49 138 4 19 10 37 14 40 3 3 14 32 23
65 38 138 61 212 78 250 24 55 60 167 60 186 0 9 7 30 15 45 8 16 15 37 15 47
0 9 5 17 10 17 6 0 10 7 10 15 0 8 9 19 20 25 12 6 20 21 20 35 0 14 9 33 20
42 11 10 20 24 20 33 0 8 20 64 45 125 46 112 54 164 33 210 -8 18 -19 25 -40
25 -15 0 -28 5 -28 10 0 17 -29 11 -41 -8z m-239 -816 c0 -3 -4 -8 -10 -11 -5
-3 -10 -1 -10 4 0 6 5 11 10 11 6 0 10 -2 10 -4z m-244 -241 c-3 -9 -11 -13
-16 -10 -8 5 -7 11 1 21 14 18 24 11 15 -11z m124 10 c11 -13 8 -15 -14 -15
-25 0 -33 10 -19 23 10 11 19 8 33 -8z m-30 -309 c0 -9 -30 -14 -35 -6 -4 6 3
10 14 10 12 0 21 -2 21 -4z"/>
<path d="M2407 3013 c-4 -3 -7 -15 -7 -25 0 -11 7 -18 19 -18 23 0 34 23 18
39 -13 13 -21 14 -30 4z"/>
<path d="M2349 2884 c-10 -12 -10 -20 -1 -35 10 -16 9 -19 -3 -19 -17 0 -19
-21 -6 -67 6 -20 6 -35 0 -38 -14 -10 -11 -42 6 -49 23 -9 45 4 51 30 6 25 2
67 -10 95 -5 12 -1 18 13 22 15 4 21 13 21 35 0 29 -14 42 -45 42 -7 0 -18 -7
-26 -16z"/>
<path d="M2360 2640 c-7 -14 -21 -20 -43 -20 -18 0 -38 -5 -45 -12 -17 -17
-15 -44 4 -62 20 -21 64 -21 64 -1 0 9 6 18 13 21 8 3 24 19 36 35 18 24 20
33 11 45 -17 19 -27 18 -40 -6z"/>
<path d="M2288 2483 c-10 -21 -21 -28 -41 -28 -16 -1 -32 -7 -38 -15 -5 -8 -9
-34 -9 -57 0 -30 4 -43 14 -43 7 0 19 7 26 15 9 11 17 12 30 5 25 -13 50 12
50 51 0 16 5 38 12 48 13 22 5 51 -16 51 -8 0 -21 -12 -28 -27z"/>
<path d="M2141 2354 c-8 -28 -6 -43 6 -70 18 -36 47 -45 57 -18 3 8 1 24 -4
34 -6 10 -10 35 -10 54 0 29 -4 36 -20 36 -13 0 -22 -10 -29 -36z"/>
<path d="M2185 2230 c-9 -15 14 -40 31 -33 8 3 14 14 14 24 0 12 -7 19 -19 19
-11 0 -23 -5 -26 -10z"/>
<path d="M3786 2201 c-10 -11 -16 -30 -15 -43 2 -14 -5 -32 -19 -46 -33 -33
-31 -39 28 -109 12 -15 40 -6 40 12 0 7 7 18 15 25 8 7 15 21 15 31 0 11 5 19
10 19 19 0 10 39 -12 51 -20 11 -20 13 -5 24 21 15 22 41 1 49 -26 10 -40 7
-58 -13z"/>
<path d="M3897 2214 c-12 -13 -7 -52 7 -57 18 -7 39 17 34 40 -3 18 -29 29
-41 17z"/>
<path d="M2025 2070 c-9 -15 14 -40 31 -33 8 3 14 14 14 24 0 12 -7 19 -19 19
-11 0 -23 -5 -26 -10z"/>
<path d="M2264 2069 c-4 -7 1 -18 11 -25 13 -10 23 -10 37 -3 11 6 17 16 15
22 -5 16 -53 21 -63 6z"/>
<path d="M3654 2055 c-4 -9 -2 -21 4 -27 15 -15 44 -1 40 19 -4 23 -36 29 -44
8z"/>
<path d="M1970 1980 c0 -21 34 -45 50 -35 6 3 10 17 10 31 0 20 -5 24 -30 24
-23 0 -30 -4 -30 -20z"/>
<path d="M3589 1968 c-36 -36 -59 -84 -59 -122 0 -16 -9 -32 -25 -42 -14 -9
-25 -24 -25 -34 0 -21 -29 -80 -39 -80 -17 0 -51 -42 -51 -63 0 -15 -16 -36
-44 -60 -29 -23 -47 -48 -51 -69 -4 -18 -16 -44 -27 -59 -12 -16 -18 -38 -16
-55 3 -26 7 -29 45 -32 57 -4 83 11 83 48 0 16 -5 32 -11 35 -6 4 -2 15 11 28
41 41 80 100 80 119 0 18 1 18 16 3 27 -27 56 -14 92 40 29 42 33 56 28 90 -8
52 -8 76 -2 82 3 3 20 8 38 12 20 4 34 14 36 24 3 12 -5 19 -28 24 -28 5 -30
7 -14 16 13 7 19 7 22 -1 5 -17 42 -15 48 3 3 8 21 23 40 34 59 35 55 70 -8
71 -16 0 -28 5 -28 10 0 6 -18 10 -39 10 -31 0 -46 -7 -72 -32z"/>
<path d="M1930 1893 c-29 -11 -50 -36 -50 -60 0 -17 6 -23 21 -23 11 0 34 9
51 21 46 33 29 81 -22 62z"/>
<path d="M1800 1755 c0 -28 4 -35 20 -35 22 0 44 34 36 56 -3 8 -17 14 -31 14
-22 0 -25 -4 -25 -35z"/>
<path d="M1760 1692 c0 -11 7 -25 15 -32 21 -18 47 -5 43 22 -2 17 -11 24 -30
26 -22 3 -28 -1 -28 -16z"/>
<path d="M1720 1576 c0 -32 20 -44 36 -22 16 23 7 46 -17 46 -13 0 -19 -7 -19
-24z"/>
<path d="M1675 1513 c-9 -8 -15 -25 -13 -37 4 -28 53 -36 60 -9 11 46 -19 75
-47 46z"/>
<path d="M3196 1338 c-9 -12 -16 -30 -16 -39 0 -23 25 -41 52 -37 20 3 23 9
23 48 0 38 -3 45 -22 48 -13 2 -27 -5 -37 -20z"/>
<path d="M1624 1296 c-9 -24 4 -48 23 -44 24 4 24 52 0 56 -9 2 -20 -4 -23
-12z"/>
<path d="M2170 1290 c-8 -5 -36 -10 -62 -10 -27 0 -48 -4 -48 -9 0 -4 5 -22
11 -38 8 -25 7 -37 -9 -64 -11 -20 -27 -34 -38 -34 -14 0 -19 -7 -19 -25 0
-14 -8 -31 -17 -38 -10 -7 -18 -24 -18 -37 0 -14 7 -25 18 -28 16 -4 16 -5 0
-6 -11 -1 -18 -9 -18 -23 0 -12 -8 -30 -17 -40 -13 -14 -15 -23 -7 -36 8 -11
7 -24 -3 -43 -8 -15 -19 -66 -25 -114 -9 -64 -9 -94 -1 -116 9 -24 7 -51 -9
-135 -15 -80 -17 -108 -8 -119 9 -10 9 -19 0 -35 -9 -17 -8 -29 6 -58 11 -24
17 -56 16 -90 -1 -30 2 -52 8 -52 5 0 10 -7 10 -16 0 -9 9 -18 20 -21 11 -3
20 -8 20 -12 0 -13 68 -43 91 -39 19 2 24 9 24 31 -1 15 2 27 5 27 3 0 14 -7
24 -15 11 -8 30 -15 43 -15 16 0 23 6 23 20 0 16 7 20 34 20 18 0 54 11 80 25
26 14 55 25 65 25 30 0 99 59 111 95 14 41 44 65 82 65 21 0 28 5 28 20 0 11
-6 20 -12 21 -7 0 -1 5 15 11 15 5 27 13 27 16 0 4 20 6 45 4 l45 -4 0 51 c0
29 5 51 10 51 6 0 23 12 38 28 15 15 45 34 67 42 30 12 41 22 43 41 2 18 -3
29 -20 37 -19 9 -20 11 -5 11 10 1 36 10 58 22 31 15 40 25 36 40 -4 13 9 33
39 63 47 48 55 78 27 95 -16 9 -14 10 9 11 19 0 31 9 47 35 11 20 27 38 36 41
8 4 15 18 15 34 0 37 34 78 73 88 19 5 33 16 36 27 2 10 10 25 18 33 8 8 11
21 7 31 -4 9 -9 28 -12 44 -4 25 -8 27 -53 27 -44 0 -51 -3 -61 -27 -20 -44
-74 -126 -97 -147 -11 -11 -21 -25 -21 -31 0 -7 -7 -18 -15 -25 -8 -7 -15 -23
-15 -36 0 -16 -10 -28 -29 -39 -33 -16 -75 -67 -86 -102 -3 -13 -10 -23 -15
-23 -4 0 -22 -22 -40 -50 -17 -27 -40 -52 -51 -55 -10 -4 -24 -15 -29 -26 -6
-11 -31 -42 -55 -69 -25 -28 -45 -55 -45 -60 0 -6 -4 -10 -10 -10 -5 0 -27
-16 -47 -35 -110 -100 -258 -226 -299 -254 -49 -32 -94 -40 -112 -18 -16 19
-52 163 -52 207 0 21 4 41 9 44 14 9 21 62 11 95 -5 20 -5 33 2 37 6 4 8 28 5
62 -5 44 -2 61 12 81 30 42 49 220 24 228 -7 3 -2 14 13 30 13 14 24 37 24 49
0 13 9 33 20 44 20 20 28 70 11 70 -6 0 -11 24 -13 52 -3 55 -17 69 -48 48z"/>
<path d="M1495 1250 c-8 -16 -15 -38 -15 -50 0 -15 6 -20 25 -20 28 0 45 25
45 69 0 24 -4 31 -20 31 -11 0 -26 -12 -35 -30z"/>
<path d="M1452 1128 c4 -30 43 -33 43 -3 0 13 -8 21 -23 23 -20 3 -23 0 -20
-20z"/>
<path d="M1386 1078 c-9 -12 -16 -28 -16 -35 0 -7 -12 -27 -27 -43 -49 -53
-53 -59 -53 -78 0 -10 -18 -36 -40 -57 -22 -21 -40 -47 -40 -56 0 -10 12 -21
28 -27 26 -8 25 -9 -20 -16 -53 -8 -107 -41 -125 -75 -6 -14 -19 -28 -27 -33
-9 -5 -16 -19 -16 -31 0 -15 -35 -52 -115 -122 -63 -55 -118 -107 -121 -117
-3 -10 -31 -37 -62 -61 -42 -32 -59 -52 -67 -80 -8 -27 -14 -34 -22 -26 -23
23 -153 -71 -153 -112 0 -15 -4 -17 -24 -9 -13 5 -62 10 -108 12 -80 3 -83 2
-86 -20 -2 -13 2 -30 8 -38 9 -10 9 -14 1 -14 -6 0 -11 -9 -11 -20 0 -17 7
-20 50 -20 43 0 50 3 50 19 0 18 2 19 39 4 50 -20 104 -11 129 22 13 16 26 22
40 19 14 -4 24 1 31 15 7 12 21 21 31 21 17 0 20 7 21 48 1 39 2 42 8 17 7
-34 38 -46 48 -18 4 10 15 24 25 31 10 7 18 21 18 31 0 19 24 44 52 54 9 3 19
19 23 36 5 24 12 31 30 31 20 0 24 6 27 37 2 28 10 40 33 54 17 10 45 18 62
18 25 1 36 7 47 30 9 16 22 31 31 34 10 4 15 19 15 44 0 39 31 103 50 103 5 0
10 8 10 18 0 13 13 21 43 29 51 14 94 50 78 66 -16 16 -14 24 9 30 13 3 32 32
55 83 34 74 83 133 113 134 6 0 12 7 12 16 0 22 -39 74 -55 74 -8 0 -21 -10
-29 -22z"/>
</g>
</svg>
