<?xml version="1.0" standalone="no"?>
<!DOCTYPE svg PUBLIC "-//W3C//DTD SVG 20010904//EN"
 "http://www.w3.org/TR/2001/REC-SVG-20010904/DTD/svg10.dtd">
<svg version="1.0" xmlns="http://www.w3.org/2000/svg"
 width="236.000000pt" height="764.000000pt" viewBox="0 0 236.000000 764.000000"
 preserveAspectRatio="xMidYMid meet">
<metadata>
Created by potrace 1.16, written by Peter Selinger 2001-2019
</metadata>
<g transform="translate(0.000000,764.000000) scale(0.100000,-0.100000)"
fill="#000000" stroke="none">
<path d="M801 2794 c-11 -25 -13 -26 -25 -9 -17 23 -46 13 -46 -16 0 -11 -9
-32 -20 -46 -11 -14 -20 -35 -20 -47 0 -16 -2 -18 -9 -7 -13 20 -41 6 -41 -20
0 -19 -4 -21 -30 -15 -22 4 -32 1 -36 -9 -10 -25 16 -45 58 -45 37 0 40 2 36
23 -5 27 10 44 35 39 22 -4 67 23 67 41 0 20 51 65 82 72 33 8 52 30 44 50 -3
10 -19 15 -44 15 -32 0 -41 -4 -51 -26z"/>
<path d="M1225 2630 c-3 -5 -1 -19 5 -30 8 -14 21 -20 45 -20 28 0 35 4 35 20
0 29 -70 54 -85 30z"/>
<path d="M504 2543 c-4 -16 -16 -38 -27 -50 -18 -20 -19 -26 -8 -46 21 -39 10
-70 -31 -92 -56 -30 -78 -108 -35 -124 22 -9 21 -9 -8 -22 -39 -17 -65 -39
-65 -56 0 -7 7 -13 16 -13 12 0 14 -3 6 -12 -5 -7 -12 -24 -14 -38 -2 -15 -14
-30 -29 -37 -40 -20 -53 -62 -46 -153 5 -62 3 -82 -8 -94 -8 -8 -15 -23 -15
-34 0 -10 17 -41 37 -67 33 -44 37 -55 37 -113 1 -52 5 -66 21 -77 46 -32 111
-81 127 -97 22 -22 37 -23 44 -3 9 21 24 19 24 -4 0 -22 54 -71 79 -71 9 0 26
7 39 15 19 14 24 14 51 0 34 -17 81 -20 81 -4 0 6 8 8 19 4 10 -3 23 1 30 9
11 13 18 10 48 -19 37 -36 70 -44 91 -23 9 9 12 -5 12 -65 0 -65 -3 -78 -19
-87 -25 -13 -36 -47 -21 -65 7 -9 8 -15 0 -20 -5 -3 -10 -22 -10 -41 0 -25 -8
-43 -27 -62 -27 -27 -42 -77 -43 -148 0 -22 -5 -45 -12 -52 -14 -14 -25 -279
-14 -336 6 -30 11 -36 32 -36 17 0 28 7 31 20 3 11 11 20 18 20 7 0 27 3 44 6
32 7 32 7 19 -22 -6 -16 -20 -40 -29 -54 -10 -14 -19 -39 -21 -55 -2 -24 -9
-31 -31 -35 -22 -4 -34 -16 -50 -50 -18 -36 -30 -48 -62 -59 -22 -7 -86 -16
-142 -18 -89 -5 -105 -8 -123 -28 -17 -18 -21 -33 -18 -76 3 -52 4 -54 33 -54
25 0 30 5 36 33 4 18 10 36 13 40 10 9 26 -19 26 -45 0 -39 36 -28 64 20 21
35 26 38 26 19 0 -34 18 -62 39 -62 24 0 42 22 50 63 6 28 11 32 38 32 22 0
33 -5 37 -18 2 -9 8 -17 14 -17 21 0 63 44 81 86 11 24 27 47 35 50 10 4 36
-15 72 -50 34 -33 66 -56 79 -56 12 0 30 -9 41 -21 12 -13 27 -19 41 -16 13 2
23 0 23 -4 0 -19 34 -8 67 21 18 16 38 30 43 30 11 0 40 -29 40 -41 0 -5 9 -9
20 -9 11 0 20 5 20 11 0 8 4 8 14 -1 12 -9 24 -7 59 8 24 11 48 25 51 31 4 6
20 11 36 11 42 0 60 10 71 38 9 24 10 24 29 7 16 -15 26 -15 70 -6 67 15 90
27 90 51 0 15 7 20 29 20 15 0 40 9 54 20 14 11 30 20 35 20 12 0 52 66 52 86
0 8 -5 14 -12 14 -6 0 -3 9 7 20 10 11 24 20 32 20 7 0 13 7 13 15 0 22 28 18
35 -4 7 -22 29 -33 51 -24 23 9 82 90 89 124 4 16 11 29 16 29 5 0 9 16 9 35
0 24 5 35 15 35 16 0 30 41 22 69 -3 14 0 17 20 13 21 -4 24 -1 21 19 -2 18
-9 24 -25 23 -13 0 -23 1 -23 3 0 2 12 8 26 13 21 8 25 15 22 42 -3 32 -4 33
-55 36 -41 2 -53 0 -53 -11 0 -8 -7 -20 -15 -27 -8 -7 -15 -25 -15 -40 0 -23
-6 -30 -34 -40 -37 -12 -83 -57 -143 -141 -20 -28 -51 -60 -69 -72 -17 -12
-71 -52 -118 -89 -146 -115 -214 -140 -387 -142 -77 -1 -122 -5 -130 -13 -13
-13 -25 -5 -103 72 -82 81 -91 100 -101 201 -5 53 -3 81 10 122 10 28 15 61
12 72 -3 10 1 24 8 30 18 15 8 40 -16 40 -16 0 -17 3 -7 19 10 16 9 23 -6 40
-18 20 -16 51 3 51 15 0 59 80 67 123 7 39 -8 84 -33 100 -18 11 -16 36 3 44
8 3 14 15 13 27 -1 11 3 34 9 49 7 16 12 38 12 50 0 12 14 116 30 232 27 187
29 211 15 221 -21 15 -19 31 5 44 14 7 20 21 20 45 0 18 -4 37 -10 40 -18 11
-10 31 31 73 l40 42 -30 31 c-34 33 -38 60 -16 99 8 14 14 41 15 60 0 33 2 35
32 35 17 0 33 5 35 12 2 6 -4 19 -14 30 -11 10 -24 30 -30 44 -9 20 -21 28
-52 33 -23 3 -41 11 -41 16 0 6 -7 10 -16 10 -11 0 -14 5 -9 18 14 34 17 89 6
96 -6 4 -11 18 -11 31 0 13 -4 26 -8 29 -16 10 -52 -25 -60 -57 -6 -22 -15
-33 -31 -35 -17 -3 -21 -9 -19 -26 1 -13 -5 -31 -15 -40 -21 -22 -22 -46 -1
-46 14 0 14 -2 3 -16 -7 -9 -14 -43 -15 -75 0 -33 -4 -62 -8 -66 -12 -13 -6
-44 17 -76 12 -18 25 -33 30 -35 4 -2 7 -17 7 -33 0 -22 -6 -32 -24 -38 -26
-11 -36 -30 -36 -70 0 -14 -7 -36 -15 -48 -8 -12 -20 -44 -26 -72 -6 -28 -15
-51 -20 -51 -5 0 -9 -7 -9 -15 0 -8 -8 -22 -19 -32 -10 -10 -24 -35 -30 -55
-16 -48 -89 -115 -136 -124 -57 -10 -154 5 -225 36 -36 15 -78 32 -95 37 -21
7 -31 18 -37 40 -6 21 -17 35 -36 41 -15 6 -21 11 -14 11 16 1 15 22 -3 57
-20 38 -20 163 0 211 8 19 15 45 15 57 0 12 15 51 34 86 18 36 41 86 51 113
10 26 22 47 26 47 5 0 9 16 9 35 0 22 8 43 21 56 15 15 20 30 17 50 -3 16 -1
29 3 29 17 0 69 53 69 70 0 29 -39 60 -77 60 -27 0 -34 -4 -39 -27z m546
-1047 c0 -11 -19 -15 -25 -6 -3 5 1 10 9 10 9 0 16 -2 16 -4z m53 -711 c-3 -9
-8 -14 -10 -11 -3 3 -2 9 2 15 9 16 15 13 8 -4z m17 -34 c0 -6 -4 -13 -10 -16
-5 -3 -10 1 -10 9 0 9 5 16 10 16 6 0 10 -4 10 -9z"/>
<path d="M852 1258 c2 -25 8 -33 23 -33 16 0 20 7 20 30 0 24 -5 31 -23 33
-21 3 -23 0 -20 -30z"/>
<path d="M2289 931 c-6 -16 -17 -32 -25 -35 -8 -3 -14 -15 -14 -26 0 -18 6
-20 55 -20 l55 0 0 33 c0 56 -10 77 -37 77 -18 0 -27 -8 -34 -29z"/>
<path d="M343 793 c-18 -12 -23 -25 -23 -59 0 -39 3 -44 23 -44 26 0 47 17 47
39 0 8 7 22 16 32 36 40 -15 66 -63 32z"/>
<path d="M104 566 c-15 -61 30 -90 63 -40 12 19 14 30 6 43 -5 9 -22 17 -36
19 -21 3 -28 -2 -33 -22z"/>
<path d="M240 515 c-5 -14 -10 -30 -10 -34 0 -5 -7 -14 -16 -22 -10 -8 -14
-23 -11 -43 4 -32 -10 -87 -26 -97 -18 -12 -1 -54 30 -74 20 -13 32 -28 33
-42 0 -13 6 -23 13 -23 7 0 18 -9 24 -20 7 -11 27 -23 45 -28 21 -5 38 -18 46
-35 7 -15 19 -27 27 -27 8 0 22 -11 31 -25 9 -14 24 -25 34 -25 13 0 19 10 22
35 2 19 2 51 0 70 -3 26 -9 35 -22 35 -10 0 -21 -6 -23 -12 -4 -8 -6 -7 -6 3
-1 19 -21 29 -57 29 -13 0 -24 5 -24 10 0 6 -11 10 -24 10 -13 0 -29 7 -36 15
-7 8 -18 15 -24 15 -17 0 -17 88 0 150 17 62 15 151 -3 158 -7 2 -17 -8 -23
-23z"/>
<path d="M63 493 c-7 -3 -13 -17 -13 -33 0 -16 -7 -30 -15 -34 -8 -3 -15 -14
-15 -25 0 -11 -5 -23 -10 -26 -6 -3 -10 -15 -10 -26 0 -12 7 -19 18 -19 21 0
52 29 52 48 0 7 6 12 14 12 22 0 27 15 20 59 -6 40 -18 52 -41 44z"/>
<path d="M137 193 c-14 -13 -6 -29 36 -77 33 -37 49 -47 68 -44 26 3 35 31 25
74 -5 19 -13 24 -36 24 -20 0 -30 5 -30 15 0 10 -10 15 -28 15 -16 0 -32 -3
-35 -7z"/>
<path d="M280 104 c0 -18 53 -74 69 -74 12 0 14 32 5 68 -5 17 -14 22 -40 22
-24 0 -34 -5 -34 -16z"/>
</g>
</svg>
