<?xml version="1.0" standalone="no"?>
<!DOCTYPE svg PUBLIC "-//W3C//DTD SVG 20010904//EN"
 "http://www.w3.org/TR/2001/REC-SVG-20010904/DTD/svg10.dtd">
<svg version="1.0" xmlns="http://www.w3.org/2000/svg"
 width="264.000000pt" height="764.000000pt" viewBox="0 0 264.000000 764.000000"
 preserveAspectRatio="xMidYMid meet">
<metadata>
Created by potrace 1.16, written by Peter Selinger 2001-2019
</metadata>
<g transform="translate(0.000000,764.000000) scale(0.100000,-0.100000)"
fill="#000000" stroke="none">
<path d="M2220 4470 c0 -15 7 -20 25 -20 18 0 25 5 25 20 0 15 -7 20 -25 20
-18 0 -25 -5 -25 -20z"/>
<path d="M2157 4467 c-8 -20 9 -41 27 -34 23 9 21 47 -3 47 -10 0 -21 -6 -24
-13z"/>
<path d="M2332 4453 l4 -29 -52 4 c-43 4 -55 1 -73 -17 -11 -11 -27 -18 -35
-15 -24 9 -84 -29 -126 -80 -22 -26 -40 -53 -40 -59 0 -14 -81 -87 -96 -87 -7
0 -14 -7 -17 -15 -4 -8 -23 -23 -44 -34 -21 -11 -44 -29 -52 -42 -12 -20 -14
-21 -23 -6 -12 23 -55 22 -61 0 -3 -10 -8 -36 -12 -58 -4 -22 -14 -48 -22 -57
-8 -9 -12 -22 -8 -28 3 -6 4 -24 0 -40 -6 -26 -9 -28 -31 -19 -14 5 -36 9 -50
9 -17 0 -24 -6 -24 -19 0 -11 -13 -33 -30 -49 -16 -17 -30 -38 -30 -47 0 -9
-10 -29 -22 -46 -16 -21 -22 -44 -22 -83 -1 -40 -4 -52 -13 -45 -6 6 -31 9
-55 7 l-43 -3 2 -39 c2 -22 -2 -45 -7 -52 -6 -6 -27 -15 -46 -19 -24 -4 -38
-13 -41 -26 -4 -15 -9 -17 -19 -8 -17 14 -34 3 -34 -22 0 -22 29 -26 48 -7 9
9 12 8 12 -5 0 -10 -8 -17 -20 -17 -21 0 -66 -61 -86 -115 -8 -24 -18 -31 -43
-33 -20 -2 -37 -12 -47 -27 -15 -22 -14 -45 2 -122 4 -21 1 -23 -36 -23 -39 0
-42 -2 -61 -45 -11 -25 -25 -45 -30 -45 -6 0 -9 -15 -7 -32 2 -26 -1 -33 -17
-36 -26 -5 -55 -31 -55 -49 0 -8 9 -17 20 -20 11 -3 17 -10 14 -15 -3 -5 -14
-2 -24 7 -9 8 -24 13 -34 9 -12 -4 -16 -19 -16 -55 0 -34 -4 -49 -13 -49 -17
0 -37 -42 -37 -75 0 -13 -5 -25 -10 -27 -6 -2 -17 -32 -26 -68 -21 -82 -39
-117 -64 -125 -13 -4 -20 -15 -20 -31 0 -20 -5 -24 -30 -24 -26 0 -33 -7 -59
-58 -16 -32 -36 -64 -45 -71 -21 -18 -58 -119 -54 -151 1 -15 -5 -34 -14 -43
-9 -9 -24 -40 -34 -69 -22 -69 -62 -138 -79 -138 -8 0 -17 -16 -21 -37 -3 -21
-11 -43 -18 -48 -6 -6 -22 -25 -35 -44 -16 -23 -21 -41 -18 -60 4 -20 0 -32
-14 -44 -23 -20 -25 -57 -4 -57 21 0 19 -24 -4 -44 -11 -10 -22 -29 -26 -44
-3 -14 -13 -31 -21 -37 -9 -6 -18 -31 -21 -55 -3 -25 -10 -50 -14 -56 -5 -6
-15 -45 -23 -87 -8 -42 -19 -84 -24 -94 -5 -10 -12 -41 -16 -70 -4 -29 -13
-71 -21 -94 -22 -62 -38 -170 -26 -182 6 -6 1 -22 -12 -45 -19 -33 -22 -55
-25 -209 -3 -95 -1 -184 2 -198 4 -15 17 -30 31 -35 14 -5 25 -16 25 -25 0
-20 39 -20 46 0 4 8 1 22 -6 30 -12 15 -6 70 10 80 4 3 6 -3 3 -13 -2 -11 1
-25 9 -33 8 -9 13 -40 13 -89 0 -41 -4 -80 -8 -86 -4 -7 -4 -26 -1 -43 4 -20
17 -37 40 -50 19 -11 34 -25 34 -31 0 -6 10 -24 22 -40 13 -18 31 -30 45 -30
18 0 23 6 23 26 0 24 2 25 32 19 47 -11 75 -22 83 -34 8 -14 59 -14 110 0 27
7 56 27 86 60 37 38 54 49 78 49 20 0 31 5 31 14 0 7 22 23 50 34 42 17 50 25
50 46 0 24 3 26 45 26 25 0 45 5 45 10 0 16 97 110 113 110 23 0 107 85 116
116 6 25 14 30 62 39 49 9 55 13 66 45 7 19 12 47 12 63 1 19 6 27 19 27 9 0
28 9 42 20 14 11 30 20 36 20 6 0 19 9 29 20 10 11 26 20 36 20 22 0 31 13 23
35 -5 12 -14 15 -31 10 -22 -5 -24 -3 -21 22 3 25 9 29 56 39 69 16 112 34
113 48 1 6 0 21 -1 33 -1 19 4 22 47 25 37 2 49 7 51 21 6 32 -8 68 -31 77
-12 5 -16 9 -9 9 6 1 12 10 12 21 0 27 -45 38 -69 16 -10 -9 -23 -16 -29 -16
-7 0 -12 -7 -12 -15 0 -9 -7 -18 -15 -21 -8 -4 -15 -12 -15 -20 0 -7 -16 -28
-35 -45 -19 -18 -35 -38 -35 -46 0 -7 -5 -13 -10 -13 -6 0 -27 -16 -46 -35
-19 -20 -53 -43 -75 -51 -21 -9 -39 -20 -39 -25 0 -8 -39 -33 -71 -45 -10 -3
-19 -22 -23 -44 -5 -35 -10 -40 -42 -46 -22 -4 -41 -16 -52 -33 -36 -58 -86
-110 -111 -116 -25 -6 -111 -65 -181 -123 -19 -16 -57 -44 -85 -62 -27 -18
-73 -53 -102 -77 -29 -25 -73 -50 -101 -58 -47 -14 -77 -39 -100 -80 -11 -19
-11 -19 -12 5 -1 17 -14 34 -43 55 -59 43 -97 118 -108 214 -12 109 -18 131
-37 131 -8 0 -26 -10 -39 -21 -19 -19 -25 -20 -38 -9 -21 18 -6 31 42 39 43 7
55 32 29 60 -14 15 -13 18 4 29 16 10 20 23 20 65 0 28 -4 58 -9 65 -5 8 -1
28 10 50 10 20 29 87 43 147 14 61 33 135 41 165 8 30 15 64 15 77 0 12 5 25
10 28 6 3 10 22 10 41 0 24 5 34 15 34 11 0 15 12 15 49 0 33 8 63 26 97 15
27 33 59 39 72 7 13 21 29 31 37 16 11 17 17 7 34 -10 16 -9 22 3 32 21 17 54
84 54 109 0 27 32 90 59 114 12 11 21 30 21 43 0 18 5 23 24 23 14 0 41 10 60
23 24 15 35 29 33 42 -1 15 -11 21 -37 23 -19 2 -39 8 -44 13 -6 6 -6 9 2 9 7
0 12 13 12 29 0 16 6 31 15 35 11 4 15 21 15 61 0 41 4 55 14 55 16 0 71 89
81 132 4 15 16 30 26 33 10 4 22 18 25 33 4 15 18 40 31 55 12 16 26 41 29 55
3 15 13 49 21 75 8 26 12 55 9 64 -4 10 7 28 32 52 21 21 42 50 46 67 4 16 25
45 47 65 26 24 39 45 39 62 0 14 7 33 16 42 9 8 14 22 11 29 -3 8 5 23 19 35
13 11 24 26 24 32 0 6 14 24 30 41 23 23 30 39 30 69 0 32 5 41 29 53 29 16
41 34 41 65 0 9 13 21 29 27 22 9 34 26 57 82 20 50 35 72 48 74 13 2 23 15
28 36 6 22 20 40 44 54 29 17 35 26 31 45 -4 19 1 27 22 34 31 12 42 28 35 51
-3 11 2 19 16 23 21 7 101 87 129 129 69 104 106 148 204 242 61 59 143 134
182 167 38 34 78 71 88 84 10 12 47 36 83 53 35 17 64 38 64 46 0 8 10 14 26
14 23 0 25 3 22 33 -3 27 -7 33 -32 35 -26 3 -28 1 -24 -25z"/>
<path d="M2357 4386 c-3 -8 0 -20 8 -26 19 -16 57 -3 53 18 -4 22 -53 28 -61
8z"/>
<path d="M2454 4335 c-4 -9 -2 -21 4 -27 16 -16 47 -5 47 17 0 26 -42 34 -51
10z"/>
<path d="M1780 4150 c0 -15 7 -20 25 -20 18 0 25 5 25 20 0 15 -7 20 -25 20
-18 0 -25 -5 -25 -20z"/>
<path d="M2600 4110 c0 -13 7 -20 20 -20 13 0 20 7 20 20 0 13 -7 20 -20 20
-13 0 -20 -7 -20 -20z"/>
<path d="M2450 3909 c0 -30 38 -79 60 -79 25 0 35 36 21 73 -9 22 -17 27 -46
27 -29 0 -35 -4 -35 -21z"/>
<path d="M2406 3845 c-9 -9 -16 -25 -16 -35 0 -10 -12 -23 -30 -30 -39 -16
-55 -43 -35 -60 9 -8 19 -8 32 -2 13 8 20 6 29 -6 10 -13 17 -15 31 -6 14 8
19 26 21 74 2 35 -1 67 -6 72 -6 6 -16 3 -26 -7z"/>
<path d="M2303 3693 c-7 -2 -13 -13 -13 -24 0 -14 7 -19 30 -19 23 0 30 5 30
19 0 10 -7 22 -16 25 -9 3 -16 6 -17 5 -1 0 -8 -3 -14 -6z"/>
<path d="M2255 3604 c-22 -26 -36 -33 -52 -29 -25 6 -53 -17 -53 -44 0 -10 5
-32 11 -50 10 -28 15 -32 43 -29 25 2 32 8 34 31 2 19 -1 27 -12 27 -9 0 -16
5 -16 10 0 6 5 10 10 10 6 0 10 8 11 18 0 10 3 12 6 5 7 -18 43 -16 43 2 0 8
9 23 20 32 11 10 20 25 20 35 0 29 -32 20 -65 -18z"/>
<path d="M2054 3375 c-10 -24 5 -35 47 -35 27 0 42 5 46 16 3 9 0 20 -8 25
-23 14 -79 11 -85 -6z"/>
<path d="M1978 3373 c-10 -2 -21 -16 -24 -29 -4 -14 -19 -31 -35 -40 -28 -14
-39 -47 -19 -59 5 -3 7 -19 3 -35 -5 -27 -3 -30 18 -30 35 0 46 11 54 52 5 27
13 38 28 40 17 2 24 13 31 46 7 34 6 46 -5 53 -15 9 -23 10 -51 2z"/>
<path d="M1800 3149 c-18 -18 -39 -52 -46 -77 -8 -25 -14 -49 -14 -54 0 -4 15
-8 33 -8 27 0 39 8 65 42 23 30 32 52 32 79 0 24 -5 39 -16 43 -9 3 -17 6 -18
6 -2 0 -18 -14 -36 -31z"/>
<path d="M1566 2943 c-14 -34 -61 -102 -73 -103 -17 0 -53 -64 -53 -94 0 -22
-4 -26 -29 -26 -22 0 -30 -6 -35 -22 -3 -16 -28 -35 -73 -58 -78 -41 -87 -60
-53 -115 15 -24 29 -35 46 -35 15 0 24 6 24 15 0 8 16 32 35 54 19 21 35 44
35 50 0 6 11 11 25 11 18 0 25 5 25 20 0 13 7 20 20 20 11 0 20 7 20 15 0 9
11 20 24 27 32 14 39 34 23 67 -13 28 -12 61 4 61 5 0 9 -6 9 -14 0 -24 20
-29 41 -10 11 10 30 35 41 56 12 21 28 38 35 38 16 0 17 32 1 48 -7 7 -29 12
-49 12 -25 0 -39 -5 -43 -17z"/>
<path d="M1192 2531 c-8 -4 -16 -27 -19 -50 -5 -36 -3 -41 15 -41 41 0 52 11
52 50 0 25 -5 40 -16 44 -19 7 -16 7 -32 -3z"/>
<path d="M1096 2449 c-3 -17 -6 -40 -6 -51 0 -11 -6 -26 -14 -34 -13 -12 -15
-11 -18 8 -5 35 -34 33 -68 -4 -36 -40 -45 -69 -30 -97 10 -20 8 -21 -44 -21
-60 0 -86 -16 -86 -54 0 -13 7 -29 15 -36 13 -10 19 -10 33 4 10 9 27 16 38
16 26 1 78 45 70 59 -5 7 2 11 18 11 16 0 26 6 26 15 0 8 9 19 20 25 11 6 20
19 20 29 0 14 6 17 26 13 25 -4 26 -3 22 22 -3 14 -1 26 3 26 12 0 39 55 39
80 0 15 -6 20 -29 20 -24 0 -29 -5 -35 -31z"/>
<path d="M770 2125 c0 -18 5 -25 19 -25 20 0 31 17 24 38 -3 6 -13 12 -24 12
-14 0 -19 -7 -19 -25z"/>
<path d="M737 2063 c-4 -10 -12 -26 -19 -36 -11 -14 -10 -19 2 -27 21 -14 27
-13 51 11 11 11 19 30 17 42 -4 28 -43 36 -51 10z"/>
<path d="M1256 2010 c-21 -6 -75 -27 -120 -48 -60 -29 -113 -66 -201 -142 -66
-56 -124 -111 -129 -121 -5 -11 -13 -19 -18 -19 -11 0 -10 -37 2 -45 5 -3 21
2 35 11 25 16 25 16 25 -15 0 -24 4 -31 20 -31 22 0 44 34 36 56 -4 9 4 18 21
25 14 5 42 23 61 40 19 17 45 35 59 40 14 5 27 18 30 29 4 15 14 20 42 20 24
0 40 6 48 18 15 24 130 46 214 40 64 -4 83 -11 214 -74 39 -18 86 -40 106 -48
36 -14 36 -14 32 -62 -4 -41 -1 -52 16 -68 14 -13 36 -19 64 -19 24 0 49 3 55
7 21 13 13 46 -13 56 -25 10 -25 10 -9 36 16 24 16 28 1 57 -10 18 -25 57 -35
87 -16 50 -21 56 -62 72 -25 9 -62 17 -84 17 -28 1 -45 8 -62 26 -13 14 -32
25 -42 25 -10 0 -34 7 -52 16 -39 20 -196 28 -254 14z"/>
<path d="M1507 1703 c-4 -3 -7 -18 -7 -32 l0 -26 -82 7 c-46 4 -95 10 -110 14
-37 9 -78 -18 -78 -51 0 -14 -4 -25 -10 -25 -5 0 -10 -11 -10 -25 0 -18 5 -25
19 -25 11 0 23 4 26 10 4 6 17 4 35 -5 34 -18 101 -20 117 -4 9 9 26 9 69 1
31 -7 60 -10 64 -7 4 2 12 -13 19 -35 14 -47 46 -73 72 -60 9 6 23 26 29 46
10 30 9 38 -5 54 -10 11 -20 34 -24 52 -6 28 -12 34 -41 38 -34 5 -35 7 -32
43 3 33 1 37 -21 37 -13 0 -27 -3 -30 -7z"/>
<path d="M1073 1544 c-13 -9 -23 -25 -23 -36 0 -10 -5 -16 -10 -13 -16 10 -48
-4 -55 -25 -3 -10 -15 -22 -26 -25 -23 -8 -26 -53 -4 -62 9 -3 24 2 34 11 10
9 23 16 29 16 7 0 12 5 12 10 0 16 18 11 39 -11 13 -14 28 -20 52 -17 25 2 39
11 54 35 11 17 28 34 38 36 23 7 22 49 -3 72 -27 25 -108 30 -137 9z m77 -64
c0 -5 -5 -10 -11 -10 -5 0 -7 5 -4 10 3 6 8 10 11 10 2 0 4 -4 4 -10z"/>
<path d="M1754 1429 c-3 -6 0 -18 9 -26 18 -18 37 -9 37 18 0 12 -7 19 -19 19
-11 0 -23 -5 -27 -11z"/>
<path d="M1638 1377 c-8 -16 -7 -23 3 -31 8 -6 14 -27 14 -46 0 -28 4 -35 25
-41 24 -6 24 -6 -10 -16 -31 -9 -35 -13 -32 -40 2 -17 -2 -34 -7 -38 -20 -12
-11 -46 18 -76 31 -30 59 -38 65 -16 2 6 9 30 16 52 8 28 8 48 1 67 -8 20 -7
28 5 32 8 3 14 18 14 33 0 15 9 43 21 62 22 36 19 61 -6 61 -8 0 -15 4 -15 9
0 5 -23 9 -50 9 -41 0 -53 -4 -62 -21z"/>
<path d="M1040 1370 c-26 -6 -39 -35 -22 -52 13 -13 62 12 62 33 0 23 -9 27
-40 19z"/>
<path d="M827 1363 c-9 -9 -9 -41 1 -46 4 -3 28 -8 53 -12 36 -5 49 -3 62 10
10 9 17 25 17 36 0 17 -7 19 -63 19 -35 0 -67 -3 -70 -7z"/>
<path d="M875 1270 c-9 -15 14 -40 31 -33 8 3 14 14 14 24 0 12 -7 19 -19 19
-11 0 -23 -5 -26 -10z"/>
<path d="M810 1242 c0 -31 27 -62 53 -62 22 0 22 38 1 68 -8 12 -24 22 -35 22
-14 0 -19 -7 -19 -28z"/>
<path d="M714 1185 c-10 -24 5 -64 27 -75 11 -7 27 -9 35 -6 18 7 18 40 -1 56
-8 7 -15 19 -15 26 0 19 -39 18 -46 -1z"/>
<path d="M713 1084 c-4 -10 4 -24 23 -40 34 -28 52 -30 61 -8 4 10 -4 24 -23
40 -34 28 -52 30 -61 8z"/>
</g>
</svg>
