<?xml version="1.0" standalone="no"?>
<!DOCTYPE svg PUBLIC "-//W3C//DTD SVG 20010904//EN"
 "http://www.w3.org/TR/2001/REC-SVG-20010904/DTD/svg10.dtd">
<svg version="1.0" xmlns="http://www.w3.org/2000/svg"
 width="196.000000pt" height="627.000000pt" viewBox="0 0 196.000000 627.000000"
 preserveAspectRatio="xMidYMid meet">
<metadata>
Created by potrace 1.16, written by Peter Selinger 2001-2019
</metadata>
<g transform="translate(0.000000,627.000000) scale(0.100000,-0.100000)"
fill="#000000" stroke="none">
<path d="M1625 2630 c-9 -15 4 -30 26 -30 12 0 19 7 19 20 0 13 -7 20 -19 20
-11 0 -23 -4 -26 -10z"/>
<path d="M1412 2604 c3 -26 7 -29 41 -32 27 -2 39 1 43 13 9 22 -6 35 -50 42
-37 6 -38 5 -34 -23z"/>
<path d="M1544 2606 c-8 -21 3 -36 27 -36 15 0 20 6 17 22 -4 27 -35 37 -44
14z"/>
<path d="M1503 2553 c-7 -2 -13 -18 -13 -34 0 -24 4 -29 23 -29 13 0 28 5 35
12 7 7 12 22 12 35 0 17 -5 23 -22 22 -13 0 -29 -3 -35 -6z"/>
<path d="M1327 2530 c-14 -11 -36 -20 -49 -20 -13 0 -33 -6 -43 -14 -25 -18
-13 -46 20 -46 23 0 25 -2 15 -21 -13 -24 -7 -49 13 -49 7 0 24 12 38 26 13
15 43 35 67 46 32 15 42 24 42 43 0 25 -33 55 -61 55 -9 0 -28 -9 -42 -20z"/>
<path d="M1600 2531 c0 -11 4 -22 9 -25 4 -3 6 -16 4 -29 -5 -26 21 -61 41
-54 6 2 12 18 14 35 2 23 -2 34 -13 38 -12 5 -13 9 -4 14 19 13 2 40 -26 40
-18 0 -25 -5 -25 -19z"/>
<path d="M1908 2525 c-8 -19 -8 -31 0 -50 7 -15 20 -25 32 -25 17 0 20 6 20
50 0 44 -3 50 -20 50 -12 0 -25 -10 -32 -25z"/>
<path d="M1777 2534 c-4 -4 -7 -16 -7 -26 0 -14 6 -19 23 -16 14 2 22 10 22
23 0 20 -25 32 -38 19z"/>
<path d="M1130 2457 c-14 -7 -26 -20 -28 -30 -3 -13 4 -17 28 -17 42 0 70 16
70 40 0 14 -7 20 -22 20 -13 0 -34 -6 -48 -13z"/>
<path d="M1786 2404 c-9 -8 -16 -29 -16 -45 0 -17 -6 -32 -15 -35 -8 -4 -15
-15 -15 -26 0 -19 5 -20 47 -15 29 3 52 12 60 23 16 22 17 86 1 102 -17 17
-44 15 -62 -4z"/>
<path d="M944 2326 c-8 -21 3 -36 27 -36 15 0 20 6 17 22 -4 27 -35 37 -44 14z"/>
<path d="M1840 2200 c0 -23 4 -30 20 -30 16 0 20 7 20 30 0 23 -4 30 -20 30
-16 0 -20 -7 -20 -30z"/>
<path d="M1777 2214 c-4 -4 -7 -16 -7 -26 0 -14 6 -19 23 -16 14 2 22 10 22
23 0 20 -25 32 -38 19z"/>
<path d="M1808 2133 c-3 -24 -8 -28 -40 -31 -34 -3 -40 -8 -57 -47 -10 -24
-28 -48 -39 -54 -12 -6 -37 -11 -57 -11 -35 0 -37 -2 -31 -25 5 -18 2 -25 -9
-25 -9 0 -15 -9 -15 -25 0 -14 4 -25 9 -25 4 0 6 -11 3 -25 -4 -23 -2 -25 37
-25 37 0 43 4 66 40 16 25 33 40 45 40 11 0 20 5 20 11 0 17 38 61 63 73 25
13 53 64 62 119 7 36 7 37 -23 37 -26 0 -31 -4 -34 -27z"/>
<path d="M601 2077 c-5 -13 -7 -35 -4 -50 6 -31 45 -60 76 -55 16 2 23 11 25
33 2 17 8 34 13 40 14 14 11 42 -7 49 -9 3 -33 6 -55 6 -32 0 -41 -4 -48 -23z"/>
<path d="M1630 2090 c-23 -15 1 -45 36 -45 20 0 30 6 32 19 6 31 -36 47 -68
26z"/>
<path d="M557 1969 c-7 -28 10 -72 26 -67 6 3 13 23 15 46 3 36 0 42 -16 42
-12 0 -22 -9 -25 -21z"/>
<path d="M497 1934 c-13 -13 -7 -52 8 -58 27 -10 46 5 43 33 -2 17 -10 27 -23
29 -12 2 -24 0 -28 -4z"/>
<path d="M1507 1788 c-36 -40 -38 -41 -51 -22 -13 16 -18 17 -35 7 -12 -7 -29
-13 -40 -13 -23 0 -32 -19 -19 -42 11 -22 41 -23 58 -3 7 9 15 13 18 11 2 -3
-7 -19 -22 -36 -14 -17 -26 -27 -26 -21 0 17 -40 13 -47 -5 -7 -20 16 -36 36
-24 8 4 26 4 40 -1 36 -14 75 -2 116 37 30 28 36 40 33 64 -3 22 0 30 15 34
13 3 18 12 15 28 -2 16 -10 24 -28 26 -19 2 -35 -9 -63 -40z"/>
<path d="M397 1743 c-4 -3 -7 -21 -7 -39 0 -35 21 -54 59 -54 27 0 27 25 1 68
-19 30 -39 40 -53 25z"/>
<path d="M297 1694 c-4 -4 -7 -17 -7 -29 0 -11 -5 -26 -11 -32 -17 -17 25 -53
61 -53 33 0 49 22 32 43 -6 6 -12 26 -14 42 -2 24 -8 31 -28 33 -14 2 -29 0
-33 -4z"/>
<path d="M1370 1610 c-32 -8 -37 -35 -11 -50 27 -14 61 3 61 29 0 23 -17 30
-50 21z"/>
<path d="M237 1554 c-4 -4 -7 -22 -7 -41 0 -19 -6 -44 -14 -56 -8 -12 -17 -39
-20 -60 -5 -28 -14 -40 -32 -47 -18 -7 -24 -17 -24 -39 0 -16 6 -31 13 -34 8
-3 5 -10 -10 -22 -26 -19 -30 -60 -7 -69 9 -3 31 -6 50 -6 24 0 43 8 60 26 22
21 25 32 22 67 -3 36 0 45 24 65 34 29 35 61 5 152 -20 60 -41 82 -60 64z
m-20 -280 c-3 -3 -12 -4 -19 -1 -8 3 -5 6 6 6 11 1 17 -2 13 -5z"/>
<path d="M1233 1533 c-7 -2 -13 -11 -13 -18 0 -8 -25 -22 -57 -32 -45 -14 -59
-23 -61 -40 -2 -14 4 -26 17 -33 26 -14 27 -30 2 -23 -10 3 -28 0 -39 -6 -16
-8 -21 -7 -26 4 -6 17 -61 21 -71 5 -3 -5 -19 -10 -35 -10 -21 0 -39 -11 -67
-41 -41 -44 -86 -72 -117 -73 -25 -1 -43 -62 -27 -88 14 -23 14 -28 -3 -28
-19 0 -27 -25 -13 -39 18 -18 40 -13 70 14 17 17 27 36 27 55 0 27 3 29 56 36
43 5 58 11 61 25 3 11 11 19 18 19 7 0 25 10 40 22 20 15 30 18 33 10 5 -16
55 -15 97 2 25 11 35 21 35 37 0 18 3 20 12 11 7 -7 24 -12 38 -12 46 0 69 44
30 58 -17 6 -15 10 18 31 48 32 62 50 62 78 0 33 -47 53 -87 36z"/>
<path d="M437 1168 c-3 -12 -1 -31 5 -42 7 -12 11 -33 9 -48 -2 -23 2 -28 19
-28 35 0 80 32 80 56 0 22 -23 47 -52 57 -10 4 -18 11 -18 17 0 5 -8 10 -19
10 -11 0 -21 -9 -24 -22z"/>
<path d="M92 1164 c-28 -19 -52 -65 -52 -99 0 -15 -8 -40 -17 -56 -14 -24 -15
-33 -5 -47 24 -33 24 -44 3 -72 -24 -33 -27 -65 -7 -77 8 -4 21 -25 29 -45 11
-27 22 -38 36 -38 12 0 21 7 21 15 0 8 9 19 21 25 12 7 18 18 15 26 -3 9 1 14
14 14 30 0 35 21 10 42 l-23 19 22 20 c24 23 41 59 41 90 0 13 -7 19 -22 19
-15 1 -31 13 -44 34 l-21 32 41 0 c35 -1 41 2 44 22 2 12 -1 22 -7 22 -6 0
-11 9 -11 19 0 20 -34 51 -55 51 -6 0 -21 -7 -33 -16z"/>
<path d="M384 1105 c-10 -25 4 -47 28 -43 17 2 24 11 26 31 3 23 0 27 -23 27
-14 0 -28 -7 -31 -15z"/>
<path d="M317 1066 c-7 -17 18 -40 33 -31 5 3 10 15 10 26 0 12 -7 19 -19 19
-10 0 -21 -6 -24 -14z"/>
<path d="M1615 823 c-11 -3 -24 -9 -29 -14 -15 -14 20 -45 67 -58 33 -10 94
-38 126 -58 2 -1 -17 -22 -43 -46 -25 -24 -46 -51 -46 -60 0 -21 37 -22 100
-3 37 11 46 18 48 40 2 14 8 26 13 26 5 0 9 9 9 21 0 24 -51 79 -73 79 -8 0
-20 13 -25 29 -8 22 -20 32 -49 40 -39 11 -64 12 -98 4z"/>
<path d="M50 711 c-47 -8 -52 -37 -10 -55 l31 -13 -23 -15 c-18 -12 -24 -26
-25 -54 -1 -27 4 -42 18 -52 10 -7 19 -22 19 -34 0 -11 8 -22 18 -25 14 -3 17
-12 14 -32 -2 -17 2 -32 12 -40 9 -8 16 -29 16 -51 0 -21 6 -43 14 -49 7 -6
16 -33 20 -60 4 -31 12 -51 22 -55 9 -3 33 -6 54 -6 37 0 38 -1 45 -40 6 -34
10 -40 31 -40 17 0 27 8 34 25 5 14 16 25 24 25 13 0 13 -5 2 -32 -7 -18 -11
-39 -9 -45 3 -8 25 -13 59 -13 39 0 56 -4 60 -15 4 -10 20 -15 45 -15 28 0 39
4 39 15 0 23 20 18 42 -11 l20 -25 172 6 c151 6 173 9 188 26 9 10 33 25 54
31 22 8 47 26 59 43 15 23 26 29 48 27 24 -3 29 2 48 45 l21 48 13 -38 c7 -21
16 -41 19 -44 8 -8 106 15 123 28 25 21 15 39 -23 39 -21 0 -33 4 -29 10 3 6
26 10 49 10 33 0 52 7 81 30 20 16 45 32 54 35 10 3 23 17 30 31 6 14 27 32
46 40 44 18 63 54 47 89 -13 27 -52 35 -52 10 0 -8 -11 -17 -25 -21 -14 -3
-25 -9 -25 -14 0 -4 -10 -19 -23 -33 -16 -20 -32 -27 -57 -27 -20 0 -42 -8
-56 -21 -18 -17 -25 -19 -42 -8 -25 16 -47 7 -64 -27 -16 -33 -33 -41 -42 -19
-9 24 7 48 53 80 23 15 41 32 41 37 0 4 11 13 25 18 14 5 25 16 25 25 0 8 7
15 15 15 8 0 19 9 25 19 5 11 19 23 30 26 38 12 74 121 50 150 -17 21 -63 19
-83 -3 -22 -24 -22 -51 1 -68 16 -13 16 -14 -1 -8 -9 3 -24 1 -32 -6 -14 -12
-44 -10 -112 7 -19 4 -23 1 -23 -20 0 -14 -7 -27 -15 -31 -8 -3 -15 -12 -15
-20 0 -8 -9 -18 -20 -21 -11 -3 -20 -15 -20 -26 0 -14 -7 -19 -30 -19 -37 0
-65 -38 -56 -76 7 -25 -9 -52 -62 -107 -54 -58 -206 -107 -331 -107 -128 0
-195 16 -295 70 -61 33 -103 64 -128 94 -21 25 -38 50 -38 55 0 6 -4 11 -10
11 -5 0 -10 7 -10 15 0 9 -7 30 -16 46 -8 17 -22 69 -30 116 -11 63 -12 88 -4
98 8 10 8 19 0 34 -8 16 -20 21 -48 20 -20 -1 -53 -4 -72 -8z"/>
<path d="M1680 685 c0 -18 5 -25 20 -25 15 0 20 7 20 25 0 18 -5 25 -20 25
-15 0 -20 -7 -20 -25z"/>
<path d="M1682 538 c3 -25 25 -33 47 -19 21 14 5 41 -24 41 -22 0 -26 -4 -23
-22z"/>
</g>
</svg>
