<?xml version="1.0" standalone="no"?>
<!DOCTYPE svg PUBLIC "-//W3C//DTD SVG 20010904//EN"
 "http://www.w3.org/TR/2001/REC-SVG-20010904/DTD/svg10.dtd">
<svg version="1.0" xmlns="http://www.w3.org/2000/svg"
 width="344.000000pt" height="764.000000pt" viewBox="0 0 344.000000 764.000000"
 preserveAspectRatio="xMidYMid meet">
<metadata>
Created by potrace 1.16, written by Peter Selinger 2001-2019
</metadata>
<g transform="translate(0.000000,764.000000) scale(0.100000,-0.100000)"
fill="#000000" stroke="none">
<path d="M1027 5649 c-49 -51 -60 -58 -76 -49 -26 14 -63 -1 -89 -36 -17 -24
-22 -26 -35 -15 -18 14 -57 6 -57 -11 0 -6 -3 -8 -7 -5 -3 4 2 15 11 26 12 14
16 32 14 67 -2 35 -7 49 -18 49 -8 0 -21 -12 -28 -27 -10 -21 -20 -28 -41 -28
-16 0 -34 -7 -41 -15 -10 -12 -15 -13 -21 -4 -4 7 -17 9 -33 5 -18 -4 -28 -16
-34 -39 -7 -27 -14 -33 -43 -37 -26 -4 -35 -10 -37 -27 -2 -13 2 -23 8 -23 6
0 8 -4 5 -10 -3 -5 -14 -10 -24 -10 -11 0 -29 -9 -42 -19 -17 -13 -33 -17 -56
-14 -34 6 -36 4 -37 -47 -1 -17 -14 -33 -43 -53 -37 -24 -43 -33 -43 -63 0
-49 -16 -74 -46 -74 -32 0 -46 -34 -49 -121 -2 -39 -9 -76 -18 -90 -23 -35
-32 -96 -17 -114 10 -12 10 -18 0 -30 -7 -8 -19 -15 -26 -15 -9 0 -14 -12 -14
-37 0 -20 -7 -45 -17 -55 -9 -11 -17 -35 -17 -54 0 -27 8 -42 32 -65 32 -30
40 -53 22 -64 -5 -3 -10 -22 -10 -41 0 -30 -3 -34 -25 -34 -18 0 -25 -5 -25
-19 0 -11 4 -31 10 -45 6 -18 6 -26 -1 -26 -6 0 -9 -10 -7 -22 2 -18 10 -22
41 -24 22 0 42 5 50 14 17 21 15 175 -2 196 -11 13 -11 16 2 16 16 0 27 26 20
48 -3 6 -11 12 -19 12 -20 0 -18 10 9 39 17 18 30 56 45 126 12 55 27 141 32
190 10 85 41 175 60 175 5 0 40 32 77 71 88 92 188 173 255 207 49 25 56 27
93 16 60 -18 102 -17 114 4 6 9 11 11 11 5 0 -7 10 -13 23 -13 33 -1 135 52
143 74 4 13 9 15 17 7 17 -17 103 -14 121 5 9 8 16 19 16 24 0 5 10 -1 23 -13
12 -12 49 -31 81 -42 33 -11 72 -32 88 -47 16 -14 49 -36 74 -48 25 -13 49
-31 53 -42 4 -10 19 -27 33 -36 56 -37 109 -129 137 -238 20 -79 52 -270 56
-332 1 -18 7 -38 13 -44 7 -7 12 -15 12 -19 0 -5 -11 -19 -24 -33 -18 -20 -24
-41 -29 -96 -3 -38 -14 -89 -25 -113 -10 -23 -25 -67 -32 -96 -7 -30 -19 -66
-26 -80 -8 -14 -14 -40 -14 -58 0 -17 -4 -34 -9 -37 -5 -4 -12 -29 -16 -58 -7
-50 -39 -126 -58 -139 -5 -3 -7 -15 -5 -26 1 -11 -2 -26 -8 -34 -14 -18 -34
-77 -34 -101 0 -10 11 -30 25 -43 l24 -25 -24 0 c-16 0 -25 -6 -25 -15 0 -8
-4 -15 -10 -15 -5 0 -13 -12 -16 -27 -4 -15 -13 -38 -20 -52 -8 -14 -14 -37
-14 -51 0 -14 -11 -47 -25 -75 -13 -27 -25 -56 -25 -64 0 -7 -14 -60 -31 -118
-17 -57 -28 -110 -25 -118 3 -8 1 -15 -4 -15 -20 0 -51 -46 -71 -109 -12 -36
-27 -75 -34 -86 -6 -11 -20 -50 -30 -87 -10 -37 -27 -77 -39 -90 -24 -25 -66
-123 -66 -153 0 -32 -19 -93 -34 -107 -7 -7 -15 -33 -19 -58 -4 -32 -13 -51
-33 -66 -21 -17 -28 -33 -32 -73 -3 -33 -1 -51 6 -51 6 0 -11 -20 -37 -45 -27
-25 -54 -59 -60 -75 -6 -17 -16 -43 -22 -60 -6 -16 -20 -32 -30 -35 -14 -5
-19 -16 -19 -40 0 -24 -6 -38 -20 -45 -11 -6 -20 -20 -20 -31 0 -12 -11 -30
-24 -40 -16 -13 -25 -32 -29 -61 -7 -61 -33 -158 -46 -171 -17 -17 -14 -94 3
-100 13 -5 13 -10 -1 -38 -10 -20 -17 -61 -18 -108 0 -42 -7 -87 -14 -100 -8
-14 -11 -38 -7 -60 8 -46 8 -30 -9 -215 -13 -147 -13 -161 2 -178 10 -11 12
-18 5 -18 -7 0 -12 -9 -12 -21 0 -12 8 -23 20 -26 19 -5 25 -19 46 -113 5 -19
7 -50 5 -68 -3 -39 22 -82 48 -82 11 0 21 4 23 9 2 4 13 12 26 15 18 6 22 4
22 -14 0 -13 9 -24 25 -30 18 -7 25 -17 25 -36 0 -25 1 -26 44 -20 38 6 44 4
49 -14 7 -25 32 -26 64 0 14 11 34 20 44 20 10 0 24 9 31 20 7 11 18 20 24 20
6 0 18 -10 26 -22 13 -19 19 -21 39 -12 13 6 43 27 66 47 24 19 57 38 74 42
22 5 39 21 64 60 19 29 43 55 54 58 12 3 25 17 31 31 5 14 16 26 23 26 8 0 20
12 28 28 7 15 30 44 50 65 28 28 45 37 70 37 34 0 45 11 65 63 3 9 10 17 15
17 5 0 9 11 9 25 0 15 10 31 26 42 58 39 76 63 72 92 -3 20 1 32 14 40 9 6 15
17 12 25 -4 11 5 16 38 18 40 3 43 5 46 33 2 17 12 38 23 48 10 10 19 25 19
33 0 9 9 27 20 41 11 14 20 32 20 39 0 7 -9 18 -21 24 -16 9 -18 14 -9 25 9
11 16 12 30 3 27 -17 47 4 53 55 2 23 11 60 20 82 10 29 26 46 53 61 38 20 58
54 33 54 -7 0 -2 11 11 25 13 14 30 25 38 25 11 0 13 10 10 44 -4 37 -2 45 12
49 10 3 20 15 22 28 1 13 10 24 18 24 11 0 14 -9 12 -34 -1 -18 2 -39 7 -45
11 -13 16 -134 7 -157 -4 -9 -6 -36 -4 -60 3 -41 5 -44 34 -47 25 -2 34 3 55
34 13 21 29 36 34 33 22 -9 -1 -151 -32 -196 -21 -30 -22 -38 -11 -61 7 -15
23 -31 35 -37 21 -11 21 -13 5 -28 -11 -12 -18 -39 -20 -87 l-4 -70 75 0 76 0
-16 -45 c-8 -25 -13 -54 -10 -65 3 -11 -1 -21 -10 -24 -11 -5 -12 -10 -2 -28
17 -33 84 -78 115 -78 9 0 14 -11 14 -30 0 -39 29 -54 92 -47 38 5 50 3 55 -8
3 -8 10 -15 17 -15 6 0 24 -16 39 -35 20 -26 36 -35 57 -35 16 0 45 9 64 21
32 18 35 19 44 3 12 -22 -1 -77 -27 -110 -11 -15 -21 -35 -21 -44 0 -10 -7
-23 -15 -30 -9 -7 -13 -21 -10 -31 4 -13 -1 -19 -24 -24 -36 -8 -53 -27 -53
-59 0 -16 -13 -35 -39 -55 -21 -17 -42 -31 -47 -31 -5 0 -13 -39 -17 -87 -6
-77 -5 -88 11 -100 15 -11 15 -13 2 -13 -18 0 -28 -37 -20 -75 3 -16 11 -25
23 -25 15 0 19 -7 19 -39 0 -55 25 -71 112 -71 60 0 72 3 98 28 17 15 37 33
45 40 17 14 61 16 70 2 8 -13 55 -13 55 0 0 6 19 10 41 10 39 0 41 2 37 25 -4
19 -1 25 12 25 9 0 34 17 56 38 46 45 104 117 104 129 0 5 14 19 30 31 19 14
30 32 30 47 0 27 -19 75 -30 75 -4 0 -13 19 -19 43 -6 23 -21 58 -33 77 -12
19 -22 50 -23 69 0 23 -6 37 -20 45 -11 6 -31 19 -44 29 -13 9 -34 17 -46 17
-18 0 -24 7 -30 36 -5 32 -9 35 -30 30 -18 -5 -32 2 -57 24 -25 23 -39 29 -59
25 -37 -8 -76 10 -94 45 -8 16 -21 30 -28 30 -27 1 -124 48 -155 75 -85 77
-112 107 -112 125 0 11 -4 20 -10 20 -5 0 -10 7 -10 15 0 8 -9 24 -20 35 -11
11 -23 39 -26 62 -4 24 -15 59 -26 78 -10 19 -18 50 -18 69 0 18 -10 50 -22
69 -19 31 -21 47 -19 129 2 88 1 95 -18 100 -12 3 -21 10 -22 17 0 6 -2 79 -3
161 -2 221 10 425 34 565 12 68 20 139 18 157 -3 22 0 33 9 33 9 0 12 19 10
70 -2 49 1 74 10 82 8 7 13 35 13 78 0 48 4 71 15 80 8 7 15 29 15 50 0 29 6
41 25 54 17 11 25 26 25 46 0 17 4 30 9 30 15 0 24 115 12 139 -9 17 -9 21 3
21 23 0 56 50 56 86 0 48 9 64 36 64 16 0 24 6 24 18 0 10 -5 23 -11 29 -16
16 -4 42 26 53 28 11 33 41 9 60 -8 8 -19 21 -24 30 -8 14 -5 16 15 12 23 -4
24 -1 22 38 -1 34 3 46 21 58 12 8 22 23 22 32 0 10 7 31 17 47 21 37 11 83
-17 83 -11 0 -20 -4 -20 -10 0 -5 -11 -12 -25 -16 -14 -3 -29 -13 -33 -21 -14
-24 -42 -4 -42 29 0 29 25 86 44 99 5 4 7 23 4 43 -3 27 0 36 11 36 8 0 23 8
34 18 18 15 18 14 -2 -13 -12 -17 -24 -47 -28 -68 l-6 -37 42 0 c36 0 43 4 52
27 7 18 7 35 0 49 -6 15 -6 25 1 32 6 6 14 51 18 99 4 49 15 110 24 136 9 26
16 65 16 87 0 37 15 63 42 72 10 4 12 31 11 104 -2 71 0 93 7 76 13 -32 44
-25 48 11 2 17 -1 27 -10 27 -7 0 0 11 15 25 27 26 34 49 18 59 -5 3 5 21 22
39 73 77 79 89 74 132 -2 26 1 49 9 60 19 25 1 45 -42 45 -18 0 -36 5 -39 10
-3 6 -16 10 -28 10 -34 0 -99 -26 -108 -42 -4 -8 -13 -36 -19 -63 -6 -27 -20
-55 -32 -65 -18 -15 -22 -27 -21 -74 1 -50 -2 -59 -23 -72 -18 -12 -24 -25
-24 -52 0 -19 -10 -61 -21 -93 -15 -41 -27 -59 -39 -59 -10 0 -23 -7 -30 -15
-12 -14 -10 -48 6 -102 5 -20 3 -23 -19 -23 -34 0 -59 -26 -51 -54 3 -11 11
-26 16 -33 6 -8 1 -17 -16 -28 -18 -12 -26 -26 -26 -46 0 -15 -11 -64 -25
-107 -17 -54 -35 -89 -56 -110 -17 -16 -35 -47 -40 -68 -12 -56 -11 -112 3
-116 8 -3 12 -18 10 -40 -2 -20 2 -39 8 -43 21 -13 -11 -35 -51 -35 -43 0 -46
-7 -28 -59 9 -26 8 -35 -5 -50 -22 -24 -20 -40 6 -68 l21 -23 -36 0 c-26 0
-40 -6 -51 -22 -20 -28 -20 -67 -1 -74 19 -8 19 -53 0 -78 -8 -11 -15 -28 -15
-38 0 -10 -5 -18 -11 -18 -7 0 -10 -14 -7 -35 2 -21 -1 -36 -8 -39 -7 -3 -16
-22 -19 -43 -3 -21 -9 -50 -14 -65 -6 -19 -5 -32 5 -45 19 -25 17 -59 -5 -102
-23 -43 -47 -172 -37 -197 4 -10 0 -32 -8 -49 -25 -51 -46 -138 -51 -204 -2
-46 -9 -69 -24 -85 -12 -12 -21 -27 -21 -34 0 -6 -9 -26 -19 -44 -10 -18 -22
-50 -25 -71 -4 -21 -18 -53 -30 -72 -13 -19 -27 -51 -31 -72 -9 -48 -58 -154
-227 -493 -76 -151 -150 -288 -165 -304 -15 -16 -34 -43 -43 -60 -8 -17 -36
-56 -60 -87 -76 -94 -148 -188 -152 -196 -8 -18 -205 -186 -239 -203 -20 -11
-39 -26 -43 -35 -8 -22 -121 -73 -177 -81 -37 -5 -56 -1 -95 17 -26 13 -56 28
-65 33 -9 5 -27 41 -40 80 -13 39 -27 77 -32 84 -6 7 -15 67 -22 134 -10 91
-10 126 -1 140 8 14 8 23 -3 39 -10 16 -10 23 -1 29 11 7 21 128 32 367 3 55
8 76 21 86 12 8 16 19 11 30 -3 9 -10 17 -15 17 -19 0 -8 47 21 89 23 34 30
55 30 92 0 44 -3 50 -31 64 -17 9 -29 18 -27 20 2 3 21 0 41 -6 33 -9 41 -7
71 16 33 25 56 68 56 105 0 10 7 23 15 30 8 7 15 21 15 31 0 10 8 23 19 28 10
6 32 39 49 73 39 83 45 105 32 113 -7 5 1 19 24 40 28 25 36 41 36 66 0 19 9
54 20 78 15 33 18 47 9 57 -9 11 -8 14 5 14 11 0 16 9 16 29 0 23 5 30 22 33
15 2 25 12 28 28 3 14 18 42 33 62 15 20 31 53 34 75 4 21 13 43 21 49 10 7
13 19 9 35 -4 14 -1 30 7 39 8 8 24 40 36 70 11 30 28 68 36 83 8 16 14 51 14
78 0 42 3 49 19 49 23 0 33 24 29 72 -1 19 9 57 25 90 15 31 27 67 27 78 0 12
11 35 24 51 16 18 27 47 30 77 3 26 13 84 22 130 10 53 13 102 9 137 l-7 55
36 0 c44 0 55 20 32 55 -9 13 -16 26 -16 28 0 3 8 7 19 10 21 5 27 30 37 157
4 52 14 99 25 120 11 19 19 45 19 57 0 35 11 53 41 69 23 11 29 21 29 47 0 18
-5 38 -12 45 -9 9 -8 12 5 12 25 0 39 36 32 81 -4 25 -3 39 4 39 17 0 13 38
-4 48 -10 5 -13 15 -9 25 3 9 10 17 15 17 12 0 12 45 0 68 -14 28 -31 110 -31
152 0 21 -4 41 -9 44 -4 3 -11 38 -14 78 -5 64 -9 76 -35 98 -24 21 -28 31
-25 61 4 32 2 37 -20 43 -14 3 -28 15 -32 26 -3 11 -17 28 -31 39 -14 11 -22
25 -18 34 3 9 -7 23 -28 38 -51 35 -73 62 -73 88 0 30 -18 37 -39 16 -15 -15
-16 -14 -16 18 0 33 -2 36 -42 42 -38 7 -56 20 -97 70 -9 12 -20 14 -35 9 -11
-4 -56 -8 -99 -9 -65 0 -80 3 -88 18 -6 9 -18 17 -27 17 -9 -1 -43 -28 -75
-61z m1687 -1871 c-9 -14 -22 -9 -27 11 -4 17 -2 18 13 8 10 -6 16 -15 14 -19z
m-23 -261 c-8 -8 -11 -7 -11 4 0 20 13 34 18 19 3 -7 -1 -17 -7 -23z m-439
-1353 c-7 -14 -12 -37 -12 -53 0 -17 -13 -43 -34 -67 -18 -21 -42 -54 -53 -72
-16 -26 -22 -30 -27 -17 -3 9 -2 23 3 33 5 9 14 37 21 61 6 24 26 57 44 76 20
20 36 48 41 72 7 36 8 37 18 15 7 -16 7 -30 -1 -48z m848 -1599 c7 -8 20 -15
29 -15 27 0 95 -27 99 -39 2 -6 -3 -11 -12 -11 -18 0 -22 -35 -6 -45 6 -3 10
-19 10 -35 0 -16 7 -30 16 -34 13 -5 15 -15 11 -48 -6 -44 -33 -73 -95 -104
-42 -20 -134 -34 -229 -34 l-73 0 0 44 c0 25 4 47 9 50 5 3 12 21 15 40 4 21
17 43 34 55 24 17 25 22 15 40 -7 12 -13 29 -13 40 0 14 10 21 36 25 19 4 38
14 41 22 3 7 11 14 19 14 7 0 21 11 30 25 18 28 45 32 64 10z"/>
<path d="M94 4305 c-4 -8 -4 -24 -1 -35 3 -11 1 -20 -4 -20 -5 0 -9 11 -9 25
0 20 -5 25 -24 25 -42 0 -56 -11 -56 -41 0 -23 5 -29 23 -30 16 -1 18 -2 5 -6
-10 -2 -18 -10 -18 -16 0 -7 15 -45 32 -85 24 -52 39 -74 55 -78 37 -10 53 2
53 40 0 25 -7 39 -22 50 l-22 16 27 0 c24 0 27 4 27 35 0 20 -8 43 -18 53 -14
14 -16 23 -8 34 7 12 6 21 -3 32 -17 20 -30 20 -37 1z"/>
<path d="M2507 3766 c-7 -17 18 -40 33 -31 5 3 10 15 10 26 0 12 -7 19 -19 19
-10 0 -21 -6 -24 -14z"/>
</g>
</svg>
