<?xml version="1.0" standalone="no"?>
<!DOCTYPE svg PUBLIC "-//W3C//DTD SVG 20010904//EN"
 "http://www.w3.org/TR/2001/REC-SVG-20010904/DTD/svg10.dtd">
<svg version="1.0" xmlns="http://www.w3.org/2000/svg"
 width="208.000000pt" height="627.000000pt" viewBox="0 0 208.000000 627.000000"
 preserveAspectRatio="xMidYMid meet">
<metadata>
Created by potrace 1.16, written by Peter Selinger 2001-2019
</metadata>
<g transform="translate(0.000000,627.000000) scale(0.100000,-0.100000)"
fill="#000000" stroke="none">
<path d="M1276 2842 c-3 -5 -19 -7 -36 -4 -28 4 -30 2 -30 -26 0 -25 -3 -29
-20 -25 -17 4 -20 0 -20 -24 0 -16 6 -36 13 -45 25 -32 132 -50 167 -28 10 6
22 4 38 -6 34 -22 54 -11 50 28 -2 28 -8 34 -30 36 -16 2 -28 10 -28 17 0 21
-14 25 -48 15 -19 -5 -34 -5 -37 1 -4 5 3 9 15 9 17 0 21 5 18 28 -2 19 -9 28
-25 30 -11 2 -24 -1 -27 -6z"/>
<path d="M1340 2830 c0 -15 7 -20 25 -20 18 0 25 5 25 20 0 15 -7 20 -25 20
-18 0 -25 -5 -25 -20z"/>
<path d="M1035 2781 c-12 -5 -26 -16 -34 -24 -7 -9 -26 -19 -43 -22 -26 -6
-29 -11 -26 -34 2 -15 -1 -33 -8 -39 -7 -6 -14 -17 -16 -23 -3 -8 -20 -13 -42
-12 -30 1 -39 -3 -43 -18 -3 -10 -9 -19 -14 -19 -5 0 -15 -11 -21 -25 -6 -13
-20 -27 -30 -31 -15 -4 -19 -13 -15 -30 4 -23 2 -24 -54 -24 l-59 0 0 -45 c0
-36 -3 -45 -18 -45 -28 0 -62 -29 -62 -53 0 -12 -9 -39 -20 -60 -11 -20 -20
-55 -20 -76 0 -49 -23 -75 -58 -66 -15 4 -31 0 -41 -9 -9 -8 -27 -16 -41 -18
-21 -3 -26 -10 -32 -52 -4 -27 -10 -52 -15 -57 -4 -4 -19 -9 -33 -11 -22 -3
-25 -9 -28 -48 -2 -24 -7 -47 -10 -50 -19 -14 -42 -62 -42 -89 0 -25 -3 -28
-22 -23 -20 5 -21 3 -15 -42 5 -38 3 -50 -12 -65 -11 -11 -27 -18 -38 -18 -12
1 -19 -6 -21 -20 -2 -17 2 -23 15 -24 10 0 -1 -9 -25 -19 -33 -15 -42 -24 -42
-44 0 -20 7 -27 33 -34 l32 -8 -42 -28 c-24 -16 -43 -34 -43 -40 0 -7 5 -17
12 -24 9 -9 8 -12 -4 -12 -12 0 -18 -14 -22 -57 -3 -32 -8 -79 -12 -105 -5
-40 -3 -48 10 -48 9 0 16 -8 16 -20 0 -11 -4 -20 -10 -20 -5 0 -10 -20 -10
-45 l0 -45 50 0 c40 0 51 -4 61 -21 9 -17 8 -23 -2 -30 -8 -5 -17 -9 -21 -9
-15 0 -8 -48 8 -54 22 -8 7 -26 -22 -26 -17 0 -24 -5 -24 -19 0 -11 4 -23 10
-26 16 -10 12 -23 -6 -21 -9 0 -21 -7 -28 -16 -8 -14 -8 -22 2 -35 6 -10 20
-33 29 -51 14 -27 15 -37 5 -52 -16 -26 -15 -52 3 -86 8 -16 15 -41 15 -55 0
-47 20 -87 51 -99 16 -7 29 -18 30 -24 0 -6 1 -41 1 -78 -1 -62 1 -68 19 -68
34 0 59 -19 59 -46 0 -19 34 -88 56 -113 2 -3 32 -10 67 -16 48 -9 63 -15 66
-31 4 -25 19 -34 56 -34 17 0 40 -7 52 -15 14 -10 32 -13 48 -9 15 4 32 1 40
-6 10 -8 61 -14 143 -17 90 -3 143 0 182 11 36 9 57 11 61 4 11 -18 43 -4 57
25 7 15 19 27 27 27 7 0 46 17 87 39 40 21 88 41 106 44 19 4 56 17 83 29 41
19 49 27 49 50 0 20 6 27 22 30 14 2 25 15 34 41 8 21 25 52 39 69 14 16 25
40 25 53 0 12 7 28 15 35 8 7 15 20 15 30 0 22 20 39 57 49 21 6 29 14 31 37
2 16 10 37 19 46 10 11 13 26 8 46 -5 26 -2 34 30 58 35 26 37 30 33 81 -2 43
0 54 14 59 9 3 28 18 41 34 13 15 35 30 48 32 13 1 30 15 39 30 13 24 13 31 2
49 -12 18 -12 23 0 30 7 5 18 9 25 9 18 0 24 16 33 88 6 46 14 70 27 80 16 11
18 28 18 135 0 112 -2 125 -22 151 -13 16 -23 32 -23 36 0 4 9 10 20 13 16 4
20 14 20 50 0 46 -18 74 -43 64 -7 -3 -20 1 -30 8 -16 11 -16 13 1 27 9 9 27
19 40 22 15 5 22 15 22 32 0 20 -9 29 -42 43 -42 17 -42 18 -19 30 24 13 60
82 61 115 0 16 -5 17 -32 12 -39 -8 -31 1 21 25 33 15 40 15 45 3 3 -8 15 -14
26 -14 13 0 20 7 20 19 0 11 -6 22 -12 24 -8 3 -6 6 5 6 14 1 17 10 17 51 0
43 -3 50 -19 50 -11 0 -22 -6 -24 -12 -3 -8 -6 -6 -6 5 -1 13 -10 17 -41 17
-31 0 -43 -5 -57 -26 -10 -14 -33 -41 -52 -60 -28 -30 -32 -41 -29 -72 3 -20
-1 -46 -8 -57 -16 -27 -44 -194 -44 -267 0 -33 -6 -71 -14 -86 -8 -15 -18 -44
-24 -65 -10 -35 -9 -39 11 -47 16 -6 17 -9 6 -9 -9 -1 -19 -8 -23 -16 -3 -9
-8 -50 -12 -93 -5 -64 -4 -80 9 -91 22 -17 37 -6 37 27 0 15 7 37 15 50 9 12
19 44 22 71 5 44 9 50 31 53 18 2 28 11 33 28 l6 25 8 -27 c11 -43 2 -211 -13
-228 -7 -8 -21 -31 -30 -50 -9 -19 -27 -39 -39 -45 -19 -8 -23 -18 -23 -52 0
-23 -4 -44 -8 -47 -5 -3 -6 8 -4 24 3 21 -1 32 -16 41 -20 12 -20 13 1 29 15
13 18 23 13 43 -5 20 -13 27 -31 27 -21 0 -30 -11 -56 -67 -60 -132 -84 -178
-134 -254 -27 -42 -58 -90 -67 -105 -29 -49 -43 -68 -54 -79 -11 -10 -124
-257 -124 -272 -1 -19 -70 -84 -103 -98 -20 -8 -47 -26 -61 -40 -14 -14 -32
-25 -40 -25 -9 0 -20 -9 -26 -20 -6 -11 -17 -20 -24 -20 -7 0 -27 -7 -44 -15
-33 -17 -205 -35 -338 -35 -53 0 -92 5 -110 15 -16 8 -38 15 -49 15 -26 0 -85
36 -85 52 0 7 -9 31 -20 53 -10 22 -22 56 -25 76 -3 21 -16 53 -29 72 -13 19
-26 52 -29 73 -3 22 -20 95 -37 164 -19 79 -33 162 -36 225 -8 150 -11 163
-44 180 -39 20 -68 19 -73 -2 -4 -17 -5 -17 -12 1 -5 11 -3 26 3 37 7 10 12
36 12 57 0 43 14 67 50 85 28 14 38 50 20 72 -7 9 -8 15 0 20 14 9 13 21 -5
39 -14 13 -14 16 1 24 11 6 18 27 22 61 2 28 9 54 14 57 5 3 15 0 23 -6 21
-17 45 -5 45 23 0 12 20 54 45 91 40 62 45 75 45 126 0 48 -4 60 -23 73 l-22
15 30 11 c57 21 79 36 94 64 9 15 26 30 38 33 12 3 30 18 39 32 10 15 41 56
70 92 28 36 55 75 58 88 4 12 12 22 17 22 5 0 9 11 9 25 0 19 10 29 40 45 22
11 49 34 62 50 12 17 27 30 34 30 7 0 14 6 16 13 2 6 39 46 83 87 44 41 82 81
83 88 2 8 -6 24 -18 37 -12 13 -20 31 -18 42 2 13 13 19 38 20 31 2 32 2 12
-7 -28 -12 -24 -34 6 -38 17 -3 22 2 23 20 0 13 3 17 6 11 8 -21 44 -15 50 7
3 11 9 20 14 20 5 0 9 11 9 25 0 19 -5 25 -23 25 -18 0 -22 5 -22 33 0 29 -3
32 -30 34 -16 1 -39 -2 -50 -6z m992 -697 c-3 -3 -12 -4 -19 -1 -8 3 -5 6 6 6
11 1 17 -2 13 -5z m-266 -1087 c-10 -9 -11 -8 -5 6 3 10 9 15 12 12 3 -3 0
-11 -7 -18z m-28 -117 c3 -11 1 -20 -4 -20 -5 0 -9 9 -9 20 0 11 2 20 4 20 2
0 6 -9 9 -20z m-93 -122 c0 -3 -9 -4 -20 -1 -16 4 -18 8 -9 20 10 11 14 11 20
1 5 -7 9 -16 9 -20z m-50 -70 c0 -5 -4 -8 -10 -8 -5 0 -10 10 -10 23 0 18 2
19 10 7 5 -8 10 -18 10 -22z"/>
<path d="M1450 2750 c0 -16 5 -21 23 -18 12 2 22 10 22 18 0 8 -10 16 -22 18
-18 3 -23 -2 -23 -18z"/>
<path d="M1485 2718 c-2 -7 -9 -42 -14 -77 -9 -58 -8 -68 10 -98 11 -18 24
-33 28 -33 12 0 81 80 81 93 0 6 7 1 16 -11 21 -31 44 -28 44 6 0 48 -12 72
-36 78 -14 4 -31 1 -40 -6 -19 -16 -36 -2 -38 32 -1 16 -8 24 -24 26 -12 2
-24 -3 -27 -10z"/>
<path d="M1657 2553 c-18 -9 -26 -20 -23 -29 4 -11 2 -12 -14 -4 -10 5 -32 10
-49 10 -24 0 -31 -4 -31 -19 0 -25 37 -51 72 -51 20 0 28 5 28 17 0 13 3 14
12 5 7 -7 21 -12 33 -13 14 -1 11 -4 -12 -11 -33 -11 -45 -34 -36 -68 7 -28
33 -25 58 7 15 17 26 23 35 18 10 -6 8 -10 -9 -17 -16 -5 -21 -15 -19 -30 2
-19 9 -23 38 -23 29 0 36 4 38 24 l4 23 14 -21 c18 -25 62 -28 71 -5 3 8 -2
32 -12 54 -14 30 -30 45 -80 70 -54 28 -61 34 -57 56 3 19 0 24 -14 23 -11 -1
-32 -8 -47 -16z"/>
<path d="M1873 2333 c-15 -3 -23 -12 -23 -24 0 -19 26 -68 42 -80 4 -3 7 -23
5 -45 l-2 -39 46 1 c26 0 58 8 72 17 22 14 26 24 25 67 0 48 -1 50 -28 50 -18
0 -35 9 -47 23 -19 25 -54 36 -90 30z"/>
<path d="M1504 2215 c-4 -9 -2 -21 4 -27 15 -15 44 -1 40 19 -4 23 -36 29 -44
8z"/>
<path d="M34 1006 c-8 -21 3 -36 27 -36 15 0 20 6 17 22 -4 27 -35 37 -44 14z"/>
</g>
</svg>
