<?xml version="1.0" standalone="no"?>
<!DOCTYPE svg PUBLIC "-//W3C//DTD SVG 20010904//EN"
 "http://www.w3.org/TR/2001/REC-SVG-20010904/DTD/svg10.dtd">
<svg version="1.0" xmlns="http://www.w3.org/2000/svg"
 width="223.000000pt" height="627.000000pt" viewBox="0 0 223.000000 627.000000"
 preserveAspectRatio="xMidYMid meet">
<metadata>
Created by potrace 1.16, written by Peter Selinger 2001-2019
</metadata>
<g transform="translate(0.000000,627.000000) scale(0.100000,-0.100000)"
fill="#000000" stroke="none">
<path d="M522 4798 c-7 -7 -12 -31 -12 -54 0 -33 -5 -45 -25 -58 -27 -18 -34
-56 -11 -56 23 0 47 -83 34 -120 -3 -8 -10 -46 -16 -85 -24 -163 -54 -336 -72
-417 -30 -127 -50 -281 -50 -379 0 -56 -6 -100 -16 -125 -9 -22 -22 -105 -30
-194 -8 -85 -25 -231 -38 -325 -14 -93 -24 -190 -24 -215 3 -62 -20 -298 -37
-395 -8 -44 -19 -148 -25 -232 -6 -84 -16 -166 -22 -183 -6 -17 -8 -48 -5 -68
4 -21 2 -41 -5 -50 -6 -7 -12 -41 -13 -75 0 -34 -5 -69 -10 -77 -11 -17 -21
-93 -35 -255 -5 -60 -12 -125 -15 -144 -4 -19 -11 -80 -16 -135 -16 -160 -25
-230 -53 -406 -19 -113 -25 -184 -21 -225 7 -73 7 -67 -1 -189 -5 -78 -4 -100
7 -107 8 -5 40 -9 72 -9 52 0 62 4 88 29 l29 30 -9 83 c-6 48 -6 100 -1 123
23 104 30 169 30 266 0 57 5 142 10 189 6 47 21 180 35 295 45 391 66 539 82
573 13 27 14 38 5 53 -7 11 -10 29 -7 42 3 12 9 66 14 120 7 80 12 102 30 118
22 20 29 59 11 59 -15 0 -12 36 5 50 13 11 15 7 15 -29 0 -37 3 -41 24 -41 13
0 37 7 52 15 16 8 38 15 49 15 11 0 30 7 42 15 16 11 28 13 48 5 36 -14 55
-13 55 3 0 9 12 11 40 9 43 -4 70 10 70 37 0 14 12 16 85 12 57 -2 85 1 85 8
0 6 8 11 18 11 10 0 29 8 42 17 14 10 37 16 52 14 17 -1 30 3 34 12 4 11 24
14 89 13 69 -1 84 -4 82 -16 -1 -10 8 -16 26 -18 22 -3 30 1 34 17 4 17 8 19
20 10 10 -9 20 -9 38 -1 13 6 27 7 30 3 2 -5 0 -67 -5 -137 -6 -71 -10 -183
-10 -248 0 -66 -4 -124 -9 -130 -4 -6 -11 -36 -15 -67 -3 -31 -13 -72 -21 -92
-10 -24 -15 -69 -15 -129 0 -51 -5 -133 -11 -181 -7 -56 -7 -92 -1 -100 5 -7
6 -21 1 -32 -4 -11 -8 -54 -8 -95 -1 -41 -6 -93 -12 -115 -9 -32 -9 -41 3 -49
13 -8 13 -13 1 -37 -11 -22 -13 -91 -10 -356 2 -180 6 -378 8 -440 6 -133 17
-153 84 -153 22 0 50 7 61 15 10 8 32 15 47 15 16 0 30 7 34 16 3 9 0 32 -7
52 -11 31 -10 37 4 47 22 17 20 46 -5 52 -14 4 -18 10 -12 22 7 16 13 132 12
259 0 87 0 80 9 247 5 83 6 174 2 204 -5 37 -2 67 7 95 8 22 13 55 11 72 -2
17 2 36 9 43 9 8 11 26 7 54 -10 74 -14 87 -29 87 -19 0 -19 16 -1 23 9 4 16
27 19 69 2 35 10 112 16 172 9 84 9 112 -1 123 -9 11 -9 16 2 23 7 4 11 17 7
29 -3 12 3 29 14 42 22 26 24 39 6 63 -12 16 -11 24 5 54 14 28 18 59 18 139
0 56 -4 104 -9 107 -5 4 -6 18 -1 34 8 24 18 119 51 455 8 81 7 104 -5 128 -8
16 -10 29 -5 29 6 0 9 10 8 23 -1 12 3 33 8 47 6 14 16 65 22 114 7 49 16 97
22 107 5 10 9 47 9 83 0 35 4 76 9 89 6 16 6 49 1 89 -8 52 -7 65 6 74 10 8
19 50 29 130 22 175 45 315 56 335 14 26 11 153 -3 168 -11 10 -8 16 12 31 23
17 24 21 12 54 -11 31 -11 39 2 58 18 26 21 58 5 58 -7 0 -9 10 -5 25 5 21 3
25 -16 26 l-23 0 22 9 c12 5 26 18 32 29 13 24 14 125 2 149 -5 9 -17 38 -26
64 -20 59 -42 68 -72 31 -13 -15 -23 -32 -23 -37 0 -6 -6 -1 -14 10 -28 37
-38 2 -47 -163 -4 -87 -15 -204 -24 -260 -8 -57 -15 -122 -15 -145 0 -24 -7
-68 -15 -98 -8 -30 -15 -69 -15 -85 0 -17 -4 -35 -9 -40 -5 -6 -11 -30 -14
-55 -3 -25 -10 -76 -16 -115 -6 -38 -16 -110 -22 -160 -6 -49 -24 -162 -40
-250 -16 -88 -36 -243 -44 -345 -16 -211 -34 -320 -52 -320 -7 0 -20 11 -29
25 -9 14 -22 25 -30 25 -7 0 -16 -11 -20 -24 -4 -16 -11 -23 -20 -19 -8 3 -21
0 -28 -7 -11 -8 -20 -9 -36 0 -11 6 -30 8 -40 5 -12 -4 -20 -2 -20 4 0 6 -9
11 -20 11 -12 0 -20 -7 -20 -17 0 -15 -1 -15 -18 0 -23 21 -58 22 -66 2 -4
-12 -25 -15 -96 -15 -49 0 -90 -3 -90 -7 0 -5 -30 -9 -65 -11 -36 -1 -98 -9
-138 -18 -40 -8 -94 -18 -122 -22 -27 -4 -57 -12 -65 -17 -8 -5 -40 -12 -71
-15 l-56 -5 4 35 c2 19 13 141 23 270 11 129 25 262 30 295 5 33 14 132 20
220 13 204 37 439 56 535 8 42 14 89 14 107 0 17 9 82 20 144 37 205 59 423
73 732 l4 77 -52 0 c-28 0 -56 -5 -63 -12z m129 -2475 c-10 -17 -10 -16 -11 3
0 23 13 41 18 25 2 -6 -1 -18 -7 -28z"/>
<path d="M1776 4633 c-8 -19 17 -48 33 -39 6 4 11 18 11 32 0 17 -6 24 -19 24
-10 0 -22 -8 -25 -17z"/>
<path d="M2165 4550 c-32 -13 -42 -31 -49 -95 -13 -104 -28 -356 -30 -467 0
-77 -4 -108 -13 -108 -25 0 -24 -23 3 -53 16 -18 19 -23 7 -13 -12 10 -29 16
-37 13 -8 -3 -16 -25 -19 -54 -3 -26 -6 -57 -8 -68 -3 -13 4 -23 19 -30 12 -5
22 -13 22 -17 0 -5 -11 -18 -25 -30 -22 -19 -25 -30 -25 -82 0 -33 6 -84 12
-113 12 -50 14 -53 44 -53 24 0 33 5 38 23 3 12 6 41 6 64 0 23 4 44 8 47 5 3
12 49 15 103 4 54 16 152 27 218 21 129 26 270 10 280 -15 9 -12 25 4 25 19 0
26 22 26 88 0 31 7 102 15 157 8 55 15 117 15 138 0 32 -3 37 -22 36 -13 0
-32 -4 -43 -9z"/>
<path d="M2024 3284 c-13 -31 -20 -88 -27 -224 -2 -29 2 -36 20 -38 36 -5 51
32 62 162 6 65 8 123 5 127 -3 5 -14 9 -25 9 -13 0 -25 -12 -35 -36z"/>
<path d="M1990 2950 c0 -16 5 -21 23 -18 12 2 22 10 22 18 0 8 -10 16 -22 18
-18 3 -23 -2 -23 -18z"/>
<path d="M1990 2845 c0 -33 2 -35 35 -35 27 0 35 4 35 18 0 23 -30 52 -53 52
-13 0 -17 -9 -17 -35z"/>
<path d="M1990 2770 c0 -34 33 -73 58 -68 12 2 18 15 20 42 4 43 -7 56 -50 56
-24 0 -28 -4 -28 -30z"/>
<path d="M1976 2624 c-9 -8 -16 -19 -16 -24 0 -4 8 -18 18 -30 13 -17 24 -21
40 -16 23 8 38 45 28 71 -7 20 -50 19 -70 -1z"/>
<path d="M1933 2510 c-28 -11 -45 -43 -36 -67 9 -24 23 -33 54 -33 49 0 77 60
43 94 -17 18 -29 19 -61 6z"/>
<path d="M1123 2342 c-3 -14 -12 -17 -34 -14 -24 4 -29 1 -29 -17 0 -15 6 -21
23 -21 13 0 27 3 31 7 4 4 23 6 42 4 25 -2 36 2 41 15 4 11 0 22 -12 30 -26
20 -56 17 -62 -4z"/>
<path d="M1930 2094 c-6 -14 -10 -30 -10 -35 0 -5 13 -9 30 -9 19 0 33 7 40
21 16 29 5 49 -25 49 -18 0 -28 -7 -35 -26z"/>
<path d="M1905 2007 c-8 -19 -17 -53 -21 -76 -6 -38 -5 -41 17 -41 32 1 103
64 96 85 -4 8 -13 15 -21 15 -8 0 -16 10 -18 22 -2 13 -11 24 -21 26 -12 3
-22 -7 -32 -31z"/>
<path d="M1892 1834 c-20 -14 -23 -24 -22 -77 0 -34 -2 -85 -6 -113 -4 -39 -2
-53 10 -63 9 -8 16 -19 16 -26 0 -7 6 -18 14 -24 10 -9 17 -7 27 5 9 11 15 48
16 109 1 50 7 104 13 120 6 16 10 40 8 54 -2 19 -10 27 -28 29 -14 1 -35 -5
-48 -14z"/>
<path d="M1821 1536 c-16 -19 -6 -36 20 -36 15 0 20 6 17 22 -4 27 -21 33 -37
14z"/>
<path d="M1843 1424 c-3 -9 -1 -24 6 -33 6 -9 14 -24 17 -33 9 -25 45 -23 51
2 3 11 10 20 15 20 5 0 8 12 6 28 -3 24 -7 27 -46 30 -32 2 -44 -1 -49 -14z"/>
<path d="M1833 1183 c-4 -10 -19 -33 -35 -51 -15 -18 -28 -37 -28 -42 0 -14
36 -22 73 -15 30 6 35 11 46 55 7 27 10 54 6 60 -10 17 -55 12 -62 -7z"/>
<path d="M1835 910 c-4 -6 -9 -44 -12 -85 l-6 -75 32 0 c24 0 34 6 40 24 5 12
10 51 10 85 0 61 0 61 -29 61 -16 0 -32 -5 -35 -10z"/>
<path d="M1844 575 c-4 -9 -2 -21 4 -27 15 -15 44 -1 40 19 -4 23 -36 29 -44
8z"/>
</g>
</svg>
