<?xml version="1.0" standalone="no"?>
<!DOCTYPE svg PUBLIC "-//W3C//DTD SVG 20010904//EN"
 "http://www.w3.org/TR/2001/REC-SVG-20010904/DTD/svg10.dtd">
<svg version="1.0" xmlns="http://www.w3.org/2000/svg"
 width="272.000000pt" height="764.000000pt" viewBox="0 0 272.000000 764.000000"
 preserveAspectRatio="xMidYMid meet">
<metadata>
Created by potrace 1.16, written by Peter Selinger 2001-2019
</metadata>
<g transform="translate(0.000000,764.000000) scale(0.100000,-0.100000)"
fill="#000000" stroke="none">
<path d="M544 5115 c-5 -12 -17 -15 -43 -13 -33 3 -36 1 -39 -24 -3 -22 -9
-28 -27 -28 -12 0 -25 -6 -28 -14 -3 -8 -20 -17 -37 -21 -29 -6 -64 -26 -127
-70 -12 -8 -23 -25 -25 -37 -2 -18 -12 -24 -42 -29 -42 -7 -79 -41 -74 -68 2
-9 -4 -23 -13 -32 -9 -9 -19 -40 -23 -70 -4 -30 -14 -64 -22 -77 -18 -28 -12
-52 13 -52 15 0 14 -3 -5 -16 -12 -8 -22 -24 -22 -35 0 -11 -7 -19 -16 -19
-11 0 -14 -8 -12 -27 2 -20 9 -29 25 -31 17 -2 26 3 32 21 6 16 20 26 40 30
34 7 51 36 51 88 0 17 7 37 15 45 8 9 15 25 15 37 0 30 27 67 49 67 23 0 51
31 51 57 0 12 7 24 15 27 9 3 24 25 35 48 10 24 19 35 19 25 1 -24 24 -31 53
-16 39 21 98 72 98 84 0 7 13 15 29 18 15 3 49 22 74 41 l46 35 3 -27 c3 -23
9 -28 48 -35 28 -5 56 -4 72 2 31 12 62 64 53 90 -4 14 -23 20 -98 28 -145 17
-176 16 -183 -2z"/>
<path d="M867 5058 c-20 -23 -27 -40 -25 -62 l3 -31 80 -6 c50 -4 97 -14 125
-27 25 -12 51 -22 58 -22 6 0 12 8 12 17 0 14 3 13 16 -5 8 -12 25 -22 38 -22
13 0 42 -15 66 -32 89 -68 105 -78 122 -78 10 0 18 -4 18 -10 0 -5 11 -10 25
-10 17 0 25 5 25 18 0 9 -7 26 -15 36 -8 11 -15 29 -15 41 0 28 -37 61 -77 70
-25 5 -32 11 -30 28 1 14 -4 22 -18 25 -22 4 -113 37 -160 58 -16 8 -59 18
-95 24 -36 5 -78 12 -95 15 -25 4 -35 0 -58 -27z"/>
<path d="M1450 4804 c-20 -51 -12 -93 31 -155 22 -33 57 -70 77 -83 21 -13 43
-31 51 -40 7 -9 35 -28 61 -42 45 -24 130 -114 130 -136 0 -17 90 -98 109 -98
23 0 75 66 67 85 -3 8 -10 15 -16 15 -5 0 -10 13 -10 28 0 16 -9 37 -20 47
-11 10 -20 24 -20 31 0 7 -18 26 -39 43 -27 22 -50 31 -75 31 -23 0 -39 5 -42
15 -4 8 -12 15 -18 15 -7 0 -25 13 -41 29 -15 17 -37 31 -49 33 -13 2 -25 14
-31 33 -15 45 -24 55 -49 55 -20 0 -24 6 -28 45 -3 25 -11 52 -18 60 -7 8 -23
15 -36 15 -17 0 -28 -8 -34 -26z"/>
<path d="M63 4445 c-12 -8 -24 -26 -27 -40 -9 -36 25 -108 79 -166 25 -27 45
-54 45 -62 0 -8 8 -25 18 -38 11 -13 19 -39 19 -56 0 -33 26 -73 48 -73 18 0
29 113 15 155 -6 20 -29 48 -52 67 -24 18 -49 51 -61 77 -11 26 -26 53 -34 63
-10 11 -11 18 -4 23 17 10 13 43 -7 54 -14 7 -25 6 -39 -4z"/>
<path d="M2025 4300 c-22 -24 -45 -81 -52 -128 -9 -55 6 -116 41 -173 19 -30
43 -69 55 -87 11 -18 26 -51 33 -73 7 -24 24 -50 40 -62 15 -11 28 -28 28 -37
0 -8 7 -26 16 -39 10 -13 18 -51 21 -94 3 -47 9 -74 19 -82 11 -8 17 -38 21
-108 3 -54 10 -100 14 -103 5 -2 6 -18 3 -33 -4 -17 0 -38 9 -52 8 -13 17 -46
21 -73 3 -27 11 -54 16 -61 6 -7 11 -48 11 -91 1 -65 5 -83 24 -108 12 -17 26
-42 30 -56 4 -14 16 -41 26 -60 12 -22 15 -38 9 -44 -14 -14 -13 -99 1 -113 9
-9 9 -20 0 -44 -12 -36 -14 -97 -5 -188 6 -50 10 -61 25 -61 23 0 24 -16 4
-36 -8 -9 -15 -24 -15 -35 0 -28 18 -59 35 -59 12 0 12 -4 0 -26 -8 -16 -38
-39 -77 -57 -61 -31 -67 -32 -173 -29 -123 3 -378 19 -440 27 -52 7 -85 -11
-99 -54 -6 -19 -21 -40 -33 -48 -21 -14 -21 -14 -16 46 l6 59 -48 7 c-53 9
-194 -2 -210 -15 -6 -5 -41 -16 -79 -26 -37 -9 -69 -22 -70 -28 -2 -6 -8 -26
-14 -44 -9 -29 -8 -33 11 -44 12 -6 26 -17 30 -24 10 -17 57 -18 57 -2 0 6 6
3 14 -8 13 -17 33 -20 183 -27 92 -5 224 -9 293 -10 69 0 127 -4 130 -7 3 -4
93 -12 200 -19 189 -13 252 -18 277 -20 9 -1 8 -10 -3 -36 -17 -41 -18 -124
-3 -158 8 -18 8 -30 -1 -47 -9 -16 -9 -25 -1 -33 16 -16 13 -57 -4 -63 -18 -7
-20 -35 -3 -52 9 -9 7 -13 -5 -18 -12 -4 -17 -18 -17 -45 0 -21 -4 -39 -10
-39 -5 0 -10 -7 -10 -15 0 -8 -11 -17 -25 -21 -16 -4 -25 -13 -25 -25 0 -14
10 -20 40 -25 38 -6 39 -7 42 -53 3 -44 5 -46 34 -49 22 -2 40 4 59 20 23 20
28 33 32 93 2 39 11 86 18 106 8 20 19 112 25 205 14 214 17 234 38 242 9 4
44 13 77 22 53 13 60 18 63 42 2 19 -3 30 -17 38 -18 9 -19 14 -9 35 16 36 -3
75 -37 75 -15 0 -42 12 -61 26 -33 26 -34 29 -34 95 0 37 5 71 10 74 12 8 13
62 1 69 -5 3 -7 15 -4 26 9 33 -28 393 -43 422 -8 15 -14 38 -14 53 0 14 -4
25 -10 25 -5 0 -10 5 -10 10 0 6 6 10 14 10 20 0 25 30 11 60 -40 83 -49 108
-47 132 2 15 -2 37 -9 50 -7 13 -16 43 -20 68 -4 25 -12 63 -18 85 -6 22 -11
63 -11 91 0 50 -23 114 -41 114 -5 0 -9 14 -9 30 0 17 -3 30 -7 30 -5 0 -9 24
-10 53 0 28 -9 72 -18 97 -9 25 -19 57 -22 72 -3 15 -11 33 -19 39 -8 6 -14
22 -14 35 0 18 -5 24 -23 24 -20 0 -22 4 -19 39 3 25 -1 43 -11 52 -10 10 -12
18 -4 31 8 12 7 21 -2 32 -16 19 -77 21 -84 4 -3 -7 -2 6 0 28 5 43 -20 217
-39 267 -12 32 -38 35 -63 7z"/>
<path d="M226 3983 c-12 -42 -26 -141 -26 -185 0 -36 -4 -48 -15 -48 -24 0
-18 -47 8 -61 12 -7 28 -20 35 -31 9 -13 26 -18 58 -18 31 0 46 5 50 15 8 20
-22 65 -43 65 -15 0 -15 1 0 18 21 23 21 39 2 58 -11 11 -13 30 -8 78 4 44 1
73 -8 95 -15 34 -45 41 -53 14z"/>
<path d="M2343 1118 c-12 -24 -25 -55 -29 -70 -3 -16 -12 -28 -20 -28 -19 0
-44 -40 -44 -72 0 -18 6 -29 21 -33 20 -7 19 -8 -9 -25 -17 -11 -36 -28 -41
-39 -16 -30 -13 -69 7 -80 16 -10 16 -10 -1 -11 -20 0 -56 -37 -57 -57 0 -6
-9 -15 -20 -18 -21 -7 -27 -39 -10 -50 20 -12 8 -41 -26 -62 -20 -13 -46 -23
-60 -23 -28 0 -42 -24 -25 -44 9 -11 6 -14 -14 -13 -34 0 -71 -36 -91 -90 -11
-27 -23 -43 -33 -43 -10 0 -33 -12 -52 -26 -87 -65 -229 -119 -379 -144 -160
-27 -171 -30 -168 -53 5 -34 78 -44 159 -21 11 3 19 -3 22 -16 4 -17 12 -21
34 -18 19 2 27 8 25 19 -1 9 6 23 16 32 18 16 18 15 14 -13 -4 -25 -1 -30 16
-30 41 0 56 59 15 60 -11 1 -4 7 16 15 18 8 35 15 37 15 2 0 4 -7 4 -15 0 -21
43 -39 74 -31 14 3 31 18 38 33 7 15 31 37 53 49 22 13 46 28 54 35 24 22 84
49 108 49 17 0 23 6 23 21 0 30 44 69 69 62 31 -8 40 25 12 46 -21 16 -22 18
-5 32 13 11 18 11 21 2 3 -7 16 -13 30 -13 24 0 25 3 20 35 -6 34 -5 35 27 35
37 0 61 21 52 45 -3 8 3 19 14 25 10 5 24 26 30 45 6 19 20 40 30 45 10 6 22
19 25 30 3 11 12 20 20 20 20 0 26 28 9 45 -14 14 -13 19 16 52 25 28 31 43
27 66 -3 23 0 31 15 35 10 2 18 10 18 17 0 7 7 18 15 25 8 7 15 26 15 42 0 16
7 37 16 46 15 15 15 17 -7 35 -12 10 -28 28 -34 40 -6 14 -21 23 -40 25 -26 2
-33 -3 -52 -40z"/>
<path d="M37 353 c-4 -3 -7 -17 -7 -29 0 -26 26 -44 64 -44 22 0 26 5 26 28 0
15 -5 33 -12 40 -13 13 -60 16 -71 5z"/>
<path d="M149 283 c-5 -14 -8 -34 -7 -42 3 -12 14 -15 50 -13 39 3 51 -1 81
-28 26 -22 44 -30 64 -28 20 2 31 -3 38 -17 6 -11 23 -21 38 -23 24 -3 27 0
27 27 0 25 -4 31 -22 31 -19 1 -18 3 10 15 17 8 32 19 32 24 0 16 -44 41 -84
48 -24 4 -36 2 -36 -6 0 -17 -37 -13 -44 4 -4 10 -20 15 -51 15 -25 0 -45 5
-45 10 0 6 -9 10 -20 10 -13 0 -24 -10 -31 -27z"/>
<path d="M510 213 c-36 -7 -60 -32 -60 -64 0 -24 5 -28 38 -33 74 -11 230 -18
251 -11 11 3 21 14 21 23 0 23 -65 63 -112 69 -30 5 -38 2 -38 -10 0 -12 -6
-10 -25 8 -24 25 -29 26 -75 18z"/>
<path d="M784 146 c-3 -8 -4 -25 -2 -38 3 -22 8 -23 91 -26 l87 -3 0 31 c0 24
-6 33 -26 40 -14 6 -52 10 -85 10 -42 0 -61 -4 -65 -14z"/>
<path d="M993 150 c-16 -6 -23 -18 -23 -35 0 -32 48 -95 72 -95 10 0 22 9 28
20 6 11 26 22 46 26 38 7 113 68 100 81 -11 12 -197 14 -223 3z"/>
<path d="M1403 89 c-16 -16 -5 -39 19 -39 14 0 19 6 16 22 -4 25 -19 33 -35
17z"/>
<path d="M1317 66 c-3 -8 -3 -24 0 -35 8 -30 41 -27 53 5 6 14 10 30 10 35 0
15 -57 10 -63 -5z"/>
<path d="M915 30 c-9 -15 4 -30 26 -30 12 0 19 7 19 20 0 13 -7 20 -19 20 -11
0 -23 -4 -26 -10z"/>
</g>
</svg>
