<?xml version="1.0" standalone="no"?>
<!DOCTYPE svg PUBLIC "-//W3C//DTD SVG 20010904//EN"
 "http://www.w3.org/TR/2001/REC-SVG-20010904/DTD/svg10.dtd">
<svg version="1.0" xmlns="http://www.w3.org/2000/svg"
 width="309.000000pt" height="764.000000pt" viewBox="0 0 309.000000 764.000000"
 preserveAspectRatio="xMidYMid meet">
<metadata>
Created by potrace 1.16, written by Peter Selinger 2001-2019
</metadata>
<g transform="translate(0.000000,764.000000) scale(0.100000,-0.100000)"
fill="#000000" stroke="none">
<path d="M2967 5797 c-9 -18 -20 -51 -25 -73 -12 -52 -90 -230 -108 -245 -8
-6 -14 -17 -14 -24 0 -6 -9 -20 -20 -30 -11 -10 -20 -26 -20 -36 0 -22 -16
-33 -25 -18 -4 6 -28 9 -54 8 -57 -4 -110 8 -134 29 -15 13 -23 14 -50 4 -21
-8 -33 -9 -35 -2 -5 13 -35 13 -49 -1 -11 -11 -88 -8 -181 7 -26 4 -48 2 -56
-5 -8 -7 -51 -16 -96 -21 -83 -10 -92 -13 -145 -61 -16 -15 -40 -30 -52 -33
-12 -4 -28 -20 -35 -36 -10 -24 -19 -30 -43 -30 -44 0 -80 -22 -78 -47 2 -17
-2 -20 -18 -16 -15 4 -22 0 -26 -16 -3 -12 -13 -21 -23 -21 -26 0 -80 -48 -80
-72 0 -11 -8 -22 -20 -25 -11 -3 -20 -10 -20 -15 0 -6 -16 -25 -35 -42 -19
-18 -41 -50 -48 -72 -12 -33 -19 -39 -45 -42 -17 -2 -36 -10 -42 -18 -7 -8
-19 -14 -26 -14 -8 0 -19 -9 -26 -20 -7 -11 -23 -20 -35 -20 -13 0 -23 -4 -23
-10 0 -5 -13 -16 -30 -25 -16 -9 -30 -22 -30 -30 0 -8 -9 -19 -20 -25 -11 -6
-20 -17 -20 -25 0 -8 -18 -26 -40 -40 -25 -16 -40 -33 -40 -46 0 -11 -23 -43
-51 -71 l-51 -51 -18 -110 c-12 -75 -22 -114 -34 -122 -20 -15 -21 -54 0 -62
25 -9 62 14 84 54 50 91 123 183 145 183 7 0 15 6 18 14 9 23 97 137 154 200
30 32 81 76 114 98 34 23 66 51 71 64 6 13 14 24 18 24 11 0 200 189 200 199
0 5 11 12 24 15 14 3 63 35 111 71 47 36 90 65 95 65 6 0 10 3 10 8 0 11 54
40 164 88 125 55 207 64 350 39 115 -19 172 -40 187 -66 5 -10 7 -31 3 -46
-13 -59 -38 -128 -51 -141 -19 -19 -87 -165 -113 -242 -12 -36 -28 -68 -35
-73 -7 -4 -16 -20 -20 -37 -4 -16 -15 -32 -26 -35 -10 -4 -21 -18 -25 -33 -3
-15 -15 -46 -26 -68 -12 -23 -18 -48 -15 -57 9 -23 50 -47 91 -54 36 -6 36 -5
36 30 0 27 -5 36 -21 40 -17 5 -20 11 -16 34 5 32 29 96 38 103 3 3 9 18 13
33 4 17 16 31 31 37 14 5 25 16 25 23 0 19 74 163 91 177 3 3 14 20 23 38 10
19 20 32 23 29 3 -3 0 -13 -5 -23 -6 -10 -6 -29 -1 -48 7 -23 5 -32 -6 -39
-16 -9 -20 -43 -6 -51 15 -9 1 -45 -25 -65 -13 -10 -24 -25 -24 -32 0 -8 -12
-32 -25 -54 -29 -47 -34 -115 -9 -115 11 0 14 -5 10 -16 -3 -9 -6 -18 -6 -20
0 -2 -11 -4 -24 -4 -21 0 -28 -9 -46 -57 -12 -32 -24 -74 -27 -93 -3 -19 -13
-57 -23 -85 -37 -105 -80 -252 -89 -312 -5 -34 -16 -74 -24 -90 -16 -30 -47
-170 -47 -209 0 -14 -7 -36 -16 -50 -11 -17 -15 -37 -11 -64 3 -27 -2 -57 -15
-92 -11 -29 -27 -61 -35 -70 -12 -14 -14 -30 -9 -73 l6 -55 -30 0 c-25 0 -30
-4 -30 -23 0 -13 6 -32 14 -43 13 -17 12 -21 -6 -41 -12 -13 -24 -40 -27 -60
-5 -29 -11 -39 -29 -41 -18 -3 -22 -10 -22 -40 -1 -20 -7 -48 -15 -62 -19 -33
-19 -69 0 -76 12 -5 11 -11 -7 -34 -12 -17 -19 -37 -15 -49 3 -14 -1 -25 -13
-31 -25 -13 -35 -47 -20 -65 10 -12 5 -18 -31 -35 -51 -23 -155 -28 -162 -7
-2 8 -31 12 -93 12 -66 0 -95 5 -114 17 -31 21 -116 41 -140 33 -10 -3 -20
-15 -23 -25 -5 -21 -27 -28 -27 -9 0 19 -63 89 -80 89 -9 0 -25 9 -35 20 -19
21 -113 60 -145 60 -11 0 -27 11 -36 25 -9 14 -25 25 -35 25 -10 0 -24 10 -30
23 -7 12 -26 39 -43 59 -17 20 -47 60 -66 88 -59 87 -71 100 -90 100 -10 0
-21 -7 -24 -16 -11 -27 -26 -4 -26 40 0 48 -16 103 -36 127 -8 8 -14 29 -14
46 0 17 -8 41 -18 54 -13 17 -22 58 -30 136 -12 105 -11 115 8 164 12 29 20
67 18 85 -1 17 3 39 10 47 7 8 14 28 15 44 1 15 8 34 15 42 9 9 12 35 11 75
-2 39 3 75 14 99 12 29 22 37 41 37 20 0 26 5 26 22 0 12 -10 42 -22 66 -19
41 -20 45 -5 54 10 5 17 18 17 28 0 16 -7 20 -34 20 -25 0 -40 -7 -55 -26 -12
-15 -21 -32 -21 -38 0 -7 -10 -26 -23 -44 -13 -17 -29 -50 -37 -74 -7 -24 -22
-63 -34 -88 -12 -27 -21 -70 -23 -107 -1 -34 -7 -71 -13 -82 -6 -13 -21 -21
-35 -21 -20 0 -25 -5 -25 -24 0 -13 -7 -37 -15 -52 -8 -16 -15 -40 -15 -52 0
-13 -8 -34 -18 -47 -17 -22 -18 -29 -5 -107 7 -45 18 -105 24 -133 5 -27 13
-63 16 -80 3 -16 13 -48 24 -71 10 -22 19 -52 19 -67 0 -15 9 -35 20 -44 13
-12 20 -30 20 -55 0 -21 5 -38 10 -38 6 0 10 -8 10 -19 0 -10 7 -24 15 -31 8
-7 15 -19 15 -27 0 -29 35 -7 55 34 11 23 23 42 28 43 4 0 13 -11 19 -25 6
-14 14 -25 18 -25 4 0 11 -15 14 -32 8 -41 8 -45 0 -84 -5 -26 -1 -36 27 -61
20 -20 46 -33 73 -36 46 -6 68 -30 60 -64 -5 -19 -2 -25 15 -30 11 -3 21 -9
21 -14 0 -14 48 -11 53 4 3 9 8 9 23 -1 11 -7 27 -15 37 -19 13 -4 17 -14 15
-37 -3 -26 1 -32 20 -34 13 -2 30 2 37 8 12 10 18 6 32 -19 10 -17 26 -31 37
-31 10 0 38 10 62 21 23 12 50 19 58 16 10 -4 16 -19 16 -41 0 -26 5 -35 23
-40 12 -3 37 -6 55 -6 25 0 35 -5 42 -25 11 -29 35 -32 61 -9 16 14 18 14 29
-5 6 -12 18 -21 27 -21 9 0 24 -7 34 -16 10 -9 23 -13 28 -9 15 9 14 38 -1 54
-8 7 -1 6 17 -3 17 -9 44 -16 62 -16 25 0 32 -5 35 -22 2 -17 10 -23 29 -23
18 1 25 -4 22 -12 -3 -7 -11 -13 -18 -13 -7 0 -37 -22 -67 -48 -29 -26 -73
-63 -98 -82 -25 -19 -114 -93 -199 -164 -85 -71 -171 -138 -190 -150 -20 -11
-78 -56 -129 -99 -52 -43 -118 -94 -147 -113 -30 -18 -60 -42 -67 -51 -7 -10
-29 -25 -48 -34 -38 -18 -107 -70 -154 -116 -16 -15 -37 -47 -47 -69 -11 -23
-27 -44 -37 -46 -13 -4 -21 -22 -30 -70 -7 -36 -12 -84 -12 -107 0 -36 3 -41
23 -41 13 0 34 11 47 25 13 14 29 25 36 25 6 0 14 7 18 15 3 9 21 25 41 36 19
12 35 27 35 35 0 8 11 19 25 24 14 5 30 21 36 34 7 14 21 26 33 28 16 2 22 11
24 40 3 36 5 37 45 40 37 3 42 6 42 28 0 29 22 47 38 31 16 -16 67 -14 73 3 3
8 14 16 25 19 14 4 19 14 19 39 0 27 9 43 37 71 20 20 40 37 44 37 4 0 10 11
13 24 4 17 15 26 37 31 17 4 40 16 50 26 16 16 22 17 40 7 18 -11 23 -11 26 0
3 7 12 18 20 25 8 7 24 22 35 34 12 13 28 23 35 23 8 0 19 13 24 29 6 16 17
32 25 35 8 3 14 12 14 20 0 9 10 21 23 27 12 7 26 18 30 26 5 8 20 18 33 24
19 7 24 14 19 29 -7 23 13 28 21 5 9 -23 31 -18 64 16 16 18 30 27 30 22 0
-28 -84 -346 -105 -401 -14 -34 -25 -75 -25 -92 0 -16 -5 -32 -10 -35 -25 -16
-57 -104 -135 -375 -8 -25 -32 -103 -54 -175 -22 -71 -41 -142 -41 -156 0 -15
-7 -32 -15 -39 -8 -7 -15 -20 -15 -29 0 -9 -11 -50 -25 -91 -13 -41 -31 -102
-40 -135 -9 -33 -23 -77 -32 -97 -14 -33 -20 -91 -22 -205 -1 -29 -4 -33 -27
-33 -23 0 -26 -3 -22 -25 4 -17 1 -25 -9 -25 -7 0 -16 -8 -19 -17 -3 -10 -10
-27 -15 -38 -4 -11 -13 -42 -18 -70 -6 -27 -13 -62 -17 -78 -14 -57 42 -76 95
-31 l31 26 10 -26 c15 -40 44 -33 68 17 11 23 23 58 27 77 4 19 25 76 46 125
21 51 43 124 50 165 6 41 15 83 20 92 4 9 15 46 24 82 8 37 33 115 54 174 22
59 45 139 51 177 6 39 19 95 30 125 45 135 81 263 79 283 -2 12 2 31 8 42 6
11 14 43 18 70 4 28 21 72 37 99 19 32 28 56 24 71 -4 15 -1 25 9 29 8 3 15
14 15 25 0 11 4 22 9 25 5 3 12 33 16 66 4 33 11 63 16 66 5 3 9 15 9 27 0 12
7 31 15 41 8 11 15 34 15 50 0 17 11 55 25 83 13 29 29 78 34 108 6 30 15 65
22 76 6 12 9 30 6 40 -4 14 3 25 21 36 45 28 102 86 102 104 0 10 -8 20 -17
22 -10 3 -2 5 17 6 19 1 46 10 59 20 18 14 23 25 19 45 -5 26 -5 26 20 10 19
-13 30 -14 48 -5 19 8 24 18 24 45 0 21 6 36 15 40 10 4 15 20 15 50 0 37 -4
46 -21 51 -12 4 -40 0 -62 -8 -64 -23 -95 -28 -102 -17 -4 6 5 39 19 73 15 34
37 100 50 147 47 170 164 547 179 577 9 17 21 61 27 99 6 38 15 73 21 78 5 6
9 24 9 40 1 17 7 42 15 56 8 14 14 44 15 67 0 23 5 45 11 48 6 4 9 19 8 33 -1
15 3 40 10 56 6 16 11 43 11 60 -1 31 6 66 34 166 9 30 16 64 16 75 0 11 6 29
14 40 7 11 24 49 37 85 13 36 34 83 46 105 13 22 23 53 23 68 0 15 6 40 14 56
8 15 24 65 36 111 11 47 32 101 45 120 14 20 25 41 25 46 0 6 9 19 21 30 35
31 40 50 24 81 -22 41 -19 95 5 116 14 11 20 29 20 55 0 21 4 42 10 48 5 5 14
37 19 69 5 33 25 123 45 200 20 77 36 150 36 162 0 12 4 24 8 27 5 3 15 37 22
77 13 67 13 72 -5 85 -10 8 -35 14 -56 14 -32 0 -39 -4 -52 -33z"/>
<path d="M903 4284 c-3 -8 -1 -20 5 -26 16 -16 47 -5 50 20 3 18 -1 22 -23 22
-14 0 -28 -7 -32 -16z"/>
<path d="M578 1409 c-21 -10 -42 -28 -48 -39 -6 -11 -17 -20 -24 -20 -8 0 -26
-17 -42 -37 -15 -21 -43 -55 -61 -76 -23 -25 -33 -47 -33 -69 0 -30 -1 -31
-15 -12 -15 19 -15 19 -32 -2 -10 -12 -35 -27 -55 -34 -40 -12 -210 -156 -247
-209 -13 -18 -21 -44 -21 -70 0 -41 0 -41 38 -41 20 0 69 -7 107 -16 125 -29
125 -29 125 -6 0 11 -7 25 -15 32 -21 17 -19 37 5 52 11 7 20 19 20 26 0 7 16
22 35 33 19 12 35 25 35 30 0 5 12 9 28 9 21 1 33 11 57 47 17 26 35 61 41 78
7 19 23 36 47 47 34 17 39 23 51 80 5 20 13 27 33 30 35 4 50 34 59 121 l7 67
-29 0 c-16 -1 -46 -10 -66 -21z"/>
</g>
</svg>
