<?xml version="1.0" standalone="no"?>
<!DOCTYPE svg PUBLIC "-//W3C//DTD SVG 20010904//EN"
 "http://www.w3.org/TR/2001/REC-SVG-20010904/DTD/svg10.dtd">
<svg version="1.0" xmlns="http://www.w3.org/2000/svg"
 width="386.000000pt" height="764.000000pt" viewBox="0 0 386.000000 764.000000"
 preserveAspectRatio="xMidYMid meet">
<metadata>
Created by potrace 1.16, written by Peter Selinger 2001-2019
</metadata>
<g transform="translate(0.000000,764.000000) scale(0.100000,-0.100000)"
fill="#000000" stroke="none">
<path d="M2873 4890 c-6 -23 -14 -24 -61 -11 -29 9 -34 7 -44 -14 -13 -28 -36
-23 -49 11 -4 13 -16 24 -25 24 -9 0 -27 -9 -41 -20 -14 -11 -35 -20 -47 -20
-11 0 -57 -9 -101 -20 -53 -13 -85 -26 -95 -41 l-16 -21 -15 22 c-14 21 -23
22 -134 23 -105 1 -120 -1 -129 -18 -6 -10 -25 -32 -41 -49 -19 -20 -38 -30
-52 -28 -15 2 -23 -4 -28 -19 -6 -18 -1 -28 21 -46 16 -13 37 -23 47 -23 10 0
44 9 76 20 32 10 109 24 172 31 63 6 157 20 209 31 69 14 144 20 270 23 97 1
190 6 208 10 20 4 38 2 47 -5 9 -8 47 -10 117 -6 57 2 110 5 118 6 8 1 54 -2
101 -6 110 -9 129 0 129 59 0 24 -6 51 -13 61 -11 15 -23 17 -92 12 -162 -13
-218 -9 -282 20 -36 16 -84 18 -131 5 -20 -6 -32 -6 -32 0 0 5 -18 9 -41 9
-32 0 -42 -4 -46 -20z"/>
<path d="M3684 4886 c-3 -8 -25 -17 -49 -20 -38 -6 -43 -10 -49 -38 -10 -52
-7 -77 13 -87 13 -7 24 -6 37 4 11 8 36 15 57 15 36 0 39 -3 58 -45 14 -31 26
-45 39 -45 11 0 20 7 20 15 0 9 11 27 25 41 17 17 25 36 25 59 0 27 -6 38 -27
52 -16 9 -38 27 -51 40 -15 15 -34 23 -58 23 -20 0 -37 -6 -40 -14z"/>
<path d="M1955 4780 c-9 -15 4 -30 26 -30 12 0 19 7 19 20 0 13 -7 20 -19 20
-11 0 -23 -4 -26 -10z"/>
<path d="M1780 4741 c-32 -9 -39 -40 -11 -48 33 -9 24 -25 -11 -21 -28 3 -34
8 -38 33 -4 21 -12 31 -27 33 -14 2 -26 -4 -33 -17 -7 -14 -21 -21 -40 -21
-38 0 -80 -16 -80 -31 0 -6 15 -28 34 -49 18 -20 35 -43 37 -49 6 -18 180 14
197 36 6 9 12 12 12 5 0 -17 25 -15 95 7 67 21 90 45 63 65 -10 7 -18 22 -18
33 0 17 -9 21 -46 27 -56 7 -100 6 -134 -3z"/>
<path d="M1194 4712 c-6 -4 -15 -34 -19 -67 -4 -33 -15 -80 -25 -105 -10 -25
-21 -53 -24 -62 -3 -10 -14 -18 -25 -18 -20 0 -37 -32 -26 -50 3 -5 17 -10 31
-10 21 0 24 -5 24 -35 0 -19 -9 -57 -20 -85 -11 -28 -29 -103 -41 -168 -11
-64 -31 -166 -44 -227 -45 -208 -65 -320 -65 -370 -1 -29 -7 -59 -16 -70 -22
-29 -53 -138 -69 -240 -8 -49 -27 -128 -44 -175 -16 -47 -36 -125 -43 -175 -9
-69 -19 -100 -40 -130 -17 -24 -32 -64 -38 -100 -6 -33 -19 -78 -29 -100 -49
-104 -83 -206 -90 -268 -4 -38 -12 -72 -18 -75 -6 -4 -14 -18 -17 -32 -4 -14
-14 -38 -21 -55 -7 -16 -21 -72 -30 -124 -9 -52 -25 -111 -35 -132 -11 -20
-22 -57 -26 -81 -4 -23 -15 -63 -26 -87 -11 -24 -22 -77 -25 -117 -5 -63 -10
-78 -34 -103 -19 -21 -41 -72 -75 -176 -38 -117 -46 -150 -37 -165 9 -14 7
-27 -13 -65 -13 -27 -24 -64 -24 -82 0 -19 -6 -44 -14 -56 -8 -12 -17 -42 -21
-67 -4 -25 -20 -96 -37 -159 -16 -63 -32 -148 -35 -190 -5 -84 -18 -127 -39
-135 -19 -7 -18 -45 1 -52 21 -8 19 -21 -5 -29 -14 -4 -20 -15 -20 -35 0 -16
6 -31 13 -33 6 -3 -3 -8 -21 -12 -32 -7 -33 -10 -30 -49 3 -37 6 -41 31 -44
18 -2 31 -11 37 -26 8 -22 29 -36 53 -36 28 1 42 22 48 77 12 97 27 186 37
220 6 17 8 34 5 37 -3 3 -1 12 6 20 6 8 14 38 18 67 3 30 9 59 14 64 4 6 31
105 59 220 29 116 58 226 66 245 7 19 13 46 13 60 0 47 14 105 27 115 14 11
78 209 100 309 7 32 17 70 23 85 6 14 17 53 25 86 72 284 129 476 164 555 16
36 39 101 51 145 12 44 30 100 40 125 19 45 59 194 86 318 17 80 71 287 113
432 28 97 45 169 58 245 3 17 14 75 24 130 11 55 26 143 35 195 9 52 22 107
30 123 8 15 12 34 9 41 -3 7 9 82 26 166 17 84 28 162 24 172 -3 12 0 18 9 18
17 0 25 58 34 263 l6 147 -34 0 c-19 0 -39 -4 -45 -8z"/>
<path d="M3703 4673 c-3 -10 -14 -37 -25 -59 -10 -23 -23 -68 -28 -99 -5 -32
-17 -66 -26 -77 -10 -10 -19 -28 -20 -41 -9 -74 -28 -155 -40 -174 -8 -12 -14
-32 -14 -43 0 -11 -11 -48 -25 -82 -39 -95 -107 -376 -103 -428 1 -27 -4 -57
-14 -75 -9 -17 -23 -55 -32 -85 -9 -30 -30 -82 -46 -115 -22 -43 -29 -67 -24
-87 4 -23 -1 -36 -25 -64 -19 -21 -31 -46 -31 -63 0 -19 -14 -46 -40 -77 -22
-27 -43 -64 -46 -84 -4 -19 -15 -56 -25 -81 -26 -69 -41 -157 -28 -180 7 -15
6 -19 -5 -19 -8 0 -18 -10 -22 -22 -3 -13 -13 -31 -21 -40 -9 -9 -13 -31 -12
-52 2 -22 -3 -41 -14 -54 -9 -10 -17 -27 -17 -36 0 -10 -7 -42 -16 -72 -9 -31
-13 -62 -10 -69 3 -8 -4 -42 -14 -76 -11 -34 -20 -68 -20 -75 0 -8 -4 -14 -10
-14 -5 0 -10 -13 -10 -28 0 -16 -14 -55 -32 -87 -27 -50 -31 -69 -34 -141 -2
-72 -6 -92 -32 -137 -16 -28 -33 -68 -37 -87 -4 -19 -18 -53 -32 -75 -15 -21
-28 -55 -30 -75 -1 -19 -7 -55 -13 -80 -5 -25 -9 -63 -10 -85 0 -22 -7 -53
-15 -69 -17 -32 -20 -92 -5 -101 9 -6 8 -20 -12 -123 -9 -51 -11 -53 -24 -33
-19 26 -44 17 -44 -16 0 -20 -3 -23 -13 -15 -7 6 -18 8 -24 4 -19 -12 -53 -94
-53 -129 0 -17 -5 -33 -10 -35 -13 -4 -32 -120 -29 -174 2 -25 -4 -49 -14 -64
-11 -15 -17 -44 -17 -75 0 -30 -6 -60 -16 -73 -18 -26 -12 -72 11 -72 21 0 28
-18 12 -34 -9 -9 -24 -12 -37 -9 -22 6 -23 4 -18 -47 3 -31 12 -58 20 -64 12
-9 13 -15 4 -29 -9 -14 -7 -21 10 -35 16 -13 20 -22 14 -37 -5 -11 -9 -32 -9
-47 -1 -23 3 -28 25 -28 20 0 28 8 41 37 9 21 18 57 21 81 3 26 10 42 18 42 8
0 14 10 14 24 0 13 7 27 16 30 12 5 15 15 11 39 -3 17 -8 40 -12 50 -5 12 -2
17 8 17 18 0 42 63 33 86 -3 8 1 17 9 20 8 4 15 15 15 25 0 10 9 35 20 56 26
50 63 209 58 250 -3 21 1 34 10 38 21 8 60 106 103 259 22 78 62 211 89 296
27 85 61 198 76 250 14 52 37 120 49 150 13 30 30 91 39 135 28 145 47 229 67
295 24 81 89 359 89 381 0 9 7 20 16 23 11 4 15 14 12 31 -4 17 -1 25 8 25 8
0 16 11 20 25 8 33 -4 95 -19 95 -7 1 0 8 16 16 15 8 27 23 27 33 0 10 9 30
20 44 11 14 20 33 20 44 0 10 7 31 15 47 8 15 15 38 15 51 0 12 7 28 16 36 9
7 13 21 10 32 -3 11 0 30 7 41 6 12 26 62 43 111 18 50 39 108 47 130 8 22 20
75 26 118 6 43 18 89 28 103 13 21 14 30 5 45 -7 11 -8 20 -2 24 6 3 10 26 10
51 0 38 3 46 25 54 30 12 32 40 5 65 -11 10 -20 21 -20 24 0 4 12 7 26 6 20 0
31 8 45 35 19 34 25 93 13 124 -3 9 -18 16 -32 16 -26 0 -26 1 9 25 36 24 54
50 44 65 -3 4 4 10 15 13 13 3 20 14 20 30 0 14 -4 28 -9 32 -6 3 -4 20 5 41
8 19 12 44 9 55 -4 12 -1 21 9 25 10 4 16 18 16 40 0 27 -4 34 -20 34 -11 0
-20 5 -20 10 0 6 18 28 40 50 22 22 40 46 40 53 0 16 -31 47 -47 47 -6 0 -13
7 -17 15 -7 21 -35 19 -43 -2z m-1056 -3735 c-3 -8 -6 -5 -6 6 -1 11 2 17 5
13 3 -3 4 -12 1 -19z"/>
<path d="M1488 4603 c-16 -3 -28 -9 -28 -14 0 -5 -20 -9 -45 -9 -25 0 -45 -5
-45 -11 0 -5 -14 -23 -31 -39 -34 -31 -34 -60 -1 -60 19 0 122 35 194 67 37
16 56 40 41 53 -12 11 -54 17 -85 13z"/>
<path d="M3794 4555 c-4 -9 -2 -21 4 -27 15 -15 44 -1 40 19 -4 23 -36 29 -44
8z"/>
<path d="M946 4283 c-42 -78 -41 -74 -22 -89 24 -17 56 -2 56 26 0 11 5 20 10
20 6 0 10 16 10 35 0 28 -4 35 -19 35 -11 0 -27 -12 -35 -27z"/>
<path d="M903 4123 c-19 -7 -16 -62 3 -70 21 -8 46 24 42 52 -3 20 -22 28 -45
18z"/>
<path d="M876 4021 c-4 -5 -9 -29 -12 -53 -5 -33 -2 -47 9 -56 13 -11 18 -9
31 10 9 12 16 42 16 65 0 36 -3 43 -19 43 -11 0 -22 -4 -25 -9z"/>
<path d="M40 20 c0 -17 5 -21 28 -18 16 2 27 9 27 18 0 9 -11 16 -27 18 -23 3
-28 -1 -28 -18z"/>
</g>
</svg>
