<?xml version="1.0" standalone="no"?>
<!DOCTYPE svg PUBLIC "-//W3C//DTD SVG 20010904//EN"
 "http://www.w3.org/TR/2001/REC-SVG-20010904/DTD/svg10.dtd">
<svg version="1.0" xmlns="http://www.w3.org/2000/svg"
 width="245.000000pt" height="764.000000pt" viewBox="0 0 245.000000 764.000000"
 preserveAspectRatio="xMidYMid meet">
<metadata>
Created by potrace 1.16, written by Peter Selinger 2001-2019
</metadata>
<g transform="translate(0.000000,764.000000) scale(0.100000,-0.100000)"
fill="#000000" stroke="none">
<path d="M185 2801 c-10 -17 -66 -293 -90 -451 -13 -85 -27 -198 -30 -250 -3
-52 -10 -133 -16 -180 -10 -85 -31 -389 -33 -488 -1 -28 -5 -52 -10 -52 -5 0
-5 -29 0 -67 4 -38 9 -149 9 -248 1 -99 3 -184 4 -190 2 -5 4 -37 6 -70 7
-152 47 -366 80 -428 14 -27 25 -61 25 -76 0 -20 7 -31 25 -39 16 -8 25 -20
25 -35 0 -14 18 -45 42 -73 54 -62 66 -72 101 -79 15 -4 45 -22 68 -41 43 -35
92 -45 102 -20 4 9 30 15 83 18 66 4 80 9 97 29 21 27 68 47 148 63 20 4 31
17 43 46 9 23 23 40 31 40 17 0 37 14 63 44 9 11 38 43 63 70 53 57 85 114 94
167 6 31 10 35 33 32 15 -2 34 1 42 6 12 8 13 14 3 30 -10 15 -9 22 2 31 8 7
15 25 15 40 0 19 7 30 24 38 25 11 36 49 28 102 -3 21 -10 30 -23 30 -12 0
-19 -7 -19 -18 0 -11 -9 -27 -21 -38 -28 -25 -59 -87 -59 -118 0 -18 -6 -25
-22 -28 -14 -2 -42 -29 -73 -68 -27 -36 -80 -96 -117 -133 -38 -38 -68 -74
-68 -80 -1 -13 -58 -53 -158 -110 -36 -21 -74 -45 -85 -54 -12 -12 -34 -17
-71 -16 -58 2 -149 35 -169 63 -7 9 -22 22 -35 29 -12 6 -22 20 -22 31 0 10
-5 22 -10 25 -25 15 -100 210 -100 259 0 13 -4 36 -10 52 -19 58 -42 253 -50
429 -12 259 -16 495 -9 495 12 0 21 53 25 150 2 52 9 115 15 140 6 25 12 104
14 175 2 72 9 157 14 190 6 33 11 82 11 108 0 27 6 69 14 95 25 87 37 136 61
252 13 63 24 118 25 123 0 4 -6 7 -14 7 -8 0 -28 11 -44 25 -30 25 -66 33 -77
16z"/>
<path d="M1545 2694 c-3 -20 -6 -84 -6 -142 0 -59 -1 -183 -4 -277 -2 -93 0
-188 5 -210 6 -24 5 -44 -1 -49 -5 -6 -9 -35 -9 -66 0 -44 4 -61 20 -75 14
-13 17 -22 10 -29 -16 -16 -12 -54 8 -65 15 -10 15 -11 -5 -17 -15 -4 -23 -14
-23 -28 0 -12 5 -27 11 -33 8 -8 7 -74 -5 -245 -9 -129 -16 -240 -16 -247 0
-6 9 -15 21 -19 13 -5 27 -27 40 -63 10 -29 18 -57 19 -61 0 -5 -7 -8 -15 -8
-7 0 -18 -7 -23 -15 -11 -21 4 -139 27 -215 12 -37 17 -75 14 -96 -3 -19 -1
-39 5 -46 15 -19 52 -146 52 -178 0 -16 7 -35 15 -44 8 -8 15 -23 15 -34 0
-11 7 -22 15 -26 8 -3 21 -18 27 -33 7 -15 34 -49 59 -75 36 -36 55 -48 77
-48 47 0 62 10 62 39 0 19 -10 32 -40 50 -32 20 -38 29 -34 47 3 12 -1 33 -9
46 -8 12 -27 68 -42 123 -18 67 -35 106 -49 117 -18 14 -21 26 -18 75 4 71
-24 260 -42 287 -11 17 -10 25 3 48 12 21 13 32 5 45 -8 13 -8 25 -1 41 7 16
6 62 -3 155 -7 72 -15 166 -17 207 -3 41 -8 79 -13 84 -4 4 -2 23 6 42 8 18
14 60 14 93 0 54 -3 62 -25 77 -14 9 -25 25 -25 36 0 10 10 32 21 48 21 28 22
33 10 131 -6 56 -16 108 -22 116 -9 10 -8 13 5 13 19 0 21 36 5 93 -8 30 -7
42 6 59 19 28 19 75 0 121 -19 47 -19 72 1 92 9 9 20 34 26 57 7 35 6 45 -14
75 -13 18 -34 36 -48 39 -14 3 -33 9 -42 15 -32 17 -46 10 -53 -27z m103
-1461 c-12 -15 -38 -17 -38 -4 0 4 5 23 12 42 l12 34 12 -30 c8 -21 9 -34 2
-42z"/>
<path d="M1408 1098 c-8 -21 2 -38 23 -38 14 0 19 7 19 25 0 18 -5 25 -19 25
-10 0 -21 -6 -23 -12z"/>
<path d="M1361 1026 c-17 -20 -7 -46 18 -46 23 0 53 27 48 44 -6 17 -52 19
-66 2z"/>
<path d="M2117 984 c-4 -4 -4 -17 -1 -29 3 -13 1 -26 -5 -29 -17 -11 -13 -56
5 -63 11 -4 12 -8 4 -13 -16 -10 -2 -58 22 -71 10 -6 33 -9 51 -7 46 4 46 30
0 59 -32 19 -35 23 -18 27 11 2 24 8 29 12 13 13 -2 74 -25 98 -19 21 -49 29
-62 16z"/>
<path d="M1333 969 c-16 -16 -5 -39 19 -39 14 0 19 6 16 22 -4 25 -19 33 -35
17z"/>
<path d="M1300 901 c0 -24 13 -33 35 -25 23 9 14 38 -13 42 -16 3 -22 -2 -22
-17z"/>
<path d="M2174 745 c-3 -8 -14 -17 -25 -20 -14 -5 -19 -16 -19 -40 0 -19 6
-35 14 -38 8 -3 16 -29 21 -64 4 -32 10 -62 15 -68 4 -5 11 -29 15 -52 6 -37
10 -42 43 -51 l37 -10 -32 -1 c-25 -1 -33 -6 -33 -19 0 -25 18 -46 60 -71 19
-11 41 -35 50 -53 12 -27 21 -33 45 -33 l30 0 -3 55 c-2 41 -8 59 -25 73 -11
10 -22 28 -24 40 -2 11 -10 28 -18 37 -8 9 -15 24 -15 32 0 9 -6 18 -13 21 -8
3 -28 62 -47 141 -28 115 -36 136 -52 136 -10 0 -21 -7 -24 -15z"/>
<path d="M2410 244 c0 -19 5 -25 18 -22 9 2 18 13 20 26 3 17 -2 22 -17 22
-16 0 -21 -6 -21 -26z"/>
</g>
</svg>
