<?xml version="1.0" standalone="no"?>
<!DOCTYPE svg PUBLIC "-//W3C//DTD SVG 20010904//EN"
 "http://www.w3.org/TR/2001/REC-SVG-20010904/DTD/svg10.dtd">
<svg version="1.0" xmlns="http://www.w3.org/2000/svg"
 width="240.000000pt" height="764.000000pt" viewBox="0 0 240.000000 764.000000"
 preserveAspectRatio="xMidYMid meet">
<metadata>
Created by potrace 1.16, written by Peter Selinger 2001-2019
</metadata>
<g transform="translate(0.000000,764.000000) scale(0.100000,-0.100000)"
fill="#000000" stroke="none">
<path d="M854 3215 c-4 -8 -4 -21 -1 -29 3 -7 -3 -20 -13 -29 -10 -8 -24 -41
-31 -72 -11 -49 -11 -61 2 -84 19 -33 62 -49 83 -31 17 13 22 60 7 60 -6 0 -7
16 -4 35 4 23 2 35 -6 35 -6 0 -11 17 -11 40 0 38 12 52 25 30 3 -5 15 -10 26
-10 28 0 24 34 -6 54 -31 20 -64 21 -71 1z"/>
<path d="M1025 3060 c-9 -15 4 -30 26 -30 12 0 19 7 19 20 0 13 -7 20 -19 20
-11 0 -23 -4 -26 -10z"/>
<path d="M2080 3021 c0 -24 -4 -31 -20 -31 -11 0 -27 -11 -36 -25 -14 -21 -14
-32 -4 -76 13 -52 35 -71 72 -61 14 3 18 14 18 48 0 35 3 44 18 44 16 0 22 12
48 92 6 17 -2 21 -63 33 -32 6 -33 5 -33 -24z"/>
<path d="M976 3004 c-11 -28 -6 -65 9 -70 19 -8 79 52 71 71 -8 21 -72 20 -80
-1z"/>
<path d="M1855 2603 c-122 -23 -153 -34 -320 -113 -22 -10 -71 -33 -108 -50
-69 -32 -309 -216 -321 -245 -4 -10 -19 -15 -51 -15 -25 0 -45 -5 -45 -11 0
-14 -61 -69 -77 -69 -7 0 -13 -6 -13 -13 0 -7 -18 -32 -40 -55 -22 -22 -40
-51 -40 -62 0 -12 -13 -34 -28 -50 -25 -25 -34 -27 -75 -23 -40 5 -49 2 -66
-18 -35 -41 -125 -166 -145 -201 -52 -89 -86 -162 -86 -183 0 -14 -9 -29 -21
-35 -11 -7 -25 -25 -31 -41 -5 -16 -14 -29 -19 -29 -5 0 -9 -8 -9 -19 0 -10
-7 -24 -15 -31 -8 -7 -15 -18 -15 -24 0 -6 -9 -17 -20 -24 -11 -7 -20 -19 -20
-27 0 -8 -5 -15 -10 -15 -19 0 -50 -40 -50 -64 0 -13 -16 -50 -35 -82 -19 -32
-35 -63 -35 -68 0 -6 -16 -31 -35 -55 -38 -47 -51 -81 -41 -106 3 -9 0 -15
-10 -15 -9 0 -18 -9 -21 -20 -3 -11 -9 -20 -14 -20 -5 0 -9 -11 -9 -25 0 -13
-7 -28 -16 -33 -14 -8 -15 -23 -10 -98 3 -49 5 -93 5 -99 0 -5 -3 -64 -5 -131
-4 -95 -2 -129 10 -157 8 -21 20 -37 26 -37 5 0 26 -25 46 -56 19 -30 50 -64
67 -75 18 -10 49 -19 69 -19 28 0 38 5 43 20 6 20 7 20 37 -5 16 -14 34 -25
39 -25 5 0 9 -13 9 -30 0 -19 7 -33 19 -40 23 -12 201 -11 201 1 0 5 9 9 21 9
13 0 23 8 26 21 4 15 10 18 22 12 25 -12 129 -6 196 11 32 9 76 16 95 16 20 0
40 3 44 7 4 4 21 6 39 5 19 -2 52 8 81 23 27 14 59 25 70 25 12 0 38 9 59 20
20 11 47 20 59 20 12 0 39 12 61 27 33 23 47 26 108 25 53 -2 88 4 142 23 40
13 73 29 75 35 2 5 10 10 17 10 21 0 85 67 85 89 0 42 -11 51 -58 51 -25 0
-64 -8 -86 -18 -23 -11 -86 -29 -141 -42 -55 -12 -129 -33 -165 -45 -101 -37
-332 -102 -475 -135 -89 -20 -156 -30 -215 -30 -85 0 -291 16 -321 25 -9 3
-28 28 -43 55 -15 28 -31 50 -37 50 -5 0 -9 5 -9 12 0 6 -9 22 -21 34 -18 20
-22 40 -29 159 -4 75 -9 138 -11 139 -2 2 -21 13 -43 24 l-38 21 36 6 c19 4
40 12 45 19 5 6 14 31 21 56 12 43 176 380 190 390 4 3 10 15 14 27 4 13 22
41 41 63 39 47 105 162 105 183 0 9 3 17 8 19 4 2 36 46 70 98 49 73 62 101
59 123 -3 25 -1 28 20 22 13 -3 32 -1 43 5 14 7 20 23 22 58 3 45 4 47 31 44
32 -4 77 21 77 43 0 8 6 18 14 22 8 4 32 31 53 58 22 28 65 70 97 95 31 25 59
55 62 68 4 14 14 22 28 22 12 0 80 43 151 96 72 53 141 102 155 108 14 6 52
28 84 48 33 21 63 38 68 38 13 0 68 27 103 50 36 24 24 19 158 63 59 19 109
31 112 27 2 -4 27 -10 54 -13 65 -8 106 -30 134 -72 12 -19 27 -37 34 -39 6
-3 24 -1 40 3 25 7 28 12 27 51 -1 28 -7 47 -17 55 -10 7 -17 22 -17 34 0 18
-6 21 -47 21 -53 0 -66 6 -76 33 -9 23 -58 21 -222 -10z"/>
<path d="M2207 2403 c-4 -3 -7 -15 -7 -25 0 -13 7 -18 25 -18 14 0 28 7 32 16
9 23 -32 45 -50 27z"/>
<path d="M2319 2392 c-13 -10 -36 -23 -51 -30 -34 -14 -37 -48 -7 -86 15 -20
29 -26 48 -24 21 2 27 9 29 33 2 17 12 38 23 48 22 20 25 47 7 65 -16 16 -21
15 -49 -6z"/>
<path d="M2367 2324 c-4 -4 -7 -16 -7 -26 0 -12 7 -18 21 -18 15 0 20 5 17 22
-3 22 -19 33 -31 22z"/>
<path d="M2303 2210 c-13 -5 -31 -22 -41 -39 -9 -16 -41 -50 -69 -75 -29 -26
-55 -56 -58 -66 -4 -11 -10 -20 -15 -20 -5 0 -44 -35 -87 -78 -43 -43 -118
-108 -168 -144 -49 -37 -101 -77 -115 -90 -14 -12 -35 -28 -48 -35 -12 -6 -43
-29 -70 -51 -26 -21 -73 -53 -105 -71 -32 -17 -97 -62 -145 -99 -119 -93 -278
-172 -344 -172 -16 0 -28 -4 -28 -8 0 -7 -62 -42 -74 -42 -2 0 -6 9 -9 20 -7
27 -50 27 -77 0 -11 -11 -20 -33 -20 -49 0 -25 5 -29 34 -34 52 -8 199 4 216
18 8 8 93 52 189 99 95 47 190 98 210 113 20 15 86 61 146 101 147 97 375 265
413 305 16 18 36 38 44 45 58 55 118 122 118 132 0 6 20 32 44 58 24 26 47 57
50 69 4 13 20 30 36 39 32 20 56 57 46 73 -8 13 -42 13 -73 1z"/>
<path d="M637 1273 c-14 -13 -7 -52 11 -62 9 -5 36 -9 60 -9 36 -1 42 2 42 19
0 11 -5 29 -10 40 -8 14 -21 19 -54 19 -23 0 -46 -3 -49 -7z"/>
<path d="M1548 793 c-54 -57 -88 -127 -88 -184 0 -41 3 -49 19 -49 10 0 45 18
77 40 33 22 64 40 70 40 32 0 69 84 58 133 -6 28 -47 57 -81 57 -11 0 -35 -17
-55 -37z"/>
<path d="M2014 736 c-9 -24 4 -48 23 -44 12 2 18 12 18 28 0 29 -32 41 -41 16z"/>
<path d="M1340 679 c-45 -27 -100 -79 -100 -95 0 -7 -9 -16 -20 -19 -27 -9
-27 -45 0 -45 11 0 23 7 26 15 4 11 21 15 55 15 43 0 51 3 59 24 5 13 22 30
37 38 34 16 43 56 17 75 -10 7 -23 13 -28 13 -6 0 -27 -10 -46 -21z"/>
<path d="M1904 583 c-3 -15 -7 -32 -8 -36 -1 -5 -15 5 -31 22 -33 33 -66 39
-85 16 -20 -24 -7 -48 32 -59 l38 -11 -25 -44 c-14 -23 -25 -49 -25 -56 0 -8
9 -16 19 -20 11 -3 22 -12 25 -20 3 -9 18 -15 36 -15 25 0 30 4 30 23 0 19 8
26 39 35 33 10 42 19 60 63 13 30 21 65 19 87 l-3 37 -57 3 c-56 3 -58 2 -64
-25z"/>
</g>
</svg>
