<?xml version="1.0" standalone="no"?>
<!DOCTYPE svg PUBLIC "-//W3C//DTD SVG 20010904//EN"
 "http://www.w3.org/TR/2001/REC-SVG-20010904/DTD/svg10.dtd">
<svg version="1.0" xmlns="http://www.w3.org/2000/svg"
 width="165.000000pt" height="627.000000pt" viewBox="0 0 165.000000 627.000000"
 preserveAspectRatio="xMidYMid meet">
<metadata>
Created by potrace 1.16, written by Peter Selinger 2001-2019
</metadata>
<g transform="translate(0.000000,627.000000) scale(0.100000,-0.100000)"
fill="#000000" stroke="none">
<path d="M1112 4224 c-14 -9 -24 -30 -28 -55 -4 -22 -14 -45 -24 -52 -16 -11
-22 -33 -37 -132 -3 -22 -9 -42 -14 -46 -5 -3 -16 -36 -26 -73 -12 -52 -14
-73 -5 -86 13 -22 6 -30 -26 -30 -22 0 -24 -3 -20 -40 2 -22 1 -40 -2 -40 -11
0 -50 -99 -50 -127 0 -17 -9 -38 -20 -48 -21 -19 -27 -55 -10 -55 6 0 4 -10
-4 -22 -8 -13 -20 -43 -27 -67 -12 -41 -12 -45 9 -61 18 -15 19 -19 7 -24 -8
-3 -15 -12 -15 -21 0 -11 -11 -15 -40 -15 -28 0 -40 -4 -40 -14 0 -16 26 -46
41 -46 5 0 0 -9 -10 -19 -18 -18 -41 -79 -41 -108 0 -7 -9 -27 -20 -45 -21
-35 -26 -73 -10 -83 5 -3 1 -19 -10 -38 -15 -24 -20 -50 -20 -105 0 -65 -2
-74 -20 -79 -20 -5 -24 -13 -21 -45 1 -10 -5 -28 -13 -40 -22 -32 -20 -58 4
-58 11 0 20 -4 20 -9 0 -6 -12 -9 -27 -8 -26 2 -28 0 -26 -35 1 -24 -3 -38
-12 -42 -9 -3 -15 -18 -15 -37 0 -22 5 -32 19 -36 13 -3 20 -16 23 -41 3 -24
0 -40 -9 -45 -7 -4 -13 -14 -13 -21 0 -7 -16 -33 -35 -57 -42 -54 -56 -107
-31 -125 15 -11 14 -14 -15 -35 l-32 -22 6 -72 c6 -66 5 -74 -19 -106 -23 -31
-25 -40 -20 -96 l6 -61 -37 -19 c-35 -17 -38 -22 -41 -65 -2 -25 -10 -52 -18
-58 -10 -9 -14 -34 -14 -85 0 -57 -4 -78 -20 -98 -15 -19 -20 -40 -20 -89 0
-48 -5 -71 -23 -97 -39 -60 -47 -76 -47 -93 0 -9 5 -20 10 -23 19 -12 10 -46
-20 -73 -16 -15 -33 -42 -36 -60 -6 -30 -4 -34 25 -45 36 -13 41 -27 8 -27
-13 0 -28 -5 -35 -12 -15 -15 -16 -60 -1 -75 8 -8 7 -17 -5 -34 -9 -13 -16
-36 -16 -52 0 -20 -6 -30 -20 -34 -15 -4 -20 -14 -20 -40 0 -19 5 -54 11 -79
10 -38 9 -47 -6 -64 -12 -14 -14 -23 -7 -36 7 -12 6 -24 -2 -38 -6 -12 -13
-23 -16 -26 -15 -14 -49 -122 -55 -171 -3 -31 -13 -65 -20 -75 -17 -22 -19
-87 -5 -115 13 -23 58 -26 66 -4 4 8 11 15 16 15 6 0 32 23 59 51 51 53 79
120 79 184 0 18 11 49 25 69 55 82 69 129 40 139 -12 5 -11 13 6 53 19 42 20
51 8 87 -10 32 -11 41 -1 45 7 2 12 14 12 27 0 13 5 27 10 30 14 9 13 45 -2
45 -6 0 -2 10 10 23 23 24 30 71 12 82 -5 3 -10 19 -10 35 0 20 8 35 25 46 20
13 25 25 25 58 0 53 18 116 35 122 7 3 16 29 20 60 6 47 10 57 32 65 14 5 26
8 27 7 18 -44 51 -61 60 -30 4 10 18 24 31 30 14 7 28 19 31 27 4 8 12 15 20
15 7 0 17 7 22 17 7 11 31 19 78 25 62 7 74 5 119 -16 28 -14 73 -32 100 -41
28 -8 71 -28 97 -43 73 -43 222 -161 233 -185 6 -12 27 -39 48 -60 20 -21 40
-50 43 -65 4 -15 12 -36 17 -47 6 -11 10 -32 8 -47 -3 -33 32 -71 61 -66 13 2
31 21 47 50 22 40 24 50 14 67 -7 12 -13 34 -13 51 0 20 -8 34 -25 46 -14 9
-25 21 -25 26 0 6 -16 32 -35 58 -19 26 -35 53 -35 59 0 13 -53 41 -79 41 -13
0 -23 11 -31 34 -9 29 -28 44 -118 97 -166 97 -181 103 -253 107 -58 4 -68 7
-77 27 -7 15 -29 29 -63 40 -42 14 -72 17 -145 12 l-93 -6 6 35 c4 22 2 39 -5
43 -9 5 -9 16 -1 42 7 18 15 41 20 50 4 9 10 38 14 65 4 27 15 75 26 107 10
31 19 69 19 85 0 15 11 67 25 115 13 49 33 136 45 195 11 59 28 120 36 135 9
16 13 38 10 52 -3 13 -2 27 4 30 5 3 10 21 10 38 0 18 7 42 15 55 13 17 14 26
4 43 -7 13 -7 24 -2 28 20 13 34 53 32 94 -1 23 7 70 19 105 12 34 22 69 22
78 0 9 7 31 16 50 11 23 15 48 11 74 -3 22 -2 40 3 40 4 0 11 16 14 35 4 20
15 50 26 68 23 39 60 160 60 194 0 14 6 31 14 37 8 6 25 56 39 112 14 55 35
120 47 145 21 41 31 81 47 189 3 25 13 56 22 70 11 16 16 48 17 100 0 41 4 85
8 98 4 12 16 27 27 32 14 8 19 21 19 50 0 21 -3 45 -6 54 -8 21 -62 21 -92 0z
m-697 -2704 c-20 -22 -31 -20 -22 5 4 8 14 15 23 15 16 0 16 -2 -1 -20z"/>
<path d="M1539 758 c-6 -13 -30 -59 -52 -103 -39 -73 -45 -80 -78 -86 -20 -3
-52 -15 -71 -27 -19 -12 -42 -22 -50 -22 -9 0 -21 -7 -29 -16 -7 -8 -21 -13
-31 -11 -10 3 -24 0 -31 -6 -24 -22 -58 -38 -68 -31 -5 3 -21 -1 -34 -10 -13
-9 -33 -16 -45 -16 -11 0 -37 -9 -57 -20 -24 -12 -57 -20 -88 -20 -34 0 -65
-8 -97 -25 -58 -31 -117 -33 -141 -5 -17 20 -42 25 -71 14 -9 -3 -16 -13 -16
-20 0 -8 -11 -20 -25 -26 -14 -6 -25 -19 -25 -28 0 -9 10 -32 23 -51 20 -30
30 -35 77 -41 30 -3 82 -6 114 -7 42 -1 65 4 78 16 11 9 18 11 18 5 0 -16 26
-15 53 2 12 7 53 17 92 20 38 4 77 14 86 22 8 7 30 14 47 14 25 0 32 4 32 20
0 17 3 19 19 8 16 -10 23 -9 38 4 10 8 34 23 53 32 20 10 47 36 63 61 16 25
35 45 43 45 13 0 13 -2 0 -16 -20 -19 -12 -34 18 -34 12 0 27 -5 33 -11 6 -6
26 -9 44 -7 27 2 35 8 37 26 2 13 -2 30 -8 38 -10 11 -9 14 9 14 14 0 21 -6
21 -20 0 -15 7 -20 25 -20 18 0 26 6 30 25 3 14 7 37 10 51 4 15 15 28 26 31
17 5 20 11 15 35 -3 18 0 41 9 58 8 16 15 38 15 50 0 38 -57 109 -88 110 -7 0
-17 -10 -23 -22z"/>
<path d="M322 416 c3 -16 0 -27 -9 -30 -8 -4 -13 -16 -11 -28 2 -15 11 -24 26
-26 15 -2 22 2 22 12 0 9 5 16 10 16 6 0 10 -7 10 -15 0 -8 7 -15 15 -15 9 0
18 -7 21 -15 13 -34 84 -1 84 39 0 13 -8 30 -18 39 -22 20 -96 47 -129 47 -21
0 -25 -4 -21 -24z"/>
</g>
</svg>
