<?xml version="1.0" standalone="no"?>
<!DOCTYPE svg PUBLIC "-//W3C//DTD SVG 20010904//EN"
 "http://www.w3.org/TR/2001/REC-SVG-20010904/DTD/svg10.dtd">
<svg version="1.0" xmlns="http://www.w3.org/2000/svg"
 width="266.000000pt" height="627.000000pt" viewBox="0 0 266.000000 627.000000"
 preserveAspectRatio="xMidYMid meet">
<metadata>
Created by potrace 1.16, written by Peter Selinger 2001-2019
</metadata>
<g transform="translate(0.000000,627.000000) scale(0.100000,-0.100000)"
fill="#000000" stroke="none">
<path d="M793 2864 c-3 -9 0 -20 7 -24 19 -12 5 -55 -25 -74 -14 -9 -25 -23
-25 -30 0 -7 -7 -19 -15 -26 -8 -7 -15 -23 -15 -36 0 -12 -4 -26 -10 -29 -5
-3 -10 -20 -10 -36 0 -33 26 -51 41 -28 7 10 9 7 7 -11 -2 -20 -10 -26 -38
-30 -34 -5 -35 -6 -37 -54 -1 -28 2 -55 8 -62 6 -7 5 -15 -5 -23 -8 -7 -17
-23 -20 -36 -3 -13 -15 -27 -26 -30 -24 -8 -44 -41 -36 -61 7 -18 21 -18 40 1
8 8 17 11 20 6 4 -5 -7 -23 -24 -39 -16 -17 -30 -35 -30 -40 0 -5 -9 -17 -21
-28 -31 -28 -46 -62 -54 -123 -4 -33 -14 -59 -26 -69 -10 -9 -19 -24 -19 -34
0 -9 -4 -20 -10 -23 -6 -3 -10 -22 -10 -41 0 -23 5 -34 14 -34 16 0 31 -34 21
-50 -3 -5 -20 -10 -37 -10 -27 0 -30 -3 -26 -25 3 -14 1 -28 -3 -31 -12 -7
-11 -51 1 -59 6 -3 10 -10 10 -14 0 -5 -18 -27 -40 -49 l-40 -40 10 -52 c6
-29 10 -56 10 -59 0 -4 -12 -7 -27 -6 -26 0 -28 -2 -25 -40 2 -21 7 -45 11
-53 4 -8 3 -35 -3 -62 -8 -37 -21 -58 -54 -88 -40 -37 -49 -61 -36 -96 3 -9
12 -16 19 -16 7 0 -2 -16 -21 -36 -21 -24 -37 -54 -43 -86 -14 -63 -14 -88 1
-88 6 0 20 -8 30 -17 16 -14 23 -15 38 -5 33 20 37 13 5 -8 l-30 -20 -16 21
c-10 14 -24 20 -40 17 -18 -2 -24 -9 -25 -28 0 -14 -3 -31 -7 -37 -8 -12 -9
-22 -11 -148 -2 -98 -16 -153 -46 -180 -24 -22 -25 -43 -4 -66 17 -19 12 -39
-11 -39 -7 0 -29 -32 -49 -71 -26 -51 -36 -83 -36 -118 0 -26 5 -52 12 -59 15
-15 48 -16 48 -2 0 6 9 10 21 10 25 0 79 52 79 75 0 10 10 29 23 44 15 17 30
25 47 24 35 -4 58 32 66 104 4 34 16 70 28 86 16 21 21 44 21 87 0 52 3 60 21
64 29 8 38 35 19 56 -25 27 -18 50 21 66 31 13 35 19 33 47 -1 18 2 44 6 60 4
15 3 46 -3 68 -9 37 -8 41 13 49 30 11 55 77 55 144 0 45 4 56 23 69 23 15 57
93 50 115 -3 6 -13 12 -24 12 -19 0 -19 1 3 30 12 16 30 32 40 36 11 3 18 15
18 31 0 22 -4 25 -25 21 -23 -5 -25 -2 -25 31 0 21 -5 42 -12 49 -7 7 -8 12
-2 12 18 0 34 -24 34 -52 0 -21 5 -28 19 -28 26 0 44 25 39 54 -3 15 0 27 8
30 20 8 38 80 26 102 -7 13 -6 21 4 31 8 8 19 11 24 8 6 -4 17 -1 25 5 13 11
12 16 -3 44 -9 17 -20 33 -23 36 -3 3 -8 17 -11 32 -5 27 -4 27 37 21 33 -4
43 -2 48 11 4 9 -1 20 -11 26 -12 7 -14 12 -5 18 15 10 33 57 33 87 0 14 -11
31 -27 43 -30 22 -24 42 13 42 13 0 24 4 24 9 0 6 15 11 32 13 26 2 34 9 41
33 17 60 51 117 74 126 13 5 26 16 30 25 3 9 28 38 55 65 39 39 49 55 46 77
-2 22 -8 27 -33 28 -16 0 -38 4 -47 8 -28 13 -48 -1 -65 -43 -10 -26 -23 -41
-39 -45 -13 -4 -37 -21 -55 -39 -20 -20 -29 -25 -25 -14 3 10 9 37 12 60 4 23
13 50 21 59 8 9 17 36 20 60 3 24 12 50 19 59 17 18 46 125 42 149 -2 9 12 33
30 54 17 20 32 42 32 49 0 7 -9 26 -21 42 -11 17 -24 40 -29 53 -9 20 -16 22
-80 22 -56 0 -72 -3 -77 -16z m-282 -1597 c-13 -13 -26 -3 -16 12 3 6 11 8 17
5 6 -4 6 -10 -1 -17z"/>
<path d="M1682 2801 c-8 -5 -12 -22 -10 -42 2 -29 7 -34 31 -37 19 -2 27 1 27
13 0 8 7 18 15 21 20 8 19 40 -1 48 -22 8 -47 7 -62 -3z"/>
<path d="M1860 2772 c0 -22 22 -34 45 -25 25 9 13 38 -18 41 -21 3 -27 -1 -27
-16z"/>
<path d="M1594 2735 c-10 -25 4 -47 28 -43 17 2 24 11 26 31 3 23 0 27 -23 27
-14 0 -28 -7 -31 -15z"/>
<path d="M1803 2720 c-21 -9 -43 -38 -43 -59 0 -6 16 -17 35 -25 20 -9 39 -26
45 -41 5 -14 16 -25 24 -25 7 0 16 -9 19 -20 7 -27 33 -25 52 4 9 13 27 27 41
30 27 7 33 40 9 50 -8 3 -15 12 -15 21 0 20 -59 20 -74 0 -9 -13 -15 -13 -38
-3 -28 13 -37 28 -17 28 13 0 8 42 -6 46 -5 1 -20 -1 -32 -6z"/>
<path d="M1690 2691 c0 -6 -12 -9 -27 -8 -22 2 -29 -3 -31 -19 -3 -19 2 -21
52 -22 56 0 72 11 60 43 -7 16 -54 21 -54 6z"/>
<path d="M1410 2638 c-14 -6 -38 -11 -55 -12 -25 -1 -32 -7 -41 -36 -8 -23
-20 -38 -37 -44 -14 -5 -30 -19 -35 -30 -9 -20 -9 -20 -34 7 -32 34 -62 37
-56 4 4 -20 1 -23 -24 -19 -23 4 -28 1 -28 -17 0 -11 5 -21 12 -21 9 0 9 -3 0
-12 -7 -7 -12 -22 -12 -35 0 -18 6 -23 25 -23 30 0 43 25 26 51 -6 11 -7 19
-2 19 6 0 13 -4 16 -10 10 -16 42 -12 61 7 9 10 29 16 43 15 37 -3 131 53 131
78 0 12 9 22 25 26 13 3 29 12 36 20 9 11 9 18 -1 29 -14 17 -16 17 -50 3z"/>
<path d="M1950 2545 c-17 -20 -25 -91 -11 -99 19 -12 12 -33 -11 -32 -21 1
-23 -4 -24 -58 -1 -32 -7 -83 -14 -112 -10 -40 -10 -63 -3 -88 7 -23 7 -38 1
-44 -14 -14 -1 -32 23 -32 16 0 20 6 17 24 -1 13 6 33 16 45 11 12 16 29 13
41 -3 13 0 20 9 20 9 0 14 11 14 29 0 15 12 50 26 76 22 42 24 52 13 77 -9 22
-9 31 1 43 7 8 18 15 26 15 7 0 15 4 19 10 7 11 -21 82 -38 92 -20 13 -64 9
-77 -7z"/>
<path d="M2021 2080 c-12 -17 -19 -34 -16 -39 9 -15 -36 -82 -61 -92 -14 -5
-24 -17 -24 -29 0 -26 -11 -25 -33 1 -10 11 -26 19 -35 17 -12 -2 -17 -13 -17
-36 0 -17 -3 -32 -8 -32 -10 0 -37 -63 -37 -85 0 -23 46 -19 69 6 l20 22 -10
-38 c-6 -21 -8 -46 -6 -56 3 -11 1 -22 -4 -25 -12 -7 -11 -125 1 -144 8 -13
11 -13 23 0 18 18 37 75 37 107 0 16 8 27 25 33 19 7 25 17 25 40 0 18 8 37
20 47 24 21 25 48 6 86 -12 22 -12 27 -1 27 7 0 32 12 54 27 33 21 44 37 56
77 18 60 19 88 3 104 -7 7 -24 12 -38 12 -18 0 -34 -10 -49 -30z"/>
<path d="M1705 1487 c-4 -23 -14 -52 -22 -65 -25 -41 -11 -52 66 -52 l69 0 5
43 c2 23 8 52 12 64 6 18 3 24 -16 31 -13 5 -43 12 -66 16 l-41 6 -7 -43z"/>
<path d="M1667 1349 c-22 -13 -47 -68 -47 -104 0 -24 3 -26 30 -20 17 4 30 3
29 -2 -3 -32 -29 -75 -58 -95 -18 -13 -40 -36 -50 -51 -15 -26 -15 -29 2 -38
9 -6 17 -15 17 -20 0 -6 -5 -7 -10 -4 -16 10 -47 -4 -63 -28 -8 -12 -18 -51
-22 -85 l-7 -62 31 0 c17 0 34 7 39 17 8 14 12 13 27 -10 20 -32 45 -35 52 -8
3 11 14 22 25 24 15 4 19 11 15 26 -3 12 -1 24 4 27 5 3 9 32 9 65 0 47 4 63
20 76 15 13 20 30 20 65 0 41 3 48 20 48 27 0 26 33 -1 84 -11 21 -18 41 -15
43 3 3 10 -6 16 -21 7 -18 16 -26 28 -24 24 4 27 52 5 82 -14 20 -27 25 -58
25 -22 0 -48 -4 -58 -10z"/>
<path d="M2572 888 c-7 -7 -12 -15 -12 -20 0 -14 55 -58 72 -58 13 0 18 8 18
25 0 14 -4 25 -10 25 -5 0 -10 6 -10 14 0 8 -7 17 -16 20 -22 8 -28 8 -42 -6z"/>
<path d="M2447 859 c-10 -6 -31 -7 -47 -4 -22 5 -32 3 -36 -9 -3 -9 -14 -16
-23 -16 -9 0 -31 -9 -49 -20 -24 -15 -32 -27 -30 -43 2 -12 10 -22 18 -22 9 0
25 -10 38 -23 12 -12 28 -22 35 -21 26 1 48 16 60 39 7 14 23 26 37 28 33 5
50 20 50 46 0 20 1 20 13 -3 11 -21 9 -27 -20 -58 -31 -32 -33 -39 -33 -103 0
-64 -2 -71 -26 -87 -14 -9 -62 -61 -106 -116 -44 -54 -114 -125 -155 -158 -80
-64 -227 -140 -308 -159 -30 -7 -77 -9 -122 -4 -53 4 -73 3 -73 -5 0 -7 -5 -9
-11 -6 -7 5 -5 13 6 25 21 23 11 60 -16 60 -12 0 -24 -11 -30 -27 -21 -52 -26
-58 -59 -63 -45 -7 -59 -30 -37 -64 22 -33 61 -43 82 -22 22 21 32 20 38 -5 5
-19 11 -20 129 -15 68 3 142 5 165 5 30 0 49 7 69 26 15 14 32 25 39 25 6 0
22 10 35 22 13 12 32 23 42 23 10 1 25 11 33 21 7 11 32 29 54 39 22 11 41 26
41 33 0 7 13 12 29 12 20 0 36 9 50 26 12 15 21 35 21 45 0 11 4 19 10 19 5 0
29 18 52 41 23 22 55 47 70 55 15 8 28 21 28 29 0 8 9 19 20 25 21 11 27 44
10 55 -22 13 -9 34 23 37 24 2 32 8 32 23 0 11 -11 25 -25 32 l-25 13 34 0
c31 0 33 2 29 31 -4 25 0 33 24 45 43 22 38 58 -17 111 -32 30 -54 43 -74 43
-16 0 -31 6 -35 15 -6 17 -33 19 -59 4z"/>
<path d="M1485 801 c-34 -18 -51 -33 -53 -48 -2 -16 2 -23 13 -23 24 0 85 28
85 38 0 5 9 12 20 15 26 7 28 48 3 46 -10 -1 -40 -13 -68 -28z"/>
<path d="M1563 734 c-3 -8 -1 -20 5 -26 16 -16 42 -2 42 22 0 13 -7 20 -20 20
-11 0 -23 -7 -27 -16z"/>
<path d="M2234 725 c-4 -9 -2 -21 4 -27 15 -15 44 -1 40 19 -4 23 -36 29 -44
8z"/>
<path d="M1447 713 c-4 -3 -7 -19 -7 -35 0 -17 6 -31 17 -35 14 -5 13 -8 -6
-15 -19 -7 -22 -14 -19 -55 3 -45 5 -49 38 -59 30 -10 35 -16 32 -38 -3 -20 1
-26 17 -26 25 0 36 17 22 34 -9 10 -8 15 4 20 8 3 15 12 15 21 0 8 5 15 10 15
6 0 10 11 10 24 0 13 7 40 15 59 25 60 21 67 -34 67 -34 0 -51 4 -55 15 -5 15
-47 21 -59 8z"/>
<path d="M1425 448 c-12 -42 -23 -168 -16 -199 8 -34 44 -95 66 -111 14 -11
55 -10 55 1 0 5 9 11 20 14 14 3 20 14 20 32 0 15 7 43 16 61 13 28 14 40 5
60 -6 13 -22 29 -36 34 -22 8 -25 16 -25 55 0 41 -2 45 -24 45 -14 0 -28 5
-31 10 -9 14 -45 12 -50 -2z"/>
</g>
</svg>
