<?xml version="1.0" standalone="no"?>
<!DOCTYPE svg PUBLIC "-//W3C//DTD SVG 20010904//EN"
 "http://www.w3.org/TR/2001/REC-SVG-20010904/DTD/svg10.dtd">
<svg version="1.0" xmlns="http://www.w3.org/2000/svg"
 width="172.000000pt" height="764.000000pt" viewBox="0 0 172.000000 764.000000"
 preserveAspectRatio="xMidYMid meet">
<metadata>
Created by potrace 1.16, written by Peter Selinger 2001-2019
</metadata>
<g transform="translate(0.000000,764.000000) scale(0.100000,-0.100000)"
fill="#000000" stroke="none">
<path d="M835 2753 c-16 -3 -37 -10 -45 -17 -8 -7 -27 -17 -42 -24 -20 -8 -28
-19 -28 -36 0 -25 2 -26 113 -42 49 -8 83 14 91 59 12 64 -1 72 -89 60z"/>
<path d="M664 2726 c-4 -11 -19 -16 -49 -16 -56 0 -79 -21 -69 -64 3 -17 8
-34 11 -38 7 -13 43 -9 49 5 2 7 20 13 38 13 50 0 68 19 64 68 -2 29 -8 42
-21 44 -9 2 -20 -4 -23 -12z"/>
<path d="M985 2670 c-9 -15 4 -30 26 -30 12 0 19 7 19 20 0 13 -7 20 -19 20
-11 0 -23 -4 -26 -10z"/>
<path d="M1063 2663 c-14 -9 -23 -26 -23 -42 0 -21 15 -39 70 -84 82 -67 132
-132 154 -201 9 -27 23 -54 32 -60 13 -10 13 -22 -1 -121 -16 -108 -23 -130
-71 -230 -26 -54 -32 -121 -11 -128 16 -5 47 3 47 14 0 4 11 19 24 32 18 18
31 22 60 19 38 -4 70 13 62 33 -2 7 6 17 20 24 27 12 31 33 10 50 -7 6 -11 22
-8 36 2 13 1 36 -2 50 -5 20 -12 26 -29 23 -18 -2 -23 -11 -25 -41 -2 -21 1
-44 6 -50 7 -8 3 -18 -14 -30 -13 -10 -24 -13 -24 -8 0 5 5 13 10 16 6 3 10
33 10 66 l0 59 30 0 c23 0 33 6 40 25 5 14 16 25 25 25 17 0 20 32 5 61 -7 13
-7 19 0 19 5 0 10 9 10 20 0 12 -10 25 -22 30 -13 5 -32 16 -42 25 -19 14 -19
17 -3 49 12 27 14 42 6 71 -6 20 -16 38 -24 41 -7 3 -22 1 -33 -5 -17 -9 -19
-8 -15 9 8 29 -4 67 -29 90 -12 11 -30 20 -39 20 -13 0 -17 7 -16 28 2 21 -2
27 -18 27 -14 0 -20 -6 -19 -22 0 -13 -3 -23 -8 -23 -5 0 -24 7 -44 15 -33 14
-35 16 -28 50 6 33 5 35 -22 34 -16 0 -39 -7 -51 -16z"/>
<path d="M480 2565 c0 -28 4 -35 19 -35 25 0 51 26 51 51 0 15 -7 19 -35 19
-33 0 -35 -2 -35 -35z"/>
<path d="M368 2503 c-23 -27 -38 -59 -38 -82 0 -17 6 -21 35 -21 18 0 38 6 42
14 4 7 18 19 31 25 18 10 22 19 20 44 -3 29 -7 32 -39 35 -24 2 -40 -3 -51
-15z"/>
<path d="M1640 2460 c0 -16 7 -20 30 -20 23 0 30 4 30 20 0 16 -7 20 -30 20
-23 0 -30 -4 -30 -20z"/>
<path d="M1615 2421 c-3 -6 -16 -9 -29 -5 -13 3 -27 0 -34 -9 -9 -11 -8 -26 4
-67 10 -32 22 -54 33 -57 13 -3 17 -14 15 -43 -1 -21 -5 -43 -9 -49 -4 -7 -4
-23 -1 -36 3 -13 1 -27 -5 -30 -6 -4 -8 -14 -5 -22 3 -8 -1 -24 -9 -37 -8 -12
-18 -45 -21 -72 -4 -27 -15 -65 -25 -84 -50 -98 -70 -153 -61 -162 7 -7 7 -16
-1 -28 -8 -14 -8 -22 2 -34 7 -8 19 -12 28 -9 10 4 13 15 11 34 -3 16 0 30 6
32 6 3 21 -4 33 -15 12 -11 26 -17 32 -13 6 3 11 22 11 40 0 25 13 54 45 101
39 56 45 72 45 117 1 29 7 63 15 77 20 36 18 77 -5 100 -11 11 -20 27 -20 36
0 9 11 27 25 40 17 16 25 34 25 58 0 26 -5 36 -20 41 -12 4 -24 23 -32 53 -13
45 -38 66 -53 43z"/>
<path d="M301 2317 c-6 -8 -22 -48 -36 -91 -17 -53 -25 -99 -25 -150 0 -40 3
-76 6 -79 4 -3 15 -2 24 3 13 7 20 6 24 -6 4 -10 13 -13 26 -9 27 8 26 -9 -2
-27 -27 -18 -16 -38 21 -38 34 0 49 15 57 58 9 42 -14 75 -66 98 -37 16 -41
21 -35 44 4 14 9 41 12 60 3 19 12 44 19 55 18 25 18 69 0 84 -10 8 -16 8 -25
-2z"/>
<path d="M220 1926 c-6 -8 -10 -25 -8 -38 2 -17 10 -23 28 -23 17 0 29 8 38
29 12 24 12 30 1 37 -21 13 -45 11 -59 -5z"/>
<path d="M280 1861 c0 -26 17 -36 35 -21 18 15 8 40 -16 40 -12 0 -19 -7 -19
-19z"/>
<path d="M334 1815 c-3 -8 -2 -19 2 -26 4 -6 3 -10 -2 -7 -93 45 -127 48 -132
11 -2 -13 1 -23 7 -23 6 0 8 -7 5 -15 -4 -8 -3 -22 0 -30 5 -14 9 -14 37 1 24
12 34 13 39 4 4 -6 20 -10 36 -8 22 2 30 9 32 28 2 14 8 31 14 37 6 7 8 20 4
28 -7 19 -35 20 -42 0z"/>
<path d="M1125 1772 c-42 -26 -57 -47 -58 -83 -2 -28 2 -33 31 -41 34 -9 41
-22 18 -31 -8 -3 -17 1 -20 9 -3 8 -12 14 -19 14 -8 0 -20 7 -27 15 -7 8 -21
15 -31 15 -15 0 -19 -7 -19 -33 0 -18 4 -37 10 -43 7 -7 -11 -14 -53 -24 -34
-7 -65 -18 -69 -24 -4 -6 -8 -23 -8 -38 0 -16 -13 -39 -34 -60 -18 -18 -42
-57 -52 -86 -10 -29 -24 -52 -31 -52 -19 0 -36 -39 -29 -71 3 -15 1 -29 -5
-31 -5 -2 -16 -20 -23 -41 -10 -29 -10 -50 -3 -84 9 -39 8 -46 -6 -55 -9 -5
-17 -20 -17 -33 0 -18 5 -25 20 -25 10 0 24 9 30 19 5 11 18 22 27 25 23 7 63
77 63 108 0 36 43 117 62 118 24 0 68 47 68 71 0 27 -30 37 -46 15 -7 -10 -17
-15 -23 -11 -21 12 -11 24 30 35 22 6 58 20 80 32 34 17 39 25 39 54 0 27 5
36 23 43 31 12 47 34 50 68 2 25 5 28 28 25 19 -3 32 4 52 28 15 17 27 37 27
45 0 7 6 18 14 24 8 7 17 23 20 37 5 17 0 33 -16 54 -26 35 -58 39 -103 12z"/>
<path d="M1407 1693 c-4 -3 -7 -15 -7 -25 0 -11 7 -18 19 -18 24 0 33 13 25
34 -6 16 -25 21 -37 9z"/>
<path d="M624 1175 c-10 -25 4 -45 30 -45 13 0 26 7 30 15 9 25 -5 45 -30 45
-14 0 -27 -7 -30 -15z"/>
<path d="M212 1098 c-6 -6 -12 -17 -12 -24 0 -6 -7 -17 -15 -24 -8 -7 -15 -21
-15 -31 0 -10 -8 -23 -19 -28 -21 -12 -56 -88 -66 -146 -4 -22 -14 -52 -21
-67 -8 -15 -14 -43 -14 -63 0 -31 3 -35 26 -35 15 0 46 12 70 28 l43 27 1 66
c0 58 3 67 20 72 16 4 20 14 20 52 0 25 5 55 10 65 6 10 11 40 13 66 1 37 -2
49 -13 51 -9 2 -21 -2 -28 -9z"/>
<path d="M580 1095 c-7 -8 -20 -15 -30 -15 -10 0 -23 -13 -30 -30 -7 -16 -18
-35 -26 -41 -8 -6 -14 -26 -14 -45 0 -20 -6 -37 -16 -42 -14 -8 -15 -14 -4
-48 11 -31 11 -39 0 -42 -8 -3 -25 -16 -38 -29 -16 -16 -23 -34 -22 -56 1 -18
2 -49 1 -69 -1 -29 -5 -38 -18 -39 -31 -1 -78 -35 -81 -57 -3 -18 2 -22 22
-22 20 0 26 -5 26 -20 0 -12 -11 -31 -25 -43 -14 -12 -28 -37 -31 -55 -7 -32
-6 -34 21 -30 16 2 30 -2 32 -9 3 -7 -2 -13 -11 -13 -26 0 -56 -38 -56 -70 0
-23 5 -30 19 -30 11 0 23 5 27 12 11 18 34 -21 34 -59 0 -27 4 -33 23 -33 l22
-1 -22 -18 c-27 -23 -30 -63 -6 -82 9 -8 22 -29 30 -47 14 -35 40 -42 50 -14
4 9 11 20 16 23 5 4 9 23 10 44 1 25 -4 40 -16 46 -21 12 -22 29 -2 29 9 0 19
10 24 23 12 31 9 248 -4 267 -31 47 -33 58 -16 74 10 9 22 16 28 16 6 0 14 8
17 18 3 9 13 28 21 42 9 14 14 35 12 48 -2 12 -1 22 3 22 4 0 13 15 20 33 7
17 22 39 34 49 18 14 19 19 8 43 -10 21 -10 31 -1 41 9 11 9 21 0 40 -10 22
-8 30 14 56 27 32 30 43 15 53 -5 3 -10 26 -10 51 0 36 -3 44 -19 44 -10 0
-24 -7 -31 -15z"/>
<path d="M14 655 c-4 -9 -4 -27 -2 -40 3 -14 1 -25 -3 -25 -5 0 -9 -20 -9 -45
0 -30 6 -50 19 -62 11 -11 21 -39 24 -71 7 -63 27 -107 47 -107 8 0 22 15 31
34 8 18 26 41 38 50 22 16 22 20 10 60 -7 24 -23 50 -36 58 -28 19 -29 43 -3
66 11 9 20 26 20 37 0 23 -33 60 -55 60 -11 0 -15 -11 -15 -40 0 -34 -3 -40
-21 -40 -19 0 -19 1 -5 16 9 8 16 26 16 40 0 19 -5 24 -25 24 -14 0 -28 -7
-31 -15z"/>
<path d="M1321 330 c-24 -17 -50 -30 -58 -30 -8 0 -24 -5 -35 -11 -12 -7 -39
-13 -60 -15 -21 -1 -55 -12 -74 -23 -20 -12 -53 -21 -76 -21 -30 0 -41 -4 -45
-18 -3 -14 -12 -17 -38 -14 -23 3 -40 -1 -50 -12 -9 -9 -23 -16 -32 -16 -8 0
-29 -6 -46 -14 -18 -8 -72 -16 -121 -18 -72 -4 -91 -8 -102 -23 -20 -27 -18
-74 4 -81 9 -3 26 -11 37 -17 11 -6 61 -13 110 -15 75 -3 93 -1 104 12 7 9 19
16 26 16 7 0 23 8 36 18 14 11 49 22 84 25 80 9 127 23 152 46 18 17 22 18 36
4 20 -20 47 -10 47 17 0 14 7 20 24 20 13 0 29 6 35 14 7 8 23 17 37 20 17 5
26 15 31 37 4 20 14 34 30 40 13 5 26 16 29 24 10 25 -5 65 -24 65 -9 0 -37
-14 -61 -30z"/>
</g>
</svg>
