<?xml version="1.0" standalone="no"?>
<!DOCTYPE svg PUBLIC "-//W3C//DTD SVG 20010904//EN"
 "http://www.w3.org/TR/2001/REC-SVG-20010904/DTD/svg10.dtd">
<svg version="1.0" xmlns="http://www.w3.org/2000/svg"
 width="229.000000pt" height="764.000000pt" viewBox="0 0 229.000000 764.000000"
 preserveAspectRatio="xMidYMid meet">
<metadata>
Created by potrace 1.16, written by Peter Selinger 2001-2019
</metadata>
<g transform="translate(0.000000,764.000000) scale(0.100000,-0.100000)"
fill="#000000" stroke="none">
<path d="M1055 4903 c-22 -2 -62 -8 -88 -13 -33 -7 -62 -7 -94 1 -37 10 -47 9
-54 -2 -5 -8 -9 -27 -9 -43 0 -38 -25 -55 -71 -49 -47 7 -81 -11 -77 -40 2
-15 11 -23 30 -25 14 -2 32 -10 38 -18 16 -18 58 -18 106 2 59 24 84 52 84 92
0 30 2 33 15 22 11 -9 13 -16 5 -24 -5 -5 -10 -19 -10 -29 0 -16 5 -18 32 -15
18 3 42 0 53 -7 11 -7 47 -18 80 -25 33 -6 140 -30 238 -52 98 -22 181 -37
185 -33 4 4 7 45 7 93 0 59 -4 87 -13 90 -7 2 -19 10 -26 18 -20 20 -50 17
-71 -6 -13 -14 -31 -20 -62 -20 -23 0 -43 4 -43 9 0 5 -8 12 -19 16 -13 4 -17
12 -13 30 3 20 0 25 -17 25 -26 0 -38 -25 -22 -44 8 -9 8 -16 2 -20 -6 -4 -15
11 -21 34 -8 28 -16 40 -29 40 -11 0 -22 -8 -26 -17 -6 -17 -7 -17 -16 0 -6 9
-20 16 -32 15 -12 -1 -40 -3 -62 -5z"/>
<path d="M1620 4805 c-16 -20 -40 -102 -40 -140 0 -37 17 -55 148 -150 77 -56
98 -78 124 -127 17 -32 49 -79 70 -103 22 -25 37 -48 34 -53 -3 -5 6 -32 20
-62 13 -29 43 -114 65 -189 31 -102 43 -163 50 -251 17 -222 9 -384 -30 -631
-13 -81 -38 -167 -57 -197 -9 -13 -26 -56 -39 -95 -13 -40 -49 -125 -80 -190
-40 -82 -65 -122 -81 -129 -13 -6 -24 -18 -24 -26 0 -19 -61 -112 -73 -112
-11 0 -35 -21 -65 -55 -75 -86 -174 -163 -228 -177 -31 -9 -44 -17 -44 -30 0
-24 -16 -23 -23 0 -3 15 -17 20 -63 25 -33 3 -72 12 -89 21 -16 9 -39 16 -50
16 -11 0 -40 -14 -64 -30 -24 -17 -53 -30 -65 -30 -12 0 -27 9 -34 20 -10 16
-23 20 -65 20 -60 0 -97 -20 -97 -52 0 -12 -7 -29 -15 -38 -30 -33 -37 -156
-11 -198 4 -7 26 -12 49 -12 33 -1 38 -3 25 -11 -10 -5 -18 -19 -18 -31 0 -16
5 -19 25 -16 16 3 25 1 25 -7 0 -15 22 -25 56 -25 13 0 24 -4 24 -10 0 -16 38
-12 48 6 8 14 10 14 21 0 19 -23 68 -20 81 4 6 12 21 20 35 20 14 0 25 5 25
12 0 9 3 9 12 0 20 -20 56 -14 70 11 13 22 29 26 108 28 19 0 43 8 53 17 24
21 82 16 118 -10 15 -12 33 -34 40 -50 15 -36 40 -50 87 -48 75 4 78 2 78 -32
1 -59 23 -118 48 -130 13 -5 29 -21 35 -34 6 -14 22 -29 36 -34 28 -11 33 -41
10 -60 -8 -7 -15 -23 -15 -36 0 -12 -4 -26 -10 -29 -18 -11 -10 -42 15 -59 14
-9 25 -23 25 -31 0 -9 12 -21 28 -27 l27 -12 -27 -4 c-22 -3 -28 -9 -28 -29 0
-14 5 -42 11 -63 25 -84 -45 -475 -91 -507 -11 -8 -20 -20 -20 -27 0 -28 -144
-157 -226 -203 -25 -14 -52 -35 -60 -48 -10 -16 -21 -21 -40 -17 -15 3 -48 -7
-87 -26 -34 -17 -96 -40 -137 -51 -90 -25 -474 -65 -545 -56 -65 8 -204 45
-211 56 -3 5 -19 9 -35 9 -23 0 -34 7 -50 35 -12 19 -27 35 -33 35 -7 0 -27
16 -45 35 -17 19 -36 35 -41 35 -5 0 -18 17 -29 38 -10 20 -35 62 -55 92 -36
55 -49 87 -60 148 -4 24 -2 32 10 32 20 0 28 24 16 47 -13 24 7 53 38 53 16 0
43 20 80 58 34 34 63 56 73 54 28 -6 108 38 117 64 8 20 16 24 54 24 25 0 49
6 53 13 4 6 24 12 43 12 28 0 36 5 44 26 7 20 4 36 -10 65 -10 22 -27 40 -36
42 -15 3 -18 -4 -18 -35 -1 -21 -6 -48 -13 -61 -12 -20 -15 -21 -32 -7 -11 8
-15 15 -9 15 15 0 25 26 18 45 -7 17 -50 20 -60 4 -3 -6 -17 -8 -29 -5 -13 3
-27 2 -30 -4 -3 -5 -19 -10 -35 -10 -15 0 -30 -6 -33 -14 -3 -9 -15 -12 -31
-9 -21 4 -26 2 -26 -16 0 -17 -6 -21 -33 -21 -46 0 -116 -48 -150 -103 -16
-25 -40 -56 -53 -68 -36 -34 -67 -87 -60 -104 8 -21 -3 -45 -20 -45 -9 0 -14
-12 -14 -34 0 -64 21 -191 36 -213 8 -12 14 -27 14 -33 0 -6 16 -26 35 -45 30
-31 33 -38 24 -59 -8 -17 -8 -29 0 -45 7 -11 18 -21 26 -21 8 0 15 -4 15 -10
0 -5 25 -34 55 -64 40 -41 64 -57 92 -61 93 -16 120 -34 92 -62 -7 -7 -9 -19
-5 -28 4 -12 13 -15 30 -11 14 3 28 2 31 -4 3 -5 19 -10 35 -10 19 0 33 -7 40
-20 13 -24 42 -26 60 -5 16 19 74 19 90 0 15 -18 82 -20 110 -3 15 10 26 10
53 0 47 -17 74 -15 79 6 5 16 20 20 109 26 57 3 107 10 112 15 5 5 46 6 92 3
81 -5 84 -4 109 23 14 15 26 39 26 51 0 19 5 24 25 24 18 0 28 7 35 25 10 26
40 35 40 12 0 -21 46 -59 66 -55 10 2 21 17 26 34 9 36 33 61 43 44 11 -17 35
-11 46 13 15 33 35 67 47 79 8 8 16 7 26 -2 20 -16 46 -6 46 19 0 11 15 28 36
42 35 22 64 70 64 107 0 10 13 43 29 73 29 52 31 53 70 50 36 -2 41 0 41 18 0
14 6 21 20 21 16 0 20 7 20 35 0 28 -4 35 -19 35 -11 0 -21 -5 -23 -11 -2 -7
-15 -13 -29 -15 l-25 -2 17 56 c10 32 22 76 29 100 6 25 17 42 25 42 8 0 22
12 32 26 12 20 18 55 21 139 3 73 0 119 -7 133 -10 18 -9 22 4 22 21 0 20 57
-2 101 -9 18 -16 49 -15 67 2 22 -8 51 -28 86 -16 30 -30 61 -30 71 0 10 -8
36 -19 59 -10 23 -29 68 -41 101 -12 33 -29 70 -37 83 -17 28 -53 29 -60 2 -7
-28 -29 -25 -50 6 -14 21 -14 30 -4 46 17 27 5 55 -29 67 -23 7 -30 16 -30 35
0 22 -5 25 -42 28 -39 3 -43 5 -40 27 2 14 -5 33 -19 47 -22 24 -22 24 -2 24
12 0 23 4 25 8 2 5 17 15 33 23 21 10 39 32 58 72 17 34 38 62 52 69 16 7 25
21 27 41 2 25 10 33 38 42 25 8 37 20 44 41 5 16 21 54 36 84 15 30 37 85 49
122 24 72 41 95 41 56 0 -33 23 -61 46 -57 13 3 20 14 22 37 2 18 -1 32 -7 32
-6 0 -11 5 -11 11 0 7 -11 22 -26 35 -23 23 -24 26 -10 46 9 12 16 32 16 45 0
12 11 34 25 49 14 15 25 32 25 37 0 7 5 6 12 -1 9 -9 9 -15 0 -24 -7 -7 -12
-19 -12 -29 0 -9 -9 -28 -21 -43 -22 -28 -19 -54 7 -81 9 -8 26 -15 40 -15 18
0 27 9 38 34 8 18 19 37 25 40 14 9 15 63 1 68 -6 2 -4 15 5 32 8 15 15 37 15
48 0 10 12 29 27 42 25 22 27 29 28 107 0 80 -1 83 -25 89 -21 5 -22 7 -8 12
15 6 17 19 11 108 -5 88 -4 100 10 100 9 0 21 9 27 19 15 30 12 72 -9 116 -11
22 -24 66 -30 99 -10 56 -9 60 14 88 32 38 37 102 17 236 -6 34 -16 69 -23 78
-8 10 -22 14 -40 10 -24 -5 -28 -2 -33 30 -5 25 -3 39 9 50 20 21 20 107 0
124 -11 9 -12 16 -5 26 8 9 8 25 0 56 -19 69 -38 98 -64 98 -32 0 -39 10 -19
32 13 15 14 22 4 44 -11 24 -15 26 -61 22 -47 -5 -48 -4 -28 12 29 23 17 63
-27 90 -19 12 -40 30 -45 41 -6 10 -21 19 -33 19 -35 0 -83 35 -107 77 -12 22
-40 50 -62 64 -22 13 -44 32 -49 42 -12 21 -52 22 -69 2z m340 -365 c10 0 20
-9 23 -20 4 -17 3 -18 -16 -8 -24 12 -37 28 -36 43 0 6 3 4 6 -2 2 -7 13 -13
23 -13z m-1028 -2562 c-7 -7 -12 -8 -12 -2 0 14 12 26 19 19 2 -3 -1 -11 -7
-17z m-632 -1643 c0 -8 -7 -15 -16 -15 -14 0 -14 3 -4 15 7 8 14 15 16 15 2 0
4 -7 4 -15z"/>
<path d="M632 4697 c-6 -7 -12 -35 -14 -62 -2 -42 -6 -50 -24 -53 -18 -3 -22
-12 -27 -70 -4 -37 -4 -77 -1 -89 5 -16 2 -21 -13 -20 -13 2 -19 -6 -21 -30
-2 -24 4 -42 25 -68 23 -29 34 -35 58 -33 27 3 30 7 33 41 2 21 -2 45 -9 53
-10 12 -8 18 9 30 12 8 22 20 22 26 0 7 10 32 22 56 18 39 19 46 6 56 -10 7
-13 23 -10 47 3 27 11 40 29 48 19 9 23 16 17 34 -3 12 -11 28 -16 35 -13 16
-73 16 -86 -1z"/>
<path d="M625 4240 c-4 -6 -1 -26 5 -45 10 -29 9 -39 -6 -64 -17 -29 -17 -31
2 -66 12 -23 15 -38 9 -43 -18 -13 -65 -117 -65 -145 0 -22 4 -27 25 -27 25 0
33 -14 15 -25 -11 -7 -13 -56 -4 -131 6 -45 10 -52 38 -63 17 -7 25 -15 19
-18 -7 -2 -13 -16 -13 -29 0 -18 5 -24 22 -24 12 0 30 7 40 17 15 13 18 14 18
1 0 -29 42 -99 66 -110 14 -7 28 -24 32 -42 8 -30 10 -31 68 -31 32 0 70 -6
83 -14 19 -10 47 -12 120 -6 52 3 103 11 113 16 10 5 18 16 18 24 0 10 10 15
30 15 18 0 33 6 36 15 4 8 15 15 25 15 11 0 27 9 37 21 9 11 29 27 45 35 15 8
27 21 27 29 0 8 -17 19 -41 25 -33 9 -63 8 -143 -5 -55 -10 -109 -21 -118 -26
-10 -6 -19 -5 -23 1 -9 14 -55 12 -55 -2 0 -9 -3 -9 -12 0 -7 7 -22 12 -34 12
-35 0 -110 56 -141 105 -18 28 -35 44 -48 45 -18 0 -20 5 -17 40 3 29 -2 47
-18 70 -21 30 -21 32 -4 51 14 16 15 24 6 44 -10 22 -9 25 7 25 37 0 37 54 0
63 -10 3 -23 17 -29 31 -5 14 -16 26 -25 26 -11 0 -13 9 -9 43 5 34 1 51 -21
90 -15 26 -35 52 -45 57 -23 12 -27 12 -35 0z"/>
<path d="M1424 3635 c-4 -9 -2 -21 4 -27 15 -15 44 -1 40 19 -4 23 -36 29 -44
8z"/>
<path d="M791 1801 c-21 -13 -5 -41 24 -41 18 0 25 5 25 19 0 10 -7 22 -16 25
-19 7 -16 8 -33 -3z"/>
<path d="M1793 1523 c-7 -3 -13 -14 -13 -25 0 -14 6 -19 22 -16 13 2 24 10 26
19 3 18 -15 29 -35 22z"/>
<path d="M2020 802 c0 -23 19 -42 42 -42 24 0 23 36 -1 50 -29 15 -41 12 -41
-8z"/>
</g>
</svg>
