<?xml version="1.0" standalone="no"?>
<!DOCTYPE svg PUBLIC "-//W3C//DTD SVG 20010904//EN"
 "http://www.w3.org/TR/2001/REC-SVG-20010904/DTD/svg10.dtd">
<svg version="1.0" xmlns="http://www.w3.org/2000/svg"
 width="349.000000pt" height="627.000000pt" viewBox="0 0 349.000000 627.000000"
 preserveAspectRatio="xMidYMid meet">
<metadata>
Created by potrace 1.16, written by Peter Selinger 2001-2019
</metadata>
<g transform="translate(0.000000,627.000000) scale(0.100000,-0.100000)"
fill="#000000" stroke="none">
<path d="M670 5160 c-8 -5 -35 -10 -60 -10 -25 0 -58 -7 -74 -15 -15 -8 -33
-15 -38 -15 -5 0 -40 -31 -77 -69 -37 -38 -77 -72 -89 -75 -12 -4 -22 -11 -22
-16 0 -5 -15 -13 -33 -19 -18 -6 -52 -30 -74 -54 -47 -48 -93 -114 -93 -132 0
-24 -54 -96 -76 -101 -12 -3 -25 -15 -28 -27 -3 -12 -6 -57 -6 -99 0 -89 8
-96 58 -47 19 19 37 50 43 76 6 24 15 46 20 49 5 3 9 14 9 24 0 10 7 23 16 28
11 6 15 17 12 30 -4 15 0 23 13 27 10 4 24 16 31 28 17 34 150 167 165 167 7
0 16 7 19 15 4 8 12 15 19 15 6 0 20 9 30 20 10 11 25 20 34 20 9 0 25 7 35
15 26 19 121 19 222 0 42 -8 87 -22 100 -30 13 -8 57 -27 96 -41 40 -15 131
-53 201 -86 71 -33 144 -62 164 -65 19 -3 37 -12 40 -19 3 -8 11 -14 18 -14 6
0 20 -9 30 -20 10 -11 28 -20 41 -20 13 0 25 -4 29 -9 3 -5 27 -17 53 -27 26
-10 54 -23 62 -29 8 -7 39 -20 67 -29 29 -10 55 -22 58 -27 4 -5 18 -9 31 -9
14 0 33 -9 42 -21 13 -15 36 -23 97 -30 44 -5 96 -14 116 -20 31 -10 42 -8 86
15 28 14 62 40 76 58 22 28 27 30 33 15 3 -10 -3 -44 -15 -76 -11 -32 -21 -67
-21 -78 0 -11 -5 -34 -11 -51 -9 -27 -14 -30 -43 -25 -31 5 -35 1 -74 -53 -23
-33 -54 -81 -68 -109 -15 -27 -31 -56 -37 -63 -6 -7 -30 -70 -55 -140 -77
-222 -101 -295 -116 -362 -13 -55 -45 -120 -58 -120 -5 0 -8 -8 -8 -18 0 -10
-5 -23 -12 -30 -11 -11 -22 -57 -38 -166 -4 -32 -13 -63 -19 -69 -6 -6 -11
-20 -11 -31 0 -31 -31 -157 -45 -186 -7 -14 -16 -41 -20 -60 -4 -19 -16 -43
-27 -54 -14 -13 -19 -27 -15 -50 2 -18 -1 -35 -9 -41 -11 -9 -19 -32 -55 -165
-6 -25 -20 -66 -30 -92 -11 -26 -19 -54 -19 -62 0 -9 -5 -16 -11 -16 -8 0 -9
-17 -4 -56 4 -36 3 -60 -5 -69 -14 -17 -40 -110 -40 -145 0 -14 -9 -33 -20
-43 -21 -17 -28 -67 -10 -67 19 0 10 -17 -15 -28 -32 -15 -34 -55 -2 -70 12
-6 16 -11 10 -11 -7 -1 -13 -12 -13 -24 0 -13 -9 -32 -20 -42 -13 -12 -20 -31
-20 -57 0 -24 -8 -50 -21 -67 -12 -16 -24 -50 -26 -75 -3 -25 -10 -46 -14 -46
-15 0 -10 -40 6 -46 11 -5 8 -14 -17 -45 -27 -34 -30 -43 -20 -57 7 -9 17 -28
23 -42 9 -21 7 -27 -10 -39 -12 -7 -21 -20 -21 -28 0 -7 9 -26 20 -41 20 -26
20 -29 4 -61 -12 -24 -15 -46 -10 -78 5 -35 2 -48 -9 -57 -9 -6 -18 -29 -22
-50 -5 -30 -2 -42 11 -52 11 -8 13 -14 7 -19 -6 -3 -11 -15 -11 -26 0 -14 7
-19 24 -19 14 0 28 -5 31 -10 3 -6 2 -10 -3 -10 -5 0 -10 -28 -10 -61 -1 -41
4 -66 14 -76 16 -17 18 -39 4 -48 -6 -3 -10 -19 -10 -35 0 -22 7 -33 29 -45
30 -15 34 -26 46 -120 11 -96 14 -102 46 -109 27 -5 29 -9 29 -51 0 -29 4 -45
12 -45 7 0 43 -32 79 -71 39 -41 71 -69 78 -65 6 4 11 25 11 47 0 21 5 39 10
39 6 0 10 -15 10 -34 0 -19 4 -38 10 -41 6 -4 5 -13 -2 -25 -9 -14 -9 -25 0
-45 10 -22 18 -26 42 -23 25 4 28 2 19 -14 -13 -24 1 -49 64 -115 31 -33 58
-53 72 -53 22 0 55 28 55 48 0 6 13 23 28 39 16 15 31 35 34 43 4 11 8 12 18
4 8 -8 8 -14 1 -18 -6 -4 -8 -20 -5 -35 4 -16 1 -32 -5 -35 -6 -4 -11 -16 -11
-27 0 -13 7 -19 23 -19 13 0 28 5 35 12 9 9 15 9 24 0 15 -15 180 -16 206 -2
9 5 36 14 59 20 24 6 47 19 53 30 6 11 19 20 29 20 10 0 34 6 52 14 19 7 66
17 104 21 39 4 82 13 96 21 14 7 35 11 46 8 13 -4 22 0 26 10 4 9 14 16 23 16
9 0 27 9 41 20 14 11 33 20 43 20 9 0 25 9 35 20 12 13 31 20 57 20 l38 0 0
46 0 46 44 -6 c43 -7 44 -6 79 42 42 57 77 133 77 168 0 15 6 24 15 24 8 0 15
6 15 14 0 7 11 21 25 30 14 9 25 23 25 30 0 7 6 19 14 26 8 6 16 21 18 33 3
20 8 22 59 19 68 -4 84 10 84 79 0 38 5 53 27 76 29 30 78 139 78 172 0 11 7
26 15 35 19 19 19 60 0 79 -12 13 -8 18 36 46 27 17 52 38 56 46 3 9 1 26 -5
39 -7 16 -6 27 4 41 16 22 19 101 3 110 -5 4 -15 18 -20 32 -5 14 -18 27 -30
30 -14 4 -18 11 -13 22 20 47 17 60 -18 81 -29 17 -34 25 -30 48 3 23 -3 33
-31 55 -20 15 -43 27 -52 27 -11 0 -14 6 -9 24 4 17 -1 30 -20 49 -14 14 -26
30 -26 35 0 5 -13 15 -29 22 -25 10 -28 15 -19 30 6 9 8 25 5 34 -5 12 -21 16
-69 17 -81 0 -133 11 -134 27 -1 6 -2 19 -2 27 -1 8 -17 22 -34 31 -18 9 -43
25 -55 37 -18 16 -31 19 -68 15 -43 -5 -47 -3 -72 28 -14 19 -32 34 -40 34 -7
0 -25 -8 -40 -17 -30 -20 -87 -19 -120 3 -12 8 -29 14 -36 14 -8 0 -34 -11
-59 -24 -30 -16 -50 -21 -59 -15 -19 12 -116 11 -124 -1 -3 -5 -16 -10 -29
-10 -31 0 -65 -39 -82 -95 -10 -36 -11 -51 -3 -62 6 -7 17 -13 25 -13 7 0 33
11 59 24 37 20 51 23 78 15 17 -5 79 -9 137 -9 172 -1 236 -12 332 -58 47 -23
89 -46 93 -51 3 -6 22 -11 41 -11 24 0 43 8 60 25 14 14 29 25 34 25 9 0 50
-53 50 -64 0 -3 -7 -6 -15 -6 -29 0 -28 -30 1 -61 15 -16 33 -29 40 -29 12 0
128 -165 173 -245 20 -37 21 -46 12 -119 -5 -43 -14 -82 -19 -85 -6 -3 -15
-25 -21 -48 -6 -23 -19 -50 -28 -59 -17 -16 -63 -134 -63 -160 0 -13 -49 -97
-90 -154 -14 -19 -30 -42 -35 -51 -44 -72 -92 -134 -147 -194 -35 -38 -72 -81
-80 -94 -9 -13 -41 -36 -70 -52 -155 -82 -348 -173 -466 -219 -134 -52 -199
-64 -362 -72 -71 -3 -78 0 -179 76 -28 21 -65 58 -82 82 -16 24 -40 46 -52 50
-24 6 -53 43 -91 118 -14 27 -35 55 -46 63 -11 8 -20 25 -20 37 0 13 -7 29
-15 36 -8 7 -15 19 -15 28 0 8 -6 23 -13 31 -8 9 -21 37 -31 64 -10 26 -21 47
-26 47 -4 0 -10 24 -13 53 -6 72 -26 166 -42 200 -12 23 -12 27 -1 27 10 0 16
20 21 63 3 34 15 127 26 207 12 79 19 161 17 182 -2 24 1 38 8 38 12 0 24 44
24 89 0 15 20 99 45 188 77 276 124 475 133 560 6 45 17 91 26 104 9 13 16 40
16 61 0 49 19 138 35 163 18 29 83 233 100 316 8 39 15 84 15 100 0 16 4 37
10 47 15 25 60 216 60 252 0 20 9 39 23 53 31 28 43 52 51 102 4 22 14 59 22
83 8 24 19 76 24 115 6 39 17 81 25 94 8 12 15 35 15 51 0 16 7 35 15 42 8 7
15 22 16 34 0 21 0 21 9 -1 6 -15 18 -23 34 -23 19 0 25 6 30 35 8 40 0 59
-20 51 -9 -3 -14 1 -14 12 0 10 -6 24 -12 31 -11 10 -9 15 7 27 17 13 20 12
27 -6 9 -24 50 -27 68 -5 7 9 10 27 7 44 -6 30 15 71 37 71 7 0 23 11 36 25
22 23 41 69 75 176 8 26 31 73 50 105 19 31 37 66 41 76 3 10 10 18 15 18 14
0 11 43 -4 64 -8 11 -31 20 -60 23 -73 8 -90 0 -116 -57 -23 -51 -54 -79 -66
-60 -3 6 -48 10 -99 10 -71 0 -97 4 -106 15 -7 8 -18 15 -25 15 -7 0 -42 16
-79 35 -37 19 -77 35 -89 35 -12 0 -42 14 -67 31 -35 24 -53 30 -82 27 -34 -3
-38 -1 -38 19 0 12 -5 25 -10 28 -6 4 -29 8 -52 10 -25 2 -45 9 -50 19 -6 11
-23 16 -54 16 -46 0 -70 13 -142 73 -19 16 -45 27 -62 27 -16 0 -33 7 -37 15
-8 13 -42 34 -148 88 -22 11 -48 27 -58 36 -14 11 -22 12 -35 4 -13 -7 -21 -7
-30 3 -15 16 -62 19 -62 4 0 -15 -26 -12 -40 5 -14 17 -86 20 -110 5z"/>
<path d="M5 4390 c-7 -21 10 -60 25 -60 6 0 10 -7 10 -15 0 -21 27 -30 45 -15
8 7 15 25 15 39 0 53 -81 97 -95 51z"/>
<path d="M150 4290 c-6 -4 -10 -18 -8 -31 2 -18 9 -24 28 -24 20 0 26 6 28 26
2 19 -2 28 -16 31 -11 3 -25 2 -32 -2z"/>
<path d="M74 4255 c-4 -9 -2 -21 4 -27 15 -15 44 -1 40 19 -4 23 -36 29 -44 8z"/>
<path d="M2044 2109 c-3 -6 0 -18 9 -26 18 -18 37 -9 37 18 0 12 -7 19 -19 19
-11 0 -23 -5 -27 -11z"/>
<path d="M1992 2038 c-7 -7 -12 -29 -12 -50 0 -47 26 -63 48 -30 9 14 25 22
44 22 33 0 44 19 28 49 -8 16 -20 21 -53 21 -24 0 -48 -5 -55 -12z"/>
<path d="M3017 2014 c-4 -4 -7 -16 -7 -26 0 -12 7 -18 21 -18 15 0 20 5 17 22
-3 22 -19 33 -31 22z"/>
<path d="M1840 1943 c-23 -8 -90 -75 -90 -90 0 -8 10 -18 23 -23 l22 -9 -25
-2 c-14 -1 -34 -1 -44 0 -10 1 -29 -6 -42 -14 -13 -8 -32 -15 -44 -15 -18 0
-20 -6 -20 -53 0 -29 -5 -58 -11 -64 -8 -8 -8 -17 0 -31 6 -11 11 -29 11 -40
0 -15 -5 -18 -24 -15 -15 3 -25 -1 -29 -11 -7 -17 1 -46 12 -46 4 0 5 -18 3
-40 -4 -40 -4 -40 31 -40 20 0 43 7 51 16 9 8 23 41 32 72 9 31 20 62 25 68 5
6 14 38 20 70 6 33 15 65 21 72 6 6 18 12 28 12 9 0 36 14 60 31 23 17 55 35
71 41 27 9 29 14 29 58 0 45 -1 48 -31 54 -36 7 -58 7 -79 -1z"/>
<path d="M1556 1424 c-10 -26 -7 -57 9 -88 14 -26 14 -33 1 -60 -8 -17 -18
-58 -21 -92 -6 -47 -4 -62 6 -66 43 -16 90 44 70 89 -8 17 -7 24 3 30 8 5 15
40 20 99 6 89 6 92 -16 98 -39 10 -66 7 -72 -10z"/>
<path d="M1587 1093 c-12 -12 -7 -51 7 -56 20 -8 39 18 31 43 -6 20 -25 26
-38 13z"/>
</g>
</svg>
