<?xml version="1.0" standalone="no"?>
<!DOCTYPE svg PUBLIC "-//W3C//DTD SVG 20010904//EN"
 "http://www.w3.org/TR/2001/REC-SVG-20010904/DTD/svg10.dtd">
<svg version="1.0" xmlns="http://www.w3.org/2000/svg"
 width="422.000000pt" height="627.000000pt" viewBox="0 0 422.000000 627.000000"
 preserveAspectRatio="xMidYMid meet">
<metadata>
Created by potrace 1.16, written by Peter Selinger 2001-2019
</metadata>
<g transform="translate(0.000000,627.000000) scale(0.100000,-0.100000)"
fill="#000000" stroke="none">
<path d="M1101 5311 c-15 -15 -21 -41 -26 -117 -4 -55 -11 -103 -15 -109 -4
-5 -10 -26 -13 -45 -16 -89 -38 -177 -61 -233 -13 -34 -32 -98 -41 -142 -10
-44 -24 -93 -32 -108 -8 -16 -17 -61 -20 -100 -3 -40 -10 -77 -15 -83 -4 -6
-6 -19 -2 -28 4 -9 0 -18 -9 -22 -10 -4 -17 -26 -22 -67 -12 -107 -34 -197
-56 -226 -13 -18 -25 -54 -30 -93 -12 -95 -20 -122 -40 -138 -15 -11 -21 -33
-25 -85 -5 -77 -67 -331 -92 -382 -13 -26 -14 -37 -4 -58 9 -20 9 -42 0 -95
-8 -45 -17 -70 -25 -70 -7 0 -13 -9 -13 -20 0 -12 -9 -33 -19 -48 -14 -19 -21
-52 -25 -115 -3 -49 -10 -95 -16 -102 -6 -7 -11 -37 -10 -67 1 -82 -15 -193
-44 -306 -14 -56 -25 -107 -23 -112 1 -5 -7 -15 -17 -23 -19 -14 -19 -16 -3
-40 12 -19 17 -48 17 -106 0 -77 -1 -80 -41 -132 -30 -41 -39 -60 -35 -81 3
-16 0 -31 -9 -38 -9 -7 -15 -45 -19 -113 -6 -121 -19 -221 -34 -262 -17 -47
-35 -169 -30 -204 2 -17 1 -31 -3 -31 -4 0 -11 -9 -14 -21 -4 -13 -1 -27 9
-38 21 -24 20 -38 -4 -46 -15 -5 -20 -15 -20 -45 0 -21 -5 -42 -11 -46 -7 -4
-9 -25 -4 -61 5 -41 3 -59 -8 -71 -23 -26 -40 -91 -34 -127 4 -24 1 -35 -9
-39 -19 -7 -18 -41 2 -71 16 -24 16 -25 -9 -25 -31 0 -51 -31 -44 -68 3 -16
-4 -44 -18 -72 -30 -61 -36 -87 -46 -215 -10 -129 -16 -172 -31 -202 -12 -25
-5 -111 12 -143 14 -27 52 -26 87 4 15 12 38 28 50 35 19 9 24 8 33 -8 5 -11
10 -27 10 -35 0 -21 34 -21 50 -1 7 9 14 30 15 48 1 18 9 48 17 67 31 71 41
106 45 160 3 34 16 79 34 116 21 45 29 76 29 116 0 41 5 61 21 79 17 19 20 33
16 72 -2 26 0 47 4 47 16 0 9 38 -7 44 -13 5 -10 13 20 46 20 22 36 47 36 55
0 9 7 18 15 21 21 8 19 43 -5 82 -11 18 -20 37 -20 42 0 5 10 10 22 12 30 4
34 32 10 56 -15 15 -17 22 -7 35 7 10 20 17 29 17 21 0 32 26 17 44 -15 18 -5
41 25 55 22 10 25 16 19 41 -4 19 -3 30 4 30 6 0 11 11 11 25 0 14 -4 25 -9
25 -5 0 -11 9 -14 20 -4 16 -14 20 -52 20 -41 0 -46 2 -40 17 4 10 11 33 17
50 5 18 11 33 13 33 3 0 14 -9 25 -20 17 -17 18 -21 5 -26 -8 -4 -15 -15 -15
-26 0 -16 6 -19 37 -16 34 3 39 7 53 45 9 24 24 49 34 56 25 19 14 47 -18 47
-14 0 -27 -4 -30 -9 -3 -5 -17 -9 -31 -9 -18 0 -27 7 -31 25 -9 34 3 40 27 14
17 -18 23 -20 36 -9 9 7 26 11 39 10 12 -2 26 3 31 11 10 18 91 80 115 90 13
4 18 17 18 41 0 27 5 36 23 41 12 4 31 15 42 25 11 10 29 21 41 24 58 18 148
196 99 196 -8 0 -23 9 -32 20 -24 28 -60 25 -93 -9 -16 -16 -36 -31 -45 -35
-9 -3 -15 -14 -13 -23 4 -23 48 -31 48 -9 0 18 47 33 61 19 6 -6 6 -20 -1 -37
-8 -22 -14 -26 -28 -20 -9 4 -35 9 -57 11 -39 4 -41 2 -59 -39 -11 -23 -39
-63 -63 -88 -24 -25 -54 -57 -67 -71 -13 -14 -28 -43 -31 -65 -4 -21 -11 -46
-16 -54 -7 -13 -8 -13 -13 0 -3 8 -6 24 -8 35 -2 12 -12 21 -26 23 -17 3 -20
7 -13 20 5 10 9 47 10 83 0 36 5 86 10 110 5 24 21 127 35 229 14 102 31 217
37 255 6 39 14 95 19 127 4 31 11 61 15 68 4 6 11 55 15 108 5 53 12 112 16
130 4 20 2 38 -6 47 -10 12 -9 19 2 37 9 13 18 39 21 58 15 98 38 204 47 215
5 6 11 45 13 86 2 41 8 84 15 96 7 12 12 33 12 47 0 14 4 27 9 30 4 3 11 36
15 73 3 37 38 208 77 378 38 171 86 384 105 475 19 91 41 188 49 215 8 28 21
86 30 130 9 44 23 100 30 125 8 25 23 110 35 189 11 79 27 169 34 200 8 31 17
75 21 99 l7 42 -56 0 c-42 0 -61 -5 -75 -19z m-615 -4007 c-19 -19 -20 -36 -4
-52 9 -9 9 -12 0 -12 -7 0 -15 7 -19 16 -7 19 12 64 27 64 7 0 4 -7 -4 -16z"/>
<path d="M3966 5253 c-15 -71 -26 -177 -20 -199 7 -26 31 -44 59 -44 14 0 15
8 10 53 -6 43 -3 56 13 77 11 14 22 41 25 60 3 19 7 44 9 55 3 17 -3 20 -44
23 -44 3 -47 1 -52 -25z"/>
<path d="M4179 5238 c-7 -13 -23 -33 -36 -46 -14 -12 -23 -28 -21 -34 3 -7 -4
-20 -14 -30 -10 -10 -18 -29 -18 -42 0 -44 -21 -85 -56 -105 -21 -13 -34 -28
-34 -41 0 -12 -9 -24 -24 -29 -38 -15 -48 -64 -20 -106 9 -13 13 -28 10 -33
-3 -6 -21 -13 -40 -16 -37 -7 -56 -37 -37 -60 7 -9 7 -16 -1 -24 -8 -8 -8 -15
1 -26 10 -12 8 -17 -10 -26 -19 -11 -21 -17 -15 -63 4 -28 11 -58 16 -68 7
-12 5 -19 -5 -23 -8 -3 -15 -14 -15 -25 0 -11 -7 -27 -16 -36 -14 -14 -15 -20
-4 -43 15 -32 14 -250 -2 -269 -5 -7 -7 -31 -3 -57 7 -41 5 -45 -16 -48 -14
-2 -25 -11 -27 -23 -2 -11 -11 -27 -19 -36 -8 -9 -19 -45 -25 -80 -12 -75 2
-145 30 -152 12 -3 11 -5 -5 -6 -32 -1 -63 -36 -63 -68 0 -16 9 -41 20 -58 21
-32 26 -65 10 -65 -5 0 -13 -12 -16 -26 -4 -14 -17 -30 -30 -35 -29 -10 -42
-41 -50 -117 -3 -31 -10 -67 -16 -78 -14 -30 -6 -59 16 -59 30 0 30 -20 0 -40
-25 -16 -26 -20 -20 -78 3 -33 11 -66 16 -73 8 -9 2 -15 -26 -24 -34 -12 -36
-14 -31 -46 3 -19 2 -34 -3 -34 -5 0 -12 -9 -15 -21 -5 -14 -1 -25 12 -34 17
-13 17 -15 1 -43 -10 -17 -18 -35 -18 -42 0 -6 12 -22 27 -36 26 -24 27 -27
10 -38 -9 -7 -17 -18 -17 -23 0 -5 -9 -18 -20 -28 -11 -10 -20 -27 -20 -38 0
-11 -8 -26 -17 -33 -13 -9 -18 -28 -20 -71 -1 -32 -9 -96 -18 -143 -10 -54
-18 -154 -20 -275 -2 -126 -8 -200 -16 -219 -10 -22 -10 -32 -1 -47 10 -16 10
-21 -3 -25 -17 -7 -20 -40 -4 -49 7 -5 4 -15 -9 -29 -24 -26 -36 -62 -23 -70
6 -4 4 -21 -6 -44 -13 -32 -14 -50 -3 -132 8 -69 9 -103 1 -123 -13 -33 -13
-147 -1 -227 6 -45 5 -57 -8 -67 -12 -10 -14 -29 -8 -115 4 -57 8 -126 10
-154 2 -28 6 -57 10 -63 4 -6 0 -14 -8 -17 -12 -5 -16 -21 -16 -68 0 -35 5
-67 12 -74 19 -19 66 -14 80 8 7 11 21 20 30 20 23 0 38 30 38 76 0 21 7 45
15 54 9 10 18 41 22 69 3 32 12 57 23 64 30 21 48 61 48 105 1 24 -3 54 -8 67
-7 18 -4 24 16 34 26 11 31 30 13 48 -9 9 -9 24 1 59 11 37 11 49 1 52 -8 3
-9 8 -1 17 7 9 6 29 -5 71 -21 78 -21 208 -1 240 18 26 21 70 6 79 -5 3 -10
24 -10 45 0 25 6 42 16 48 22 12 14 54 -13 67 -20 10 -21 13 -7 27 13 13 14
20 4 38 -13 24 -7 35 31 54 32 16 46 59 32 96 -9 23 -8 30 1 30 16 0 38 193
26 225 -5 14 -4 27 3 34 8 8 9 16 1 29 -7 10 -8 26 -3 40 5 12 15 62 23 111 8
49 21 100 31 114 9 14 15 42 15 63 -1 22 5 57 14 79 8 22 15 67 16 99 0 36 6
66 14 75 9 10 17 54 21 119 7 95 6 102 -11 103 -11 0 -4 5 14 10 36 11 43 38
12 46 -17 4 -18 8 -8 20 16 20 17 115 1 120 -23 8 -14 37 27 88 42 53 50 82
25 91 -13 6 -14 8 -1 18 18 14 32 146 15 146 -6 0 -1 8 11 18 15 12 24 31 25
56 1 20 5 40 9 43 9 10 7 79 -4 107 -7 20 -6 26 4 26 18 0 27 26 20 56 -5 18
-2 24 10 24 17 0 23 35 7 44 -12 8 -1 57 16 78 11 13 12 21 3 37 -8 16 -8 27
2 44 9 15 12 61 11 145 -2 91 1 122 10 121 41 -5 52 22 17 41 -25 14 -26 27
-1 35 22 7 30 40 56 225 9 63 27 179 41 258 28 167 32 262 9 262 -8 0 -20 -10
-26 -22z m-552 -3464 c-3 -3 -12 -4 -19 -1 -8 3 -5 6 6 6 11 1 17 -2 13 -5z"/>
<path d="M1155 2218 c-2 -7 -3 -22 -2 -32 2 -15 -8 -22 -43 -31 -34 -8 -46
-16 -48 -32 -2 -12 6 -30 17 -40 11 -10 24 -31 30 -46 9 -22 17 -27 46 -27 22
0 43 8 56 21 14 14 24 18 31 11 15 -15 38 -3 38 20 0 16 -5 19 -25 16 -31 -6
-33 14 -2 27 12 6 27 20 32 33 7 15 16 21 28 18 9 -2 23 1 30 8 6 7 20 15 30
19 25 9 17 41 -11 45 -12 2 -22 -1 -22 -7 0 -5 -9 -13 -20 -16 -11 -3 -20 -13
-20 -21 0 -13 -2 -13 -16 0 -8 9 -21 16 -28 16 -8 0 -19 7 -26 15 -15 18 -69
20 -75 3z"/>
<path d="M1454 2185 c-3 -8 -21 -17 -41 -21 -27 -5 -33 -11 -31 -27 4 -25 49
-40 95 -32 34 6 43 20 43 66 0 26 -3 29 -30 29 -18 0 -33 -6 -36 -15z"/>
<path d="M1652 2125 c5 -25 -5 -34 -17 -15 -3 6 -18 10 -32 10 -22 0 -25 -4
-21 -25 3 -13 1 -26 -4 -27 -10 -4 -29 -78 -23 -88 9 -14 163 -100 180 -100
10 0 23 7 29 15 7 10 16 12 26 5 11 -7 9 -11 -13 -19 -41 -16 -35 -45 17 -81
25 -16 51 -30 58 -30 7 0 24 -16 37 -35 34 -50 107 -115 130 -115 10 0 21 8
25 18 3 9 17 32 31 51 17 23 25 47 25 73 0 35 -4 41 -30 51 -17 6 -30 19 -30
28 0 9 -7 19 -15 23 -8 3 -15 12 -15 19 0 8 -8 21 -18 30 -23 21 -119 32 -139
16 -7 -7 -15 -10 -16 -8 -2 2 -11 16 -20 32 -10 15 -22 27 -28 27 -6 0 -24
-10 -41 -21 l-30 -22 7 24 c4 13 13 37 21 53 27 57 15 86 -37 86 -14 0 -19 7
-19 25 0 19 -5 25 -21 25 -17 0 -20 -5 -17 -25z m285 -267 c13 -15 13 -19 -5
-38 l-19 -21 4 26 c3 14 0 31 -6 39 -6 7 -8 22 -4 32 7 18 8 18 11 -1 2 -11
11 -28 19 -37z m-90 -24 c-3 -3 -12 -4 -19 -1 -8 3 -5 6 6 6 11 1 17 -2 13 -5z"/>
<path d="M977 2134 c-4 -4 -7 -16 -7 -26 0 -16 6 -19 33 -16 24 2 32 8 32 23
0 14 -8 21 -25 23 -14 2 -29 0 -33 -4z"/>
<path d="M1464 2045 c-4 -9 -2 -21 4 -27 16 -16 47 -5 47 17 0 26 -42 34 -51
10z"/>
<path d="M1050 1981 c0 -24 25 -34 40 -16 15 18 5 35 -21 35 -12 0 -19 -7 -19
-19z"/>
<path d="M1862 1978 c2 -18 10 -23 33 -23 23 0 31 5 33 23 3 19 -1 22 -33 22
-32 0 -36 -3 -33 -22z"/>
<path d="M2197 1713 c-13 -13 -7 -62 9 -71 21 -12 64 -3 71 15 3 8 1 25 -5 39
-8 17 -20 24 -40 24 -16 0 -32 -3 -35 -7z"/>
<path d="M2220 1614 c-14 -7 -36 -14 -50 -14 -14 0 -36 -7 -49 -16 -20 -14
-22 -23 -18 -57 3 -22 15 -52 27 -66 11 -14 30 -41 41 -58 14 -22 29 -33 44
-33 18 0 24 -7 29 -36 6 -29 11 -35 29 -32 18 2 23 -3 25 -27 2 -16 12 -35 23
-43 12 -8 19 -25 19 -47 0 -24 6 -38 20 -45 15 -8 18 -17 13 -40 -4 -21 2 -46
18 -80 13 -28 27 -50 30 -50 3 0 4 -11 1 -25 -4 -21 -1 -25 20 -25 25 0 48
-16 48 -34 0 -5 -6 -1 -14 9 -16 22 -49 13 -44 -12 2 -11 12 -18 27 -17 20 1
22 -3 16 -25 -4 -14 -7 -47 -6 -73 1 -40 -3 -50 -24 -64 -13 -9 -27 -24 -30
-35 -3 -10 -26 -45 -49 -77 -39 -53 -54 -63 -152 -111 -60 -29 -117 -57 -128
-63 -40 -21 -177 -61 -305 -89 -117 -25 -178 -45 -243 -79 -11 -6 -20 -4 -28
5 -16 19 -89 19 -132 1 -18 -8 -65 -19 -105 -25 -58 -9 -96 -8 -190 5 -65 9
-133 22 -152 30 -47 20 -68 17 -76 -8 l-8 -23 -4 23 c-3 14 -20 30 -44 42 -21
11 -45 29 -51 40 -17 27 -72 27 -91 0 -7 -11 -30 -27 -50 -35 -29 -12 -37 -21
-37 -40 0 -20 5 -25 24 -25 13 0 26 4 28 8 2 5 17 12 33 16 24 5 26 4 13 -4
-25 -15 -23 -50 2 -50 17 0 20 -7 20 -40 0 -34 3 -40 20 -40 12 0 32 -8 46
-17 21 -13 32 -14 55 -6 20 8 29 8 32 -1 3 -8 10 -8 26 2 18 10 21 10 21 -4 0
-12 7 -15 30 -12 24 4 30 1 30 -14 0 -10 2 -18 4 -18 2 0 28 5 57 11 30 6 79
11 110 12 38 1 63 8 76 19 18 16 19 16 30 -1 8 -13 30 -20 83 -25 39 -3 79 -2
88 3 9 5 30 32 47 60 16 28 34 50 39 48 6 -2 13 -14 16 -28 5 -20 13 -25 49
-27 23 -2 48 2 55 8 8 5 51 15 96 21 45 5 100 19 121 29 46 24 106 26 130 4
11 -10 25 -13 38 -9 15 4 21 15 21 36 0 26 3 29 35 29 18 0 38 6 42 14 4 7 36
27 71 45 35 17 82 47 105 66 22 19 44 35 49 35 4 0 8 7 8 15 0 12 4 13 26 3
19 -9 30 -9 44 0 14 9 20 8 23 -1 6 -19 50 9 72 46 10 18 40 54 66 80 26 27
55 64 65 82 15 29 16 37 5 58 -15 28 -10 49 27 125 22 43 24 56 14 70 -7 9
-16 27 -22 40 -6 14 -18 22 -34 22 -37 0 -57 -10 -67 -36 -11 -31 -33 -32 -23
-1 10 33 47 82 52 69 5 -16 45 -15 60 0 7 7 12 22 12 35 0 20 -5 23 -34 23
-19 0 -37 -6 -39 -12 -3 -8 -6 -6 -6 5 -1 12 7 17 24 17 21 0 25 5 25 29 0 29
-22 61 -41 61 -5 0 -9 9 -9 20 0 11 -9 29 -20 40 -12 12 -20 33 -20 53 0 50
-10 76 -33 83 -27 9 -72 54 -81 80 -3 12 -17 26 -30 33 -13 7 -34 31 -46 53
-18 33 -20 42 -9 49 8 5 18 9 23 9 11 0 -3 53 -17 62 -19 12 -80 7 -107 -8z"/>
<path d="M3632 848 c-7 -7 -12 -29 -12 -51 0 -36 2 -38 28 -35 20 2 28 9 30
27 5 33 -6 71 -21 71 -7 0 -18 -5 -25 -12z"/>
<path d="M3579 653 c-5 -16 -12 -33 -14 -40 -2 -7 2 -19 9 -26 12 -11 11 -15
-5 -25 -48 -30 2 -86 59 -66 38 14 48 49 31 123 -12 57 -15 61 -41 61 -22 0
-31 -6 -39 -27z"/>
<path d="M627 423 c-4 -3 -7 -19 -7 -35 0 -23 4 -28 24 -28 28 0 40 24 26 51
-11 19 -31 25 -43 12z"/>
<path d="M472 368 c-30 -30 3 -73 51 -66 18 2 22 9 20 32 -1 16 -8 33 -15 38
-19 11 -42 10 -56 -4z"/>
<path d="M330 200 c0 -36 3 -40 25 -40 17 0 25 6 25 18 0 9 3 27 6 40 6 19 3
22 -25 22 -30 0 -31 -2 -31 -40z"/>
</g>
</svg>
