<?xml version="1.0" standalone="no"?>
<!DOCTYPE svg PUBLIC "-//W3C//DTD SVG 20010904//EN"
 "http://www.w3.org/TR/2001/REC-SVG-20010904/DTD/svg10.dtd">
<svg version="1.0" xmlns="http://www.w3.org/2000/svg"
 width="275.000000pt" height="627.000000pt" viewBox="0 0 275.000000 627.000000"
 preserveAspectRatio="xMidYMid meet">
<metadata>
Created by potrace 1.16, written by Peter Selinger 2001-2019
</metadata>
<g transform="translate(0.000000,627.000000) scale(0.100000,-0.100000)"
fill="#000000" stroke="none">
<path d="M430 2239 c-14 -6 -28 -17 -33 -25 -4 -8 -14 -14 -22 -14 -7 0 -32
-17 -54 -38 -31 -29 -41 -46 -41 -70 0 -27 4 -32 25 -32 19 0 29 10 45 39 19
38 25 43 81 55 40 9 79 44 79 72 0 20 -5 24 -27 23 -16 0 -39 -5 -53 -10z"/>
<path d="M585 2241 c-55 -6 -60 -8 -60 -31 0 -28 23 -37 93 -39 37 -1 112 -29
162 -60 8 -6 32 -18 53 -27 20 -9 69 -46 108 -82 99 -92 306 -330 338 -389 7
-14 7 -39 1 -79 -6 -33 -10 -62 -10 -66 0 -4 -14 -22 -31 -40 -35 -38 -119
-200 -119 -230 0 -10 -9 -40 -20 -66 -11 -26 -31 -94 -45 -152 -20 -85 -25
-130 -25 -240 0 -82 5 -156 14 -188 l13 -53 -29 -24 c-16 -14 -35 -25 -43 -25
-7 0 -20 -11 -29 -25 -9 -14 -21 -25 -26 -25 -6 0 -32 -15 -58 -34 -39 -27
-52 -32 -67 -23 -13 7 -21 6 -29 -4 -20 -24 -54 -39 -93 -39 -46 -1 -81 -19
-99 -51 -7 -13 -13 -18 -14 -11 0 19 -38 14 -60 -8 -13 -13 -33 -20 -60 -20
-27 0 -47 -7 -60 -20 -16 -16 -33 -20 -89 -20 -49 0 -72 -4 -81 -15 -8 -10
-31 -15 -66 -15 -46 0 -54 -3 -54 -18 0 -30 35 -55 67 -49 15 3 47 0 71 -6 33
-9 47 -9 63 2 12 7 39 14 62 16 22 2 44 10 48 17 6 9 32 13 79 13 57 0 74 4
84 18 7 9 17 17 21 17 4 0 20 9 35 20 22 16 37 19 73 14 28 -4 47 -2 51 5 4 6
13 11 21 11 8 0 26 5 42 12 15 6 38 10 50 9 16 -2 26 5 32 22 6 14 19 28 30
32 11 3 35 26 52 51 18 24 43 51 55 59 22 14 25 13 39 -9 9 -13 30 -26 47 -30
17 -3 37 -11 45 -17 7 -7 13 -31 13 -58 0 -39 5 -52 28 -72 41 -38 190 -125
245 -143 27 -9 102 -25 168 -36 87 -14 168 -19 297 -19 155 0 191 3 285 25 76
19 112 32 120 45 8 13 24 19 52 19 44 0 112 28 134 53 7 10 22 17 33 17 10 0
21 7 24 15 4 8 15 15 26 15 25 0 78 37 78 55 0 7 18 20 40 29 32 13 40 21 40
41 0 21 -5 25 -29 25 -17 0 -35 8 -43 18 -32 45 -68 37 -68 -14 0 -24 -5 -34
-15 -34 -10 0 -15 10 -15 30 0 25 -4 30 -23 30 -13 0 -32 -9 -42 -20 -13 -14
-31 -20 -62 -20 -29 0 -43 -4 -43 -13 0 -20 -31 -44 -67 -52 -18 -3 -35 -10
-38 -15 -3 -5 -20 -6 -38 -3 -27 4 -40 -1 -77 -32 -43 -36 -46 -37 -100 -30
-30 4 -63 11 -72 16 -22 12 -65 11 -70 -1 -2 -6 -28 -5 -71 2 -51 8 -84 8
-130 0 -52 -10 -63 -9 -78 4 -10 9 -41 19 -71 23 -53 8 -181 62 -193 81 -3 5
-14 10 -25 10 -24 0 -117 103 -125 139 -5 22 -1 35 14 50 12 12 21 28 21 36 0
8 5 15 10 15 6 0 18 13 28 30 14 22 21 27 30 18 19 -19 59 6 82 53 26 50 49
152 63 284 14 135 -3 340 -38 448 -14 43 -25 94 -25 113 0 35 20 85 47 116 8
9 13 29 11 45 -2 21 4 34 25 51 15 13 27 30 27 38 0 7 8 18 18 23 11 6 38 36
62 68 24 32 70 88 102 126 42 49 58 75 58 97 0 18 5 30 13 30 7 0 20 9 30 20
9 11 29 20 43 20 26 0 26 2 20 42 -4 22 -9 45 -12 50 -10 16 -44 8 -59 -16
-11 -16 -22 -22 -38 -19 -12 2 -31 -3 -42 -11 -18 -13 -19 -17 -6 -38 13 -21
13 -22 -3 -9 -15 13 -22 12 -52 -4 -34 -18 -104 -99 -104 -120 0 -7 -9 -20
-20 -30 -12 -11 -41 -52 -66 -93 -25 -41 -51 -80 -58 -88 -8 -7 -26 -33 -42
-58 -28 -44 -44 -57 -44 -36 0 6 -9 10 -20 10 -13 0 -20 7 -20 18 0 10 -13 38
-28 63 -32 50 -263 294 -296 311 -12 7 -41 15 -65 18 -40 4 -45 9 -56 39 -6
19 -18 38 -26 42 -26 13 -114 32 -154 34 -22 2 -67 0 -100 -4z m822 -1118 c3
-59 0 -143 -7 -199 -8 -69 -9 -99 -1 -107 6 -6 11 -19 11 -28 0 -13 -10 -19
-32 -21 -29 -3 -33 -7 -31 -29 1 -18 -5 -30 -19 -36 -11 -5 -39 -36 -62 -68
-23 -33 -46 -59 -51 -58 -23 3 -37 82 -38 203 0 96 5 144 21 205 31 119 106
308 138 351 l29 37 18 -74 c10 -41 21 -120 24 -176z"/>
<path d="M1983 2224 c-7 -3 -13 -17 -13 -30 0 -26 12 -29 69 -18 25 5 31 11
29 28 -2 16 -11 21 -38 23 -19 1 -41 0 -47 -3z"/>
<path d="M2097 2223 c-4 -3 -7 -15 -7 -25 0 -12 11 -23 31 -30 17 -6 34 -21
40 -35 6 -18 15 -24 32 -21 15 2 23 11 25 29 2 21 -2 28 -22 33 -16 4 -26 13
-26 25 0 19 -18 31 -49 31 -10 0 -21 -3 -24 -7z"/>
<path d="M200 2010 c0 -39 1 -40 35 -40 41 0 62 28 45 60 -8 14 -21 20 -45 20
-34 0 -35 -1 -35 -40z"/>
<path d="M160 1918 c-11 -24 -20 -49 -20 -55 0 -8 12 -13 29 -13 37 0 61 31
61 77 0 29 -3 33 -25 33 -21 0 -30 -9 -45 -42z"/>
<path d="M139 1813 c-10 -12 -14 -47 -13 -132 1 -87 6 -133 22 -185 12 -37 28
-79 37 -92 8 -13 15 -37 15 -54 0 -22 5 -30 18 -30 9 0 27 -3 38 -6 30 -8 37
19 13 47 -10 12 -19 32 -19 45 0 13 -9 47 -21 76 -13 32 -23 86 -26 138 -3 47
-11 88 -16 92 -11 7 -1 33 25 70 27 37 -44 67 -73 31z"/>
<path d="M7 113 c-4 -3 -7 -19 -7 -35 0 -28 1 -29 47 -26 35 2 49 7 51 20 5
26 -72 61 -91 41z"/>
</g>
</svg>
