<?xml version="1.0" standalone="no"?>
<!DOCTYPE svg PUBLIC "-//W3C//DTD SVG 20010904//EN"
 "http://www.w3.org/TR/2001/REC-SVG-20010904/DTD/svg10.dtd">
<svg version="1.0" xmlns="http://www.w3.org/2000/svg"
 width="233.000000pt" height="627.000000pt" viewBox="0 0 233.000000 627.000000"
 preserveAspectRatio="xMidYMid meet">
<metadata>
Created by potrace 1.16, written by Peter Selinger 2001-2019
</metadata>
<g transform="translate(0.000000,627.000000) scale(0.100000,-0.100000)"
fill="#000000" stroke="none">
<path d="M970 2186 c0 -19 7 -27 26 -32 30 -8 47 6 42 32 -2 13 -13 20 -36 22
-28 3 -32 0 -32 -22z"/>
<path d="M903 2184 c-7 -18 14 -35 37 -31 8 1 16 12 18 25 3 18 -1 22 -23 22
-14 0 -28 -7 -32 -16z"/>
<path d="M1075 2180 c-8 -24 1 -40 21 -40 8 0 14 -4 14 -10 0 -5 13 -10 29
-10 21 0 32 -6 36 -19 3 -11 15 -23 26 -26 10 -4 19 -11 19 -16 0 -5 11 -9 24
-9 13 0 35 -9 50 -21 15 -12 44 -23 65 -26 34 -5 41 -2 56 21 10 14 14 33 11
42 -5 13 -16 14 -61 9 -52 -7 -55 -6 -55 14 0 33 -46 69 -106 82 -30 7 -57 16
-60 21 -3 4 -18 8 -34 8 -20 0 -31 -6 -35 -20z"/>
<path d="M551 2135 c-24 -8 -47 -17 -50 -22 -3 -4 -24 -17 -46 -28 -21 -11
-51 -38 -66 -60 -15 -22 -40 -47 -56 -56 -33 -18 -42 -48 -19 -65 15 -10 14
-12 -9 -18 -18 -5 -25 -13 -25 -30 0 -18 -6 -25 -22 -28 -20 -3 -23 -9 -23
-45 0 -36 -6 -48 -37 -78 -21 -19 -38 -43 -38 -54 0 -10 -7 -24 -16 -31 -11
-10 -14 -23 -9 -51 4 -22 2 -40 -4 -44 -6 -3 -11 -17 -11 -30 0 -14 -9 -39
-20 -57 -16 -26 -20 -51 -20 -121 0 -49 -5 -98 -11 -110 -7 -12 -25 -37 -40
-55 -16 -18 -29 -43 -29 -55 0 -12 9 -33 20 -47 11 -14 20 -28 20 -32 0 -4 -9
-10 -20 -13 -22 -7 -26 -35 -8 -53 6 -6 12 -28 12 -49 1 -34 4 -38 31 -44 l30
-7 -31 -1 c-34 -1 -44 -15 -44 -61 0 -21 6 -31 23 -36 29 -9 68 -40 60 -48
-11 -11 -21 -6 -26 14 -6 24 -35 27 -44 5 -3 -9 2 -24 11 -34 9 -10 16 -22 16
-28 0 -6 6 -13 13 -16 9 -3 9 -10 -2 -31 -19 -35 -5 -78 29 -87 14 -4 19 -7
13 -8 -7 -1 -13 -13 -13 -27 0 -17 6 -28 18 -31 14 -3 18 -11 14 -28 -3 -17 2
-25 17 -30 14 -4 22 -18 26 -43 10 -57 12 -60 47 -67 45 -10 52 -15 35 -28
-21 -16 -4 -57 22 -57 11 0 25 -9 31 -20 6 -11 17 -20 26 -20 8 0 26 -7 39
-16 16 -10 34 -14 50 -10 22 6 25 3 25 -19 0 -17 5 -25 18 -25 10 0 23 5 29
11 6 6 25 9 44 7 31 -3 34 -6 44 -53 l10 -50 64 -9 c60 -9 65 -8 81 14 l17 23
6 -22 c4 -18 13 -21 55 -21 54 0 75 15 86 62 5 21 2 28 -15 33 -11 4 -37 8
-58 10 -20 1 -48 8 -60 15 -13 6 -38 10 -57 8 -27 -3 -34 0 -38 18 -4 13 -15
25 -25 29 -11 3 -36 19 -56 35 -22 17 -50 30 -66 30 -15 0 -32 6 -36 12 -9 15
-41 36 -65 44 -11 4 -18 16 -18 31 0 14 -12 38 -27 53 -16 16 -36 37 -45 47
-9 10 -24 24 -32 31 -9 7 -16 23 -16 36 0 13 -10 35 -21 50 -13 17 -27 57 -35
103 -7 41 -21 84 -30 94 -19 21 -29 99 -13 99 10 0 10 93 0 130 -5 19 -14 25
-34 25 -16 -1 -27 5 -27 12 0 7 11 13 25 13 39 0 43 28 9 56 -21 17 -24 23
-13 24 9 0 22 6 28 14 6 8 18 65 27 127 16 125 29 203 50 295 8 33 14 67 14
75 0 22 39 99 50 99 6 0 10 6 10 14 0 7 18 50 40 94 22 44 40 87 40 96 0 9 7
16 16 16 9 0 36 23 61 51 26 28 72 68 105 90 37 26 58 47 58 59 0 24 -24 25
-89 5z m-184 -1901 c-3 -3 -12 -4 -19 -1 -8 3 -5 6 6 6 11 1 17 -2 13 -5z"/>
<path d="M1473 2023 c-26 -18 -30 -48 -8 -57 8 -3 15 -17 15 -32 0 -14 16 -52
35 -83 60 -97 77 -154 83 -274 3 -73 1 -112 -7 -120 -6 -6 -11 -19 -11 -28 0
-9 -7 -22 -16 -29 -8 -8 -14 -25 -12 -39 2 -20 9 -27 31 -29 21 -3 37 6 67 35
24 25 42 55 50 83 6 25 18 70 27 100 13 48 16 52 24 32 5 -12 15 -25 24 -28
12 -5 10 -11 -11 -37 -17 -20 -24 -37 -20 -51 3 -12 6 -29 6 -38 0 -10 9 -22
21 -28 16 -9 26 -8 45 5 19 12 24 24 24 55 0 32 5 43 23 51 47 21 72 39 72 51
0 7 -15 20 -33 29 -27 14 -29 17 -14 21 19 5 32 45 32 99 0 22 -6 30 -25 35
-14 3 -32 4 -40 0 -8 -3 -15 -1 -15 4 0 6 9 10 21 10 17 0 20 5 17 31 -2 24
-12 36 -38 52 -25 14 -44 18 -63 13 -23 -5 -26 -10 -20 -36 4 -23 2 -30 -11
-30 -10 0 -16 -8 -16 -23 0 -29 -25 -65 -37 -53 -4 5 -2 11 5 13 17 6 15 38
-3 53 -11 9 -12 17 -5 30 6 10 10 28 10 39 0 15 6 19 28 18 21 -2 27 2 27 18
0 14 -6 20 -21 19 -18 0 -21 5 -20 34 1 19 -4 37 -10 39 -19 6 -44 -26 -44
-58 0 -39 -24 -38 -40 1 -7 17 -23 39 -36 49 -14 11 -24 29 -24 45 0 23 -4 26
-32 25 -18 0 -43 -7 -55 -16z"/>
<path d="M1843 2008 c-6 -7 -15 -26 -20 -43 -5 -16 -19 -34 -31 -40 -23 -10
-30 -39 -12 -50 15 -9 50 4 50 20 0 8 9 17 20 20 22 7 34 39 28 76 -4 27 -21
35 -35 17z"/>
<path d="M522 1610 c-18 -17 -43 -30 -57 -30 -21 0 -25 -5 -25 -29 0 -17 -4
-32 -9 -35 -5 -3 -26 -36 -49 -73 -27 -47 -48 -102 -67 -177 -27 -109 -27
-111 -16 -267 11 -152 26 -263 39 -284 4 -5 5 -20 3 -33 -1 -13 4 -34 13 -47
9 -13 18 -43 22 -67 3 -24 13 -53 20 -65 8 -12 14 -31 14 -42 0 -24 38 -91 51
-91 5 0 15 -11 21 -25 6 -14 22 -28 34 -31 15 -4 24 -15 26 -32 2 -21 9 -28
30 -30 14 -2 32 -10 38 -18 16 -18 34 -18 50 1 7 8 23 15 36 15 32 0 32 32 -1
58 -14 11 -25 27 -25 35 0 9 -27 47 -61 84 -61 68 -99 129 -99 157 0 9 -6 30
-14 48 -44 102 -87 304 -85 399 1 26 -1 52 -5 57 -3 6 -1 14 4 17 7 4 8 19 5
37 -4 17 -2 40 3 52 6 11 16 45 22 75 14 73 45 141 64 141 11 0 16 10 16 30 0
17 -5 30 -12 30 -7 0 -4 7 7 16 11 8 20 25 20 37 0 16 7 23 30 27 27 5 30 9
33 48 3 38 1 42 -20 42 -13 0 -38 -14 -56 -30z"/>
<path d="M1900 1456 c0 -15 -8 -30 -20 -36 -14 -8 -20 -21 -20 -45 0 -30 -5
-37 -35 -49 -19 -8 -35 -22 -35 -30 0 -8 -9 -20 -20 -26 -30 -16 -25 -50 9
-63 26 -9 27 -12 14 -22 -23 -17 -9 -47 19 -43 17 2 23 9 22 26 0 12 5 22 13
22 10 0 12 -8 7 -27 -9 -38 -13 -43 -31 -43 -13 0 -14 -8 -8 -47 4 -27 9 -51
12 -55 8 -14 32 -8 43 10 10 15 11 13 6 -8 -2 -14 -12 -45 -21 -69 -22 -60
-17 -113 13 -126 13 -6 22 -19 22 -31 0 -12 7 -27 15 -34 11 -9 14 -23 9 -45
-4 -21 -1 -37 8 -46 8 -8 17 -22 21 -31 4 -13 17 -18 45 -18 36 0 39 -2 34
-25 -5 -27 -22 -35 -22 -9 0 10 -7 14 -22 12 -34 -5 -35 -42 -3 -72 15 -14 31
-45 38 -73 10 -39 18 -51 46 -65 38 -19 57 -43 41 -53 -5 -3 -10 -16 -10 -27
0 -19 4 -20 44 -15 24 4 60 14 80 24 26 13 35 24 34 38 -2 13 -12 21 -28 23
-42 5 -71 24 -64 41 3 9 12 43 19 75 13 58 11 86 -6 86 -5 0 -5 10 0 23 13 36
3 47 -43 47 -35 0 -44 4 -58 28 -13 21 -14 31 -5 42 7 8 22 14 35 12 20 -3 23
0 20 24 -2 15 -11 31 -20 35 -10 5 -26 13 -35 18 -23 11 -29 41 -9 41 9 0 16
8 16 18 0 9 -12 49 -25 87 -14 39 -25 90 -25 115 0 64 -9 90 -31 90 -11 0 -19
-4 -19 -10 0 -5 -8 -2 -18 8 -18 16 -17 17 4 29 19 11 21 17 14 55 -5 24 -13
56 -19 71 -8 20 -8 33 1 46 7 12 8 33 2 67 -7 40 -13 50 -32 52 -18 3 -22 -1
-22 -22z m90 -569 c0 -8 -16 -19 -36 -25 l-36 -11 23 25 c25 26 49 32 49 11z"/>
<path d="M1497 1344 c-4 -4 -7 -18 -7 -31 0 -21 4 -24 28 -21 21 2 27 8 27 28
0 18 -6 26 -20 28 -12 2 -24 0 -28 -4z"/>
<path d="M1794 816 c-9 -24 3 -46 26 -46 17 0 21 5 18 27 -3 31 -34 44 -44 19z"/>
<path d="M2090 690 c0 -24 29 -38 40 -20 12 19 1 40 -21 40 -12 0 -19 -7 -19
-20z"/>
<path d="M1676 678 c-9 -12 -16 -28 -16 -35 0 -7 -9 -17 -20 -23 -11 -6 -20
-17 -20 -25 0 -8 -5 -15 -11 -15 -6 0 -42 -31 -80 -69 -44 -44 -71 -79 -75
-99 -4 -22 -13 -32 -32 -37 -14 -3 -80 -51 -147 -105 -67 -54 -133 -101 -146
-105 -13 -4 -28 -14 -34 -21 -5 -7 -30 -16 -55 -21 -40 -8 -45 -12 -48 -38 -5
-40 19 -55 89 -55 43 0 58 4 63 16 10 25 7 34 -10 34 -12 0 -11 5 7 19 19 16
25 17 27 5 2 -8 16 -14 33 -14 22 0 34 8 49 32 10 17 33 37 49 44 17 7 36 24
42 38 7 14 28 31 48 39 34 14 81 64 81 87 0 5 7 10 15 10 9 0 18 7 22 15 3 9
18 22 32 30 18 9 32 28 40 54 8 29 17 41 31 41 22 0 70 44 70 65 0 8 -5 17
-10 20 -15 9 6 42 31 50 16 5 20 14 17 43 -2 19 -8 37 -15 39 -6 2 -18 -6 -27
-19z"/>
<path d="M2264 326 c-9 -23 4 -36 37 -36 26 0 30 3 27 23 -2 16 -11 23 -31 25
-17 2 -29 -2 -33 -12z"/>
<path d="M2154 246 c-8 -14 -14 -35 -12 -48 2 -18 10 -24 35 -26 26 -3 32 1
35 20 2 13 1 35 -1 51 -4 35 -34 36 -57 3z"/>
<path d="M2274 246 c-8 -21 3 -36 27 -36 15 0 20 6 17 22 -4 27 -35 37 -44 14z"/>
<path d="M2227 174 c-4 -4 -7 -16 -7 -26 0 -14 6 -19 23 -16 14 2 22 10 22 23
0 20 -25 32 -38 19z"/>
<path d="M2275 121 c-8 -27 1 -41 26 -41 16 0 20 6 17 27 -4 34 -33 43 -43 14z"/>
</g>
</svg>
