<?xml version="1.0" standalone="no"?>
<!DOCTYPE svg PUBLIC "-//W3C//DTD SVG 20010904//EN"
 "http://www.w3.org/TR/2001/REC-SVG-20010904/DTD/svg10.dtd">
<svg version="1.0" xmlns="http://www.w3.org/2000/svg"
 width="213.000000pt" height="627.000000pt" viewBox="0 0 213.000000 627.000000"
 preserveAspectRatio="xMidYMid meet">
<metadata>
Created by potrace 1.16, written by Peter Selinger 2001-2019
</metadata>
<g transform="translate(0.000000,627.000000) scale(0.100000,-0.100000)"
fill="#000000" stroke="none">
<path d="M1738 3555 c-7 -9 -28 -32 -45 -51 -18 -19 -33 -41 -33 -48 0 -8 -11
-34 -25 -57 -14 -24 -25 -51 -25 -60 0 -9 -16 -42 -35 -74 -19 -32 -48 -94
-65 -139 -17 -44 -49 -104 -71 -133 -22 -29 -44 -65 -50 -80 l-10 -27 -26 37
c-22 32 -32 37 -65 37 -21 0 -38 -5 -38 -10 0 -13 -36 4 -67 32 -16 15 -29 18
-53 13 -17 -4 -34 -14 -37 -23 -6 -16 -38 -52 -46 -52 -3 0 -7 9 -10 20 -3 13
-20 23 -50 32 -28 7 -47 19 -50 29 -5 18 -59 35 -77 24 -5 -3 -10 -16 -10 -27
0 -20 -1 -20 -18 -5 -29 26 -61 20 -96 -16 -17 -18 -43 -38 -58 -44 -18 -8
-28 -21 -30 -40 -3 -23 -9 -29 -40 -34 -20 -3 -44 -12 -54 -20 -9 -7 -26 -13
-38 -14 -17 0 -21 -6 -21 -32 0 -25 -4 -33 -18 -33 -43 0 -131 -64 -148 -108
-9 -23 -14 -26 -60 -36 -17 -4 -29 -14 -33 -30 -4 -15 -14 -26 -29 -28 -20 -3
-22 -8 -19 -51 3 -60 -21 -105 -57 -109 -19 -2 -27 -10 -29 -27 -3 -15 3 -30
14 -38 23 -17 10 -17 -17 0 -18 10 -23 9 -40 -12 -10 -13 -19 -31 -19 -41 0
-9 -9 -25 -20 -35 -11 -10 -20 -29 -20 -43 0 -21 4 -24 30 -20 l30 5 0 -79 c0
-52 -5 -86 -14 -101 -8 -12 -20 -43 -26 -70 -8 -37 -7 -62 6 -117 8 -38 23
-79 33 -92 9 -13 23 -38 31 -56 7 -18 20 -38 30 -45 9 -7 19 -20 23 -29 3 -10
13 -18 22 -18 8 0 15 -4 15 -10 0 -5 20 -10 45 -10 36 0 45 -3 45 -17 1 -25
19 -47 60 -72 42 -25 67 -27 91 -5 10 9 34 22 55 29 30 10 41 10 64 -2 15 -7
30 -22 33 -34 5 -17 12 -19 58 -17 49 3 54 1 66 -24 11 -22 11 -31 1 -50 -7
-12 -20 -28 -28 -35 -13 -11 -13 -15 1 -41 15 -27 15 -30 -1 -40 -27 -16 -116
-191 -122 -239 -3 -23 -22 -68 -41 -100 -20 -32 -39 -71 -43 -86 -3 -16 -17
-35 -30 -44 -13 -8 -24 -21 -24 -28 0 -7 -20 -39 -44 -72 -70 -94 -91 -145
-63 -156 8 -4 6 -6 -4 -6 -23 -1 -48 -33 -60 -75 -7 -24 -18 -40 -33 -46 -26
-9 -59 -51 -70 -87 -4 -12 -22 -44 -40 -71 -19 -26 -43 -67 -55 -91 l-22 -42
30 -34 c16 -19 32 -43 36 -54 5 -16 15 -21 38 -21 25 0 39 9 63 38 17 20 41
55 53 77 11 22 31 52 43 67 18 23 19 30 8 43 -10 12 -10 15 0 15 7 0 10 8 7
20 -4 15 2 24 24 35 34 18 63 59 56 79 -4 10 3 17 23 21 22 5 30 13 34 36 3
16 9 43 12 60 4 21 14 33 32 40 30 12 73 52 91 87 7 12 9 32 6 42 -4 12 -2 20
4 20 17 0 51 61 51 91 0 14 7 34 15 45 8 10 15 29 15 40 0 12 7 27 15 34 8 7
15 19 15 27 0 9 27 73 60 142 33 70 60 136 60 148 0 11 7 26 16 34 11 9 15 25
12 51 -2 21 0 38 4 38 18 0 38 35 38 65 0 19 5 37 11 41 17 10 49 86 49 117 0
15 3 27 7 27 4 0 27 -10 52 -22 39 -19 46 -20 54 -6 9 13 16 12 54 -10 24 -13
50 -33 56 -43 13 -20 61 -26 72 -9 3 6 24 10 45 10 43 0 58 13 40 35 -10 12
-9 15 9 15 14 0 25 -9 31 -25 11 -28 35 -33 48 -9 7 13 12 13 41 -3 30 -17 33
-17 45 0 8 11 27 17 50 17 20 0 36 5 36 11 0 8 15 10 49 5 37 -5 51 -3 61 9 7
8 28 15 46 15 19 0 34 4 34 8 0 17 117 55 126 41 10 -16 53 -9 63 10 6 10 26
28 44 39 19 11 47 36 62 56 21 28 30 53 36 109 4 39 12 113 18 162 6 50 11
147 11 218 0 127 0 128 -25 137 -14 5 -28 16 -31 24 -3 8 0 33 6 56 6 23 8 54
5 70 -5 21 -13 29 -38 34 l-31 6 22 16 c12 8 22 22 22 30 0 8 -11 26 -25 39
-27 28 -75 34 -75 9 0 -8 -5 -25 -12 -37 -11 -21 -12 -21 -23 13 -8 22 -9 37
-2 41 17 11 -3 47 -38 68 -19 11 -35 25 -35 31 0 16 -50 12 -57 -6 -4 -10 -16
-14 -36 -12 -26 2 -32 -1 -38 -22 -5 -21 -7 -22 -14 -8 -4 9 -22 22 -40 28
-25 8 -44 8 -72 0 -21 -7 -54 -10 -73 -8 -47 4 -49 27 -5 108 19 36 51 99 71
140 20 41 69 143 109 225 90 183 117 262 113 324 -3 41 -6 46 -30 49 -15 2
-32 -4 -40 -13z m-665 -681 c11 -4 28 -16 37 -27 22 -27 46 -17 64 26 l14 35
51 -11 c28 -5 51 -15 51 -22 0 -6 9 -20 20 -30 11 -10 20 -28 20 -40 0 -11
-11 -37 -25 -55 -19 -25 -25 -45 -23 -74 2 -31 -3 -42 -20 -54 -16 -11 -22
-24 -22 -54 0 -25 -5 -41 -15 -44 -8 -4 -15 -12 -15 -20 0 -7 -9 -18 -20 -24
-11 -6 -20 -18 -20 -26 0 -9 -7 -22 -15 -30 -8 -9 -15 -26 -15 -38 0 -13 -7
-29 -15 -36 -8 -7 -22 -36 -30 -65 -9 -29 -25 -61 -35 -70 -11 -10 -20 -25
-20 -33 0 -8 -9 -29 -20 -47 -11 -17 -31 -62 -45 -99 -14 -37 -32 -78 -41 -91
-9 -13 -22 -43 -29 -67 -8 -24 -25 -69 -38 -101 -19 -46 -33 -64 -71 -88 -26
-16 -71 -34 -99 -40 -63 -14 -87 -25 -87 -43 0 -8 -7 -16 -15 -20 -10 -4 -15
1 -15 15 0 11 -6 21 -12 23 -44 11 -192 63 -238 84 -42 18 -65 38 -95 79 -22
30 -46 69 -53 87 -7 17 -16 60 -19 94 -4 40 -11 66 -20 69 -19 8 -16 23 6 23
21 0 31 19 31 55 0 13 5 27 10 30 6 3 10 14 10 24 0 10 14 44 31 76 17 32 29
65 26 75 -2 9 4 22 14 28 25 16 125 142 133 169 4 12 20 26 36 32 23 7 30 16
30 35 0 23 4 26 34 26 25 0 43 8 64 30 17 16 33 43 37 60 7 32 50 60 92 60 18
0 28 8 36 30 6 17 19 30 28 30 9 0 37 9 62 20 25 11 82 25 127 32 58 8 84 16
88 27 6 14 7 14 10 -1 2 -9 13 -20 25 -24z m408 -228 c-5 -12 -18 -22 -30 -24
-20 -3 -21 -1 -12 17 6 11 11 29 11 40 0 20 1 20 19 4 14 -11 17 -22 12 -37z
m231 -56 c108 -18 143 -36 177 -88 42 -66 87 -241 98 -382 5 -63 5 -120 1
-126 -5 -7 -13 -36 -18 -66 -6 -42 -17 -64 -46 -96 -29 -33 -44 -42 -70 -42
-27 0 -37 -6 -48 -29 -14 -26 -21 -29 -78 -33 -39 -2 -82 -13 -113 -28 -47
-23 -58 -24 -208 -21 -136 2 -162 0 -177 -14 -12 -11 -26 -14 -39 -10 -14 4
-23 1 -27 -9 -5 -12 -8 -12 -23 3 -10 10 -35 21 -55 25 -28 5 -45 3 -63 -10
l-26 -16 7 28 c4 16 30 81 57 146 27 64 49 120 49 126 0 5 7 15 15 22 8 7 15
25 15 41 0 15 6 32 14 36 8 4 40 67 71 138 31 72 68 141 81 155 19 19 24 21
24 8 0 -20 26 -48 46 -48 10 0 14 12 14 40 0 32 4 40 18 40 27 0 56 35 49 60
-3 11 -1 20 3 20 4 0 17 15 28 33 21 36 129 117 149 111 6 -1 40 -8 75 -14z
m-365 -192 c-3 -8 -6 -5 -6 6 -1 11 2 17 5 13 3 -3 4 -12 1 -19z m-767 -838
c0 -5 -7 -10 -16 -10 -8 0 -12 5 -9 10 3 6 10 10 16 10 5 0 9 -4 9 -10z"/>
<path d="M1232 2818 c-17 -21 2 -40 34 -36 21 2 29 8 29 23 0 14 -8 21 -26 23
-14 2 -31 -3 -37 -10z"/>
<path d="M951 3046 c-16 -19 -6 -36 20 -36 15 0 20 6 17 22 -4 27 -21 33 -37
14z"/>
</g>
</svg>
