<?xml version="1.0" standalone="no"?>
<!DOCTYPE svg PUBLIC "-//W3C//DTD SVG 20010904//EN"
 "http://www.w3.org/TR/2001/REC-SVG-20010904/DTD/svg10.dtd">
<svg version="1.0" xmlns="http://www.w3.org/2000/svg"
 width="365.000000pt" height="764.000000pt" viewBox="0 0 365.000000 764.000000"
 preserveAspectRatio="xMidYMid meet">
<metadata>
Created by potrace 1.16, written by Peter Selinger 2001-2019
</metadata>
<g transform="translate(0.000000,764.000000) scale(0.100000,-0.100000)"
fill="#000000" stroke="none">
<path d="M3416 4340 c-44 -9 -82 -22 -84 -29 -6 -19 20 -102 34 -108 18 -7
-19 -42 -43 -40 -11 1 -19 -6 -21 -19 -3 -19 2 -21 68 -22 64 -1 70 0 70 19 0
13 11 25 33 34 27 11 33 11 40 -1 12 -21 47 -18 47 4 0 10 -5 23 -11 29 -6 6
-9 23 -5 36 5 21 14 25 56 31 44 6 50 9 50 31 0 16 -9 28 -32 39 -38 20 -98
18 -202 -4z"/>
<path d="M3239 4325 c-3 -2 -81 -11 -174 -20 -101 -9 -177 -21 -190 -29 -18
-12 -25 -12 -47 0 -15 8 -33 11 -42 8 -30 -11 -26 -74 4 -74 17 0 17 -2 4 -30
-9 -18 -23 -30 -35 -30 -15 0 -19 -7 -19 -32 0 -18 4 -39 9 -46 4 -7 34 -16
65 -19 52 -5 58 -4 63 16 6 25 35 28 53 6 7 -9 23 -15 34 -13 16 2 21 10 21
31 -1 24 3 27 32 27 18 0 32 -3 32 -7 -4 -23 3 -33 21 -33 14 0 20 7 20 21 0
19 4 20 64 14 l64 -7 26 41 c15 24 34 41 45 41 16 0 18 8 17 60 -1 42 -6 64
-16 70 -16 10 -44 13 -51 5z"/>
<path d="M2595 4280 c-3 -5 -19 -10 -34 -10 -16 0 -34 -6 -40 -14 -6 -8 -27
-16 -46 -18 -26 -3 -35 0 -38 14 -4 13 -15 18 -44 18 -21 -1 -49 -7 -63 -15
-14 -8 -44 -14 -67 -15 -37 0 -43 -3 -49 -25 -6 -24 -11 -27 -68 -40 -16 -3
-41 -19 -57 -35 -24 -23 -29 -38 -31 -87 l-3 -58 42 -3 c33 -2 44 1 56 18 9
13 17 17 22 11 10 -17 43 -13 54 7 15 29 95 55 148 49 25 -3 49 -10 53 -17 5
-8 20 -11 39 -8 17 2 31 1 31 -4 0 -12 115 -10 144 3 14 7 30 25 35 41 6 16
19 41 31 55 25 32 26 85 3 105 -19 16 -76 38 -99 38 -7 0 -16 -4 -19 -10z"/>
<path d="M1895 4183 c-27 -8 -64 -26 -82 -39 -17 -13 -36 -24 -42 -24 -6 0
-16 -9 -23 -19 -9 -15 -15 -17 -29 -8 -24 15 -69 -6 -69 -32 0 -22 -25 -45
-40 -36 -24 15 -75 -10 -127 -61 -37 -36 -63 -54 -80 -54 -14 0 -36 -9 -50
-20 -14 -11 -37 -20 -51 -20 -31 0 -75 -46 -69 -71 4 -13 -2 -19 -23 -24 -16
-3 -34 -13 -41 -21 -6 -8 -17 -14 -24 -14 -16 0 -25 -22 -19 -47 6 -23 -26
-57 -33 -35 -7 19 -42 14 -75 -10 -55 -42 -109 -103 -115 -131 -3 -16 -14 -34
-24 -40 -11 -7 -19 -16 -19 -20 0 -5 -13 -22 -30 -37 -24 -23 -30 -36 -30 -70
0 -65 21 -174 37 -186 7 -6 11 -18 7 -27 -4 -11 7 -24 35 -43 32 -20 40 -31
36 -48 -3 -11 1 -32 9 -46 9 -14 20 -36 26 -50 15 -35 75 -95 226 -227 45 -40
91 -73 102 -73 13 0 21 -9 25 -28 4 -18 23 -42 53 -65 50 -39 145 -176 208
-299 20 -40 45 -104 55 -143 11 -38 22 -80 26 -92 10 -31 -15 -30 -42 1 -26
29 -104 48 -200 47 -38 -1 -103 2 -146 5 -57 5 -82 3 -93 -7 -9 -7 -33 -14
-54 -15 -52 -3 -140 -33 -147 -50 -3 -8 -14 -11 -32 -8 -19 4 -32 0 -45 -15
-10 -11 -34 -23 -52 -27 -18 -3 -40 -15 -50 -25 -9 -10 -23 -19 -31 -19 -7 0
-13 -4 -13 -9 0 -5 -9 -13 -20 -16 -15 -5 -20 -15 -20 -41 0 -31 2 -34 30 -34
17 0 30 4 30 9 0 5 19 16 42 23 31 11 44 21 48 38 4 18 16 27 44 33 20 5 40
16 43 23 3 9 13 12 30 8 19 -5 25 -2 30 16 l6 23 18 -24 c18 -24 18 -24 47 -6
17 9 50 17 76 17 33 0 51 5 62 19 13 15 23 17 48 11 59 -16 134 -22 140 -12 4
7 16 7 34 1 15 -5 61 -20 102 -33 98 -30 113 -50 114 -148 1 -112 -11 -220
-28 -253 -9 -16 -16 -35 -16 -41 0 -6 -11 -21 -25 -34 -30 -28 -32 -65 -6 -80
16 -8 28 -4 63 23 28 22 47 46 56 72 7 21 16 82 19 135 7 94 7 94 14 40 13
-97 29 -346 29 -447 l1 -98 39 -18 c22 -10 50 -17 62 -15 30 4 37 38 9 45 -15
4 -21 13 -21 33 0 15 -7 41 -15 56 -8 16 -15 34 -15 39 0 6 7 23 15 39 14 26
14 54 5 219 -11 173 -14 195 -37 239 -21 39 -25 62 -24 116 1 52 -4 74 -19 97
-13 20 -20 47 -20 83 0 28 -3 52 -8 52 -13 0 -31 53 -42 124 -14 87 -33 132
-59 141 -14 4 -21 15 -21 31 0 17 -5 24 -20 24 -11 0 -20 6 -20 13 0 7 -18 38
-40 67 -22 29 -40 59 -40 66 0 21 -32 46 -51 41 -15 -4 -19 1 -19 23 0 21 -6
29 -24 34 -15 4 -26 17 -32 38 -8 27 -15 34 -39 36 -54 5 -75 12 -75 27 0 8
-9 19 -20 25 -13 7 -20 21 -20 40 0 19 -5 30 -14 30 -7 0 -19 7 -26 15 -7 9
-19 14 -27 11 -8 -3 -13 2 -13 14 0 11 -9 24 -19 30 -11 5 -25 26 -31 45 -6
19 -16 35 -21 35 -5 0 -9 7 -9 15 0 9 -8 19 -17 22 -28 10 -63 52 -63 75 0 12
-8 31 -18 42 -10 12 -24 49 -30 83 -11 52 -10 67 4 102 11 27 38 58 87 99 125
102 266 202 287 202 11 0 27 11 36 25 10 15 26 25 40 25 12 0 26 5 29 10 4 6
24 18 46 27 21 8 39 18 39 22 0 8 71 41 88 41 16 0 135 52 153 67 8 7 24 13
33 13 10 0 31 10 48 21 16 12 55 30 86 39 30 9 67 28 80 41 15 15 34 23 48 21
29 -4 31 12 9 65 -8 19 -15 48 -15 63 0 64 -21 72 -115 43z"/>
<path d="M1034 3736 c-9 -24 4 -48 23 -44 12 2 18 12 18 28 0 29 -32 41 -41
16z"/>
<path d="M645 1829 c-6 -27 -9 -29 -17 -16 -5 9 -17 17 -28 17 -12 0 -22 -11
-30 -34 -6 -19 -20 -44 -31 -57 -11 -12 -18 -27 -16 -33 2 -6 22 -12 45 -14
33 -2 42 0 42 13 0 8 7 18 15 21 9 4 15 19 16 38 0 17 3 25 6 19 2 -7 14 -13
24 -13 17 0 20 6 17 42 -2 30 -8 44 -20 46 -11 2 -18 -7 -23 -29z"/>
<path d="M338 1665 c-24 -30 -48 -69 -54 -87 -6 -19 -24 -42 -42 -53 -18 -11
-35 -30 -38 -42 -3 -12 -15 -25 -25 -28 -10 -4 -19 -13 -19 -21 0 -9 -23 -38
-52 -66 -37 -36 -55 -63 -64 -97 -7 -25 -21 -68 -30 -95 -17 -48 -17 -50 2
-65 16 -13 19 -25 16 -61 -2 -25 -11 -53 -19 -62 -13 -15 -15 -38 -10 -130 3
-62 12 -135 20 -163 24 -80 97 -249 113 -261 8 -6 22 -33 30 -59 13 -37 24
-50 50 -61 18 -7 35 -23 39 -34 3 -11 10 -20 15 -20 5 0 11 -8 15 -18 6 -21
76 -68 142 -97 24 -10 49 -28 57 -40 19 -29 93 -57 137 -53 33 3 34 4 37 51 2
30 -1 47 -8 47 -7 0 -23 9 -37 20 -14 11 -36 20 -49 20 -13 0 -27 6 -31 13 -4
7 -28 25 -52 41 -25 16 -75 56 -112 90 -37 33 -81 71 -97 84 -29 21 -72 94
-72 121 0 7 -9 30 -19 50 -11 20 -35 72 -55 116 -29 66 -33 81 -20 88 16 9 19
44 3 49 -6 2 -14 50 -18 113 -5 61 -12 118 -16 127 -6 16 -3 17 24 12 l31 -6
0 45 c0 30 9 64 27 99 15 29 31 55 35 56 5 2 8 12 8 22 0 11 9 24 20 30 11 6
20 17 20 24 0 8 7 16 15 20 8 3 15 12 15 19 0 8 11 19 25 25 20 9 25 19 25 50
0 22 7 53 16 70 8 18 17 32 18 32 2 0 1 -12 -2 -26 -4 -23 -2 -25 24 -22 23 2
30 9 32 31 2 15 -1 27 -7 27 -6 0 -11 5 -11 10 0 6 14 10 30 10 28 0 30 2 30
39 0 57 -8 71 -41 71 -23 0 -37 -11 -71 -55z"/>
<path d="M1300 1530 c0 -17 5 -40 11 -51 8 -16 14 -50 18 -101 2 -15 39 -8 45
8 12 31 6 100 -13 134 -10 20 -27 36 -40 38 -18 3 -21 -2 -21 -28z"/>
<path d="M1305 1330 c-3 -5 -3 -25 1 -44 4 -23 13 -38 26 -42 15 -4 17 -8 8
-14 -9 -6 -11 -20 -6 -46 4 -22 8 -52 9 -69 2 -25 7 -31 30 -33 23 -3 27 0 27
23 0 14 -7 28 -15 31 -12 5 -12 10 3 32 20 31 22 133 2 157 -14 17 -75 21 -85
5z"/>
<path d="M1805 1066 c-17 -12 -18 -17 -7 -41 9 -20 10 -31 2 -39 -17 -17 -11
-48 10 -53 18 -5 17 -8 -11 -34 -30 -28 -31 -32 -25 -82 9 -66 46 -98 74 -64
13 16 29 113 38 235 l7 92 -35 0 c-19 0 -43 -6 -53 -14z"/>
<path d="M1354 935 c-5 -13 -3 -43 10 -125 3 -14 5 -28 5 -32 1 -5 10 -8 21
-8 11 0 20 7 20 15 0 9 6 18 14 21 10 4 14 22 14 60 -1 44 -5 58 -22 69 -26
19 -55 19 -62 0z"/>
<path d="M1703 813 c-17 -36 -16 -60 2 -67 23 -8 45 4 51 29 9 36 1 60 -21 63
-14 2 -24 -6 -32 -25z"/>
<path d="M1633 714 c-7 -3 -13 -12 -13 -19 0 -7 -28 -45 -62 -83 -81 -89 -98
-110 -98 -122 0 -5 -14 -17 -31 -26 -26 -13 -33 -14 -40 -2 -5 7 -9 19 -9 26
0 7 -7 26 -15 42 -10 19 -23 30 -36 30 -19 0 -20 -4 -14 -55 5 -40 3 -61 -7
-77 -8 -13 -19 -41 -26 -63 -16 -55 -80 -114 -182 -168 -114 -60 -177 -78
-250 -70 -34 3 -79 0 -110 -7 -38 -9 -54 -19 -62 -36 -25 -55 36 -103 91 -72
22 13 31 13 56 2 17 -7 53 -13 81 -14 48 0 51 1 69 38 l18 37 9 -28 c10 -28
11 -28 67 -21 31 3 62 11 69 17 9 7 12 22 8 39 -6 31 -3 32 83 42 24 2 47 9
50 14 3 5 15 12 26 16 11 3 25 16 30 28 6 15 20 24 38 26 19 2 31 11 37 28 5
13 16 24 24 24 22 0 86 67 86 89 0 11 20 37 45 59 27 23 45 48 45 61 0 11 -4
21 -10 21 -5 0 -10 7 -10 15 0 9 19 20 48 28 42 12 47 17 50 45 2 24 8 32 22
32 22 0 33 31 28 76 -3 27 -6 29 -48 31 -25 1 -51 0 -57 -3z m-203 -390 c0 -8
-5 -12 -10 -9 -6 4 -8 11 -5 16 9 14 15 11 15 -7z"/>
<path d="M1342 688 c2 -15 10 -23 23 -23 30 0 27 39 -3 43 -20 3 -23 0 -20
-20z"/>
<path d="M1326 615 c-9 -25 4 -45 30 -45 19 0 24 5 24 24 0 21 -16 36 -40 36
-4 0 -10 -7 -14 -15z"/>
</g>
</svg>
