<?xml version="1.0" standalone="no"?>
<!DOCTYPE svg PUBLIC "-//W3C//DTD SVG 20010904//EN"
 "http://www.w3.org/TR/2001/REC-SVG-20010904/DTD/svg10.dtd">
<svg version="1.0" xmlns="http://www.w3.org/2000/svg"
 width="282.000000pt" height="627.000000pt" viewBox="0 0 282.000000 627.000000"
 preserveAspectRatio="xMidYMid meet">
<metadata>
Created by potrace 1.16, written by Peter Selinger 2001-2019
</metadata>
<g transform="translate(0.000000,627.000000) scale(0.100000,-0.100000)"
fill="#000000" stroke="none">
<path d="M644 4937 c-22 -23 -33 -48 -38 -81 -6 -37 -12 -49 -32 -56 -22 -9
-24 -15 -24 -69 0 -54 -2 -60 -22 -63 -21 -3 -23 -8 -24 -70 0 -57 -4 -71 -25
-92 -58 -59 -58 -59 -56 -128 0 -42 -4 -72 -12 -82 -10 -12 -11 -19 -2 -30 9
-10 7 -25 -9 -61 -11 -25 -20 -53 -20 -62 0 -29 -33 -84 -59 -98 -29 -15 -81
-100 -81 -134 0 -12 -11 -26 -29 -35 -18 -10 -36 -33 -50 -66 -12 -28 -21 -61
-20 -73 2 -12 -4 -33 -13 -47 -10 -14 -17 -34 -17 -45 -1 -44 -20 -134 -34
-156 -8 -13 -17 -49 -21 -79 -3 -30 -17 -89 -30 -130 -23 -70 -23 -76 -8 -93
15 -17 15 -19 -1 -28 -14 -8 -17 -25 -17 -94 0 -52 4 -85 10 -85 7 0 7 -8 -1
-22 -17 -31 -5 -343 16 -428 9 -36 27 -81 40 -100 13 -19 27 -57 30 -83 7 -46
25 -77 46 -77 5 0 9 -6 9 -13 0 -8 12 -19 26 -25 14 -7 22 -17 19 -23 -14 -21
6 -56 50 -87 25 -18 52 -32 59 -32 8 0 16 -7 20 -15 7 -18 47 -20 64 -3 9 9
12 6 12 -14 0 -15 7 -33 15 -41 8 -8 46 -21 84 -28 54 -9 76 -18 97 -41 32
-32 64 -37 71 -9 4 17 9 18 36 9 18 -6 39 -17 48 -25 9 -7 24 -11 33 -7 10 4
22 0 30 -11 17 -23 50 -15 54 13 4 23 16 29 27 12 3 -5 31 -10 62 -10 l55 0
-4 30 c-3 17 -2 30 0 30 3 0 11 -8 18 -17 7 -10 10 -30 7 -45 -5 -25 -3 -28
21 -28 14 0 26 5 26 10 0 17 57 12 64 -6 4 -11 18 -14 53 -12 46 3 48 4 51 36
3 27 11 37 55 62 29 16 59 30 68 30 8 0 38 11 66 25 34 17 55 35 63 55 10 23
19 30 40 30 29 0 60 27 60 52 0 9 9 18 21 21 17 5 20 11 14 35 -5 25 -3 31 14
37 11 3 26 18 33 32 18 37 38 41 38 9 0 -22 4 -26 30 -26 17 0 30 -5 30 -11 0
-6 12 -9 27 -7 24 3 29 9 34 42 8 50 39 76 90 76 39 0 39 0 39 38 0 37 1 38
30 34 22 -3 32 0 36 13 4 10 2 26 -4 36 -10 16 -7 19 26 24 59 10 65 14 59 36
-4 16 1 23 24 31 37 13 35 41 -4 48 l-27 5 33 21 c17 12 42 25 53 28 21 6 21
5 12 -41 -6 -26 -14 -52 -19 -57 -12 -13 -11 -83 1 -106 7 -13 6 -19 -6 -24
-16 -6 -16 -29 1 -113 6 -26 3 -34 -19 -48 -14 -10 -26 -25 -26 -35 0 -9 -11
-30 -25 -46 -13 -15 -30 -41 -36 -57 -9 -22 -9 -33 1 -53 11 -19 11 -27 2 -36
-7 -7 -12 -32 -12 -57 -1 -61 -35 -258 -48 -274 -16 -19 -52 -119 -52 -144 0
-12 -5 -25 -11 -29 -8 -4 -10 -29 -6 -70 2 -35 1 -64 -3 -64 -4 0 -8 -32 -9
-72 -1 -46 -6 -77 -15 -87 -17 -18 -39 -163 -35 -227 2 -24 -3 -49 -10 -58 -7
-9 -11 -26 -8 -38 3 -12 -3 -46 -13 -76 -13 -37 -16 -59 -10 -67 5 -7 6 -15 2
-19 -4 -4 -10 -76 -13 -159 -4 -84 -12 -248 -18 -366 -11 -196 -10 -215 5
-232 10 -11 23 -19 31 -19 7 0 13 -4 13 -10 0 -15 54 -12 86 5 16 8 37 15 46
15 29 0 41 40 41 130 0 64 4 88 15 96 10 8 12 16 5 28 -5 9 -6 45 -2 84 5 37
8 95 8 128 1 34 8 78 16 97 9 21 15 67 15 111 0 41 4 85 9 98 5 13 10 57 12
98 4 71 3 75 -18 78 -21 3 -21 3 -3 35 27 47 48 166 54 307 6 122 19 203 38
246 5 12 8 30 7 40 -2 10 4 30 13 43 12 17 14 29 8 42 -14 26 -12 71 5 93 8
11 15 41 15 67 0 26 4 50 9 53 5 4 12 25 16 49 4 23 12 48 17 55 6 7 13 44 16
82 4 59 8 72 28 85 24 16 44 69 44 120 0 17 11 51 23 76 13 25 29 81 36 125 7
43 16 95 21 114 4 19 15 76 25 125 9 50 32 124 50 165 19 42 37 96 40 120 9
57 34 139 51 165 8 11 14 28 14 37 0 10 15 67 34 126 42 135 69 238 70 277 1
17 7 35 15 41 19 15 6 47 -16 42 -11 -2 -18 -12 -17 -24 0 -14 -6 -20 -20 -20
-17 1 -23 -9 -31 -49 l-11 -50 -17 25 c-15 24 -15 28 1 63 11 23 26 39 42 43
14 4 31 11 38 17 14 11 16 47 2 47 -17 0 -11 49 9 69 20 20 47 142 36 161 -4
7 5 24 20 40 21 22 26 35 21 54 -3 14 -2 28 4 31 5 3 10 25 10 49 0 30 -6 48
-20 61 -11 10 -28 15 -40 12 -13 -3 -24 1 -30 14 -6 10 -18 19 -28 19 -13 0
-12 3 6 16 16 11 22 24 20 42 -4 31 -36 43 -50 18 -5 -9 -22 -16 -37 -16 -22
0 -30 -6 -34 -22 -12 -48 -27 -185 -26 -233 1 -27 -6 -77 -14 -110 -67 -268
-108 -418 -121 -444 -9 -16 -16 -37 -16 -45 0 -8 -7 -37 -16 -63 -9 -26 -20
-75 -25 -108 -14 -110 -41 -199 -84 -285 -7 -14 -15 -42 -19 -62 -5 -29 -12
-38 -26 -38 -12 0 -30 -15 -44 -39 -32 -50 -126 -144 -249 -249 -53 -46 -97
-90 -97 -98 0 -7 -18 -23 -40 -34 -26 -13 -40 -27 -40 -40 0 -15 -7 -20 -26
-20 -23 0 -25 -3 -22 -37 2 -22 -2 -38 -10 -41 -7 -2 -12 5 -12 18 0 32 -41
22 -59 -15 -14 -29 -14 -29 -22 -6 -7 17 -14 21 -31 16 -30 -9 -92 -49 -149
-97 -26 -21 -62 -41 -80 -45 -19 -3 -38 -12 -44 -18 -5 -7 -26 -15 -45 -18
-62 -9 -90 -25 -101 -57 -10 -29 -36 -40 -53 -22 -4 4 -107 7 -229 7 -213 0
-226 1 -322 28 -55 16 -117 40 -138 55 -21 14 -59 48 -83 76 -108 119 -148
216 -163 395 -6 58 -13 136 -17 172 -4 46 -2 85 9 130 9 35 19 96 22 134 4 39
13 114 21 167 8 54 14 117 14 141 0 23 9 59 20 80 11 21 27 65 35 98 7 34 21
69 29 78 9 10 16 24 16 32 0 8 13 37 29 66 16 28 32 68 35 87 4 20 11 36 16
36 6 0 10 9 10 19 0 11 6 32 14 48 8 15 33 87 56 158 24 72 65 188 92 258 27
71 64 187 83 258 19 71 41 142 49 157 7 15 17 45 20 67 5 31 2 48 -14 73 -26
42 -56 41 -96 -1z m1946 -1482 c-7 -8 -17 -12 -23 -8 -6 4 -3 9 9 14 27 11 28
11 14 -6z m-55 -85 c-15 -17 -16 -22 -4 -36 12 -15 12 -17 -1 -12 -21 7 -24
33 -5 52 23 23 32 20 10 -4z"/>
<path d="M1627 1174 c-11 -11 -8 -52 4 -60 6 -3 18 1 27 10 13 12 14 21 6 33
-12 20 -27 26 -37 17z"/>
</g>
</svg>
