<?xml version="1.0" standalone="no"?>
<!DOCTYPE svg PUBLIC "-//W3C//DTD SVG 20010904//EN"
 "http://www.w3.org/TR/2001/REC-SVG-20010904/DTD/svg10.dtd">
<svg version="1.0" xmlns="http://www.w3.org/2000/svg"
 width="241.000000pt" height="627.000000pt" viewBox="0 0 241.000000 627.000000"
 preserveAspectRatio="xMidYMid meet">
<metadata>
Created by potrace 1.16, written by Peter Selinger 2001-2019
</metadata>
<g transform="translate(0.000000,627.000000) scale(0.100000,-0.100000)"
fill="#000000" stroke="none">
<path d="M1243 4550 c-20 -12 -33 -28 -33 -40 0 -16 7 -20 33 -20 l32 -1 -27
-15 c-16 -8 -28 -21 -28 -30 0 -8 11 -19 25 -24 14 -5 30 -21 35 -34 5 -13 14
-27 21 -32 17 -10 59 41 59 72 0 13 7 27 15 30 8 4 15 15 15 27 0 27 -63 87
-92 87 -13 0 -38 -9 -55 -20z"/>
<path d="M2235 4292 c-16 -12 -35 -50 -35 -71 0 -11 9 -29 21 -39 19 -18 19
-21 4 -36 -20 -20 -31 -20 -39 -1 -3 8 -15 15 -26 15 -16 0 -21 -5 -18 -22 2
-15 10 -23 23 -23 11 0 25 -6 31 -14 7 -9 20 -12 34 -8 13 3 30 1 37 -5 7 -5
42 -13 78 -16 l65 -5 0 52 0 51 -44 0 c-25 0 -48 5 -51 10 -3 6 -15 10 -27 10
-19 0 -20 4 -13 46 5 34 3 49 -7 55 -16 11 -20 11 -33 1z"/>
<path d="M2104 4222 c-18 -12 -36 -52 -30 -68 3 -8 11 -14 19 -14 19 0 60 58
53 76 -6 15 -24 18 -42 6z"/>
<path d="M1125 4007 c-24 -18 -11 -37 26 -37 33 0 51 26 28 41 -19 12 -32 11
-54 -4z"/>
<path d="M1063 3953 c-7 -2 -13 -15 -13 -28 0 -18 -4 -22 -20 -18 -17 4 -20 0
-20 -25 0 -21 8 -37 25 -50 31 -24 25 -47 -16 -61 -35 -12 -47 -36 -30 -62 8
-14 8 -19 0 -19 -7 0 -10 -12 -7 -30 4 -23 0 -30 -16 -32 -20 -3 -37 -38 -70
-142 -7 -22 -18 -42 -24 -44 -7 -2 -12 -14 -12 -27 0 -12 -7 -25 -15 -29 -8
-3 -15 -1 -15 4 0 6 -13 10 -30 10 -28 0 -30 -3 -30 -37 0 -25 8 -45 24 -62
24 -25 24 -27 12 -93 -7 -37 -17 -73 -23 -80 -6 -7 -21 -60 -33 -118 -12 -58
-28 -117 -36 -132 -8 -15 -17 -49 -21 -75 -3 -27 -12 -56 -21 -65 -8 -10 -12
-24 -8 -33 3 -9 -5 -37 -19 -63 -13 -26 -29 -78 -35 -116 -6 -38 -15 -77 -20
-87 -6 -10 -10 -33 -10 -51 0 -18 -11 -55 -23 -83 -13 -27 -27 -75 -31 -105
-4 -30 -18 -89 -31 -130 -13 -41 -29 -110 -34 -153 -6 -43 -18 -91 -26 -107
-8 -16 -15 -37 -15 -47 0 -10 -7 -27 -15 -37 -8 -11 -15 -34 -15 -52 0 -17 -7
-51 -15 -75 -9 -24 -22 -85 -31 -136 -8 -51 -19 -105 -25 -120 -6 -16 -8 -43
-4 -61 4 -24 1 -39 -14 -59 -12 -14 -30 -58 -42 -97 -12 -39 -27 -82 -34 -96
-15 -31 -70 -198 -85 -260 -6 -25 -20 -66 -30 -92 -11 -26 -20 -61 -20 -78 0
-17 -6 -41 -14 -53 -8 -12 -17 -38 -21 -57 -4 -19 -13 -48 -20 -65 -16 -37
-27 -138 -29 -275 -1 -97 0 -105 19 -108 11 -2 28 -13 38 -23 10 -10 26 -19
36 -19 21 0 78 27 86 41 4 5 24 18 46 30 23 11 44 31 50 47 8 20 12 23 19 13
5 -8 32 -16 63 -19 47 -4 58 -1 73 16 13 16 25 19 47 15 21 -4 32 -1 39 10 5
10 21 17 37 17 16 0 40 9 54 20 29 23 106 40 178 40 36 0 51 5 61 19 11 15 29
19 95 22 73 4 84 7 107 32 14 15 34 27 44 27 11 0 22 8 26 18 18 52 71 109 59
63 -7 -26 25 -41 41 -19 9 12 16 12 37 4 14 -6 33 -19 43 -28 23 -24 57 -23
89 2 14 11 38 20 54 20 15 0 33 4 39 8 6 4 19 23 29 42 17 33 18 33 26 13 9
-26 55 -41 72 -24 6 6 27 11 47 11 19 0 45 7 57 15 19 13 21 19 12 39 -6 13
-21 29 -33 35 -17 9 -11 10 32 6 58 -6 87 5 97 35 13 40 -10 50 -109 50 -86 0
-94 -2 -114 -25 -20 -23 -29 -25 -97 -25 -43 0 -75 4 -75 10 0 15 -32 12 -56
-4 -11 -8 -38 -16 -60 -18 -32 -2 -43 -9 -62 -39 l-23 -36 -52 18 c-58 21 -89
23 -103 10 -5 -5 -49 -19 -98 -30 -95 -23 -239 -66 -537 -161 -102 -33 -195
-60 -207 -60 -11 0 -23 4 -26 8 -6 10 20 96 40 136 13 26 13 31 -2 47 -11 12
-13 19 -5 19 18 0 61 100 61 143 0 20 5 37 11 37 6 0 10 12 8 28 -1 15 9 50
21 77 13 28 24 70 24 97 1 39 4 48 19 48 11 0 17 8 17 24 0 13 6 29 14 35 7 6
16 37 20 69 4 31 18 84 31 117 28 69 31 103 10 111 -25 10 -17 32 13 36 22 2
28 8 30 36 3 27 0 32 -18 32 -11 0 -23 7 -27 16 -7 19 27 164 39 164 4 0 8 11
8 25 0 14 -4 25 -10 25 -6 0 -6 9 0 26 6 14 10 46 10 71 0 25 7 58 15 74 8 16
22 42 30 58 8 16 15 41 15 55 0 14 5 26 10 26 6 0 10 10 10 23 0 12 9 48 20
80 11 31 20 69 20 84 0 16 9 45 20 66 11 21 20 56 20 80 0 30 10 61 30 98 21
38 30 68 30 100 0 37 5 50 23 62 21 14 21 16 5 33 -15 15 -19 15 -34 3 -14
-12 -16 -11 -12 6 2 11 12 21 23 21 11 1 26 2 33 3 15 1 16 25 1 49 -7 11 -8
29 -2 52 7 24 16 36 34 40 34 8 37 43 4 58 -31 14 -33 42 -2 42 16 0 27 11 40
39 9 20 17 47 17 58 0 11 7 26 15 33 10 9 15 32 15 75 0 48 4 64 16 69 8 3 24
27 36 53 16 36 19 59 15 101 -5 45 -3 55 11 59 9 2 24 19 32 36 15 33 47 48
132 62 23 3 39 12 43 24 4 13 12 17 30 13 15 -2 25 0 25 7 0 8 11 6 31 -5 32
-16 40 -16 284 11 28 3 75 5 106 5 30 -1 68 4 83 9 19 8 73 7 178 0 117 -9
156 -9 170 0 15 10 23 9 35 -1 8 -7 29 -12 46 -13 23 0 33 -5 35 -18 3 -16 1
-17 -16 -8 -15 8 -23 7 -32 -4 -20 -24 -3 -64 35 -82 26 -12 32 -20 24 -29 -6
-7 -9 -28 -7 -46 2 -25 10 -36 31 -46 16 -8 40 -11 54 -7 22 5 24 10 18 38 -8
42 -8 66 0 100 6 20 4 27 -8 27 -17 0 -27 20 -27 54 0 12 -7 45 -15 73 -12 40
-23 57 -50 73 -40 24 -75 19 -75 -11 0 -10 -1 -19 -2 -19 -2 0 -29 4 -61 10
-32 5 -69 18 -84 30 -33 26 -61 26 -65 -1 -3 -19 -4 -19 -37 5 -28 21 -46 26
-92 26 -32 0 -60 -4 -63 -9 -4 -5 -38 -15 -77 -22 -65 -11 -73 -11 -84 4 -13
18 -45 23 -45 8 0 -10 -59 -35 -74 -32 -4 1 -18 -5 -31 -13 -17 -11 -25 -12
-34 -3 -10 9 -18 6 -36 -15 l-23 -27 -69 15 c-37 9 -84 18 -103 21 -59 8 -62
10 -35 37 30 30 33 66 7 66 -11 0 -27 -9 -37 -20 -17 -19 -20 -19 -28 -4 -8
13 -4 22 13 36 12 10 28 18 36 18 8 0 14 10 14 24 0 14 5 28 10 31 16 10 12
33 -10 55 l-20 20 25 54 c14 29 25 67 25 84 0 31 -1 32 -42 31 -24 0 -49 -3
-55 -6z m1132 -434 c11 -17 2 -18 -19 -3 -17 12 -17 14 -4 14 9 0 20 -5 23
-11z m-1938 -2651 c-2 -13 -4 -5 -4 17 -1 22 1 32 4 23 2 -10 2 -28 0 -40z"/>
<path d="M2014 2205 c-4 -8 -4 -22 0 -30 3 -9 0 -15 -9 -15 -8 0 -18 -6 -22
-14 -12 -21 -108 -55 -125 -45 -7 5 -23 9 -35 9 -18 0 -23 6 -23 25 0 20 -5
25 -25 25 -14 0 -27 -6 -29 -12 -2 -7 -7 -22 -12 -33 -7 -19 -7 -19 -12 -1 -3
15 -11 18 -47 14 -23 -3 -50 -1 -59 4 -41 23 -100 -67 -62 -95 13 -10 14 -18
6 -47 -5 -19 -10 -38 -10 -42 0 -11 183 3 212 17 22 11 28 10 32 -1 6 -16 46
-19 46 -4 0 6 19 10 42 10 24 0 49 7 60 17 17 15 18 14 18 -19 0 -19 6 -43 14
-53 12 -17 12 -24 -1 -49 -9 -17 -16 -53 -17 -80 l-1 -51 55 0 55 0 3 36 c2
21 12 45 23 54 10 10 19 26 19 35 0 9 -11 27 -25 40 -13 12 -22 27 -19 31 3 5
18 9 35 9 22 0 29 5 29 19 0 21 -17 37 -44 42 -31 6 -30 27 3 56 30 27 41 66
22 78 -5 3 -12 19 -16 36 -4 19 -16 34 -32 40 -33 12 -43 11 -49 -6z"/>
<path d="M1340 2092 c-22 -11 -36 -25 -38 -40 -5 -30 -28 -39 -51 -18 -24 22
-58 20 -66 -3 -5 -17 -13 -19 -59 -14 -50 5 -55 4 -71 -21 -20 -30 -37 -33
-60 -10 -9 9 -26 14 -38 12 -13 -3 -29 2 -36 9 -9 10 -17 10 -31 3 -11 -6 -20
-17 -20 -25 0 -16 -30 -35 -55 -35 -8 0 -20 11 -25 25 -6 16 -17 25 -31 25
-20 0 -21 -4 -15 -41 9 -57 33 -101 54 -97 9 2 19 14 22 28 4 18 12 24 27 22
12 -2 24 2 28 8 3 5 17 10 31 10 13 0 24 6 25 13 0 6 5 0 11 -15 8 -25 15 -28
51 -28 23 1 61 5 85 9 23 5 45 5 48 0 7 -12 51 -12 58 0 3 5 15 7 27 4 15 -4
22 0 26 15 4 19 7 19 20 7 8 -8 29 -15 46 -15 52 1 129 25 143 45 13 17 14 17
14 2 0 -23 29 -34 41 -16 24 38 -3 119 -39 119 -10 0 -25 9 -35 20 -9 11 -25
20 -34 20 -10 0 -34 -8 -53 -18z m-105 -122 c3 -5 -2 -10 -12 -10 -11 0 -24
-5 -31 -12 -7 -7 -12 -8 -12 -2 0 14 21 34 36 34 7 0 16 -4 19 -10z"/>
<path d="M551 1611 c-7 -5 -11 -19 -9 -32 4 -31 42 -33 46 -3 4 25 -19 46 -37
35z"/>
<path d="M1553 944 c-3 -8 -1 -20 5 -26 16 -16 42 -2 42 22 0 13 -7 20 -20 20
-11 0 -23 -7 -27 -16z"/>
<path d="M1624 905 c-4 -8 -3 -31 0 -51 5 -26 16 -41 42 -56 19 -11 42 -34 51
-52 22 -44 53 -76 75 -76 15 0 18 8 18 48 -1 26 -7 58 -14 71 -7 13 -11 32 -9
42 3 11 -2 19 -16 24 -12 3 -21 12 -21 18 0 18 -57 47 -91 47 -17 0 -32 -6
-35 -15z"/>
</g>
</svg>
