<?xml version="1.0" standalone="no"?>
<!DOCTYPE svg PUBLIC "-//W3C//DTD SVG 20010904//EN"
 "http://www.w3.org/TR/2001/REC-SVG-20010904/DTD/svg10.dtd">
<svg version="1.0" xmlns="http://www.w3.org/2000/svg"
 width="157.000000pt" height="764.000000pt" viewBox="0 0 157.000000 764.000000"
 preserveAspectRatio="xMidYMid meet">
<metadata>
Created by potrace 1.16, written by Peter Selinger 2001-2019
</metadata>
<g transform="translate(0.000000,764.000000) scale(0.100000,-0.100000)"
fill="#000000" stroke="none">
<path d="M430 2141 c-5 -11 -19 -23 -31 -26 -11 -4 -24 -17 -29 -29 -5 -15
-20 -26 -42 -30 -27 -5 -36 -3 -47 14 -9 13 -24 20 -46 20 -21 0 -35 6 -39 16
-4 11 -17 14 -48 12 -33 -2 -45 -8 -53 -25 -6 -14 -19 -23 -32 -23 -16 0 -25
-8 -29 -24 -3 -14 -12 -27 -20 -30 -8 -3 -14 -15 -14 -27 0 -18 4 -20 27 -14
16 4 49 6 76 6 34 -1 49 3 53 13 5 13 9 13 31 -1 22 -15 27 -15 59 0 19 9 34
13 34 8 0 -5 17 -15 38 -22 52 -16 55 -19 41 -35 -9 -11 -9 -17 1 -29 7 -8 21
-15 32 -15 31 0 71 -26 93 -60 20 -32 66 -71 174 -148 33 -24 63 -52 66 -62 3
-11 15 -22 26 -25 17 -6 12 -13 -35 -56 -30 -28 -58 -59 -61 -70 -4 -11 0 -30
8 -42 13 -20 13 -25 -4 -46 -10 -13 -24 -41 -30 -64 -9 -34 -13 -38 -20 -24
-14 24 -61 21 -86 -5 -27 -30 -73 -129 -73 -156 0 -13 6 -22 15 -22 29 0 14
-17 -25 -29 -22 -6 -45 -21 -51 -33 -10 -18 -8 -24 7 -35 10 -7 21 -13 26 -13
4 0 8 -9 8 -19 0 -15 -6 -19 -27 -18 -23 2 -28 -3 -35 -36 -4 -21 -19 -55 -33
-75 -33 -48 -64 -150 -69 -230 -2 -35 -7 -66 -10 -69 -8 -8 -8 -112 0 -152 4
-17 13 -31 20 -31 8 0 14 -6 14 -12 0 -7 16 -36 36 -65 32 -46 41 -53 70 -53
22 0 37 -6 43 -19 14 -25 51 -37 186 -58 112 -17 113 -18 122 -48 6 -21 21
-37 53 -53 37 -19 55 -22 102 -18 54 5 59 4 75 -20 16 -25 20 -26 79 -19 40 4
64 3 69 -4 11 -19 55 -12 78 13 22 23 84 40 93 24 7 -11 54 -10 54 1 0 14 52
23 63 12 20 -20 46 -11 62 19 17 33 20 66 5 75 -20 12 -10 25 14 19 29 -7 75
22 76 49 0 12 -8 17 -31 17 -17 0 -46 -7 -65 -16 -33 -16 -36 -16 -48 1 -11
15 -26 17 -129 12 -64 -3 -124 -10 -134 -16 -13 -7 -22 -6 -33 4 -13 11 -225
60 -363 83 -26 5 -53 14 -59 20 -7 7 -17 12 -24 12 -12 0 -115 66 -174 112
-19 15 -47 31 -62 37 -25 9 -27 13 -25 68 2 32 6 64 11 71 4 7 5 29 1 48 -5
30 -2 38 19 55 20 16 25 29 24 57 -1 41 24 105 65 166 15 21 29 53 33 72 3 18
14 36 23 39 17 5 111 128 169 221 18 28 41 59 52 69 11 10 20 28 20 40 0 11 4
25 9 31 21 21 61 107 57 123 -2 9 -7 26 -11 39 -5 16 -2 22 9 22 8 0 16 8 18
18 3 9 8 -2 12 -26 6 -35 12 -43 34 -48 15 -3 34 -8 43 -10 18 -5 59 47 59 75
0 29 -27 51 -63 51 -21 0 -27 3 -19 9 7 4 24 6 36 4 13 -3 27 1 31 7 10 17
-43 59 -75 60 -14 0 -32 5 -40 10 -13 8 -12 10 3 10 21 0 23 38 2 47 -9 3 -24
-2 -34 -12 -18 -15 -22 -15 -50 -1 -16 9 -37 16 -46 16 -8 0 -15 9 -15 20 0
20 -6 29 -38 65 -7 8 -29 15 -48 15 -21 0 -34 5 -34 13 0 7 -9 18 -20 25 -14
8 -20 23 -20 46 0 31 -3 34 -37 41 -21 3 -54 8 -73 9 -19 2 -40 4 -47 5 -9 1
-10 16 -6 51 5 46 4 50 -15 50 -12 0 -26 -9 -32 -19z m336 -677 c-3 -8 -10
-14 -15 -14 -10 0 -9 9 6 48 6 16 6 16 10 -1 3 -10 2 -25 -1 -33z m-362 -1119
c-7 -17 -7 -17 -29 -9 -13 5 -14 8 -3 15 21 14 38 10 32 -6z m1031 -215 c-3
-5 -14 -10 -23 -9 -14 0 -13 2 3 9 27 11 27 11 20 0z"/>
</g>
</svg>
