<?xml version="1.0" standalone="no"?>
<!DOCTYPE svg PUBLIC "-//W3C//DTD SVG 20010904//EN"
 "http://www.w3.org/TR/2001/REC-SVG-20010904/DTD/svg10.dtd">
<svg version="1.0" xmlns="http://www.w3.org/2000/svg"
 width="247.000000pt" height="764.000000pt" viewBox="0 0 247.000000 764.000000"
 preserveAspectRatio="xMidYMid meet">
<metadata>
Created by potrace 1.16, written by Peter Selinger 2001-2019
</metadata>
<g transform="translate(0.000000,764.000000) scale(0.100000,-0.100000)"
fill="#000000" stroke="none">
<path d="M1752 4935 c-16 -12 -26 -13 -42 -5 -24 13 -54 0 -70 -30 -6 -11 -17
-20 -25 -20 -8 0 -15 -6 -15 -14 0 -7 -7 -19 -15 -26 -9 -7 -13 -21 -9 -35 6
-26 -4 -35 -50 -45 -25 -4 -31 -11 -31 -30 0 -21 5 -26 34 -28 21 -2 86 13
165 38 72 23 165 52 206 65 54 17 76 29 78 42 1 10 16 26 33 35 35 20 47 46
28 59 -8 5 -70 9 -139 9 -97 0 -131 -3 -148 -15z"/>
<path d="M490 4593 c0 -15 -8 -22 -30 -25 -22 -3 -33 1 -43 16 -13 18 -17 19
-55 8 -47 -14 -72 -44 -72 -84 0 -25 -3 -28 -35 -28 -19 0 -35 -4 -35 -10 0
-5 -10 -9 -22 -7 -14 1 -26 -6 -34 -21 -6 -13 -21 -32 -33 -43 -11 -11 -21
-24 -21 -29 0 -6 -6 -10 -14 -10 -15 0 -24 -26 -18 -53 3 -16 11 -18 70 -11
37 3 76 11 87 17 11 6 40 25 64 44 24 18 52 33 61 33 21 0 30 19 30 66 0 19 4
34 9 34 5 0 20 -14 32 -31 21 -30 24 -31 76 -25 33 4 53 2 53 -4 0 -5 9 -10
20 -10 21 0 25 15 21 76 -1 18 2 35 8 39 14 8 14 52 1 60 -6 4 -35 9 -65 12
-50 5 -55 4 -55 -14z"/>
<path d="M690 4466 c0 -8 5 -27 10 -42 8 -19 8 -30 0 -38 -17 -17 -12 -66 8
-73 9 -4 22 -13 28 -21 8 -12 15 -12 32 -3 12 6 22 18 22 25 0 8 7 19 15 26
24 20 18 48 -21 96 -28 33 -43 44 -65 44 -19 0 -29 -5 -29 -14z"/>
<path d="M783 4273 c-4 -9 0 -28 8 -42 13 -23 13 -28 -3 -43 -24 -24 -23 -65
2 -78 12 -6 20 -21 20 -35 0 -18 7 -26 24 -31 26 -6 45 -36 27 -42 -19 -6 -12
-51 10 -73 17 -17 20 -29 15 -61 -4 -25 -2 -52 6 -69 11 -24 19 -29 49 -29 20
0 39 -3 42 -7 4 -3 -6 -14 -21 -24 -23 -14 -31 -29 -42 -80 -8 -35 -14 -95
-14 -134 -1 -38 -6 -74 -12 -80 -12 -11 -54 -177 -54 -212 0 -12 6 -23 13 -26
8 -3 7 -10 -7 -26 -12 -13 -20 -37 -20 -60 -1 -21 -6 -44 -12 -52 -7 -8 -15
-34 -19 -58 -4 -24 -14 -59 -21 -77 -8 -18 -14 -43 -14 -55 0 -11 -7 -36 -16
-55 -12 -25 -15 -49 -11 -86 6 -45 3 -56 -18 -84 -14 -18 -25 -40 -25 -48 0
-8 -9 -39 -21 -68 -12 -29 -25 -82 -30 -117 -5 -36 -14 -70 -20 -78 -6 -7 -9
-24 -7 -38 3 -14 0 -29 -7 -33 -21 -12 -45 -69 -51 -119 -3 -27 -17 -72 -31
-100 -21 -45 -25 -63 -21 -123 l4 -70 -31 -6 -31 -6 0 -89 c1 -49 -3 -89 -8
-89 -18 0 -66 -64 -72 -95 -14 -78 13 -134 53 -109 10 6 20 20 22 30 1 10 9
26 16 34 8 9 13 39 12 77 0 34 5 68 11 76 7 8 23 12 43 9 25 -4 36 0 50 19 10
13 19 35 19 49 0 14 9 51 20 83 11 31 20 65 20 76 0 11 -8 24 -17 30 -15 8
-14 12 15 39 35 32 40 50 18 58 -11 4 -12 11 -3 35 7 17 19 29 30 29 9 0 20 7
23 15 6 14 -7 84 -20 115 -4 11 4 21 28 34 18 10 38 28 44 39 6 12 13 51 16
87 4 40 12 69 21 76 8 6 15 25 15 42 0 17 4 34 10 37 17 11 11 37 -10 42 -21
6 -28 23 -9 23 5 0 23 15 40 32 29 32 39 68 18 68 -15 0 -2 57 22 96 10 17 19
41 19 53 0 12 7 36 16 53 13 25 15 50 11 110 -4 62 -2 80 11 90 18 16 51 86
52 111 0 10 -11 22 -26 27 -30 12 -23 30 11 30 28 0 29 4 45 124 8 64 8 83 -3
100 -13 18 -12 22 7 31 18 9 21 21 24 95 2 71 0 87 -14 97 -11 8 -13 13 -5 13
10 0 11 15 6 63 -4 34 -13 69 -21 78 -8 8 -14 24 -14 35 -1 10 -7 30 -15 44
-8 14 -14 39 -15 56 0 20 -6 34 -16 38 -11 4 -14 14 -9 35 4 21 2 30 -9 34 -9
4 -16 18 -16 32 0 14 -4 25 -9 25 -5 0 -11 11 -15 23 -9 39 -45 77 -72 77 -14
0 -27 -7 -31 -17z"/>
<path d="M70 4263 c-43 -8 -50 -21 -50 -94 0 -37 -5 -71 -10 -74 -6 -3 -10
-21 -10 -39 0 -35 34 -76 63 -76 12 0 17 9 17 31 0 19 -7 37 -17 45 -16 12
-13 13 24 14 37 0 43 3 49 25 4 16 0 35 -11 51 -16 25 -16 27 4 41 25 17 29
68 5 77 -16 6 -23 6 -64 -1z"/>
<path d="M90 4025 c0 -29 27 -45 41 -24 14 22 6 44 -19 47 -18 3 -22 -1 -22
-23z"/>
<path d="M67 3912 c-18 -20 -23 -52 -8 -52 5 0 12 -11 15 -25 4 -14 11 -25 16
-25 15 0 44 -62 41 -87 -1 -13 3 -23 10 -23 8 0 9 -10 5 -30 -8 -44 19 -52 50
-14 13 16 23 37 24 46 0 10 -16 47 -35 84 -19 36 -35 75 -35 85 0 54 -50 78
-83 41z"/>
<path d="M2190 3765 c0 -18 -5 -25 -20 -25 -22 0 -26 -17 -35 -160 -3 -52 -17
-207 -31 -343 -22 -222 -23 -251 -10 -272 13 -20 13 -24 -2 -38 -15 -16 -23
-53 -41 -207 -5 -41 -14 -88 -21 -105 -16 -39 -31 -314 -19 -337 6 -10 19 -18
30 -18 12 0 34 -7 49 -17 23 -13 27 -20 20 -39 -6 -16 -5 -26 6 -34 16 -14 19
-50 5 -50 -5 0 -12 -9 -16 -19 -3 -11 -19 -24 -35 -30 -21 -7 -30 -17 -30 -32
0 -19 4 -21 35 -16 32 5 37 3 45 -19 9 -22 15 -25 47 -22 l37 3 14 75 c13 62
13 91 3 170 -15 122 -20 140 -40 141 -13 0 -13 1 -1 6 8 3 21 12 28 21 17 22
15 71 -3 79 -14 5 -14 7 -1 22 23 26 39 117 33 195 -3 52 0 79 11 104 12 24
13 37 6 50 -8 12 -8 22 -1 33 14 23 0 70 -23 76 -20 5 -28 23 -11 23 21 0 41
34 41 68 0 20 -9 51 -20 67 l-20 30 23 5 c20 5 22 13 24 70 1 36 8 83 16 106
11 30 13 53 6 89 -5 27 -16 59 -24 71 -8 13 -15 28 -15 34 0 6 11 15 25 20 15
6 25 17 25 29 0 10 -11 26 -25 35 -14 9 -25 20 -25 25 0 4 10 7 23 7 18 -1 23
5 25 31 2 24 -2 34 -17 43 -12 6 -21 19 -21 30 0 24 -26 50 -51 50 -14 0 -19
-7 -19 -25z"/>
<path d="M2014 2236 c-3 -8 -4 -25 -2 -38 2 -15 11 -24 26 -26 20 -3 22 1 22
37 0 35 -3 41 -20 41 -11 0 -23 -6 -26 -14z"/>
<path d="M1971 2003 c-12 -42 -14 -116 -5 -126 8 -8 8 -5 23 -285 6 -118 13
-218 16 -222 3 -5 6 -67 7 -140 0 -72 5 -133 9 -136 4 -2 0 -17 -9 -33 -15
-26 -15 -37 -3 -103 7 -40 16 -101 20 -134 4 -34 13 -69 20 -78 10 -12 11 -16
1 -16 -9 0 -11 -13 -6 -53 4 -28 11 -89 16 -134 8 -78 31 -143 50 -143 5 0 15
-7 23 -15 10 -10 15 -34 15 -70 -1 -57 17 -114 36 -116 6 -1 20 -2 31 -3 14
-1 21 -9 23 -26 2 -17 15 -32 42 -47 54 -32 94 -22 126 28 13 21 33 43 44 49
17 9 20 19 18 48 -2 31 -7 38 -27 40 -15 2 -30 -3 -37 -13 -8 -11 -20 -14 -38
-9 -14 3 -29 11 -35 17 -5 7 -14 38 -20 69 -5 32 -17 70 -24 85 -8 16 -18 46
-21 68 -4 21 -16 56 -27 77 -10 20 -19 48 -19 62 0 14 -5 28 -10 31 -6 4 -4
12 5 21 19 19 19 33 0 99 -9 29 -20 100 -25 157 -4 56 -14 125 -21 152 -12 43
-11 50 4 61 22 16 22 53 1 77 -17 18 -18 37 -9 118 3 25 7 128 8 230 2 102 7
229 12 283 l8 97 -32 0 c-34 0 -71 -29 -71 -57 -1 -13 -5 -11 -15 8 -8 15 -21
29 -30 33 -10 3 -15 19 -15 46 0 36 -3 40 -25 40 -19 0 -26 -7 -34 -37z m113
-171 c3 -5 -1 -9 -9 -9 -8 0 -15 4 -15 9 0 4 4 8 9 8 6 0 12 -4 15 -8z"/>
<path d="M1906 1945 c-8 -23 4 -45 25 -45 14 0 19 7 19 30 0 23 -5 30 -19 30
-10 0 -21 -7 -25 -15z"/>
<path d="M1905 1880 c-9 -15 4 -30 26 -30 12 0 19 7 19 20 0 13 -7 20 -19 20
-11 0 -23 -4 -26 -10z"/>
<path d="M522 1668 c-12 -12 -17 -94 -6 -122 3 -9 15 -16 25 -16 15 0 19 7 19
34 0 18 7 39 16 46 8 8 14 25 12 39 -2 19 -10 27 -28 29 -14 2 -31 -3 -38 -10z"/>
<path d="M1790 1585 c-6 -8 -13 -29 -13 -47 -2 -27 2 -33 17 -33 23 0 61 58
52 80 -7 19 -40 19 -56 0z"/>
<path d="M490 1496 c0 -21 -5 -25 -32 -28 -28 -3 -33 -7 -33 -30 -1 -15 -4
-30 -8 -34 -3 -4 -24 -7 -44 -8 l-38 -1 -3 -77 c-2 -43 -7 -78 -12 -78 -15 0
-23 -88 -13 -140 8 -37 7 -50 -3 -54 -9 -3 -11 -21 -7 -64 4 -39 2 -62 -6 -66
-14 -9 -14 -63 0 -72 8 -5 10 -31 5 -82 -5 -59 -2 -86 11 -122 9 -25 21 -51
27 -59 8 -10 8 -15 -1 -18 -17 -6 -17 -53 0 -53 9 0 11 -22 9 -84 -4 -88 10
-179 31 -204 7 -8 12 -35 12 -59 0 -32 6 -48 18 -54 9 -6 17 -16 17 -22 0 -7
13 -27 29 -45 27 -29 35 -32 90 -32 32 0 66 3 75 6 24 9 19 37 -14 79 -16 21
-30 42 -30 46 0 5 -19 21 -42 36 -24 15 -46 32 -50 38 -4 5 -8 52 -8 103 0 50
-3 92 -7 92 -5 0 -6 27 -5 59 2 32 -3 94 -11 137 -8 44 -12 94 -10 111 3 19
-2 51 -11 73 -14 37 -15 44 -1 70 18 35 19 83 3 110 -10 16 -9 25 5 49 15 25
15 30 2 41 -8 6 -19 9 -26 5 -7 -5 -10 -1 -7 11 2 12 13 20 32 22 25 3 28 7
23 30 -3 15 -9 35 -12 45 -5 11 -2 17 8 17 17 0 27 41 27 107 0 44 16 85 52
134 12 16 18 38 16 55 -2 23 -9 30 -30 32 -24 3 -28 0 -28 -22z"/>
<path d="M1831 1496 c-17 -20 -3 -46 24 -46 13 0 26 4 29 8 6 10 -21 52 -33
52 -5 0 -14 -6 -20 -14z"/>
<path d="M1745 1371 c-3 -12 -12 -21 -20 -21 -17 0 -28 -31 -15 -44 5 -5 10
-20 10 -33 0 -20 5 -23 35 -23 32 0 35 3 35 28 0 15 -5 33 -12 40 -9 9 -9 12
1 12 8 0 11 10 9 27 -4 34 -33 43 -43 14z"/>
<path d="M1646 1192 c-10 -29 12 -69 45 -83 23 -9 32 -9 44 1 19 16 19 64 1
79 -8 7 -30 15 -49 18 -29 4 -36 2 -41 -15z"/>
<path d="M1626 1015 c-8 -22 1 -35 25 -35 15 0 20 6 17 22 -4 27 -33 36 -42
13z"/>
<path d="M1546 905 c-8 -23 4 -45 25 -45 14 0 19 7 19 30 0 23 -5 30 -19 30
-10 0 -21 -7 -25 -15z"/>
<path d="M1374 825 c-9 -14 -23 -25 -30 -25 -8 0 -14 -5 -14 -10 0 -16 -80
-141 -117 -183 -18 -20 -33 -41 -33 -46 0 -13 -93 -128 -175 -216 -179 -191
-214 -245 -185 -280 18 -21 67 -18 100 5 16 11 38 40 50 64 16 34 30 48 56 56
24 8 36 19 41 38 8 32 39 79 70 104 12 10 24 27 28 37 3 10 14 17 27 17 15 -1
27 8 36 27 7 15 24 32 37 37 31 12 41 45 21 74 -14 22 -14 24 4 19 13 -3 30 6
52 27 l32 33 -23 18 -23 19 31 -6 c29 -6 31 -5 31 23 0 17 9 42 20 56 11 14
20 40 20 59 0 19 5 39 11 45 16 16 2 33 -26 33 -15 0 -31 -10 -41 -25z"/>
<path d="M705 81 c-6 -5 -21 -11 -35 -13 -18 -2 -26 -10 -28 -27 -2 -13 2 -28
10 -32 16 -11 92 -12 102 -2 4 4 23 6 42 4 25 -2 34 1 34 13 0 8 -11 27 -25
41 -17 16 -37 25 -58 25 -18 0 -37 -4 -42 -9z"/>
</g>
</svg>
