<?xml version="1.0" standalone="no"?>
<!DOCTYPE svg PUBLIC "-//W3C//DTD SVG 20010904//EN"
 "http://www.w3.org/TR/2001/REC-SVG-20010904/DTD/svg10.dtd">
<svg version="1.0" xmlns="http://www.w3.org/2000/svg"
 width="333.000000pt" height="764.000000pt" viewBox="0 0 333.000000 764.000000"
 preserveAspectRatio="xMidYMid meet">
<metadata>
Created by potrace 1.16, written by Peter Selinger 2001-2019
</metadata>
<g transform="translate(0.000000,764.000000) scale(0.100000,-0.100000)"
fill="#000000" stroke="none">
<path d="M2648 5514 c-3 -3 -35 -7 -71 -9 -36 -2 -84 -9 -108 -15 -23 -7 -71
-12 -107 -13 -51 -1 -66 3 -73 16 -10 18 -44 23 -53 8 -3 -4 -17 -6 -31 -3
-14 2 -25 0 -25 -6 0 -6 -19 -20 -43 -31 -39 -19 -54 -20 -173 -14 l-130 6
-36 -32 c-20 -17 -43 -31 -51 -31 -9 0 -31 -17 -51 -37 -32 -35 -36 -36 -53
-21 -13 11 -37 16 -85 15 -48 0 -68 -5 -68 -13 0 -21 -22 -28 -32 -10 -10 18
-53 22 -63 6 -3 -5 -15 -10 -25 -10 -20 0 -100 -49 -100 -61 0 -5 -29 -6 -65
-4 -37 3 -67 0 -70 -6 -5 -7 -11 -6 -21 2 -21 18 -62 2 -79 -31 -9 -17 -20
-30 -26 -30 -6 0 -24 -11 -39 -24 -22 -18 -46 -25 -105 -31 -55 -5 -82 -12
-96 -26 -10 -10 -23 -19 -27 -19 -5 0 -19 -9 -31 -19 -13 -11 -29 -17 -36 -15
-21 8 -135 -24 -182 -51 -23 -14 -50 -25 -61 -25 -11 0 -25 -6 -31 -14 -6 -7
-30 -16 -52 -20 -55 -9 -78 -22 -89 -52 -11 -28 -32 -31 -55 -7 -14 13 -21 14
-36 5 -10 -7 -30 -12 -44 -12 -17 0 -29 -8 -37 -25 -6 -14 -22 -28 -34 -31
-30 -8 -57 -38 -52 -61 2 -11 17 -21 41 -27 33 -9 56 -3 185 41 81 28 241 85
357 127 116 41 238 81 272 87 35 6 79 20 100 30 20 10 48 19 60 19 13 0 39 7
58 14 19 8 68 20 108 25 85 12 557 116 602 133 17 6 53 14 80 18 145 22 447
72 507 85 109 22 220 27 412 17 146 -8 182 -13 191 -26 17 -23 39 -20 75 10
27 24 41 27 108 28 46 1 88 -3 104 -11 15 -7 36 -13 48 -13 32 0 26 42 -11 69
-22 16 -28 26 -19 31 6 4 10 16 8 26 -2 14 -13 20 -45 22 -23 2 -47 10 -53 18
-14 16 -46 19 -55 4 -3 -5 -22 -10 -41 -10 -30 0 -34 -3 -34 -25 0 -20 -5 -25
-24 -25 -13 0 -26 -6 -29 -12 -2 -7 -10 7 -16 32 -20 76 -18 73 -63 67 -23 -3
-48 -13 -55 -22 -9 -14 -21 -16 -65 -10 -29 4 -66 13 -82 21 -30 14 -68 18
-78 8z"/>
<path d="M2044 5073 c-22 -3 -35 -12 -44 -31 -7 -15 -16 -71 -20 -125 -8 -97
-19 -127 -47 -127 -22 0 -71 -31 -79 -49 -3 -9 -12 -41 -19 -71 -8 -30 -26
-89 -41 -130 -16 -44 -28 -102 -30 -140 -1 -36 -8 -78 -13 -93 -8 -20 -8 -34
-1 -48 8 -15 7 -19 -5 -19 -9 0 -15 -9 -15 -24 0 -13 -7 -29 -15 -36 -17 -14
-20 -50 -5 -50 6 0 10 -4 10 -10 0 -5 -7 -10 -15 -10 -11 0 -15 -11 -15 -39 0
-24 -5 -41 -14 -44 -8 -3 -16 -21 -18 -39 -2 -25 -8 -34 -25 -36 -17 -3 -23
-10 -23 -30 0 -36 -19 -102 -29 -102 -5 0 -11 -21 -15 -47 -3 -25 -17 -66 -31
-89 -14 -23 -25 -54 -25 -67 0 -14 -7 -30 -15 -37 -8 -7 -15 -27 -15 -45 0
-18 -6 -38 -14 -44 -7 -6 -16 -28 -20 -49 -3 -20 -24 -97 -46 -170 -22 -74
-40 -143 -40 -155 0 -12 -7 -35 -15 -51 -8 -15 -15 -44 -15 -62 0 -27 4 -34
20 -34 17 0 18 -3 9 -26 -7 -20 -6 -32 6 -51 14 -21 14 -24 -2 -29 -39 -12
-48 -23 -54 -65 -3 -24 -20 -77 -38 -117 -21 -49 -35 -102 -42 -160 -6 -48
-19 -104 -30 -125 -10 -21 -19 -46 -19 -55 0 -10 -9 -35 -20 -56 -10 -21 -26
-73 -35 -115 -9 -42 -22 -101 -30 -131 -7 -30 -16 -73 -19 -96 -3 -22 -17 -75
-30 -116 -14 -42 -28 -107 -32 -145 -3 -37 -17 -104 -30 -148 -13 -44 -28
-107 -33 -140 -13 -80 -65 -260 -81 -280 -7 -8 -13 -46 -14 -87 -1 -59 -4 -74
-18 -80 -14 -6 -18 -19 -18 -61 0 -44 -4 -58 -25 -77 -18 -17 -25 -34 -25 -62
0 -21 -13 -77 -29 -125 -16 -49 -32 -107 -36 -131 -4 -24 -13 -56 -21 -70 -8
-15 -14 -33 -14 -40 0 -11 -7 -26 -31 -72 -51 -95 -51 -94 -48 -194 3 -72 8
-99 19 -106 8 -5 36 -10 62 -10 37 0 51 5 60 19 9 14 16 17 24 10 7 -6 25 -9
41 -7 25 3 28 9 38 58 6 30 18 66 27 80 8 14 21 72 27 130 17 147 37 233 65
286 14 26 23 51 20 58 -2 6 7 33 21 60 14 27 25 58 25 68 0 11 6 31 14 46 8
15 22 58 31 96 15 61 16 70 2 83 -14 14 -13 18 11 38 17 15 23 27 19 40 -5 12
-15 16 -32 12 -18 -3 -29 1 -36 14 -7 15 -6 19 6 19 9 0 18 7 21 15 4 8 15 15
25 15 11 0 21 6 23 13 1 6 10 34 19 62 14 44 14 51 1 66 -13 15 -13 17 2 23
10 4 14 13 11 26 -3 11 -1 23 4 26 5 3 9 21 9 40 0 22 5 34 13 34 22 0 44 31
57 80 10 36 9 59 -1 113 -10 53 -10 73 -1 88 7 10 12 27 12 37 0 10 11 41 25
68 14 27 25 66 25 87 0 21 7 45 15 53 9 9 15 34 15 62 0 26 7 56 15 66 20 27
19 42 -5 66 -21 21 -20 22 20 33 11 2 18 30 26 99 8 74 15 99 32 116 12 12 22
33 22 46 0 36 48 218 75 285 14 33 25 74 25 91 0 17 7 41 15 54 8 12 15 33 15
47 0 13 4 62 8 108 7 62 13 87 27 97 13 10 16 21 11 46 -4 24 0 47 16 78 11
25 23 68 26 95 3 28 11 59 18 70 7 11 22 60 33 108 12 49 35 120 51 157 17 38
38 100 47 137 9 37 29 104 46 148 63 172 97 274 107 321 10 50 32 109 55 154
7 14 21 54 29 90 9 36 26 88 36 115 11 28 24 73 30 100 6 28 14 59 19 70 5 11
12 28 15 38 3 10 22 25 41 33 l35 14 0 68 c0 45 -5 75 -16 90 -12 18 -24 22
-62 20 -26 0 -61 -3 -78 -5z"/>
</g>
</svg>
