<?xml version="1.0" standalone="no"?>
<!DOCTYPE svg PUBLIC "-//W3C//DTD SVG 20010904//EN"
 "http://www.w3.org/TR/2001/REC-SVG-20010904/DTD/svg10.dtd">
<svg version="1.0" xmlns="http://www.w3.org/2000/svg"
 width="272.000000pt" height="627.000000pt" viewBox="0 0 272.000000 627.000000"
 preserveAspectRatio="xMidYMid meet">
<metadata>
Created by potrace 1.16, written by Peter Selinger 2001-2019
</metadata>
<g transform="translate(0.000000,627.000000) scale(0.100000,-0.100000)"
fill="#000000" stroke="none">
<path d="M1940 5026 c-8 -11 -18 -12 -36 -5 -14 5 -36 9 -50 9 -36 0 -81 -26
-89 -52 -7 -19 -8 -19 -17 -5 -11 21 -37 22 -44 2 -4 -9 -19 -15 -41 -15 -25
0 -43 -7 -59 -26 -13 -14 -24 -33 -24 -43 0 -11 -8 -28 -17 -39 -17 -19 -22
-20 -71 -9 -44 9 -58 9 -79 -3 -14 -8 -31 -24 -37 -35 -6 -11 -17 -24 -23 -28
-7 -4 -13 -16 -13 -26 0 -12 -10 -21 -24 -25 -28 -7 -133 -112 -158 -159 -10
-18 -31 -41 -48 -53 -16 -11 -41 -36 -55 -55 -60 -84 -105 -155 -105 -170 0
-9 -15 -33 -34 -52 -19 -20 -46 -61 -61 -91 -15 -30 -33 -57 -41 -60 -8 -3
-14 -17 -14 -31 0 -14 -6 -28 -14 -31 -17 -6 -67 -98 -96 -176 -12 -32 -26
-58 -31 -58 -5 0 -9 -7 -9 -15 0 -9 -8 -30 -17 -48 -26 -51 -64 -158 -73 -210
-5 -26 -18 -56 -29 -65 -18 -16 -121 -237 -121 -261 0 -6 -14 -35 -30 -65 -17
-29 -40 -90 -51 -136 -12 -45 -29 -96 -39 -114 -11 -17 -33 -83 -51 -146 -33
-121 -78 -346 -79 -392 0 -33 19 -47 35 -24 11 14 14 14 25 1 9 -11 7 -25 -14
-69 -14 -30 -26 -61 -26 -70 0 -8 -20 -31 -44 -51 -44 -36 -44 -36 -51 -118
-4 -45 -18 -114 -31 -154 -32 -94 -46 -224 -49 -458 -3 -161 -1 -202 16 -267
11 -46 19 -111 19 -162 0 -54 6 -100 15 -123 8 -19 15 -43 15 -52 0 -9 6 -27
13 -41 7 -14 14 -37 15 -51 1 -15 14 -62 30 -105 22 -62 36 -84 62 -101 18
-13 28 -23 23 -23 -6 0 -11 -22 -11 -48 0 -36 6 -55 24 -75 31 -37 52 -35 57
6 l4 32 1 -32 c2 -22 8 -34 22 -38 11 -3 20 -13 20 -22 0 -14 32 -58 77 -105
9 -10 26 -18 38 -18 12 0 33 -9 47 -19 13 -11 36 -23 49 -26 19 -5 24 -12 24
-38 l0 -32 65 0 c36 0 74 -5 85 -11 11 -7 64 -20 119 -30 93 -17 99 -17 111
-1 11 15 13 16 19 2 4 -11 20 -15 61 -15 53 0 56 1 61 28 5 25 9 27 45 24 25
-3 58 4 95 19 52 22 56 22 65 6 6 -9 14 -17 20 -17 5 0 25 16 45 35 29 30 42
35 80 35 44 0 45 1 64 45 17 39 23 45 48 45 17 0 40 10 56 25 15 14 35 25 45
25 10 0 44 24 77 53 32 30 76 59 96 66 20 7 56 26 80 44 24 18 56 31 73 32 22
0 31 5 33 20 5 26 41 54 69 55 12 0 27 8 32 18 5 9 29 23 54 29 25 7 58 24 75
38 21 18 42 25 71 25 30 0 41 4 41 15 0 9 8 19 18 22 9 4 23 13 30 20 7 7 20
13 27 13 23 0 26 33 10 116 -23 123 -42 178 -70 204 -14 13 -25 30 -25 37 0 7
-11 18 -25 23 -13 5 -33 18 -45 30 -11 11 -33 20 -50 20 -19 0 -33 7 -40 20
-7 13 -21 20 -41 20 -16 0 -41 7 -54 16 -20 13 -44 16 -118 12 -72 -3 -104
-10 -148 -30 -31 -14 -65 -38 -76 -54 -26 -37 -57 -130 -49 -149 3 -10 20 -15
46 -15 30 0 42 5 47 18 10 28 42 64 68 78 13 7 53 15 88 19 54 6 70 4 105 -14
22 -11 43 -25 46 -30 4 -5 28 -17 55 -26 27 -9 52 -23 55 -31 3 -7 12 -14 19
-14 9 0 16 -14 19 -37 5 -31 24 -85 46 -125 1 -3 -31 -9 -73 -13 -59 -6 -78
-11 -86 -26 -5 -11 -20 -19 -35 -19 -16 0 -38 -13 -58 -35 -19 -19 -42 -35
-52 -35 -11 0 -24 -10 -29 -23 -6 -12 -20 -23 -33 -25 -13 -2 -27 -14 -32 -27
-8 -21 -14 -23 -49 -18 -39 5 -41 4 -41 -21 0 -21 -5 -26 -25 -26 -14 0 -33
-9 -42 -20 -10 -11 -29 -20 -43 -20 -50 0 -100 -21 -122 -50 -13 -18 -31 -30
-45 -30 -12 0 -27 -9 -33 -20 -7 -13 -21 -20 -39 -20 -16 0 -39 -8 -52 -19
-13 -10 -40 -23 -61 -30 -20 -7 -48 -23 -63 -36 -14 -14 -32 -25 -40 -25 -8 0
-17 -4 -20 -10 -3 -5 -18 -10 -33 -10 -15 0 -63 -12 -107 -26 -100 -32 -212
-40 -281 -22 -28 8 -95 39 -148 68 -65 36 -102 63 -112 82 -8 15 -21 28 -28
28 -7 0 -20 7 -27 16 -8 9 -30 27 -50 39 -30 19 -37 32 -48 79 -7 31 -17 58
-22 61 -5 4 -9 17 -9 30 0 37 -10 55 -41 71 -27 13 -29 19 -29 74 0 44 -4 61
-16 68 -11 6 -13 11 -5 16 17 11 13 44 -6 50 -15 5 -18 18 -18 73 -1 45 -7 79
-18 101 -14 25 -15 32 -4 32 12 0 13 23 10 122 -2 68 -6 166 -9 218 -6 117 -6
101 5 245 12 145 33 268 49 288 7 8 12 28 11 43 -2 35 45 226 67 274 21 45 52
209 64 329 5 52 13 97 18 100 6 3 13 24 18 46 4 22 27 93 51 158 25 65 47 135
50 155 3 20 11 44 19 52 7 8 16 29 20 45 7 30 11 41 54 126 12 25 21 52 18 60
-3 8 5 27 18 42 13 15 26 44 30 65 3 20 15 51 25 68 12 19 18 46 16 70 -2 34
1 39 21 42 17 3 29 16 43 46 10 24 26 49 34 56 8 7 15 20 15 29 0 9 21 50 45
91 25 41 45 82 45 91 0 9 9 28 20 42 11 14 20 40 20 61 0 30 5 37 35 52 20 9
45 31 57 48 12 17 34 46 50 64 15 18 28 42 28 53 0 12 11 30 25 41 14 11 32
32 40 48 8 15 30 38 50 50 24 15 35 29 35 45 0 14 7 30 16 37 9 7 40 35 67 62
28 27 74 59 101 71 28 12 58 26 66 29 36 16 61 34 80 59 12 15 26 27 32 27 5
0 21 9 35 20 20 15 34 19 59 14 27 -5 37 -1 58 21 24 25 27 26 95 19 62 -6 71
-5 71 10 0 14 4 15 20 6 11 -6 36 -8 54 -4 29 5 38 2 57 -20 19 -22 28 -25 56
-20 18 3 39 2 46 -3 6 -6 34 -18 61 -26 27 -9 70 -31 97 -47 68 -44 184 -170
199 -216 17 -51 17 -120 1 -164 -76 -198 -122 -274 -217 -363 -72 -66 -97 -78
-190 -93 -36 -5 -42 -4 -47 15 -3 15 -13 21 -31 21 -26 0 -26 0 11 33 21 19
46 37 56 40 9 4 17 16 17 28 0 24 -60 89 -82 89 -27 0 -98 -60 -128 -107 -17
-26 -30 -57 -30 -70 0 -12 8 -30 18 -40 10 -10 26 -30 35 -45 10 -16 24 -28
32 -28 9 0 39 -13 68 -29 56 -32 146 -61 185 -61 15 0 44 18 75 46 28 25 56
54 61 64 6 9 19 33 30 51 31 56 86 119 127 144 21 14 43 34 49 46 7 12 16 49
20 82 5 34 14 63 20 65 5 2 10 9 10 17 0 7 7 18 15 25 19 16 19 59 0 80 -14
16 -14 20 10 48 22 26 25 39 25 100 0 53 -4 73 -15 80 -9 4 -24 42 -34 85 -10
42 -26 87 -35 99 -9 13 -26 37 -37 54 -21 34 -65 58 -95 52 -16 -2 -20 6 -28
49 -5 29 -15 54 -23 57 -8 3 -25 -5 -39 -19 -14 -14 -26 -25 -27 -25 -2 0 -3
12 -2 27 0 25 -5 29 -40 35 -22 4 -55 10 -72 14 -20 4 -33 2 -33 -4 0 -14 -41
-2 -47 14 -6 17 -45 18 -60 3 -7 -7 -13 -7 -17 -1 -3 5 -27 7 -52 4 -37 -4
-49 -1 -56 12 -11 20 -51 21 -68 2z"/>
</g>
</svg>
