<?xml version="1.0" standalone="no"?>
<!DOCTYPE svg PUBLIC "-//W3C//DTD SVG 20010904//EN"
 "http://www.w3.org/TR/2001/REC-SVG-20010904/DTD/svg10.dtd">
<svg version="1.0" xmlns="http://www.w3.org/2000/svg"
 width="284.000000pt" height="764.000000pt" viewBox="0 0 284.000000 764.000000"
 preserveAspectRatio="xMidYMid meet">
<metadata>
Created by potrace 1.16, written by Peter Selinger 2001-2019
</metadata>
<g transform="translate(0.000000,764.000000) scale(0.100000,-0.100000)"
fill="#000000" stroke="none">
<path d="M1997 1256 c-14 -28 -35 -89 -47 -136 -29 -114 -77 -237 -109 -280
-14 -19 -29 -39 -33 -45 -4 -5 -41 -49 -83 -97 -41 -47 -75 -90 -75 -95 0 -13
-44 -53 -57 -53 -15 0 -124 -122 -120 -135 5 -15 86 -18 103 -4 8 6 14 22 14
35 0 28 31 44 87 44 35 0 36 0 30 35 -3 19 -2 35 3 35 5 0 18 17 29 38 11 21
27 44 35 51 13 11 17 9 26 -14 5 -14 10 -46 10 -71 0 -33 4 -44 16 -44 14 0
14 -2 0 -22 -20 -28 -20 -45 -1 -82 11 -21 12 -32 4 -42 -20 -24 -3 -44 36
-42 42 1 61 -13 50 -39 -6 -17 -8 -16 -22 4 -11 16 -25 23 -49 23 -27 0 -34
-4 -34 -19 0 -11 9 -23 20 -26 11 -3 20 -13 20 -22 0 -8 16 -31 35 -50 25 -25
42 -34 62 -33 50 4 58 1 45 -12 -28 -28 1 -75 31 -50 9 8 16 6 25 -9 14 -22
67 -27 75 -6 3 6 6 0 6 -14 1 -15 8 -30 17 -33 33 -13 100 -5 132 14 22 14 50
20 87 20 30 0 55 5 55 10 0 6 7 10 15 10 8 0 15 6 15 13 0 6 5 4 11 -5 13 -23
67 -24 76 -2 8 21 -16 36 -48 30 -21 -4 -29 0 -37 19 -10 21 -8 25 10 31 15 4
26 -1 43 -21 17 -23 27 -27 48 -21 15 3 27 13 27 22 0 13 3 14 14 4 23 -18 59
-8 74 22 7 16 26 31 47 38 19 6 35 17 35 25 0 7 7 18 15 25 22 18 15 55 -10
55 -13 0 -21 -8 -23 -22 -3 -22 -22 -33 -22 -13 0 6 -5 10 -12 10 -6 0 -19 7
-29 16 -16 15 -28 14 -141 -10 -144 -29 -197 -36 -333 -40 -107 -3 -156 8
-173 41 -9 16 -7 19 16 18 21 0 28 5 30 23 2 12 -3 24 -10 27 -9 4 -12 21 -10
59 3 39 -2 67 -17 101 -12 26 -21 57 -21 69 0 12 -7 31 -15 44 -9 12 -22 42
-29 67 l-14 45 37 22 c20 13 50 30 66 38 26 13 30 21 33 62 2 25 10 52 18 58
7 7 14 27 14 44 1 17 7 42 15 56 8 14 14 45 15 68 0 36 -4 45 -20 49 -11 3
-20 11 -20 18 0 8 9 10 27 7 26 -5 26 -5 20 43 -4 26 -7 54 -7 61 0 9 -18 12
-64 12 l-64 0 -25 -52z m-76 -854 c-13 -2 -27 0 -32 5 -6 6 3 7 23 4 28 -4 29
-6 9 -9z m122 -248 c-4 -10 -8 -10 -18 -1 -9 9 -10 16 -2 25 8 10 12 10 18 1
4 -7 5 -18 2 -25z"/>
<path d="M48 931 c-3 -276 -5 -303 -20 -312 -20 -11 -24 -49 -8 -65 6 -6 14
-40 18 -76 8 -61 6 -67 -15 -86 -13 -11 -23 -32 -23 -46 0 -21 5 -26 25 -26
14 0 28 7 32 16 5 12 7 13 14 2 5 -7 2 -22 -7 -36 -8 -13 -12 -32 -9 -42 9
-27 62 -63 85 -57 11 3 27 -4 41 -19 26 -28 61 -31 80 -8 11 14 14 13 26 -10
15 -29 53 -35 75 -12 8 7 29 17 46 21 41 8 86 46 101 83 8 18 25 33 47 41 19
7 38 19 41 27 3 8 10 14 15 14 13 0 62 49 77 78 12 23 45 30 56 12 3 -5 0 -10
-8 -10 -25 0 -28 -30 -7 -58 l20 -25 -21 -23 c-18 -19 -20 -26 -10 -38 7 -8
19 -12 27 -9 10 4 14 -4 14 -30 0 -20 5 -39 10 -42 6 -3 10 -22 10 -41 0 -20
4 -43 10 -53 5 -10 25 -22 44 -25 19 -4 37 -13 40 -22 9 -22 65 -42 141 -50
l68 -7 -5 26 c-5 25 -5 25 49 20 45 -5 59 -2 83 16 16 11 36 21 45 21 38 0
138 36 158 57 12 12 28 23 35 23 6 0 12 4 12 9 0 5 14 14 30 20 19 6 30 17 30
29 0 11 -7 22 -15 26 -36 13 17 101 60 101 13 0 21 8 23 23 3 16 -2 22 -17 22
-11 0 -25 -8 -30 -18 -6 -9 -11 -11 -11 -4 0 16 -37 16 -43 0 -4 -10 -6 -10
-6 0 -1 6 -6 12 -13 12 -6 0 -19 7 -29 16 -10 9 -23 13 -28 9 -6 -3 -16 -26
-22 -51 -7 -27 -17 -44 -26 -44 -8 0 -21 -6 -29 -14 -9 -10 -26 -13 -47 -9
-19 3 -57 -3 -94 -16 -39 -13 -88 -21 -130 -21 -57 0 -73 4 -98 24 -24 20 -28
27 -17 37 19 20 15 60 -7 66 -16 4 -18 9 -11 31 5 15 16 89 25 164 8 75 19
148 25 163 5 14 10 37 10 51 0 16 8 28 25 36 14 6 25 18 25 26 0 7 -10 22 -22
32 -19 15 -21 21 -10 31 7 7 12 38 12 70 0 32 5 61 10 64 6 3 10 24 10 46 0
29 -7 47 -25 64 -13 14 -34 25 -45 25 -12 0 -28 7 -36 15 -38 37 -64 7 -129
-145 -25 -61 -49 -133 -52 -161 -3 -28 -12 -56 -18 -63 -14 -14 -55 -109 -89
-205 -19 -52 -28 -66 -54 -76 -17 -8 -50 -31 -74 -52 -24 -22 -64 -51 -90 -66
-25 -15 -60 -43 -77 -63 -18 -22 -35 -35 -44 -31 -8 3 -31 36 -52 74 l-37 68
7 120 c7 125 9 170 7 270 -1 33 -2 87 -2 120 -2 199 -3 205 -19 205 -9 0 -29
7 -46 16 -16 8 -48 18 -72 21 l-42 6 -3 -302z"/>
<path d="M1984 736 c-10 -26 4 -46 31 -46 23 0 26 4 23 28 -2 19 -9 28 -26 30
-13 2 -25 -3 -28 -12z"/>
<path d="M2804 356 c-9 -23 0 -51 16 -51 10 0 15 10 15 29 0 32 -21 47 -31 22z"/>
</g>
</svg>
