<?xml version="1.0" standalone="no"?>
<!DOCTYPE svg PUBLIC "-//W3C//DTD SVG 20010904//EN"
 "http://www.w3.org/TR/2001/REC-SVG-20010904/DTD/svg10.dtd">
<svg version="1.0" xmlns="http://www.w3.org/2000/svg"
 width="229.000000pt" height="764.000000pt" viewBox="0 0 229.000000 764.000000"
 preserveAspectRatio="xMidYMid meet">
<metadata>
Created by potrace 1.16, written by Peter Selinger 2001-2019
</metadata>
<g transform="translate(0.000000,764.000000) scale(0.100000,-0.100000)"
fill="#000000" stroke="none">
<path d="M995 4441 c-18 -10 -31 -27 -33 -42 -2 -13 -7 -33 -12 -44 -5 -11
-19 -76 -31 -145 -12 -69 -27 -140 -35 -159 -13 -32 -16 -33 -53 -27 -23 3
-42 2 -46 -4 -3 -5 -22 -10 -40 -10 -26 0 -43 -9 -68 -34 -33 -33 -48 -68 -39
-94 5 -16 31 -15 38 1 3 8 32 13 89 14 47 1 85 -2 85 -6 0 -4 -4 -11 -10 -17
-5 -5 -16 -48 -25 -94 -8 -47 -31 -143 -51 -215 -50 -178 -64 -241 -63 -300 0
-29 6 -58 15 -70 14 -18 13 -20 -7 -25 -14 -3 -26 -17 -32 -35 -5 -17 -16 -37
-23 -46 -8 -8 -20 -49 -29 -90 -19 -93 -32 -150 -52 -215 -9 -29 -14 -68 -11
-88 3 -28 0 -37 -14 -42 -10 -3 -18 -11 -18 -19 0 -7 -12 -28 -27 -45 -14 -18
-26 -44 -26 -59 0 -15 9 -37 21 -49 25 -25 27 -40 7 -66 -8 -10 -19 -44 -25
-75 -6 -31 -17 -70 -23 -88 -8 -24 -8 -39 1 -58 6 -14 18 -25 26 -25 8 0 18
-4 21 -10 4 -6 -6 -7 -25 -4 -26 6 -30 4 -30 -15 0 -11 -9 -26 -20 -33 -26
-17 -26 -48 1 -55 19 -5 18 -7 -11 -19 -31 -14 -32 -15 -28 -74 2 -44 -1 -63
-11 -69 -8 -6 -12 -19 -9 -35 3 -14 2 -26 -2 -26 -4 0 -10 -24 -14 -54 -3 -29
-13 -70 -21 -90 -20 -47 -88 -319 -114 -455 -11 -57 -24 -108 -29 -115 -11
-12 -28 -87 -38 -159 -3 -26 -10 -50 -15 -53 -5 -3 -9 -21 -9 -40 0 -19 -7
-49 -16 -66 -12 -24 -14 -36 -6 -49 9 -13 7 -19 -5 -23 -10 -4 -14 -15 -11
-31 3 -14 1 -25 -4 -25 -5 0 -8 -26 -7 -58 2 -42 -3 -70 -20 -105 -14 -31 -27
-92 -37 -170 -25 -201 -26 -231 -15 -260 10 -25 15 -28 48 -25 33 3 38 6 36
26 -2 17 2 22 21 22 19 0 22 -4 18 -25 -3 -18 0 -25 11 -25 8 0 20 -7 27 -15
20 -24 40 -17 47 15 3 17 15 35 25 41 15 8 19 18 14 39 -4 22 0 32 18 43 13 9
34 13 50 10 22 -5 28 -1 33 16 4 16 11 19 28 15 17 -4 26 0 34 14 7 13 23 22
44 24 25 2 33 8 35 26 3 17 -2 25 -17 29 -12 3 -21 7 -21 10 0 2 6 11 12 18 7
8 19 22 26 30 13 15 16 15 33 -1 15 -13 22 -14 33 -4 9 6 18 19 21 29 4 13 14
16 39 13 28 -3 35 0 41 17 4 13 15 21 28 21 12 0 28 9 35 20 7 11 19 20 26 20
8 0 27 11 43 24 15 13 39 26 53 30 49 14 100 41 100 54 0 17 42 32 90 32 50 0
70 8 70 29 0 10 12 21 33 26 27 9 32 14 30 38 -2 24 1 27 15 22 53 -23 113
-11 133 26 6 12 21 19 39 19 17 0 30 -4 30 -10 0 -12 57 -13 64 -1 3 5 26 18
52 30 32 15 44 27 42 39 -2 9 -14 18 -26 20 -13 2 -22 8 -20 14 4 11 8 11 43
2 14 -3 25 -10 25 -15 0 -5 8 -9 18 -9 13 0 25 14 36 43 12 27 20 37 23 27 8
-21 24 -30 56 -30 20 0 30 7 37 25 5 14 14 25 20 25 5 0 10 14 10 31 0 22 5
32 19 36 47 12 32 118 -22 154 -17 12 -53 44 -79 70 -51 53 -114 89 -153 89
-14 0 -25 -1 -25 -3 0 -2 7 -26 15 -54 8 -27 23 -57 33 -67 12 -10 17 -25 15
-39 -2 -12 3 -31 11 -42 13 -18 17 -18 37 -7 16 10 24 11 33 2 8 -9 5 -16 -13
-31 -13 -10 -29 -19 -36 -19 -7 0 -18 -7 -25 -15 -7 -8 -24 -15 -37 -15 -16 0
-27 -7 -30 -20 -3 -11 -9 -20 -14 -20 -5 0 -9 -9 -9 -20 0 -21 -4 -24 -52 -34
-17 -4 -28 -13 -29 -24 0 -13 -3 -11 -9 6 -11 25 -42 29 -60 7 -21 -25 -100
-55 -147 -55 -33 0 -49 -6 -66 -23 -29 -32 -60 -47 -92 -47 -15 0 -38 -9 -52
-20 -14 -11 -33 -20 -43 -20 -9 0 -25 -9 -35 -20 -10 -11 -28 -20 -39 -20 -12
0 -32 -9 -46 -20 -14 -11 -37 -20 -52 -20 -21 0 -28 -5 -28 -19 0 -11 -5 -23
-12 -27 -6 -4 -32 -7 -57 -7 -36 0 -50 -6 -73 -29 -15 -16 -28 -35 -28 -43 0
-16 -30 -35 -57 -35 -18 0 -136 -87 -198 -146 -16 -16 -37 -33 -46 -39 -8 -5
-36 -23 -62 -40 -36 -23 -46 -36 -47 -56 0 -24 -16 -39 -40 -39 -4 0 -10 13
-12 30 -3 18 0 30 7 30 15 0 75 54 75 67 0 5 6 23 14 39 7 16 16 51 20 77 5
42 3 51 -19 73 -20 20 -23 29 -15 44 5 10 10 30 10 44 0 16 7 27 20 31 15 5
20 15 20 41 0 24 -4 34 -16 34 -9 0 -14 6 -11 13 2 6 0 20 -5 30 -5 11 -5 17
2 17 5 0 19 20 31 44 11 25 32 52 45 61 30 19 32 55 3 62 -12 4 -18 11 -15 20
3 8 6 39 6 69 0 49 2 55 19 49 10 -3 23 1 30 9 15 18 5 56 -14 56 -20 0 -27
30 -10 46 8 9 15 22 15 30 0 7 9 19 20 26 16 10 20 24 20 63 0 43 3 52 23 60
20 9 22 17 21 73 -1 56 1 62 19 62 18 0 19 5 14 54 -5 50 -3 56 19 71 15 9 24
25 24 40 0 14 5 34 12 44 9 15 9 26 1 44 -10 20 -9 26 3 31 9 4 14 20 14 51 0
42 -2 45 -27 45 l-28 1 30 13 c17 7 40 24 52 37 21 24 46 103 35 114 -3 3 -23
5 -44 5 -23 0 -37 4 -33 10 3 5 18 7 33 4 16 -3 35 1 47 10 17 12 20 27 21 98
0 46 6 100 13 121 7 21 10 49 7 63 -6 21 1 33 32 63 30 29 51 40 88 46 27 4
60 13 74 20 14 7 43 15 65 19 109 18 165 30 165 38 0 4 26 8 59 8 32 0 86 9
120 20 35 11 121 31 192 44 71 14 134 28 139 31 6 4 10 13 10 21 0 19 16 18
24 -2 5 -14 15 -15 58 -10 62 9 88 21 89 44 0 13 3 11 9 -5 5 -13 13 -23 17
-23 25 0 79 23 122 51 50 31 66 53 55 70 -8 14 -56 11 -88 -6 -15 -8 -46 -15
-67 -15 -24 0 -39 -5 -39 -12 0 -6 -6 -4 -13 5 -6 10 -30 20 -51 24 -30 5 -42
2 -51 -11 -11 -14 -14 -15 -25 -1 -18 22 -51 19 -57 -5 -3 -11 -6 -20 -8 -20
-1 0 -16 7 -33 15 -38 19 -82 11 -82 -15 0 -29 -22 -36 -38 -12 -11 16 -25 22
-53 22 -32 0 -39 -4 -39 -19 0 -20 -25 -31 -72 -31 -15 0 -29 -4 -32 -9 -9
-14 -85 -51 -105 -51 -10 0 -22 7 -25 16 -5 14 -15 15 -53 10 -26 -3 -58 -14
-72 -23 -19 -13 -42 -16 -83 -14 -60 3 -59 4 -74 -47 -2 -8 -11 -6 -29 10 -20
17 -25 31 -25 70 0 55 40 253 74 366 13 42 34 100 46 128 16 35 21 60 16 78
-10 40 -37 29 -54 -23 l-15 -44 -18 34 c-17 33 -17 35 3 56 14 15 19 32 17 62
-2 22 0 43 4 47 4 4 7 20 7 36 0 15 5 37 10 48 6 11 15 29 20 40 6 11 10 30
10 42 0 13 9 29 20 36 11 6 25 32 31 57 6 25 15 48 20 51 5 3 9 23 9 44 0 38
1 39 26 30 31 -12 84 -13 103 -1 14 9 13 14 -14 60 -12 22 -12 26 6 39 10 7
19 24 19 37 0 25 35 65 56 65 7 0 16 -5 20 -11 4 -7 29 -10 67 -7 52 4 63 9
86 35 14 17 43 36 63 43 20 6 96 22 170 35 73 13 158 31 188 40 67 20 257 26
268 8 4 -6 33 -16 65 -22 90 -17 94 -20 102 -105 6 -69 4 -81 -19 -131 -20
-40 -35 -59 -59 -69 -43 -18 -91 -71 -84 -90 7 -18 34 -20 97 -5 31 7 46 7 48
0 8 -23 34 -9 48 24 9 22 21 35 33 35 27 0 43 24 40 59 -3 21 3 34 20 48 22
18 23 21 13 118 -9 89 -12 101 -36 122 -15 13 -34 23 -42 23 -8 0 -14 10 -14
23 0 12 -4 27 -8 32 -4 6 -29 25 -56 44 -32 22 -61 34 -85 35 -20 1 -41 7 -47
15 -9 12 -54 17 -200 22 -120 5 -195 4 -207 -3 -10 -5 -22 -7 -25 -3 -4 3 -5
21 -3 40 l2 34 -78 -6 c-43 -3 -83 -10 -88 -17 -17 -18 -53 -36 -74 -36 -11 0
-22 -4 -26 -9 -3 -5 -30 -15 -60 -21 -37 -8 -61 -19 -74 -36 -11 -14 -21 -29
-23 -34 -2 -5 -14 -7 -27 -3 -23 6 -24 7 -17 97 4 50 12 106 19 124 9 27 9 35
-3 42 -23 15 -82 10 -115 -9z m-235 -1275 c0 -3 -4 -8 -10 -11 -5 -3 -10 -1
-10 4 0 6 5 11 10 11 6 0 10 -2 10 -4z m689 -2298 c13 -34 2 -42 -20 -14 -23
29 -24 36 -4 36 9 0 19 -10 24 -22z"/>
<path d="M867 3514 c-4 -4 -7 -16 -7 -26 0 -10 -9 -26 -20 -35 -11 -10 -20
-25 -20 -35 0 -22 41 -33 69 -19 26 15 53 66 49 94 -2 16 -11 23 -33 25 -17 2
-34 0 -38 -4z"/>
<path d="M824 3336 c-10 -26 4 -46 31 -46 23 0 26 4 23 28 -2 19 -9 28 -26 30
-13 2 -25 -3 -28 -12z"/>
<path d="M1900 3232 c0 -21 5 -43 12 -50 7 -7 30 -12 53 -12 35 0 42 -4 52
-27 7 -16 22 -40 34 -55 20 -24 21 -31 12 -75 -6 -26 -17 -63 -24 -81 -11 -26
-11 -36 -1 -52 15 -24 16 -76 1 -86 -6 -3 -8 -17 -4 -32 3 -14 2 -28 -3 -31
-5 -3 -16 -27 -24 -52 -13 -39 -14 -50 -2 -78 12 -28 12 -38 -1 -67 -8 -19
-25 -39 -39 -46 -17 -7 -26 -19 -26 -35 0 -30 29 -42 45 -20 11 15 14 16 25 2
17 -21 41 -19 47 4 3 11 11 22 19 25 9 4 14 23 15 58 0 29 4 62 8 72 7 19 8
19 14 -3 4 -15 12 -22 24 -19 13 2 19 14 21 40 3 30 -1 38 -20 44 l-23 8 25 6
c34 8 40 54 10 85 -14 15 -18 25 -11 30 6 3 11 20 11 36 0 22 6 32 25 39 17 7
25 17 25 34 0 14 -4 27 -9 30 -4 3 -6 16 -4 30 3 13 0 27 -6 30 -6 4 -11 35
-11 71 0 47 -4 64 -15 69 -10 4 -14 13 -10 29 11 43 -59 102 -80 67 -4 -6 -15
-4 -29 5 -20 13 -110 45 -128 45 -5 0 -8 -17 -8 -38z m197 -358 c-3 -3 -12 -4
-19 -1 -8 3 -5 6 6 6 11 1 17 -2 13 -5z"/>
<path d="M280 161 c-8 -15 -8 -27 0 -42 16 -29 35 -18 35 21 0 39 -19 50 -35
21z"/>
<path d="M0 20 c0 -13 7 -20 20 -20 13 0 20 7 20 20 0 13 -7 20 -20 20 -13 0
-20 -7 -20 -20z"/>
</g>
</svg>
