<?xml version="1.0" standalone="no"?>
<!DOCTYPE svg PUBLIC "-//W3C//DTD SVG 20010904//EN"
 "http://www.w3.org/TR/2001/REC-SVG-20010904/DTD/svg10.dtd">
<svg version="1.0" xmlns="http://www.w3.org/2000/svg"
 width="274.000000pt" height="764.000000pt" viewBox="0 0 274.000000 764.000000"
 preserveAspectRatio="xMidYMid meet">
<metadata>
Created by potrace 1.16, written by Peter Selinger 2001-2019
</metadata>
<g transform="translate(0.000000,764.000000) scale(0.100000,-0.100000)"
fill="#000000" stroke="none">
<path d="M604 3105 c-3 -8 -2 -27 3 -42 7 -21 5 -39 -10 -73 -11 -25 -26 -52
-33 -61 -8 -8 -14 -28 -14 -43 0 -15 -7 -38 -16 -51 -11 -18 -14 -35 -9 -65 5
-30 3 -44 -9 -56 -22 -21 -20 -57 4 -79 25 -23 43 -79 35 -107 -4 -13 -14 -31
-23 -41 -9 -10 -17 -30 -19 -45 -7 -69 -107 -396 -137 -452 -24 -43 -75 -251
-86 -349 -6 -51 -13 -98 -16 -103 -3 -5 -10 -38 -15 -73 -5 -35 -15 -79 -23
-97 -19 -44 -62 -198 -77 -273 -6 -33 -22 -94 -34 -135 -13 -41 -31 -129 -40
-195 -9 -66 -30 -192 -46 -280 -21 -111 -32 -207 -36 -311 -6 -148 -5 -152 16
-163 12 -7 42 -11 67 -9 l45 3 28 70 c20 50 36 122 54 256 15 102 36 225 48
274 11 49 19 107 17 130 -2 22 2 51 9 65 16 30 17 86 3 95 -8 5 -8 11 -1 19 9
11 26 76 52 201 19 96 42 171 55 186 8 8 14 25 14 36 0 20 51 73 70 73 13 0
40 30 40 45 0 7 -9 15 -20 18 -13 3 -20 14 -20 30 0 13 -9 36 -20 49 -10 14
-17 27 -15 29 2 3 9 54 15 114 8 77 18 126 36 164 13 29 24 71 24 93 0 22 12
83 26 136 14 54 36 140 49 192 13 52 37 138 53 191 17 52 35 138 41 190 22
194 31 302 31 379 l0 80 -55 0 c-40 0 -57 -4 -61 -15z"/>
<path d="M2700 3011 c0 -10 -7 -24 -15 -31 -8 -7 -15 -20 -15 -30 0 -11 -10
-20 -26 -24 -15 -4 -42 -19 -60 -33 -32 -24 -34 -29 -34 -83 0 -32 -7 -75 -16
-96 -13 -32 -14 -47 -5 -89 10 -43 9 -56 -5 -85 -10 -18 -20 -68 -24 -109 -4
-42 -13 -87 -21 -100 -12 -20 -12 -24 3 -34 15 -10 14 -15 -8 -59 -17 -33 -30
-48 -44 -48 -28 0 -36 -27 -16 -49 10 -11 16 -35 16 -62 0 -42 -3 -47 -32 -60
-18 -8 -34 -22 -36 -31 -2 -9 6 -26 17 -37 l20 -20 -29 -63 c-30 -63 -39 -131
-20 -143 6 -4 -2 -21 -20 -41 -35 -40 -39 -78 -10 -94 11 -6 20 -20 20 -31 0
-29 -18 -59 -35 -59 -20 0 -20 -54 1 -85 14 -22 14 -25 1 -25 -19 0 -27 -21
-27 -76 0 -24 -4 -44 -10 -44 -14 0 -29 -66 -36 -165 -4 -50 -13 -99 -20 -110
-19 -26 -18 -60 3 -80 15 -16 15 -20 -4 -59 -24 -48 -37 -108 -55 -251 -15
-114 -14 -323 2 -339 7 -7 16 -7 28 2 30 21 41 24 68 18 21 -6 23 -10 14 -21
-14 -17 -10 -67 6 -72 7 -2 19 3 27 12 9 8 20 15 26 15 28 0 21 49 -8 51 -10
0 -11 2 -3 6 14 6 16 39 2 48 -5 3 -10 21 -10 40 0 22 6 37 18 44 14 8 17 25
18 88 1 43 6 101 12 128 19 87 34 179 35 225 2 42 1 45 -23 42 l-25 -2 24 14
c14 7 28 22 32 32 4 11 8 47 8 82 1 43 -3 62 -11 62 -7 0 -3 8 9 18 25 19 41
76 24 86 -6 4 -3 14 10 27 16 16 20 32 19 77 -2 71 16 246 30 292 5 19 10 71
9 115 -1 67 3 87 22 119 17 28 24 58 26 105 1 36 3 68 4 71 1 3 3 21 5 40 3
39 26 140 35 155 11 18 47 158 63 250 9 50 20 131 25 180 5 50 14 102 20 115
11 27 41 222 41 270 0 23 -4 30 -20 30 -13 0 -20 -7 -20 -19z"/>
<path d="M2594 2986 c-9 -24 4 -48 23 -44 12 2 18 12 18 28 0 29 -32 41 -41
16z"/>
<path d="M2365 2070 c-9 -15 14 -40 31 -33 8 3 14 14 14 24 0 12 -7 19 -19 19
-11 0 -23 -5 -26 -10z"/>
<path d="M860 1621 c-29 -8 -39 -38 -15 -48 16 -5 15 -8 -5 -23 -15 -11 -21
-23 -17 -34 10 -25 93 -21 142 8 32 18 40 28 40 52 0 25 -4 29 -30 32 -16 2
-34 8 -39 13 -11 10 -39 10 -76 0z"/>
<path d="M681 1611 c-8 -5 -12 -18 -8 -29 2 -12 0 -23 -6 -25 -6 -2 -8 -11 -4
-20 5 -14 20 -17 72 -17 41 0 65 4 65 11 0 16 -75 89 -91 89 -8 0 -20 -4 -28
-9z"/>
<path d="M593 1584 c-3 -9 0 -19 6 -24 10 -5 9 -9 -3 -13 -32 -12 -11 -87 23
-87 15 0 21 10 26 41 5 30 3 44 -6 50 -10 6 -11 9 -1 9 6 0 12 9 12 20 0 15
-7 20 -25 20 -14 0 -28 -7 -32 -16z"/>
<path d="M500 1543 c0 -26 44 -78 58 -69 17 10 15 32 -4 61 -19 29 -54 34 -54
8z"/>
<path d="M1064 1506 c-10 -25 0 -51 24 -61 15 -7 22 -18 22 -37 0 -26 3 -28
40 -28 22 0 40 -4 40 -8 0 -7 20 -31 111 -129 16 -18 40 -35 54 -39 28 -7 82
1 105 16 12 8 11 12 -7 32 -15 16 -20 31 -16 49 4 20 -2 32 -27 52 -17 15 -36
27 -42 27 -5 0 -12 -8 -15 -18 -3 -14 -11 -18 -29 -14 -20 4 -24 10 -24 43 0
32 -3 39 -20 39 -11 0 -20 -4 -20 -10 0 -17 -71 32 -80 56 -5 12 -18 28 -29
33 -29 16 -81 14 -87 -3z"/>
<path d="M1473 1163 c-4 -11 1 -22 15 -31 14 -9 22 -25 22 -44 0 -17 6 -42 14
-56 7 -15 19 -39 26 -53 7 -15 30 -36 51 -48 24 -14 39 -30 39 -42 0 -10 -5
-19 -11 -19 -18 0 -5 -45 14 -48 10 -2 29 4 42 12 35 23 33 69 -5 126 -16 25
-30 51 -30 58 0 6 -4 12 -9 12 -5 0 -11 9 -14 20 -3 11 -12 20 -19 20 -8 0
-20 11 -26 25 -7 14 -23 30 -36 36 -13 6 -27 20 -29 30 -6 24 -35 25 -44 2z"/>
<path d="M1674 776 c-3 -8 -2 -21 3 -28 4 -7 8 -22 8 -33 0 -13 8 -21 23 -23
14 -2 22 2 22 12 0 8 7 19 16 24 9 5 14 18 12 33 -2 20 -10 25 -41 27 -26 2
-39 -1 -43 -12z"/>
<path d="M1664 652 c-18 -12 -44 -56 -44 -74 0 -28 36 -31 79 -6 23 13 43 28
45 35 3 6 -1 18 -7 26 -14 17 -58 29 -73 19z"/>
<path d="M1505 530 c-33 -16 -112 -40 -175 -54 -125 -28 -371 -66 -424 -66
-18 0 -41 -6 -52 -14 -15 -12 -17 -17 -6 -27 6 -7 12 -23 12 -35 0 -26 11 -36
73 -58 38 -14 51 -15 62 -6 8 7 30 16 48 19 37 8 48 36 18 46 -33 10 -24 23
21 30 34 6 44 4 54 -11 25 -36 34 -43 49 -38 8 4 15 12 15 19 0 8 8 11 19 8
13 -3 23 2 30 16 9 16 21 21 56 21 24 0 47 5 50 10 4 6 12 4 21 -5 20 -19 60
-19 68 0 3 10 19 15 42 15 25 0 54 11 86 31 41 27 48 36 48 64 0 74 -20 80
-115 35z"/>
<path d="M390 381 c0 -24 13 -33 35 -25 23 9 14 38 -13 42 -16 3 -22 -2 -22
-17z"/>
<path d="M654 379 c-3 -6 -21 -9 -38 -6 -39 6 -56 0 -56 -20 0 -10 -6 -12 -20
-8 -11 3 -27 2 -37 -3 -11 -7 -23 -6 -34 1 -9 5 -23 7 -32 4 -12 -5 -16 -20
-16 -65 l1 -60 36 -6 c56 -9 62 -8 62 14 0 21 15 27 25 10 8 -14 21 -13 37 3
7 8 34 17 60 20 26 4 64 13 84 22 34 14 36 17 30 47 -3 17 -11 37 -17 45 -14
16 -75 17 -85 2z"/>
<path d="M272 344 c2 -10 17 -25 33 -33 17 -7 40 -23 52 -34 28 -25 53 -16 53
21 0 21 -7 32 -26 41 -15 6 -47 14 -71 18 -40 5 -45 4 -41 -13z"/>
<path d="M803 334 c-3 -8 -1 -20 5 -26 16 -16 42 -2 42 22 0 13 -7 20 -20 20
-11 0 -23 -7 -27 -16z"/>
</g>
</svg>
