<?xml version="1.0" standalone="no"?>
<!DOCTYPE svg PUBLIC "-//W3C//DTD SVG 20010904//EN"
 "http://www.w3.org/TR/2001/REC-SVG-20010904/DTD/svg10.dtd">
<svg version="1.0" xmlns="http://www.w3.org/2000/svg"
 width="192.000000pt" height="764.000000pt" viewBox="0 0 192.000000 764.000000"
 preserveAspectRatio="xMidYMid meet">
<metadata>
Created by potrace 1.16, written by Peter Selinger 2001-2019
</metadata>
<g transform="translate(0.000000,764.000000) scale(0.100000,-0.100000)"
fill="#000000" stroke="none">
<path d="M726 3383 c-4 -4 -23 -6 -42 -4 -20 1 -45 -4 -59 -13 -15 -10 -26
-12 -30 -6 -9 14 -52 12 -62 -2 -4 -7 -21 -13 -38 -13 -20 0 -33 -7 -40 -21
-6 -12 -16 -28 -23 -37 -7 -8 -11 -25 -10 -38 2 -17 -5 -27 -24 -37 -16 -7
-28 -21 -28 -32 0 -15 10 -19 63 -24 34 -3 148 -8 252 -10 105 -3 204 -8 221
-12 21 -4 36 -1 46 10 14 14 19 13 54 -4 21 -11 56 -20 79 -20 49 0 110 16
123 33 5 6 12 45 16 85 6 67 5 72 -13 72 -11 0 -32 7 -48 17 -27 15 -32 15
-63 0 -18 -10 -41 -17 -50 -17 -22 0 -35 -17 -44 -53 -10 -40 -26 -23 -26 27
0 24 -6 48 -12 54 -17 13 -74 24 -125 24 -26 1 -44 6 -47 14 -6 15 -57 19 -70
7z"/>
<path d="M261 2652 c-36 -40 -33 -26 -43 -238 -2 -30 -10 -60 -19 -70 -26 -30
-39 -61 -38 -91 0 -15 -4 -48 -11 -72 -7 -31 -8 -47 0 -56 7 -8 7 -15 1 -19
-11 -7 -41 -133 -41 -175 0 -16 -8 -43 -17 -59 -15 -25 -16 -37 -7 -71 8 -28
8 -43 0 -51 -6 -6 -11 -51 -11 -105 0 -80 -2 -96 -16 -100 -25 -8 -33 -37 -15
-51 17 -12 21 -49 7 -59 -5 -3 -10 -41 -10 -84 0 -44 -7 -99 -16 -123 -19 -55
-19 -68 2 -68 15 0 15 -1 0 -18 -19 -21 -22 -43 -8 -57 5 -6 11 -31 13 -57 2
-38 0 -48 -14 -52 -25 -6 -22 -34 4 -55 21 -18 21 -19 4 -55 -13 -28 -16 -53
-13 -99 3 -34 12 -87 21 -117 9 -30 19 -99 23 -153 5 -80 10 -103 30 -129 12
-18 23 -42 23 -55 0 -13 11 -34 25 -47 17 -16 25 -34 25 -58 0 -25 10 -48 36
-81 31 -39 42 -47 70 -47 23 0 37 -6 44 -20 7 -13 21 -20 40 -20 19 0 33 -7
40 -20 6 -11 18 -20 28 -20 25 0 122 82 122 103 0 9 5 17 10 17 6 0 10 -4 10
-10 0 -22 30 -8 45 20 9 17 20 30 26 30 5 0 15 13 20 29 7 19 23 34 51 47 40
18 88 75 88 105 0 9 11 28 24 42 14 15 26 39 28 54 2 22 8 27 24 25 29 -4 64
41 64 82 0 20 7 36 20 44 11 7 20 19 20 27 0 8 13 21 30 30 16 8 36 28 44 43
8 16 22 34 30 41 9 7 18 28 22 46 4 25 13 36 35 44 32 11 38 35 13 62 -10 11
-13 25 -9 39 5 16 10 19 20 10 8 -6 24 -10 36 -8 16 2 26 15 37 51 14 44 14
51 -1 82 l-16 34 27 3 c19 2 28 10 30 25 2 16 9 21 29 20 14 -1 30 5 36 15 8
12 7 23 -3 43 -16 29 -65 59 -80 50 -6 -3 -10 -17 -10 -30 0 -13 -4 -27 -10
-30 -5 -3 -10 -14 -10 -24 0 -11 -9 -21 -21 -24 -17 -5 -20 -11 -15 -30 4 -19
1 -26 -14 -30 -11 -3 -27 -22 -35 -42 -9 -20 -30 -45 -49 -56 -34 -20 -57 -59
-79 -139 -11 -40 -16 -45 -45 -48 -23 -2 -32 -8 -32 -21 0 -24 -59 -131 -76
-138 -8 -3 -27 -26 -41 -52 -15 -25 -55 -79 -88 -119 -33 -40 -79 -96 -103
-125 -23 -29 -56 -80 -72 -113 l-30 -61 -71 -7 c-65 -7 -74 -5 -109 18 -27 18
-40 34 -42 53 -2 22 -9 29 -29 31 -24 3 -27 7 -32 63 -3 33 -10 65 -16 72 -5
7 -8 22 -5 34 3 11 -1 34 -10 51 -9 17 -16 49 -16 72 0 36 -3 40 -24 40 -23 0
-24 1 -11 26 16 32 5 78 -25 102 l-22 18 26 31 c26 31 34 77 16 88 -7 4 -7 13
0 26 6 11 10 41 10 67 -1 26 -1 80 0 121 0 41 -3 78 -9 84 -6 6 -5 18 5 33 9
12 17 53 20 91 3 37 14 158 26 268 11 110 22 244 24 297 1 54 8 107 15 120 6
12 13 47 14 77 1 31 4 63 7 71 3 8 15 53 28 100 12 47 26 96 30 110 5 14 11
90 14 170 4 106 3 152 -7 169 -6 14 -16 26 -22 28 -5 1 -25 -14 -44 -35z"/>
<path d="M1603 2338 c-38 -18 -41 -58 -5 -58 12 -1 8 -6 -10 -16 -29 -15 -43
-49 -36 -87 3 -13 -2 -29 -10 -37 -11 -10 -13 -27 -9 -68 4 -34 1 -61 -6 -73
-10 -16 -9 -25 5 -49 16 -29 16 -30 -5 -41 -27 -14 -37 -28 -37 -51 0 -13 8
-18 33 -19 27 0 29 -2 11 -9 -24 -10 -57 -78 -52 -111 2 -14 12 -25 25 -29 17
-4 20 -9 13 -20 -15 -23 -12 -67 5 -74 22 -8 18 -24 -13 -56 -22 -21 -32 -26
-45 -18 -10 5 -26 6 -37 3 -25 -8 -27 -50 -2 -64 15 -9 15 -10 0 -11 -9 0 -30
-12 -47 -26 -37 -31 -43 -79 -11 -89 23 -7 40 1 40 20 0 7 10 15 23 17 16 2
23 11 25 31 3 21 9 27 27 27 13 0 26 6 28 13 4 8 6 8 6 0 1 -6 -8 -32 -19 -58
-21 -50 -26 -118 -10 -159 8 -21 5 -31 -16 -56 -18 -21 -25 -38 -21 -56 2 -13
0 -27 -5 -30 -5 -3 -8 -29 -7 -57 1 -29 -4 -99 -9 -157 -13 -127 -11 -166 10
-182 9 -7 21 -29 25 -48 7 -25 15 -36 31 -38 20 -3 22 1 22 46 0 28 3 59 7 69
6 15 8 13 13 -11 3 -16 13 -34 22 -40 14 -8 21 -7 34 6 12 12 18 41 21 115 2
54 1 113 -2 130 -5 28 -10 33 -35 33 -31 0 -50 -22 -50 -60 0 -13 -4 -19 -11
-14 -15 9 -5 115 14 150 12 23 15 24 26 10 8 -9 20 -16 29 -16 12 0 14 12 8
74 -5 59 -4 75 9 86 8 7 15 26 15 42 0 21 -6 31 -19 35 -19 5 -19 5 0 36 10
18 19 47 19 65 0 20 6 35 15 38 22 9 18 27 -10 54 -14 13 -25 27 -25 32 0 4
11 8 25 8 29 0 43 25 28 49 -6 10 -7 24 -3 32 4 8 10 42 14 77 5 51 2 68 -14
95 -11 17 -20 40 -20 49 0 9 -7 21 -16 26 -11 6 -13 11 -5 16 6 4 14 0 17 -8
3 -9 16 -16 28 -17 11 0 15 -3 9 -6 -18 -7 -16 -50 3 -57 9 -3 20 -4 25 0 13
8 11 54 -3 54 -9 0 -9 3 0 12 16 16 15 65 -2 71 -8 3 -24 3 -37 0 -19 -5 -21
-3 -14 13 4 10 12 46 17 79 4 33 13 76 18 95 11 38 14 239 4 264 -7 18 -38 20
-71 4z m-126 -1584 c-3 -3 -12 -4 -19 -1 -8 3 -5 6 6 6 11 1 17 -2 13 -5z"/>
<path d="M1690 2211 c0 -11 6 -21 13 -24 20 -7 37 4 37 24 0 14 -7 19 -25 19
-18 0 -25 -5 -25 -19z"/>
<path d="M1690 2075 c-16 -41 -12 -65 9 -65 26 0 43 24 39 57 -4 38 -35 43
-48 8z"/>
<path d="M1447 1643 c-4 -3 -7 -15 -7 -25 0 -11 7 -18 19 -18 26 0 36 17 21
35 -14 16 -23 19 -33 8z"/>
<path d="M1345 1260 c-3 -6 -3 -19 0 -31 10 -29 39 -20 43 14 3 21 -1 27 -17
27 -11 0 -23 -5 -26 -10z"/>
<path d="M1836 1235 c-9 -9 -16 -20 -16 -24 0 -14 26 -31 58 -37 29 -6 32 -4
32 17 0 31 -10 45 -36 53 -14 4 -28 1 -38 -9z"/>
<path d="M1836 1154 c-18 -18 -20 -47 -6 -75 12 -21 40 -25 58 -7 7 7 12 27
12 45 0 22 -6 36 -19 43 -25 13 -27 13 -45 -6z"/>
<path d="M1824 1042 c-9 -5 -9 -24 -3 -66 6 -32 14 -68 20 -79 8 -14 8 -22 -1
-27 -8 -5 -12 -29 -11 -65 0 -32 -5 -76 -13 -99 -8 -22 -17 -72 -20 -111 -9
-89 8 -373 23 -388 14 -14 14 -64 1 -72 -15 -9 -12 -51 5 -65 8 -7 15 -20 15
-29 0 -22 19 -41 42 -41 11 0 18 7 18 19 0 11 5 23 10 26 13 8 4 473 -9 489
-5 6 -5 20 0 31 4 11 8 108 8 215 1 166 -2 199 -15 220 -17 26 -43 50 -53 50
-3 0 -11 -4 -17 -8z"/>
<path d="M1543 613 c-4 -10 -11 -21 -17 -25 -7 -5 -7 -18 2 -41 17 -47 15 -62
-9 -79 -19 -12 -21 -18 -12 -43 11 -35 38 -54 53 -39 6 6 12 24 13 39 1 16 10
37 20 47 11 12 17 34 17 62 0 25 -4 48 -10 51 -5 3 -10 15 -10 26 0 24 -38 26
-47 2z"/>
<path d="M1542 268 c-18 -23 -23 -74 -12 -122 9 -43 9 -49 -11 -65 -16 -12
-20 -23 -15 -39 9 -26 23 -28 54 -6 16 11 21 24 20 47 -1 18 2 69 7 115 7 78
7 82 -12 82 -12 0 -25 -6 -31 -12z"/>
</g>
</svg>
