<?xml version="1.0" standalone="no"?>
<!DOCTYPE svg PUBLIC "-//W3C//DTD SVG 20010904//EN"
 "http://www.w3.org/TR/2001/REC-SVG-20010904/DTD/svg10.dtd">
<svg version="1.0" xmlns="http://www.w3.org/2000/svg"
 width="194.000000pt" height="627.000000pt" viewBox="0 0 194.000000 627.000000"
 preserveAspectRatio="xMidYMid meet">
<metadata>
Created by potrace 1.16, written by Peter Selinger 2001-2019
</metadata>
<g transform="translate(0.000000,627.000000) scale(0.100000,-0.100000)"
fill="#000000" stroke="none">
<path d="M1460 3120 c-8 -5 -33 -10 -54 -10 -25 0 -55 -10 -86 -29 -32 -20
-51 -26 -58 -19 -14 14 -52 -8 -52 -32 0 -10 6 -20 12 -22 8 -3 4 -10 -11 -17
-17 -9 -26 -10 -34 -2 -6 6 -18 11 -27 11 -8 0 -49 -28 -90 -63 -54 -45 -75
-70 -76 -88 -3 -54 -4 -58 -19 -53 -21 8 -61 -20 -79 -55 -8 -15 -40 -54 -71
-85 -30 -32 -66 -79 -80 -106 -14 -27 -29 -51 -34 -55 -17 -10 -72 -96 -96
-149 -12 -28 -41 -75 -64 -105 -22 -30 -41 -60 -41 -67 0 -6 -7 -18 -17 -25
-25 -22 -81 -145 -88 -197 -5 -36 -12 -50 -28 -57 -18 -8 -22 -19 -23 -54 -1
-29 -6 -46 -17 -52 -19 -11 -47 -65 -47 -90 0 -10 -11 -34 -24 -54 -13 -19
-27 -54 -31 -78 -5 -27 -19 -55 -41 -79 -18 -20 -38 -56 -45 -80 -6 -24 -17
-56 -24 -73 -19 -43 -55 -164 -55 -182 0 -9 8 -22 17 -29 16 -11 17 -16 5 -46
-8 -18 -18 -55 -24 -82 -5 -28 -21 -70 -34 -95 -17 -32 -24 -62 -24 -98 0 -29
5 -53 10 -53 6 0 10 -15 10 -34 0 -19 -4 -38 -10 -41 -13 -8 -13 -92 0 -100 5
-3 10 -25 10 -49 0 -23 7 -51 15 -62 8 -10 15 -29 15 -41 0 -12 8 -27 18 -32
11 -6 23 -31 30 -61 9 -38 25 -67 62 -108 43 -49 61 -61 122 -82 52 -18 76
-32 84 -49 7 -13 18 -28 26 -32 21 -13 78 -11 78 4 0 9 2 9 8 0 11 -17 69 -39
122 -47 25 -4 66 -2 92 2 35 7 54 6 74 -4 34 -18 59 -18 74 1 9 11 16 13 24 5
5 -5 23 -10 39 -10 20 0 30 6 34 19 3 14 20 21 66 29 56 9 63 9 76 -9 7 -10
19 -19 26 -19 8 0 23 12 35 28 14 18 23 23 26 15 3 -7 12 -13 20 -13 8 0 45
16 81 35 36 19 72 35 80 35 8 0 26 9 41 20 17 12 60 26 111 34 45 7 86 17 89
23 4 5 15 12 25 16 9 3 17 14 17 23 0 16 2 15 20 -1 20 -18 21 -18 38 -1 16
16 16 18 0 30 -10 7 -15 16 -11 19 10 11 53 8 53 -3 0 -5 9 -10 20 -10 14 0
27 16 46 55 15 30 35 57 46 60 10 4 18 10 18 15 0 5 10 10 23 12 16 2 23 11
25 31 2 15 -1 27 -7 27 -6 0 -11 14 -11 30 0 17 -5 30 -11 30 -5 0 -31 -16
-56 -35 -25 -19 -52 -35 -59 -35 -7 0 -25 -11 -41 -24 -15 -13 -45 -29 -65
-35 -21 -7 -46 -22 -55 -35 -10 -12 -26 -20 -36 -18 -10 2 -33 -3 -52 -12 -18
-9 -44 -16 -58 -16 -40 0 -74 -17 -80 -39 -3 -14 -13 -21 -29 -21 -13 0 -29
-5 -35 -11 -6 -6 -61 -14 -122 -17 -62 -2 -114 -9 -117 -13 -3 -5 -12 -9 -20
-9 -8 0 -40 -12 -70 -26 -29 -14 -62 -23 -71 -20 -10 3 -81 10 -158 16 -150
10 -255 34 -338 77 -90 45 -193 171 -227 278 -20 62 -22 83 -16 180 7 137 17
192 66 375 21 80 41 161 44 181 4 21 13 42 21 49 8 7 15 26 15 42 0 16 7 36
15 44 8 9 15 25 15 37 0 12 7 31 15 41 8 11 15 28 15 38 0 10 4 26 9 36 43 81
71 144 77 177 4 22 13 46 21 53 7 7 13 24 13 38 0 13 4 24 9 24 5 0 14 14 22
31 7 18 23 45 37 61 17 20 22 35 18 52 -5 20 -2 25 16 28 16 2 24 12 29 35 3
17 16 43 28 58 11 15 21 34 21 42 0 8 16 38 35 67 19 29 35 60 35 68 0 8 9 23
20 33 11 10 20 31 20 47 0 21 6 31 24 38 23 8 46 54 46 91 0 12 14 25 37 36
21 10 39 27 42 38 2 10 38 54 80 96 42 42 88 95 103 117 37 57 137 137 200
160 29 11 88 25 130 32 71 12 79 11 110 -8 18 -11 57 -25 86 -32 62 -14 87
-44 84 -96 -2 -19 2 -34 8 -34 5 0 10 -8 10 -19 0 -10 7 -24 15 -31 8 -7 15
-23 15 -36 0 -12 5 -26 10 -29 6 -3 10 -29 10 -56 0 -57 13 -89 37 -89 14 0
13 -4 -5 -20 -12 -12 -22 -30 -22 -41 0 -11 -14 -46 -30 -79 -17 -33 -31 -71
-32 -84 -2 -16 -10 -27 -24 -30 -12 -3 -42 -22 -65 -42 -24 -20 -61 -47 -81
-61 -21 -13 -38 -30 -38 -38 0 -21 29 -31 51 -17 53 33 119 60 161 67 27 4 45
15 63 39 14 18 25 43 25 54 0 12 4 22 9 22 10 0 61 104 61 125 0 7 6 15 14 18
11 5 14 28 14 109 -1 57 -6 106 -11 109 -5 4 -20 48 -33 100 -14 51 -31 100
-38 108 -8 9 -21 33 -30 54 -9 22 -25 41 -41 47 -14 5 -25 16 -25 24 0 18 -49
46 -80 46 -11 0 -37 9 -57 20 -21 11 -46 20 -55 20 -10 0 -18 5 -18 10 0 13
-70 13 -90 0z"/>
</g>
</svg>
