<?xml version="1.0" standalone="no"?>
<!DOCTYPE svg PUBLIC "-//W3C//DTD SVG 20010904//EN"
 "http://www.w3.org/TR/2001/REC-SVG-20010904/DTD/svg10.dtd">
<svg version="1.0" xmlns="http://www.w3.org/2000/svg"
 width="486.000000pt" height="627.000000pt" viewBox="0 0 486.000000 627.000000"
 preserveAspectRatio="xMidYMid meet">
<metadata>
Created by potrace 1.16, written by Peter Selinger 2001-2019
</metadata>
<g transform="translate(0.000000,627.000000) scale(0.100000,-0.100000)"
fill="#000000" stroke="none">
<path d="M997 5223 c-3 -5 -21 -71 -41 -148 -20 -76 -47 -160 -60 -185 -13
-25 -27 -56 -31 -70 -4 -14 -18 -47 -30 -75 -26 -58 -39 -104 -65 -232 -10
-50 -23 -99 -28 -110 -12 -22 -47 -168 -68 -283 -9 -47 -24 -105 -35 -129 -11
-24 -22 -63 -26 -85 -3 -23 -12 -45 -20 -51 -14 -10 -46 -133 -83 -320 -12
-60 -31 -139 -42 -174 -11 -35 -17 -73 -14 -84 3 -13 -10 -51 -34 -100 -22
-44 -40 -87 -40 -97 0 -9 -9 -43 -20 -76 -29 -83 -90 -386 -90 -445 0 -29 -4
-49 -11 -49 -7 0 -9 -10 -7 -25 3 -14 -1 -30 -8 -36 -8 -6 -14 -21 -14 -33 0
-11 -6 -33 -14 -48 -8 -14 -17 -50 -21 -80 -4 -29 -12 -56 -17 -59 -16 -10
-21 -79 -8 -105 12 -22 11 -26 -8 -40 -14 -9 -22 -26 -22 -43 0 -15 -5 -32
-12 -39 -6 -6 -10 -32 -9 -57 1 -25 2 -53 2 -62 1 -10 -6 -43 -15 -73 -9 -30
-20 -99 -26 -153 -12 -116 -27 -182 -46 -198 -16 -13 -19 -55 -4 -64 13 -8 13
-82 0 -90 -13 -8 -13 -52 0 -60 6 -4 3 -16 -10 -32 -21 -27 -27 -87 -10 -98 8
-5 7 -11 -1 -21 -15 -18 -3 -137 18 -177 8 -16 27 -33 43 -38 16 -6 31 -17 34
-25 3 -8 16 -14 29 -14 54 0 83 -12 100 -42 12 -21 23 -29 39 -26 15 2 24 11
26 26 2 14 10 22 22 22 10 0 22 4 25 10 3 5 31 10 61 10 37 0 56 4 60 14 3 8
13 12 24 9 14 -4 23 2 31 20 8 19 18 25 38 24 22 -2 27 3 31 32 4 27 11 37 34
44 20 7 30 6 36 -3 17 -27 51 -1 85 66 3 6 17 9 31 6 19 -3 24 0 24 16 0 34
11 52 41 68 16 8 31 25 35 39 3 14 17 28 33 33 16 6 44 26 63 46 19 20 42 36
52 36 9 0 16 6 16 14 0 12 28 34 94 73 12 7 23 26 26 44 4 25 12 35 37 43 18
6 40 19 50 29 14 14 15 21 6 37 -11 16 -9 20 7 25 27 9 60 53 60 81 0 13 8 25
18 28 17 6 72 73 100 123 7 12 17 23 22 23 16 0 50 43 50 64 0 11 8 28 17 38
14 15 15 23 5 38 -10 16 -8 20 11 25 39 12 97 57 97 76 0 10 9 27 20 37 13 12
20 30 18 48 -1 16 4 39 11 52 7 12 9 31 6 41 -4 14 1 20 20 25 16 4 25 13 25
26 0 11 9 28 20 37 11 10 20 23 20 30 0 7 8 22 17 32 15 18 17 19 29 3 10 -13
8 -21 -8 -41 -14 -19 -19 -38 -17 -73 2 -40 -1 -51 -24 -74 -33 -33 -51 -90
-72 -236 -10 -62 -21 -122 -26 -133 -15 -37 -18 -60 -29 -189 -5 -71 -15 -135
-21 -142 -6 -7 -13 -40 -16 -73 -6 -59 -5 -60 22 -67 15 -4 23 -9 18 -13 -21
-15 -43 -63 -43 -93 0 -19 -7 -44 -16 -56 -9 -13 -14 -32 -11 -43 3 -10 2 -21
-3 -24 -13 -8 1 -218 16 -242 8 -12 14 -31 14 -41 0 -17 7 -19 45 -18 25 0 49
6 53 13 4 6 14 12 22 13 20 4 80 -20 80 -31 0 -15 47 -10 60 6 7 8 19 15 26
15 8 0 14 7 14 15 0 17 25 20 35 5 8 -13 91 -13 116 0 10 6 19 18 19 27 0 15
56 73 70 73 3 0 24 28 46 61 21 34 49 65 62 70 12 5 22 15 22 23 0 8 11 16 26
18 21 2 30 12 43 48 13 35 22 46 41 48 19 2 32 17 55 60 23 43 36 58 55 60 27
4 100 68 100 89 0 7 16 19 35 27 26 11 40 26 54 59 12 27 27 46 40 50 15 3 21
13 21 31 0 16 11 36 30 53 17 15 30 36 30 50 0 13 11 34 25 47 16 15 23 30 19
40 -4 11 2 19 18 25 34 13 52 37 43 58 -4 10 -8 28 -9 40 -1 15 5 24 21 28 13
3 23 10 23 15 0 5 14 16 30 25 27 14 30 21 30 60 0 38 3 45 19 45 11 0 23 9
26 20 3 11 12 20 19 20 18 0 49 77 42 104 -5 20 -3 23 19 18 23 -4 25 -2 23
34 -1 41 19 91 46 113 14 12 16 10 16 -13 0 -18 -8 -30 -25 -38 -14 -6 -25
-20 -25 -30 0 -29 22 -111 33 -125 6 -9 2 -28 -12 -60 -12 -27 -26 -55 -31
-63 -21 -31 -31 -65 -37 -120 -5 -50 -3 -60 16 -79 24 -24 27 -41 7 -41 -8 0
-20 -16 -26 -35 -10 -29 -9 -40 2 -57 13 -19 13 -26 1 -49 -8 -15 -15 -47 -17
-71 -1 -24 -6 -51 -11 -62 -5 -11 -4 -26 3 -37 7 -10 12 -36 12 -58 0 -52 36
-167 61 -192 10 -10 19 -25 19 -33 0 -24 41 -66 65 -66 14 0 25 -7 28 -20 4
-14 14 -20 35 -20 18 0 32 -6 36 -16 5 -12 14 -15 34 -11 15 3 34 8 42 12 11
4 18 -4 25 -27 6 -17 16 -33 22 -36 7 -2 25 10 40 26 16 16 39 33 53 37 39 11
114 47 122 59 4 6 15 11 25 11 11 0 25 15 36 38 18 35 37 49 37 27 0 -11 70
-13 86 -2 6 4 14 20 18 35 4 15 14 31 24 34 30 11 52 36 52 60 0 16 -6 23 -20
23 -24 0 -26 22 -5 40 13 10 23 4 65 -39 28 -28 50 -58 50 -66 0 -8 6 -18 13
-22 18 -12 77 -113 144 -248 69 -139 106 -227 127 -306 9 -31 23 -59 31 -63
26 -9 17 -36 -20 -57 -20 -12 -40 -30 -46 -40 -5 -11 -18 -19 -27 -19 -10 0
-32 -12 -49 -28 -54 -47 -106 -82 -120 -82 -21 0 -137 -121 -168 -175 -16 -27
-48 -71 -71 -96 -57 -63 -76 -102 -72 -152 3 -40 5 -42 37 -45 18 -2 38 1 43
6 5 5 33 5 65 1 50 -7 84 -3 161 17 6 2 12 12 12 23 0 14 5 18 20 14 16 -4 20
0 20 22 l0 26 26 -20 c27 -22 94 -29 94 -11 0 10 18 34 55 71 11 12 43 28 70
37 39 13 53 24 65 49 8 17 26 37 39 43 20 9 23 16 18 44 -4 25 -1 35 14 44 12
8 19 23 19 42 0 17 -5 30 -10 30 -6 0 -1 14 12 30 12 17 28 30 35 30 7 0 13
11 13 25 0 14 7 28 15 31 8 4 15 16 15 29 0 30 26 40 33 14 4 -15 12 -20 29
-17 17 2 24 10 26 32 3 26 1 28 -26 24 -25 -3 -31 0 -40 26 -10 24 -9 31 6 42
13 10 15 17 6 31 -6 10 -26 20 -45 23 -31 5 -34 8 -36 40 -1 20 -9 41 -20 50
-11 9 -17 25 -15 42 2 19 -4 35 -20 50 -13 13 -30 43 -37 68 -8 25 -20 59 -27
77 -8 17 -14 36 -14 41 0 6 -11 23 -25 38 -14 15 -25 35 -25 45 0 10 -8 23
-18 28 -10 5 -24 32 -31 61 -14 53 -55 114 -74 107 -6 -2 -19 13 -30 32 -12
25 -16 47 -13 73 6 34 2 41 -44 88 -27 28 -50 60 -50 71 0 30 -27 34 -79 12
-72 -31 -168 -103 -287 -216 -76 -71 -125 -110 -163 -126 -86 -37 -110 -37
-161 -2 -25 17 -50 31 -56 31 -6 0 -9 13 -6 30 2 17 0 36 -6 43 -6 7 -12 83
-14 178 -3 145 -1 169 14 185 12 14 18 45 22 114 10 183 22 263 51 330 15 35
29 82 32 105 2 22 8 49 13 60 5 11 11 44 14 73 3 29 14 68 26 86 11 19 20 43
20 55 0 12 4 29 9 39 50 98 62 133 56 161 -5 26 -1 36 27 65 22 23 41 59 57
108 13 40 38 109 56 153 18 44 35 100 39 125 4 24 11 49 15 55 14 17 131 368
131 393 0 12 7 25 16 29 8 3 14 15 12 27 -1 11 5 32 14 46 23 34 108 236 120
285 6 22 14 48 19 57 5 10 9 23 9 29 0 6 13 26 29 44 32 37 77 166 91 262 6
42 18 78 34 102 14 20 26 46 26 57 0 12 -12 24 -31 33 -25 11 -36 11 -50 2
-10 -6 -27 -11 -38 -11 -11 0 -29 -12 -40 -27 -11 -16 -21 -22 -21 -15 0 20
-41 14 -76 -13 -18 -14 -35 -33 -39 -43 -3 -11 -17 -24 -30 -30 -21 -10 -25
-19 -25 -52 0 -22 -4 -40 -10 -40 -5 0 -13 -12 -16 -27 -4 -16 -11 -34 -17
-41 -25 -31 -60 -132 -67 -194 -5 -36 -18 -83 -28 -105 -68 -130 -82 -160 -82
-181 0 -13 -7 -30 -15 -38 -9 -9 -15 -33 -15 -57 0 -28 -8 -54 -25 -78 -43
-64 -127 -259 -140 -325 -3 -18 -14 -39 -24 -48 -16 -15 -32 -47 -62 -123 -6
-16 -17 -23 -34 -23 -21 0 -25 -5 -25 -29 0 -24 -3 -28 -23 -24 -19 4 -26 -1
-37 -26 -7 -17 -10 -37 -7 -46 4 -8 2 -17 -3 -20 -5 -3 -14 -30 -20 -60 -6
-30 -15 -55 -20 -55 -15 0 -60 -88 -60 -119 0 -19 -5 -31 -13 -31 -8 0 -22 -8
-31 -19 -11 -12 -15 -27 -11 -44 5 -20 2 -26 -19 -31 -19 -5 -36 -28 -75 -104
-28 -53 -51 -104 -51 -113 0 -9 -7 -19 -15 -23 -10 -3 -15 -19 -15 -46 0 -35
-3 -40 -17 -36 -10 3 -23 2 -28 -2 -31 -21 -145 -242 -145 -280 0 -12 -13 -34
-30 -49 -16 -14 -30 -31 -30 -37 0 -6 -13 -23 -29 -38 -26 -25 -41 -63 -56
-144 -4 -23 -14 -33 -38 -42 -33 -12 -60 -43 -120 -138 -18 -27 -49 -70 -69
-95 -21 -24 -56 -66 -78 -92 -22 -27 -40 -54 -40 -61 0 -7 -25 -25 -56 -41
-33 -17 -59 -38 -64 -51 -5 -13 -20 -30 -34 -39 -14 -9 -34 -32 -45 -50 -11
-19 -33 -41 -49 -49 -18 -9 -32 -26 -35 -43 -4 -19 -22 -38 -53 -58 -85 -55
-147 -85 -176 -85 -26 0 -28 2 -17 22 6 12 15 74 20 137 4 64 15 140 24 168
14 48 14 55 0 77 -17 25 -15 33 26 132 12 31 10 44 -12 75 -9 12 -8 24 4 50
19 43 43 127 58 204 6 33 15 65 19 70 4 6 11 37 15 70 4 33 13 72 21 86 11 22
29 136 47 297 3 24 12 49 21 55 19 15 46 89 46 128 0 16 5 29 10 29 6 0 10 15
10 34 0 19 5 38 10 41 6 3 10 26 10 51 0 25 9 62 20 84 28 54 43 130 32 160
-7 20 -2 36 31 90 29 47 43 81 48 122 4 31 16 77 28 101 11 24 21 55 21 70 0
28 2 34 38 104 12 23 22 49 22 56 0 24 90 229 115 262 13 16 35 55 50 85 57
114 180 381 243 530 61 142 66 161 67 227 0 55 -4 76 -17 89 -14 14 -22 15
-49 5 -17 -6 -55 -11 -83 -11 l-51 0 -35 -90 c-19 -50 -38 -90 -42 -90 -4 0
-8 -6 -8 -14 0 -7 -9 -25 -20 -38 -10 -14 -29 -51 -41 -83 -12 -31 -29 -65
-39 -75 -10 -10 -21 -29 -25 -42 -10 -30 -33 -57 -67 -74 -15 -8 -35 -28 -43
-45 -9 -16 -21 -68 -27 -114 -11 -83 -12 -85 -44 -95 -17 -6 -39 -19 -49 -30
-14 -15 -16 -29 -11 -64 7 -43 6 -45 -21 -48 -27 -3 -28 -5 -25 -50 3 -43 1
-48 -17 -48 -29 0 -35 -17 -17 -45 21 -31 20 -46 0 -38 -11 4 -22 -1 -30 -12
-16 -22 -19 -91 -4 -100 16 -10 12 -21 -15 -35 -29 -15 -32 -36 -9 -68 8 -12
10 -22 5 -22 -14 0 -14 -37 -1 -45 16 -10 -13 -45 -37 -45 -20 0 -23 -5 -23
-40 0 -31 -6 -47 -25 -65 -18 -16 -29 -41 -37 -85 -9 -48 -9 -66 0 -81 10 -16
10 -21 -3 -25 -9 -4 -25 -24 -35 -45 -11 -20 -29 -40 -40 -44 -16 -5 -20 -15
-20 -53 0 -55 -27 -112 -60 -129 -29 -14 -40 -31 -40 -62 0 -13 -11 -34 -24
-46 -15 -14 -35 -56 -52 -110 -15 -48 -33 -89 -41 -92 -8 -3 -24 -24 -34 -47
-11 -23 -26 -52 -33 -66 -8 -14 -19 -44 -25 -67 -8 -27 -18 -44 -32 -48 -15
-5 -20 -14 -17 -36 1 -17 -2 -33 -7 -37 -6 -4 -21 -22 -34 -41 -20 -29 -23
-39 -13 -63 8 -23 8 -28 -4 -28 -18 0 -36 -13 -90 -68 -23 -24 -51 -62 -62
-85 -11 -24 -61 -88 -111 -142 -50 -55 -100 -119 -112 -142 -11 -24 -26 -43
-33 -43 -7 0 -33 -25 -57 -55 -24 -30 -47 -55 -51 -55 -4 0 -29 -22 -55 -50
-26 -27 -62 -59 -80 -72 -18 -13 -68 -54 -112 -93 -83 -74 -159 -125 -183
-125 -8 0 -23 -9 -33 -20 -17 -19 -73 -43 -126 -54 -14 -3 -42 -17 -62 -30
-29 -20 -37 -22 -37 -10 0 8 -6 17 -14 20 -9 3 -17 27 -21 59 -10 75 11 352
40 553 28 190 157 844 174 882 6 14 25 90 41 170 16 80 37 179 45 220 24 116
54 236 90 365 13 44 40 154 60 245 20 91 49 206 65 255 47 148 90 309 136 510
24 105 62 253 84 330 22 78 40 147 40 155 1 8 9 33 20 55 11 22 19 46 20 53 0
8 13 46 29 86 27 68 52 171 67 279 l6 47 -55 0 c-31 0 -58 -3 -60 -7z m2403
-2453 c0 -5 -8 -10 -17 -10 -15 0 -16 2 -3 10 19 12 20 12 20 0z m-1513 -147
c-8 -16 -18 -46 -22 -68 -5 -30 -9 -36 -15 -24 -12 20 20 119 38 119 10 0 10
-6 -1 -27z m-1822 -1513 c-4 -6 -1 -18 7 -27 12 -15 11 -15 -9 -2 -26 16 -29
25 -10 32 18 8 19 8 12 -3z m4256 -623 c-10 -9 -11 -8 -5 6 3 10 9 15 12 12 3
-3 0 -11 -7 -18z m-1 -147 c-4 -8 -12 -28 -16 -44 -7 -24 -21 -34 -78 -58 -90
-37 -111 -36 -67 2 19 16 32 33 28 36 -11 11 13 44 38 54 16 6 28 23 36 50
l12 40 27 -32 c18 -21 25 -38 20 -48z"/>
<path d="M4020 4685 c0 -29 27 -45 41 -24 14 22 6 44 -19 47 -18 3 -22 -1 -22
-23z"/>
<path d="M4773 801 c-9 -12 -23 -21 -30 -21 -7 0 -13 -11 -13 -24 0 -14 -4
-28 -10 -31 -15 -9 -12 -45 4 -45 7 0 19 -7 26 -15 13 -16 49 -19 88 -9 15 4
22 14 22 29 0 17 -8 26 -30 34 -16 5 -30 15 -30 21 0 6 11 16 25 22 18 8 25
18 23 32 -4 30 -52 34 -75 7z"/>
</g>
</svg>
