<?xml version="1.0" standalone="no"?>
<!DOCTYPE svg PUBLIC "-//W3C//DTD SVG 20010904//EN"
 "http://www.w3.org/TR/2001/REC-SVG-20010904/DTD/svg10.dtd">
<svg version="1.0" xmlns="http://www.w3.org/2000/svg"
 width="182.000000pt" height="764.000000pt" viewBox="0 0 182.000000 764.000000"
 preserveAspectRatio="xMidYMid meet">
<metadata>
Created by potrace 1.16, written by Peter Selinger 2001-2019
</metadata>
<g transform="translate(0.000000,764.000000) scale(0.100000,-0.100000)"
fill="#000000" stroke="none">
<path d="M1360 2310 c0 -5 -10 -10 -22 -10 -12 0 -30 -8 -40 -17 -13 -11 -32
-16 -56 -14 -29 2 -44 -4 -65 -23 -16 -14 -34 -26 -40 -26 -7 0 -20 9 -30 20
-20 23 -59 25 -130 7 -28 -8 -54 -22 -63 -36 -10 -14 -19 -19 -23 -13 -4 6
-24 23 -46 37 -49 34 -85 30 -158 -19 -30 -20 -63 -36 -74 -36 -26 0 -72 -65
-79 -112 -5 -29 -2 -38 16 -51 13 -9 17 -17 11 -22 -6 -3 -11 -12 -11 -20 0
-10 16 -15 58 -17 l57 -3 -1 -40 c-2 -44 -45 -253 -57 -272 -4 -6 -17 -42 -28
-80 -12 -37 -34 -93 -49 -124 -15 -31 -33 -81 -39 -110 -6 -29 -16 -59 -22
-66 -6 -7 -8 -24 -5 -38 4 -14 3 -25 -2 -25 -17 0 -32 -52 -58 -192 -21 -112
-24 -146 -15 -166 10 -21 8 -30 -15 -63 -22 -32 -27 -54 -34 -136 -6 -71 -15
-114 -34 -157 -30 -67 -61 -207 -52 -239 3 -12 -1 -28 -9 -37 -16 -18 -26
-176 -10 -174 6 1 29 5 53 9 40 6 42 6 42 -19 0 -23 4 -26 35 -26 48 0 85 37
85 84 0 19 -5 36 -11 38 -8 3 -9 10 -2 23 6 11 13 47 17 80 4 37 14 67 26 80
25 27 38 62 50 142 6 37 16 73 21 80 6 6 9 23 7 36 -1 13 5 41 14 63 9 21 26
92 38 157 17 89 19 121 10 132 -9 10 -7 15 8 19 13 5 22 19 26 44 3 21 13 53
22 71 11 21 14 45 11 68 -5 27 -1 42 13 61 11 13 20 36 20 51 1 14 7 37 15 51
8 14 14 39 15 56 0 17 18 66 40 109 22 43 40 79 40 81 0 2 -15 7 -32 12 -28 7
-34 13 -36 40 -4 36 12 42 28 12 6 -11 20 -20 32 -20 17 0 19 5 15 27 -3 18 2
36 16 55 17 24 19 32 10 48 -10 14 -9 21 2 30 18 15 20 60 4 60 -8 0 -8 4 -2
13 6 6 13 25 17 42 4 16 18 52 32 81 13 28 24 60 24 72 0 12 8 26 18 31 27 14
221 33 402 38 85 3 160 8 165 13 16 13 71 15 86 3 8 -6 24 -13 35 -17 29 -9
92 29 100 59 4 18 14 25 37 27 30 3 32 6 35 46 3 39 1 42 -21 42 -13 0 -39 7
-57 16 -25 13 -52 16 -126 12 -109 -6 -149 -24 -141 -64 3 -20 0 -24 -19 -24
-23 0 -54 -23 -54 -41 0 -5 -8 -9 -18 -9 -15 0 -17 7 -12 53 5 50 6 52 38 55
36 4 42 23 16 60 -15 22 -64 31 -64 12z"/>
<path d="M425 2181 c-16 -10 -38 -27 -47 -37 -9 -11 -22 -23 -28 -29 -6 -5
-20 -24 -30 -42 -12 -20 -30 -34 -49 -38 -17 -4 -36 -15 -41 -26 -11 -20 -60
-27 -60 -9 0 6 9 10 19 10 25 0 34 26 15 45 -14 13 -13 15 8 13 19 -3 23 2 23
22 0 23 -4 25 -49 28 -47 3 -92 -11 -108 -33 -4 -5 -8 -20 -8 -32 0 -13 -5
-23 -10 -23 -6 0 -22 -12 -35 -26 -16 -18 -25 -39 -25 -60 l0 -34 68 0 c37 0
125 11 196 25 89 16 135 30 150 43 11 11 39 36 60 56 30 27 39 42 38 66 0 17
-6 38 -13 46 -8 10 -8 14 0 14 6 0 11 9 11 20 0 15 -7 20 -27 20 -16 0 -41 -9
-58 -19z"/>
<path d="M530 2180 c0 -13 7 -20 20 -20 13 0 20 7 20 20 0 13 -7 20 -20 20
-13 0 -20 -7 -20 -20z"/>
</g>
</svg>
