<?xml version="1.0" standalone="no"?>
<!DOCTYPE svg PUBLIC "-//W3C//DTD SVG 20010904//EN"
 "http://www.w3.org/TR/2001/REC-SVG-20010904/DTD/svg10.dtd">
<svg version="1.0" xmlns="http://www.w3.org/2000/svg"
 width="688.000000pt" height="764.000000pt" viewBox="0 0 688.000000 764.000000"
 preserveAspectRatio="xMidYMid meet">
<metadata>
Created by potrace 1.16, written by Peter Selinger 2001-2019
</metadata>
<g transform="translate(0.000000,764.000000) scale(0.100000,-0.100000)"
fill="#000000" stroke="none">
<path d="M6782 6258 c3 -7 14 -14 26 -16 15 -2 22 2 22 12 0 11 -9 16 -26 16
-16 0 -24 -5 -22 -12z"/>
<path d="M6842 6118 c2 -13 10 -23 18 -23 8 0 16 10 18 23 3 17 -2 22 -18 22
-16 0 -21 -5 -18 -22z"/>
<path d="M2960 4235 c0 -19 12 -38 37 -62 43 -39 76 -41 81 -4 5 35 -6 69 -26
75 -9 3 -34 8 -54 12 -36 6 -38 5 -38 -21z"/>
<path d="M2930 4149 c0 -41 16 -69 41 -69 19 0 20 4 14 43 -4 23 -9 45 -12 50
-2 4 -13 7 -24 7 -15 0 -19 -7 -19 -31z"/>
<path d="M3017 4124 c-4 -4 -7 -16 -7 -26 0 -14 6 -19 23 -16 14 2 22 10 22
23 0 20 -25 32 -38 19z"/>
<path d="M2867 4072 c-10 -10 -17 -24 -17 -30 0 -6 -9 -16 -20 -22 -14 -8 -20
-21 -20 -46 0 -19 5 -45 11 -56 8 -14 8 -23 0 -31 -29 -29 7 -77 57 -77 13 0
20 -4 17 -10 -3 -5 -17 -10 -31 -10 -19 0 -28 -8 -40 -35 -20 -49 -18 -75 6
-75 11 0 20 -4 20 -9 0 -4 -11 -6 -25 -3 -16 3 -26 -1 -29 -9 -2 -8 -9 -33
-16 -56 -11 -35 -10 -48 4 -89 20 -59 20 -84 1 -84 -8 0 -15 -6 -15 -14 0 -7
-7 -19 -15 -26 -17 -14 -20 -61 -4 -77 7 -7 4 -22 -11 -49 -17 -29 -21 -49
-17 -82 4 -40 29 -82 48 -82 5 0 24 14 43 30 27 24 35 27 40 15 6 -16 32 -21
39 -7 3 4 8 26 12 50 7 41 6 42 -20 42 -14 0 -34 -4 -43 -8 -11 -6 -27 -4 -42
4 -27 15 -20 17 42 14 37 -1 77 13 90 34 15 22 7 36 -20 36 -27 0 -52 15 -52
32 0 4 11 8 23 8 13 0 32 9 42 20 14 15 18 35 17 75 -1 30 3 55 8 55 6 0 10
12 10 26 0 23 -3 26 -25 22 -23 -5 -25 -2 -25 28 0 34 1 34 45 34 l45 0 0 54
c0 30 -5 58 -11 62 -7 4 -20 -4 -30 -17 l-19 -24 0 23 c0 12 5 22 10 22 6 0
10 8 10 18 0 15 6 18 29 14 23 -3 32 1 41 18 7 12 10 37 8 55 -2 18 2 37 9 44
18 16 16 60 -3 68 -13 5 -11 10 11 33 17 18 25 36 23 51 -2 18 -12 26 -40 33
-31 8 -41 6 -58 -9 -11 -10 -20 -13 -20 -7 0 7 -9 12 -20 12 -11 0 -23 7 -26
15 -8 20 -27 19 -47 -3z"/>
<path d="M2624 3805 c-4 -9 -2 -21 4 -27 15 -15 44 -1 40 19 -4 23 -36 29 -44
8z"/>
<path d="M2697 3804 c-11 -11 -8 -52 4 -60 6 -3 18 1 27 10 13 12 14 21 6 33
-12 20 -27 26 -37 17z"/>
<path d="M2616 3688 c-9 -12 -16 -30 -16 -40 0 -13 8 -18 29 -18 30 0 41 14
41 56 0 17 -6 24 -19 24 -11 0 -27 -10 -35 -22z"/>
<path d="M2520 3635 c0 -18 5 -25 20 -25 15 0 20 7 20 25 0 18 -5 25 -20 25
-15 0 -20 -7 -20 -25z"/>
<path d="M2524 3556 c-9 -23 0 -51 16 -51 10 0 15 10 15 29 0 32 -21 47 -31
22z"/>
<path d="M2313 3363 c-7 -2 -13 -9 -13 -15 0 -5 -10 -18 -22 -28 -18 -15 -21
-22 -12 -36 17 -28 33 -28 43 -1 6 14 17 30 26 35 10 5 15 17 14 27 -4 20 -17
26 -36 18z"/>
<path d="M2818 3093 c-21 -8 -38 -19 -38 -24 0 -5 -6 -9 -13 -9 -7 0 -20 -9
-30 -20 -9 -11 -26 -20 -37 -20 -15 0 -20 -7 -20 -29 0 -17 4 -32 9 -35 4 -3
6 -16 4 -30 -3 -13 0 -27 6 -30 21 -13 11 -51 -19 -78 -30 -26 -41 -70 -19
-83 6 -4 9 -32 7 -65 -1 -32 1 -62 5 -66 4 -4 -7 -15 -23 -25 -33 -20 -39 -43
-15 -53 14 -5 14 -9 0 -35 -8 -16 -12 -37 -9 -45 4 -10 0 -18 -10 -22 -19 -7
-22 -50 -3 -57 9 -3 9 -13 -3 -48 -13 -36 -22 -46 -55 -58 -22 -8 -43 -19 -46
-24 -3 -4 -4 -19 -1 -33 2 -14 0 -24 -7 -24 -12 0 -15 -39 -3 -56 11 -16 48
-34 71 -34 27 0 28 34 2 52 -12 9 -17 19 -12 27 6 9 10 7 14 -8 3 -13 13 -21
26 -21 14 0 21 -6 21 -20 0 -11 8 -24 18 -27 9 -4 23 -13 30 -20 7 -6 20 -9
30 -6 10 4 6 -4 -10 -20 -37 -35 -36 -57 1 -57 17 0 33 -4 36 -10 3 -5 22 -10
41 -10 l34 0 0 94 c0 91 11 129 25 85 5 -16 13 -20 31 -16 14 2 27 0 30 -4 3
-5 18 -9 35 -9 25 0 29 4 29 28 0 37 12 53 30 42 21 -14 56 -12 72 3 7 6 27
17 43 22 24 8 31 17 33 43 2 21 -1 32 -10 33 -28 3 -54 -4 -80 -19 -22 -13
-30 -14 -40 -4 -7 7 -42 12 -90 12 -61 0 -78 3 -78 15 0 7 -7 18 -16 23 -15 8
-15 10 0 15 10 4 16 18 16 37 0 29 -2 30 -42 30 -34 1 -39 3 -25 11 18 11 22
45 8 69 -7 10 -2 19 20 32 29 18 30 20 27 86 l-3 67 -42 13 c-42 14 -52 25
-33 37 5 3 14 24 20 45 9 33 15 40 35 40 15 0 25 6 25 15 0 8 11 17 25 21 16
4 25 13 25 26 0 11 7 26 15 34 10 11 13 27 9 58 -4 27 -2 46 5 50 15 9 14 79
-1 94 -16 16 -34 15 -80 -5z m12 -118 c0 -50 -2 -55 -17 -46 -44 25 -44 26
-31 52 36 67 48 66 48 -6z m-103 -671 c-3 -3 -12 -4 -19 -1 -8 3 -5 6 6 6 11
1 17 -2 13 -5z m-34 -105 c-6 -6 -19 -9 -29 -6 -16 4 -15 5 4 6 12 0 22 6 22
13 0 6 3 8 7 5 4 -4 2 -12 -4 -18z"/>
<path d="M2053 3084 c-3 -9 -2 -28 3 -43 7 -19 17 -26 34 -26 20 0 26 6 28 28
2 16 -2 35 -9 43 -16 19 -48 18 -56 -2z"/>
<path d="M2012 3008 c4 -30 43 -33 43 -3 0 13 -8 21 -23 23 -20 3 -23 0 -20
-20z"/>
<path d="M1254 2405 c-4 -9 -2 -21 4 -27 15 -15 44 -1 40 19 -4 23 -36 29 -44
8z"/>
<path d="M3319 2338 c-7 -13 -17 -28 -23 -34 -12 -12 -40 -12 -68 0 -9 4 -31
6 -50 4 -25 -2 -34 -8 -36 -25 -4 -27 32 -53 75 -53 26 0 33 -4 33 -20 0 -18
7 -20 56 -20 30 0 64 5 75 10 23 13 24 37 2 62 -14 16 -14 18 -1 18 22 0 30
26 12 40 -8 7 -14 19 -14 26 0 23 -48 17 -61 -8z"/>
<path d="M3464 2336 c-9 -24 4 -48 23 -44 12 2 18 12 18 28 0 29 -32 41 -41
16z"/>
<path d="M3520 2300 c0 -43 3 -50 20 -50 17 0 20 7 20 50 0 43 -3 50 -20 50
-17 0 -20 -7 -20 -50z"/>
<path d="M3580 2331 c-20 -38 -12 -60 29 -80 27 -14 45 -34 60 -64 12 -24 21
-49 21 -55 0 -7 12 -12 26 -12 26 0 26 1 20 54 -5 34 -3 56 3 61 6 3 11 17 11
29 0 28 -63 81 -85 72 -8 -3 -17 -1 -20 4 -11 17 -54 11 -65 -9z"/>
<path d="M2341 2246 c-7 -9 -26 -22 -41 -30 -25 -12 -29 -12 -34 0 -9 22 -56
16 -93 -12 l-34 -26 -21 21 c-24 26 -61 24 -66 -3 -3 -11 -11 -26 -19 -34 -8
-8 -13 -24 -11 -36 3 -19 8 -21 58 -18 30 2 68 9 84 17 19 10 34 12 46 5 10
-5 42 -9 72 -7 50 2 53 4 59 32 l5 30 8 -32 c6 -28 12 -33 36 -33 32 0 55 23
46 45 -3 8 -18 20 -33 26 -20 7 -24 12 -14 18 19 12 9 46 -15 49 -11 2 -26 -4
-33 -12z"/>
<path d="M1150 2235 c-15 -18 -5 -35 21 -35 12 0 19 7 19 19 0 24 -25 34 -40
16z"/>
<path d="M1645 2200 c-39 -31 -59 -37 -70 -20 -11 18 -77 10 -134 -16 -50 -24
-63 -26 -140 -21 -56 3 -89 1 -97 -6 -37 -33 -40 -34 -53 -20 -14 15 -46 9
-72 -13 -14 -13 -18 -12 -29 1 -17 21 -59 19 -98 -5 -29 -18 -33 -25 -30 -58
l3 -37 60 1 c33 1 88 5 123 9 60 8 62 9 62 37 0 22 4 29 17 26 9 -2 20 -14 23
-28 7 -29 41 -38 60 -15 7 8 27 15 46 15 18 0 35 4 38 9 3 4 49 11 102 13 69
4 101 10 108 20 8 11 29 13 81 11 94 -4 115 2 115 31 0 13 7 29 15 36 8 7 15
23 15 36 0 22 -4 24 -54 24 -44 0 -60 -5 -91 -30z"/>
<path d="M1047 2214 c-4 -4 -7 -18 -7 -31 0 -17 6 -23 21 -23 16 0 20 5 17 27
-3 26 -18 39 -31 27z"/>
<path d="M3174 2206 c-9 -23 4 -36 37 -36 26 0 30 3 27 23 -2 16 -11 23 -31
25 -17 2 -29 -2 -33 -12z"/>
<path d="M1887 2203 c-4 -3 -7 -24 -7 -45 0 -31 5 -41 24 -50 35 -15 56 -4 56
30 0 20 -9 35 -30 50 -32 24 -34 25 -43 15z"/>
<path d="M3103 2203 c-7 -3 -13 -13 -13 -24 0 -12 7 -19 19 -19 11 0 23 5 27
11 8 14 -17 38 -33 32z"/>
<path d="M1807 2174 c-4 -4 -7 -16 -7 -26 0 -15 6 -19 28 -16 19 2 27 9 27 23
0 13 -8 21 -20 23 -12 2 -24 0 -28 -4z"/>
<path d="M3640 2115 c0 -18 5 -25 20 -25 15 0 20 7 20 25 0 18 -5 25 -20 25
-15 0 -20 -7 -20 -25z"/>
<path d="M3683 2079 c-16 -6 -23 -19 -28 -56 -3 -27 -2 -60 4 -76 8 -20 17
-27 37 -27 25 0 26 1 20 45 -7 44 -6 45 19 45 24 0 26 3 23 32 -2 24 -9 33
-28 38 -14 4 -35 4 -47 -1z"/>
<path d="M838 2063 c-37 -43 -51 -103 -24 -103 26 0 76 35 82 57 9 34 1 58
-22 61 -11 2 -27 -5 -36 -15z"/>
<path d="M607 2041 c-16 -10 -51 -22 -78 -25 -40 -6 -49 -10 -49 -27 0 -12 12
-27 30 -37 16 -9 30 -20 30 -24 0 -12 68 -10 75 2 3 6 17 10 30 10 52 0 71 24
39 51 -14 11 -14 13 0 21 21 12 20 34 0 42 -27 10 -48 7 -77 -13z"/>
<path d="M390 1970 c-6 -12 -10 -33 -8 -48 2 -21 9 -28 31 -30 26 -3 27 -2 27
47 0 44 -3 51 -20 51 -10 0 -24 -9 -30 -20z"/>
<path d="M2730 1943 c1 -24 34 -63 54 -63 17 0 20 19 10 58 -5 16 -14 22 -35
22 -21 0 -29 -5 -29 -17z"/>
<path d="M3660 1891 c-16 -30 -12 -51 9 -51 37 0 51 12 51 41 0 24 -4 29 -25
29 -14 0 -29 -8 -35 -19z"/>
<path d="M104 1846 c-8 -21 3 -36 27 -36 15 0 20 6 17 22 -4 27 -35 37 -44 14z"/>
<path d="M2430 1846 c-30 -7 -69 -20 -87 -29 -18 -9 -52 -17 -77 -17 -25 0
-48 -4 -51 -10 -10 -16 -22 -12 -28 10 -8 32 -35 24 -45 -12 -6 -25 -13 -32
-28 -30 -102 13 -202 18 -221 11 -13 -5 -25 -4 -28 1 -11 18 -53 11 -68 -11
-14 -19 -21 -20 -107 -13 l-93 7 5 -27 c5 -24 3 -26 -33 -26 l-39 0 0 -55 c0
-50 3 -56 24 -65 35 -13 315 14 354 34 26 14 31 14 36 1 7 -19 55 -19 75 -1 9
8 28 18 44 21 23 6 27 4 27 -15 0 -22 2 -23 80 -17 45 3 87 11 95 17 8 7 16
31 16 54 1 24 4 31 6 18 6 -29 28 -39 49 -21 9 7 39 12 77 10 36 -1 72 4 87
12 17 9 30 10 41 3 13 -7 24 -2 49 22 18 18 30 39 27 46 -3 8 1 17 9 20 8 3
14 15 14 26 0 15 -7 20 -25 20 -28 0 -45 -27 -25 -40 8 -5 9 -10 2 -14 -12 -7
-53 29 -71 62 -6 12 -17 22 -24 21 -7 0 -37 -6 -67 -13z"/>
<path d="M3661 1811 c-6 -10 -17 -47 -25 -82 -7 -35 -25 -109 -40 -164 -14
-55 -26 -112 -26 -126 0 -15 -7 -32 -15 -39 -8 -7 -15 -21 -15 -32 0 -10 -6
-31 -14 -46 -15 -30 -38 -130 -40 -176 -1 -18 -13 -41 -33 -61 -18 -18 -33
-42 -33 -53 0 -12 -4 -24 -10 -27 -5 -3 -10 -17 -10 -31 0 -13 -6 -33 -12 -45
-11 -17 -10 -22 6 -35 19 -13 19 -14 -8 -14 -23 0 -27 -4 -24 -22 3 -24 -21
-55 -57 -73 -14 -7 -22 -27 -30 -69 -9 -53 -13 -60 -38 -67 -16 -4 -34 -13
-41 -19 -17 -13 -27 -60 -19 -88 6 -24 32 -37 47 -22 5 5 20 10 32 10 15 0 25
8 31 24 8 24 87 96 104 96 5 0 9 12 9 28 0 16 14 45 35 71 19 24 35 50 35 57
0 8 9 19 20 26 21 13 27 52 10 63 -20 12 -9 25 20 25 27 0 30 3 30 30 0 17 16
60 36 96 32 58 37 78 46 177 8 78 8 112 0 115 -13 4 0 52 22 84 9 12 16 33 16
46 0 13 5 33 11 45 7 11 16 64 20 117 5 52 11 119 15 148 6 51 6 52 -19 52
-15 0 -30 -8 -36 -19z"/>
<path d="M52 1768 c4 -30 43 -33 43 -3 0 13 -8 21 -23 23 -20 3 -23 0 -20 -20z"/>
<path d="M0 1731 c0 -33 11 -51 31 -51 25 0 34 23 19 49 -14 27 -50 28 -50 2z"/>
<path d="M3050 1701 c0 -5 -9 -13 -20 -16 -15 -5 -20 -15 -20 -43 0 -21 7 -47
15 -59 14 -20 14 -22 -6 -28 -19 -6 -21 -13 -17 -62 4 -45 2 -56 -14 -64 -24
-13 -23 -56 2 -71 24 -15 25 -35 5 -62 -13 -17 -15 -18 -15 -3 0 26 -39 21
-49 -6 -5 -13 -16 -29 -25 -36 -9 -7 -16 -22 -16 -32 0 -15 7 -19 35 -19 19 0
35 4 35 9 0 6 12 6 32 0 58 -16 78 -12 89 21 6 17 15 30 20 30 12 0 12 47 0
54 -10 7 -8 68 4 101 4 11 13 34 20 50 7 17 18 49 24 71 6 23 18 47 26 54 32
27 5 78 -35 67 -15 -4 -24 2 -35 24 -9 17 -24 29 -35 29 -11 0 -20 -4 -20 -9z"/>
<path d="M1352 1680 c-13 -10 -43 -22 -67 -25 -24 -4 -52 -16 -61 -26 -21 -23
-37 -24 -55 -3 -10 12 -23 14 -63 9 -28 -4 -54 -13 -59 -20 -4 -8 -30 -21 -57
-30 -28 -9 -50 -21 -50 -26 0 -5 10 -15 23 -24 28 -18 157 -19 157 -1 0 8 2 8
8 -1 12 -19 101 -13 144 9 36 19 43 19 80 7 36 -12 44 -11 76 7 47 25 76 65
67 93 -4 14 -22 25 -57 36 -29 8 -54 15 -57 15 -3 -1 -16 -9 -29 -20z"/>
<path d="M105 1659 c-4 -12 -2 -26 4 -32 16 -16 45 3 49 32 3 17 -2 21 -22 21
-16 0 -27 -7 -31 -21z"/>
<path d="M25 1630 c-9 -15 4 -30 26 -30 12 0 19 7 19 20 0 13 -7 20 -19 20
-11 0 -23 -4 -26 -10z"/>
<path d="M62 1548 c-7 -7 -12 -34 -12 -60 0 -43 2 -48 23 -48 31 0 47 18 47
52 0 15 5 28 10 28 6 0 10 9 10 20 0 16 -7 20 -33 20 -18 0 -38 -5 -45 -12z"/>
<path d="M426 1472 c-3 -5 -19 -7 -36 -4 l-30 4 0 -70 c0 -47 4 -72 13 -75 10
-4 10 -6 0 -6 -19 -1 -16 -62 6 -128 11 -32 23 -83 26 -113 9 -69 41 -156 60
-164 8 -3 15 -14 15 -25 0 -35 12 -51 39 -52 14 0 20 -3 14 -6 -26 -10 -13
-51 28 -92 23 -22 45 -41 50 -41 5 0 9 -6 9 -14 0 -7 6 -19 14 -25 8 -7 17
-27 20 -45 4 -19 25 -54 47 -80 34 -38 47 -46 76 -46 25 0 43 8 64 29 16 16
29 37 29 45 0 9 9 25 20 36 11 11 20 25 20 31 0 7 -9 21 -21 33 -40 40 -111
141 -140 198 -16 32 -42 67 -59 80 -17 12 -30 31 -30 43 0 11 -13 35 -29 53
-17 17 -26 32 -20 32 14 0 11 37 -6 70 -18 36 -47 52 -83 48 -22 -2 -28 2 -30
20 -2 12 4 36 12 54 21 41 21 88 1 88 -9 0 -18 7 -21 15 -4 8 -12 15 -20 15
-7 0 -16 11 -20 25 -3 14 -10 25 -15 25 -5 0 -9 4 -9 9 0 4 11 6 25 3 20 -3
25 0 25 17 0 14 -6 21 -19 21 -11 0 -22 -4 -25 -8z"/>
<path d="M3746 1471 c-14 -22 23 -59 45 -45 5 3 9 16 9 30 0 19 -5 24 -24 24
-14 0 -27 -4 -30 -9z"/>
<path d="M62 1418 c-7 -7 -12 -19 -12 -27 0 -8 -8 -23 -17 -34 -17 -18 -17
-20 6 -39 23 -17 25 -27 25 -104 1 -74 4 -88 21 -100 11 -8 30 -12 41 -10 16
4 23 0 28 -17 3 -12 6 -41 6 -64 0 -41 1 -43 30 -43 24 0 28 -3 23 -17 -4 -10
-12 -22 -20 -26 -19 -11 -16 -45 5 -56 10 -5 24 -6 33 -1 8 5 21 5 29 0 13 -8
12 -10 -2 -10 -19 0 -22 -17 -12 -69 4 -17 11 -31 17 -31 6 0 22 -11 36 -24
26 -24 40 -29 74 -27 11 1 17 9 17 26 0 14 -7 28 -15 31 -11 5 -12 10 -4 26 8
16 6 27 -14 56 -13 20 -31 49 -41 65 -9 15 -23 27 -31 27 -22 0 -51 33 -47 54
2 10 -3 32 -12 50 -8 17 -24 52 -35 79 -21 50 -47 69 -62 46 -7 -11 -9 -11 -9
3 0 9 4 20 10 23 17 10 11 54 -9 74 -17 17 -18 26 -10 53 5 18 9 48 9 65 0 28
-4 33 -23 33 -13 0 -28 -5 -35 -12z"/>
<path d="M2887 1173 c-4 -3 -7 -15 -7 -25 0 -13 7 -18 25 -18 14 0 28 7 32 16
9 23 -32 45 -50 27z"/>
<path d="M3006 1159 c-28 -22 -34 -44 -13 -51 6 -2 26 -2 42 1 22 5 31 13 33
30 3 21 -11 40 -29 41 -4 0 -18 -9 -33 -21z"/>
<path d="M2853 1094 c-3 -8 -3 -18 0 -21 4 -3 0 -15 -8 -27 -8 -11 -15 -37
-15 -58 0 -21 -11 -71 -24 -112 -35 -106 -78 -303 -74 -340 3 -28 7 -31 38
-34 27 -2 43 4 68 26 17 16 32 34 32 41 0 7 -8 26 -17 43 -17 28 -17 30 0 42
9 7 17 23 17 35 0 15 -6 21 -21 21 l-20 0 20 26 c12 15 21 35 21 46 0 13 11
24 30 31 25 9 30 17 30 44 0 21 5 33 13 33 8 0 20 12 27 28 8 15 23 37 34 50
17 19 18 26 8 42 -7 11 -12 29 -12 40 0 11 -4 20 -9 20 -5 0 -11 9 -14 19 -4
16 -14 20 -61 20 -41 0 -59 -5 -63 -15z m47 -43 c0 -5 10 -13 23 -17 21 -7 21
-7 2 -15 -30 -11 -31 -11 -43 16 -10 21 -9 25 3 25 8 0 15 -4 15 -9z"/>
<path d="M437 679 c-31 -47 -35 -87 -9 -96 24 -8 72 -61 72 -79 0 -8 4 -14 9
-14 6 0 18 -14 28 -30 10 -17 28 -33 40 -36 13 -4 33 -24 45 -45 21 -38 98
-103 158 -134 17 -9 30 -22 30 -29 0 -22 127 -126 154 -126 33 0 34 114 0 151
-21 23 -44 25 -44 3 0 -8 -4 -12 -10 -9 -5 3 -10 13 -10 22 0 9 -24 39 -53 67
-29 28 -56 59 -60 70 -6 14 -15 17 -42 14 -29 -3 -35 0 -40 19 -3 13 -10 23
-15 23 -6 0 -5 8 2 20 10 15 10 22 1 31 -18 18 -46 3 -40 -21 7 -28 -2 -25
-13 5 -5 14 -17 25 -26 25 -11 0 -14 5 -9 18 18 44 18 53 -4 59 -11 3 -21 11
-21 17 0 7 -11 23 -24 35 -14 13 -22 29 -19 37 8 21 -16 44 -46 44 -21 0 -34
-10 -54 -41z"/>
<path d="M3080 586 c0 -28 28 -42 47 -23 19 19 5 47 -23 47 -19 0 -24 -5 -24
-24z"/>
<path d="M915 540 c-3 -5 -17 -10 -30 -10 -17 0 -26 -8 -34 -30 -5 -16 -17
-30 -25 -30 -20 0 -21 -43 -2 -59 8 -7 30 -15 50 -18 29 -4 37 -11 46 -38 13
-40 49 -73 123 -114 43 -23 69 -31 95 -29 31 2 38 7 40 27 3 15 -3 30 -14 38
-16 12 -16 13 9 13 25 0 27 3 27 43 0 35 -5 46 -22 56 -13 7 -37 32 -55 56
-49 65 -187 129 -208 95z"/>
<path d="M1007 118 c-29 -45 -30 -68 -6 -94 12 -13 33 -24 46 -24 17 0 23 6
23 23 0 13 -3 27 -7 31 -5 4 -8 24 -8 44 0 26 -5 37 -17 40 -9 2 -23 -7 -31
-20z"/>
</g>
</svg>
