<?xml version="1.0" standalone="no"?>
<!DOCTYPE svg PUBLIC "-//W3C//DTD SVG 20010904//EN"
 "http://www.w3.org/TR/2001/REC-SVG-20010904/DTD/svg10.dtd">
<svg version="1.0" xmlns="http://www.w3.org/2000/svg"
 width="407.000000pt" height="764.000000pt" viewBox="0 0 407.000000 764.000000"
 preserveAspectRatio="xMidYMid meet">
<metadata>
Created by potrace 1.16, written by Peter Selinger 2001-2019
</metadata>
<g transform="translate(0.000000,764.000000) scale(0.100000,-0.100000)"
fill="#000000" stroke="none">
<path d="M1570 5361 c0 -18 -91 -33 -197 -31 -43 0 -53 -3 -58 -20 -8 -24 -22
-25 -47 -3 -28 25 -54 5 -51 -38 2 -30 1 -31 -7 -11 -5 12 -16 22 -24 22 -9 0
-30 -13 -49 -29 -18 -16 -44 -32 -58 -36 -21 -5 -49 -44 -49 -68 0 -5 -11 -20
-26 -33 -18 -18 -37 -24 -69 -24 -24 0 -56 -5 -70 -10 -21 -8 -26 -15 -22 -32
7 -25 -8 -58 -27 -58 -8 0 -16 -7 -20 -15 -3 -8 -12 -15 -21 -15 -12 0 -15
-13 -15 -62 0 -77 -8 -108 -26 -108 -9 0 -14 -11 -14 -29 0 -17 -4 -33 -10
-36 -5 -3 -10 -15 -10 -26 0 -13 -7 -19 -24 -19 -25 0 -56 -23 -56 -41 0 -5
-11 -15 -25 -21 -15 -7 -25 -20 -25 -32 0 -12 -11 -43 -25 -70 -14 -27 -25
-58 -25 -68 0 -11 -7 -18 -20 -18 -11 0 -38 -7 -60 -16 -27 -11 -40 -22 -40
-35 0 -11 10 -23 24 -29 13 -5 25 -19 28 -33 4 -22 1 -26 -29 -29 -29 -4 -33
-1 -33 19 0 35 -35 30 -54 -9 -19 -37 -20 -58 -4 -110 7 -24 20 -43 32 -48 18
-6 13 -10 -29 -22 -47 -14 -50 -17 -53 -50 -2 -26 -9 -37 -23 -41 -15 -4 -19
-13 -17 -36 1 -17 -5 -38 -15 -49 -9 -10 -17 -23 -17 -29 0 -6 -7 -16 -14 -23
-8 -6 -16 -33 -18 -58 -3 -45 -4 -47 -30 -44 -24 2 -28 -1 -28 -23 0 -16 6
-25 15 -25 8 0 15 -4 15 -10 0 -5 -5 -10 -11 -10 -8 0 -10 -19 -5 -66 4 -37
11 -75 16 -84 7 -13 6 -20 -5 -24 -21 -8 -20 -56 1 -56 19 0 74 50 74 67 0 7
11 20 25 29 17 11 25 26 25 44 0 32 28 60 60 60 21 0 22 3 18 50 -3 28 -2 50
2 50 3 0 16 9 28 20 27 26 28 63 2 100 -24 34 -36 85 -22 94 6 3 13 2 17 -4 3
-5 15 -10 26 -10 13 0 24 10 30 30 6 17 15 30 21 30 5 0 8 8 6 18 -1 9 10 29
25 44 19 19 27 37 27 61 0 18 -5 38 -12 45 -8 8 -8 12 -1 12 6 0 13 8 17 18 3
9 18 33 32 52 19 26 25 44 22 72 -3 33 -1 37 24 42 21 4 35 19 58 63 29 55 43
77 107 167 15 22 37 55 48 75 11 20 32 52 46 71 39 51 61 100 56 120 -3 12 2
20 14 23 11 3 25 20 33 39 9 21 28 40 52 53 22 11 45 32 52 48 7 15 19 27 27
27 20 0 123 87 130 110 4 11 10 18 15 15 4 -3 43 2 86 11 42 9 127 19 188 23
l111 6 2 53 c1 49 0 52 -23 52 -13 0 -24 -4 -24 -9z"/>
<path d="M1654 5276 c-10 -26 0 -51 21 -51 16 0 20 7 20 30 0 20 -5 31 -18 33
-9 2 -20 -3 -23 -12z"/>
<path d="M1807 5263 c-4 -3 -7 -19 -7 -34 0 -29 23 -49 54 -49 21 0 21 39 0
68 -15 22 -35 28 -47 15z"/>
<path d="M1814 5116 c-9 -24 4 -48 23 -44 24 4 24 52 0 56 -9 2 -20 -4 -23
-12z"/>
<path d="M1840 5030 c0 -16 7 -20 35 -20 28 0 35 4 35 20 0 16 -7 20 -35 20
-28 0 -35 -4 -35 -20z"/>
<path d="M1910 4947 c-14 -7 -26 -23 -28 -35 -3 -20 1 -22 37 -22 30 0 43 5
51 19 17 32 12 51 -12 51 -13 0 -34 -6 -48 -13z"/>
<path d="M1920 4830 c0 -16 5 -21 23 -18 12 2 22 10 22 18 0 8 -10 16 -22 18
-18 3 -23 -2 -23 -18z"/>
<path d="M2298 4833 c-9 -2 -19 -12 -22 -21 -13 -40 -66 -317 -66 -343 0 -15
-4 -31 -10 -34 -5 -3 -10 -35 -10 -70 0 -54 -3 -66 -20 -75 -11 -6 -20 -20
-20 -32 0 -11 -8 -27 -17 -34 -15 -10 -18 -27 -17 -98 1 -63 -3 -86 -13 -90
-7 -3 -13 -14 -13 -24 0 -10 -7 -33 -16 -51 -11 -21 -14 -44 -10 -66 6 -28 3
-36 -15 -45 -18 -10 -21 -18 -16 -56 4 -39 2 -44 -15 -44 -27 0 -46 -51 -64
-173 -8 -56 -21 -113 -29 -127 -33 -59 -43 -88 -50 -142 -6 -48 -11 -57 -29
-60 -15 -2 -22 -11 -24 -30 -2 -16 -9 -28 -17 -28 -13 0 -25 -21 -25 -45 0 -8
8 -21 17 -30 15 -16 15 -22 -2 -87 -18 -69 -18 -69 4 -98 11 -16 21 -31 21
-33 0 -3 -9 -7 -19 -10 -13 -3 -24 -19 -31 -46 -6 -23 -17 -41 -25 -41 -11 0
-13 -11 -8 -49 5 -44 2 -54 -21 -81 -14 -17 -26 -40 -26 -50 0 -10 -6 -20 -14
-23 -8 -3 -20 -32 -26 -64 -6 -32 -38 -147 -71 -255 -33 -109 -59 -208 -58
-220 2 -13 -5 -35 -14 -49 -20 -30 -59 -142 -76 -219 -7 -30 -16 -64 -21 -75
-29 -66 -61 -183 -66 -242 -4 -47 -13 -79 -29 -103 -13 -19 -29 -55 -35 -80
-7 -25 -17 -51 -22 -58 -10 -11 -18 -41 -35 -125 -3 -15 -10 -27 -15 -27 -6 0
-8 -11 -6 -24 3 -15 0 -27 -8 -30 -8 -3 -14 -19 -14 -36 0 -16 -5 -30 -11 -30
-7 0 -10 -21 -7 -60 2 -38 -1 -61 -8 -64 -6 -2 -15 -17 -18 -33 -4 -15 -15
-37 -25 -48 -22 -25 -96 -253 -116 -358 -8 -43 -15 -96 -15 -118 0 -21 -4 -39
-8 -39 -14 0 -40 -65 -47 -116 -3 -27 -8 -59 -11 -71 -4 -22 -1 -23 51 -23 42
0 55 -3 55 -15 0 -18 51 -20 83 -3 12 6 41 10 64 9 50 -2 54 3 77 106 20 92
21 132 0 140 -9 3 -12 9 -7 12 20 14 52 93 51 126 -1 20 6 43 15 53 19 21 21
45 7 73 -8 15 -7 19 4 19 8 0 19 6 23 13 4 8 16 17 26 20 14 5 18 16 16 39 -2
18 4 44 13 58 9 14 18 48 22 75 3 28 17 73 31 101 14 28 25 56 25 61 0 6 7 16
15 23 8 7 15 26 15 42 0 16 9 47 20 68 13 25 18 49 14 64 -4 17 2 31 21 50 23
23 26 33 20 62 -4 26 -1 43 15 70 16 25 21 46 18 74 -2 22 0 40 4 40 5 0 8 9
8 20 0 16 -7 20 -30 20 -22 0 -30 5 -30 17 0 13 3 14 12 5 14 -14 64 -16 73
-2 3 5 -4 26 -15 47 -11 21 -20 48 -20 61 0 19 4 21 25 16 22 -6 25 -3 25 23
0 17 9 38 20 48 11 10 20 23 20 28 0 5 8 15 17 22 14 11 15 17 6 38 -8 17 -8
28 -1 35 7 7 6 16 -1 29 -8 16 -4 26 24 56 19 21 35 42 35 47 0 19 -43 70 -59
70 -22 1 29 29 52 30 13 0 17 6 15 23 -2 15 -11 23 -30 25 -19 2 -29 11 -37
34 -6 18 -19 40 -28 50 -10 11 -11 18 -5 18 7 0 12 9 12 20 0 18 7 20 60 20
52 0 61 3 76 25 9 14 17 36 18 49 0 16 10 29 24 36 31 14 25 39 -15 66 -29 19
-31 22 -13 27 15 4 20 14 20 39 0 18 9 50 20 71 11 20 20 44 20 52 0 8 18 27
40 41 22 15 40 32 40 39 0 7 6 18 14 25 12 9 17 7 28 -10 26 -42 153 -99 183
-82 11 6 34 0 75 -19 32 -16 61 -33 65 -39 3 -5 22 -10 41 -10 23 0 38 6 46
19 11 18 14 19 47 5 19 -8 41 -23 48 -34 8 -11 25 -20 38 -20 17 0 25 6 27 22
2 13 10 24 19 26 9 2 33 -7 53 -19 25 -15 34 -24 25 -29 -6 -5 -9 -15 -6 -24
5 -12 20 -16 64 -16 61 1 160 29 178 52 5 7 25 14 44 15 18 1 44 9 57 18 14 9
25 11 29 5 12 -20 44 -9 84 30 22 22 48 40 56 40 9 0 21 11 27 25 10 23 12 23
24 7 11 -14 16 -15 31 -4 10 6 25 15 33 18 8 3 29 12 47 20 17 8 36 14 41 14
18 0 81 44 82 57 0 12 51 58 71 65 19 6 15 65 -6 88 -10 11 -13 20 -7 20 7 0
12 -4 12 -10 0 -5 16 -10 36 -10 36 0 36 1 31 33 -3 18 -3 45 0 60 4 21 11 27
33 27 15 0 35 9 45 20 10 11 23 20 29 20 15 1 56 67 56 90 0 10 -9 22 -21 25
-26 8 -20 29 10 33 13 2 31 18 42 37 11 18 26 36 34 39 9 3 15 18 15 35 0 39
9 61 26 61 16 0 19 36 3 45 -6 5 -3 13 10 22 23 15 28 43 9 43 -6 0 -4 7 5 18
21 23 22 58 2 66 -8 3 -15 18 -15 33 0 21 -7 31 -27 41 -15 6 -33 12 -41 12
-9 0 -12 6 -8 16 3 9 6 17 6 20 0 2 12 -1 26 -6 14 -6 43 -10 65 -10 44 0 57
16 40 49 -13 23 -42 41 -86 52 -23 5 -25 7 -8 8 41 2 84 97 53 116 -20 12 -9
25 20 25 22 0 30 5 30 18 0 9 -9 23 -20 30 -11 7 -20 19 -20 27 0 8 -4 23 -9
33 -5 9 -14 51 -20 92 -7 41 -18 87 -26 102 -7 15 -10 28 -5 28 5 0 15 3 23 6
11 4 13 -1 10 -20 -4 -21 -1 -26 16 -26 14 0 21 6 21 18 0 10 -5 23 -11 29 -8
8 -8 13 0 17 18 11 13 36 -11 57 -28 23 -86 24 -116 3 -13 -9 -29 -13 -37 -11
-7 3 -16 19 -20 36 -5 26 -11 31 -36 31 -22 0 -29 -5 -29 -19 0 -11 15 -35 33
-55 30 -31 36 -48 60 -168 36 -184 41 -224 28 -232 -6 -4 -11 -27 -11 -50 0
-29 7 -52 21 -70 l20 -26 -20 0 c-14 0 -22 -8 -27 -27 -3 -16 -7 -32 -8 -38
-2 -5 0 -22 4 -36 6 -19 3 -28 -11 -37 -11 -7 -19 -22 -19 -35 0 -12 -11 -42
-24 -67 -13 -25 -27 -61 -31 -80 -4 -19 -12 -41 -17 -47 -6 -7 -8 -24 -6 -38
3 -14 1 -25 -3 -25 -5 0 -9 -16 -9 -35 0 -24 -5 -35 -15 -35 -10 0 -15 -10
-15 -29 0 -16 5 -31 11 -33 16 -5 -1 -37 -24 -44 -30 -9 -63 -41 -77 -73 -6
-15 -27 -35 -46 -44 -42 -21 -131 -102 -139 -128 -4 -10 -13 -19 -20 -19 -8 0
-19 -8 -24 -19 -6 -10 -24 -21 -41 -24 -18 -4 -30 -13 -30 -22 0 -11 -11 -15
-40 -15 -34 0 -42 -4 -50 -25 -7 -18 -17 -25 -36 -25 -17 0 -39 -13 -62 -37
-26 -27 -46 -38 -67 -38 -23 0 -33 -7 -44 -30 -17 -35 -41 -62 -41 -45 0 7
-17 9 -52 4 -59 -7 -79 -19 -71 -40 7 -19 -11 -18 -28 2 -9 12 -27 15 -69 12
-38 -2 -63 2 -73 11 -10 7 -26 11 -37 8 -11 -3 -22 -1 -25 3 -3 5 -24 8 -46 7
-33 -1 -44 4 -63 27 -21 28 -25 29 -79 23 -55 -7 -56 -7 -59 20 -5 42 -34 41
-59 -1 l-21 -35 -23 22 c-13 12 -29 34 -34 50 -7 17 -18 27 -31 27 -13 0 -19
4 -14 11 4 6 -12 29 -35 50 -36 35 -41 44 -39 77 3 35 1 37 -32 43 -19 4 -28
7 -20 9 19 3 20 3 54 -6 l29 -7 -7 57 c-5 47 -4 56 9 56 24 0 45 62 45 135 0
59 2 65 20 65 26 0 37 27 22 51 -9 14 -8 24 3 46 8 15 15 42 15 59 0 17 7 37
15 44 8 7 15 20 15 30 0 9 11 29 25 44 14 15 25 35 25 45 0 9 7 26 15 37 8 10
15 31 15 47 0 22 -4 27 -24 27 -14 0 -32 -9 -40 -22 l-15 -21 -11 29 c-7 16
-8 34 -3 40 36 48 48 72 59 112 l13 47 0 -47 c1 -44 3 -48 25 -48 13 0 27 7
30 16 3 9 9 40 12 70 6 52 6 54 -17 55 -20 1 -19 2 6 8 26 5 30 11 33 44 3 33
6 37 30 37 52 0 102 13 102 25 0 7 6 18 14 24 17 14 27 110 14 134 -7 14 -3
28 17 57 54 77 98 121 178 173 45 30 102 71 126 91 24 20 74 55 111 77 69 41
133 58 295 78 l78 9 102 -49 c55 -27 114 -49 131 -49 28 0 30 -2 26 -33 -2
-22 2 -38 12 -46 9 -8 16 -18 16 -23 0 -16 61 -68 80 -68 21 0 50 41 50 70 0
11 -7 23 -16 27 -8 3 -13 12 -9 21 7 19 -12 42 -36 42 -15 0 -19 7 -19 35 0
30 -5 37 -40 55 -44 23 -80 26 -81 8 0 -7 -10 13 -22 45 -13 32 -29 62 -37 67
-24 16 -67 11 -102 -10 -36 -22 -73 -26 -83 -10 -8 13 -100 60 -135 70 -19 5
-39 -2 -86 -32 -36 -22 -74 -38 -92 -38 -24 0 -32 -6 -41 -30 l-10 -30 -37 25
c-42 29 -68 32 -86 9 -7 -8 -21 -23 -32 -32 -10 -9 -31 -45 -47 -79 l-28 -63
-56 0 c-42 0 -63 -6 -85 -22 -17 -12 -30 -27 -30 -34 0 -21 -17 -26 -65 -18
-41 6 -45 9 -45 34 0 16 6 30 13 33 6 2 27 2 44 -1 25 -3 34 0 39 12 4 10 2
22 -4 28 -8 8 -8 17 -1 30 6 11 8 31 5 44 -8 31 -43 33 -48 2 -2 -12 -10 -23
-18 -26 -12 -4 -13 -2 -2 9 6 7 12 36 12 65 0 47 -2 52 -24 58 -14 3 -40 20
-58 36 -31 28 -51 34 -90 23z m49 -765 c-3 -8 -6 -5 -6 6 -1 11 2 17 5 13 3
-3 4 -12 1 -19z m-486 -1261 c-11 -11 -41 -3 -41 11 0 5 12 7 26 4 17 -3 22
-8 15 -15z m-409 -1502 c0 -5 -5 -11 -11 -13 -6 -2 -11 4 -11 13 0 9 5 15 11
13 6 -2 11 -8 11 -13z"/>
<path d="M3532 4753 c2 -10 13 -19 26 -21 17 -3 22 2 22 17 0 16 -6 21 -26 21
-19 0 -25 -5 -22 -17z"/>
<path d="M503 4624 c-3 -8 -1 -20 5 -26 16 -16 42 -2 42 22 0 13 -7 20 -20 20
-11 0 -23 -7 -27 -16z"/>
<path d="M3724 4615 c-5 -11 4 -26 26 -46 36 -33 63 -35 68 -4 4 29 -18 54
-55 61 -25 5 -34 3 -39 -11z"/>
<path d="M4007 4264 c-4 -4 -7 -16 -7 -26 0 -14 6 -19 23 -16 14 2 22 10 22
23 0 20 -25 32 -38 19z"/>
<path d="M3973 4024 c-3 -8 -1 -20 5 -26 16 -16 42 -2 42 22 0 13 -7 20 -20
20 -11 0 -23 -7 -27 -16z"/>
<path d="M4004 3975 c-4 -9 -2 -21 4 -27 16 -16 47 -5 47 17 0 26 -42 34 -51
10z"/>
<path d="M4037 3864 c-4 -4 -7 -16 -7 -26 0 -12 7 -18 21 -18 15 0 20 5 17 22
-3 22 -19 33 -31 22z"/>
<path d="M80 3610 c0 -23 4 -30 20 -30 16 0 20 7 20 30 0 23 -4 30 -20 30 -16
0 -20 -7 -20 -30z"/>
<path d="M3934 3616 c-9 -24 3 -46 26 -46 17 0 21 5 18 27 -3 31 -34 44 -44
19z"/>
<path d="M51 3520 c2 -29 -2 -55 -9 -62 -7 -7 -12 -26 -12 -44 0 -17 -7 -37
-15 -44 -8 -7 -15 -25 -15 -41 0 -27 2 -29 43 -29 l42 0 -5 85 c-4 65 -2 85 8
85 15 0 32 41 32 76 0 21 -5 24 -36 24 l-35 0 2 -50z"/>
<path d="M250 3432 c-16 -26 -40 -57 -54 -70 -15 -12 -26 -29 -26 -37 0 -8 -4
-15 -9 -15 -14 0 -22 -51 -13 -85 7 -25 4 -33 -21 -54 -21 -18 -27 -30 -23
-46 4 -15 1 -25 -9 -29 -21 -8 -19 -63 3 -75 14 -9 13 -10 -10 -11 -21 0 -28
-5 -28 -19 0 -10 6 -21 14 -24 7 -3 16 -19 19 -37 4 -17 20 -45 36 -61 16 -16
31 -39 33 -52 2 -15 18 -29 51 -45 l48 -23 -23 -18 c-19 -16 -20 -21 -9 -34 7
-9 26 -19 44 -23 25 -5 34 -2 49 16 22 27 34 21 19 -8 -6 -12 -11 -30 -11 -41
0 -28 36 -28 50 0 15 28 34 19 35 -17 0 -20 6 -30 18 -32 12 -3 20 4 24 18 3
11 11 19 17 17 6 -2 24 -22 39 -45 16 -23 35 -42 43 -42 8 0 19 11 24 25 5 14
13 25 17 25 5 0 14 -9 21 -20 13 -21 48 -27 54 -9 2 7 29 11 68 10 42 0 72 5
87 14 13 9 23 11 23 5 0 -17 25 -11 92 20 34 16 73 30 84 30 26 0 47 23 42 47
-2 12 -12 18 -28 18 -14 0 -30 6 -36 14 -16 21 -84 7 -109 -21 -18 -21 -28
-23 -112 -21 -51 0 -93 -3 -93 -8 0 -5 -20 -9 -45 -9 -31 0 -47 5 -51 15 -4 8
-24 18 -46 21 -21 4 -55 17 -74 30 -19 13 -44 24 -54 24 -16 0 -20 7 -20 30 0
26 -5 31 -30 36 -22 5 -32 14 -40 39 -7 22 -20 37 -39 43 l-27 10 4 162 c3
140 1 164 -13 180 -16 17 -15 19 5 30 17 9 21 18 17 39 -3 16 -2 32 2 37 8 9
31 93 31 113 0 6 -7 11 -15 11 -8 0 -28 -21 -45 -48z"/>
<path d="M1596 3025 c-3 -8 -17 -20 -30 -25 -15 -5 -28 -20 -32 -35 -3 -14 -4
-28 -1 -31 3 -4 29 -3 56 1 43 6 52 11 57 31 9 37 -3 74 -25 74 -10 0 -21 -7
-25 -15z"/>
<path d="M3657 3003 c-14 -13 -6 -42 13 -48 27 -9 40 1 40 31 0 18 -5 24 -23
24 -13 0 -27 -3 -30 -7z"/>
<path d="M1322 2892 c-30 -25 -42 -55 -24 -65 4 -2 2 -2 -5 -1 -7 2 -18 -2
-25 -9 -7 -7 -24 -12 -38 -12 -21 0 -26 -5 -28 -33 -3 -31 -2 -33 24 -30 20 2
30 10 34 28 4 17 8 21 14 12 4 -6 18 -12 31 -12 41 0 124 102 111 136 -9 23
-59 16 -94 -14z"/>
<path d="M1097 2742 c-20 -21 -22 -57 -5 -68 6 -4 19 2 28 13 9 11 26 24 39
28 33 10 23 39 -15 43 -20 2 -36 -3 -47 -16z"/>
<path d="M1790 2165 c-15 -18 -5 -35 21 -35 12 0 19 7 19 19 0 24 -25 34 -40
16z"/>
</g>
</svg>
