<?xml version="1.0" standalone="no"?>
<!DOCTYPE svg PUBLIC "-//W3C//DTD SVG 20010904//EN"
 "http://www.w3.org/TR/2001/REC-SVG-20010904/DTD/svg10.dtd">
<svg version="1.0" xmlns="http://www.w3.org/2000/svg"
 width="593.000000pt" height="627.000000pt" viewBox="0 0 593.000000 627.000000"
 preserveAspectRatio="xMidYMid meet">
<metadata>
Created by potrace 1.16, written by Peter Selinger 2001-2019
</metadata>
<g transform="translate(0.000000,627.000000) scale(0.100000,-0.100000)"
fill="#000000" stroke="none">
<path d="M1590 4405 c-6 -16 -25 -32 -47 -41 -33 -14 -37 -14 -45 0 -13 23
-35 20 -54 -9 -13 -19 -25 -25 -54 -25 -39 0 -58 -12 -86 -55 -10 -16 -32 -26
-74 -34 -33 -7 -60 -16 -60 -20 0 -5 -9 -11 -20 -14 -14 -3 -20 -14 -20 -31 0
-22 -4 -26 -29 -26 -44 0 -61 -10 -61 -35 0 -13 -4 -27 -10 -30 -5 -3 -10 -15
-10 -26 0 -10 5 -19 10 -19 6 0 10 -11 10 -25 0 -21 5 -25 30 -25 38 0 53 26
40 70 -8 28 -6 35 13 50 14 12 26 15 31 9 16 -15 45 -10 55 10 10 18 104 91
118 91 4 0 23 11 43 25 28 19 58 28 123 35 47 6 98 15 113 20 20 8 31 7 43 -4
9 -7 32 -21 51 -31 19 -10 58 -35 85 -55 28 -21 62 -43 78 -49 15 -6 27 -17
27 -26 0 -8 9 -15 20 -15 14 0 21 9 26 36 4 20 7 71 8 113 1 75 1 76 -26 79
-19 2 -28 -2 -31 -15 -3 -10 -5 -3 -6 15 -1 20 -7 35 -17 39 -9 3 -33 -2 -52
-13 -28 -15 -36 -16 -40 -5 -6 19 -101 61 -140 61 -26 0 -35 -5 -42 -25z"/>
<path d="M2054 4246 c-3 -8 -4 -23 -2 -33 2 -14 14 -19 51 -21 37 -2 47 0 47
12 0 22 -40 56 -67 56 -13 0 -26 -6 -29 -14z"/>
<path d="M2024 4163 c-3 -10 -10 -25 -15 -33 -33 -54 -33 -94 1 -105 10 -3 24
-21 30 -40 6 -18 17 -36 25 -39 17 -6 55 43 55 72 0 16 8 21 33 24 24 2 33 8
35 24 2 12 -4 28 -12 37 -9 9 -16 29 -16 46 l0 31 -65 0 c-54 0 -67 -3 -71
-17z"/>
<path d="M2232 4051 c-48 -45 -62 -89 -43 -142 9 -25 8 -34 -1 -40 -10 -6 -9
-22 5 -71 9 -35 27 -102 40 -150 l22 -88 37 0 c34 0 38 3 47 38 6 20 11 49 11
65 0 20 7 31 25 39 30 13 32 38 6 62 -11 10 -23 32 -26 48 -4 18 -15 32 -26
35 -10 3 -19 9 -19 14 0 5 -7 9 -15 9 -23 0 -18 16 10 28 17 8 25 20 25 37 0
15 -6 36 -12 48 -7 12 -13 40 -13 62 0 27 -5 40 -15 43 -8 1 -35 -15 -58 -37z
m48 -105 c0 -3 -4 -8 -10 -11 -5 -3 -10 -1 -10 4 0 6 5 11 10 11 6 0 10 -2 10
-4z"/>
<path d="M2116 3933 c-8 -19 17 -48 33 -39 6 4 11 18 11 32 0 17 -6 24 -19 24
-10 0 -22 -8 -25 -17z"/>
<path d="M922 3917 c-9 -10 -8 -19 2 -33 8 -11 16 -31 18 -44 2 -21 8 -25 38
-25 49 0 50 25 2 74 -22 23 -42 41 -45 41 -2 0 -9 -6 -15 -13z"/>
<path d="M874 3779 c-8 -14 21 -43 35 -35 6 4 11 16 11 27 0 12 -7 19 -19 19
-11 0 -23 -5 -27 -11z"/>
<path d="M3894 3715 c-10 -8 -26 -15 -35 -15 -9 0 -19 -7 -23 -15 -3 -8 -16
-15 -28 -15 -17 0 -26 -9 -35 -32 -35 -100 -51 -133 -74 -157 -17 -17 -37 -62
-58 -128 -17 -56 -31 -107 -31 -115 0 -7 -10 -19 -21 -26 -18 -12 -21 -20 -16
-57 6 -37 4 -44 -13 -48 -14 -4 -20 -14 -20 -35 0 -17 -4 -34 -10 -37 -5 -3
-10 -17 -10 -31 0 -17 -5 -24 -20 -24 -28 0 -36 -27 -15 -50 22 -24 16 -54
-13 -58 -29 -4 -52 -39 -52 -80 0 -23 -8 -40 -26 -57 -21 -20 -25 -31 -22 -72
3 -43 1 -48 -19 -51 -12 -2 -27 -10 -33 -18 -10 -11 -10 -17 -1 -28 8 -10 9
-16 1 -21 -5 -3 -10 -13 -10 -21 0 -7 -15 -34 -34 -58 -18 -24 -39 -67 -46
-94 -6 -28 -22 -65 -36 -83 -24 -33 -33 -79 -14 -79 5 0 7 -7 4 -15 -8 -20
-24 -9 -24 16 0 12 -7 19 -19 19 -34 0 -51 -12 -51 -34 0 -12 -9 -39 -20 -61
-11 -22 -20 -46 -20 -55 0 -23 20 -40 47 -40 13 0 23 -4 23 -10 0 -16 -22 -12
-55 10 -36 24 -55 25 -55 5 0 -9 -9 -15 -24 -15 -26 0 -36 -16 -36 -60 0 -19
-8 -33 -26 -44 -18 -13 -24 -24 -22 -44 2 -19 10 -28 25 -30 20 -3 34 8 71 52
8 11 19 13 35 7 28 -10 34 -52 13 -96 -9 -18 -16 -44 -16 -57 0 -13 -9 -29
-20 -36 -15 -9 -20 -23 -20 -60 0 -36 -5 -50 -20 -60 -11 -7 -20 -23 -20 -36
0 -14 -9 -46 -21 -73 -12 -26 -49 -125 -84 -218 -57 -158 -85 -257 -99 -361
-3 -22 -13 -55 -22 -73 -21 -42 -12 -77 23 -89 25 -9 21 -11 -31 -11 l-59 -1
6 -50 c6 -47 4 -52 -17 -60 -15 -5 -25 -20 -30 -40 -10 -52 -8 -58 22 -62 23
-2 27 -8 27 -33 0 -25 -5 -30 -32 -36 -18 -3 -40 -12 -48 -19 -23 -19 -15 -54
13 -58 29 -4 45 -36 37 -72 -4 -19 -13 -30 -28 -32 -31 -4 -36 -47 -8 -55 12
-3 21 -8 21 -11 0 -3 -7 -13 -15 -22 -17 -19 -10 -50 11 -50 8 0 17 7 20 15 4
9 19 15 35 15 16 0 29 5 29 10 0 6 10 8 24 4 20 -5 27 0 40 24 15 29 58 52 97
52 10 0 24 9 32 20 14 21 57 40 89 40 11 0 31 9 45 20 14 11 43 25 64 30 27 8
44 20 54 40 9 17 27 33 42 36 14 4 44 24 66 45 22 22 48 39 58 39 23 0 96 64
104 91 4 11 24 29 46 40 26 13 45 32 54 53 8 18 21 39 30 46 9 8 35 16 58 19
33 5 45 12 55 33 10 21 10 33 2 48 -9 17 -8 20 9 20 22 0 37 35 47 110 9 69
-18 77 -47 15 -12 -25 -19 -29 -43 -27 -28 4 -28 3 -24 -43 l3 -47 -33 6 c-30
4 -34 2 -43 -22 -11 -31 -59 -59 -104 -61 -30 -1 -46 -15 -90 -76 -11 -16 -36
-35 -55 -43 -19 -8 -57 -32 -84 -53 -27 -22 -54 -39 -61 -39 -7 0 -15 -6 -18
-14 -3 -8 -22 -19 -41 -26 -30 -10 -36 -16 -36 -40 0 -27 -4 -29 -47 -36 -29
-4 -53 -14 -61 -25 -7 -10 -36 -25 -64 -34 -28 -8 -53 -15 -55 -15 -2 0 -3 33
-3 74 0 46 -4 78 -12 82 -7 5 -4 10 10 15 12 5 22 17 22 28 0 11 9 23 21 26
16 5 20 13 16 31 -3 16 0 24 9 24 8 0 16 12 19 28 3 15 13 41 21 57 8 17 21
55 29 85 8 30 19 56 25 58 5 2 10 9 10 15 0 6 6 18 14 26 8 9 18 28 21 43 5
21 3 29 -10 34 -14 6 -11 9 14 20 20 8 32 22 36 41 4 15 17 48 30 73 30 59 59
160 49 170 -5 4 -18 10 -29 13 -16 4 -14 5 6 6 35 1 51 23 47 63 -3 30 -6 33
-40 36 -30 3 -38 7 -38 23 0 33 27 87 49 99 22 11 28 44 12 55 -13 7 15 102
40 137 10 15 19 43 19 63 0 29 4 35 21 35 28 0 59 18 59 35 0 8 -11 26 -25 41
-30 32 -32 48 -5 39 29 -9 60 4 60 25 0 10 -4 22 -10 25 -13 8 -13 60 -1 83 6
9 12 29 15 43 3 14 17 31 31 39 16 9 25 22 26 39 0 14 3 20 6 14 2 -7 16 -13
29 -13 16 0 24 6 24 18 0 10 -6 24 -12 31 -11 10 -9 11 5 5 24 -9 57 22 57 55
0 15 9 34 20 44 11 9 20 23 20 31 0 7 7 19 16 27 9 7 13 21 10 33 -3 11 0 26
6 33 6 7 8 22 5 33 -4 17 0 20 28 20 l33 0 -6 45 c-3 33 0 52 13 72 24 36 34
171 14 184 -10 6 -3 9 22 9 44 0 67 23 80 82 8 35 7 45 -6 54 -14 10 -12 15
15 40 16 16 30 36 30 46 0 9 4 18 8 20 4 2 27 44 51 93 23 50 47 97 52 105 4
8 23 44 40 79 23 47 30 72 26 97 -3 19 -2 36 3 39 4 2 11 25 14 50 5 30 3 55
-7 77 -8 18 -17 41 -21 51 -7 21 -26 22 -52 2z m-1 -170 c-3 -9 -8 -14 -10
-11 -3 3 -2 9 2 15 9 16 15 13 8 -4z m-18 -35 c-3 -5 -14 -10 -23 -10 -15 0
-15 2 -2 10 20 13 33 13 25 0z m-47 -102 c7 -7 12 -15 12 -19 0 -12 -51 -69
-61 -69 -5 0 -9 9 -9 20 0 24 27 80 38 80 5 0 13 -5 20 -12z m-363 -948 c3 -5
-1 -10 -9 -10 -9 0 -16 5 -16 10 0 6 4 10 9 10 6 0 13 -4 16 -10z m-398 -512
c-3 -8 -6 -5 -6 6 -1 11 2 17 5 13 3 -3 4 -12 1 -19z m-40 -600 c-2 -37 1 -42
23 -48 l25 -6 -22 -8 c-13 -4 -23 -12 -23 -17 0 -5 -9 -9 -20 -9 -11 0 -23 -8
-26 -17 -3 -10 -14 -36 -25 -59 -28 -61 -24 -134 8 -134 18 0 -31 -47 -58 -55
-11 -4 -19 -13 -19 -21 0 -8 -3 -14 -8 -14 -4 0 -7 20 -7 45 0 25 3 45 7 45
12 0 28 73 28 133 0 52 2 58 25 67 29 11 49 54 41 87 -4 15 0 26 16 37 12 9
26 16 30 16 4 0 6 -19 5 -42z"/>
<path d="M5700 3617 c0 -9 -11 -12 -35 -9 -19 2 -47 1 -61 -2 -24 -6 -26 -10
-21 -48 4 -30 2 -37 -6 -29 -6 6 -21 11 -33 11 -16 0 -26 -10 -38 -40 -11 -29
-22 -40 -36 -40 -19 0 -21 -5 -19 -51 2 -33 -2 -53 -10 -59 -8 -4 -11 -16 -6
-29 5 -17 14 -21 44 -21 23 0 44 6 52 16 7 9 23 20 36 25 13 5 23 15 23 23 0
9 9 20 20 26 11 6 20 17 20 25 0 7 22 21 49 30 28 9 61 30 79 49 17 19 36 36
43 38 20 7 15 69 -6 84 -24 18 -95 19 -95 1z"/>
<path d="M2393 3603 c-4 -10 -15 -25 -25 -33 -9 -8 -20 -31 -23 -52 -6 -30 -4
-37 12 -41 16 -4 16 -5 1 -6 -10 0 -18 -7 -18 -14 0 -20 -37 -51 -45 -38 -10
17 -52 13 -59 -6 -4 -10 1 -28 12 -43 l19 -26 -26 1 c-22 0 -26 -5 -29 -32 -3
-25 1 -33 13 -33 12 0 8 -7 -12 -24 -24 -21 -28 -31 -28 -78 0 -30 -5 -57 -12
-63 -7 -5 -18 -37 -24 -69 -6 -33 -19 -81 -30 -108 -21 -54 -24 -93 -9 -103 6
-3 9 -23 9 -43 -1 -20 -3 -29 -6 -19 -6 24 -40 21 -54 -5 -6 -13 -21 -33 -32
-45 -13 -14 -18 -31 -15 -47 3 -17 -1 -31 -13 -42 -10 -9 -26 -37 -35 -63 -10
-25 -32 -63 -51 -83 -18 -21 -35 -50 -39 -65 -10 -50 -25 -81 -49 -103 -13
-13 -27 -35 -30 -51 -3 -15 -17 -35 -31 -43 -13 -9 -24 -23 -24 -31 0 -9 -16
-38 -36 -66 -20 -29 -40 -65 -46 -80 -6 -16 -19 -34 -29 -40 -10 -5 -19 -16
-19 -24 0 -7 -5 -15 -11 -17 -11 -4 -56 -105 -67 -151 -5 -17 -21 -36 -44 -50
-21 -12 -56 -46 -77 -75 -41 -53 -77 -144 -66 -162 4 -6 -5 -10 -21 -10 -24 0
-26 -3 -20 -30 6 -31 2 -38 -55 -98 -14 -15 -40 -53 -58 -84 -18 -31 -50 -71
-72 -89 -34 -27 -40 -37 -37 -60 4 -25 2 -28 -18 -23 -17 4 -24 -1 -33 -23
-17 -42 -41 -80 -41 -65 0 6 -9 12 -20 12 -15 0 -22 -9 -27 -30 -4 -20 -16
-36 -34 -45 -15 -8 -30 -23 -34 -34 -3 -10 -19 -24 -35 -31 -21 -9 -30 -19
-30 -36 0 -13 -8 -39 -17 -58 -13 -25 -27 -36 -50 -41 -26 -5 -33 -11 -33 -29
0 -12 -3 -26 -7 -30 -4 -3 -19 7 -34 24 -15 16 -37 30 -49 30 -18 0 -20 -5
-19 -50 2 -43 -2 -55 -27 -81 -16 -17 -49 -46 -74 -64 -36 -27 -72 -40 -177
-64 -72 -17 -140 -31 -151 -31 -11 0 -35 12 -52 26 -22 19 -28 30 -21 37 6 6
11 21 11 32 0 12 8 30 19 39 10 9 21 31 25 48 3 17 25 49 49 73 31 31 53 44
85 50 24 4 46 13 49 21 3 9 14 11 34 7 26 -5 29 -3 29 19 0 21 4 25 23 21 29
-5 51 11 44 31 -8 21 -67 22 -67 1 0 -13 -4 -14 -22 -4 -13 7 -47 10 -88 7
l-68 -5 -71 -70 c-61 -61 -71 -75 -71 -106 0 -33 -20 -67 -40 -67 -16 0 -40
-57 -40 -92 0 -25 6 -36 22 -43 12 -6 25 -23 30 -39 4 -17 14 -34 23 -38 8 -5
15 -15 15 -23 0 -22 33 -35 88 -35 56 0 83 -19 62 -45 -6 -8 -20 -17 -31 -20
-12 -4 -19 -16 -19 -31 0 -15 -6 -24 -15 -24 -9 0 -15 -9 -15 -25 0 -18 5 -25
19 -25 10 0 24 -7 31 -15 7 -9 23 -15 34 -13 15 2 22 12 24 31 2 16 -1 27 -9
27 -8 0 -5 7 6 20 16 18 19 18 30 4 6 -9 20 -15 31 -13 30 6 30 51 0 87 -29
34 -33 52 -11 52 8 0 15 -4 15 -10 0 -23 41 -7 69 27 17 21 31 32 31 25 0 -17
20 -15 41 3 15 15 17 13 23 -20 8 -40 28 -54 52 -34 11 9 14 23 11 46 l-6 33
50 0 c47 0 52 2 62 30 13 35 33 34 29 -2 -3 -33 28 -60 65 -56 23 2 29 9 34
38 4 19 7 29 8 23 1 -16 43 -17 59 -1 17 17 15 77 -2 84 -19 7 -56 -13 -56
-31 0 -20 -13 -19 -41 4 l-23 19 27 39 c15 21 27 46 27 55 0 25 20 32 34 12
16 -21 46 -12 46 15 0 11 -9 21 -21 24 -27 7 -15 27 15 27 30 0 45 19 53 64 5
31 9 36 33 36 16 0 46 15 74 37 37 29 47 42 43 60 -4 21 -1 23 34 23 31 0 39
4 39 18 0 11 9 27 20 37 11 10 20 24 20 32 0 7 8 13 19 13 25 0 45 25 38 49
-5 20 23 52 76 84 25 16 27 23 27 77 0 52 3 60 19 60 10 0 24 7 31 15 7 8 18
15 24 15 7 0 22 11 34 25 12 14 25 25 30 25 11 0 82 97 82 113 0 7 11 23 24
35 14 11 30 40 37 63 7 22 21 46 31 53 10 6 18 18 18 27 0 9 7 22 15 29 8 7
15 20 15 29 0 9 8 21 19 28 13 8 20 28 24 70 6 61 34 127 55 129 28 2 32 5 32
24 0 11 16 37 35 59 19 21 35 44 35 50 0 6 -12 17 -27 24 l-27 12 34 5 c30 4
39 13 62 55 16 28 37 80 49 118 12 37 24 67 29 67 4 0 10 9 13 21 3 11 15 23
26 26 13 3 21 13 21 28 0 14 9 26 25 33 20 9 25 19 25 49 0 21 4 43 8 49 4 6
19 14 35 18 16 4 27 13 27 24 0 9 9 31 20 47 11 17 25 55 32 85 6 30 17 60 24
65 6 6 20 34 30 63 15 43 16 57 6 72 -10 17 -10 20 3 20 21 0 29 24 16 48 -7
13 -7 22 2 31 9 9 9 16 0 30 -10 16 -8 27 7 59 11 23 25 44 31 47 6 4 7 19 4
35 -5 21 -1 33 16 48 21 20 38 78 39 134 0 20 -6 28 -22 31 l-23 4 23 2 c12 0
22 7 22 14 0 7 9 20 20 30 23 20 26 62 5 71 -8 3 -15 12 -15 21 0 21 -39 19
-47 -2z m-121 -315 c-8 -8 -9 -4 -5 13 4 13 8 18 11 10 2 -7 -1 -18 -6 -23z
m-768 -1640 c3 -14 -1 -29 -9 -38 -13 -13 -15 -10 -15 23 0 41 14 50 24 15z
m-82 -128 c-5 -33 -17 -37 -46 -15 -17 13 -18 15 -3 15 9 0 17 7 17 15 0 8 8
15 18 15 15 0 18 -6 14 -30z"/>
<path d="M904 3566 c-9 -24 4 -48 23 -44 12 2 18 12 18 28 0 29 -32 41 -41 16z"/>
<path d="M1517 3527 c-8 -20 9 -41 27 -34 23 9 21 47 -3 47 -10 0 -21 -6 -24
-13z"/>
<path d="M1615 3493 c-11 -3 -23 -10 -27 -17 -14 -21 -8 -55 13 -70 21 -14 21
-16 5 -56 -9 -22 -28 -59 -42 -83 -31 -50 -113 -137 -130 -137 -6 0 -28 -14
-49 -30 -56 -44 -103 -56 -169 -41 -70 16 -116 47 -142 96 -11 22 -30 45 -43
51 -12 6 -27 19 -34 29 -8 10 -23 16 -38 13 -21 -3 -24 -9 -27 -45 l-3 -43 35
0 c24 0 36 -5 36 -14 0 -8 7 -16 15 -20 8 -3 15 -12 15 -19 0 -8 -7 -20 -15
-27 -23 -19 -19 -59 6 -69 12 -4 34 -25 48 -47 21 -30 34 -40 60 -42 18 -2 38
1 45 7 9 8 22 4 46 -14 23 -17 41 -23 59 -19 28 6 131 52 249 112 61 31 72 41
72 63 0 18 8 29 25 37 15 7 25 20 25 33 0 12 11 32 25 45 28 26 44 76 27 82
-18 6 -15 19 10 44 15 15 22 36 24 64 1 28 -3 45 -12 48 -8 3 -14 14 -14 25 0
41 -38 58 -95 44z"/>
<path d="M2241 3476 c-16 -19 -6 -36 20 -36 15 0 20 6 17 22 -4 27 -21 33 -37
14z"/>
<path d="M5387 3444 c-4 -4 -7 -16 -7 -26 0 -14 6 -19 23 -16 14 2 22 10 22
23 0 20 -25 32 -38 19z"/>
<path d="M5707 3443 c-15 -14 -6 -43 26 -85 40 -53 63 -124 76 -243 17 -146
14 -197 -14 -251 -14 -26 -25 -55 -25 -64 0 -10 -7 -23 -15 -30 -8 -7 -15 -18
-15 -25 0 -17 -94 -109 -147 -144 -38 -25 -47 -28 -72 -18 -15 5 -35 7 -45 4
-21 -8 -21 -60 0 -81 20 -20 62 -20 85 0 9 8 32 15 50 16 19 0 64 12 101 26
66 26 68 28 83 77 8 28 23 56 34 62 25 16 47 56 77 147 24 71 31 140 15 150
-16 10 -33 100 -23 126 6 15 6 54 0 100 -8 64 -15 80 -41 107 -18 18 -38 33
-44 33 -7 0 -13 11 -13 25 0 45 -68 94 -93 68z"/>
<path d="M5205 3353 c-16 -26 -40 -64 -52 -83 -13 -19 -27 -44 -32 -55 -39
-88 -60 -126 -84 -153 -10 -10 -17 -24 -17 -30 0 -6 -6 -15 -14 -19 -7 -4 -24
-30 -37 -58 -14 -28 -36 -56 -52 -65 -16 -8 -34 -25 -41 -38 -7 -13 -23 -29
-37 -35 -13 -7 -25 -22 -27 -34 -2 -15 4 -22 22 -27 16 -4 26 -13 26 -24 0
-14 -8 -16 -49 -14 -36 3 -52 -1 -62 -13 -8 -9 -27 -30 -43 -47 -36 -39 -56
-87 -56 -133 0 -25 -5 -37 -17 -42 -29 -10 -63 -45 -63 -65 0 -10 5 -18 10
-18 6 0 10 -8 10 -18 0 -22 -57 -67 -62 -50 -7 21 -38 -1 -38 -27 0 -18 5 -25
19 -25 11 0 22 6 24 13 4 7 6 6 6 -4 1 -10 -10 -20 -26 -24 -15 -3 -31 -12
-35 -18 -4 -6 -4 -25 -1 -42 5 -28 4 -29 -9 -11 -9 12 -21 17 -32 13 -18 -7
-21 -38 -6 -53 8 -8 -6 -24 -43 -55 -59 -47 -90 -89 -86 -117 4 -28 -13 -76
-31 -89 -10 -7 -23 -26 -30 -43 -7 -16 -16 -30 -21 -30 -12 0 -11 -67 1 -75
15 -10 12 -19 -11 -30 -12 -6 -31 -35 -44 -68 -13 -32 -31 -67 -41 -78 -13
-15 -15 -24 -7 -42 6 -12 7 -31 3 -42 -4 -11 -15 -45 -24 -76 -9 -31 -30 -76
-46 -100 -16 -24 -30 -53 -30 -64 0 -11 -7 -29 -15 -39 -19 -25 -19 -41 0 -60
18 -18 11 -40 -21 -61 -19 -12 -24 -24 -24 -57 0 -34 -5 -47 -27 -64 -24 -19
-26 -24 -14 -38 11 -14 11 -16 -2 -16 -10 0 -17 -13 -20 -37 -3 -21 -13 -60
-23 -87 -14 -40 -15 -56 -6 -90 9 -35 8 -48 -9 -85 -21 -48 -25 -131 -8 -148
8 -8 7 -17 -5 -34 -18 -27 -21 -60 -5 -76 5 -5 11 -40 13 -76 1 -36 8 -72 15
-81 7 -9 24 -16 37 -16 17 0 31 -12 50 -41 19 -31 40 -48 87 -69 34 -15 70
-30 80 -34 9 -3 17 -12 17 -21 0 -25 55 -19 73 8 14 21 21 22 132 22 99 0 119
3 129 17 9 12 16 14 23 7 12 -12 53 -3 53 12 0 5 13 9 29 9 17 0 33 5 36 10 4
6 10 8 15 5 14 -9 60 14 67 32 8 22 68 83 82 83 6 0 18 14 26 30 9 17 20 28
26 25 5 -4 16 -22 24 -41 9 -22 21 -34 33 -34 35 0 45 64 13 75 -11 3 -23 15
-26 25 -7 23 8 55 31 64 11 4 18 0 21 -14 3 -11 11 -20 19 -20 7 0 18 -9 24
-20 7 -13 21 -20 41 -20 27 0 30 3 27 28 -3 25 1 28 52 44 30 9 68 19 84 23
38 8 96 66 97 97 l0 23 16 -22 c8 -13 20 -23 25 -23 6 0 36 16 68 36 39 24 62
46 69 65 12 35 5 59 -17 59 -13 0 -12 3 4 17 14 13 36 18 82 18 51 0 65 4 74
19 5 10 19 25 30 35 36 29 168 160 168 166 0 4 7 13 15 22 10 10 16 32 15 62
0 25 2 69 5 96 5 40 2 57 -15 83 -12 20 -39 41 -65 53 -24 11 -47 24 -50 29
-4 6 -32 10 -63 9 -31 -1 -73 2 -93 6 -41 8 -183 -19 -217 -41 -25 -17 -79
-97 -88 -132 -4 -13 -2 -34 5 -48 9 -21 8 -24 -10 -24 -19 0 -20 -4 -16 -47 8
-71 18 -116 29 -130 13 -16 50 -17 66 -1 16 16 15 53 -3 88 -13 25 -13 34 -3
52 7 13 15 25 18 28 3 3 19 31 34 63 15 32 38 64 49 71 24 15 217 28 217 15 0
-4 19 -9 43 -11 l42 -3 -1 -52 c-3 -99 -10 -117 -65 -159 -56 -42 -94 -78
-121 -111 -11 -14 -24 -20 -37 -16 -15 4 -23 -1 -32 -20 -7 -16 -17 -23 -28
-20 -10 2 -23 -3 -30 -11 -8 -9 -21 -16 -31 -16 -10 0 -20 -7 -24 -15 -3 -8
-12 -15 -20 -15 -8 0 -27 -11 -42 -25 -15 -14 -38 -25 -51 -25 -26 0 -109 -40
-167 -82 -21 -15 -44 -28 -51 -28 -7 0 -29 -13 -49 -29 -21 -17 -54 -35 -74
-42 -57 -18 -172 -78 -223 -115 -26 -19 -51 -34 -56 -34 -6 0 -21 -8 -34 -18
-13 -11 -53 -28 -89 -40 -36 -11 -96 -32 -135 -46 -87 -32 -143 -33 -179 -5
-14 11 -43 57 -65 101 -35 74 -37 83 -25 107 17 32 18 72 2 123 -9 31 -9 44 0
59 7 10 12 44 12 74 0 50 2 56 25 65 28 11 32 31 10 54 -19 18 -19 27 0 62 8
16 15 39 15 50 0 12 7 27 16 34 24 20 33 43 49 122 9 41 27 89 42 110 19 29
24 46 21 75 -4 28 1 47 19 74 13 20 26 59 30 87 4 35 14 61 29 78 13 14 24 31
24 38 0 8 9 35 21 61 14 31 19 59 16 80 -3 18 0 38 6 44 8 8 5 16 -9 32 -18
20 -18 21 1 35 10 8 26 14 36 14 9 0 22 7 29 15 7 8 19 15 26 15 16 0 19 26 4
35 -6 4 -5 13 2 25 10 15 9 23 -6 39 -19 21 -19 21 7 21 21 0 28 6 33 28 4 15
25 49 47 75 22 27 46 71 54 98 9 29 20 49 29 49 8 0 14 10 14 24 0 14 10 30
23 38 22 15 41 45 102 163 39 76 100 171 114 179 6 4 11 20 11 37 0 19 5 29
15 29 26 0 85 65 96 105 7 23 18 39 30 42 13 4 19 14 19 34 0 19 5 29 15 29 8
0 15 9 15 19 0 12 9 21 25 25 28 7 40 30 50 87 3 21 12 42 20 49 8 7 15 21 15
31 0 10 9 23 20 29 15 8 19 17 14 38 -4 23 -3 24 6 10 16 -25 50 -23 50 2 0
11 -6 23 -14 26 -12 5 -13 11 -4 32 6 15 23 37 36 49 17 14 23 28 19 42 -3 11
1 25 9 32 16 13 19 55 4 64 -5 3 -37 8 -72 11 l-63 5 -30 -48z m-910 -1843
c-10 -11 -22 -20 -27 -20 -4 0 -3 9 4 20 7 11 19 20 27 20 11 0 10 -5 -4 -20z
m1095 -926 c0 -8 -5 -12 -10 -9 -6 4 -8 11 -5 16 9 14 15 11 15 -7z"/>
<path d="M2783 1814 c-3 -8 -1 -20 5 -26 16 -16 42 -2 42 22 0 13 -7 20 -20
20 -11 0 -23 -7 -27 -16z"/>
<path d="M2690 1586 c0 -39 20 -60 50 -51 27 9 28 60 1 75 -37 19 -51 12 -51
-24z"/>
<path d="M2641 1596 c-16 -19 -6 -36 20 -36 15 0 20 6 17 22 -4 27 -21 33 -37
14z"/>
<path d="M2617 1524 c-11 -11 -8 -52 4 -60 6 -3 18 1 27 10 13 12 14 21 6 33
-12 20 -27 26 -37 17z"/>
<path d="M2577 1443 c-4 -3 -7 -15 -7 -25 0 -11 7 -18 19 -18 26 0 36 17 21
35 -14 16 -23 19 -33 8z"/>
<path d="M2372 1283 c2 -24 8 -28 33 -28 21 0 31 5 33 19 5 22 -13 36 -46 36
-20 0 -23 -4 -20 -27z"/>
<path d="M2292 1248 c-17 -22 -25 -78 -13 -92 7 -8 30 -13 59 -12 35 1 48 5
50 18 2 9 -6 25 -18 35 -12 10 -26 28 -31 41 -9 24 -31 29 -47 10z"/>
<path d="M2206 1115 c-11 -8 -27 -15 -37 -15 -21 0 -29 -20 -29 -68 0 -25 -3
-33 -9 -23 -13 21 -41 5 -41 -24 0 -17 5 -25 18 -25 10 0 23 5 30 12 9 9 12 8
12 -4 0 -9 4 -20 10 -23 13 -8 70 35 81 62 6 16 18 23 46 25 34 3 38 6 41 34
2 19 -3 38 -13 48 -20 20 -83 21 -109 1z"/>
<path d="M1988 1003 c-14 -18 -25 -27 -92 -65 -63 -37 -69 -42 -106 -75 -29
-28 -39 -32 -70 -27 -31 5 -40 1 -73 -30 -21 -20 -47 -36 -58 -36 -10 0 -36
-6 -56 -14 -21 -8 -56 -17 -77 -21 -24 -4 -51 -18 -68 -36 -16 -16 -40 -29
-53 -29 -37 0 -124 -20 -164 -38 -20 -9 -43 -17 -51 -17 -8 0 -38 -4 -67 -9
-40 -6 -52 -12 -57 -29 -3 -12 -3 -32 0 -44 5 -18 14 -23 43 -24 20 -1 29 -3
19 -6 -20 -5 -29 -25 -18 -42 11 -19 63 -9 75 15 6 11 16 19 23 16 7 -2 29 -1
48 3 25 4 38 13 44 31 5 13 18 27 27 31 10 4 22 12 26 20 4 7 22 13 40 13 18
0 59 7 92 16 33 8 79 19 102 23 23 4 48 12 55 18 7 6 27 13 43 16 17 4 45 9
63 13 22 4 32 12 32 24 0 10 -6 21 -12 23 -7 3 10 6 38 6 71 1 113 18 120 47
4 14 15 29 25 35 11 5 19 16 19 24 0 11 9 13 44 9 36 -5 47 -3 65 15 11 11 33
21 47 21 26 0 26 2 22 45 -7 54 -31 95 -58 95 -10 0 -25 -8 -32 -17z"/>
</g>
</svg>
