<?xml version="1.0" standalone="no"?>
<!DOCTYPE svg PUBLIC "-//W3C//DTD SVG 20010904//EN"
 "http://www.w3.org/TR/2001/REC-SVG-20010904/DTD/svg10.dtd">
<svg version="1.0" xmlns="http://www.w3.org/2000/svg"
 width="268.000000pt" height="627.000000pt" viewBox="0 0 268.000000 627.000000"
 preserveAspectRatio="xMidYMid meet">
<metadata>
Created by potrace 1.16, written by Peter Selinger 2001-2019
</metadata>
<g transform="translate(0.000000,627.000000) scale(0.100000,-0.100000)"
fill="#000000" stroke="none">
<path d="M1740 4616 c-6 -17 -18 -25 -44 -28 -20 -2 -36 0 -36 4 0 4 -11 8
-25 8 -18 0 -25 -5 -25 -20 0 -14 7 -20 23 -21 12 0 16 -3 9 -6 -7 -3 -39 7
-71 21 -32 14 -68 26 -80 26 -16 0 -21 -6 -21 -25 0 -14 -4 -25 -10 -25 -5 0
-10 -12 -10 -26 0 -14 -7 -32 -15 -40 -8 -9 -15 -22 -15 -30 0 -19 52 -18 93
1 46 21 137 36 252 42 55 3 105 9 111 14 7 6 16 3 25 -8 17 -21 191 -103 219
-103 13 0 22 9 26 27 4 14 3 33 -3 42 -6 10 -6 26 0 47 12 39 3 68 -18 60 -9
-3 -18 1 -21 9 -7 18 -50 20 -60 3 -5 -7 -15 -2 -30 17 -18 23 -26 26 -50 20
-16 -4 -43 -7 -60 -6 -18 1 -35 -2 -39 -8 -3 -6 -20 -11 -37 -11 -21 0 -31 6
-35 20 -7 28 -41 25 -53 -4z"/>
<path d="M2262 4494 c-7 -3 -21 -23 -32 -45 -11 -21 -30 -47 -41 -58 -23 -21
-20 -51 6 -51 8 0 15 -5 15 -11 0 -6 13 -26 29 -45 16 -18 48 -69 71 -112 23
-44 50 -88 61 -98 19 -17 21 -17 37 0 16 16 16 18 -1 48 -13 22 -15 33 -7 38
14 9 29 73 30 126 0 27 -7 49 -20 64 -11 13 -20 27 -20 31 0 4 -10 9 -22 11
-20 3 -24 11 -28 53 -5 47 -7 50 -35 52 -16 1 -36 -1 -43 -3z"/>
<path d="M1178 4419 c-10 -5 -23 -19 -29 -30 -8 -16 -7 -25 5 -38 15 -17 15
-20 -5 -45 -24 -30 -19 -56 9 -56 29 0 45 25 40 63 -3 32 10 57 31 57 13 0 22
27 15 45 -7 17 -41 19 -66 4z"/>
<path d="M1271 4411 c-23 -15 -5 -41 29 -41 19 0 33 6 37 16 6 17 -12 34 -37
34 -8 0 -21 -4 -29 -9z"/>
<path d="M974 4135 c-4 -9 -2 -21 4 -27 16 -16 47 -5 47 17 0 26 -42 34 -51
10z"/>
<path d="M2483 4102 c-18 -12 -44 -78 -44 -115 0 -18 -2 -55 -5 -84 -3 -28 1
-110 10 -182 18 -148 20 -275 6 -440 -7 -86 -14 -119 -27 -135 -22 -25 -84
-150 -108 -219 -9 -27 -35 -68 -56 -93 -21 -25 -39 -49 -39 -53 0 -4 5 -12 12
-19 9 -9 7 -12 -8 -12 -14 0 -32 -17 -52 -49 -18 -27 -32 -56 -32 -65 0 -9
-14 -25 -31 -34 -25 -14 -29 -22 -26 -46 3 -19 -3 -36 -18 -52 -12 -13 -27
-24 -34 -24 -6 0 -11 -4 -11 -10 0 -5 -7 -10 -15 -10 -8 0 -18 -12 -21 -27 -9
-36 -41 -71 -81 -88 -17 -7 -37 -24 -44 -37 -17 -32 -77 -88 -95 -88 -8 0 -17
-7 -20 -15 -4 -8 -17 -15 -31 -15 -24 0 -25 -2 -19 -40 5 -31 3 -40 -8 -40 -7
0 -20 7 -27 16 -9 12 -24 15 -51 11 -21 -3 -41 -1 -44 4 -3 5 -16 9 -30 9 -16
0 -28 -8 -34 -22 -6 -17 -9 -19 -9 -6 -1 24 -32 38 -84 38 -49 0 -62 -11 -90
-74 -14 -29 -21 -36 -30 -27 -16 16 -57 13 -64 -5 -3 -9 -2 -24 4 -33 7 -12 5
-23 -10 -43 -12 -16 -28 -28 -38 -28 -11 0 -19 -11 -22 -32 -4 -18 -9 -48 -13
-65 -5 -28 -3 -34 17 -42 13 -5 37 -26 54 -47 32 -40 103 -78 129 -68 8 3 25
22 36 42 19 31 23 34 31 19 12 -21 42 -22 59 -2 7 8 19 15 26 15 8 0 14 7 14
15 0 9 7 18 15 21 18 7 20 35 4 51 -9 9 -2 12 28 11 22 0 49 5 61 11 13 7 42
9 76 5 50 -6 54 -5 62 17 8 23 8 23 14 -6 4 -22 12 -31 28 -33 30 -4 48 11 55
47 5 24 10 28 31 24 22 -5 26 -2 26 18 0 15 -8 28 -22 34 -12 6 -29 22 -38 37
-14 26 -13 29 18 61 19 20 32 43 32 59 0 17 7 27 20 31 11 3 20 12 20 20 0 9
8 13 23 10 18 -4 26 3 39 31 12 25 32 43 68 61 27 14 51 31 51 38 1 6 3 21 4
32 1 11 2 28 3 38 1 10 10 17 22 17 15 0 27 15 45 55 14 33 30 55 40 55 21 0
30 27 16 44 -10 12 -7 17 16 28 21 10 29 22 31 46 2 19 11 36 23 42 10 6 19
20 19 31 0 12 12 34 28 49 57 59 62 68 60 96 -2 37 8 54 32 54 10 0 22 5 25
10 10 17 -5 50 -23 50 -14 1 -14 2 3 12 30 16 45 39 45 69 0 14 7 32 16 39 8
7 14 23 12 35 -1 12 6 34 16 49 19 30 14 42 -19 48 -11 2 -21 11 -23 21 -3 14
4 17 37 17 34 0 41 3 41 20 0 12 -10 25 -25 32 -22 10 -23 13 -10 32 8 11 15
31 15 43 0 14 6 23 15 23 18 0 31 45 18 63 -11 14 -9 133 2 161 6 15 2 24 -19
41 -24 19 -25 23 -11 29 15 5 16 17 12 84 -5 81 -40 282 -51 301 -8 13 -35 14
-53 3z m-953 -2077 c0 -8 -5 -15 -10 -15 -6 0 -19 -14 -29 -31 l-20 -32 -6 36
c-4 20 -4 40 0 46 3 6 19 11 36 11 19 0 29 -5 29 -15z m-134 -69 c9 -36 1 -60
-20 -64 -15 -3 -17 0 -11 14 5 11 9 31 9 47 1 33 14 35 22 3z"/>
<path d="M967 4073 c-4 -3 -7 -23 -7 -44 0 -26 6 -41 18 -48 14 -9 13 -10 -11
-11 -16 0 -30 -7 -34 -16 -3 -8 0 -34 6 -56 11 -37 11 -41 -8 -55 -12 -8 -21
-22 -21 -32 0 -10 -7 -32 -15 -47 -8 -16 -15 -39 -15 -51 0 -12 -6 -26 -14
-30 -7 -4 -16 -32 -19 -63 -13 -118 -20 -155 -33 -163 -8 -4 -14 -22 -14 -40
-1 -18 -7 -43 -15 -57 -24 -41 -18 -68 18 -90 l32 -20 -32 6 c-28 6 -34 3 -41
-17 -5 -13 -14 -63 -21 -111 -9 -65 -9 -93 -1 -109 10 -17 8 -23 -8 -34 -10
-8 -41 -57 -67 -110 -39 -76 -46 -98 -35 -105 17 -10 15 -65 -3 -110 -8 -19
-22 -69 -32 -110 -10 -41 -26 -89 -36 -106 -21 -35 -17 -60 12 -67 18 -5 18
-7 4 -47 -8 -24 -15 -55 -15 -71 0 -22 -5 -29 -19 -29 -20 0 -31 -18 -31 -53
0 -12 -7 -35 -16 -52 -13 -24 -15 -47 -10 -113 l6 -82 -26 6 c-25 6 -26 5 -22
-25 2 -17 1 -31 -4 -31 -5 0 -18 -19 -28 -42 -13 -29 -20 -66 -20 -113 0 -48
-6 -81 -18 -105 -10 -19 -24 -54 -32 -77 -11 -37 -11 -45 3 -67 16 -24 16 -25
-11 -38 -20 -10 -28 -21 -30 -48 -2 -19 -8 -39 -13 -44 -5 -6 -9 -39 -9 -73 0
-39 -6 -76 -16 -95 -9 -18 -14 -47 -12 -69 3 -32 0 -39 -14 -39 -9 0 -22 -9
-28 -20 -17 -32 -52 -216 -48 -257 2 -27 -3 -44 -15 -56 -12 -12 -17 -28 -14
-43 2 -13 0 -24 -4 -24 -5 0 -16 -25 -24 -55 -12 -40 -15 -73 -10 -119 7 -59
6 -64 -14 -69 -15 -4 -21 -13 -21 -34 0 -16 -4 -33 -9 -38 -11 -11 -40 -120
-48 -178 -3 -20 -2 -48 1 -61 7 -28 50 -46 110 -46 37 0 43 4 60 34 14 27 17
45 12 80 -6 36 -4 46 10 54 9 5 18 22 20 38 8 81 67 361 80 375 16 17 19 59 5
59 -6 0 -3 12 5 27 7 16 14 51 14 80 0 38 4 55 16 61 12 7 15 18 11 38 -4 22
1 35 20 56 20 21 27 41 31 83 4 51 3 55 -17 55 -11 0 -21 4 -21 8 0 12 34 42
48 42 15 0 16 27 1 35 -7 5 -5 11 4 18 8 7 18 34 22 61 5 37 14 56 38 77 28
26 30 31 18 52 -10 20 -9 38 7 108 11 46 23 108 27 137 4 31 13 56 22 61 11 6
14 17 11 35 -6 30 24 121 49 149 11 12 17 43 20 100 2 45 8 86 14 91 5 6 9 35
9 65 0 32 6 61 14 70 22 25 59 188 51 228 -4 22 -2 40 6 49 14 17 18 108 6
142 -7 18 -3 25 23 40 20 11 30 24 28 37 -1 11 1 25 5 31 4 7 13 43 21 80 13
61 13 70 0 80 -12 10 -11 13 11 18 21 5 25 12 25 46 0 23 5 40 11 40 7 0 9 9
6 21 -3 12 -2 29 3 38 5 9 12 51 16 95 5 64 9 79 24 83 25 7 32 29 15 47 -8 8
-15 19 -15 24 0 5 -9 13 -20 18 -19 9 -18 11 15 48 19 22 35 48 35 57 0 11 9
19 23 21 16 2 23 11 25 31 3 22 0 27 -20 27 l-22 0 22 16 c12 8 22 21 22 29 0
7 5 15 12 17 18 6 11 81 -9 95 -9 7 -11 13 -5 13 19 0 14 48 -5 59 -15 9 -16
10 -2 11 23 0 54 38 79 97 17 40 20 58 13 80 -5 15 -19 32 -31 38 -13 5 -20
16 -17 23 3 8 5 18 5 23 0 4 12 6 28 3 34 -6 57 8 48 31 -4 12 -16 16 -40 14
-19 -2 -38 0 -42 4 -9 9 -38 9 -47 0z"/>
<path d="M1971 3963 c-19 -16 -21 -24 -15 -80 4 -35 11 -63 15 -63 5 0 9 -10
9 -22 0 -13 7 -36 16 -53 13 -24 17 -61 17 -175 1 -80 -5 -170 -11 -200 -7
-30 -18 -96 -26 -145 -8 -58 -26 -121 -49 -173 -19 -45 -39 -96 -42 -114 -4
-18 -13 -42 -20 -53 -7 -11 -18 -42 -25 -70 -6 -27 -25 -81 -41 -118 -17 -38
-29 -80 -27 -95 2 -22 9 -28 36 -30 27 -3 35 1 39 17 3 12 9 21 14 21 5 0 9 5
9 11 0 6 9 22 20 36 11 14 20 35 20 47 0 11 7 29 15 40 8 10 19 43 25 72 7 34
18 58 30 64 22 12 40 61 40 112 0 30 7 46 29 68 19 19 35 52 47 96 14 53 16
76 8 114 -10 46 -9 49 13 59 24 11 31 35 13 46 -15 9 -12 56 5 105 19 53 19
141 1 206 -8 27 -17 71 -21 98 -4 32 -15 57 -31 73 -13 13 -24 33 -24 44 0 24
-39 79 -56 79 -6 0 -21 -8 -33 -17z"/>
<path d="M1925 1949 c-12 -18 6 -100 26 -120 10 -10 19 -23 19 -28 0 -5 7 -14
15 -21 8 -7 15 -21 15 -32 0 -17 5 -20 30 -14 17 3 30 1 30 -4 0 -16 46 -12
60 5 14 17 40 20 40 4 0 -6 12 -9 28 -7 17 2 27 9 27 20 0 23 -102 109 -120
102 -10 -4 -18 3 -25 20 -5 15 -21 31 -35 36 -13 5 -30 18 -37 30 -14 21 -62
28 -73 9z"/>
<path d="M1170 1700 c0 -15 7 -20 25 -20 18 0 25 5 25 20 0 15 -7 20 -25 20
-18 0 -25 -5 -25 -20z"/>
<path d="M2160 1695 c0 -14 6 -28 14 -31 22 -8 56 14 56 36 0 16 -7 20 -35 20
-31 0 -35 -3 -35 -25z"/>
<path d="M2226 1665 c-6 -18 2 -45 15 -45 5 0 9 -8 9 -19 0 -10 7 -24 16 -32
8 -7 22 -25 30 -41 8 -15 21 -28 29 -28 7 0 17 -9 20 -20 3 -11 12 -20 19 -20
15 0 69 -63 110 -127 14 -24 33 -43 41 -43 20 0 35 32 35 75 0 25 -10 49 -37
85 -21 28 -45 50 -55 50 -13 0 -18 8 -18 25 0 28 -40 75 -64 75 -27 0 -99 43
-104 62 -5 22 -38 24 -46 3z"/>
<path d="M1817 1453 c-26 -7 -39 -47 -25 -80 6 -16 10 -40 9 -55 -2 -22 2 -28
18 -28 16 0 21 -9 26 -45 4 -24 13 -50 21 -56 8 -6 14 -17 14 -25 0 -7 6 -17
14 -21 16 -9 26 -53 33 -143 3 -36 11 -69 18 -75 7 -5 18 -28 24 -50 l11 -40
-78 -75 c-61 -60 -90 -80 -138 -98 -34 -12 -67 -29 -74 -37 -6 -7 -10 -26 -8
-42 3 -25 8 -29 51 -37 47 -9 50 -8 78 22 25 26 38 32 73 32 30 0 48 6 62 20
10 12 30 31 42 43 13 12 35 43 48 70 13 26 28 47 33 47 5 0 12 48 15 108 6 82
3 121 -8 165 -15 56 -164 354 -194 390 -15 17 -30 19 -65 10z"/>
<path d="M2575 1270 c-10 -16 4 -30 31 -30 17 0 24 5 24 20 0 15 -7 20 -24 20
-14 0 -28 -4 -31 -10z"/>
<path d="M2564 1185 c-10 -25 4 -47 28 -43 17 2 24 11 26 31 3 23 0 27 -23 27
-14 0 -28 -7 -31 -15z"/>
<path d="M2600 1106 c0 -9 -4 -16 -9 -16 -17 0 -21 -32 -7 -65 8 -18 12 -35
10 -38 -3 -3 -12 -49 -20 -103 -8 -55 -20 -120 -28 -145 -8 -28 -38 -77 -77
-126 -49 -61 -71 -82 -94 -85 -16 -3 -91 -31 -165 -62 -74 -31 -145 -56 -157
-56 -12 0 -57 -19 -100 -41 -63 -34 -93 -43 -156 -50 -42 -4 -96 -17 -120 -28
-23 -11 -58 -22 -77 -25 -19 -4 -47 -12 -62 -20 -33 -17 -76 -22 -102 -11 -11
5 -26 3 -38 -4 -11 -7 -83 -21 -162 -31 -78 -10 -154 -24 -170 -31 -22 -10
-44 -10 -110 -1 -98 14 -225 16 -259 3 -19 -8 -27 -6 -31 5 -3 8 -16 14 -30
14 -14 0 -28 5 -32 11 -9 16 -184 98 -215 101 -23 3 -24 0 -27 -55 -3 -53 -1
-58 21 -66 13 -5 27 -17 30 -25 4 -9 12 -16 18 -16 6 0 27 -14 46 -31 24 -21
43 -29 61 -27 15 2 32 -3 37 -10 15 -19 45 -4 45 22 0 18 4 17 28 -13 15 -19
32 -41 38 -49 15 -21 80 -7 108 23 28 30 87 36 114 12 10 -9 26 -17 35 -17 11
0 17 -8 17 -25 0 -20 5 -25 23 -25 13 0 44 11 70 23 41 21 48 22 61 8 14 -13
19 -13 51 2 20 9 51 17 70 17 18 0 35 6 37 12 3 9 12 8 31 -5 14 -9 33 -17 40
-17 8 0 21 10 29 22 14 20 23 22 119 23 95 1 107 3 144 27 22 15 48 34 58 42
20 18 41 20 67 6 13 -7 21 -7 25 0 3 5 17 10 30 10 17 0 29 9 40 30 l15 29 48
-14 c26 -8 55 -15 64 -15 9 0 40 20 69 45 29 25 62 45 73 45 26 0 121 44 142
65 9 9 33 15 59 15 39 0 46 4 60 30 14 28 19 30 50 24 28 -5 35 -3 35 10 0 9
8 20 18 23 9 4 22 12 27 19 6 7 19 14 30 16 24 4 32 49 12 69 -19 20 -10 39
19 39 19 0 29 9 41 37 11 28 13 54 8 106 -6 63 -4 72 18 105 20 30 26 55 32
128 6 87 5 92 -15 97 -14 3 -20 12 -18 24 2 12 -4 19 -19 21 -16 2 -23 -2 -23
-12z"/>
</g>
</svg>
