<?xml version="1.0" standalone="no"?>
<!DOCTYPE svg PUBLIC "-//W3C//DTD SVG 20010904//EN"
 "http://www.w3.org/TR/2001/REC-SVG-20010904/DTD/svg10.dtd">
<svg version="1.0" xmlns="http://www.w3.org/2000/svg"
 width="343.000000pt" height="764.000000pt" viewBox="0 0 343.000000 764.000000"
 preserveAspectRatio="xMidYMid meet">
<metadata>
Created by potrace 1.16, written by Peter Selinger 2001-2019
</metadata>
<g transform="translate(0.000000,764.000000) scale(0.100000,-0.100000)"
fill="#000000" stroke="none">
<path d="M930 5223 c-36 -34 -70 -43 -70 -19 0 19 -21 26 -42 14 -11 -5 -25
-5 -37 2 -25 13 -128 13 -136 0 -3 -5 -15 -10 -25 -10 -10 0 -32 -8 -50 -17
-30 -17 -32 -17 -44 0 -17 22 -53 22 -65 -2 -6 -10 -26 -21 -46 -24 -49 -8
-95 -43 -95 -72 0 -13 5 -27 11 -31 16 -9 -9 -24 -42 -24 -29 0 -49 -17 -49
-42 0 -10 -9 -23 -20 -30 -11 -7 -20 -23 -20 -35 0 -15 -10 -28 -28 -37 -29
-15 -52 -53 -52 -86 0 -11 5 -20 11 -20 5 0 -1 -15 -14 -32 -14 -18 -28 -44
-32 -58 -4 -14 -13 -32 -20 -40 -6 -8 -12 -38 -12 -66 0 -27 -11 -103 -23
-167 -19 -93 -21 -122 -12 -142 8 -17 20 -25 37 -25 15 0 28 7 32 18 4 9 13
23 21 31 7 7 12 28 11 45 -2 17 3 41 9 53 19 34 14 69 -10 86 l-23 16 21 0
c12 1 25 9 29 19 3 9 15 59 26 111 11 54 32 118 51 152 60 114 214 231 358
273 40 12 96 17 204 17 82 0 176 -3 208 -7 46 -5 62 -4 69 7 6 10 10 6 15 -16
5 -26 18 -36 102 -77 54 -26 123 -52 155 -58 l57 -11 0 -39 c0 -72 33 -109 87
-98 14 3 18 13 18 43 -1 22 5 43 11 47 6 4 15 20 18 34 5 20 -1 40 -26 80 -29
48 -36 54 -58 49 -19 -4 -32 0 -45 15 -10 11 -49 30 -86 41 -47 14 -73 28 -84
45 -9 14 -32 32 -50 41 -19 9 -35 21 -35 27 -1 6 -16 21 -36 33 -25 17 -48 22
-87 21 -44 -2 -57 -7 -87 -35z"/>
<path d="M1566 4882 c-3 -5 -8 -28 -12 -51 -4 -24 -17 -55 -30 -69 -13 -13
-24 -26 -24 -28 0 -2 9 -27 20 -56 11 -29 31 -66 45 -82 14 -16 25 -33 25 -38
0 -4 9 -8 19 -8 19 0 19 -2 5 -36 -12 -29 -13 -53 -5 -137 6 -56 13 -165 16
-243 5 -131 4 -142 -15 -166 -11 -15 -20 -41 -20 -60 0 -22 -6 -37 -19 -45
-22 -14 -36 -60 -22 -77 6 -7 6 -17 1 -26 -5 -8 -6 -26 -3 -40 3 -18 -3 -38
-20 -64 -14 -20 -31 -61 -37 -90 -6 -29 -17 -62 -25 -72 -8 -11 -15 -28 -15
-39 0 -35 -50 -197 -81 -262 -16 -34 -29 -69 -29 -77 0 -8 -4 -18 -10 -21 -5
-3 -10 -19 -10 -34 0 -15 -9 -36 -20 -46 -10 -9 -24 -34 -31 -54 -6 -20 -20
-50 -30 -67 -11 -17 -19 -43 -19 -57 0 -14 -4 -29 -10 -32 -5 -3 -10 -15 -10
-27 0 -11 -18 -39 -41 -61 -30 -30 -39 -47 -36 -64 2 -13 0 -23 -4 -23 -5 0
-9 -20 -9 -45 0 -38 -4 -47 -23 -54 -30 -12 -44 -29 -52 -66 -4 -17 -20 -51
-36 -76 -16 -25 -29 -56 -29 -68 0 -15 -9 -25 -29 -32 -23 -8 -34 -21 -46 -57
-15 -46 -60 -133 -165 -322 -29 -52 -59 -107 -66 -122 -8 -14 -21 -29 -29 -32
-8 -3 -15 -10 -15 -15 0 -6 -11 -27 -25 -47 -14 -20 -25 -45 -25 -54 0 -10 -7
-23 -16 -31 -10 -8 -13 -21 -9 -36 4 -19 1 -23 -16 -23 -12 0 -23 -8 -26 -19
-3 -11 -14 -22 -25 -24 -13 -4 -18 -11 -15 -20 3 -8 -1 -27 -9 -42 -8 -15 -14
-39 -14 -54 0 -15 -8 -31 -20 -39 -11 -7 -20 -23 -20 -37 0 -24 3 -25 54 -25
l54 0 0 47 c0 33 5 49 17 55 12 7 14 18 10 37 -6 27 -5 28 37 27 l43 -1 -3 43
c-2 40 -1 42 22 36 29 -7 76 21 76 46 0 10 -9 20 -20 23 -12 3 -20 14 -20 25
0 11 -3 29 -6 39 -6 15 -4 16 7 6 7 -7 23 -13 36 -13 18 0 29 11 45 45 12 25
25 45 29 45 4 0 13 16 19 35 6 19 16 35 20 35 5 0 14 18 20 40 6 22 15 40 19
40 12 0 43 79 36 90 -3 5 10 14 30 20 27 9 36 19 44 47 6 19 17 43 26 53 12
13 13 23 5 44 -14 39 -13 44 13 48 15 2 23 11 25 29 2 15 13 31 26 39 29 15
59 68 79 140 11 38 23 58 38 65 12 6 27 19 33 30 6 11 18 32 28 47 10 15 18
43 18 62 0 25 5 36 18 41 11 3 24 15 31 28 6 12 23 37 36 56 16 22 25 47 25
72 0 22 4 39 9 39 5 0 14 15 21 34 6 18 22 44 36 57 23 21 25 30 22 88 -3 62
-2 65 22 71 14 3 31 18 40 32 13 24 13 29 -2 45 -15 17 -15 20 3 42 20 25 26
61 9 61 -23 0 -7 27 28 45 28 15 38 27 40 50 2 17 7 35 12 40 4 6 8 34 8 63 0
30 5 59 11 65 6 6 11 37 11 69 0 45 5 63 20 78 11 11 20 31 20 44 0 14 4 28
10 31 5 3 7 25 3 50 -4 29 -2 45 5 45 6 0 18 23 28 52 13 41 14 55 5 71 -10
15 -9 21 4 31 10 7 20 39 27 86 12 90 6 409 -8 418 -6 4 -13 15 -17 25 -3 9
-16 17 -27 17 -11 0 -20 5 -20 10 0 6 5 10 10 10 6 0 10 22 10 49 0 33 -6 56
-20 74 -11 14 -20 34 -20 44 0 10 -6 27 -14 38 -7 11 -17 31 -21 45 -14 46
-54 76 -69 52z"/>
<path d="M3089 4774 c-10 -12 -14 -44 -14 -104 0 -70 -4 -92 -17 -107 -19 -21
-24 -63 -8 -63 6 0 6 -10 -1 -27 -5 -15 -9 -36 -7 -47 1 -12 -5 -32 -15 -46
-23 -33 -22 -61 3 -67 24 -6 16 -23 -12 -23 -18 0 -19 -4 -13 -50 6 -47 5 -53
-20 -76 -23 -21 -26 -31 -22 -60 4 -21 0 -45 -9 -62 -7 -15 -14 -41 -14 -58 0
-17 -7 -37 -15 -44 -18 -15 -20 -41 -4 -57 8 -8 8 -13 0 -17 -6 -4 -11 -29
-11 -56 0 -36 5 -52 17 -59 10 -5 16 -11 13 -13 -3 -2 -18 -10 -35 -18 l-30
-16 -2 -117 c-1 -69 2 -117 7 -117 16 0 11 -38 -11 -86 -19 -44 -20 -46 -3
-59 15 -11 16 -15 5 -29 -9 -10 -14 -62 -18 -163 -4 -145 -15 -272 -32 -383
-5 -33 -5 -62 1 -73 6 -12 6 -23 -2 -32 -7 -8 -9 -19 -5 -24 3 -6 -2 -25 -11
-42 -9 -19 -14 -47 -12 -70 2 -27 0 -39 -10 -39 -7 0 -16 -8 -19 -17 -4 -10
-13 -24 -20 -31 -7 -7 -13 -29 -13 -47 0 -19 -4 -37 -10 -40 -5 -3 -10 -15
-10 -27 0 -16 5 -19 25 -16 14 3 25 1 25 -4 0 -18 31 -20 50 -3 20 18 40 13
40 -11 0 -8 7 -28 15 -44 15 -28 14 -30 -5 -30 -15 0 -20 -7 -20 -25 0 -19
-10 -30 -42 -46 -24 -12 -46 -26 -49 -31 -4 -6 -17 -15 -30 -22 -29 -14 -37
-46 -15 -58 9 -5 16 -16 16 -25 0 -11 7 -14 25 -11 14 3 28 1 31 -3 3 -5 14
-9 25 -9 14 0 19 7 19 24 0 14 -4 27 -10 31 -5 3 -7 12 -3 20 5 16 48 21 57 7
3 -5 8 -78 11 -163 6 -156 28 -312 65 -461 31 -126 34 -130 78 -126 33 3 37 6
37 30 -1 14 3 24 7 22 4 -3 8 -16 8 -29 0 -17 -8 -26 -30 -34 -28 -9 -30 -13
-30 -59 0 -43 17 -122 62 -282 7 -25 21 -56 31 -70 9 -13 17 -32 17 -41 0 -10
4 -19 9 -21 10 -3 42 -88 66 -172 8 -26 18 -53 23 -60 5 -6 12 -39 15 -73 7
-68 30 -133 46 -133 6 0 18 14 27 31 13 27 20 30 45 25 16 -3 40 -1 54 4 19 7
25 17 25 40 0 26 -4 30 -27 30 l-27 0 23 21 c20 19 22 28 18 93 -5 81 -26 169
-49 206 -9 14 -21 44 -27 66 -6 23 -18 47 -26 54 -8 7 -15 27 -15 46 0 18 -4
35 -9 38 -4 3 -16 34 -25 68 -14 50 -26 71 -59 101 -40 36 -41 38 -23 52 15
11 19 26 18 61 -1 25 -9 77 -18 114 -11 51 -22 74 -45 94 -16 14 -30 29 -30
34 -1 4 -2 52 -3 107 -1 56 -7 110 -14 122 -9 16 -9 24 -1 29 16 10 4 166 -16
206 -9 20 -13 44 -9 63 3 18 -2 79 -12 135 -13 78 -15 131 -10 217 6 104 5
114 -13 130 -18 15 -18 18 -4 28 11 8 17 36 20 96 5 68 3 89 -9 100 -14 12
-13 18 2 49 15 28 19 72 24 235 4 155 2 214 -9 260 -9 38 -11 63 -5 69 6 6 10
20 10 32 0 12 7 27 15 34 21 17 19 37 -5 50 -15 8 -20 21 -20 51 0 32 4 41 24
48 23 9 36 29 36 56 0 8 -11 31 -25 51 -14 20 -25 47 -25 60 0 16 -6 24 -17
24 -15 0 -15 1 0 18 11 12 16 34 15 62 -1 35 3 47 20 58 22 14 31 52 13 52
-18 0 11 62 30 67 26 7 24 37 -2 55 -19 12 -21 20 -15 51 4 20 13 43 21 51 8
8 15 21 15 30 0 8 10 20 21 27 21 11 21 16 15 106 -6 85 -4 98 14 128 11 18
23 53 26 79 5 35 2 56 -12 84 -10 20 -23 39 -28 41 -5 2 1 11 14 21 29 22 18
41 -23 39 -18 -1 -39 1 -48 5 -9 4 -21 0 -30 -10z m24 -3344 c-13 -5 -23 -17
-23 -27 0 -15 -2 -16 -10 -3 -18 28 -11 40 23 39 29 0 30 -1 10 -9z m167 -614
c0 -3 -4 -8 -10 -11 -5 -3 -10 -1 -10 4 0 6 5 11 10 11 6 0 10 -2 10 -4z"/>
<path d="M3218 4743 c-19 -5 -25 -47 -9 -57 5 -4 21 -2 35 4 29 11 35 44 10
54 -9 3 -16 5 -17 5 -1 -1 -10 -3 -19 -6z"/>
<path d="M27 4243 c-4 -3 -7 -23 -7 -44 0 -21 -5 -41 -10 -44 -6 -3 -10 -21
-10 -40 0 -22 6 -38 17 -45 13 -8 14 -13 5 -16 -18 -8 -15 -45 8 -81 14 -23
27 -33 44 -33 23 0 24 -2 15 -32 -14 -49 -11 -58 16 -68 23 -9 25 -13 19 -49
-5 -31 -2 -45 17 -72 13 -19 27 -35 31 -37 4 -2 5 -23 1 -48 -6 -43 -5 -44 21
-44 19 0 29 7 36 25 5 14 16 25 24 25 7 0 18 6 24 13 17 20 -9 62 -36 61 -12
0 -22 3 -22 7 0 3 -10 10 -22 14 -22 8 -22 8 5 12 22 4 27 9 27 34 0 61 -99
269 -127 269 -7 0 -13 5 -13 10 0 6 5 10 10 10 6 0 10 11 10 25 0 14 -5 25
-11 25 -7 0 -8 21 -4 65 l7 65 -34 0 c-19 0 -38 -3 -41 -7z"/>
<path d="M3082 3788 c2 -15 10 -23 23 -23 30 0 27 39 -3 43 -20 3 -23 0 -20
-20z"/>
<path d="M2720 2209 c0 -44 17 -69 45 -69 20 0 25 5 25 24 0 28 -35 76 -56 76
-9 0 -14 -11 -14 -31z"/>
<path d="M2640 1962 c0 -5 -9 -12 -20 -15 -18 -5 -20 -14 -20 -105 0 -93 -2
-103 -26 -131 -14 -17 -39 -39 -55 -48 -16 -10 -29 -26 -29 -36 0 -14 6 -18
28 -16 15 2 38 -4 52 -14 54 -38 89 -9 114 91 17 68 17 74 1 85 -18 14 -11 47
11 47 16 0 18 28 5 63 -8 21 -6 26 10 30 15 4 20 12 17 29 -2 19 -10 23 -45
26 -24 2 -43 -1 -43 -6z"/>
<path d="M2496 1574 c-12 -11 -16 -36 -16 -93 0 -65 -3 -81 -20 -96 -11 -10
-20 -24 -20 -32 0 -7 -7 -16 -15 -19 -8 -4 -15 -12 -15 -19 0 -16 -32 -79 -42
-83 -12 -5 -9 -47 3 -59 9 -9 3 -17 -25 -34 -34 -20 -37 -26 -34 -56 3 -28 -2
-41 -34 -75 -21 -23 -38 -45 -38 -49 0 -5 -52 -66 -116 -136 -64 -71 -123
-139 -132 -153 -9 -14 -37 -47 -62 -75 -26 -27 -59 -71 -74 -97 -19 -33 -41
-54 -72 -69 -24 -13 -46 -30 -49 -40 -3 -10 -36 -45 -73 -78 -37 -32 -74 -72
-81 -88 -8 -15 -18 -37 -23 -48 -5 -12 -8 -48 -6 -80 3 -57 5 -60 30 -63 15
-2 32 4 40 14 7 9 57 61 111 116 53 54 97 106 97 113 0 8 7 15 15 15 17 0 66
28 77 44 4 6 4 14 1 19 -7 11 44 57 63 57 27 0 104 117 104 160 0 14 7 20 23
20 32 0 58 30 51 58 -5 17 1 26 30 43 20 11 36 25 36 30 0 5 11 9 25 9 31 0
64 32 71 70 4 16 13 31 20 34 21 8 36 54 24 76 -7 13 -6 21 5 30 8 7 15 21 15
30 0 34 12 50 37 50 24 0 25 2 19 40 -6 36 -4 41 18 51 28 13 43 43 52 102 4
23 15 56 24 72 10 17 24 49 31 73 11 37 10 45 -2 54 -11 7 -11 11 -1 15 41 16
57 78 27 103 -8 7 -15 18 -15 26 0 15 -30 34 -54 34 -8 0 -22 -7 -30 -16z"/>
<path d="M370 1240 c0 -28 -4 -40 -14 -40 -21 0 -66 -58 -66 -85 0 -12 -7 -28
-15 -35 -8 -7 -15 -21 -15 -31 0 -11 -4 -19 -10 -19 -5 0 -10 -11 -10 -25 0
-15 9 -31 25 -41 13 -8 29 -13 34 -10 14 9 51 111 52 144 1 17 3 20 6 10 7
-27 42 -22 53 6 5 14 21 32 35 42 14 9 25 22 25 30 0 7 7 17 16 22 10 6 14 19
12 38 -3 28 -5 29 -65 32 l-63 3 0 -41z"/>
<path d="M2400 950 c0 -16 5 -21 23 -18 12 2 22 10 22 18 0 8 -10 16 -22 18
-18 3 -23 -2 -23 -18z"/>
<path d="M240 910 c0 -17 5 -21 28 -18 16 2 27 9 27 18 0 9 -11 16 -27 18 -23
3 -28 -1 -28 -18z"/>
<path d="M185 795 c-4 -24 -16 -54 -26 -66 -10 -12 -19 -28 -19 -35 0 -8 11
-16 25 -20 28 -7 32 -19 10 -28 -9 -3 -15 -18 -15 -36 0 -26 3 -30 28 -30 15
0 33 5 40 12 7 7 12 29 12 49 0 32 3 36 20 32 20 -5 25 4 20 37 -1 8 -10 25
-21 38 -10 14 -19 40 -19 58 0 29 -3 34 -24 34 -22 0 -26 -6 -31 -45z"/>
<path d="M160 530 c0 -23 4 -30 20 -30 21 0 45 34 35 50 -3 6 -17 10 -31 10
-20 0 -24 -5 -24 -30z"/>
<path d="M217 503 c-10 -10 -8 -48 2 -58 6 -6 11 -32 13 -59 l3 -49 72 -26
c40 -15 78 -32 85 -39 6 -6 11 -30 10 -52 -2 -32 1 -40 14 -40 10 0 26 -8 37
-17 13 -12 42 -20 90 -23 66 -5 72 -7 77 -30 5 -20 13 -26 40 -28 19 -2 39
-10 43 -18 10 -17 47 -19 47 -2 0 7 7 3 15 -9 19 -28 67 -43 130 -41 28 1 76
-2 107 -7 35 -5 63 -4 70 2 8 6 49 7 113 1 127 -11 208 -3 273 27 49 23 52 26
52 63 0 21 5 43 12 50 8 8 8 15 -2 27 -17 20 -59 19 -68 -2 -4 -10 -18 -19
-32 -19 -14 -1 -59 -7 -100 -13 -41 -7 -149 -12 -240 -13 -160 -1 -170 0 -304
35 -76 21 -158 37 -182 37 -37 0 -46 4 -58 28 -8 15 -52 63 -98 107 -172 167
-201 189 -221 168z"/>
</g>
</svg>
