<?xml version="1.0" standalone="no"?>
<!DOCTYPE svg PUBLIC "-//W3C//DTD SVG 20010904//EN"
 "http://www.w3.org/TR/2001/REC-SVG-20010904/DTD/svg10.dtd">
<svg version="1.0" xmlns="http://www.w3.org/2000/svg"
 width="224.000000pt" height="764.000000pt" viewBox="0 0 224.000000 764.000000"
 preserveAspectRatio="xMidYMid meet">
<metadata>
Created by potrace 1.16, written by Peter Selinger 2001-2019
</metadata>
<g transform="translate(0.000000,764.000000) scale(0.100000,-0.100000)"
fill="#000000" stroke="none">
<path d="M740 3540 c0 -6 -15 -8 -40 -4 -32 5 -40 4 -40 -9 0 -9 7 -23 16 -31
17 -18 60 -21 69 -6 10 16 52 12 70 -6 18 -18 124 -54 160 -54 12 0 28 -7 35
-15 20 -24 49 -18 61 13 l11 27 14 -32 c8 -18 27 -39 43 -48 28 -14 141 -45
169 -45 15 0 17 83 2 111 -6 10 -20 19 -30 19 -11 0 -20 6 -20 13 0 18 -50 45
-98 53 -30 5 -42 3 -42 -5 0 -8 -11 -4 -26 8 -28 22 -63 27 -92 12 -9 -5 -34
-16 -55 -25 -34 -14 -40 -15 -53 -1 -9 8 -26 15 -39 15 -13 0 -27 5 -30 10 -8
13 -85 13 -85 0z"/>
<path d="M599 3448 c-1 -7 0 -37 1 -66 1 -30 -3 -59 -10 -67 -18 -21 -5 -45
24 -45 29 0 38 20 38 88 0 26 4 53 10 59 6 7 8 20 4 28 -7 18 -65 21 -67 3z"/>
<path d="M1370 3390 c-11 -11 -20 -33 -20 -49 0 -23 10 -37 52 -68 28 -21 63
-45 77 -54 14 -8 43 -49 66 -90 l40 -74 -1 -155 c0 -114 -5 -170 -17 -212 -9
-31 -17 -70 -17 -86 0 -16 -6 -32 -12 -35 -7 -2 -35 -44 -62 -93 -60 -108 -91
-155 -151 -225 -25 -30 -48 -64 -51 -76 -4 -13 -10 -23 -15 -23 -15 0 -10 -74
7 -98 17 -25 66 -30 83 -9 99 121 131 169 131 197 0 10 -8 21 -17 24 -10 2 -2
5 17 4 56 0 60 1 60 20 0 10 8 25 18 33 11 9 24 42 31 77 6 33 23 77 38 99 14
21 30 51 36 68 6 16 20 40 33 51 12 12 28 40 35 63 11 38 10 43 -9 64 -28 29
-28 59 -1 83 13 12 18 26 15 40 -4 16 1 26 19 38 28 19 33 57 10 76 -8 7 -15
22 -15 34 0 12 -5 27 -12 34 -9 9 -7 13 5 18 26 10 21 43 -8 50 -18 4 -25 13
-25 30 0 13 -9 29 -20 36 -14 9 -20 24 -20 49 0 31 -4 38 -24 43 -15 4 -26 14
-28 29 -3 19 -11 23 -57 27 -36 4 -58 12 -67 25 -8 10 -14 22 -14 25 0 10 -48
30 -70 30 -11 0 -29 -9 -40 -20z m307 -356 c-3 -3 -12 -4 -19 -1 -8 3 -5 6 6
6 11 1 17 -2 13 -5z"/>
<path d="M497 3253 c-11 -11 -8 -48 5 -61 19 -19 82 -15 103 8 22 24 13 54
-14 45 -11 -3 -22 -1 -26 5 -7 11 -58 14 -68 3z"/>
<path d="M510 3131 c-47 -13 -67 -91 -24 -91 10 0 24 7 33 15 9 8 27 23 40 34
16 12 22 24 18 34 -7 18 -25 20 -67 8z"/>
<path d="M516 3014 c-9 -8 -16 -22 -16 -29 0 -7 -10 -15 -22 -17 -19 -2 -23
-9 -23 -38 0 -47 28 -52 66 -11 15 17 34 31 42 31 12 0 27 39 27 71 0 15 -58
10 -74 -7z"/>
<path d="M543 2924 c-3 -8 -1 -20 5 -26 16 -16 47 -5 50 20 3 18 -1 22 -23 22
-14 0 -28 -7 -32 -16z"/>
<path d="M467 2844 c-11 -12 -8 -41 6 -52 18 -16 39 1 35 29 -3 23 -27 37 -41
23z"/>
<path d="M504 2725 c-4 -9 -2 -21 4 -27 15 -15 44 -1 40 19 -4 23 -36 29 -44
8z"/>
<path d="M557 2606 c-3 -8 0 -20 8 -26 20 -17 50 -8 50 15 0 14 -8 21 -26 23
-16 2 -29 -3 -32 -12z"/>
<path d="M577 2444 c-4 -4 -7 -16 -7 -26 0 -14 6 -19 23 -16 14 2 22 10 22 23
0 20 -25 32 -38 19z"/>
<path d="M1099 2046 c-31 -29 -86 -70 -122 -90 -37 -20 -69 -41 -72 -46 -3 -6
-21 -10 -39 -10 -19 0 -39 -7 -46 -15 -7 -9 -28 -23 -46 -31 -26 -12 -42 -33
-67 -84 -40 -81 -40 -126 1 -141 31 -12 55 -4 89 27 27 25 30 25 128 19 55 -4
104 -11 110 -16 5 -5 24 -9 42 -9 18 0 33 -5 33 -10 0 -6 8 -14 18 -17 9 -4
32 -17 51 -30 19 -13 46 -23 62 -23 19 0 30 -6 34 -20 7 -22 45 -28 46 -7 0 6
5 2 11 -10 6 -13 19 -25 29 -28 22 -7 33 -37 24 -65 -4 -13 -15 -20 -30 -20
-13 0 -47 -9 -75 -20 -28 -11 -64 -20 -80 -20 -17 0 -30 -4 -30 -8 0 -15 -78
-43 -103 -37 -14 4 -28 2 -32 -5 -4 -6 -18 -15 -31 -20 -16 -7 -24 -17 -24
-33 0 -21 -6 -25 -40 -31 -22 -3 -40 -11 -40 -16 0 -6 -11 -10 -24 -10 -14 0
-28 -4 -31 -10 -3 -5 -19 -10 -35 -10 -15 0 -30 -7 -34 -15 -3 -8 -14 -15 -24
-15 -11 0 -25 -7 -32 -15 -7 -8 -21 -15 -31 -15 -10 0 -21 -4 -24 -10 -3 -5
-21 -10 -40 -10 -21 0 -39 -7 -47 -18 -7 -10 -29 -28 -48 -39 -19 -12 -51 -38
-69 -57 -27 -28 -35 -44 -34 -71 1 -28 -3 -35 -17 -35 -10 0 -32 -11 -48 -25
-24 -20 -31 -22 -36 -10 -8 22 -44 18 -51 -5 -4 -11 -17 -28 -31 -36 -13 -9
-24 -21 -24 -26 0 -5 -6 -16 -14 -24 -8 -7 -12 -23 -9 -34 4 -15 0 -20 -15
-20 -26 0 -85 -87 -102 -150 -7 -25 -23 -67 -38 -95 -40 -79 -42 -84 -42 -104
0 -11 13 -47 29 -82 21 -43 28 -71 24 -90 -3 -16 -1 -29 4 -29 5 0 15 -11 21
-25 9 -18 19 -25 41 -25 24 0 29 5 35 31 5 28 7 29 22 15 8 -9 22 -16 29 -16
30 0 45 -31 45 -91 l0 -59 34 0 c24 0 39 7 49 21 10 13 16 16 19 8 5 -16 110
-24 136 -10 16 8 21 7 26 -4 9 -23 43 -18 50 7 3 13 20 31 37 41 31 17 31 17
65 -13 37 -32 49 -36 59 -20 3 6 19 10 34 10 16 0 34 7 41 15 19 23 82 50 107
47 14 -2 26 3 29 12 3 8 28 20 56 25 63 14 85 26 93 51 3 11 12 20 19 20 8 0
19 7 26 15 7 8 25 15 41 15 25 0 29 4 29 28 0 26 2 28 34 24 30 -3 36 0 50 26
9 17 25 33 36 37 11 3 20 10 20 15 0 7 23 38 80 107 6 7 10 21 10 32 0 10 7
21 15 25 8 3 15 12 15 21 0 8 4 23 9 33 6 9 13 30 16 47 4 18 32 55 72 95 l64
65 -4 50 c-3 28 -9 65 -12 83 -8 36 6 73 38 105 10 11 16 24 14 30 -2 7 -14
17 -27 24 -34 17 -44 40 -26 59 18 17 21 60 6 69 -5 3 -10 24 -10 46 0 29 -4
39 -16 39 -9 0 3 15 28 34 31 24 48 31 60 25 9 -5 33 -9 52 -9 27 0 40 6 52
25 12 19 25 25 50 25 19 0 34 4 34 9 0 11 33 19 121 30 38 5 76 15 84 21 8 7
15 21 15 31 0 14 11 19 56 25 52 6 55 8 52 32 -2 18 -11 29 -28 34 l-25 7 27
-2 c21 -1 32 6 52 36 14 21 26 47 26 57 0 30 -38 26 -52 -5 -10 -22 -18 -25
-59 -25 -57 0 -79 -7 -79 -26 0 -8 -4 -14 -10 -14 -5 0 -10 5 -10 10 0 6 -18
10 -40 10 -28 0 -43 -6 -51 -18 -8 -12 -20 -17 -35 -14 -18 3 -26 -2 -35 -22
-13 -29 -20 -31 -36 -15 -12 12 -53 3 -53 -12 0 -5 -9 -9 -20 -9 -11 0 -20 4
-20 9 0 14 -28 21 -61 14 -22 -4 -34 -14 -41 -34 -7 -21 -17 -29 -34 -29 -13
0 -28 -9 -34 -20 -6 -11 -16 -20 -23 -19 -9 0 -9 2 1 6 6 2 12 11 12 19 0 21
-89 134 -121 153 -16 10 -37 29 -49 43 -11 15 -37 32 -58 39 -20 6 -44 17 -52
24 -8 7 -31 20 -52 28 -20 8 -39 25 -43 36 -3 12 -12 21 -19 21 -7 0 -21 9
-31 20 -10 11 -25 20 -33 20 -12 0 -12 4 4 19 13 12 23 15 31 9 7 -5 20 -8 29
-6 15 3 18 18 19 106 2 89 1 102 -14 102 -9 -1 -41 -25 -72 -54z m31 -286 c0
-13 -11 -13 -30 0 -12 8 -11 10 8 10 12 0 22 -4 22 -10z m380 -501 c-6 -11 -9
-35 -6 -52 5 -25 2 -23 -10 12 -14 36 -14 45 -3 52 23 15 30 10 19 -12z m-80
-62 c0 -42 29 -71 64 -65 22 4 24 1 29 -46 4 -42 2 -54 -14 -66 -21 -16 -39
-67 -31 -88 2 -7 15 -17 28 -22 30 -12 23 -33 -22 -59 -21 -13 -34 -28 -34
-41 0 -39 -71 -203 -99 -229 -16 -15 -31 -36 -35 -49 -4 -12 -12 -22 -17 -22
-5 0 -9 -7 -9 -16 0 -9 -9 -18 -20 -21 -11 -3 -20 -11 -20 -19 0 -7 -10 -19
-22 -25 -13 -7 -45 -30 -72 -51 -45 -35 -202 -118 -224 -118 -5 0 -25 -11 -44
-24 -23 -16 -58 -26 -99 -31 -35 -4 -82 -15 -104 -26 -22 -10 -49 -20 -60 -21
-11 -2 -67 1 -125 5 -74 6 -117 14 -147 29 -24 12 -43 26 -43 30 0 5 -17 8
-37 6 -31 -2 -42 2 -61 23 -14 17 -22 40 -22 62 0 50 19 138 36 164 8 12 14
33 14 47 0 14 4 27 9 30 5 3 12 21 15 39 3 18 24 53 46 77 21 24 42 56 45 71
8 37 22 45 30 19 9 -28 34 -25 45 5 6 16 27 32 60 46 33 14 56 32 66 50 10 20
26 31 57 39 70 18 70 18 64 50 -4 16 -2 32 3 35 5 3 10 -5 12 -17 5 -35 36
-34 69 1 15 17 34 31 42 31 7 0 36 7 64 15 35 10 52 21 56 35 4 16 14 20 45
20 29 0 49 8 77 30 21 17 46 30 56 30 10 0 20 4 23 9 3 4 28 11 55 13 36 4 59
13 87 36 38 31 74 42 74 22 0 -15 40 -12 56 5 24 23 34 18 34 -18z"/>
</g>
</svg>
