<?xml version="1.0" standalone="no"?>
<!DOCTYPE svg PUBLIC "-//W3C//DTD SVG 20010904//EN"
 "http://www.w3.org/TR/2001/REC-SVG-20010904/DTD/svg10.dtd">
<svg version="1.0" xmlns="http://www.w3.org/2000/svg"
 width="376.000000pt" height="764.000000pt" viewBox="0 0 376.000000 764.000000"
 preserveAspectRatio="xMidYMid meet">
<metadata>
Created by potrace 1.16, written by Peter Selinger 2001-2019
</metadata>
<g transform="translate(0.000000,764.000000) scale(0.100000,-0.100000)"
fill="#000000" stroke="none">
<path d="M500 2241 c0 -6 -5 -11 -12 -11 -6 0 -22 -10 -35 -22 l-23 -21 0 26
c0 24 -4 27 -35 27 -28 0 -39 -6 -60 -37 -20 -30 -25 -50 -25 -100 0 -52 -3
-64 -22 -77 -17 -12 -21 -24 -20 -58 1 -23 5 -50 8 -60 3 -10 -1 -30 -9 -45
-30 -56 -47 -102 -47 -127 0 -14 -4 -26 -9 -26 -5 0 -12 -15 -16 -32 -4 -18
-13 -42 -20 -54 -8 -12 -17 -38 -21 -60 -4 -21 -15 -45 -24 -54 -22 -19 -40
-72 -40 -116 0 -18 -4 -43 -10 -56 -5 -13 -14 -66 -20 -118 -19 -189 -29 -256
-44 -291 -10 -24 -15 -73 -15 -156 -1 -67 2 -129 5 -138 4 -9 17 -21 30 -26
17 -6 24 -16 24 -34 0 -14 7 -28 15 -31 8 -4 15 -12 15 -19 0 -13 49 -35 80
-35 9 0 34 13 56 29 21 16 49 32 61 35 12 4 25 16 28 28 9 26 23 12 27 -27 3
-28 6 -30 48 -33 65 -5 114 13 148 54 36 43 74 64 117 64 31 0 56 19 68 51 4
11 23 19 60 23 39 5 61 14 78 32 12 13 28 24 36 24 7 0 13 4 13 9 0 4 11 6 23
4 17 -3 37 7 71 36 26 23 54 41 62 41 8 0 19 11 25 24 6 13 29 32 50 41 21 10
46 26 55 36 10 11 23 19 30 19 7 0 17 6 21 13 4 6 17 17 28 23 11 6 30 29 43
52 14 25 34 44 52 51 16 5 32 6 35 2 2 -5 -4 -11 -15 -14 -15 -4 -20 -14 -20
-41 0 -25 -6 -38 -20 -46 -22 -12 -27 -45 -7 -54 9 -3 7 -9 -5 -19 -10 -8 -18
-21 -18 -30 0 -22 21 -67 32 -67 4 0 8 -18 8 -40 0 -33 3 -40 20 -40 22 0 90
56 90 74 0 6 14 23 32 37 28 23 30 29 19 43 -7 9 -22 16 -32 16 -11 0 -19 4
-19 9 0 12 36 21 83 21 37 0 38 -1 35 -33 -3 -31 -2 -32 35 -30 20 1 37 -2 37
-7 0 -5 9 -14 20 -20 21 -11 32 -9 138 27 25 9 51 26 60 42 13 20 24 25 45 23
21 -3 27 1 27 17 0 11 -6 24 -14 28 -7 4 -18 18 -25 31 -16 29 -39 28 -47 -3
l-6 -25 -23 24 c-24 26 -81 46 -132 46 -21 0 -33 5 -33 14 0 7 -14 19 -31 26
-27 11 -29 16 -23 39 11 35 6 168 -7 209 -10 29 -8 38 15 71 14 20 26 46 26
57 0 11 7 29 15 40 8 10 15 29 15 42 0 13 16 43 36 67 19 24 35 52 34 62 -1
10 -2 37 -1 60 1 38 4 42 29 45 25 3 27 7 29 48 3 80 -7 119 -40 153 -26 26
-39 32 -75 32 -35 0 -48 -5 -61 -24 -9 -12 -30 -38 -48 -57 -18 -19 -37 -53
-44 -76 -6 -24 -28 -95 -50 -158 -21 -63 -46 -137 -55 -165 -22 -67 -41 -113
-64 -157 -11 -20 -20 -53 -20 -72 0 -29 -9 -44 -50 -85 -27 -28 -50 -57 -50
-66 0 -8 -4 -15 -9 -15 -6 0 -16 -12 -23 -27 -10 -20 -23 -29 -50 -34 -43 -7
-69 -23 -126 -78 -24 -24 -66 -50 -97 -62 -30 -11 -63 -31 -74 -45 -10 -13
-24 -24 -29 -24 -17 0 -42 -42 -43 -70 l0 -25 -10 24 c-8 19 -14 22 -37 18
-16 -3 -67 -29 -113 -58 -114 -71 -148 -87 -190 -94 -21 -3 -53 -17 -73 -30
-20 -14 -51 -25 -67 -25 -37 0 -89 23 -123 55 -22 20 -24 27 -16 57 6 18 10
55 10 83 0 27 5 70 11 94 5 24 14 87 19 139 5 52 14 100 19 105 12 12 15 60 5
70 -4 4 -8 33 -8 66 -2 51 1 60 17 65 14 3 18 12 16 33 -2 16 4 39 14 53 9 13
17 31 17 38 0 8 7 28 15 45 19 43 39 97 92 257 24 74 53 152 64 172 10 20 19
43 19 50 0 7 9 24 20 38 11 14 20 35 20 48 0 13 6 22 15 22 9 0 15 9 15 21 0
12 8 28 18 35 13 10 15 17 6 31 -12 20 -74 31 -74 14z"/>
<path d="M2950 1925 c0 -22 6 -37 17 -44 10 -5 15 -13 11 -16 -4 -4 -18 2 -32
12 -18 14 -22 23 -14 31 14 14 3 42 -17 42 -20 0 -30 -26 -17 -43 7 -9 5 -28
-8 -66 -10 -30 -25 -58 -34 -63 -10 -5 -16 -22 -16 -43 0 -29 4 -34 26 -37
l25 -3 -24 -46 c-18 -33 -26 -66 -29 -114 -3 -70 -1 -75 45 -89 9 -3 17 -13
17 -23 -1 -17 -1 -17 -11 0 -12 20 -49 23 -49 3 0 -7 -7 -19 -15 -26 -8 -7
-15 -27 -15 -45 0 -18 -9 -53 -20 -78 -11 -25 -21 -64 -23 -86 -1 -23 -5 -41
-9 -41 -13 0 -9 -165 4 -178 9 -9 9 -12 0 -12 -18 0 -15 -45 7 -93 10 -23 21
-50 24 -60 5 -13 13 -16 27 -12 13 4 20 2 20 -7 0 -7 13 -20 29 -29 15 -9 34
-30 42 -48 8 -17 19 -33 26 -36 20 -7 43 5 43 23 0 12 3 13 12 4 14 -14 64
-16 73 -2 7 12 34 2 63 -24 17 -15 27 -18 39 -10 12 8 31 2 77 -23 34 -18 71
-33 84 -33 18 0 22 6 22 29 0 16 6 31 15 35 9 3 15 18 15 36 0 26 -6 33 -34
45 -19 8 -60 18 -91 21 -36 5 -67 15 -84 29 -42 36 -70 47 -117 47 -37 0 -44
3 -44 19 0 13 -7 19 -24 19 -13 0 -29 7 -36 15 -11 13 -10 18 6 29 16 12 16
18 6 40 -8 17 -19 26 -35 26 -13 0 -28 -5 -35 -12 -9 -9 -12 -6 -12 15 0 22 5
27 23 27 13 0 31 6 41 13 18 13 18 15 -4 35 -19 18 -22 28 -17 65 8 57 26 95
48 102 24 8 31 32 14 49 -13 13 -13 15 5 21 21 7 27 39 10 50 -5 3 -10 19 -10
35 0 25 3 29 28 27 24 -2 27 1 24 25 -2 19 1 26 10 23 20 -7 42 11 35 29 -8
21 -47 21 -47 -1 0 -15 -1 -15 -18 0 -10 10 -24 17 -30 17 -19 0 -14 18 8 30
15 8 20 21 20 50 0 34 -3 40 -22 41 -21 1 -21 2 -3 6 11 3 24 9 29 14 17 16
22 10 18 -24 -3 -25 3 -41 20 -62 14 -16 30 -25 36 -21 6 4 14 29 18 56 4 28
10 50 15 50 5 0 9 6 9 14 0 7 7 19 15 26 9 7 13 21 10 31 -4 11 -4 19 -2 19 2
0 25 -12 51 -26 50 -28 76 -26 76 4 0 22 -18 39 -81 75 -30 17 -49 36 -53 52
-5 18 -13 25 -32 25 -14 0 -32 -7 -41 -15 -8 -8 -19 -13 -24 -10 -14 9 -11 51
5 65 8 6 12 18 9 26 -6 17 -63 19 -63 2 0 -9 -3 -9 -12 0 -7 7 -20 12 -30 12
-14 0 -18 -8 -18 -35z"/>
<path d="M2700 1451 c-17 -32 -12 -43 18 -39 21 2 28 9 30 31 3 22 -1 27 -17
27 -11 0 -25 -9 -31 -19z"/>
<path d="M2600 1221 c0 -10 7 -21 15 -25 23 -8 45 4 45 25 0 14 -7 19 -30 19
-23 0 -30 -5 -30 -19z"/>
<path d="M2583 1144 c-7 -3 -13 -17 -13 -30 0 -30 37 -49 75 -40 22 6 26 11
23 39 -3 29 -6 32 -38 34 -19 1 -41 0 -47 -3z"/>
<path d="M1960 1066 c0 -13 7 -26 15 -30 17 -6 45 2 45 14 0 24 -15 40 -36 40
-19 0 -24 -5 -24 -24z"/>
<path d="M2420 998 c-30 -17 -73 -41 -95 -54 -22 -13 -74 -40 -115 -60 -41
-20 -81 -41 -89 -47 -7 -6 -32 -12 -55 -13 -22 -1 -61 -7 -86 -14 -25 -7 -51
-14 -58 -16 -9 -3 -12 -18 -10 -46 2 -34 8 -45 30 -58 23 -12 32 -13 60 -1 35
14 90 26 171 37 37 5 47 11 47 26 0 16 5 18 35 12 40 -7 92 12 98 38 4 13 18
18 58 20 50 3 54 5 57 30 2 19 -2 28 -15 31 -14 4 -13 5 5 6 27 1 39 27 24 52
-9 15 -8 19 8 24 14 4 20 15 20 36 0 38 -19 38 -90 -3z m5 -89 c10 -15 -1 -23
-20 -15 -9 3 -13 10 -10 16 8 13 22 13 30 -1z"/>
<path d="M1832 773 c-5 -14 -19 -18 -59 -18 -39 -1 -56 -6 -66 -19 -12 -16
-14 -16 -26 -2 -14 17 -41 22 -41 7 0 -5 -9 -7 -20 -4 -13 4 -22 -1 -27 -13
-6 -17 -8 -16 -13 6 -5 20 -13 26 -43 28 -31 3 -39 -1 -47 -20 -6 -13 -17 -34
-25 -48 -8 -14 -15 -34 -15 -46 0 -11 -5 -25 -11 -31 -16 -16 -7 -64 14 -77
14 -9 21 -7 35 10 9 12 41 34 70 49 43 21 53 30 49 46 -7 26 12 13 23 -17 13
-34 51 -32 68 3 6 15 12 33 12 40 0 8 13 13 38 12 20 0 30 -3 22 -6 -8 -3 -18
-10 -21 -16 -17 -25 27 -84 55 -74 8 3 16 21 18 39 3 28 8 34 33 38 25 5 30
10 30 35 1 17 4 38 9 48 4 9 6 24 2 32 -8 21 -55 19 -64 -2z"/>
<path d="M3422 688 c-7 -7 -12 -18 -12 -25 0 -7 -11 -19 -25 -25 -31 -14 -33
-48 -4 -74 29 -27 49 -68 49 -103 0 -25 -11 -39 -67 -85 -38 -30 -80 -66 -94
-80 -15 -14 -30 -26 -34 -26 -3 0 -33 -23 -64 -51 -61 -54 -101 -112 -101
-148 0 -19 6 -21 58 -21 66 0 116 12 138 34 12 13 30 14 91 9 72 -6 76 -5 94
18 10 13 19 35 19 48 l0 24 23 -21 c13 -12 27 -22 31 -22 18 0 84 78 95 112 7
21 19 38 27 38 8 0 19 12 25 26 7 21 6 31 -7 45 -11 12 -13 23 -6 34 8 16 10
16 15 1 8 -21 46 -20 54 2 4 9 12 21 20 25 20 12 16 71 -6 91 -10 9 -38 19
-62 21 -36 3 -50 11 -75 40 -27 33 -36 37 -88 40 -61 4 -91 15 -40 15 17 0 35
5 42 12 17 17 15 45 -4 52 -26 10 -79 7 -92 -6z m80 -433 c4 -17 1 -25 -9 -25
-7 0 -17 -8 -21 -18 -5 -13 -15 -16 -42 -12 -32 5 -33 6 -17 20 10 8 28 25 39
38 12 12 27 22 34 22 6 0 14 -11 16 -25z"/>
<path d="M3110 20 c0 -16 5 -21 23 -18 12 2 22 10 22 18 0 8 -10 16 -22 18
-18 3 -23 -2 -23 -18z"/>
</g>
</svg>
