<?xml version="1.0" standalone="no"?>
<!DOCTYPE svg PUBLIC "-//W3C//DTD SVG 20010904//EN"
 "http://www.w3.org/TR/2001/REC-SVG-20010904/DTD/svg10.dtd">
<svg version="1.0" xmlns="http://www.w3.org/2000/svg"
 width="137.000000pt" height="627.000000pt" viewBox="0 0 137.000000 627.000000"
 preserveAspectRatio="xMidYMid meet">
<metadata>
Created by potrace 1.16, written by Peter Selinger 2001-2019
</metadata>
<g transform="translate(0.000000,627.000000) scale(0.100000,-0.100000)"
fill="#000000" stroke="none">
<path d="M13 2019 c-7 -7 -13 -20 -13 -28 0 -19 59 -68 86 -71 42 -5 65 1 84
20 20 20 20 20 40 -19 11 -22 28 -42 39 -46 10 -3 40 -1 67 5 45 10 52 9 106
-20 41 -21 72 -30 106 -30 26 0 64 -3 84 -6 l36 -6 -33 -73 c-18 -40 -56 -109
-84 -152 -28 -44 -51 -86 -51 -93 0 -16 -53 -110 -62 -110 -5 0 -8 -12 -8 -27
0 -16 -7 -53 -15 -83 -8 -30 -15 -68 -15 -83 0 -15 -7 -30 -15 -33 -8 -4 -24
-35 -34 -69 -11 -35 -24 -72 -30 -82 -5 -10 -13 -44 -16 -75 -4 -35 -14 -65
-26 -79 -11 -12 -22 -32 -24 -43 -20 -88 -25 -115 -25 -143 0 -19 5 -33 12
-33 9 0 9 -3 0 -12 -7 -7 -12 -40 -12 -80 0 -58 3 -69 21 -79 15 -8 18 -14 10
-22 -16 -16 -13 -72 4 -87 17 -14 20 -56 5 -65 -19 -12 -10 -44 20 -65 20 -14
30 -30 31 -48 0 -37 31 -113 49 -123 8 -4 37 -11 63 -14 28 -4 57 -15 68 -26
14 -14 33 -19 69 -19 27 0 61 6 76 12 22 10 28 10 32 0 4 -13 52 -17 52 -4 0
4 18 7 40 7 24 1 45 7 52 17 15 19 62 32 101 29 21 -2 30 2 34 18 3 12 13 21
23 21 22 0 128 55 155 80 12 11 39 23 60 28 37 7 40 10 40 42 0 27 5 36 20 38
34 7 45 23 45 67 0 60 10 105 25 105 6 0 22 11 34 24 17 18 22 33 19 55 -3 17
0 31 5 31 10 0 1 116 -11 135 -3 5 -5 22 -3 37 1 14 -3 29 -9 33 -6 4 -15 17
-20 30 -5 12 -22 29 -39 36 -21 9 -29 19 -26 30 9 27 -5 47 -35 54 -16 4 -41
15 -55 27 -22 17 -34 19 -101 13 -80 -8 -98 -21 -76 -56 7 -10 12 -27 12 -38
0 -24 19 -31 80 -31 41 0 49 -3 55 -22 4 -13 6 -29 6 -36 -1 -7 7 -24 17 -37
11 -14 28 -55 38 -91 15 -56 16 -73 6 -111 -7 -25 -23 -59 -36 -76 -12 -18
-35 -53 -50 -80 -16 -28 -45 -59 -69 -74 -120 -76 -352 -145 -496 -147 -72 -1
-85 2 -95 18 -6 11 -24 34 -39 52 -26 31 -28 38 -22 85 6 44 11 52 35 61 30
10 40 32 40 86 0 29 5 35 43 51 47 20 72 45 62 61 -3 5 -15 10 -26 10 -10 0
-19 5 -19 10 0 6 6 10 14 10 7 0 19 7 26 15 7 8 30 20 51 27 25 7 44 20 52 37
7 15 25 29 47 35 19 6 42 18 52 28 10 10 31 18 47 18 36 0 55 22 45 52 -4 13
-7 29 -5 36 3 17 -18 42 -35 42 -8 0 -20 -12 -26 -26 -8 -17 -38 -39 -91 -66
-48 -24 -81 -47 -84 -58 -3 -11 -15 -22 -27 -26 -47 -13 -96 -38 -96 -49 0 -6
-9 -18 -20 -28 -11 -9 -20 -26 -20 -37 0 -11 -4 -20 -9 -20 -5 0 -17 -3 -27
-7 -16 -6 -17 0 -11 76 6 78 5 83 -14 88 -18 5 -19 11 -13 47 3 22 13 46 21
52 19 13 81 189 98 276 7 38 18 75 25 83 6 8 9 23 5 35 -4 11 -2 20 4 20 6 0
11 9 11 19 0 24 12 51 49 116 17 28 30 64 30 82 1 30 22 63 42 63 5 0 9 10 9
23 0 12 9 33 20 47 11 14 20 30 20 37 0 6 8 18 18 25 21 16 86 173 77 187 -3
6 -13 11 -21 11 -8 0 -14 7 -14 15 0 20 -32 35 -74 35 -19 0 -70 11 -113 24
-180 57 -290 76 -463 83 -76 3 -108 1 -117 -8z m271 -1404 c-4 -8 -7 -15 -9
-15 -2 0 -5 7 -9 15 -3 9 0 15 9 15 9 0 12 -6 9 -15z"/>
<path d="M860 910 c0 -23 41 -53 67 -48 22 4 29 34 13 53 -7 8 -28 15 -46 15
-27 0 -34 -4 -34 -20z"/>
</g>
</svg>
