<?xml version="1.0" standalone="no"?>
<!DOCTYPE svg PUBLIC "-//W3C//DTD SVG 20010904//EN"
 "http://www.w3.org/TR/2001/REC-SVG-20010904/DTD/svg10.dtd">
<svg version="1.0" xmlns="http://www.w3.org/2000/svg"
 width="415.000000pt" height="764.000000pt" viewBox="0 0 415.000000 764.000000"
 preserveAspectRatio="xMidYMid meet">
<metadata>
Created by potrace 1.16, written by Peter Selinger 2001-2019
</metadata>
<g transform="translate(0.000000,764.000000) scale(0.100000,-0.100000)"
fill="#000000" stroke="none">
<path d="M2170 3821 c0 -11 -4 -23 -10 -26 -5 -3 -10 -26 -10 -50 0 -24 -4
-46 -9 -49 -5 -3 -9 -39 -9 -79 l-1 -73 41 -32 c48 -37 98 -44 98 -14 0 11
-11 24 -25 30 -15 7 -25 20 -25 32 0 12 -4 29 -9 38 -5 10 -7 38 -4 63 5 39 8
46 24 42 12 -3 21 1 26 12 4 13 -2 24 -20 37 -15 11 -27 25 -27 31 0 7 5 4 11
-5 5 -10 19 -18 29 -18 15 0 20 7 20 25 0 28 -27 45 -40 26 -5 -9 -9 -6 -13 8
-7 28 -47 29 -47 2z"/>
<path d="M2333 3688 c-11 -13 -24 -33 -28 -45 -7 -26 2 -63 16 -63 5 0 25 15
43 33 27 28 39 33 65 29 27 -4 31 -1 31 18 0 19 -4 22 -29 18 -22 -3 -31 0
-34 14 -7 25 -39 23 -64 -4z"/>
<path d="M2597 3651 c-19 -17 -41 -31 -49 -31 -23 0 -38 -22 -38 -56 0 -23 7
-38 22 -48 12 -9 33 -16 45 -16 30 0 63 -29 63 -55 0 -27 11 -41 38 -49 17 -6
22 -15 22 -44 0 -44 8 -58 35 -63 29 -6 31 -46 5 -81 -17 -22 -21 -41 -19 -76
2 -26 0 -72 -5 -103 -11 -76 -3 -99 35 -99 24 0 29 -4 29 -24 0 -29 21 -48 40
-36 9 6 15 36 18 97 3 60 9 91 18 96 15 8 20 77 6 77 -7 0 -42 62 -42 75 0 2
13 6 29 10 35 7 81 47 81 70 0 8 -12 20 -26 25 -18 7 -24 15 -20 26 3 9 9 27
12 40 5 20 1 26 -27 38 l-34 14 30 4 c20 2 31 9 34 22 4 26 -25 46 -66 46 -28
0 -33 -3 -33 -25 0 -13 8 -29 18 -34 22 -14 6 -14 -18 -1 -11 6 -24 28 -30 49
-5 21 -27 69 -48 107 -30 55 -43 70 -64 72 -18 2 -37 -6 -61 -27z m110 -153
c-3 -8 -6 -5 -6 6 -1 11 2 17 5 13 3 -3 4 -12 1 -19z"/>
<path d="M2240 3580 c0 -17 5 -21 28 -18 16 2 27 9 27 18 0 9 -11 16 -27 18
-23 3 -28 -1 -28 -18z"/>
<path d="M2064 3575 c-3 -8 -3 -18 0 -23 3 -6 -1 -12 -9 -15 -9 -4 -15 -25
-17 -64 -3 -51 -6 -59 -29 -70 -19 -9 -28 -23 -32 -49 -4 -20 -2 -45 4 -55 13
-24 58 -25 65 -1 3 9 14 38 25 64 12 29 19 71 19 112 0 36 5 68 10 71 6 3 10
15 10 26 0 12 -7 19 -20 19 -11 0 -23 -7 -26 -15z"/>
<path d="M2120 3500 c0 -16 5 -21 23 -18 12 2 22 10 22 18 0 8 -10 16 -22 18
-18 3 -23 -2 -23 -18z"/>
<path d="M1854 3285 c-4 -9 -2 -21 4 -27 16 -16 47 -5 47 17 0 26 -42 34 -51
10z"/>
<path d="M1924 3246 c-10 -26 4 -46 31 -46 23 0 26 4 23 28 -2 19 -9 28 -26
30 -13 2 -25 -3 -28 -12z"/>
<path d="M1829 3204 c-7 -9 -14 -36 -14 -59 0 -39 -3 -44 -27 -49 -22 -4 -30
-14 -43 -57 -8 -29 -15 -60 -15 -69 0 -9 -11 -27 -24 -39 -15 -14 -26 -39 -31
-66 -4 -31 -12 -46 -26 -50 -19 -6 -36 -46 -25 -63 3 -6 -5 -12 -17 -16 -38
-9 -61 -78 -35 -104 8 -8 8 -12 1 -12 -6 0 -13 -13 -16 -29 -4 -21 -13 -30
-29 -33 -20 -3 -23 -9 -23 -53 l0 -50 42 1 c29 0 52 9 77 28 34 25 49 66 25
66 -5 0 -3 10 5 22 9 12 16 33 16 46 0 16 7 26 21 29 15 4 20 13 18 32 -1 14
11 53 26 86 15 33 29 76 32 95 3 19 14 43 24 53 11 10 19 22 19 27 0 5 12 10
27 12 19 2 29 10 34 30 4 14 20 44 37 65 21 26 32 54 37 91 l7 52 -35 0 c-22
0 -37 6 -41 15 -7 20 -30 19 -47 -1z"/>
<path d="M2894 3205 c-4 -9 -2 -21 4 -27 15 -15 44 -1 40 19 -4 23 -36 29 -44
8z"/>
<path d="M4100 3091 c-17 -5 -29 -20 -41 -50 -9 -24 -32 -64 -52 -89 -21 -24
-37 -53 -37 -63 0 -10 10 -21 22 -25 16 -5 25 -2 33 12 17 29 59 66 63 55 6
-18 40 -13 51 7 13 24 9 155 -4 158 -5 1 -21 -1 -35 -5z"/>
<path d="M2847 2894 c-4 -4 -7 -16 -7 -26 0 -14 6 -19 23 -16 14 2 22 10 22
23 0 20 -25 32 -38 19z"/>
<path d="M3883 2821 c-51 -47 -53 -51 -53 -102 0 -48 -1 -51 -14 -34 -12 17
-18 18 -40 7 -16 -7 -26 -20 -26 -32 0 -11 -7 -23 -15 -26 -18 -7 -20 -35 -2
-53 10 -11 7 -12 -15 -7 -23 5 -30 2 -43 -24 -9 -17 -24 -30 -34 -30 -13 0
-25 -16 -41 -55 -12 -31 -32 -61 -44 -66 -11 -6 -45 -34 -73 -62 -39 -38 -53
-59 -53 -79 0 -20 -7 -32 -23 -39 -13 -6 -33 -33 -47 -62 -13 -29 -25 -54 -27
-56 -1 -2 -22 6 -46 19 -49 26 -82 22 -74 -9 3 -13 -3 -22 -19 -30 -13 -6 -24
-17 -24 -26 0 -8 -16 -21 -36 -30 -45 -19 -172 -111 -199 -144 -52 -64 -57
-100 -20 -136 16 -17 35 -25 58 -25 22 0 37 6 41 15 3 8 17 15 30 15 14 0 37
5 51 12 18 8 25 19 25 39 0 32 23 49 69 49 16 0 32 4 36 9 3 5 19 12 35 16 17
4 30 13 30 20 0 7 12 23 28 34 46 35 52 41 52 56 0 11 -11 15 -37 15 -20 0
-34 3 -30 6 3 3 29 6 58 6 46 -1 55 3 83 32 17 19 41 48 54 64 13 19 33 32 50
34 26 3 27 5 30 73 3 96 7 103 37 71 13 -14 30 -26 38 -26 15 0 27 41 27 95 0
18 8 43 18 55 16 20 19 21 31 6 7 -9 24 -16 37 -16 20 0 24 5 24 29 0 16 -6
32 -12 34 -9 4 0 16 22 36 19 17 41 31 48 31 8 0 29 7 47 16 23 11 37 28 49
57 21 56 21 106 0 114 -9 3 -25 1 -35 -6 -11 -6 -19 -7 -19 -1 0 5 9 14 19 20
11 5 24 25 31 44 6 19 18 37 26 40 9 4 14 15 12 28 -5 40 -39 32 -95 -21z"/>
<path d="M2756 2845 c-3 -8 -14 -15 -24 -15 -25 0 -48 -27 -56 -66 -4 -17 -18
-41 -31 -53 -14 -11 -25 -30 -25 -40 0 -50 29 -68 52 -32 11 19 12 19 39 -1
14 -11 35 -18 45 -16 28 5 28 39 -1 81 -14 21 -25 42 -25 47 0 6 11 10 25 10
14 0 25 5 25 12 0 6 7 19 16 29 20 22 10 59 -16 59 -10 0 -20 -7 -24 -15z"/>
<path d="M4000 2811 c0 -21 -6 -30 -21 -34 -13 -4 -20 -12 -17 -24 10 -51 108
2 108 59 0 25 -3 28 -35 28 -32 0 -35 -3 -35 -29z"/>
<path d="M2814 2746 c-9 -24 4 -48 23 -44 12 2 18 12 18 28 0 29 -32 41 -41
16z"/>
<path d="M2722 2553 c2 -35 7 -49 20 -51 11 -2 18 6 23 27 9 41 -2 71 -26 71
-18 0 -20 -6 -17 -47z"/>
<path d="M2547 2583 c-3 -4 -8 -27 -12 -50 -6 -39 -5 -43 14 -43 23 0 49 34
53 70 2 20 -2 26 -24 28 -14 2 -28 0 -31 -5z"/>
<path d="M2642 2568 c4 -27 33 -36 42 -13 8 22 -1 35 -25 35 -15 0 -20 -6 -17
-22z"/>
<path d="M2627 2491 c-20 -34 -22 -72 -5 -89 9 -9 9 -12 -2 -12 -8 0 -27 -7
-42 -14 -24 -13 -28 -13 -28 0 0 26 -40 14 -78 -23 -20 -21 -46 -55 -56 -76
-15 -29 -17 -44 -10 -65 12 -35 41 -41 52 -11 6 16 11 19 16 10 5 -7 3 -18 -3
-24 -17 -17 -13 -35 10 -58 17 -17 19 -25 11 -43 -11 -20 -11 -20 -9 4 2 19
-3 26 -22 28 -13 2 -28 -1 -33 -6 -14 -14 -1 -62 17 -62 8 0 15 -7 15 -15 0
-11 -8 -13 -32 -8 l-31 6 6 -39 c4 -21 14 -44 22 -51 9 -6 12 -14 7 -17 -6 -3
-12 1 -16 9 -8 21 -39 19 -54 -5 -7 -11 -19 -20 -27 -20 -8 0 -15 -4 -15 -9 0
-5 -9 -13 -20 -16 -25 -8 -26 -33 -3 -50 16 -12 14 -15 -20 -31 -36 -17 -38
-21 -35 -58 2 -29 8 -42 20 -44 10 -2 19 6 23 20 11 34 34 56 66 63 16 4 36
13 44 22 14 13 17 12 34 -8 10 -12 23 -19 29 -15 7 4 12 25 12 47 0 25 10 57
26 84 14 25 24 55 22 69 -3 25 26 66 47 66 7 0 15 14 19 31 10 50 7 59 -14 59
-26 0 -25 15 1 39 22 19 36 33 77 75 28 29 29 56 2 56 -11 0 -20 5 -20 10 0 6
11 10 24 10 43 0 40 35 -4 54 -8 3 -2 4 13 1 35 -7 67 2 67 19 0 7 -11 23 -25
36 -15 14 -25 35 -25 52 0 20 -5 28 -18 28 -10 0 -25 -13 -35 -29z"/>
<path d="M2510 2454 c-6 -14 -8 -30 -4 -35 9 -15 51 -10 58 7 10 26 -3 54 -25
54 -12 0 -23 -10 -29 -26z"/>
<path d="M1437 2433 c-4 -3 -10 -28 -13 -54 -6 -46 -9 -49 -48 -62 -30 -10
-42 -20 -44 -37 -2 -12 2 -26 8 -30 20 -12 3 -28 -25 -22 -22 4 -25 1 -25 -25
0 -16 5 -34 12 -41 9 -9 8 -12 -5 -12 -12 0 -17 -8 -17 -27 0 -16 -4 -33 -8
-40 -4 -7 -24 -19 -43 -27 -37 -15 -69 -53 -69 -81 0 -20 30 -19 46 3 12 14
12 12 2 -18 -6 -19 -13 -29 -16 -22 -6 18 -42 14 -49 -5 -4 -10 -13 -24 -20
-31 -15 -15 -7 -42 13 -42 11 0 14 -17 14 -69 l0 -68 -52 -7 c-29 -4 -56 -13
-60 -19 -4 -6 -1 -18 7 -27 8 -9 11 -26 8 -42 -4 -20 -12 -28 -32 -30 -25 -3
-26 -5 -23 -55 3 -44 1 -52 -17 -58 -16 -5 -22 -18 -27 -56 -4 -32 -11 -49
-20 -49 -8 0 -14 10 -14 25 0 16 -6 25 -15 25 -22 0 -56 -60 -52 -92 2 -20 -2
-29 -19 -37 -13 -5 -31 -22 -40 -37 -14 -21 -16 -31 -7 -55 7 -17 7 -31 2 -35
-5 -3 -9 -15 -9 -26 0 -24 -43 -68 -67 -68 -9 0 -34 -8 -55 -17 -27 -12 -40
-25 -44 -43 -3 -14 -9 -35 -14 -47 -12 -29 -3 -53 19 -53 18 0 51 31 69 65 9
18 12 17 32 -18 27 -45 52 -48 110 -10 29 19 40 33 38 48 -3 25 25 70 84 134
28 31 78 121 78 141 0 6 7 18 15 26 8 9 15 24 15 34 0 10 4 21 9 24 5 4 12 24
16 46 4 22 11 40 16 40 5 0 9 5 9 12 0 6 13 23 29 37 54 49 111 230 83 264 -9
11 -5 20 18 42 17 16 30 38 30 50 0 22 28 55 47 55 6 0 16 7 24 16 10 12 10
20 1 35 -16 25 -15 29 7 29 26 0 42 23 48 68 4 28 1 43 -12 55 -15 16 -15 17
10 17 14 0 28 7 31 15 4 8 17 15 30 15 21 0 24 5 24 35 0 19 9 52 20 72 11 21
20 55 20 75 0 21 4 38 9 38 17 0 40 30 35 45 -5 11 -22 15 -63 15 -32 0 -61
-3 -64 -7z"/>
<path d="M2331 2079 c-6 -18 -11 -43 -11 -55 0 -19 5 -24 24 -24 33 0 48 22
44 67 -2 30 -7 39 -24 41 -17 2 -24 -5 -33 -29z"/>
<path d="M2710 1784 c-47 -24 -95 -56 -106 -70 -15 -19 -34 -28 -66 -31 -32
-4 -47 -1 -57 11 -7 9 -24 16 -37 16 -14 0 -30 10 -40 25 -11 17 -25 25 -45
25 -24 0 -29 -4 -29 -25 0 -14 -8 -29 -20 -35 -12 -6 -20 -21 -20 -35 0 -21 5
-25 29 -25 16 0 34 -7 41 -15 7 -9 29 -15 55 -15 40 0 42 -2 37 -25 -4 -22 -1
-25 22 -25 14 0 26 6 26 13 0 6 9 -3 20 -20 17 -29 25 -33 64 -33 43 0 45 1
48 33 3 29 7 32 43 38 22 3 50 10 62 17 12 7 34 35 50 63 15 28 38 55 50 60
26 10 30 31 8 49 -8 7 -15 21 -15 31 0 12 -7 19 -17 19 -10 0 -56 -21 -103
-46z"/>
<path d="M2814 1696 c-3 -8 0 -24 6 -36 9 -16 19 -20 43 -18 22 2 33 9 36 22
2 11 -5 26 -15 33 -24 17 -63 17 -70 -1z"/>
<path d="M1003 1649 c-16 -16 -5 -39 19 -39 14 0 19 6 16 22 -4 25 -19 33 -35
17z"/>
<path d="M630 900 c-6 -10 -10 -27 -10 -37 -1 -22 -38 -67 -62 -76 -10 -4 -18
-16 -18 -27 0 -11 -3 -20 -8 -20 -4 0 -16 -15 -26 -34 -16 -30 -20 -33 -33
-20 -23 23 -42 17 -64 -21 -12 -20 -30 -40 -40 -46 -11 -5 -19 -14 -19 -20 0
-6 12 -22 28 -37 15 -15 23 -24 18 -20 -6 5 -22 8 -37 8 -18 0 -30 -6 -33 -18
-3 -10 -20 -26 -36 -35 -29 -17 -74 -77 -130 -172 -14 -23 -37 -56 -53 -74
-15 -18 -29 -45 -32 -59 -10 -47 -30 -77 -53 -80 -17 -3 -22 -9 -20 -25 2 -16
11 -23 34 -25 22 -2 40 5 62 22 16 15 32 26 35 26 4 0 9 -17 12 -37 12 -68 15
-73 44 -73 39 0 55 22 48 65 -5 32 -3 36 26 49 25 10 41 30 69 87 21 41 39 85
40 99 3 22 9 25 46 28 50 4 63 23 37 52 -16 18 -17 20 -2 20 11 0 17 8 17 24
0 13 7 29 15 36 8 7 15 20 15 28 0 12 3 13 12 4 7 -7 20 -12 30 -12 13 0 18 8
18 25 0 36 19 67 81 135 20 21 39 51 43 65 8 31 82 147 102 158 20 11 18 45
-3 51 -10 3 -46 5 -81 5 -50 -1 -64 -5 -72 -19z m-280 -505 c0 -9 -9 -15 -21
-15 -18 0 -19 2 -9 15 7 8 16 15 21 15 5 0 9 -7 9 -15z m-47 -59 c3 -8 -3 -22
-14 -32 -18 -16 -19 -16 -19 8 0 37 22 53 33 24z m-53 -90 c0 -2 -7 -7 -16
-10 -8 -3 -12 -2 -9 4 6 10 25 14 25 6z"/>
<path d="M532 848 c4 -30 43 -33 43 -3 0 13 -8 21 -23 23 -20 3 -23 0 -20 -20z"/>
</g>
</svg>
